<?xml version="1.0" encoding="UTF-8" standalone="no"?>
<svg
   width="210mm"
   height="297mm"
   viewBox="0 0 210 297"
   version="1.1"
   id="svg8"
   inkscape:version="1.1.1 (3bf5ae0d25, 2021-09-20)"
   sodipodi:docname="Solar PV Holder_v3_epoxy.svg"
   xmlns:inkscape="http://www.inkscape.org/namespaces/inkscape"
   xmlns:sodipodi="http://sodipodi.sourceforge.net/DTD/sodipodi-0.dtd"
   xmlns="http://www.w3.org/2000/svg"
   xmlns:svg="http://www.w3.org/2000/svg"
   xmlns:rdf="http://www.w3.org/1999/02/22-rdf-syntax-ns#"
   xmlns:cc="http://creativecommons.org/ns#"
   xmlns:dc="http://purl.org/dc/elements/1.1/">
  <defs
     id="defs2">
    <inkscape:path-effect
       effect="fillet_chamfer"
       id="path-effect1184"
       is_visible="true"
       lpeversion="1"
       satellites_param="F,0,0,1,0,3,0,1 @ F,0,0,1,0,3,0,1 @ F,0,0,1,0,3,0,1 @ F,0,0,1,0,3,0,1 @ F,0,0,1,0,3,0,1 @ F,0,0,1,0,3,0,1"
       unit="mm"
       method="auto"
       mode="F"
       radius="3"
       chamfer_steps="1"
       flexible="false"
       use_knot_distance="true"
       apply_no_radius="true"
       apply_with_radius="true"
       only_selected="false"
       hide_knots="false" />
    <inkscape:path-effect
       effect="fillet_chamfer"
       id="path-effect1155"
       is_visible="true"
       lpeversion="1"
       satellites_param="F,0,0,1,0,3,0,1 @ F,0,0,1,0,3,0,1 @ F,0,0,1,0,3,0,1 @ F,0,0,1,0,3,0,1 @ F,0,0,1,0,3,0,1 @ F,0,0,1,0,3,0,1"
       unit="mm"
       method="auto"
       mode="F"
       radius="3"
       chamfer_steps="1"
       flexible="false"
       use_knot_distance="true"
       apply_no_radius="true"
       apply_with_radius="true"
       only_selected="false"
       hide_knots="false" />
  </defs>
  <sodipodi:namedview
     id="base"
     pagecolor="#ffffff"
     bordercolor="#666666"
     borderopacity="1.0"
     inkscape:pageopacity="0.0"
     inkscape:pageshadow="2"
     inkscape:zoom="3.7991379"
     inkscape:cx="241.23894"
     inkscape:cy="528.67257"
     inkscape:document-units="mm"
     inkscape:current-layer="layer1"
     showgrid="false"
     inkscape:window-width="1920"
     inkscape:window-height="1017"
     inkscape:window-x="-8"
     inkscape:window-y="-8"
     inkscape:window-maximized="1"
     inkscape:snap-bbox="true"
     inkscape:bbox-paths="true"
     inkscape:snap-bbox-edge-midpoints="true"
     inkscape:snap-bbox-midpoints="true"
     inkscape:object-paths="true"
     inkscape:snap-intersection-paths="true"
     inkscape:snap-smooth-nodes="true"
     inkscape:snap-midpoints="true"
     inkscape:snap-object-midpoints="true"
     inkscape:pagecheckerboard="0"
     inkscape:snap-center="true"
     inkscape:bbox-nodes="true"
     inkscape:document-rotation="0" />
  <metadata
     id="metadata5">
    <rdf:RDF>
      <cc:Work
         rdf:about="">
        <dc:format>image/svg+xml</dc:format>
        <dc:type
           rdf:resource="http://purl.org/dc/dcmitype/StillImage" />
      </cc:Work>
    </rdf:RDF>
  </metadata>
  <g
     inkscape:label="Layer 1"
     inkscape:groupmode="layer"
     id="layer1">
    <path
       id="rect895-9"
       style="fill:none;stroke:#000000;stroke-width:0.0872416"
       d="m 135.63516,5.5299812 c -0.36655,0 -0.66632,0.2664274 -0.72296,0.6164998 l -0.003,-0.00103 -9.25267,26.876912 v 5.16e-4 a 4.9499998,4.9499998 0 0 0 -0.6568,2.463416 4.9499998,4.9499998 0 0 0 0.62942,2.414839 v 5.18e-4 l 9.31829,27.067597 0.002,-0.001 c 0.10503,0.277188 0.37035,0.47439 0.68523,0.47439 h 58.44294 c 0.40716,0 0.73484,-0.327681 0.73484,-0.734838 v -0.0987 l 9.22062,-26.783895 v -5.16e-4 a 4.9499998,4.9499998 0 0 0 0.62942,-2.414838 4.9499998,4.9499998 0 0 0 -0.6568,-2.463417 v -5.16e-4 L 194.80984,6.2317472 c -0.0176,-0.3913246 -0.33592,-0.701766 -0.73174,-0.701766 z" />
    <circle
       cy="35.486179"
       cx="129.95032"
       id="path817-8-8-8-6"
       style="fill:none;fill-opacity:1;stroke:#000000;stroke-width:0.1;stroke-miterlimit:4;stroke-dasharray:none;stroke-dashoffset:0;stroke-opacity:1"
       r="1.95" />
    <circle
       cy="35.486294"
       cx="187.18156"
       id="path817-8-8-8-6-8"
       style="fill:none;fill-opacity:1;stroke:#000000;stroke-width:0.1;stroke-miterlimit:4;stroke-dasharray:none;stroke-dashoffset:0;stroke-opacity:1"
       r="2.45" />
    <circle
       r="2.45"
       cy="35.486294"
       cx="157.33157"
       id="path817-8-8-8-6-5"
       style="fill:none;fill-opacity:1;stroke:#000000;stroke-width:0.1;stroke-miterlimit:4;stroke-dasharray:none;stroke-dashoffset:0;stroke-opacity:1" />
    <circle
       cy="35.486179"
       cx="199.71307"
       id="path817-8-8-8-6-6"
       style="fill:none;fill-opacity:1;stroke:#000000;stroke-width:0.1;stroke-miterlimit:4;stroke-dasharray:none;stroke-dashoffset:0;stroke-opacity:1"
       r="1.95" />
    <circle
       cy="35.486294"
       cx="172.18156"
       id="path817-8-8-8-6-8-1"
       style="fill:none;fill-opacity:1;stroke:#000000;stroke-width:0.1;stroke-miterlimit:4;stroke-dasharray:none;stroke-dashoffset:0;stroke-opacity:1"
       r="2.45" />
    <circle
       cy="35.486294"
       cx="142.48157"
       id="path817-8-8-8-6-8-5"
       style="fill:none;fill-opacity:1;stroke:#000000;stroke-width:0.1;stroke-miterlimit:4;stroke-dasharray:none;stroke-dashoffset:0;stroke-opacity:1"
       r="2.45" />
    <rect
       style="fill:none;stroke:#000000;stroke-width:0.2"
       id="rect949-0"
       width="49.799999"
       height="3.8"
       x="139.93156"
       y="33.586292" />
    <rect
       style="fill:none;stroke:#000000;stroke-width:0.200001"
       id="rect949-1-2"
       width="5.8000002"
       height="49.799999"
       x="161.93156"
       y="35.586292" />
    <path
       sodipodi:type="star"
       style="fill:none;stroke:#000000;stroke-width:0.2"
       id="path1065"
       sodipodi:sides="3"
       sodipodi:cx="164.83156"
       sodipodi:cy="41.263157"
       sodipodi:r1="11.35373"
       sodipodi:r2="5.6768651"
       sodipodi:arg1="1.5707963"
       sodipodi:arg2="2.6179939"
       inkscape:flatsided="false"
       inkscape:rounded="0"
       inkscape:randomized="0"
       d="m 164.83156,52.616887 -4.91631,-8.515298 -4.91631,-8.515297 9.83262,0 9.83262,0 -4.91631,8.515298 z"
       inkscape:transform-center-x="1.6850331e-06"
       inkscape:transform-center-y="2.838432" />
    <rect
       style="fill:none;stroke:#000000;stroke-width:0.2"
       id="rect1100"
       width="59.799999"
       height="59.799999"
       x="32.862545"
       y="21.107813"
       ry="2.7857196" />
    <path
       sodipodi:type="star"
       style="fill:none;stroke:#000000;stroke-width:0.139974"
       id="path1106"
       sodipodi:sides="6"
       sodipodi:cx="-43.267624"
       sodipodi:cy="32.50172"
       sodipodi:r1="32.843067"
       sodipodi:r2="28.44293"
       sodipodi:arg1="1.0471976"
       sodipodi:arg2="1.5707963"
       inkscape:flatsided="true"
       inkscape:rounded="0"
       inkscape:randomized="0"
       d="m -29.846092,60.944652 -26.843067,-2e-6 a 5.1961524,5.1961524 30.000003 0 1 -4.5,-2.598076 L -74.610691,35.099795 a 5.1961524,5.1961524 90.000003 0 1 0,-5.196152 L -61.189156,6.6568653 a 5.1961524,5.1961524 150 0 1 4.5,-2.598076 l 26.843067,1.3e-6 a 5.1961524,5.1961524 30.000003 0 1 4.5,2.5980764 l 13.421532,23.246779 a 5.1961524,5.1961524 90.000003 0 1 0,5.196152 l -13.421535,23.246778 a 5.1961524,5.1961524 150 0 1 -4.5,2.598076 z"
       transform="matrix(1.4287579,0,0,1.4289268,124.5815,4.565233)"
       inkscape:path-effect="#path-effect1155" />
    <circle
       style="fill:none;stroke:#000000;stroke-width:0.2"
       id="path1157"
       cx="24.886349"
       cy="51.043087"
       r="1.9" />
    <rect
       style="fill:none;stroke:#000000;stroke-width:0.200001"
       id="rect1159"
       width="91.552002"
       height="9.6077242"
       x="16.986546"
       y="46.203949" />
    <rect
       style="fill:none;stroke:#000000;stroke-width:0.200001"
       id="rect1159-0"
       width="7.7999988"
       height="9.6077251"
       x="16.986347"
       y="46.239223" />
    <circle
       style="fill:none;stroke:#000000;stroke-width:0.2"
       id="path1157-1"
       cx="100.73875"
       cy="50.972889"
       r="1.9" />
    <rect
       style="fill:none;stroke:#000000;stroke-width:0.200001"
       id="rect1159-0-0"
       width="7.7999988"
       height="9.6077261"
       x="100.73875"
       y="46.169025" />
    <ellipse
       cy="51.074707"
       cx="36.399445"
       id="path817-8-8-8-6-8-5-2"
       style="fill:none;fill-opacity:1;stroke:#000000;stroke-width:0.14;stroke-miterlimit:4;stroke-dasharray:none;stroke-dashoffset:0;stroke-opacity:1"
       rx="3.4299998"
       ry="3.4300003" />
    <ellipse
       cy="51.007812"
       cx="89.125656"
       id="path817-8-8-8-6-8-5-2-1"
       style="fill:none;fill-opacity:1;stroke:#000000;stroke-width:0.14;stroke-miterlimit:4;stroke-dasharray:none;stroke-dashoffset:0;stroke-opacity:1"
       rx="3.4299998"
       ry="3.4300003" />
    <rect
       style="fill:none;stroke:#000000;stroke-width:0.273793"
       id="rect949-0-0"
       width="52.726208"
       height="6.7262073"
       x="36.399445"
       y="47.644707" />
    <rect
       style="fill:none;stroke:#000000;stroke-width:0.200001"
       id="rect949-1-2-2"
       width="5.8000002"
       height="29.800001"
       x="59.862549"
       y="58.7015" />
    <path
       sodipodi:type="star"
       style="fill:none;stroke:#000000;stroke-width:0.2"
       id="path1065-4"
       sodipodi:sides="3"
       sodipodi:cx="62.76255"
       sodipodi:cy="58.989445"
       sodipodi:r1="11.35373"
       sodipodi:r2="5.6768651"
       sodipodi:arg1="1.5707963"
       sodipodi:arg2="2.6179939"
       inkscape:flatsided="false"
       inkscape:rounded="0"
       inkscape:randomized="0"
       d="m 62.762551,70.343175 -4.91631,-8.515298 -4.91631,-8.515297 9.832619,0 9.832619,-10e-7 -4.916309,8.515298 z"
       inkscape:transform-center-x="1.6850331e-06"
       inkscape:transform-center-y="2.838432" />
    <ellipse
       style="fill:none;stroke:#000000;stroke-width:0.285056"
       id="path1227"
       cx="62.76255"
       cy="91.771477"
       rx="7.3574719"
       ry="4.8574719" />
    <rect
       style="fill:none;stroke:#000000;stroke-width:0.2"
       id="rect1100-1"
       width="59.799999"
       height="59.799999"
       x="32.862564"
       y="111.31853"
       ry="2.7857196" />
    <path
       id="path1106-1"
       style="fill:none;stroke:#000000;stroke-width:0.755908"
       d="m 164.73633,380.12891 c -10.02486,-2.5e-4 -19.28831,5.34846 -24.30078,14.03125 L 67.958984,519.70703 c -5.013001,8.68307 -5.013001,19.38138 0,28.06445 l 72.476566,125.54688 c 5.01247,8.68279 14.27592,14.0315 24.30078,14.03125 h 44.71875 c 0.26421,-7.1673 6.82374,-13.57734 16.79687,-16.41406 v -83.10157 c -7.96523,-13.79432 -15.92868,-27.58967 -23.89257,-41.38476 h -57.22657 c -1.15758,0.33322 -2.35596,0.50348 -3.56054,0.50586 -7.159,-4.9e-4 -12.9624,-5.80389 -12.96289,-12.96289 -5.9e-4,-7.15977 5.80312,-12.96436 12.96289,-12.96485 h 188.77929 c 0.82385,-0.16486 1.66178,-0.24924 2.50196,-0.25195 7.159,4.9e-4 12.9624,5.80389 12.96289,12.96289 5.8e-4,7.15976 -5.80313,12.96435 -12.96289,12.96484 -0.84155,-0.003 -1.68079,-0.0881 -2.50586,-0.2539 h -58.28125 c -7.96355,13.79529 -15.92775,27.59021 -23.89258,41.38476 v 83.10157 c 9.97313,2.83672 16.53266,9.24676 16.79687,16.41406 h 44.71875 c 10.02486,2.5e-4 19.28831,-5.34846 24.30078,-14.03125 L 406.4668,547.77148 c 5.013,-8.68307 5.013,-19.38138 0,-28.06445 L 333.99023,394.16016 c -5.01247,-8.68279 -14.27592,-14.0315 -24.30078,-14.03125 z"
       transform="scale(0.26458333)"
       sodipodi:nodetypes="csccscccccccscccscccccccsccscc" />
    <circle
       style="fill:none;stroke:#000000;stroke-width:0.2"
       id="path1157-7"
       cx="24.886358"
       cy="141.25374"
       r="1.9" />
    <circle
       style="fill:none;stroke:#000000;stroke-width:0.2"
       id="path1157-1-7"
       cx="100.73875"
       cy="141.18355"
       r="1.9" />
  </g>
</svg>
