<?xml version="1.0" encoding="UTF-8" standalone="no"?>
<svg
   sodipodi:docname="PCB_Lapse-O-Matic.svg"
   inkscape:version="1.1.1 (3bf5ae0d25, 2021-09-20)"
   id="svg8"
   version="1.1"
   viewBox="0 0 100.0 100.0"
   height="100.0mm"
   width="100.0mm"
   xmlns:inkscape="http://www.inkscape.org/namespaces/inkscape"
   xmlns:sodipodi="http://sodipodi.sourceforge.net/DTD/sodipodi-0.dtd"
   xmlns="http://www.w3.org/2000/svg"
   xmlns:svg="http://www.w3.org/2000/svg"
   xmlns:rdf="http://www.w3.org/1999/02/22-rdf-syntax-ns#"
   xmlns:cc="http://creativecommons.org/ns#"
   xmlns:dc="http://purl.org/dc/elements/1.1/">
  <defs
     id="defs2">
    <filter
       inkscape:collect="always"
       style="color-interpolation-filters:sRGB"
       id="filter1025"
       x="-0.00042664615"
       width="1.0008533"
       y="-0.00087778769"
       height="1.0017556">
      <feGaussianBlur
         inkscape:collect="always"
         stdDeviation="0.00011565665"
         id="feGaussianBlur1027" />
    </filter>
    <filter
       inkscape:collect="always"
       style="color-interpolation-filters:sRGB"
       id="filter1025-3"
       x="-0.011220083"
       width="1.0224402"
       y="-0.011220083"
       height="1.0224402">
      <feGaussianBlur
         inkscape:collect="always"
         stdDeviation="0.00011565665"
         id="feGaussianBlur1027-4" />
    </filter>
  </defs>
  <sodipodi:namedview
     id="base"
     pagecolor="#ffffff"
     bordercolor="#666666"
     borderopacity="1.0"
     inkscape:pageopacity="0.0"
     inkscape:pageshadow="2"
     inkscape:zoom="1.979899"
     inkscape:cx="264.40743"
     inkscape:cy="230.06224"
     inkscape:document-units="mm"
     inkscape:current-layer="g840"
     inkscape:document-rotation="0"
     showgrid="false"
     inkscape:window-width="1920"
     inkscape:window-height="1017"
     inkscape:window-x="-8"
     inkscape:window-y="-8"
     inkscape:window-maximized="1"
     inkscape:snap-others="true"
     inkscape:snap-object-midpoints="true"
     inkscape:pagecheckerboard="0"
     inkscape:snap-bbox="true"
     inkscape:bbox-paths="true"
     inkscape:bbox-nodes="true"
     inkscape:snap-bbox-edge-midpoints="true"
     inkscape:snap-bbox-midpoints="true" />
  <metadata
     id="metadata5">
    <rdf:RDF>
      <cc:Work
         rdf:about="">
        <dc:format>image/svg+xml</dc:format>
        <dc:type
           rdf:resource="http://purl.org/dc/dcmitype/StillImage" />
      </cc:Work>
    </rdf:RDF>
  </metadata>
  <g
     inkscape:label="[fixed] BG"
     inkscape:groupmode="layer"
     sodipodi:insensitive="true"
     id="g838"
     style="display:none">
    <rect
       x="0"
       y="0"
       width="50"
       height="100"
       style="fill:#ffffff;fill-opacity:1;stroke:none"
       id="rect836" />
  </g>
  <g
     inkscape:label="Edge.Cuts"
     inkscape:groupmode="layer"
     id="g840"
     style="display:inline">
    <path
       id="rect1301"
       style="fill:none;stroke:#000000;stroke-width:0.655468;stroke-miterlimit:4;stroke-dasharray:none"
       d="M 88.6621 78.5156 L 87.9638 78.5332 L 87.2749 78.5852 L 86.5963 78.6709 L 85.9287 78.7895 L 85.273 78.9401 L 84.6301 79.1219 L 84.0008 79.3339 L 83.3859 79.5755 L 82.7863 79.8457 L 82.2028 80.1438 L 81.6362 80.4688 L 81.0874 80.82 L 80.5572 81.1965 L 80.0464 81.5974 L 79.5559 82.022 L 79.0866 82.4694 L 78.6392 82.9388 L 78.2146 83.4292 L 77.8137 83.94 L 77.4372 84.4702 L 77.086 85.019 L 76.761 85.5856 L 76.4629 86.1691 L 76.1927 86.7687 L 75.9511 87.3836 L 75.739 88.013 L 75.5573 88.6559 L 75.4067 89.3115 L 75.2881 89.9791 L 75.2024 90.6577 L 75.1503 91.3466 L 75.1328 92.0449 L 75.1328 97.043 L 67.2676 97.043 L 66.6941 97.0574 L 66.1283 97.1001 L 65.571 97.1705 L 65.0227 97.2679 L 64.4843 97.3916 L 63.9563 97.5409 L 63.4394 97.715 L 62.9344 97.9134 L 62.442 98.1354 L 61.9627 98.3802 L 61.4974 98.6471 L 61.0467 98.9355 L 60.6112 99.2447 L 60.1917 99.574 L 59.7889 99.9227 L 59.4035 100.29 L 59.036 100.676 L 58.6873 101.078 L 58.358 101.498 L 58.0488 101.933 L 57.7604 102.384 L 57.4934 102.849 L 57.2487 103.329 L 57.0267 103.821 L 56.8283 104.326 L 56.6541 104.843 L 56.5049 105.371 L 56.3812 105.909 L 56.2838 106.458 L 56.2134 107.015 L 56.1707 107.581 L 56.1562 108.154 L 56.1562 256.189 L 56.1707 256.763 L 56.2134 257.329 L 56.2838 257.886 L 56.3812 258.434 L 56.5049 258.973 L 56.6541 259.501 L 56.8283 260.018 L 57.0267 260.523 L 57.2487 261.015 L 57.4934 261.494 L 57.7604 261.96 L 58.0488 262.41 L 58.358 262.846 L 58.6873 263.265 L 59.036 263.668 L 59.4035 264.054 L 59.7889 264.421 L 60.1917 264.77 L 60.6112 265.099 L 61.0467 265.408 L 61.4974 265.697 L 61.9627 265.964 L 62.442 266.208 L 62.9344 266.43 L 63.4394 266.629 L 63.9563 266.803 L 64.4843 266.952 L 65.0227 267.076 L 65.571 267.173 L 66.1283 267.244 L 66.6941 267.286 L 67.2676 267.301 L 75.1328 267.301 L 75.1328 272.299 L 75.1503 272.997 L 75.2024 273.686 L 75.2881 274.365 L 75.4067 275.032 L 75.5573 275.688 L 75.739 276.331 L 75.9511 276.96 L 76.1927 277.575 L 76.4629 278.175 L 76.761 278.758 L 77.086 279.325 L 77.4372 279.874 L 77.8137 280.404 L 78.2146 280.915 L 78.6392 281.405 L 79.0866 281.874 L 79.5559 282.322 L 80.0464 282.746 L 80.5572 283.147 L 81.0874 283.524 L 81.6362 283.875 L 82.2028 284.2 L 82.7863 284.498 L 83.3859 284.768 L 84.0008 285.01 L 84.6301 285.222 L 85.273 285.404 L 85.9287 285.554 L 86.5963 285.673 L 87.2749 285.759 L 87.9638 285.811 L 88.6621 285.828 L 135.639 285.828 L 135.639 301.539 L 135.656 302.217 L 135.705 302.885 L 135.789 303.543 L 135.904 304.191 L 136.051 304.828 L 136.227 305.451 L 136.434 306.062 L 136.668 306.66 L 136.93 307.242 L 137.219 307.809 L 137.535 308.357 L 137.875 308.891 L 138.24 309.404 L 138.629 309.9 L 139.043 310.377 L 139.477 310.832 L 139.934 311.268 L 140.408 311.678 L 140.904 312.068 L 141.418 312.434 L 141.951 312.773 L 142.502 313.09 L 143.068 313.379 L 143.65 313.641 L 144.246 313.875 L 144.857 314.082 L 145.482 314.258 L 146.117 314.404 L 146.766 314.52 L 147.426 314.602 L 148.094 314.652 L 148.771 314.67 L 273.172 314.67 L 273.85 314.652 L 274.518 314.602 L 275.176 314.52 L 275.824 314.404 L 276.461 314.258 L 277.084 314.082 L 277.695 313.875 L 278.293 313.641 L 278.875 313.379 L 279.441 313.09 L 279.99 312.773 L 280.523 312.434 L 281.037 312.068 L 281.533 311.678 L 282.01 311.268 L 282.465 310.832 L 282.9 310.377 L 283.312 309.9 L 283.701 309.404 L 284.066 308.891 L 284.406 308.357 L 284.723 307.809 L 285.012 307.242 L 285.273 306.66 L 285.508 306.062 L 285.713 305.451 L 285.891 304.828 L 286.037 304.191 L 286.152 303.543 L 286.234 302.885 L 286.285 302.217 L 286.303 301.539 L 286.303 285.828 L 333.078 285.828 L 333.776 285.811 L 334.465 285.759 L 335.144 285.673 L 335.812 285.554 L 336.467 285.404 L 337.11 285.222 L 337.739 285.01 L 338.354 284.768 L 338.954 284.498 L 339.537 284.2 L 340.104 283.875 L 340.653 283.524 L 341.183 283.147 L 341.694 282.746 L 342.184 282.322 L 342.654 281.874 L 343.101 281.405 L 343.526 280.915 L 343.927 280.404 L 344.303 279.874 L 344.654 279.325 L 344.979 278.758 L 345.277 278.175 L 345.548 277.575 L 345.789 276.96 L 346.001 276.331 L 346.183 275.688 L 346.334 275.032 L 346.452 274.365 L 346.538 273.686 L 346.59 272.997 L 346.607 272.299 L 346.607 267.301 L 354.674 267.301 L 355.247 267.286 L 355.813 267.244 L 356.37 267.173 L 356.919 267.076 L 357.457 266.952 L 357.985 266.803 L 358.502 266.629 L 359.007 266.43 L 359.499 266.208 L 359.979 265.964 L 360.444 265.697 L 360.895 265.408 L 361.33 265.099 L 361.75 264.77 L 362.152 264.421 L 362.538 264.054 L 362.905 263.668 L 363.254 263.265 L 363.583 262.846 L 363.893 262.41 L 364.181 261.96 L 364.448 261.494 L 364.693 261.015 L 364.915 260.523 L 365.113 260.018 L 365.287 259.501 L 365.437 258.973 L 365.56 258.434 L 365.658 257.886 L 365.728 257.329 L 365.771 256.763 L 365.785 256.189 L 365.785 108.154 L 365.771 107.581 L 365.728 107.015 L 365.658 106.458 L 365.56 105.909 L 365.437 105.371 L 365.287 104.843 L 365.113 104.326 L 364.915 103.821 L 364.693 103.329 L 364.448 102.849 L 364.181 102.384 L 363.893 101.933 L 363.583 101.498 L 363.254 101.078 L 362.905 100.676 L 362.538 100.29 L 362.152 99.9227 L 361.75 99.574 L 361.33 99.2447 L 360.895 98.9355 L 360.444 98.6471 L 359.979 98.3802 L 359.499 98.1354 L 359.007 97.9134 L 358.502 97.715 L 357.985 97.5409 L 357.457 97.3916 L 356.919 97.2679 L 356.37 97.1705 L 355.813 97.1001 L 355.247 97.0574 L 354.674 97.043 L 346.607 97.043 L 346.607 92.0449 L 346.59 91.3466 L 346.538 90.6577 L 346.452 89.9791 L 346.334 89.3115 L 346.183 88.6559 L 346.001 88.013 L 345.789 87.3836 L 345.548 86.7687 L 345.277 86.1691 L 344.979 85.5856 L 344.654 85.019 L 344.303 84.4702 L 343.927 83.94 L 343.526 83.4292 L 343.101 82.9388 L 342.654 82.4694 L 342.184 82.022 L 341.694 81.5974 L 341.183 81.1965 L 340.653 80.82 L 340.104 80.4688 L 339.537 80.1438 L 338.954 79.8457 L 338.354 79.5755 L 337.739 79.3339 L 337.11 79.1219 L 336.467 78.9401 L 335.812 78.7895 L 335.144 78.6709 L 334.465 78.5852 L 333.776 78.5332 L 333.078 78.5156 L 88.6621 78.5156 L 88.6621 78.5156"
       transform="scale(0.264583, 0.264583)" />
  </g>
  <g
     inkscape:label="B.Cu"
     inkscape:groupmode="layer"
     id="g842"
     style="display:none" />
  <g
     inkscape:label="B.Mask"
     inkscape:groupmode="layer"
     id="g844"
     style="display:none" />
  <g
     inkscape:label="B.SilkS"
     inkscape:groupmode="layer"
     id="g846"
     style="display:none" />
  <g
     inkscape:label="F.Cu"
     inkscape:groupmode="layer"
     id="g848"
     style="display:none" />
  <g
     inkscape:label="F.Mask"
     inkscape:groupmode="layer"
     id="g850"
     style="display:none" />
  <g
     inkscape:label="F.SilkS"
     inkscape:groupmode="layer"
     id="g852"
     style="display:inline">
    <circle
       style="display:inline;fill:none;stroke:#000000;stroke-width:0.1306"
       id="path887-5-20-9-7"
       cx="-65.680008"
       cy="18.372696"
       r="2.9347"
       transform="rotate(-90)" />
    <circle
       style="display:inline;fill:none;stroke:#000000;stroke-width:0.1306"
       id="path887-5-3-7-0-6"
       cx="-30.786375"
       cy="18.372696"
       r="2.9347"
       transform="rotate(-90)" />
    <circle
       style="display:inline;fill:none;stroke:#000000;stroke-width:0.1306"
       id="path887-5-5-2-4-1"
       cx="-30.786375"
       cy="93.266296"
       r="2.9347"
       transform="rotate(-90)" />
    <circle
       style="display:inline;fill:none;stroke:#000000;stroke-width:0.1306"
       id="path887-5-2-4-6-2"
       cx="-65.680008"
       cy="93.266296"
       r="2.9347"
       transform="rotate(-90)" />
  </g>
  <g
     inkscape:label="Dwgs.User"
     inkscape:groupmode="layer"
     id="g854"
     style="display:none" />
  <g
     inkscape:label="Drill"
     inkscape:groupmode="layer"
     id="g856"
     style="display:inline;opacity:1;filter:url(#filter1025)">
    <circle
       style="display:inline;fill:none;stroke:#000000;stroke-width:0.0652999;filter:url(#filter1025-3)"
       id="path887-7-8"
       cx="20.161816"
       cy="34.935627"
       r="1.46735"
       transform="matrix(6.12303e-17 -1 1 6.12303e-17 -16.5629 85.8418)" />
    <circle
       style="display:inline;fill:none;stroke:#000000;stroke-width:0.0653;filter:url(#filter1025-3)"
       id="path887-9-9-5"
       cx="55.055443"
       cy="34.935627"
       r="1.46735"
       transform="matrix(6.12303e-17 -1 1 6.12303e-17 -16.5629 85.8418)" />
    <circle
       style="display:inline;fill:none;stroke:#000000;stroke-width:0.0653;filter:url(#filter1025-3)"
       id="path887-0-9-4"
       cx="55.055443"
       cy="109.82925"
       r="1.46735"
       transform="matrix(6.12303e-17 -1 1 6.12303e-17 -16.5629 85.8418)" />
    <circle
       style="display:inline;fill:none;stroke:#000000;stroke-width:0.0653;filter:url(#filter1025-3)"
       id="path887-90-8-0"
       cx="20.161816"
       cy="109.82925"
       r="1.46735"
       transform="matrix(6.12303e-17 -1 1 6.12303e-17 -16.5629 85.8418)" />
  </g>
</svg>
