<?xml version="1.0" encoding="UTF-8" standalone="no"?>
<svg
   xmlns:dc="http://purl.org/dc/elements/1.1/"
   xmlns:cc="http://creativecommons.org/ns#"
   xmlns:rdf="http://www.w3.org/1999/02/22-rdf-syntax-ns#"
   xmlns:svg="http://www.w3.org/2000/svg"
   xmlns="http://www.w3.org/2000/svg"
   xmlns:sodipodi="http://sodipodi.sourceforge.net/DTD/sodipodi-0.dtd"
   xmlns:inkscape="http://www.inkscape.org/namespaces/inkscape"
   width="210mm"
   height="297mm"
   viewBox="0 0 210 297"
   version="1.1"
   id="svg2821"
   inkscape:version="1.0.2-2 (e86c870879, 2021-01-15)"
   sodipodi:docname="Baseplate_v4.svg">
  <metadata
     id="metadata3393">
    <rdf:RDF>
      <cc:Work
         rdf:about="">
        <dc:format>image/svg+xml</dc:format>
        <dc:type
           rdf:resource="http://purl.org/dc/dcmitype/StillImage" />
      </cc:Work>
    </rdf:RDF>
  </metadata>
  <sodipodi:namedview
     id="namedview2823"
     pagecolor="#ffffff"
     bordercolor="#666666"
     borderopacity="1.0"
     inkscape:pageshadow="2"
     inkscape:pageopacity="0.0"
     inkscape:pagecheckerboard="0"
     inkscape:document-units="mm"
     showgrid="false"
     inkscape:zoom="0.71111756"
     inkscape:cx="570.85099"
     inkscape:cy="431.06323"
     inkscape:window-width="1366"
     inkscape:window-height="705"
     inkscape:window-x="1432"
     inkscape:window-y="-8"
     inkscape:window-maximized="1"
     inkscape:current-layer="layer1"
     inkscape:snap-bbox="true"
     inkscape:bbox-paths="true"
     inkscape:bbox-nodes="true"
     inkscape:snap-bbox-edge-midpoints="true"
     inkscape:snap-bbox-midpoints="true"
     inkscape:snap-object-midpoints="true"
     inkscape:snap-center="true"
     inkscape:document-rotation="0"
     showguides="false" />
  <defs
     id="defs2818">
    <filter
       inkscape:collect="always"
       style="color-interpolation-filters:sRGB"
       id="filter1025-3-5"
       x="-0.011220083"
       width="1.0224402"
       y="-0.011220083"
       height="1.0224402">
      <feGaussianBlur
         inkscape:collect="always"
         stdDeviation="0.00011565665"
         id="feGaussianBlur1027-4-0" />
    </filter>
    <filter
       inkscape:collect="always"
       style="color-interpolation-filters:sRGB"
       id="filter1025-3-5-0"
       x="-0.011220083"
       width="1.0224402"
       y="-0.011220083"
       height="1.0224402">
      <feGaussianBlur
         inkscape:collect="always"
         stdDeviation="0.00011565665"
         id="feGaussianBlur1027-4-0-1" />
    </filter>
    <filter
       inkscape:collect="always"
       style="color-interpolation-filters:sRGB"
       id="filter1025-3-5-0-6"
       x="-0.011220083"
       width="1.0224402"
       y="-0.011220083"
       height="1.0224402">
      <feGaussianBlur
         inkscape:collect="always"
         stdDeviation="0.00011565665"
         id="feGaussianBlur1027-4-0-1-9" />
    </filter>
    <filter
       inkscape:collect="always"
       style="color-interpolation-filters:sRGB"
       id="filter1025-3-5-05"
       x="-0.011220083"
       width="1.0224402"
       y="-0.011220083"
       height="1.0224402">
      <feGaussianBlur
         inkscape:collect="always"
         stdDeviation="0.00011565665"
         id="feGaussianBlur1027-4-0-2" />
    </filter>
  </defs>
  <g
     inkscape:label="Layer 1"
     inkscape:groupmode="layer"
     id="layer1">
    <rect
       style="fill:none;stroke:#000000;stroke-width:0.131121"
       id="rect2904"
       width="84.868881"
       height="59.868877"
       x="-99.012093"
       y="34.800064" />
    <rect
       style="fill:none;stroke:#000000;stroke-width:0.119921"
       id="rect2904-3"
       width="78.880081"
       height="53.880077"
       x="-96.017708"
       y="37.794464" />
    <rect
       style="fill:none;stroke:#000000;stroke-width:0.107049"
       id="rect2904-6"
       width="39.892952"
       height="84.892952"
       x="-76.524117"
       y="22.288027" />
    <rect
       style="fill:none;stroke:#000000;stroke-width:0.0951441"
       id="rect2904-6-3"
       width="33.904858"
       height="78.904854"
       x="-73.530098"
       y="25.282076" />
    <rect
       style="fill:none;stroke:#000000;stroke-width:0.0367055"
       id="rect2904-6-9"
       width="39.963295"
       height="9.963295"
       x="-56.559307"
       y="22.252855" />
    <rect
       style="fill:none;stroke:#000000;stroke-width:0.0820875"
       id="rect2904-6-9-9"
       width="79.917908"
       height="24.917912"
       x="-96.536598"
       y="52.275543" />
    <rect
       style="fill:none;stroke:#000000;stroke-width:0.0367055"
       id="rect2904-6-9-8"
       width="39.963295"
       height="9.963295"
       x="-56.559307"
       y="97.252853" />
    <path
       id="rect1301-2"
       style="display:inline;fill:none;stroke:#000000;stroke-width:0.173426;stroke-miterlimit:4;stroke-dasharray:none"
       d="m -73.034879,37.483782 -0.18124,0.005 -0.17886,0.0138 h -21.28959 l -0.14483,0.004 -0.1429,0.0108 -0.14076,0.0178 -0.13845,0.0246 -0.13603,0.0312 -0.13335,0.0377 -0.13054,0.044 -0.12756,0.0501 -0.12438,0.0561 -0.12104,0.0618 -0.11753,0.0674 -0.11385,0.0729 -0.10999,0.0781 -0.10596,0.0832 -0.10174,0.0881 -0.0974,0.0928 -0.0928,0.0974 -0.0881,0.10176 -0.0832,0.10597 -0.0781,0.10999 -0.0729,0.11385 -0.0674,0.11752 -0.0618,0.12105 -0.0561,0.12438 -0.0501,0.12756 -0.044,0.13054 -0.0377,0.13335 -0.0312,0.136 -0.0246,0.13848 -0.0178,0.14076 -0.0108,0.1429 -0.004,0.14483 v 49.21352 l 0.004,0.14473 0.0108,0.14288 0.0178,0.14075 0.0246,0.13865 0.0312,0.13599 0.0377,0.13335 0.044,0.13044 0.0501,0.12753 0.0561,0.12435 0.0618,0.12118 0.0674,0.11748 0.0729,0.11377 0.0781,0.11006 0.0832,0.10584 0.0881,0.10186 0.0928,0.0974 0.0974,0.0929 0.10174,0.0881 0.10596,0.0831 0.10999,0.0781 0.11385,0.073 0.11753,0.0675 0.12104,0.0617 0.12438,0.0561 0.12756,0.0503 0.13054,0.0439 0.13335,0.0376 0.13603,0.0312 0.13845,0.0246 0.14076,0.018 0.1429,0.0106 0.14483,0.004 h 18.17519 v 5.19403 l 0.004,0.17938 0.0132,0.17674 0.022,0.17436 0.0307,0.17145 0.0386,0.16828 0.0466,0.1651 0.0545,0.16166 0.0622,0.15795 0.0693,0.15399 0.0765,0.14976 0.0836,0.14552 0.0902,0.14102 0.0966,0.136 0.10292,0.13123 0.10928,0.12594 0.11483,0.12065 0.12064,0.114828 0.12595,0.10901 0.13097,0.10292 0.13626,0.0966 0.14102,0.0902 0.14552,0.0836 0.14975,0.0765 0.15399,0.0693 0.15796,0.0622 0.16166,0.0545 0.1651,0.0466 0.16827,0.0386 0.17145,0.0304 0.17436,0.022 0.17701,0.0135 0.17912,0.004 h 32.91439 l 0.17939,-0.004 0.17674,-0.0135 0.17436,-0.022 0.17145,-0.0304 0.16827,-0.0386 0.1651,-0.0466 0.16166,-0.0545 0.15796,-0.0622 0.15399,-0.0693 0.14975,-0.0765 0.14552,-0.0836 0.14102,-0.0902 0.136,-0.0966 0.13123,-0.10292 0.12594,-0.10901 0.12039,-0.114828 0.11509,-0.12065 0.10901,-0.12594 0.10292,-0.13123 0.0966,-0.136 0.0902,-0.14102 0.0836,-0.14552 0.0765,-0.14976 0.0693,-0.15399 0.0622,-0.15795 0.0542,-0.16166 0.0468,-0.1651 0.0386,-0.16828 0.0304,-0.17145 0.022,-0.17436 0.0135,-0.17674 0.005,-0.17938 v -5.19403 h 18.17553 l 0.14472,-0.004 0.14288,-0.0106 0.14102,-0.018 0.13838,-0.0246 0.13599,-0.0312 0.13335,-0.0376 0.13044,-0.0439 0.12753,-0.0503 0.12436,-0.0561 0.12118,-0.0617 0.11747,-0.0675 0.11377,-0.073 0.11007,-0.0781 0.10583,-0.0831 0.1016,-0.0881 0.0974,-0.0929 0.0929,-0.0974 0.0881,-0.10186 0.0831,-0.10584 0.0781,-0.11006 0.073,-0.11377 0.0672,-0.11748 0.0619,-0.12118 0.0561,-0.12435 0.05,-0.12753 0.0439,-0.13044 0.0378,-0.13335 0.0312,-0.13599 0.0246,-0.13865 0.0177,-0.14075 0.0109,-0.14288 0.004,-0.14473 v -49.21352 l -0.004,-0.14483 -0.0109,-0.1429 -0.0177,-0.14076 -0.0246,-0.13848 -0.0312,-0.136 -0.0378,-0.13335 -0.0439,-0.13054 -0.05,-0.12756 -0.0561,-0.12438 -0.0619,-0.12105 -0.0672,-0.11752 -0.073,-0.11385 -0.0781,-0.10999 -0.0831,-0.10597 -0.0881,-0.10176 -0.0929,-0.0974 -0.0974,-0.0928 -0.1016,-0.0881 -0.10583,-0.0832 -0.11007,-0.0781 -0.11377,-0.0729 -0.11747,-0.0674 -0.12118,-0.0618 -0.12436,-0.0561 -0.12753,-0.0501 -0.13044,-0.044 -0.13335,-0.0377 -0.13599,-0.0312 -0.13838,-0.0246 -0.14102,-0.0178 -0.14288,-0.0108 -0.14472,-0.004 h -21.2902 l -0.1786,-0.0138 -0.18097,-0.005 h -32.91439"
       sodipodi:nodetypes="scsssscsssscsssscss" />
    <circle
       style="display:inline;fill:none;stroke:#000000;stroke-width:0.0652999;filter:url(#filter1025-3-5)"
       id="path887-7-8-1"
       cx="20.161816"
       cy="34.935627"
       r="1.46735"
       transform="rotate(-90,-13.217874,115.74218)" />
    <circle
       style="display:inline;fill:none;stroke:#000000;stroke-width:0.0653;filter:url(#filter1025-3-5)"
       id="path887-9-9-5-0"
       cx="55.055443"
       cy="34.935627"
       r="1.46735"
       transform="rotate(-90,-13.217874,115.74218)" />
    <circle
       style="display:inline;fill:none;stroke:#000000;stroke-width:0.0653;filter:url(#filter1025-3-5)"
       id="path887-0-9-4-8"
       cx="55.055443"
       cy="109.82925"
       r="1.46735"
       transform="rotate(-90,-13.217874,115.74218)" />
    <circle
       style="display:inline;fill:none;stroke:#000000;stroke-width:0.0653;filter:url(#filter1025-3-5)"
       id="path887-90-8-0-6"
       cx="20.161816"
       cy="109.82925"
       r="1.46735"
       transform="rotate(-90,-13.217874,115.74218)" />
    <circle
       style="display:inline;fill:none;stroke:#000000;stroke-width:0.0653;filter:url(#filter1025-3-5-0)"
       id="path887-90-8-0-6-6"
       cx="20.161816"
       cy="109.82925"
       r="1.46735"
       transform="rotate(-90,-24.505284,141.9016)" />
    <circle
       style="display:inline;fill:none;stroke:#000000;stroke-width:0.0653;filter:url(#filter1025-3-5-0-6)"
       id="path887-90-8-0-6-6-9"
       cx="20.161816"
       cy="109.82925"
       r="1.46735"
       transform="rotate(-90,-57.005284,109.40161)" />
    <g
       id="g4287"
       transform="translate(-254.21774,-269.72189)">
      <path
         id="rect69053-1"
         style="fill:none;stroke:#000000;stroke-width:0.435163;stroke-miterlimit:4;stroke-dasharray:none"
         d="m 1088.0859,1369.5645 c -3.9241,0 -7.0839,3.1598 -7.0839,7.0839 v 34.1504 c 0,3.9241 3.1598,7.084 7.0839,7.084 h 51.7442 a 19.206587,19.206587 0 0 1 -4.2188,-12.0098 19.206587,19.206587 0 0 1 19.2071,-19.207 19.206587,19.206587 0 0 1 19.207,19.207 19.206587,19.206587 0 0 1 -4.2207,12.0098 h 54.8613 c 3.9241,0 7.082,-3.1599 7.082,-7.084 v -34.1504 c 0,-3.9241 -3.1579,-7.0839 -7.082,-7.0839 z"
         transform="scale(0.26458333)" />
      <circle
         style="fill:none;stroke:#000000;stroke-width:0.0126139;stroke-miterlimit:4;stroke-dasharray:none"
         id="path37677-9-2-5-2-3"
         cx="290.83902"
         cy="365.97043"
         r="1.4936931" />
      <circle
         style="fill:none;stroke:#000000;stroke-width:0.0126139;stroke-miterlimit:4;stroke-dasharray:none"
         id="path37677-9-2-4-2-1-4"
         cx="320.83905"
         cy="365.97043"
         r="1.4936931" />
    </g>
    <g
       id="g1566">
      <g
         id="g7664-5-1"
         transform="translate(-50.04736,-106.0511)"
         style="stroke-width:0.2;stroke-miterlimit:4;stroke-dasharray:none">
        <rect
           style="fill:none;stroke:#000000;stroke-width:0.2;stroke-miterlimit:4;stroke-dasharray:none"
           id="rect21021-7-1-3"
           width="64.963684"
           height="74.963684"
           x="145.36922"
           y="146.64273"
           ry="3.6600425" />
        <ellipse
           style="fill:none;stroke:#000000;stroke-width:0.2;stroke-miterlimit:4;stroke-dasharray:none"
           id="path37677-8-7"
           cx="177.43904"
           cy="208.78857"
           rx="5.974772"
           ry="5.9747725" />
        <circle
           style="fill:none;stroke:#000000;stroke-width:0.2;stroke-miterlimit:4;stroke-dasharray:none"
           id="path37677-9-62-2"
           cx="150.23248"
           cy="151.64809"
           r="1.4936931" />
        <circle
           style="fill:none;stroke:#000000;stroke-width:0.2;stroke-miterlimit:4;stroke-dasharray:none"
           id="path37677-9-1-1-8"
           cx="177.73248"
           cy="151.64809"
           r="1.4936931" />
        <circle
           style="fill:none;stroke:#000000;stroke-width:0.2;stroke-miterlimit:4;stroke-dasharray:none"
           id="path37677-9-5-7-9"
           cx="205.23248"
           cy="151.64809"
           r="1.4936931" />
        <circle
           style="fill:none;stroke:#000000;stroke-width:0.2;stroke-miterlimit:4;stroke-dasharray:none"
           id="path37677-9-6-4-1"
           cx="150.23248"
           cy="216.64809"
           r="1.4936931" />
        <circle
           style="fill:none;stroke:#000000;stroke-width:0.2;stroke-miterlimit:4;stroke-dasharray:none"
           id="path37677-9-3-1-1"
           cx="205.23248"
           cy="216.64809"
           r="1.4936931" />
        <circle
           style="fill:none;stroke:#000000;stroke-width:0.2;stroke-miterlimit:4;stroke-dasharray:none"
           id="path37677-9-2-45-3"
           cx="162.73248"
           cy="202.78857"
           r="1.4936931" />
        <circle
           style="fill:none;stroke:#000000;stroke-width:0.2;stroke-miterlimit:4;stroke-dasharray:none"
           id="path37677-9-2-4-4-5"
           cx="192.73248"
           cy="202.78857"
           r="1.4936931" />
        <circle
           style="fill:none;stroke:#000000;stroke-width:0.2;stroke-miterlimit:4;stroke-dasharray:none"
           id="path37677-9-0-3-6"
           cx="205.23248"
           cy="184.14809"
           r="1.4936931" />
        <circle
           style="fill:none;stroke:#000000;stroke-width:0.2;stroke-miterlimit:4;stroke-dasharray:none"
           id="path37677-9-7-4-3"
           cx="150.23248"
           cy="184.14809"
           r="1.4936931" />
      </g>
    </g>
    <g
       id="g1071"
       transform="translate(-515.92302,-139.63869)">
      <path
         id="rect21021-2-3"
         style="fill:none;stroke:#000000;stroke-width:0.0927247;stroke-miterlimit:4;stroke-dasharray:none"
         d="m 2035.9082,566.4082 c -7.6636,0 -13.834,6.17039 -13.834,13.83399 v 28.32422 h 28.3242 c 0,0 6.1685,-13.83399 13.8321,-13.83399 h 24.2011 v 63.30469 c 0,9.34866 7.5264,16.875 16.875,16.875 h 79.0664 c 9.3487,0 16.875,-7.52634 16.875,-16.875 v -63.30469 h 24.1993 c 7.6636,0 13.8339,6.17031 13.8339,13.83399 h 28.3243 v -28.32422 c 0,-7.6636 -6.1684,-13.83399 -13.8321,-13.83399 z"
         transform="scale(0.26458333)" />
      <circle
         style="fill:none;stroke:#000000;stroke-width:0.0126139;stroke-miterlimit:4;stroke-dasharray:none"
         id="path37677-9-54"
         cx="539.87048"
         cy="154.86739"
         r="1.4936931" />
      <circle
         style="fill:none;stroke:#000000;stroke-width:0.0126139;stroke-miterlimit:4;stroke-dasharray:none"
         id="path37677-9-1-3"
         cx="567.37048"
         cy="154.86739"
         r="1.4936931" />
      <circle
         style="fill:none;stroke:#000000;stroke-width:0.0126139;stroke-miterlimit:4;stroke-dasharray:none"
         id="path37677-9-5-8"
         cx="594.87048"
         cy="154.86739"
         r="1.4936931" />
      <rect
         style="fill:none;stroke:#000000;stroke-width:0.150525;stroke-miterlimit:4;stroke-dasharray:none"
         id="rect8117-3-4"
         width="19.849474"
         height="15.661942"
         x="557.56415"
         y="158.67505"
         ry="2.4411561" />
    </g>
    <g
       id="g1216"
       transform="translate(-434.62643,-111.55061)">
      <circle
         style="fill:none;stroke:#000000;stroke-width:0.2;stroke-miterlimit:4;stroke-dasharray:none"
         id="path37677-9-62"
         cx="458.5737"
         cy="157.1476"
         r="1.4936931" />
      <circle
         style="fill:none;stroke:#000000;stroke-width:0.2;stroke-miterlimit:4;stroke-dasharray:none"
         id="path37677-9-5-7"
         cx="513.57367"
         cy="157.1476"
         r="1.4936931" />
      <circle
         style="fill:none;stroke:#000000;stroke-width:0.2;stroke-miterlimit:4;stroke-dasharray:none"
         id="path37677-9-6-4"
         cx="458.5737"
         cy="222.1476"
         r="1.4936931" />
      <circle
         style="fill:none;stroke:#000000;stroke-width:0.2;stroke-miterlimit:4;stroke-dasharray:none"
         id="path37677-9-3-1"
         cx="513.57367"
         cy="222.1476"
         r="1.4936931" />
      <circle
         style="fill:none;stroke:#000000;stroke-width:0.2;stroke-miterlimit:4;stroke-dasharray:none"
         id="path37677-9-0-3"
         cx="513.57367"
         cy="189.6476"
         r="1.4936931" />
      <circle
         style="fill:none;stroke:#000000;stroke-width:0.2;stroke-miterlimit:4;stroke-dasharray:none"
         id="path37677-9-7-4"
         cx="458.5737"
         cy="189.6476"
         r="1.4936931" />
      <path
         id="path10084"
         style="fill:none;stroke:#000000;stroke-width:0.2;stroke-miterlimit:4;stroke-dasharray:none"
         d="m 466.7405,202.64758 c -1.13369,0 -2.04639,0.91218 -2.04639,2.04587 v 11.99926 c 0,1.13369 0.9127,2.04639 2.04639,2.04639 h 10.96367 a 9.4877071,8.6505554 0 0 0 8.15816,4.23954 9.4877071,8.6505554 0 0 0 8.15764,-4.23954 h 11.7874 c 1.13368,0 2.04639,-0.9127 2.04639,-2.04639 v -11.99926 c 0,-1.13369 -0.91271,-2.04587 -2.04639,-2.04587 z" />
      <circle
         style="fill:none;stroke:#000000;stroke-width:0.104229;stroke-miterlimit:4;stroke-dasharray:none"
         id="path7792-23-7"
         cx="466.77563"
         cy="171.96393"
         r="2.4478853" />
      <circle
         style="fill:none;stroke:#000000;stroke-width:0.104229;stroke-miterlimit:4;stroke-dasharray:none"
         id="path7792-2-9-3"
         cx="466.77563"
         cy="185.29893"
         r="2.4478853" />
      <circle
         style="fill:none;stroke:#000000;stroke-width:0.104229;stroke-miterlimit:4;stroke-dasharray:none"
         id="path7792-0-3-8"
         cx="506.63202"
         cy="171.96393"
         r="2.4478853" />
      <circle
         style="fill:none;stroke:#000000;stroke-width:0.104229;stroke-miterlimit:4;stroke-dasharray:none"
         id="path7792-2-0-1-8"
         cx="506.63202"
         cy="185.29893"
         r="2.4478853" />
      <circle
         style="display:inline;fill:none;stroke:#000000;stroke-width:0.0652999;filter:url(#filter1025-3-5-05)"
         id="path887-7-8-1-2"
         cx="20.161816"
         cy="34.935627"
         r="1.46735"
         transform="rotate(-90,319.35842,-94.451447)" />
      <circle
         style="display:inline;fill:none;stroke:#000000;stroke-width:0.0653;filter:url(#filter1025-3-5-05)"
         id="path887-9-9-5-0-5"
         cx="55.055443"
         cy="34.935627"
         r="1.46735"
         transform="rotate(-90,319.35842,-94.451447)" />
      <circle
         style="display:inline;fill:none;stroke:#000000;stroke-width:0.0653;filter:url(#filter1025-3-5-05)"
         id="path887-0-9-4-8-3"
         cx="55.055443"
         cy="109.82925"
         r="1.46735"
         transform="rotate(-90,319.35842,-94.451447)" />
      <circle
         style="display:inline;fill:none;stroke:#000000;stroke-width:0.0653;filter:url(#filter1025-3-5-05)"
         id="path887-90-8-0-6-9"
         cx="20.161816"
         cy="109.82925"
         r="1.46735"
         transform="rotate(-90,319.35842,-94.451447)" />
      <path
         id="rect2904-3-8-2"
         style="fill:none;stroke:#000000;stroke-width:0.453245"
         d="m 1728.6445,575.02539 c -7.6636,0 -13.834,6.17035 -13.834,13.83399 v 25.25976 h -16.5371 c -8.5695,0 -15.4687,6.89916 -15.4687,15.46875 v 172.58203 c 0,8.56963 6.8992,15.46875 15.4687,15.46875 h 16.5704 l -0.033,0.1211 v 26.75976 c 0,7.6636 6.1704,13.83399 13.834,13.83399 h 217.8653 c 7.6636,0 13.834,-6.17039 13.834,-13.83399 v -26.75976 l 0.072,-0.1211 h 16.4649 c 8.5695,0 15.4687,-6.89912 15.4687,-15.46875 V 629.58789 c 0,-8.56959 -6.8992,-15.46875 -15.4687,-15.46875 h -16.5371 v -25.25976 c 0,-7.66364 -6.1704,-13.83399 -13.834,-13.83399 h -71.3262 v 79.34766 c 0,7.24177 -5.8305,13.07226 -13.0723,13.07226 h -49.0683 c -7.2418,0 -13.0723,-5.83049 -13.0723,-13.07226 v -79.34766 z"
         transform="scale(0.26458333)" />
    </g>
    <g
       id="g1198"
       transform="translate(-438.53313,-112.10871)">
      <circle
         style="fill:none;stroke:#000000;stroke-width:0.2;stroke-miterlimit:4;stroke-dasharray:none"
         id="path37677-9-6-4-0"
         cx="461.27737"
         cy="238.22974"
         r="1.4936931" />
      <circle
         style="fill:none;stroke:#000000;stroke-width:0.2;stroke-miterlimit:4;stroke-dasharray:none"
         id="path37677-9-3-1-7"
         cx="516.27734"
         cy="238.22974"
         r="1.4936931" />
      <path
         id="rect1074-7"
         style="fill:none;stroke:#000000;stroke-width:0.1;stroke-miterlimit:4;stroke-dasharray:none"
         d="m 456.41397,233.0477 v 6.49004 c 0,2.02766 1.63259,3.66024 3.66025,3.66024 h 57.6435 c 2.02766,0 3.66024,-1.63258 3.66024,-3.66024 v -6.49004 h -10.84069 c -0.13293,1.0034 -0.98533,1.77353 -2.02623,1.77353 h -11.7874 a 9.4877069,8.6505554 0 0 1 -8.15763,4.23954 9.4877069,8.6505554 0 0 1 -8.15817,-4.23954 h -10.96367 c -1.04089,0 -1.8933,-0.7701 -2.02623,-1.77353 z" />
    </g>
    <g
       id="g976">
      <rect
         style="fill:none;stroke:#000000;stroke-width:0.2;stroke-miterlimit:4;stroke-dasharray:none"
         id="rect21021-7-1-3-2"
         width="64.963684"
         height="74.963684"
         x="190.31206"
         y="40.591629"
         ry="3.6600425" />
      <ellipse
         style="fill:none;stroke:#000000;stroke-width:0.2;stroke-miterlimit:4;stroke-dasharray:none"
         id="path37677-8-7-1"
         cx="222.38188"
         cy="102.73747"
         rx="5.974772"
         ry="5.9747725" />
      <circle
         style="fill:none;stroke:#000000;stroke-width:0.2;stroke-miterlimit:4;stroke-dasharray:none"
         id="path37677-9-62-2-2"
         cx="195.17532"
         cy="45.596985"
         r="1.4936931" />
      <circle
         style="fill:none;stroke:#000000;stroke-width:0.2;stroke-miterlimit:4;stroke-dasharray:none"
         id="path37677-9-1-1-8-2"
         cx="222.67532"
         cy="45.596985"
         r="1.4936931" />
      <circle
         style="fill:none;stroke:#000000;stroke-width:0.2;stroke-miterlimit:4;stroke-dasharray:none"
         id="path37677-9-5-7-9-9"
         cx="250.17532"
         cy="45.596985"
         r="1.4936931" />
      <circle
         style="fill:none;stroke:#000000;stroke-width:0.2;stroke-miterlimit:4;stroke-dasharray:none"
         id="path37677-9-6-4-1-2"
         cx="195.17532"
         cy="110.59698"
         r="1.4936931" />
      <circle
         style="fill:none;stroke:#000000;stroke-width:0.2;stroke-miterlimit:4;stroke-dasharray:none"
         id="path37677-9-3-1-1-6"
         cx="250.17532"
         cy="110.59698"
         r="1.4936931" />
      <circle
         style="fill:none;stroke:#000000;stroke-width:0.2;stroke-miterlimit:4;stroke-dasharray:none"
         id="path37677-9-2-45-3-6"
         cx="207.67532"
         cy="96.737473"
         r="1.4936931" />
      <circle
         style="fill:none;stroke:#000000;stroke-width:0.2;stroke-miterlimit:4;stroke-dasharray:none"
         id="path37677-9-2-4-4-5-9"
         cx="237.67532"
         cy="96.737473"
         r="1.4936931" />
      <circle
         style="fill:none;stroke:#000000;stroke-width:0.2;stroke-miterlimit:4;stroke-dasharray:none"
         id="path37677-9-0-3-6-2"
         cx="250.17532"
         cy="78.096985"
         r="1.4936931" />
      <circle
         style="fill:none;stroke:#000000;stroke-width:0.2;stroke-miterlimit:4;stroke-dasharray:none"
         id="path37677-9-7-4-3-7"
         cx="195.17532"
         cy="78.096985"
         r="1.4936931" />
      <circle
         style="fill:none;stroke:#000000;stroke-width:0.104229;stroke-miterlimit:4;stroke-dasharray:none"
         id="path7792-23-5"
         cx="203.37726"
         cy="60.373394"
         r="2.4478853" />
      <circle
         style="fill:none;stroke:#000000;stroke-width:0.104229;stroke-miterlimit:4;stroke-dasharray:none"
         id="path7792-2-9-31"
         cx="203.37726"
         cy="73.708397"
         r="2.4478853" />
      <circle
         style="fill:none;stroke:#000000;stroke-width:0.104229;stroke-miterlimit:4;stroke-dasharray:none"
         id="path7792-0-3-4"
         cx="243.23364"
         cy="60.373394"
         r="2.4478853" />
      <circle
         style="fill:none;stroke:#000000;stroke-width:0.104229;stroke-miterlimit:4;stroke-dasharray:none"
         id="path7792-2-0-1-3"
         cx="243.23364"
         cy="73.708397"
         r="2.4478853" />
      <rect
         style="fill:none;stroke:#000000;stroke-width:0.150525;stroke-miterlimit:4;stroke-dasharray:none"
         id="rect8117-3-4-1"
         width="19.849474"
         height="15.661942"
         x="212.86917"
         y="49.31678"
         ry="2.4411561" />
    </g>
    <rect
       style="fill:none;stroke:#000000;stroke-width:0.1;stroke-miterlimit:4;stroke-dasharray:none"
       id="rect1382"
       width="109.9"
       height="109.9"
       x="167.84378"
       y="23.123474"
       ry="0" />
    <g
       id="g1536">
      <circle
         style="fill:none;stroke:#000000;stroke-width:0.2;stroke-miterlimit:4;stroke-dasharray:none"
         id="path37677-8-7-1-2-5"
         cx="127.39168"
         cy="182.66367"
         r="5.9000001" />
      <rect
         style="fill:none;stroke:#000000;stroke-width:0.2;stroke-miterlimit:4;stroke-dasharray:none"
         id="rect21021-7-1-3-2-0"
         width="64.963684"
         height="74.963684"
         x="95.321854"
         y="120.51782"
         ry="3.6600425" />
      <circle
         style="fill:none;stroke:#000000;stroke-width:0.2;stroke-miterlimit:4;stroke-dasharray:none"
         id="path37677-9-62-2-2-2"
         cx="100.18512"
         cy="125.52318"
         r="1.4936931" />
      <circle
         style="fill:none;stroke:#000000;stroke-width:0.2;stroke-miterlimit:4;stroke-dasharray:none"
         id="path37677-9-1-1-8-2-4"
         cx="127.68512"
         cy="125.52318"
         r="1.4936931" />
      <circle
         style="fill:none;stroke:#000000;stroke-width:0.2;stroke-miterlimit:4;stroke-dasharray:none"
         id="path37677-9-5-7-9-9-0"
         cx="155.18512"
         cy="125.52318"
         r="1.4936931" />
      <circle
         style="fill:none;stroke:#000000;stroke-width:0.2;stroke-miterlimit:4;stroke-dasharray:none"
         id="path37677-9-6-4-1-2-0"
         cx="100.18512"
         cy="190.52318"
         r="1.4936931" />
      <circle
         style="fill:none;stroke:#000000;stroke-width:0.2;stroke-miterlimit:4;stroke-dasharray:none"
         id="path37677-9-3-1-1-6-9"
         cx="155.18512"
         cy="190.52318"
         r="1.4936931" />
      <circle
         style="fill:none;stroke:#000000;stroke-width:0.2;stroke-miterlimit:4;stroke-dasharray:none"
         id="path37677-9-2-45-3-6-5"
         cx="112.68512"
         cy="176.66367"
         r="1.4936931" />
      <circle
         style="fill:none;stroke:#000000;stroke-width:0.2;stroke-miterlimit:4;stroke-dasharray:none"
         id="path37677-9-2-4-4-5-9-7"
         cx="142.68512"
         cy="176.66367"
         r="1.4936931" />
      <circle
         style="fill:none;stroke:#000000;stroke-width:0.2;stroke-miterlimit:4;stroke-dasharray:none"
         id="path37677-9-0-3-6-2-6"
         cx="155.18512"
         cy="158.02318"
         r="1.4936931" />
      <circle
         style="fill:none;stroke:#000000;stroke-width:0.2;stroke-miterlimit:4;stroke-dasharray:none"
         id="path37677-9-7-4-3-7-1"
         cx="100.18512"
         cy="158.02318"
         r="1.4936931" />
      <circle
         style="fill:none;stroke:#000000;stroke-width:0.104229;stroke-miterlimit:4;stroke-dasharray:none"
         id="path7792-23-5-1"
         cx="108.38706"
         cy="140.29958"
         r="2.4478853" />
      <circle
         style="fill:none;stroke:#000000;stroke-width:0.104229;stroke-miterlimit:4;stroke-dasharray:none"
         id="path7792-2-9-31-4"
         cx="108.38706"
         cy="153.63458"
         r="2.4478853" />
      <circle
         style="fill:none;stroke:#000000;stroke-width:0.104229;stroke-miterlimit:4;stroke-dasharray:none"
         id="path7792-0-3-4-4"
         cx="148.24345"
         cy="140.29958"
         r="2.4478853" />
      <circle
         style="fill:none;stroke:#000000;stroke-width:0.104229;stroke-miterlimit:4;stroke-dasharray:none"
         id="path7792-2-0-1-3-8"
         cx="148.24345"
         cy="153.63458"
         r="2.4478853" />
      <rect
         style="fill:none;stroke:#000000;stroke-width:0.150525;stroke-miterlimit:4;stroke-dasharray:none"
         id="rect8117-3-4-1-2"
         width="19.849474"
         height="15.661942"
         x="117.87897"
         y="129.24297"
         ry="2.4411561" />
    </g>
  </g>
</svg>
