G04 #@! TF.GenerationSoftware,KiCad,Pcbnew,(5.1.0)-1*
G04 #@! TF.CreationDate,2020-11-16T17:59:50+00:00*
G04 #@! TF.ProjectId,WildlifeCamera_PCB,57696c64-6c69-4666-9543-616d6572615f,rev?*
G04 #@! TF.SameCoordinates,PX5d42830PY7b89fa0*
G04 #@! TF.FileFunction,Copper,L2,Bot*
G04 #@! TF.FilePolarity,Positive*
%FSLAX46Y46*%
G04 Gerber Fmt 4.6, Leading zero omitted, Abs format (unit mm)*
G04 Created by KiCad (PCBNEW (5.1.0)-1) date 2020-11-16 17:59:50*
%MOMM*%
%LPD*%
G04 APERTURE LIST*
%ADD10C,0.300000*%
%ADD11R,3.000000X2.000000*%
%ADD12O,3.000000X2.000000*%
%ADD13C,2.032000*%
%ADD14R,2.032000X2.032000*%
%ADD15O,2.286000X1.778000*%
%ADD16R,2.286000X1.778000*%
%ADD17R,2.100580X2.100580*%
%ADD18C,2.199640*%
%ADD19C,2.499360*%
%ADD20R,2.499360X2.499360*%
%ADD21C,2.000000*%
%ADD22O,1.200000X3.000000*%
%ADD23C,1.800000*%
%ADD24R,2.032000X1.727200*%
%ADD25O,2.032000X1.727200*%
%ADD26C,2.100580*%
%ADD27C,2.934700*%
%ADD28R,1.905000X1.905000*%
%ADD29C,1.905000*%
%ADD30C,0.635000*%
%ADD31C,0.762000*%
%ADD32C,0.254000*%
G04 APERTURE END LIST*
D10*
X19117571Y14516572D02*
X19117571Y13588000D01*
X19689000Y14088000D01*
X19689000Y13873715D01*
X19760428Y13730858D01*
X19831857Y13659429D01*
X19974714Y13588000D01*
X20331857Y13588000D01*
X20474714Y13659429D01*
X20546142Y13730858D01*
X20617571Y13873715D01*
X20617571Y14302286D01*
X20546142Y14445143D01*
X20474714Y14516572D01*
X20617571Y12159429D02*
X20617571Y13016572D01*
X20617571Y12588000D02*
X19117571Y12588000D01*
X19331857Y12730858D01*
X19474714Y12873715D01*
X19546142Y13016572D01*
X19046142Y10445143D02*
X20974714Y11730858D01*
X20617571Y9159429D02*
X20617571Y10016572D01*
X20617571Y9588000D02*
X19117571Y9588000D01*
X19331857Y9730858D01*
X19474714Y9873715D01*
X19546142Y10016572D01*
X19117571Y8230858D02*
X19117571Y8088000D01*
X19189000Y7945143D01*
X19260428Y7873715D01*
X19403285Y7802286D01*
X19689000Y7730858D01*
X20046142Y7730858D01*
X20331857Y7802286D01*
X20474714Y7873715D01*
X20546142Y7945143D01*
X20617571Y8088000D01*
X20617571Y8230858D01*
X20546142Y8373715D01*
X20474714Y8445143D01*
X20331857Y8516572D01*
X20046142Y8588000D01*
X19689000Y8588000D01*
X19403285Y8516572D01*
X19260428Y8445143D01*
X19189000Y8373715D01*
X19117571Y8230858D01*
X19046142Y6016572D02*
X20974714Y7302286D01*
X19260428Y5588000D02*
X19189000Y5516572D01*
X19117571Y5373715D01*
X19117571Y5016572D01*
X19189000Y4873715D01*
X19260428Y4802286D01*
X19403285Y4730858D01*
X19546142Y4730858D01*
X19760428Y4802286D01*
X20617571Y5659429D01*
X20617571Y4730858D01*
X19117571Y3802286D02*
X19117571Y3659429D01*
X19189000Y3516572D01*
X19260428Y3445143D01*
X19403285Y3373715D01*
X19689000Y3302286D01*
X20046142Y3302286D01*
X20331857Y3373715D01*
X20474714Y3445143D01*
X20546142Y3516572D01*
X20617571Y3659429D01*
X20617571Y3802286D01*
X20546142Y3945143D01*
X20474714Y4016572D01*
X20331857Y4088000D01*
X20046142Y4159429D01*
X19689000Y4159429D01*
X19403285Y4088000D01*
X19260428Y4016572D01*
X19189000Y3945143D01*
X19117571Y3802286D01*
X19260428Y2730858D02*
X19189000Y2659429D01*
X19117571Y2516572D01*
X19117571Y2159429D01*
X19189000Y2016572D01*
X19260428Y1945143D01*
X19403285Y1873715D01*
X19546142Y1873715D01*
X19760428Y1945143D01*
X20617571Y2802286D01*
X20617571Y1873715D01*
X19117571Y945143D02*
X19117571Y802286D01*
X19189000Y659429D01*
X19260428Y588000D01*
X19403285Y516572D01*
X19689000Y445143D01*
X20046142Y445143D01*
X20331857Y516572D01*
X20474714Y588000D01*
X20546142Y659429D01*
X20617571Y802286D01*
X20617571Y945143D01*
X20546142Y1088000D01*
X20474714Y1159429D01*
X20331857Y1230858D01*
X20046142Y1302286D01*
X19689000Y1302286D01*
X19403285Y1230858D01*
X19260428Y1159429D01*
X19189000Y1088000D01*
X19117571Y945143D01*
X19617571Y-1197714D02*
X20617571Y-1554857D01*
X19617571Y-1912000D01*
X20617571Y-3269142D02*
X20617571Y-2412000D01*
X20617571Y-2840571D02*
X19117571Y-2840571D01*
X19331857Y-2697714D01*
X19474714Y-2554857D01*
X19546142Y-2412000D01*
X17490285Y14096000D02*
X17418857Y14167429D01*
X17347428Y14310286D01*
X17347428Y14453143D01*
X17418857Y14596000D01*
X17490285Y14667429D01*
X17633142Y14738858D01*
X17776000Y14738858D01*
X17918857Y14667429D01*
X17990285Y14596000D01*
X18061714Y14453143D01*
X18061714Y14310286D01*
X17990285Y14167429D01*
X17918857Y14096000D01*
X17347428Y14096000D02*
X17918857Y14096000D01*
X17990285Y14024572D01*
X17990285Y13953143D01*
X17918857Y13810286D01*
X17776000Y13738858D01*
X17418857Y13738858D01*
X17204571Y13881715D01*
X17061714Y14096000D01*
X16990285Y14381715D01*
X17061714Y14667429D01*
X17204571Y14881715D01*
X17418857Y15024572D01*
X17704571Y15096000D01*
X17990285Y15024572D01*
X18204571Y14881715D01*
X18347428Y14667429D01*
X18418857Y14381715D01*
X18347428Y14096000D01*
X18204571Y13881715D01*
X18133142Y12453143D02*
X18204571Y12596000D01*
X18204571Y12881715D01*
X18133142Y13024572D01*
X18061714Y13096000D01*
X17918857Y13167429D01*
X17490285Y13167429D01*
X17347428Y13096000D01*
X17276000Y13024572D01*
X17204571Y12881715D01*
X17204571Y12596000D01*
X17276000Y12453143D01*
X17204571Y11167429D02*
X18204571Y11167429D01*
X17204571Y11810286D02*
X17990285Y11810286D01*
X18133142Y11738858D01*
X18204571Y11596000D01*
X18204571Y11381715D01*
X18133142Y11238858D01*
X18061714Y11167429D01*
X18204571Y10453143D02*
X17204571Y10453143D01*
X17490285Y10453143D02*
X17347428Y10381715D01*
X17276000Y10310286D01*
X17204571Y10167429D01*
X17204571Y10024572D01*
X18204571Y9524572D02*
X17204571Y9524572D01*
X16704571Y9524572D02*
X16776000Y9596000D01*
X16847428Y9524572D01*
X16776000Y9453143D01*
X16704571Y9524572D01*
X16847428Y9524572D01*
X18204571Y8596000D02*
X18133142Y8738858D01*
X18061714Y8810286D01*
X17918857Y8881715D01*
X17490285Y8881715D01*
X17347428Y8810286D01*
X17276000Y8738858D01*
X17204571Y8596000D01*
X17204571Y8381715D01*
X17276000Y8238858D01*
X17347428Y8167429D01*
X17490285Y8096000D01*
X17918857Y8096000D01*
X18061714Y8167429D01*
X18133142Y8238858D01*
X18204571Y8381715D01*
X18204571Y8596000D01*
X17204571Y6810286D02*
X18204571Y6810286D01*
X17204571Y7453143D02*
X17990285Y7453143D01*
X18133142Y7381715D01*
X18204571Y7238858D01*
X18204571Y7024572D01*
X18133142Y6881715D01*
X18061714Y6810286D01*
X18133142Y6167429D02*
X18204571Y6024572D01*
X18204571Y5738858D01*
X18133142Y5596000D01*
X17990285Y5524572D01*
X17918857Y5524572D01*
X17776000Y5596000D01*
X17704571Y5738858D01*
X17704571Y5953143D01*
X17633142Y6096000D01*
X17490285Y6167429D01*
X17418857Y6167429D01*
X17276000Y6096000D01*
X17204571Y5953143D01*
X17204571Y5738858D01*
X17276000Y5596000D01*
X18133142Y4310286D02*
X18204571Y4453143D01*
X18204571Y4738858D01*
X18133142Y4881715D01*
X17990285Y4953143D01*
X17418857Y4953143D01*
X17276000Y4881715D01*
X17204571Y4738858D01*
X17204571Y4453143D01*
X17276000Y4310286D01*
X17418857Y4238858D01*
X17561714Y4238858D01*
X17704571Y4953143D01*
X18204571Y3381715D02*
X18133142Y3524572D01*
X17990285Y3596000D01*
X16704571Y3596000D01*
X18133142Y2238858D02*
X18204571Y2381715D01*
X18204571Y2667429D01*
X18133142Y2810286D01*
X17990285Y2881715D01*
X17418857Y2881715D01*
X17276000Y2810286D01*
X17204571Y2667429D01*
X17204571Y2381715D01*
X17276000Y2238858D01*
X17418857Y2167429D01*
X17561714Y2167429D01*
X17704571Y2881715D01*
X18133142Y881715D02*
X18204571Y1024572D01*
X18204571Y1310286D01*
X18133142Y1453143D01*
X18061714Y1524572D01*
X17918857Y1596000D01*
X17490285Y1596000D01*
X17347428Y1524572D01*
X17276000Y1453143D01*
X17204571Y1310286D01*
X17204571Y1024572D01*
X17276000Y881715D01*
X17204571Y453143D02*
X17204571Y-118285D01*
X16704571Y238858D02*
X17990285Y238858D01*
X18133142Y167429D01*
X18204571Y24572D01*
X18204571Y-118285D01*
X18204571Y-618285D02*
X17204571Y-618285D01*
X17490285Y-618285D02*
X17347428Y-689714D01*
X17276000Y-761142D01*
X17204571Y-904000D01*
X17204571Y-1046857D01*
X18204571Y-1546857D02*
X17204571Y-1546857D01*
X16704571Y-1546857D02*
X16776000Y-1475428D01*
X16847428Y-1546857D01*
X16776000Y-1618285D01*
X16704571Y-1546857D01*
X16847428Y-1546857D01*
X18133142Y-2904000D02*
X18204571Y-2761142D01*
X18204571Y-2475428D01*
X18133142Y-2332571D01*
X18061714Y-2261142D01*
X17918857Y-2189714D01*
X17490285Y-2189714D01*
X17347428Y-2261142D01*
X17276000Y-2332571D01*
X17204571Y-2475428D01*
X17204571Y-2761142D01*
X17276000Y-2904000D01*
X14791571Y21889858D02*
X15791571Y21604143D01*
X15077285Y21318429D01*
X15791571Y21032715D01*
X14791571Y20747000D01*
X14791571Y20318429D02*
X15791571Y20032715D01*
X15077285Y19747000D01*
X15791571Y19461286D01*
X14791571Y19175572D01*
X14791571Y18747000D02*
X15791571Y18461286D01*
X15077285Y18175572D01*
X15791571Y17889858D01*
X14791571Y17604143D01*
X15648714Y17032715D02*
X15720142Y16961286D01*
X15791571Y17032715D01*
X15720142Y17104143D01*
X15648714Y17032715D01*
X15791571Y17032715D01*
X15720142Y15675572D02*
X15791571Y15818429D01*
X15791571Y16104143D01*
X15720142Y16247000D01*
X15648714Y16318429D01*
X15505857Y16389858D01*
X15077285Y16389858D01*
X14934428Y16318429D01*
X14863000Y16247000D01*
X14791571Y16104143D01*
X14791571Y15818429D01*
X14863000Y15675572D01*
X14791571Y14389858D02*
X15791571Y14389858D01*
X14791571Y15032715D02*
X15577285Y15032715D01*
X15720142Y14961286D01*
X15791571Y14818429D01*
X15791571Y14604143D01*
X15720142Y14461286D01*
X15648714Y14389858D01*
X15791571Y13675572D02*
X14791571Y13675572D01*
X15077285Y13675572D02*
X14934428Y13604143D01*
X14863000Y13532715D01*
X14791571Y13389858D01*
X14791571Y13247000D01*
X15791571Y12747000D02*
X14791571Y12747000D01*
X14291571Y12747000D02*
X14363000Y12818429D01*
X14434428Y12747000D01*
X14363000Y12675572D01*
X14291571Y12747000D01*
X14434428Y12747000D01*
X15791571Y11818429D02*
X15720142Y11961286D01*
X15648714Y12032715D01*
X15505857Y12104143D01*
X15077285Y12104143D01*
X14934428Y12032715D01*
X14863000Y11961286D01*
X14791571Y11818429D01*
X14791571Y11604143D01*
X14863000Y11461286D01*
X14934428Y11389858D01*
X15077285Y11318429D01*
X15505857Y11318429D01*
X15648714Y11389858D01*
X15720142Y11461286D01*
X15791571Y11604143D01*
X15791571Y11818429D01*
X14791571Y10032715D02*
X15791571Y10032715D01*
X14791571Y10675572D02*
X15577285Y10675572D01*
X15720142Y10604143D01*
X15791571Y10461286D01*
X15791571Y10247000D01*
X15720142Y10104143D01*
X15648714Y10032715D01*
X15720142Y9389858D02*
X15791571Y9247000D01*
X15791571Y8961286D01*
X15720142Y8818429D01*
X15577285Y8747000D01*
X15505857Y8747000D01*
X15363000Y8818429D01*
X15291571Y8961286D01*
X15291571Y9175572D01*
X15220142Y9318429D01*
X15077285Y9389858D01*
X15005857Y9389858D01*
X14863000Y9318429D01*
X14791571Y9175572D01*
X14791571Y8961286D01*
X14863000Y8818429D01*
X15720142Y7532715D02*
X15791571Y7675572D01*
X15791571Y7961286D01*
X15720142Y8104143D01*
X15577285Y8175572D01*
X15005857Y8175572D01*
X14863000Y8104143D01*
X14791571Y7961286D01*
X14791571Y7675572D01*
X14863000Y7532715D01*
X15005857Y7461286D01*
X15148714Y7461286D01*
X15291571Y8175572D01*
X15791571Y6604143D02*
X15720142Y6747000D01*
X15577285Y6818429D01*
X14291571Y6818429D01*
X15720142Y5461286D02*
X15791571Y5604143D01*
X15791571Y5889858D01*
X15720142Y6032715D01*
X15577285Y6104143D01*
X15005857Y6104143D01*
X14863000Y6032715D01*
X14791571Y5889858D01*
X14791571Y5604143D01*
X14863000Y5461286D01*
X15005857Y5389858D01*
X15148714Y5389858D01*
X15291571Y6104143D01*
X15720142Y4104143D02*
X15791571Y4247000D01*
X15791571Y4532715D01*
X15720142Y4675572D01*
X15648714Y4747000D01*
X15505857Y4818429D01*
X15077285Y4818429D01*
X14934428Y4747000D01*
X14863000Y4675572D01*
X14791571Y4532715D01*
X14791571Y4247000D01*
X14863000Y4104143D01*
X14791571Y3675572D02*
X14791571Y3104143D01*
X14291571Y3461286D02*
X15577285Y3461286D01*
X15720142Y3389858D01*
X15791571Y3247000D01*
X15791571Y3104143D01*
X15791571Y2604143D02*
X14791571Y2604143D01*
X15077285Y2604143D02*
X14934428Y2532715D01*
X14863000Y2461286D01*
X14791571Y2318429D01*
X14791571Y2175572D01*
X15791571Y1675572D02*
X14791571Y1675572D01*
X14291571Y1675572D02*
X14363000Y1747000D01*
X14434428Y1675572D01*
X14363000Y1604143D01*
X14291571Y1675572D01*
X14434428Y1675572D01*
X15720142Y318429D02*
X15791571Y461286D01*
X15791571Y747000D01*
X15720142Y889858D01*
X15648714Y961286D01*
X15505857Y1032715D01*
X15077285Y1032715D01*
X14934428Y961286D01*
X14863000Y889858D01*
X14791571Y747000D01*
X14791571Y461286D01*
X14863000Y318429D01*
X15648714Y-324428D02*
X15720142Y-395857D01*
X15791571Y-324428D01*
X15720142Y-253000D01*
X15648714Y-324428D01*
X15791571Y-324428D01*
X15720142Y-1681571D02*
X15791571Y-1538714D01*
X15791571Y-1253000D01*
X15720142Y-1110142D01*
X15648714Y-1038714D01*
X15505857Y-967285D01*
X15077285Y-967285D01*
X14934428Y-1038714D01*
X14863000Y-1110142D01*
X14791571Y-1253000D01*
X14791571Y-1538714D01*
X14863000Y-1681571D01*
X15791571Y-2538714D02*
X15720142Y-2395857D01*
X15648714Y-2324428D01*
X15505857Y-2253000D01*
X15077285Y-2253000D01*
X14934428Y-2324428D01*
X14863000Y-2395857D01*
X14791571Y-2538714D01*
X14791571Y-2753000D01*
X14863000Y-2895857D01*
X14934428Y-2967285D01*
X15077285Y-3038714D01*
X15505857Y-3038714D01*
X15648714Y-2967285D01*
X15720142Y-2895857D01*
X15791571Y-2753000D01*
X15791571Y-2538714D01*
X15648714Y-3681571D02*
X15720142Y-3753000D01*
X15791571Y-3681571D01*
X15720142Y-3610142D01*
X15648714Y-3681571D01*
X15791571Y-3681571D01*
X14791571Y-5038714D02*
X15791571Y-5038714D01*
X14791571Y-4395857D02*
X15577285Y-4395857D01*
X15720142Y-4467285D01*
X15791571Y-4610142D01*
X15791571Y-4824428D01*
X15720142Y-4967285D01*
X15648714Y-5038714D01*
X15791571Y-5753000D02*
X14291571Y-5753000D01*
X15220142Y-5895857D02*
X15791571Y-6324428D01*
X14791571Y-6324428D02*
X15363000Y-5753000D01*
D11*
X24335000Y70660000D03*
D12*
X24335000Y-1340000D03*
D13*
X11430000Y24130000D03*
D14*
X8890000Y24130000D03*
D15*
X38735000Y64135000D03*
X38735000Y61595000D03*
X38735000Y59055000D03*
X38735000Y56515000D03*
X38735000Y53975000D03*
X38735000Y51435000D03*
X61595000Y51435000D03*
X61595000Y53975000D03*
X61595000Y56515000D03*
X61595000Y59055000D03*
X61595000Y61595000D03*
X61595000Y64135000D03*
X61595000Y66675000D03*
D16*
X61595000Y69215000D03*
D15*
X38735000Y66675000D03*
X38735000Y69215000D03*
D17*
X82550000Y43815000D03*
D18*
X82550000Y46355000D03*
X82550000Y48895000D03*
X82550000Y51435000D03*
X82550000Y53975000D03*
X82550000Y56515000D03*
D13*
X11430000Y13970000D03*
D14*
X8890000Y13970000D03*
D13*
X46355000Y19050000D03*
X46355000Y11430000D03*
X49530000Y11430000D03*
X49530000Y19050000D03*
X55880000Y11430000D03*
X55880000Y19050000D03*
X52705000Y11430000D03*
X52705000Y19050000D03*
D14*
X50165000Y7620000D03*
D13*
X52705000Y7620000D03*
X55245000Y7620000D03*
D19*
X80010000Y17780000D03*
D20*
X80010000Y27940000D03*
D19*
X80010000Y22860000D03*
D13*
X62230000Y11430000D03*
X62230000Y19050000D03*
D21*
X66032380Y-3835400D03*
X69040000Y-3810000D03*
X63040000Y-3810000D03*
D22*
X72340000Y-3810000D03*
X59740000Y-3810000D03*
D23*
X65405000Y3937000D03*
X65405000Y13335000D03*
D14*
X61595000Y6350000D03*
D13*
X59055000Y6350000D03*
D24*
X82550000Y35560000D03*
D25*
X82550000Y38100000D03*
D13*
X59055000Y19050000D03*
X59055000Y11430000D03*
X83820000Y5080000D03*
X78740000Y5080000D03*
X83820000Y12700000D03*
X78740000Y12700000D03*
X71120000Y31115000D03*
D14*
X68580000Y31115000D03*
D13*
X42545000Y8255000D03*
D14*
X40005000Y8255000D03*
X69215000Y8255000D03*
D13*
X71755000Y8255000D03*
D14*
X55245000Y-1270000D03*
D13*
X52705000Y-1270000D03*
D26*
X69850000Y19050000D03*
X69850000Y21590000D03*
D17*
X69850000Y16510000D03*
D13*
X41275000Y24765000D03*
D14*
X38735000Y24765000D03*
X46355000Y24765000D03*
D13*
X48895000Y24765000D03*
X57150000Y24765000D03*
D14*
X54610000Y24765000D03*
X62865000Y24765000D03*
D13*
X65405000Y24765000D03*
X69850000Y48895000D03*
X77470000Y48895000D03*
X77470000Y45720000D03*
X69850000Y45720000D03*
X69850000Y42545000D03*
X77470000Y42545000D03*
X77470000Y39370000D03*
X69850000Y39370000D03*
D24*
X66105000Y61580000D03*
D25*
X66105000Y64120000D03*
X66105000Y66660000D03*
X66105000Y69200000D03*
X66105000Y71740000D03*
D27*
X8933286Y73610528D03*
X83732929Y-6189115D03*
X83732929Y73610528D03*
X8933286Y-6189115D03*
D20*
X41910000Y-2540000D03*
D19*
X46990000Y-2540000D03*
D23*
X43561000Y-4826000D03*
X45593000Y-4826000D03*
D28*
X46355000Y46990000D03*
D29*
X43815000Y46990000D03*
X43815000Y44450000D03*
X52070000Y44450000D03*
X52070000Y46990000D03*
D28*
X54610000Y46990000D03*
D26*
X59055000Y40640000D03*
X59055000Y38100000D03*
D17*
X59055000Y35560000D03*
D13*
X39370000Y40005000D03*
X39370000Y32385000D03*
X42545000Y40005000D03*
X42545000Y32385000D03*
X45720000Y32385000D03*
X45720000Y40005000D03*
X48895000Y32385000D03*
X48895000Y40005000D03*
X52070000Y32385000D03*
X52070000Y40005000D03*
X55245000Y32385000D03*
X55245000Y40005000D03*
D30*
X44196000Y14097000D03*
X33401000Y24257000D03*
X34163000Y3302000D03*
X32639000Y32385000D03*
X38608000Y16764000D03*
X44323000Y17018000D03*
X56642000Y51435000D03*
X71120000Y52959000D03*
X69723000Y52197000D03*
X38735000Y10668000D03*
D31*
X55245000Y-1270000D02*
X55245000Y-3048000D01*
X55245000Y508000D02*
X57150000Y2413000D01*
X55245000Y-1270000D02*
X55245000Y508000D01*
X57150000Y10160000D02*
X55880000Y11430000D01*
X57150000Y2413000D02*
X57150000Y10160000D01*
X52705000Y11430000D02*
X55880000Y11430000D01*
X55245000Y-1270000D02*
X55245000Y-5080000D01*
X55245000Y-5080000D02*
X56515000Y-6350000D01*
X56515000Y-6350000D02*
X67945000Y-6350000D01*
X69040000Y-5255000D02*
X69040000Y-3810000D01*
X67945000Y-6350000D02*
X69040000Y-5255000D01*
X24335000Y70660000D02*
X27638000Y70660000D01*
X33020000Y-1651000D02*
X29972000Y1397000D01*
X32639000Y-1270000D02*
X33020000Y-1651000D01*
X29972000Y68326000D02*
X28003500Y70294500D01*
X29972000Y1397000D02*
X29972000Y68326000D01*
X27638000Y70660000D02*
X28003500Y70294500D01*
X51054000Y-5080000D02*
X55245000Y-5080000D01*
X49022000Y-7112000D02*
X51054000Y-5080000D01*
X38481000Y-7112000D02*
X49022000Y-7112000D01*
X33020000Y-1651000D02*
X38481000Y-7112000D01*
X50165000Y5842000D02*
X50165000Y-1270000D01*
X50165000Y7620000D02*
X50165000Y5842000D01*
X50165000Y-1270000D02*
X52705000Y-1270000D01*
X42545000Y8255000D02*
X46482000Y8255000D01*
X47117000Y7620000D02*
X50165000Y7620000D01*
X46482000Y8255000D02*
X47117000Y7620000D01*
X46355000Y8382000D02*
X46355000Y11430000D01*
X46482000Y8255000D02*
X46355000Y8382000D01*
X71120000Y31115000D02*
X72644000Y31115000D01*
X75819000Y27940000D02*
X80010000Y27940000D01*
X72644000Y31115000D02*
X75819000Y27940000D01*
X80010000Y27940000D02*
X82296000Y27940000D01*
X82296000Y27940000D02*
X84709000Y30353000D01*
X84582000Y43815000D02*
X84709000Y43688000D01*
X82550000Y43815000D02*
X84582000Y43815000D01*
X84709000Y43688000D02*
X84709000Y64008000D01*
X82550000Y38100000D02*
X84709000Y38100000D01*
X84709000Y30353000D02*
X84709000Y38100000D01*
X84709000Y38100000D02*
X84709000Y43688000D01*
X48895000Y-2540000D02*
X50165000Y-1270000D01*
X46990000Y-2540000D02*
X48895000Y-2540000D01*
X69850000Y19050000D02*
X73152000Y19050000D01*
X75819000Y21717000D02*
X75819000Y27940000D01*
X73152000Y19050000D02*
X75819000Y21717000D01*
X67898000Y71755000D02*
X76962000Y71755000D01*
X67883000Y71740000D02*
X67898000Y71755000D01*
X66105000Y71740000D02*
X67883000Y71740000D01*
X84709000Y64008000D02*
X76962000Y71755000D01*
X55245000Y38735000D02*
X55245000Y40005000D01*
X48895000Y32385000D02*
X48895000Y35433000D01*
X50165000Y36703000D02*
X53213000Y36703000D01*
X48895000Y35433000D02*
X50165000Y36703000D01*
X53213000Y36703000D02*
X55245000Y38735000D01*
X69850000Y21590000D02*
X69850000Y23876000D01*
X68580000Y25146000D02*
X68580000Y31115000D01*
X69850000Y23876000D02*
X68580000Y25146000D01*
X44196000Y14097000D02*
X43561000Y14097000D01*
X43561000Y14097000D02*
X36322000Y21336000D01*
X36322000Y21336000D02*
X33401000Y24257000D01*
X77470000Y17780000D02*
X73660000Y17780000D01*
X72390000Y16510000D02*
X69850000Y16510000D01*
X73660000Y17780000D02*
X72390000Y16510000D01*
X79375000Y17780000D02*
X77470000Y17780000D01*
X61595000Y6350000D02*
X65405000Y6350000D01*
X67310000Y8255000D02*
X69215000Y8255000D01*
X65405000Y6350000D02*
X67310000Y8255000D01*
X69215000Y8255000D02*
X69215000Y12065000D01*
X69850000Y12700000D02*
X69850000Y16510000D01*
X69215000Y12065000D02*
X69850000Y12700000D01*
X38735000Y26543000D02*
X40132000Y27940000D01*
X38735000Y24765000D02*
X38735000Y26543000D01*
X62865000Y27940000D02*
X62865000Y24765000D01*
X62865000Y22987000D02*
X66040000Y19812000D01*
X62865000Y24765000D02*
X62865000Y22987000D01*
X66040000Y19812000D02*
X66040000Y18415000D01*
X67945000Y16510000D02*
X69850000Y16510000D01*
X66040000Y18415000D02*
X67945000Y16510000D01*
X80010000Y17780000D02*
X81915000Y17780000D01*
X83820000Y15875000D02*
X83820000Y12700000D01*
X81915000Y17780000D02*
X83820000Y15875000D01*
X83820000Y12700000D02*
X83820000Y5080000D01*
X46355000Y24765000D02*
X46355000Y27940000D01*
X40132000Y27940000D02*
X46355000Y27940000D01*
X54610000Y24765000D02*
X54610000Y27940000D01*
X46355000Y27940000D02*
X54610000Y27940000D01*
X64327000Y61580000D02*
X66105000Y61580000D01*
X38735000Y69215000D02*
X40640000Y69215000D01*
X40640000Y69215000D02*
X42672000Y71247000D01*
X42672000Y71247000D02*
X62738000Y71247000D01*
X62738000Y71247000D02*
X64008000Y69977000D01*
X64008000Y69977000D02*
X64008000Y61899000D01*
X64008000Y61899000D02*
X64327000Y61580000D01*
X62865000Y24765000D02*
X62865000Y29464000D01*
X64008000Y30607000D02*
X64008000Y56388000D01*
X62865000Y29464000D02*
X64008000Y30607000D01*
X64008000Y52324000D02*
X64008000Y56388000D01*
X64008000Y56388000D02*
X64008000Y61899000D01*
X33020000Y3302000D02*
X34163000Y3302000D01*
X31115000Y5207000D02*
X33020000Y3302000D01*
X32639000Y32385000D02*
X31115000Y30861000D01*
X31115000Y30861000D02*
X31115000Y5207000D01*
X42545000Y41441840D02*
X43394160Y42291000D01*
X42545000Y40005000D02*
X42545000Y41441840D01*
X43394160Y42291000D02*
X45085000Y42291000D01*
X46355000Y43561000D02*
X46355000Y46990000D01*
X45085000Y42291000D02*
X46355000Y43561000D01*
X41910000Y741680D02*
X40005000Y2646680D01*
X40005000Y2646680D02*
X40005000Y8255000D01*
X41910000Y-2540000D02*
X41910000Y-508000D01*
X41910000Y-1270000D02*
X41910000Y-508000D01*
X41910000Y-508000D02*
X41910000Y741680D01*
X40005000Y8255000D02*
X38227000Y8255000D01*
X38227000Y8255000D02*
X36449000Y10033000D01*
X36449000Y10033000D02*
X36449000Y14605000D01*
X36449000Y14605000D02*
X38608000Y16764000D01*
X43561000Y-4191000D02*
X41910000Y-2540000D01*
X43561000Y-4826000D02*
X43561000Y-4191000D01*
X78740000Y5080000D02*
X78740000Y12700000D01*
X77597000Y3937000D02*
X78740000Y5080000D01*
X65405000Y3937000D02*
X77597000Y3937000D01*
X45720000Y32385000D02*
X42672000Y29337000D01*
X42672000Y29337000D02*
X38862000Y29337000D01*
X38862000Y29337000D02*
X36703000Y27178000D01*
X36703000Y27178000D02*
X36703000Y25654000D01*
X36703000Y23749000D02*
X36703000Y27178000D01*
X44323000Y17018000D02*
X43434000Y17018000D01*
X43434000Y17018000D02*
X36703000Y23749000D01*
X59055000Y6350000D02*
X59055000Y8001000D01*
X59055000Y8001000D02*
X59817000Y8763000D01*
X59817000Y8763000D02*
X62992000Y8763000D01*
X62992000Y8763000D02*
X64008000Y9779000D01*
X64008000Y9779000D02*
X64008000Y12192000D01*
X59055000Y17145000D02*
X59055000Y19050000D01*
X64008000Y12192000D02*
X59055000Y17145000D01*
X56642000Y51435000D02*
X56642000Y45720000D01*
X56642000Y45720000D02*
X56896000Y45466000D01*
X56896000Y45466000D02*
X56896000Y37338000D01*
X56896000Y37338000D02*
X54991000Y35433000D01*
X54991000Y35433000D02*
X52832000Y35433000D01*
X52070000Y34671000D02*
X52070000Y32385000D01*
X52832000Y35433000D02*
X52070000Y34671000D01*
X71120000Y52959000D02*
X78613000Y52959000D01*
X80137000Y51435000D02*
X79692500Y51879500D01*
X82550000Y51435000D02*
X80137000Y51435000D01*
X78613000Y52959000D02*
X79692500Y51879500D01*
X80994620Y53975000D02*
X79978620Y54991000D01*
X82550000Y53975000D02*
X80994620Y53975000D01*
X79978620Y54991000D02*
X76724440Y54991000D01*
X76724440Y54991000D02*
X74549000Y54991000D01*
X71932934Y54991000D02*
X69723000Y52781066D01*
X73406000Y54991000D02*
X71932934Y54991000D01*
X74549000Y54991000D02*
X73406000Y54991000D01*
X69723000Y52781066D02*
X69723000Y52197000D01*
X59055000Y11430000D02*
X62230000Y11430000D01*
X59055000Y13589000D02*
X59055000Y11430000D01*
X38227000Y46990000D02*
X34544000Y43307000D01*
X34544000Y43307000D02*
X34544000Y24511000D01*
X34544000Y24511000D02*
X43434000Y15621000D01*
X43434000Y15621000D02*
X57023000Y15621000D01*
X43815000Y46990000D02*
X38227000Y46990000D01*
X57023000Y15621000D02*
X59055000Y13589000D01*
X48895000Y41441840D02*
X49744160Y42291000D01*
X48895000Y40005000D02*
X48895000Y41441840D01*
X49744160Y42291000D02*
X53086000Y42291000D01*
X54610000Y43815000D02*
X54610000Y46990000D01*
X53086000Y42291000D02*
X54610000Y43815000D01*
X49530000Y11430000D02*
X49530000Y12065000D01*
X49530000Y12065000D02*
X48387000Y13208000D01*
X48387000Y13208000D02*
X45339000Y13208000D01*
X45339000Y13208000D02*
X42799000Y10668000D01*
X42799000Y10668000D02*
X38735000Y10668000D01*
X69850000Y36068000D02*
X69850000Y39370000D01*
X66802000Y33020000D02*
X69850000Y36068000D01*
X65405000Y24765000D02*
X66802000Y26162000D01*
X66802000Y26162000D02*
X66802000Y33020000D01*
X77470000Y39370000D02*
X77470000Y42545000D01*
X77470000Y42545000D02*
X77470000Y45720000D01*
X77470000Y45720000D02*
X77470000Y48895000D01*
X61595000Y61595000D02*
X61341000Y61595000D01*
X60579000Y20701000D02*
X62230000Y19050000D01*
X60579000Y29845000D02*
X60579000Y20701000D01*
X62002990Y31268990D02*
X60579000Y29845000D01*
X59563000Y61595000D02*
X58801000Y60833000D01*
X58801000Y60833000D02*
X58801000Y45593000D01*
X58801000Y45593000D02*
X62103000Y42291000D01*
X61595000Y61595000D02*
X59563000Y61595000D01*
X62103000Y42291000D02*
X62002990Y42190990D01*
X62002990Y42190990D02*
X62002990Y31268990D01*
D32*
G36*
X82392759Y75243530D02*
G01*
X82099927Y74950698D01*
X81869851Y74606364D01*
X81711371Y74223761D01*
X81630579Y73817591D01*
X81630579Y73403465D01*
X81711371Y72997295D01*
X81869851Y72614692D01*
X82099927Y72270358D01*
X82392759Y71977526D01*
X82737093Y71747450D01*
X83119696Y71588970D01*
X83525866Y71508178D01*
X83939992Y71508178D01*
X84346162Y71588970D01*
X84728765Y71747450D01*
X85073099Y71977526D01*
X85365931Y72270358D01*
X85541500Y72533116D01*
X85541501Y-5111705D01*
X85365931Y-4848945D01*
X85073099Y-4556113D01*
X84728765Y-4326037D01*
X84346162Y-4167557D01*
X83939992Y-4086765D01*
X83525866Y-4086765D01*
X83119696Y-4167557D01*
X82737093Y-4326037D01*
X82392759Y-4556113D01*
X82099927Y-4848945D01*
X81869851Y-5193279D01*
X81711371Y-5575882D01*
X81630579Y-5982052D01*
X81630579Y-6396178D01*
X81711371Y-6802348D01*
X81869851Y-7184951D01*
X82099927Y-7529285D01*
X82392759Y-7822117D01*
X82655389Y-7997600D01*
X49520454Y-7997600D01*
X49589190Y-7960860D01*
X49743896Y-7833896D01*
X49775712Y-7795128D01*
X51474841Y-6096000D01*
X54824160Y-6096000D01*
X55761292Y-7033133D01*
X55793104Y-7071896D01*
X55947810Y-7198860D01*
X56124313Y-7293202D01*
X56315829Y-7351298D01*
X56465098Y-7366000D01*
X56465105Y-7366000D01*
X56514999Y-7370914D01*
X56564893Y-7366000D01*
X67895098Y-7366000D01*
X67945000Y-7370915D01*
X67994902Y-7366000D01*
X68144171Y-7351298D01*
X68335687Y-7293202D01*
X68512190Y-7198860D01*
X68666896Y-7071896D01*
X68698712Y-7033128D01*
X69723133Y-6008708D01*
X69761896Y-5976896D01*
X69888860Y-5822190D01*
X69983202Y-5645687D01*
X70041298Y-5454171D01*
X70056000Y-5304902D01*
X70056000Y-5304901D01*
X70060915Y-5255000D01*
X70056000Y-5205098D01*
X70056000Y-5097528D01*
X70082252Y-5079987D01*
X70309987Y-4852252D01*
X70488918Y-4584463D01*
X70612168Y-4286912D01*
X70675000Y-3971033D01*
X70675000Y-3648967D01*
X70612168Y-3333088D01*
X70488918Y-3035537D01*
X70364502Y-2849335D01*
X71105000Y-2849335D01*
X71105000Y-4770664D01*
X71122870Y-4952101D01*
X71193489Y-5184900D01*
X71308167Y-5399448D01*
X71462498Y-5587502D01*
X71650551Y-5741833D01*
X71865099Y-5856511D01*
X72097898Y-5927130D01*
X72340000Y-5950975D01*
X72582101Y-5927130D01*
X72814900Y-5856511D01*
X73029448Y-5741833D01*
X73217502Y-5587502D01*
X73371833Y-5399449D01*
X73486511Y-5184901D01*
X73557130Y-4952102D01*
X73575000Y-4770665D01*
X73575000Y-2849335D01*
X73557130Y-2667898D01*
X73486511Y-2435099D01*
X73371833Y-2220551D01*
X73217502Y-2032498D01*
X73029449Y-1878167D01*
X72814901Y-1763489D01*
X72582102Y-1692870D01*
X72340000Y-1669025D01*
X72097899Y-1692870D01*
X71865100Y-1763489D01*
X71650552Y-1878167D01*
X71462499Y-2032498D01*
X71308168Y-2220551D01*
X71193490Y-2435099D01*
X71122871Y-2667898D01*
X71105000Y-2849335D01*
X70364502Y-2849335D01*
X70309987Y-2767748D01*
X70082252Y-2540013D01*
X69814463Y-2361082D01*
X69516912Y-2237832D01*
X69201033Y-2175000D01*
X68878967Y-2175000D01*
X68563088Y-2237832D01*
X68265537Y-2361082D01*
X67997748Y-2540013D01*
X67770013Y-2767748D01*
X67591082Y-3035537D01*
X67530929Y-3180758D01*
X67481298Y-3060937D01*
X67302367Y-2793148D01*
X67074632Y-2565413D01*
X66806843Y-2386482D01*
X66509292Y-2263232D01*
X66193413Y-2200400D01*
X65871347Y-2200400D01*
X65555468Y-2263232D01*
X65257917Y-2386482D01*
X64990128Y-2565413D01*
X64762393Y-2793148D01*
X64583462Y-3060937D01*
X64541451Y-3162361D01*
X64488918Y-3035537D01*
X64309987Y-2767748D01*
X64082252Y-2540013D01*
X63814463Y-2361082D01*
X63516912Y-2237832D01*
X63201033Y-2175000D01*
X62878967Y-2175000D01*
X62563088Y-2237832D01*
X62265537Y-2361082D01*
X61997748Y-2540013D01*
X61770013Y-2767748D01*
X61591082Y-3035537D01*
X61467832Y-3333088D01*
X61405000Y-3648967D01*
X61405000Y-3971033D01*
X61467832Y-4286912D01*
X61591082Y-4584463D01*
X61770013Y-4852252D01*
X61997748Y-5079987D01*
X62265537Y-5258918D01*
X62446800Y-5334000D01*
X60806816Y-5334000D01*
X60886511Y-5184901D01*
X60957130Y-4952102D01*
X60975000Y-4770665D01*
X60975000Y-2849335D01*
X60957130Y-2667898D01*
X60886511Y-2435099D01*
X60771833Y-2220551D01*
X60617502Y-2032498D01*
X60429449Y-1878167D01*
X60214901Y-1763489D01*
X59982102Y-1692870D01*
X59740000Y-1669025D01*
X59497899Y-1692870D01*
X59265100Y-1763489D01*
X59050552Y-1878167D01*
X58862499Y-2032498D01*
X58708168Y-2220551D01*
X58593490Y-2435099D01*
X58522871Y-2667898D01*
X58505000Y-2849335D01*
X58505000Y-4770664D01*
X58522870Y-4952101D01*
X58593489Y-5184900D01*
X58673184Y-5334000D01*
X56935841Y-5334000D01*
X56261000Y-4659160D01*
X56261000Y-2924072D01*
X56385482Y-2911812D01*
X56505180Y-2875502D01*
X56615494Y-2816537D01*
X56712185Y-2737185D01*
X56791537Y-2640494D01*
X56850502Y-2530180D01*
X56886812Y-2410482D01*
X56899072Y-2286000D01*
X56899072Y-254000D01*
X56886812Y-129518D01*
X56850502Y-9820D01*
X56791537Y100494D01*
X56712185Y197185D01*
X56615494Y276537D01*
X56507892Y334052D01*
X57833133Y1659292D01*
X57871896Y1691104D01*
X57998860Y1845810D01*
X58093202Y2022313D01*
X58151298Y2213829D01*
X58166000Y2363098D01*
X58166000Y2363099D01*
X58170915Y2413000D01*
X58166000Y2462902D01*
X58166000Y4958370D01*
X58272958Y4886903D01*
X58573421Y4762447D01*
X58892391Y4699000D01*
X59217609Y4699000D01*
X59536579Y4762447D01*
X59837042Y4886903D01*
X60029296Y5015364D01*
X60048463Y4979506D01*
X60127815Y4882815D01*
X60224506Y4803463D01*
X60334820Y4744498D01*
X60454518Y4708188D01*
X60579000Y4695928D01*
X62611000Y4695928D01*
X62735482Y4708188D01*
X62855180Y4744498D01*
X62965494Y4803463D01*
X63062185Y4882815D01*
X63141537Y4979506D01*
X63200502Y5089820D01*
X63236812Y5209518D01*
X63249072Y5334000D01*
X64766509Y5334000D01*
X64677905Y5297299D01*
X64426495Y5129312D01*
X64212688Y4915505D01*
X64044701Y4664095D01*
X63928989Y4384743D01*
X63870000Y4088184D01*
X63870000Y3785816D01*
X63928989Y3489257D01*
X64044701Y3209905D01*
X64212688Y2958495D01*
X64426495Y2744688D01*
X64677905Y2576701D01*
X64957257Y2460989D01*
X65253816Y2402000D01*
X65556184Y2402000D01*
X65852743Y2460989D01*
X66132095Y2576701D01*
X66383505Y2744688D01*
X66559817Y2921000D01*
X77547098Y2921000D01*
X77597000Y2916085D01*
X77646902Y2921000D01*
X77796171Y2935702D01*
X77987687Y2993798D01*
X78164190Y3088140D01*
X78318896Y3215104D01*
X78350712Y3253872D01*
X78534393Y3437553D01*
X78577391Y3429000D01*
X78902609Y3429000D01*
X79221579Y3492447D01*
X79522042Y3616903D01*
X79792451Y3797585D01*
X80022415Y4027549D01*
X80203097Y4297958D01*
X80327553Y4598421D01*
X80391000Y4917391D01*
X80391000Y5242609D01*
X80327553Y5561579D01*
X80203097Y5862042D01*
X80022415Y6132451D01*
X79792451Y6362415D01*
X79756000Y6386771D01*
X79756000Y11393229D01*
X79792451Y11417585D01*
X80022415Y11647549D01*
X80203097Y11917958D01*
X80327553Y12218421D01*
X80391000Y12537391D01*
X80391000Y12862609D01*
X80327553Y13181579D01*
X80203097Y13482042D01*
X80022415Y13752451D01*
X79792451Y13982415D01*
X79522042Y14163097D01*
X79221579Y14287553D01*
X78902609Y14351000D01*
X78577391Y14351000D01*
X78258421Y14287553D01*
X77957958Y14163097D01*
X77687549Y13982415D01*
X77457585Y13752451D01*
X77276903Y13482042D01*
X77152447Y13181579D01*
X77089000Y12862609D01*
X77089000Y12537391D01*
X77152447Y12218421D01*
X77276903Y11917958D01*
X77457585Y11647549D01*
X77687549Y11417585D01*
X77724001Y11393229D01*
X77724000Y6386771D01*
X77687549Y6362415D01*
X77457585Y6132451D01*
X77276903Y5862042D01*
X77152447Y5561579D01*
X77089000Y5242609D01*
X77089000Y4953000D01*
X66559817Y4953000D01*
X66383505Y5129312D01*
X66132095Y5297299D01*
X65852743Y5413011D01*
X65819633Y5419597D01*
X65972190Y5501140D01*
X66126896Y5628104D01*
X66158712Y5666872D01*
X67580908Y7089068D01*
X67609498Y6994820D01*
X67668463Y6884506D01*
X67747815Y6787815D01*
X67844506Y6708463D01*
X67954820Y6649498D01*
X68074518Y6613188D01*
X68199000Y6600928D01*
X70231000Y6600928D01*
X70355482Y6613188D01*
X70475180Y6649498D01*
X70585494Y6708463D01*
X70682185Y6787815D01*
X70761537Y6884506D01*
X70820502Y6994820D01*
X70824532Y7008104D01*
X70885478Y6842140D01*
X71177821Y6699652D01*
X71492344Y6616936D01*
X71816962Y6597169D01*
X72139198Y6641112D01*
X72446670Y6747076D01*
X72624522Y6842140D01*
X72722218Y7108177D01*
X71755000Y8075395D01*
X71740858Y8061252D01*
X71561253Y8240857D01*
X71575395Y8255000D01*
X71934605Y8255000D01*
X72901823Y7287782D01*
X73167860Y7385478D01*
X73310348Y7677821D01*
X73393064Y7992344D01*
X73412831Y8316962D01*
X73368888Y8639198D01*
X73262924Y8946670D01*
X73167860Y9124522D01*
X72901823Y9222218D01*
X71934605Y8255000D01*
X71575395Y8255000D01*
X71561253Y8269142D01*
X71740858Y8448747D01*
X71755000Y8434605D01*
X72722218Y9401823D01*
X72624522Y9667860D01*
X72332179Y9810348D01*
X72017656Y9893064D01*
X71693038Y9912831D01*
X71370802Y9868888D01*
X71063330Y9762924D01*
X70885478Y9667860D01*
X70824532Y9501896D01*
X70820502Y9515180D01*
X70761537Y9625494D01*
X70682185Y9722185D01*
X70585494Y9801537D01*
X70475180Y9860502D01*
X70355482Y9896812D01*
X70231000Y9909072D01*
X70231000Y11644160D01*
X70533127Y11946287D01*
X70571896Y11978104D01*
X70698860Y12132810D01*
X70793202Y12309313D01*
X70851298Y12500829D01*
X70866000Y12650098D01*
X70866000Y12650099D01*
X70870915Y12700000D01*
X70866000Y12749902D01*
X70866000Y14821638D01*
X70900290Y14821638D01*
X71024772Y14833898D01*
X71144470Y14870208D01*
X71254784Y14929173D01*
X71351475Y15008525D01*
X71430827Y15105216D01*
X71489792Y15215530D01*
X71526102Y15335228D01*
X71538362Y15459710D01*
X71538362Y15494000D01*
X72340098Y15494000D01*
X72390000Y15489085D01*
X72439902Y15494000D01*
X72589171Y15508702D01*
X72780687Y15566798D01*
X72957190Y15661140D01*
X73111896Y15788104D01*
X73143712Y15826872D01*
X74080841Y16764000D01*
X78422184Y16764000D01*
X78546074Y16578587D01*
X78808587Y16316074D01*
X79117269Y16109818D01*
X79460259Y15967747D01*
X79824375Y15895320D01*
X80195625Y15895320D01*
X80559741Y15967747D01*
X80902731Y16109818D01*
X81211413Y16316074D01*
X81473926Y16578587D01*
X81556297Y16701863D01*
X82804000Y15454159D01*
X82804001Y14006771D01*
X82767549Y13982415D01*
X82537585Y13752451D01*
X82356903Y13482042D01*
X82232447Y13181579D01*
X82169000Y12862609D01*
X82169000Y12537391D01*
X82232447Y12218421D01*
X82356903Y11917958D01*
X82537585Y11647549D01*
X82767549Y11417585D01*
X82804000Y11393229D01*
X82804001Y6386771D01*
X82767549Y6362415D01*
X82537585Y6132451D01*
X82356903Y5862042D01*
X82232447Y5561579D01*
X82169000Y5242609D01*
X82169000Y4917391D01*
X82232447Y4598421D01*
X82356903Y4297958D01*
X82537585Y4027549D01*
X82767549Y3797585D01*
X83037958Y3616903D01*
X83338421Y3492447D01*
X83657391Y3429000D01*
X83982609Y3429000D01*
X84301579Y3492447D01*
X84602042Y3616903D01*
X84872451Y3797585D01*
X85102415Y4027549D01*
X85283097Y4297958D01*
X85407553Y4598421D01*
X85471000Y4917391D01*
X85471000Y5242609D01*
X85407553Y5561579D01*
X85283097Y5862042D01*
X85102415Y6132451D01*
X84872451Y6362415D01*
X84836000Y6386771D01*
X84836000Y11393229D01*
X84872451Y11417585D01*
X85102415Y11647549D01*
X85283097Y11917958D01*
X85407553Y12218421D01*
X85471000Y12537391D01*
X85471000Y12862609D01*
X85407553Y13181579D01*
X85283097Y13482042D01*
X85102415Y13752451D01*
X84872451Y13982415D01*
X84836000Y14006771D01*
X84836000Y15825098D01*
X84840915Y15875000D01*
X84821298Y16074171D01*
X84763202Y16265687D01*
X84736270Y16316074D01*
X84668860Y16442190D01*
X84541896Y16596896D01*
X84503133Y16628708D01*
X82668712Y18463128D01*
X82636896Y18501896D01*
X82482190Y18628860D01*
X82305687Y18723202D01*
X82114171Y18781298D01*
X81964902Y18796000D01*
X81915000Y18800915D01*
X81865098Y18796000D01*
X81597816Y18796000D01*
X81473926Y18981413D01*
X81211413Y19243926D01*
X80902731Y19450182D01*
X80559741Y19592253D01*
X80195625Y19664680D01*
X79824375Y19664680D01*
X79460259Y19592253D01*
X79117269Y19450182D01*
X78808587Y19243926D01*
X78546074Y18981413D01*
X78422184Y18796000D01*
X73709893Y18796000D01*
X73659999Y18800914D01*
X73610105Y18796000D01*
X73610098Y18796000D01*
X73460829Y18781298D01*
X73269313Y18723202D01*
X73092810Y18628860D01*
X72938104Y18501896D01*
X72906292Y18463133D01*
X71969160Y17526000D01*
X71538362Y17526000D01*
X71538362Y17560290D01*
X71526102Y17684772D01*
X71489792Y17804470D01*
X71430827Y17914784D01*
X71351475Y18011475D01*
X71254784Y18090827D01*
X71193702Y18123477D01*
X71290815Y18160167D01*
X71436728Y18458354D01*
X71521664Y18779277D01*
X71542359Y19110604D01*
X71498018Y19439602D01*
X71390344Y19753629D01*
X71290815Y19939833D01*
X71021273Y20041668D01*
X70029605Y19050000D01*
X70043748Y19035857D01*
X69864143Y18856252D01*
X69850000Y18870395D01*
X69835858Y18856252D01*
X69656253Y19035857D01*
X69670395Y19050000D01*
X68678727Y20041668D01*
X68409185Y19939833D01*
X68263272Y19641646D01*
X68178336Y19320723D01*
X68157641Y18989396D01*
X68201982Y18660398D01*
X68309656Y18346371D01*
X68409185Y18160167D01*
X68506298Y18123477D01*
X68445216Y18090827D01*
X68348525Y18011475D01*
X68269173Y17914784D01*
X68210208Y17804470D01*
X68181618Y17710222D01*
X67056000Y18835840D01*
X67056000Y19762099D01*
X67060915Y19812001D01*
X67041298Y20011171D01*
X67032047Y20041668D01*
X66983202Y20202687D01*
X66888860Y20379190D01*
X66761896Y20533896D01*
X66723133Y20565708D01*
X64127892Y23160948D01*
X64235494Y23218463D01*
X64332185Y23297815D01*
X64411537Y23394506D01*
X64430704Y23430364D01*
X64622958Y23301903D01*
X64923421Y23177447D01*
X65242391Y23114000D01*
X65567609Y23114000D01*
X65886579Y23177447D01*
X66187042Y23301903D01*
X66457451Y23482585D01*
X66687415Y23712549D01*
X66868097Y23982958D01*
X66992553Y24283421D01*
X67056000Y24602391D01*
X67056000Y24927609D01*
X67047447Y24970607D01*
X67485133Y25408292D01*
X67523896Y25440104D01*
X67564000Y25488971D01*
X67564000Y25195902D01*
X67559085Y25146000D01*
X67564000Y25096099D01*
X67578702Y24946830D01*
X67636798Y24755314D01*
X67731140Y24578810D01*
X67858104Y24424104D01*
X67896872Y24392288D01*
X68834001Y23455158D01*
X68834001Y22938012D01*
X68775690Y22899050D01*
X68540950Y22664310D01*
X68356516Y22388284D01*
X68229475Y22081581D01*
X68164710Y21755987D01*
X68164710Y21424013D01*
X68229475Y21098419D01*
X68356516Y20791716D01*
X68540950Y20515690D01*
X68775690Y20280950D01*
X68859677Y20224832D01*
X68858332Y20221273D01*
X69850000Y19229605D01*
X70841668Y20221273D01*
X70840323Y20224832D01*
X70924310Y20280950D01*
X71159050Y20515690D01*
X71343484Y20791716D01*
X71470525Y21098419D01*
X71535290Y21424013D01*
X71535290Y21755987D01*
X71470525Y22081581D01*
X71343484Y22388284D01*
X71159050Y22664310D01*
X70924310Y22899050D01*
X70866000Y22938011D01*
X70866000Y23045625D01*
X78125320Y23045625D01*
X78125320Y22674375D01*
X78197747Y22310259D01*
X78339818Y21967269D01*
X78546074Y21658587D01*
X78808587Y21396074D01*
X79117269Y21189818D01*
X79460259Y21047747D01*
X79824375Y20975320D01*
X80195625Y20975320D01*
X80559741Y21047747D01*
X80902731Y21189818D01*
X81211413Y21396074D01*
X81473926Y21658587D01*
X81680182Y21967269D01*
X81822253Y22310259D01*
X81894680Y22674375D01*
X81894680Y23045625D01*
X81822253Y23409741D01*
X81680182Y23752731D01*
X81473926Y24061413D01*
X81211413Y24323926D01*
X80902731Y24530182D01*
X80559741Y24672253D01*
X80195625Y24744680D01*
X79824375Y24744680D01*
X79460259Y24672253D01*
X79117269Y24530182D01*
X78808587Y24323926D01*
X78546074Y24061413D01*
X78339818Y23752731D01*
X78197747Y23409741D01*
X78125320Y23045625D01*
X70866000Y23045625D01*
X70866000Y23826107D01*
X70870914Y23876001D01*
X70866000Y23925895D01*
X70866000Y23925902D01*
X70851298Y24075171D01*
X70793202Y24266687D01*
X70698860Y24443190D01*
X70571896Y24597896D01*
X70533133Y24629708D01*
X69596000Y25566840D01*
X69596000Y26690320D01*
X78122248Y26690320D01*
X78134508Y26565838D01*
X78170818Y26446140D01*
X78229783Y26335826D01*
X78309135Y26239135D01*
X78405826Y26159783D01*
X78516140Y26100818D01*
X78635838Y26064508D01*
X78760320Y26052248D01*
X79724250Y26055320D01*
X79883000Y26214070D01*
X79883000Y27813000D01*
X80137000Y27813000D01*
X80137000Y26214070D01*
X80295750Y26055320D01*
X81259680Y26052248D01*
X81384162Y26064508D01*
X81503860Y26100818D01*
X81614174Y26159783D01*
X81710865Y26239135D01*
X81790217Y26335826D01*
X81849182Y26446140D01*
X81885492Y26565838D01*
X81897752Y26690320D01*
X81894680Y27654250D01*
X81735930Y27813000D01*
X80137000Y27813000D01*
X79883000Y27813000D01*
X78284070Y27813000D01*
X78125320Y27654250D01*
X78122248Y26690320D01*
X69596000Y26690320D01*
X69596000Y29189680D01*
X78122248Y29189680D01*
X78125320Y28225750D01*
X78284070Y28067000D01*
X79883000Y28067000D01*
X79883000Y29665930D01*
X80137000Y29665930D01*
X80137000Y28067000D01*
X81735930Y28067000D01*
X81894680Y28225750D01*
X81897752Y29189680D01*
X81885492Y29314162D01*
X81849182Y29433860D01*
X81790217Y29544174D01*
X81710865Y29640865D01*
X81614174Y29720217D01*
X81503860Y29779182D01*
X81384162Y29815492D01*
X81259680Y29827752D01*
X80295750Y29824680D01*
X80137000Y29665930D01*
X79883000Y29665930D01*
X79724250Y29824680D01*
X78760320Y29827752D01*
X78635838Y29815492D01*
X78516140Y29779182D01*
X78405826Y29720217D01*
X78309135Y29640865D01*
X78229783Y29544174D01*
X78170818Y29433860D01*
X78134508Y29314162D01*
X78122248Y29189680D01*
X69596000Y29189680D01*
X69596000Y29460928D01*
X69720482Y29473188D01*
X69840180Y29509498D01*
X69950494Y29568463D01*
X70047185Y29647815D01*
X70126537Y29744506D01*
X70185502Y29854820D01*
X70189532Y29868104D01*
X70250478Y29702140D01*
X70542821Y29559652D01*
X70857344Y29476936D01*
X71181962Y29457169D01*
X71504198Y29501112D01*
X71811670Y29607076D01*
X71989522Y29702140D01*
X72087218Y29968177D01*
X71120000Y30935395D01*
X71105858Y30921252D01*
X70926253Y31100857D01*
X70940395Y31115000D01*
X71299605Y31115000D01*
X72266823Y30147782D01*
X72532860Y30245478D01*
X72675348Y30537821D01*
X72758064Y30852344D01*
X72777831Y31176962D01*
X72733888Y31499198D01*
X72627924Y31806670D01*
X72532860Y31984522D01*
X72266823Y32082218D01*
X71299605Y31115000D01*
X70940395Y31115000D01*
X70926253Y31129142D01*
X71105858Y31308747D01*
X71120000Y31294605D01*
X72087218Y32261823D01*
X71989522Y32527860D01*
X71697179Y32670348D01*
X71382656Y32753064D01*
X71058038Y32772831D01*
X70735802Y32728888D01*
X70428330Y32622924D01*
X70250478Y32527860D01*
X70189532Y32361896D01*
X70185502Y32375180D01*
X70126537Y32485494D01*
X70047185Y32582185D01*
X69950494Y32661537D01*
X69840180Y32720502D01*
X69720482Y32756812D01*
X69596000Y32769072D01*
X67987912Y32769072D01*
X70533133Y35314292D01*
X70571896Y35346104D01*
X70698860Y35500810D01*
X70769073Y35632171D01*
X70793202Y35677312D01*
X70851298Y35868829D01*
X70870915Y36068000D01*
X70866000Y36117902D01*
X70866000Y36423600D01*
X80895928Y36423600D01*
X80895928Y34696400D01*
X80908188Y34571918D01*
X80944498Y34452220D01*
X81003463Y34341906D01*
X81082815Y34245215D01*
X81179506Y34165863D01*
X81289820Y34106898D01*
X81409518Y34070588D01*
X81534000Y34058328D01*
X83566000Y34058328D01*
X83690482Y34070588D01*
X83810180Y34106898D01*
X83920494Y34165863D01*
X84017185Y34245215D01*
X84096537Y34341906D01*
X84155502Y34452220D01*
X84191812Y34571918D01*
X84204072Y34696400D01*
X84204072Y36423600D01*
X84191812Y36548082D01*
X84155502Y36667780D01*
X84096537Y36778094D01*
X84017185Y36874785D01*
X83920494Y36954137D01*
X83810180Y37013102D01*
X83748088Y37031937D01*
X83900733Y37197965D01*
X84053686Y37449081D01*
X84154709Y37725211D01*
X84157358Y37740974D01*
X84036217Y37973000D01*
X82677000Y37973000D01*
X82677000Y37953000D01*
X82423000Y37953000D01*
X82423000Y37973000D01*
X81063783Y37973000D01*
X80942642Y37740974D01*
X80945291Y37725211D01*
X81046314Y37449081D01*
X81199267Y37197965D01*
X81351912Y37031937D01*
X81289820Y37013102D01*
X81179506Y36954137D01*
X81082815Y36874785D01*
X81003463Y36778094D01*
X80944498Y36667780D01*
X80908188Y36548082D01*
X80895928Y36423600D01*
X70866000Y36423600D01*
X70866000Y38063229D01*
X70902451Y38087585D01*
X71132415Y38317549D01*
X71313097Y38587958D01*
X71437553Y38888421D01*
X71501000Y39207391D01*
X71501000Y39532609D01*
X71437553Y39851579D01*
X71313097Y40152042D01*
X71132415Y40422451D01*
X70902451Y40652415D01*
X70632042Y40833097D01*
X70331707Y40957500D01*
X70632042Y41081903D01*
X70902451Y41262585D01*
X71132415Y41492549D01*
X71313097Y41762958D01*
X71437553Y42063421D01*
X71501000Y42382391D01*
X71501000Y42707609D01*
X71437553Y43026579D01*
X71313097Y43327042D01*
X71132415Y43597451D01*
X70902451Y43827415D01*
X70632042Y44008097D01*
X70331707Y44132500D01*
X70632042Y44256903D01*
X70902451Y44437585D01*
X71132415Y44667549D01*
X71313097Y44937958D01*
X71437553Y45238421D01*
X71501000Y45557391D01*
X71501000Y45882609D01*
X71437553Y46201579D01*
X71313097Y46502042D01*
X71132415Y46772451D01*
X70902451Y47002415D01*
X70632042Y47183097D01*
X70331707Y47307500D01*
X70632042Y47431903D01*
X70902451Y47612585D01*
X71132415Y47842549D01*
X71313097Y48112958D01*
X71437553Y48413421D01*
X71501000Y48732391D01*
X71501000Y49057609D01*
X75819000Y49057609D01*
X75819000Y48732391D01*
X75882447Y48413421D01*
X76006903Y48112958D01*
X76187585Y47842549D01*
X76417549Y47612585D01*
X76454001Y47588229D01*
X76454000Y47026771D01*
X76417549Y47002415D01*
X76187585Y46772451D01*
X76006903Y46502042D01*
X75882447Y46201579D01*
X75819000Y45882609D01*
X75819000Y45557391D01*
X75882447Y45238421D01*
X76006903Y44937958D01*
X76187585Y44667549D01*
X76417549Y44437585D01*
X76454001Y44413229D01*
X76454000Y43851771D01*
X76417549Y43827415D01*
X76187585Y43597451D01*
X76006903Y43327042D01*
X75882447Y43026579D01*
X75819000Y42707609D01*
X75819000Y42382391D01*
X75882447Y42063421D01*
X76006903Y41762958D01*
X76187585Y41492549D01*
X76417549Y41262585D01*
X76454001Y41238229D01*
X76454000Y40676771D01*
X76417549Y40652415D01*
X76187585Y40422451D01*
X76006903Y40152042D01*
X75882447Y39851579D01*
X75819000Y39532609D01*
X75819000Y39207391D01*
X75882447Y38888421D01*
X76006903Y38587958D01*
X76187585Y38317549D01*
X76417549Y38087585D01*
X76687958Y37906903D01*
X76988421Y37782447D01*
X77307391Y37719000D01*
X77632609Y37719000D01*
X77951579Y37782447D01*
X78252042Y37906903D01*
X78522451Y38087585D01*
X78752415Y38317549D01*
X78846947Y38459026D01*
X80942642Y38459026D01*
X81063783Y38227000D01*
X82423000Y38227000D01*
X82423000Y39440925D01*
X82677000Y39440925D01*
X82677000Y38227000D01*
X84036217Y38227000D01*
X84157358Y38459026D01*
X84154709Y38474789D01*
X84053686Y38750919D01*
X83900733Y39002035D01*
X83701729Y39218486D01*
X83464321Y39391954D01*
X83197633Y39515773D01*
X82911914Y39585185D01*
X82677000Y39440925D01*
X82423000Y39440925D01*
X82188086Y39585185D01*
X81902367Y39515773D01*
X81635679Y39391954D01*
X81398271Y39218486D01*
X81199267Y39002035D01*
X81046314Y38750919D01*
X80945291Y38474789D01*
X80942642Y38459026D01*
X78846947Y38459026D01*
X78933097Y38587958D01*
X79057553Y38888421D01*
X79121000Y39207391D01*
X79121000Y39532609D01*
X79057553Y39851579D01*
X78933097Y40152042D01*
X78752415Y40422451D01*
X78522451Y40652415D01*
X78486000Y40676771D01*
X78486000Y41238229D01*
X78522451Y41262585D01*
X78752415Y41492549D01*
X78933097Y41762958D01*
X79057553Y42063421D01*
X79121000Y42382391D01*
X79121000Y42707609D01*
X79109642Y42764710D01*
X80861638Y42764710D01*
X80873898Y42640228D01*
X80910208Y42520530D01*
X80969173Y42410216D01*
X81048525Y42313525D01*
X81145216Y42234173D01*
X81255530Y42175208D01*
X81375228Y42138898D01*
X81499710Y42126638D01*
X82264250Y42129710D01*
X82423000Y42288460D01*
X82423000Y43688000D01*
X82677000Y43688000D01*
X82677000Y42288460D01*
X82835750Y42129710D01*
X83600290Y42126638D01*
X83724772Y42138898D01*
X83844470Y42175208D01*
X83954784Y42234173D01*
X84051475Y42313525D01*
X84130827Y42410216D01*
X84189792Y42520530D01*
X84226102Y42640228D01*
X84238362Y42764710D01*
X84235290Y43529250D01*
X84076540Y43688000D01*
X82677000Y43688000D01*
X82423000Y43688000D01*
X81023460Y43688000D01*
X80864710Y43529250D01*
X80861638Y42764710D01*
X79109642Y42764710D01*
X79057553Y43026579D01*
X78933097Y43327042D01*
X78752415Y43597451D01*
X78522451Y43827415D01*
X78486000Y43851771D01*
X78486000Y44413229D01*
X78522451Y44437585D01*
X78752415Y44667549D01*
X78933097Y44937958D01*
X79057553Y45238421D01*
X79121000Y45557391D01*
X79121000Y45882609D01*
X79057553Y46201579D01*
X78933097Y46502042D01*
X78752415Y46772451D01*
X78522451Y47002415D01*
X78486000Y47026771D01*
X78486000Y47588229D01*
X78522451Y47612585D01*
X78752415Y47842549D01*
X78933097Y48112958D01*
X79057553Y48413421D01*
X79121000Y48732391D01*
X79121000Y49057609D01*
X79057553Y49376579D01*
X78933097Y49677042D01*
X78752415Y49947451D01*
X78522451Y50177415D01*
X78252042Y50358097D01*
X77951579Y50482553D01*
X77632609Y50546000D01*
X77307391Y50546000D01*
X76988421Y50482553D01*
X76687958Y50358097D01*
X76417549Y50177415D01*
X76187585Y49947451D01*
X76006903Y49677042D01*
X75882447Y49376579D01*
X75819000Y49057609D01*
X71501000Y49057609D01*
X71437553Y49376579D01*
X71313097Y49677042D01*
X71132415Y49947451D01*
X70902451Y50177415D01*
X70632042Y50358097D01*
X70331579Y50482553D01*
X70012609Y50546000D01*
X69687391Y50546000D01*
X69368421Y50482553D01*
X69067958Y50358097D01*
X68797549Y50177415D01*
X68567585Y49947451D01*
X68386903Y49677042D01*
X68262447Y49376579D01*
X68199000Y49057609D01*
X68199000Y48732391D01*
X68262447Y48413421D01*
X68386903Y48112958D01*
X68567585Y47842549D01*
X68797549Y47612585D01*
X69067958Y47431903D01*
X69368293Y47307500D01*
X69067958Y47183097D01*
X68797549Y47002415D01*
X68567585Y46772451D01*
X68386903Y46502042D01*
X68262447Y46201579D01*
X68199000Y45882609D01*
X68199000Y45557391D01*
X68262447Y45238421D01*
X68386903Y44937958D01*
X68567585Y44667549D01*
X68797549Y44437585D01*
X69067958Y44256903D01*
X69368293Y44132500D01*
X69067958Y44008097D01*
X68797549Y43827415D01*
X68567585Y43597451D01*
X68386903Y43327042D01*
X68262447Y43026579D01*
X68199000Y42707609D01*
X68199000Y42382391D01*
X68262447Y42063421D01*
X68386903Y41762958D01*
X68567585Y41492549D01*
X68797549Y41262585D01*
X69067958Y41081903D01*
X69368293Y40957500D01*
X69067958Y40833097D01*
X68797549Y40652415D01*
X68567585Y40422451D01*
X68386903Y40152042D01*
X68262447Y39851579D01*
X68199000Y39532609D01*
X68199000Y39207391D01*
X68262447Y38888421D01*
X68386903Y38587958D01*
X68567585Y38317549D01*
X68797549Y38087585D01*
X68834001Y38063229D01*
X68834000Y36488841D01*
X66118868Y33773708D01*
X66080105Y33741896D01*
X65953141Y33587190D01*
X65923547Y33531823D01*
X65858799Y33410687D01*
X65800702Y33219170D01*
X65781085Y33020000D01*
X65786001Y32970088D01*
X65786000Y26582841D01*
X65610607Y26407447D01*
X65567609Y26416000D01*
X65242391Y26416000D01*
X64923421Y26352553D01*
X64622958Y26228097D01*
X64430704Y26099636D01*
X64411537Y26135494D01*
X64332185Y26232185D01*
X64235494Y26311537D01*
X64125180Y26370502D01*
X64005482Y26406812D01*
X63881000Y26419072D01*
X63881000Y29043160D01*
X64691133Y29853292D01*
X64729896Y29885104D01*
X64856860Y30039810D01*
X64951202Y30216313D01*
X65009298Y30407829D01*
X65024000Y30557098D01*
X65024000Y30557099D01*
X65028915Y30606999D01*
X65024000Y30656901D01*
X65024000Y52781066D01*
X68702085Y52781066D01*
X68707000Y52731164D01*
X68707000Y52147098D01*
X68721702Y51997829D01*
X68779799Y51806313D01*
X68874141Y51629810D01*
X69001105Y51475104D01*
X69155811Y51348140D01*
X69332314Y51253798D01*
X69523830Y51195702D01*
X69723000Y51176085D01*
X69922171Y51195702D01*
X70113687Y51253798D01*
X70290190Y51348140D01*
X70444896Y51475104D01*
X70571860Y51629810D01*
X70666202Y51806313D01*
X70724298Y51997830D01*
X70726230Y52017446D01*
X70729313Y52015798D01*
X70920829Y51957702D01*
X71070098Y51943000D01*
X78192160Y51943000D01*
X79009365Y51125794D01*
X79009371Y51125789D01*
X79383287Y50751873D01*
X79415104Y50713104D01*
X79569810Y50586140D01*
X79695227Y50519104D01*
X79746312Y50491798D01*
X79937829Y50433702D01*
X80137000Y50414085D01*
X80186902Y50419000D01*
X81142419Y50419000D01*
X81202477Y50329117D01*
X81366594Y50165000D01*
X81202477Y50000883D01*
X81012623Y49716745D01*
X80881848Y49401028D01*
X80815180Y49065865D01*
X80815180Y48724135D01*
X80881848Y48388972D01*
X81012623Y48073255D01*
X81202477Y47789117D01*
X81366594Y47625000D01*
X81202477Y47460883D01*
X81012623Y47176745D01*
X80881848Y46861028D01*
X80815180Y46525865D01*
X80815180Y46184135D01*
X80881848Y45848972D01*
X81012623Y45533255D01*
X81118887Y45374219D01*
X81048525Y45316475D01*
X80969173Y45219784D01*
X80910208Y45109470D01*
X80873898Y44989772D01*
X80861638Y44865290D01*
X80864710Y44100750D01*
X81023460Y43942000D01*
X82423000Y43942000D01*
X82423000Y43962000D01*
X82677000Y43962000D01*
X82677000Y43942000D01*
X84076540Y43942000D01*
X84235290Y44100750D01*
X84238362Y44865290D01*
X84226102Y44989772D01*
X84189792Y45109470D01*
X84130827Y45219784D01*
X84051475Y45316475D01*
X83981113Y45374219D01*
X84087377Y45533255D01*
X84218152Y45848972D01*
X84284820Y46184135D01*
X84284820Y46525865D01*
X84218152Y46861028D01*
X84087377Y47176745D01*
X83897523Y47460883D01*
X83733406Y47625000D01*
X83897523Y47789117D01*
X84087377Y48073255D01*
X84218152Y48388972D01*
X84284820Y48724135D01*
X84284820Y49065865D01*
X84218152Y49401028D01*
X84087377Y49716745D01*
X83897523Y50000883D01*
X83733406Y50165000D01*
X83897523Y50329117D01*
X84087377Y50613255D01*
X84218152Y50928972D01*
X84284820Y51264135D01*
X84284820Y51605865D01*
X84218152Y51941028D01*
X84087377Y52256745D01*
X83897523Y52540883D01*
X83733406Y52705000D01*
X83897523Y52869117D01*
X84087377Y53153255D01*
X84218152Y53468972D01*
X84284820Y53804135D01*
X84284820Y54145865D01*
X84218152Y54481028D01*
X84087377Y54796745D01*
X83897523Y55080883D01*
X83733406Y55245000D01*
X83897523Y55409117D01*
X84087377Y55693255D01*
X84218152Y56008972D01*
X84284820Y56344135D01*
X84284820Y56685865D01*
X84218152Y57021028D01*
X84087377Y57336745D01*
X83897523Y57620883D01*
X83655883Y57862523D01*
X83371745Y58052377D01*
X83056028Y58183152D01*
X82720865Y58249820D01*
X82379135Y58249820D01*
X82043972Y58183152D01*
X81728255Y58052377D01*
X81444117Y57862523D01*
X81202477Y57620883D01*
X81012623Y57336745D01*
X80881848Y57021028D01*
X80815180Y56685865D01*
X80815180Y56344135D01*
X80881848Y56008972D01*
X81012623Y55693255D01*
X81202477Y55409117D01*
X81366594Y55245000D01*
X81264027Y55142433D01*
X80732332Y55674128D01*
X80700516Y55712896D01*
X80545810Y55839860D01*
X80369307Y55934202D01*
X80177791Y55992298D01*
X80028522Y56007000D01*
X79978620Y56011915D01*
X79928718Y56007000D01*
X71982836Y56007000D01*
X71932934Y56011915D01*
X71883032Y56007000D01*
X71733763Y55992298D01*
X71542247Y55934202D01*
X71365744Y55839860D01*
X71211038Y55712896D01*
X71179226Y55674133D01*
X69039872Y53534778D01*
X69001104Y53502962D01*
X68874140Y53348256D01*
X68779798Y53171752D01*
X68737344Y53031799D01*
X68721702Y52980236D01*
X68702085Y52781066D01*
X65024000Y52781066D01*
X65024000Y60084730D01*
X65089000Y60078328D01*
X67121000Y60078328D01*
X67245482Y60090588D01*
X67365180Y60126898D01*
X67475494Y60185863D01*
X67572185Y60265215D01*
X67651537Y60361906D01*
X67710502Y60472220D01*
X67746812Y60591918D01*
X67759072Y60716400D01*
X67759072Y62443600D01*
X67746812Y62568082D01*
X67710502Y62687780D01*
X67651537Y62798094D01*
X67572185Y62894785D01*
X67475494Y62974137D01*
X67365180Y63033102D01*
X67314135Y63048586D01*
X67322197Y63055203D01*
X67509469Y63283394D01*
X67648625Y63543736D01*
X67734316Y63826223D01*
X67763251Y64120000D01*
X67734316Y64413777D01*
X67648625Y64696264D01*
X67509469Y64956606D01*
X67322197Y65184797D01*
X67094006Y65372069D01*
X67060460Y65390000D01*
X67094006Y65407931D01*
X67322197Y65595203D01*
X67509469Y65823394D01*
X67648625Y66083736D01*
X67734316Y66366223D01*
X67763251Y66660000D01*
X67734316Y66953777D01*
X67648625Y67236264D01*
X67509469Y67496606D01*
X67322197Y67724797D01*
X67094006Y67912069D01*
X67060460Y67930000D01*
X67094006Y67947931D01*
X67322197Y68135203D01*
X67509469Y68363394D01*
X67648625Y68623736D01*
X67734316Y68906223D01*
X67763251Y69200000D01*
X67734316Y69493777D01*
X67648625Y69776264D01*
X67509469Y70036606D01*
X67322197Y70264797D01*
X67094006Y70452069D01*
X67054053Y70473424D01*
X67256729Y70621514D01*
X67455733Y70837965D01*
X67608686Y71089081D01*
X67709709Y71365211D01*
X67712358Y71380974D01*
X67591217Y71613000D01*
X66232000Y71613000D01*
X66232000Y71593000D01*
X65978000Y71593000D01*
X65978000Y71613000D01*
X64618783Y71613000D01*
X64497642Y71380974D01*
X64500291Y71365211D01*
X64601314Y71089081D01*
X64754267Y70837965D01*
X64953271Y70621514D01*
X65155947Y70473424D01*
X65115994Y70452069D01*
X64963555Y70326965D01*
X64951202Y70367687D01*
X64856860Y70544190D01*
X64729896Y70698896D01*
X64691133Y70730708D01*
X63491712Y71930128D01*
X63459896Y71968896D01*
X63305190Y72095860D01*
X63299267Y72099026D01*
X64497642Y72099026D01*
X64618783Y71867000D01*
X65978000Y71867000D01*
X65978000Y73080925D01*
X66232000Y73080925D01*
X66232000Y71867000D01*
X67591217Y71867000D01*
X67712358Y72099026D01*
X67709709Y72114789D01*
X67608686Y72390919D01*
X67455733Y72642035D01*
X67256729Y72858486D01*
X67019321Y73031954D01*
X66752633Y73155773D01*
X66466914Y73225185D01*
X66232000Y73080925D01*
X65978000Y73080925D01*
X65743086Y73225185D01*
X65457367Y73155773D01*
X65190679Y73031954D01*
X64953271Y72858486D01*
X64754267Y72642035D01*
X64601314Y72390919D01*
X64500291Y72114789D01*
X64497642Y72099026D01*
X63299267Y72099026D01*
X63128687Y72190202D01*
X62937171Y72248298D01*
X62787902Y72263000D01*
X62738000Y72267915D01*
X62688098Y72263000D01*
X42721902Y72263000D01*
X42672000Y72267915D01*
X42622098Y72263000D01*
X42472829Y72248298D01*
X42281313Y72190202D01*
X42104810Y72095860D01*
X41950104Y71968896D01*
X41918292Y71930133D01*
X40219160Y70231000D01*
X40126701Y70231000D01*
X40071844Y70297844D01*
X39839785Y70488290D01*
X39575031Y70629804D01*
X39287756Y70716948D01*
X39063859Y70739000D01*
X38406141Y70739000D01*
X38182244Y70716948D01*
X37894969Y70629804D01*
X37630215Y70488290D01*
X37398156Y70297844D01*
X37207710Y70065785D01*
X37066196Y69801031D01*
X36979052Y69513756D01*
X36949627Y69215000D01*
X36979052Y68916244D01*
X37066196Y68628969D01*
X37207710Y68364215D01*
X37398156Y68132156D01*
X37626206Y67945000D01*
X37398156Y67757844D01*
X37207710Y67525785D01*
X37066196Y67261031D01*
X36979052Y66973756D01*
X36949627Y66675000D01*
X36979052Y66376244D01*
X37066196Y66088969D01*
X37207710Y65824215D01*
X37398156Y65592156D01*
X37626206Y65405000D01*
X37398156Y65217844D01*
X37207710Y64985785D01*
X37066196Y64721031D01*
X36979052Y64433756D01*
X36949627Y64135000D01*
X36979052Y63836244D01*
X37066196Y63548969D01*
X37207710Y63284215D01*
X37398156Y63052156D01*
X37630215Y62861710D01*
X37634002Y62859686D01*
X37528715Y62791602D01*
X37313567Y62582828D01*
X37143283Y62336092D01*
X37024407Y62060876D01*
X37000866Y61958013D01*
X37121670Y61722000D01*
X38608000Y61722000D01*
X38608000Y61742000D01*
X38862000Y61742000D01*
X38862000Y61722000D01*
X40348330Y61722000D01*
X40469134Y61958013D01*
X40445593Y62060876D01*
X40326717Y62336092D01*
X40156433Y62582828D01*
X39941285Y62791602D01*
X39835998Y62859686D01*
X39839785Y62861710D01*
X40071844Y63052156D01*
X40262290Y63284215D01*
X40403804Y63548969D01*
X40490948Y63836244D01*
X40520373Y64135000D01*
X40490948Y64433756D01*
X40403804Y64721031D01*
X40262290Y64985785D01*
X40071844Y65217844D01*
X39843794Y65405000D01*
X40071844Y65592156D01*
X40262290Y65824215D01*
X40403804Y66088969D01*
X40490948Y66376244D01*
X40520373Y66675000D01*
X40490948Y66973756D01*
X40403804Y67261031D01*
X40262290Y67525785D01*
X40071844Y67757844D01*
X39843794Y67945000D01*
X40071844Y68132156D01*
X40126701Y68199000D01*
X40590098Y68199000D01*
X40640000Y68194085D01*
X40689902Y68199000D01*
X40839171Y68213702D01*
X41030687Y68271798D01*
X41207190Y68366140D01*
X41361896Y68493104D01*
X41393712Y68531872D01*
X43092841Y70231000D01*
X59826952Y70231000D01*
X59826188Y70228482D01*
X59813928Y70104000D01*
X59813928Y68326000D01*
X59826188Y68201518D01*
X59862498Y68081820D01*
X59921463Y67971506D01*
X60000815Y67874815D01*
X60097506Y67795463D01*
X60207820Y67736498D01*
X60239563Y67726869D01*
X60173567Y67662828D01*
X60003283Y67416092D01*
X59884407Y67140876D01*
X59860866Y67038013D01*
X59981670Y66802000D01*
X61468000Y66802000D01*
X61468000Y66822000D01*
X61722000Y66822000D01*
X61722000Y66802000D01*
X61742000Y66802000D01*
X61742000Y66548000D01*
X61722000Y66548000D01*
X61722000Y66528000D01*
X61468000Y66528000D01*
X61468000Y66548000D01*
X59981670Y66548000D01*
X59860866Y66311987D01*
X59884407Y66209124D01*
X60003283Y65933908D01*
X60173567Y65687172D01*
X60388715Y65478398D01*
X60494002Y65410314D01*
X60490215Y65408290D01*
X60258156Y65217844D01*
X60067710Y64985785D01*
X59926196Y64721031D01*
X59839052Y64433756D01*
X59809627Y64135000D01*
X59839052Y63836244D01*
X59926196Y63548969D01*
X60067710Y63284215D01*
X60258156Y63052156D01*
X60486206Y62865000D01*
X60258156Y62677844D01*
X60203299Y62611000D01*
X59612902Y62611000D01*
X59563000Y62615915D01*
X59513098Y62611000D01*
X59363829Y62596298D01*
X59172313Y62538202D01*
X58995810Y62443860D01*
X58841104Y62316896D01*
X58809292Y62278133D01*
X58117872Y61586712D01*
X58079104Y61554896D01*
X57952140Y61400190D01*
X57857798Y61223686D01*
X57829113Y61129124D01*
X57799702Y61032170D01*
X57780085Y60833000D01*
X57785000Y60783098D01*
X57785001Y45958091D01*
X57744860Y46033190D01*
X57658000Y46139029D01*
X57658000Y51484902D01*
X57643298Y51634171D01*
X57585202Y51825687D01*
X57490860Y52002190D01*
X57363896Y52156896D01*
X57209190Y52283860D01*
X57032686Y52378202D01*
X56841170Y52436298D01*
X56642000Y52455915D01*
X56442829Y52436298D01*
X56251313Y52378202D01*
X56074810Y52283860D01*
X55920104Y52156896D01*
X55793140Y52002190D01*
X55698798Y51825686D01*
X55640702Y51634170D01*
X55626000Y51484901D01*
X55626001Y48574318D01*
X55562500Y48580572D01*
X53657500Y48580572D01*
X53533018Y48568312D01*
X53413320Y48532002D01*
X53303006Y48473037D01*
X53206315Y48393685D01*
X53126963Y48296994D01*
X53085549Y48219515D01*
X53081972Y48223092D01*
X52821963Y48396824D01*
X52533057Y48516493D01*
X52226355Y48577500D01*
X51913645Y48577500D01*
X51606943Y48516493D01*
X51318037Y48396824D01*
X51058028Y48223092D01*
X50836908Y48001972D01*
X50663176Y47741963D01*
X50543507Y47453057D01*
X50482500Y47146355D01*
X50482500Y46833645D01*
X50543507Y46526943D01*
X50663176Y46238037D01*
X50836908Y45978028D01*
X51058028Y45756908D01*
X51188961Y45669422D01*
X51148070Y45551535D01*
X52070000Y44629605D01*
X52991930Y45551535D01*
X52951039Y45669422D01*
X53081972Y45756908D01*
X53085549Y45760485D01*
X53126963Y45683006D01*
X53206315Y45586315D01*
X53303006Y45506963D01*
X53413320Y45447998D01*
X53533018Y45411688D01*
X53594001Y45405682D01*
X53594000Y44900813D01*
X53517877Y45119516D01*
X53431081Y45281902D01*
X53171535Y45371930D01*
X52249605Y44450000D01*
X52263748Y44435857D01*
X52084143Y44256252D01*
X52070000Y44270395D01*
X51148070Y43348465D01*
X51162453Y43307000D01*
X49794062Y43307000D01*
X49744160Y43311915D01*
X49694258Y43307000D01*
X49544989Y43292298D01*
X49353473Y43234202D01*
X49176970Y43139860D01*
X49022264Y43012896D01*
X48990454Y42974135D01*
X48211868Y42195548D01*
X48173105Y42163736D01*
X48046141Y42009030D01*
X48029454Y41977810D01*
X47951799Y41832527D01*
X47893702Y41641010D01*
X47874085Y41441840D01*
X47879001Y41391929D01*
X47879001Y41311771D01*
X47842549Y41287415D01*
X47612585Y41057451D01*
X47431903Y40787042D01*
X47307500Y40486707D01*
X47183097Y40787042D01*
X47002415Y41057451D01*
X46772451Y41287415D01*
X46502042Y41468097D01*
X46201579Y41592553D01*
X45886138Y41655298D01*
X47038133Y42807292D01*
X47076896Y42839104D01*
X47203860Y42993810D01*
X47298202Y43170313D01*
X47356298Y43361829D01*
X47371000Y43511098D01*
X47371000Y43511105D01*
X47375914Y43560999D01*
X47371000Y43610893D01*
X47371000Y44385526D01*
X50476123Y44385526D01*
X50519328Y44075815D01*
X50622123Y43780484D01*
X50708919Y43618098D01*
X50968465Y43528070D01*
X51890395Y44450000D01*
X50968465Y45371930D01*
X50708919Y45281902D01*
X50572776Y45000384D01*
X50494171Y44697714D01*
X50476123Y44385526D01*
X47371000Y44385526D01*
X47371000Y45405682D01*
X47431982Y45411688D01*
X47551680Y45447998D01*
X47661994Y45506963D01*
X47758685Y45586315D01*
X47838037Y45683006D01*
X47897002Y45793320D01*
X47933312Y45913018D01*
X47945572Y46037500D01*
X47945572Y47942500D01*
X47933312Y48066982D01*
X47897002Y48186680D01*
X47838037Y48296994D01*
X47758685Y48393685D01*
X47661994Y48473037D01*
X47551680Y48532002D01*
X47431982Y48568312D01*
X47307500Y48580572D01*
X45402500Y48580572D01*
X45278018Y48568312D01*
X45158320Y48532002D01*
X45048006Y48473037D01*
X44951315Y48393685D01*
X44871963Y48296994D01*
X44830549Y48219515D01*
X44826972Y48223092D01*
X44566963Y48396824D01*
X44278057Y48516493D01*
X43971355Y48577500D01*
X43658645Y48577500D01*
X43351943Y48516493D01*
X43063037Y48396824D01*
X42803028Y48223092D01*
X42585936Y48006000D01*
X38276902Y48006000D01*
X38227000Y48010915D01*
X38177098Y48006000D01*
X38027829Y47991298D01*
X37836313Y47933202D01*
X37659810Y47838860D01*
X37505104Y47711896D01*
X37473292Y47673133D01*
X33860872Y44060712D01*
X33822104Y44028896D01*
X33695140Y43874190D01*
X33600798Y43697686D01*
X33575967Y43615829D01*
X33542702Y43506170D01*
X33523085Y43307000D01*
X33528000Y43257098D01*
X33528001Y32877089D01*
X33487859Y32952189D01*
X33360895Y33106895D01*
X33206189Y33233859D01*
X33029686Y33328201D01*
X32838170Y33386298D01*
X32638999Y33405914D01*
X32439828Y33386298D01*
X32248312Y33328201D01*
X32071810Y33233859D01*
X31955865Y33138706D01*
X30988000Y32170840D01*
X30988000Y51071987D01*
X37000866Y51071987D01*
X37024407Y50969124D01*
X37143283Y50693908D01*
X37313567Y50447172D01*
X37528715Y50238398D01*
X37780458Y50075609D01*
X38059123Y49965060D01*
X38354000Y49911000D01*
X38608000Y49911000D01*
X38608000Y51308000D01*
X38862000Y51308000D01*
X38862000Y49911000D01*
X39116000Y49911000D01*
X39410877Y49965060D01*
X39689542Y50075609D01*
X39941285Y50238398D01*
X40156433Y50447172D01*
X40326717Y50693908D01*
X40445593Y50969124D01*
X40469134Y51071987D01*
X40348330Y51308000D01*
X38862000Y51308000D01*
X38608000Y51308000D01*
X37121670Y51308000D01*
X37000866Y51071987D01*
X30988000Y51071987D01*
X30988000Y59055000D01*
X36949627Y59055000D01*
X36979052Y58756244D01*
X37066196Y58468969D01*
X37207710Y58204215D01*
X37398156Y57972156D01*
X37626206Y57785000D01*
X37398156Y57597844D01*
X37207710Y57365785D01*
X37066196Y57101031D01*
X36979052Y56813756D01*
X36949627Y56515000D01*
X36979052Y56216244D01*
X37066196Y55928969D01*
X37207710Y55664215D01*
X37398156Y55432156D01*
X37626206Y55245000D01*
X37398156Y55057844D01*
X37207710Y54825785D01*
X37066196Y54561031D01*
X36979052Y54273756D01*
X36949627Y53975000D01*
X36979052Y53676244D01*
X37066196Y53388969D01*
X37207710Y53124215D01*
X37398156Y52892156D01*
X37630215Y52701710D01*
X37634002Y52699686D01*
X37528715Y52631602D01*
X37313567Y52422828D01*
X37143283Y52176092D01*
X37024407Y51900876D01*
X37000866Y51798013D01*
X37121670Y51562000D01*
X38608000Y51562000D01*
X38608000Y51582000D01*
X38862000Y51582000D01*
X38862000Y51562000D01*
X40348330Y51562000D01*
X40469134Y51798013D01*
X40445593Y51900876D01*
X40326717Y52176092D01*
X40156433Y52422828D01*
X39941285Y52631602D01*
X39835998Y52699686D01*
X39839785Y52701710D01*
X40071844Y52892156D01*
X40262290Y53124215D01*
X40403804Y53388969D01*
X40490948Y53676244D01*
X40520373Y53975000D01*
X40490948Y54273756D01*
X40403804Y54561031D01*
X40262290Y54825785D01*
X40071844Y55057844D01*
X39843794Y55245000D01*
X40071844Y55432156D01*
X40262290Y55664215D01*
X40403804Y55928969D01*
X40490948Y56216244D01*
X40520373Y56515000D01*
X40490948Y56813756D01*
X40403804Y57101031D01*
X40262290Y57365785D01*
X40071844Y57597844D01*
X39843794Y57785000D01*
X40071844Y57972156D01*
X40262290Y58204215D01*
X40403804Y58468969D01*
X40490948Y58756244D01*
X40520373Y59055000D01*
X40490948Y59353756D01*
X40403804Y59641031D01*
X40262290Y59905785D01*
X40071844Y60137844D01*
X39839785Y60328290D01*
X39835998Y60330314D01*
X39941285Y60398398D01*
X40156433Y60607172D01*
X40326717Y60853908D01*
X40445593Y61129124D01*
X40469134Y61231987D01*
X40348330Y61468000D01*
X38862000Y61468000D01*
X38862000Y61448000D01*
X38608000Y61448000D01*
X38608000Y61468000D01*
X37121670Y61468000D01*
X37000866Y61231987D01*
X37024407Y61129124D01*
X37143283Y60853908D01*
X37313567Y60607172D01*
X37528715Y60398398D01*
X37634002Y60330314D01*
X37630215Y60328290D01*
X37398156Y60137844D01*
X37207710Y59905785D01*
X37066196Y59641031D01*
X36979052Y59353756D01*
X36949627Y59055000D01*
X30988000Y59055000D01*
X30988000Y68276107D01*
X30992914Y68326001D01*
X30988000Y68375895D01*
X30988000Y68375902D01*
X30973298Y68525171D01*
X30915202Y68716687D01*
X30820860Y68893190D01*
X30693896Y69047896D01*
X30655133Y69079708D01*
X28686634Y71048206D01*
X28391713Y71343127D01*
X28359896Y71381896D01*
X28205190Y71508860D01*
X28028687Y71603202D01*
X27837171Y71661298D01*
X27687902Y71676000D01*
X27638000Y71680915D01*
X27588098Y71676000D01*
X26471496Y71676000D01*
X26460812Y71784482D01*
X26424502Y71904180D01*
X26365537Y72014494D01*
X26286185Y72111185D01*
X26189494Y72190537D01*
X26079180Y72249502D01*
X25959482Y72285812D01*
X25835000Y72298072D01*
X22835000Y72298072D01*
X22710518Y72285812D01*
X22590820Y72249502D01*
X22480506Y72190537D01*
X22383815Y72111185D01*
X22304463Y72014494D01*
X22245498Y71904180D01*
X22209188Y71784482D01*
X22196928Y71660000D01*
X22196928Y69660000D01*
X22209188Y69535518D01*
X22245498Y69415820D01*
X22304463Y69305506D01*
X22383815Y69208815D01*
X22480506Y69129463D01*
X22590820Y69070498D01*
X22710518Y69034188D01*
X22835000Y69021928D01*
X25835000Y69021928D01*
X25959482Y69034188D01*
X26079180Y69070498D01*
X26189494Y69129463D01*
X26286185Y69208815D01*
X26365537Y69305506D01*
X26424502Y69415820D01*
X26460812Y69535518D01*
X26471496Y69644000D01*
X27217160Y69644000D01*
X27249794Y69611366D01*
X28956001Y67905158D01*
X28956000Y1446902D01*
X28951085Y1397000D01*
X28956000Y1347099D01*
X28970702Y1197830D01*
X29028798Y1006314D01*
X29123140Y829810D01*
X29250104Y675104D01*
X29288872Y643288D01*
X32336865Y-2404706D01*
X32336871Y-2404711D01*
X37727292Y-7795133D01*
X37759104Y-7833896D01*
X37913810Y-7960860D01*
X37982546Y-7997600D01*
X10010826Y-7997600D01*
X10273456Y-7822117D01*
X10566288Y-7529285D01*
X10796364Y-7184951D01*
X10954844Y-6802348D01*
X11035636Y-6396178D01*
X11035636Y-5982052D01*
X10954844Y-5575882D01*
X10796364Y-5193279D01*
X10566288Y-4848945D01*
X10273456Y-4556113D01*
X9929122Y-4326037D01*
X9546519Y-4167557D01*
X9140349Y-4086765D01*
X8726223Y-4086765D01*
X8320053Y-4167557D01*
X7937450Y-4326037D01*
X7593116Y-4556113D01*
X7300284Y-4848945D01*
X7124760Y-5111636D01*
X7124760Y14986000D01*
X7235928Y14986000D01*
X7235928Y12954000D01*
X7248188Y12829518D01*
X7284498Y12709820D01*
X7343463Y12599506D01*
X7422815Y12502815D01*
X7519506Y12423463D01*
X7629820Y12364498D01*
X7749518Y12328188D01*
X7874000Y12315928D01*
X9906000Y12315928D01*
X10030482Y12328188D01*
X10150180Y12364498D01*
X10260494Y12423463D01*
X10357185Y12502815D01*
X10436537Y12599506D01*
X10455704Y12635364D01*
X10647958Y12506903D01*
X10948421Y12382447D01*
X11267391Y12319000D01*
X11592609Y12319000D01*
X11911579Y12382447D01*
X12212042Y12506903D01*
X12482451Y12687585D01*
X12712415Y12917549D01*
X12893097Y13187958D01*
X13017553Y13488421D01*
X13081000Y13807391D01*
X13081000Y14132609D01*
X13017553Y14451579D01*
X12893097Y14752042D01*
X12712415Y15022451D01*
X12482451Y15252415D01*
X12212042Y15433097D01*
X11911579Y15557553D01*
X11592609Y15621000D01*
X11267391Y15621000D01*
X10948421Y15557553D01*
X10647958Y15433097D01*
X10455704Y15304636D01*
X10436537Y15340494D01*
X10357185Y15437185D01*
X10260494Y15516537D01*
X10150180Y15575502D01*
X10030482Y15611812D01*
X9906000Y15624072D01*
X7874000Y15624072D01*
X7749518Y15611812D01*
X7629820Y15575502D01*
X7519506Y15516537D01*
X7422815Y15437185D01*
X7343463Y15340494D01*
X7284498Y15230180D01*
X7248188Y15110482D01*
X7235928Y14986000D01*
X7124760Y14986000D01*
X7124760Y25146000D01*
X7235928Y25146000D01*
X7235928Y23114000D01*
X7248188Y22989518D01*
X7284498Y22869820D01*
X7343463Y22759506D01*
X7422815Y22662815D01*
X7519506Y22583463D01*
X7629820Y22524498D01*
X7749518Y22488188D01*
X7874000Y22475928D01*
X9906000Y22475928D01*
X10030482Y22488188D01*
X10150180Y22524498D01*
X10260494Y22583463D01*
X10357185Y22662815D01*
X10436537Y22759506D01*
X10455704Y22795364D01*
X10647958Y22666903D01*
X10948421Y22542447D01*
X11267391Y22479000D01*
X11592609Y22479000D01*
X11911579Y22542447D01*
X12212042Y22666903D01*
X12482451Y22847585D01*
X12524009Y22889143D01*
X13323000Y22889143D01*
X13323000Y-7395143D01*
X17143000Y-7395143D01*
X17143000Y-3974714D01*
X18149000Y-3974714D01*
X18149000Y-4339857D01*
X21969000Y-4339857D01*
X21969000Y-1720434D01*
X22244876Y-1720434D01*
X22275856Y-1848355D01*
X22404990Y-2142761D01*
X22589078Y-2406317D01*
X22821046Y-2628895D01*
X23091980Y-2801942D01*
X23391468Y-2918807D01*
X23708000Y-2975000D01*
X24208000Y-2975000D01*
X24208000Y-1467000D01*
X24462000Y-1467000D01*
X24462000Y-2975000D01*
X24962000Y-2975000D01*
X25278532Y-2918807D01*
X25578020Y-2801942D01*
X25848954Y-2628895D01*
X26080922Y-2406317D01*
X26265010Y-2142761D01*
X26394144Y-1848355D01*
X26425124Y-1720434D01*
X26305777Y-1467000D01*
X24462000Y-1467000D01*
X24208000Y-1467000D01*
X22364223Y-1467000D01*
X22244876Y-1720434D01*
X21969000Y-1720434D01*
X21969000Y-959566D01*
X22244876Y-959566D01*
X22364223Y-1213000D01*
X24208000Y-1213000D01*
X24208000Y-1193000D01*
X24462000Y-1193000D01*
X24462000Y-1213000D01*
X26305777Y-1213000D01*
X26425124Y-959566D01*
X26394144Y-831645D01*
X26265010Y-537239D01*
X26080922Y-273683D01*
X25848954Y-51105D01*
X25578020Y121942D01*
X25278532Y238807D01*
X24962000Y295000D01*
X23708000Y295000D01*
X23391468Y238807D01*
X23091980Y121942D01*
X22821046Y-51105D01*
X22589078Y-273683D01*
X22404990Y-537239D01*
X22275856Y-831645D01*
X22244876Y-959566D01*
X21969000Y-959566D01*
X21969000Y8264882D01*
X22200000Y8264882D01*
X22200000Y6055119D01*
X22230892Y5741468D01*
X22352974Y5339019D01*
X22551223Y4968119D01*
X22818023Y4643023D01*
X23143119Y4376223D01*
X23514018Y4177974D01*
X23916467Y4055892D01*
X24335000Y4014670D01*
X24753532Y4055892D01*
X25155981Y4177974D01*
X25526881Y4376223D01*
X25851977Y4643023D01*
X26118777Y4968119D01*
X26317026Y5339018D01*
X26439108Y5741467D01*
X26470000Y6055118D01*
X26470000Y8264882D01*
X26439108Y8578533D01*
X26317026Y8980982D01*
X26118777Y9351881D01*
X25851977Y9676977D01*
X25526881Y9943777D01*
X25155982Y10142026D01*
X24753533Y10264108D01*
X24335000Y10305330D01*
X23916468Y10264108D01*
X23514019Y10142026D01*
X23143120Y9943777D01*
X22818024Y9676977D01*
X22551224Y9351881D01*
X22352975Y8980982D01*
X22230892Y8578533D01*
X22200000Y8264882D01*
X21969000Y8264882D01*
X21969000Y15515857D01*
X19556000Y15515857D01*
X19556000Y16166715D01*
X17143000Y16166715D01*
X17143000Y22889143D01*
X13323000Y22889143D01*
X12524009Y22889143D01*
X12712415Y23077549D01*
X12893097Y23347958D01*
X13017553Y23648421D01*
X13081000Y23967391D01*
X13081000Y24292609D01*
X13017553Y24611579D01*
X12893097Y24912042D01*
X12712415Y25182451D01*
X12482451Y25412415D01*
X12212042Y25593097D01*
X11911579Y25717553D01*
X11592609Y25781000D01*
X11267391Y25781000D01*
X10948421Y25717553D01*
X10647958Y25593097D01*
X10455704Y25464636D01*
X10436537Y25500494D01*
X10357185Y25597185D01*
X10260494Y25676537D01*
X10150180Y25735502D01*
X10030482Y25771812D01*
X9906000Y25784072D01*
X7874000Y25784072D01*
X7749518Y25771812D01*
X7629820Y25735502D01*
X7519506Y25676537D01*
X7422815Y25597185D01*
X7343463Y25500494D01*
X7284498Y25390180D01*
X7248188Y25270482D01*
X7235928Y25146000D01*
X7124760Y25146000D01*
X7124760Y63264882D01*
X22200000Y63264882D01*
X22200000Y61055119D01*
X22230892Y60741468D01*
X22352974Y60339019D01*
X22551223Y59968119D01*
X22818023Y59643023D01*
X23143119Y59376223D01*
X23514018Y59177974D01*
X23916467Y59055892D01*
X24335000Y59014670D01*
X24753532Y59055892D01*
X25155981Y59177974D01*
X25526881Y59376223D01*
X25851977Y59643023D01*
X26118777Y59968119D01*
X26317026Y60339018D01*
X26439108Y60741467D01*
X26470000Y61055118D01*
X26470000Y63264882D01*
X26439108Y63578533D01*
X26317026Y63980982D01*
X26118777Y64351881D01*
X25851977Y64676977D01*
X25526881Y64943777D01*
X25155982Y65142026D01*
X24753533Y65264108D01*
X24335000Y65305330D01*
X23916468Y65264108D01*
X23514019Y65142026D01*
X23143120Y64943777D01*
X22818024Y64676977D01*
X22551224Y64351881D01*
X22352975Y63980982D01*
X22230892Y63578533D01*
X22200000Y63264882D01*
X7124760Y63264882D01*
X7124760Y72533049D01*
X7300284Y72270358D01*
X7593116Y71977526D01*
X7937450Y71747450D01*
X8320053Y71588970D01*
X8726223Y71508178D01*
X9140349Y71508178D01*
X9546519Y71588970D01*
X9929122Y71747450D01*
X10273456Y71977526D01*
X10566288Y72270358D01*
X10796364Y72614692D01*
X10954844Y72997295D01*
X11035636Y73403465D01*
X11035636Y73817591D01*
X10954844Y74223761D01*
X10796364Y74606364D01*
X10566288Y74950698D01*
X10273456Y75243530D01*
X10010756Y75419060D01*
X82655459Y75419060D01*
X82392759Y75243530D01*
X82392759Y75243530D01*
G37*
X82392759Y75243530D02*
X82099927Y74950698D01*
X81869851Y74606364D01*
X81711371Y74223761D01*
X81630579Y73817591D01*
X81630579Y73403465D01*
X81711371Y72997295D01*
X81869851Y72614692D01*
X82099927Y72270358D01*
X82392759Y71977526D01*
X82737093Y71747450D01*
X83119696Y71588970D01*
X83525866Y71508178D01*
X83939992Y71508178D01*
X84346162Y71588970D01*
X84728765Y71747450D01*
X85073099Y71977526D01*
X85365931Y72270358D01*
X85541500Y72533116D01*
X85541501Y-5111705D01*
X85365931Y-4848945D01*
X85073099Y-4556113D01*
X84728765Y-4326037D01*
X84346162Y-4167557D01*
X83939992Y-4086765D01*
X83525866Y-4086765D01*
X83119696Y-4167557D01*
X82737093Y-4326037D01*
X82392759Y-4556113D01*
X82099927Y-4848945D01*
X81869851Y-5193279D01*
X81711371Y-5575882D01*
X81630579Y-5982052D01*
X81630579Y-6396178D01*
X81711371Y-6802348D01*
X81869851Y-7184951D01*
X82099927Y-7529285D01*
X82392759Y-7822117D01*
X82655389Y-7997600D01*
X49520454Y-7997600D01*
X49589190Y-7960860D01*
X49743896Y-7833896D01*
X49775712Y-7795128D01*
X51474841Y-6096000D01*
X54824160Y-6096000D01*
X55761292Y-7033133D01*
X55793104Y-7071896D01*
X55947810Y-7198860D01*
X56124313Y-7293202D01*
X56315829Y-7351298D01*
X56465098Y-7366000D01*
X56465105Y-7366000D01*
X56514999Y-7370914D01*
X56564893Y-7366000D01*
X67895098Y-7366000D01*
X67945000Y-7370915D01*
X67994902Y-7366000D01*
X68144171Y-7351298D01*
X68335687Y-7293202D01*
X68512190Y-7198860D01*
X68666896Y-7071896D01*
X68698712Y-7033128D01*
X69723133Y-6008708D01*
X69761896Y-5976896D01*
X69888860Y-5822190D01*
X69983202Y-5645687D01*
X70041298Y-5454171D01*
X70056000Y-5304902D01*
X70056000Y-5304901D01*
X70060915Y-5255000D01*
X70056000Y-5205098D01*
X70056000Y-5097528D01*
X70082252Y-5079987D01*
X70309987Y-4852252D01*
X70488918Y-4584463D01*
X70612168Y-4286912D01*
X70675000Y-3971033D01*
X70675000Y-3648967D01*
X70612168Y-3333088D01*
X70488918Y-3035537D01*
X70364502Y-2849335D01*
X71105000Y-2849335D01*
X71105000Y-4770664D01*
X71122870Y-4952101D01*
X71193489Y-5184900D01*
X71308167Y-5399448D01*
X71462498Y-5587502D01*
X71650551Y-5741833D01*
X71865099Y-5856511D01*
X72097898Y-5927130D01*
X72340000Y-5950975D01*
X72582101Y-5927130D01*
X72814900Y-5856511D01*
X73029448Y-5741833D01*
X73217502Y-5587502D01*
X73371833Y-5399449D01*
X73486511Y-5184901D01*
X73557130Y-4952102D01*
X73575000Y-4770665D01*
X73575000Y-2849335D01*
X73557130Y-2667898D01*
X73486511Y-2435099D01*
X73371833Y-2220551D01*
X73217502Y-2032498D01*
X73029449Y-1878167D01*
X72814901Y-1763489D01*
X72582102Y-1692870D01*
X72340000Y-1669025D01*
X72097899Y-1692870D01*
X71865100Y-1763489D01*
X71650552Y-1878167D01*
X71462499Y-2032498D01*
X71308168Y-2220551D01*
X71193490Y-2435099D01*
X71122871Y-2667898D01*
X71105000Y-2849335D01*
X70364502Y-2849335D01*
X70309987Y-2767748D01*
X70082252Y-2540013D01*
X69814463Y-2361082D01*
X69516912Y-2237832D01*
X69201033Y-2175000D01*
X68878967Y-2175000D01*
X68563088Y-2237832D01*
X68265537Y-2361082D01*
X67997748Y-2540013D01*
X67770013Y-2767748D01*
X67591082Y-3035537D01*
X67530929Y-3180758D01*
X67481298Y-3060937D01*
X67302367Y-2793148D01*
X67074632Y-2565413D01*
X66806843Y-2386482D01*
X66509292Y-2263232D01*
X66193413Y-2200400D01*
X65871347Y-2200400D01*
X65555468Y-2263232D01*
X65257917Y-2386482D01*
X64990128Y-2565413D01*
X64762393Y-2793148D01*
X64583462Y-3060937D01*
X64541451Y-3162361D01*
X64488918Y-3035537D01*
X64309987Y-2767748D01*
X64082252Y-2540013D01*
X63814463Y-2361082D01*
X63516912Y-2237832D01*
X63201033Y-2175000D01*
X62878967Y-2175000D01*
X62563088Y-2237832D01*
X62265537Y-2361082D01*
X61997748Y-2540013D01*
X61770013Y-2767748D01*
X61591082Y-3035537D01*
X61467832Y-3333088D01*
X61405000Y-3648967D01*
X61405000Y-3971033D01*
X61467832Y-4286912D01*
X61591082Y-4584463D01*
X61770013Y-4852252D01*
X61997748Y-5079987D01*
X62265537Y-5258918D01*
X62446800Y-5334000D01*
X60806816Y-5334000D01*
X60886511Y-5184901D01*
X60957130Y-4952102D01*
X60975000Y-4770665D01*
X60975000Y-2849335D01*
X60957130Y-2667898D01*
X60886511Y-2435099D01*
X60771833Y-2220551D01*
X60617502Y-2032498D01*
X60429449Y-1878167D01*
X60214901Y-1763489D01*
X59982102Y-1692870D01*
X59740000Y-1669025D01*
X59497899Y-1692870D01*
X59265100Y-1763489D01*
X59050552Y-1878167D01*
X58862499Y-2032498D01*
X58708168Y-2220551D01*
X58593490Y-2435099D01*
X58522871Y-2667898D01*
X58505000Y-2849335D01*
X58505000Y-4770664D01*
X58522870Y-4952101D01*
X58593489Y-5184900D01*
X58673184Y-5334000D01*
X56935841Y-5334000D01*
X56261000Y-4659160D01*
X56261000Y-2924072D01*
X56385482Y-2911812D01*
X56505180Y-2875502D01*
X56615494Y-2816537D01*
X56712185Y-2737185D01*
X56791537Y-2640494D01*
X56850502Y-2530180D01*
X56886812Y-2410482D01*
X56899072Y-2286000D01*
X56899072Y-254000D01*
X56886812Y-129518D01*
X56850502Y-9820D01*
X56791537Y100494D01*
X56712185Y197185D01*
X56615494Y276537D01*
X56507892Y334052D01*
X57833133Y1659292D01*
X57871896Y1691104D01*
X57998860Y1845810D01*
X58093202Y2022313D01*
X58151298Y2213829D01*
X58166000Y2363098D01*
X58166000Y2363099D01*
X58170915Y2413000D01*
X58166000Y2462902D01*
X58166000Y4958370D01*
X58272958Y4886903D01*
X58573421Y4762447D01*
X58892391Y4699000D01*
X59217609Y4699000D01*
X59536579Y4762447D01*
X59837042Y4886903D01*
X60029296Y5015364D01*
X60048463Y4979506D01*
X60127815Y4882815D01*
X60224506Y4803463D01*
X60334820Y4744498D01*
X60454518Y4708188D01*
X60579000Y4695928D01*
X62611000Y4695928D01*
X62735482Y4708188D01*
X62855180Y4744498D01*
X62965494Y4803463D01*
X63062185Y4882815D01*
X63141537Y4979506D01*
X63200502Y5089820D01*
X63236812Y5209518D01*
X63249072Y5334000D01*
X64766509Y5334000D01*
X64677905Y5297299D01*
X64426495Y5129312D01*
X64212688Y4915505D01*
X64044701Y4664095D01*
X63928989Y4384743D01*
X63870000Y4088184D01*
X63870000Y3785816D01*
X63928989Y3489257D01*
X64044701Y3209905D01*
X64212688Y2958495D01*
X64426495Y2744688D01*
X64677905Y2576701D01*
X64957257Y2460989D01*
X65253816Y2402000D01*
X65556184Y2402000D01*
X65852743Y2460989D01*
X66132095Y2576701D01*
X66383505Y2744688D01*
X66559817Y2921000D01*
X77547098Y2921000D01*
X77597000Y2916085D01*
X77646902Y2921000D01*
X77796171Y2935702D01*
X77987687Y2993798D01*
X78164190Y3088140D01*
X78318896Y3215104D01*
X78350712Y3253872D01*
X78534393Y3437553D01*
X78577391Y3429000D01*
X78902609Y3429000D01*
X79221579Y3492447D01*
X79522042Y3616903D01*
X79792451Y3797585D01*
X80022415Y4027549D01*
X80203097Y4297958D01*
X80327553Y4598421D01*
X80391000Y4917391D01*
X80391000Y5242609D01*
X80327553Y5561579D01*
X80203097Y5862042D01*
X80022415Y6132451D01*
X79792451Y6362415D01*
X79756000Y6386771D01*
X79756000Y11393229D01*
X79792451Y11417585D01*
X80022415Y11647549D01*
X80203097Y11917958D01*
X80327553Y12218421D01*
X80391000Y12537391D01*
X80391000Y12862609D01*
X80327553Y13181579D01*
X80203097Y13482042D01*
X80022415Y13752451D01*
X79792451Y13982415D01*
X79522042Y14163097D01*
X79221579Y14287553D01*
X78902609Y14351000D01*
X78577391Y14351000D01*
X78258421Y14287553D01*
X77957958Y14163097D01*
X77687549Y13982415D01*
X77457585Y13752451D01*
X77276903Y13482042D01*
X77152447Y13181579D01*
X77089000Y12862609D01*
X77089000Y12537391D01*
X77152447Y12218421D01*
X77276903Y11917958D01*
X77457585Y11647549D01*
X77687549Y11417585D01*
X77724001Y11393229D01*
X77724000Y6386771D01*
X77687549Y6362415D01*
X77457585Y6132451D01*
X77276903Y5862042D01*
X77152447Y5561579D01*
X77089000Y5242609D01*
X77089000Y4953000D01*
X66559817Y4953000D01*
X66383505Y5129312D01*
X66132095Y5297299D01*
X65852743Y5413011D01*
X65819633Y5419597D01*
X65972190Y5501140D01*
X66126896Y5628104D01*
X66158712Y5666872D01*
X67580908Y7089068D01*
X67609498Y6994820D01*
X67668463Y6884506D01*
X67747815Y6787815D01*
X67844506Y6708463D01*
X67954820Y6649498D01*
X68074518Y6613188D01*
X68199000Y6600928D01*
X70231000Y6600928D01*
X70355482Y6613188D01*
X70475180Y6649498D01*
X70585494Y6708463D01*
X70682185Y6787815D01*
X70761537Y6884506D01*
X70820502Y6994820D01*
X70824532Y7008104D01*
X70885478Y6842140D01*
X71177821Y6699652D01*
X71492344Y6616936D01*
X71816962Y6597169D01*
X72139198Y6641112D01*
X72446670Y6747076D01*
X72624522Y6842140D01*
X72722218Y7108177D01*
X71755000Y8075395D01*
X71740858Y8061252D01*
X71561253Y8240857D01*
X71575395Y8255000D01*
X71934605Y8255000D01*
X72901823Y7287782D01*
X73167860Y7385478D01*
X73310348Y7677821D01*
X73393064Y7992344D01*
X73412831Y8316962D01*
X73368888Y8639198D01*
X73262924Y8946670D01*
X73167860Y9124522D01*
X72901823Y9222218D01*
X71934605Y8255000D01*
X71575395Y8255000D01*
X71561253Y8269142D01*
X71740858Y8448747D01*
X71755000Y8434605D01*
X72722218Y9401823D01*
X72624522Y9667860D01*
X72332179Y9810348D01*
X72017656Y9893064D01*
X71693038Y9912831D01*
X71370802Y9868888D01*
X71063330Y9762924D01*
X70885478Y9667860D01*
X70824532Y9501896D01*
X70820502Y9515180D01*
X70761537Y9625494D01*
X70682185Y9722185D01*
X70585494Y9801537D01*
X70475180Y9860502D01*
X70355482Y9896812D01*
X70231000Y9909072D01*
X70231000Y11644160D01*
X70533127Y11946287D01*
X70571896Y11978104D01*
X70698860Y12132810D01*
X70793202Y12309313D01*
X70851298Y12500829D01*
X70866000Y12650098D01*
X70866000Y12650099D01*
X70870915Y12700000D01*
X70866000Y12749902D01*
X70866000Y14821638D01*
X70900290Y14821638D01*
X71024772Y14833898D01*
X71144470Y14870208D01*
X71254784Y14929173D01*
X71351475Y15008525D01*
X71430827Y15105216D01*
X71489792Y15215530D01*
X71526102Y15335228D01*
X71538362Y15459710D01*
X71538362Y15494000D01*
X72340098Y15494000D01*
X72390000Y15489085D01*
X72439902Y15494000D01*
X72589171Y15508702D01*
X72780687Y15566798D01*
X72957190Y15661140D01*
X73111896Y15788104D01*
X73143712Y15826872D01*
X74080841Y16764000D01*
X78422184Y16764000D01*
X78546074Y16578587D01*
X78808587Y16316074D01*
X79117269Y16109818D01*
X79460259Y15967747D01*
X79824375Y15895320D01*
X80195625Y15895320D01*
X80559741Y15967747D01*
X80902731Y16109818D01*
X81211413Y16316074D01*
X81473926Y16578587D01*
X81556297Y16701863D01*
X82804000Y15454159D01*
X82804001Y14006771D01*
X82767549Y13982415D01*
X82537585Y13752451D01*
X82356903Y13482042D01*
X82232447Y13181579D01*
X82169000Y12862609D01*
X82169000Y12537391D01*
X82232447Y12218421D01*
X82356903Y11917958D01*
X82537585Y11647549D01*
X82767549Y11417585D01*
X82804000Y11393229D01*
X82804001Y6386771D01*
X82767549Y6362415D01*
X82537585Y6132451D01*
X82356903Y5862042D01*
X82232447Y5561579D01*
X82169000Y5242609D01*
X82169000Y4917391D01*
X82232447Y4598421D01*
X82356903Y4297958D01*
X82537585Y4027549D01*
X82767549Y3797585D01*
X83037958Y3616903D01*
X83338421Y3492447D01*
X83657391Y3429000D01*
X83982609Y3429000D01*
X84301579Y3492447D01*
X84602042Y3616903D01*
X84872451Y3797585D01*
X85102415Y4027549D01*
X85283097Y4297958D01*
X85407553Y4598421D01*
X85471000Y4917391D01*
X85471000Y5242609D01*
X85407553Y5561579D01*
X85283097Y5862042D01*
X85102415Y6132451D01*
X84872451Y6362415D01*
X84836000Y6386771D01*
X84836000Y11393229D01*
X84872451Y11417585D01*
X85102415Y11647549D01*
X85283097Y11917958D01*
X85407553Y12218421D01*
X85471000Y12537391D01*
X85471000Y12862609D01*
X85407553Y13181579D01*
X85283097Y13482042D01*
X85102415Y13752451D01*
X84872451Y13982415D01*
X84836000Y14006771D01*
X84836000Y15825098D01*
X84840915Y15875000D01*
X84821298Y16074171D01*
X84763202Y16265687D01*
X84736270Y16316074D01*
X84668860Y16442190D01*
X84541896Y16596896D01*
X84503133Y16628708D01*
X82668712Y18463128D01*
X82636896Y18501896D01*
X82482190Y18628860D01*
X82305687Y18723202D01*
X82114171Y18781298D01*
X81964902Y18796000D01*
X81915000Y18800915D01*
X81865098Y18796000D01*
X81597816Y18796000D01*
X81473926Y18981413D01*
X81211413Y19243926D01*
X80902731Y19450182D01*
X80559741Y19592253D01*
X80195625Y19664680D01*
X79824375Y19664680D01*
X79460259Y19592253D01*
X79117269Y19450182D01*
X78808587Y19243926D01*
X78546074Y18981413D01*
X78422184Y18796000D01*
X73709893Y18796000D01*
X73659999Y18800914D01*
X73610105Y18796000D01*
X73610098Y18796000D01*
X73460829Y18781298D01*
X73269313Y18723202D01*
X73092810Y18628860D01*
X72938104Y18501896D01*
X72906292Y18463133D01*
X71969160Y17526000D01*
X71538362Y17526000D01*
X71538362Y17560290D01*
X71526102Y17684772D01*
X71489792Y17804470D01*
X71430827Y17914784D01*
X71351475Y18011475D01*
X71254784Y18090827D01*
X71193702Y18123477D01*
X71290815Y18160167D01*
X71436728Y18458354D01*
X71521664Y18779277D01*
X71542359Y19110604D01*
X71498018Y19439602D01*
X71390344Y19753629D01*
X71290815Y19939833D01*
X71021273Y20041668D01*
X70029605Y19050000D01*
X70043748Y19035857D01*
X69864143Y18856252D01*
X69850000Y18870395D01*
X69835858Y18856252D01*
X69656253Y19035857D01*
X69670395Y19050000D01*
X68678727Y20041668D01*
X68409185Y19939833D01*
X68263272Y19641646D01*
X68178336Y19320723D01*
X68157641Y18989396D01*
X68201982Y18660398D01*
X68309656Y18346371D01*
X68409185Y18160167D01*
X68506298Y18123477D01*
X68445216Y18090827D01*
X68348525Y18011475D01*
X68269173Y17914784D01*
X68210208Y17804470D01*
X68181618Y17710222D01*
X67056000Y18835840D01*
X67056000Y19762099D01*
X67060915Y19812001D01*
X67041298Y20011171D01*
X67032047Y20041668D01*
X66983202Y20202687D01*
X66888860Y20379190D01*
X66761896Y20533896D01*
X66723133Y20565708D01*
X64127892Y23160948D01*
X64235494Y23218463D01*
X64332185Y23297815D01*
X64411537Y23394506D01*
X64430704Y23430364D01*
X64622958Y23301903D01*
X64923421Y23177447D01*
X65242391Y23114000D01*
X65567609Y23114000D01*
X65886579Y23177447D01*
X66187042Y23301903D01*
X66457451Y23482585D01*
X66687415Y23712549D01*
X66868097Y23982958D01*
X66992553Y24283421D01*
X67056000Y24602391D01*
X67056000Y24927609D01*
X67047447Y24970607D01*
X67485133Y25408292D01*
X67523896Y25440104D01*
X67564000Y25488971D01*
X67564000Y25195902D01*
X67559085Y25146000D01*
X67564000Y25096099D01*
X67578702Y24946830D01*
X67636798Y24755314D01*
X67731140Y24578810D01*
X67858104Y24424104D01*
X67896872Y24392288D01*
X68834001Y23455158D01*
X68834001Y22938012D01*
X68775690Y22899050D01*
X68540950Y22664310D01*
X68356516Y22388284D01*
X68229475Y22081581D01*
X68164710Y21755987D01*
X68164710Y21424013D01*
X68229475Y21098419D01*
X68356516Y20791716D01*
X68540950Y20515690D01*
X68775690Y20280950D01*
X68859677Y20224832D01*
X68858332Y20221273D01*
X69850000Y19229605D01*
X70841668Y20221273D01*
X70840323Y20224832D01*
X70924310Y20280950D01*
X71159050Y20515690D01*
X71343484Y20791716D01*
X71470525Y21098419D01*
X71535290Y21424013D01*
X71535290Y21755987D01*
X71470525Y22081581D01*
X71343484Y22388284D01*
X71159050Y22664310D01*
X70924310Y22899050D01*
X70866000Y22938011D01*
X70866000Y23045625D01*
X78125320Y23045625D01*
X78125320Y22674375D01*
X78197747Y22310259D01*
X78339818Y21967269D01*
X78546074Y21658587D01*
X78808587Y21396074D01*
X79117269Y21189818D01*
X79460259Y21047747D01*
X79824375Y20975320D01*
X80195625Y20975320D01*
X80559741Y21047747D01*
X80902731Y21189818D01*
X81211413Y21396074D01*
X81473926Y21658587D01*
X81680182Y21967269D01*
X81822253Y22310259D01*
X81894680Y22674375D01*
X81894680Y23045625D01*
X81822253Y23409741D01*
X81680182Y23752731D01*
X81473926Y24061413D01*
X81211413Y24323926D01*
X80902731Y24530182D01*
X80559741Y24672253D01*
X80195625Y24744680D01*
X79824375Y24744680D01*
X79460259Y24672253D01*
X79117269Y24530182D01*
X78808587Y24323926D01*
X78546074Y24061413D01*
X78339818Y23752731D01*
X78197747Y23409741D01*
X78125320Y23045625D01*
X70866000Y23045625D01*
X70866000Y23826107D01*
X70870914Y23876001D01*
X70866000Y23925895D01*
X70866000Y23925902D01*
X70851298Y24075171D01*
X70793202Y24266687D01*
X70698860Y24443190D01*
X70571896Y24597896D01*
X70533133Y24629708D01*
X69596000Y25566840D01*
X69596000Y26690320D01*
X78122248Y26690320D01*
X78134508Y26565838D01*
X78170818Y26446140D01*
X78229783Y26335826D01*
X78309135Y26239135D01*
X78405826Y26159783D01*
X78516140Y26100818D01*
X78635838Y26064508D01*
X78760320Y26052248D01*
X79724250Y26055320D01*
X79883000Y26214070D01*
X79883000Y27813000D01*
X80137000Y27813000D01*
X80137000Y26214070D01*
X80295750Y26055320D01*
X81259680Y26052248D01*
X81384162Y26064508D01*
X81503860Y26100818D01*
X81614174Y26159783D01*
X81710865Y26239135D01*
X81790217Y26335826D01*
X81849182Y26446140D01*
X81885492Y26565838D01*
X81897752Y26690320D01*
X81894680Y27654250D01*
X81735930Y27813000D01*
X80137000Y27813000D01*
X79883000Y27813000D01*
X78284070Y27813000D01*
X78125320Y27654250D01*
X78122248Y26690320D01*
X69596000Y26690320D01*
X69596000Y29189680D01*
X78122248Y29189680D01*
X78125320Y28225750D01*
X78284070Y28067000D01*
X79883000Y28067000D01*
X79883000Y29665930D01*
X80137000Y29665930D01*
X80137000Y28067000D01*
X81735930Y28067000D01*
X81894680Y28225750D01*
X81897752Y29189680D01*
X81885492Y29314162D01*
X81849182Y29433860D01*
X81790217Y29544174D01*
X81710865Y29640865D01*
X81614174Y29720217D01*
X81503860Y29779182D01*
X81384162Y29815492D01*
X81259680Y29827752D01*
X80295750Y29824680D01*
X80137000Y29665930D01*
X79883000Y29665930D01*
X79724250Y29824680D01*
X78760320Y29827752D01*
X78635838Y29815492D01*
X78516140Y29779182D01*
X78405826Y29720217D01*
X78309135Y29640865D01*
X78229783Y29544174D01*
X78170818Y29433860D01*
X78134508Y29314162D01*
X78122248Y29189680D01*
X69596000Y29189680D01*
X69596000Y29460928D01*
X69720482Y29473188D01*
X69840180Y29509498D01*
X69950494Y29568463D01*
X70047185Y29647815D01*
X70126537Y29744506D01*
X70185502Y29854820D01*
X70189532Y29868104D01*
X70250478Y29702140D01*
X70542821Y29559652D01*
X70857344Y29476936D01*
X71181962Y29457169D01*
X71504198Y29501112D01*
X71811670Y29607076D01*
X71989522Y29702140D01*
X72087218Y29968177D01*
X71120000Y30935395D01*
X71105858Y30921252D01*
X70926253Y31100857D01*
X70940395Y31115000D01*
X71299605Y31115000D01*
X72266823Y30147782D01*
X72532860Y30245478D01*
X72675348Y30537821D01*
X72758064Y30852344D01*
X72777831Y31176962D01*
X72733888Y31499198D01*
X72627924Y31806670D01*
X72532860Y31984522D01*
X72266823Y32082218D01*
X71299605Y31115000D01*
X70940395Y31115000D01*
X70926253Y31129142D01*
X71105858Y31308747D01*
X71120000Y31294605D01*
X72087218Y32261823D01*
X71989522Y32527860D01*
X71697179Y32670348D01*
X71382656Y32753064D01*
X71058038Y32772831D01*
X70735802Y32728888D01*
X70428330Y32622924D01*
X70250478Y32527860D01*
X70189532Y32361896D01*
X70185502Y32375180D01*
X70126537Y32485494D01*
X70047185Y32582185D01*
X69950494Y32661537D01*
X69840180Y32720502D01*
X69720482Y32756812D01*
X69596000Y32769072D01*
X67987912Y32769072D01*
X70533133Y35314292D01*
X70571896Y35346104D01*
X70698860Y35500810D01*
X70769073Y35632171D01*
X70793202Y35677312D01*
X70851298Y35868829D01*
X70870915Y36068000D01*
X70866000Y36117902D01*
X70866000Y36423600D01*
X80895928Y36423600D01*
X80895928Y34696400D01*
X80908188Y34571918D01*
X80944498Y34452220D01*
X81003463Y34341906D01*
X81082815Y34245215D01*
X81179506Y34165863D01*
X81289820Y34106898D01*
X81409518Y34070588D01*
X81534000Y34058328D01*
X83566000Y34058328D01*
X83690482Y34070588D01*
X83810180Y34106898D01*
X83920494Y34165863D01*
X84017185Y34245215D01*
X84096537Y34341906D01*
X84155502Y34452220D01*
X84191812Y34571918D01*
X84204072Y34696400D01*
X84204072Y36423600D01*
X84191812Y36548082D01*
X84155502Y36667780D01*
X84096537Y36778094D01*
X84017185Y36874785D01*
X83920494Y36954137D01*
X83810180Y37013102D01*
X83748088Y37031937D01*
X83900733Y37197965D01*
X84053686Y37449081D01*
X84154709Y37725211D01*
X84157358Y37740974D01*
X84036217Y37973000D01*
X82677000Y37973000D01*
X82677000Y37953000D01*
X82423000Y37953000D01*
X82423000Y37973000D01*
X81063783Y37973000D01*
X80942642Y37740974D01*
X80945291Y37725211D01*
X81046314Y37449081D01*
X81199267Y37197965D01*
X81351912Y37031937D01*
X81289820Y37013102D01*
X81179506Y36954137D01*
X81082815Y36874785D01*
X81003463Y36778094D01*
X80944498Y36667780D01*
X80908188Y36548082D01*
X80895928Y36423600D01*
X70866000Y36423600D01*
X70866000Y38063229D01*
X70902451Y38087585D01*
X71132415Y38317549D01*
X71313097Y38587958D01*
X71437553Y38888421D01*
X71501000Y39207391D01*
X71501000Y39532609D01*
X71437553Y39851579D01*
X71313097Y40152042D01*
X71132415Y40422451D01*
X70902451Y40652415D01*
X70632042Y40833097D01*
X70331707Y40957500D01*
X70632042Y41081903D01*
X70902451Y41262585D01*
X71132415Y41492549D01*
X71313097Y41762958D01*
X71437553Y42063421D01*
X71501000Y42382391D01*
X71501000Y42707609D01*
X71437553Y43026579D01*
X71313097Y43327042D01*
X71132415Y43597451D01*
X70902451Y43827415D01*
X70632042Y44008097D01*
X70331707Y44132500D01*
X70632042Y44256903D01*
X70902451Y44437585D01*
X71132415Y44667549D01*
X71313097Y44937958D01*
X71437553Y45238421D01*
X71501000Y45557391D01*
X71501000Y45882609D01*
X71437553Y46201579D01*
X71313097Y46502042D01*
X71132415Y46772451D01*
X70902451Y47002415D01*
X70632042Y47183097D01*
X70331707Y47307500D01*
X70632042Y47431903D01*
X70902451Y47612585D01*
X71132415Y47842549D01*
X71313097Y48112958D01*
X71437553Y48413421D01*
X71501000Y48732391D01*
X71501000Y49057609D01*
X75819000Y49057609D01*
X75819000Y48732391D01*
X75882447Y48413421D01*
X76006903Y48112958D01*
X76187585Y47842549D01*
X76417549Y47612585D01*
X76454001Y47588229D01*
X76454000Y47026771D01*
X76417549Y47002415D01*
X76187585Y46772451D01*
X76006903Y46502042D01*
X75882447Y46201579D01*
X75819000Y45882609D01*
X75819000Y45557391D01*
X75882447Y45238421D01*
X76006903Y44937958D01*
X76187585Y44667549D01*
X76417549Y44437585D01*
X76454001Y44413229D01*
X76454000Y43851771D01*
X76417549Y43827415D01*
X76187585Y43597451D01*
X76006903Y43327042D01*
X75882447Y43026579D01*
X75819000Y42707609D01*
X75819000Y42382391D01*
X75882447Y42063421D01*
X76006903Y41762958D01*
X76187585Y41492549D01*
X76417549Y41262585D01*
X76454001Y41238229D01*
X76454000Y40676771D01*
X76417549Y40652415D01*
X76187585Y40422451D01*
X76006903Y40152042D01*
X75882447Y39851579D01*
X75819000Y39532609D01*
X75819000Y39207391D01*
X75882447Y38888421D01*
X76006903Y38587958D01*
X76187585Y38317549D01*
X76417549Y38087585D01*
X76687958Y37906903D01*
X76988421Y37782447D01*
X77307391Y37719000D01*
X77632609Y37719000D01*
X77951579Y37782447D01*
X78252042Y37906903D01*
X78522451Y38087585D01*
X78752415Y38317549D01*
X78846947Y38459026D01*
X80942642Y38459026D01*
X81063783Y38227000D01*
X82423000Y38227000D01*
X82423000Y39440925D01*
X82677000Y39440925D01*
X82677000Y38227000D01*
X84036217Y38227000D01*
X84157358Y38459026D01*
X84154709Y38474789D01*
X84053686Y38750919D01*
X83900733Y39002035D01*
X83701729Y39218486D01*
X83464321Y39391954D01*
X83197633Y39515773D01*
X82911914Y39585185D01*
X82677000Y39440925D01*
X82423000Y39440925D01*
X82188086Y39585185D01*
X81902367Y39515773D01*
X81635679Y39391954D01*
X81398271Y39218486D01*
X81199267Y39002035D01*
X81046314Y38750919D01*
X80945291Y38474789D01*
X80942642Y38459026D01*
X78846947Y38459026D01*
X78933097Y38587958D01*
X79057553Y38888421D01*
X79121000Y39207391D01*
X79121000Y39532609D01*
X79057553Y39851579D01*
X78933097Y40152042D01*
X78752415Y40422451D01*
X78522451Y40652415D01*
X78486000Y40676771D01*
X78486000Y41238229D01*
X78522451Y41262585D01*
X78752415Y41492549D01*
X78933097Y41762958D01*
X79057553Y42063421D01*
X79121000Y42382391D01*
X79121000Y42707609D01*
X79109642Y42764710D01*
X80861638Y42764710D01*
X80873898Y42640228D01*
X80910208Y42520530D01*
X80969173Y42410216D01*
X81048525Y42313525D01*
X81145216Y42234173D01*
X81255530Y42175208D01*
X81375228Y42138898D01*
X81499710Y42126638D01*
X82264250Y42129710D01*
X82423000Y42288460D01*
X82423000Y43688000D01*
X82677000Y43688000D01*
X82677000Y42288460D01*
X82835750Y42129710D01*
X83600290Y42126638D01*
X83724772Y42138898D01*
X83844470Y42175208D01*
X83954784Y42234173D01*
X84051475Y42313525D01*
X84130827Y42410216D01*
X84189792Y42520530D01*
X84226102Y42640228D01*
X84238362Y42764710D01*
X84235290Y43529250D01*
X84076540Y43688000D01*
X82677000Y43688000D01*
X82423000Y43688000D01*
X81023460Y43688000D01*
X80864710Y43529250D01*
X80861638Y42764710D01*
X79109642Y42764710D01*
X79057553Y43026579D01*
X78933097Y43327042D01*
X78752415Y43597451D01*
X78522451Y43827415D01*
X78486000Y43851771D01*
X78486000Y44413229D01*
X78522451Y44437585D01*
X78752415Y44667549D01*
X78933097Y44937958D01*
X79057553Y45238421D01*
X79121000Y45557391D01*
X79121000Y45882609D01*
X79057553Y46201579D01*
X78933097Y46502042D01*
X78752415Y46772451D01*
X78522451Y47002415D01*
X78486000Y47026771D01*
X78486000Y47588229D01*
X78522451Y47612585D01*
X78752415Y47842549D01*
X78933097Y48112958D01*
X79057553Y48413421D01*
X79121000Y48732391D01*
X79121000Y49057609D01*
X79057553Y49376579D01*
X78933097Y49677042D01*
X78752415Y49947451D01*
X78522451Y50177415D01*
X78252042Y50358097D01*
X77951579Y50482553D01*
X77632609Y50546000D01*
X77307391Y50546000D01*
X76988421Y50482553D01*
X76687958Y50358097D01*
X76417549Y50177415D01*
X76187585Y49947451D01*
X76006903Y49677042D01*
X75882447Y49376579D01*
X75819000Y49057609D01*
X71501000Y49057609D01*
X71437553Y49376579D01*
X71313097Y49677042D01*
X71132415Y49947451D01*
X70902451Y50177415D01*
X70632042Y50358097D01*
X70331579Y50482553D01*
X70012609Y50546000D01*
X69687391Y50546000D01*
X69368421Y50482553D01*
X69067958Y50358097D01*
X68797549Y50177415D01*
X68567585Y49947451D01*
X68386903Y49677042D01*
X68262447Y49376579D01*
X68199000Y49057609D01*
X68199000Y48732391D01*
X68262447Y48413421D01*
X68386903Y48112958D01*
X68567585Y47842549D01*
X68797549Y47612585D01*
X69067958Y47431903D01*
X69368293Y47307500D01*
X69067958Y47183097D01*
X68797549Y47002415D01*
X68567585Y46772451D01*
X68386903Y46502042D01*
X68262447Y46201579D01*
X68199000Y45882609D01*
X68199000Y45557391D01*
X68262447Y45238421D01*
X68386903Y44937958D01*
X68567585Y44667549D01*
X68797549Y44437585D01*
X69067958Y44256903D01*
X69368293Y44132500D01*
X69067958Y44008097D01*
X68797549Y43827415D01*
X68567585Y43597451D01*
X68386903Y43327042D01*
X68262447Y43026579D01*
X68199000Y42707609D01*
X68199000Y42382391D01*
X68262447Y42063421D01*
X68386903Y41762958D01*
X68567585Y41492549D01*
X68797549Y41262585D01*
X69067958Y41081903D01*
X69368293Y40957500D01*
X69067958Y40833097D01*
X68797549Y40652415D01*
X68567585Y40422451D01*
X68386903Y40152042D01*
X68262447Y39851579D01*
X68199000Y39532609D01*
X68199000Y39207391D01*
X68262447Y38888421D01*
X68386903Y38587958D01*
X68567585Y38317549D01*
X68797549Y38087585D01*
X68834001Y38063229D01*
X68834000Y36488841D01*
X66118868Y33773708D01*
X66080105Y33741896D01*
X65953141Y33587190D01*
X65923547Y33531823D01*
X65858799Y33410687D01*
X65800702Y33219170D01*
X65781085Y33020000D01*
X65786001Y32970088D01*
X65786000Y26582841D01*
X65610607Y26407447D01*
X65567609Y26416000D01*
X65242391Y26416000D01*
X64923421Y26352553D01*
X64622958Y26228097D01*
X64430704Y26099636D01*
X64411537Y26135494D01*
X64332185Y26232185D01*
X64235494Y26311537D01*
X64125180Y26370502D01*
X64005482Y26406812D01*
X63881000Y26419072D01*
X63881000Y29043160D01*
X64691133Y29853292D01*
X64729896Y29885104D01*
X64856860Y30039810D01*
X64951202Y30216313D01*
X65009298Y30407829D01*
X65024000Y30557098D01*
X65024000Y30557099D01*
X65028915Y30606999D01*
X65024000Y30656901D01*
X65024000Y52781066D01*
X68702085Y52781066D01*
X68707000Y52731164D01*
X68707000Y52147098D01*
X68721702Y51997829D01*
X68779799Y51806313D01*
X68874141Y51629810D01*
X69001105Y51475104D01*
X69155811Y51348140D01*
X69332314Y51253798D01*
X69523830Y51195702D01*
X69723000Y51176085D01*
X69922171Y51195702D01*
X70113687Y51253798D01*
X70290190Y51348140D01*
X70444896Y51475104D01*
X70571860Y51629810D01*
X70666202Y51806313D01*
X70724298Y51997830D01*
X70726230Y52017446D01*
X70729313Y52015798D01*
X70920829Y51957702D01*
X71070098Y51943000D01*
X78192160Y51943000D01*
X79009365Y51125794D01*
X79009371Y51125789D01*
X79383287Y50751873D01*
X79415104Y50713104D01*
X79569810Y50586140D01*
X79695227Y50519104D01*
X79746312Y50491798D01*
X79937829Y50433702D01*
X80137000Y50414085D01*
X80186902Y50419000D01*
X81142419Y50419000D01*
X81202477Y50329117D01*
X81366594Y50165000D01*
X81202477Y50000883D01*
X81012623Y49716745D01*
X80881848Y49401028D01*
X80815180Y49065865D01*
X80815180Y48724135D01*
X80881848Y48388972D01*
X81012623Y48073255D01*
X81202477Y47789117D01*
X81366594Y47625000D01*
X81202477Y47460883D01*
X81012623Y47176745D01*
X80881848Y46861028D01*
X80815180Y46525865D01*
X80815180Y46184135D01*
X80881848Y45848972D01*
X81012623Y45533255D01*
X81118887Y45374219D01*
X81048525Y45316475D01*
X80969173Y45219784D01*
X80910208Y45109470D01*
X80873898Y44989772D01*
X80861638Y44865290D01*
X80864710Y44100750D01*
X81023460Y43942000D01*
X82423000Y43942000D01*
X82423000Y43962000D01*
X82677000Y43962000D01*
X82677000Y43942000D01*
X84076540Y43942000D01*
X84235290Y44100750D01*
X84238362Y44865290D01*
X84226102Y44989772D01*
X84189792Y45109470D01*
X84130827Y45219784D01*
X84051475Y45316475D01*
X83981113Y45374219D01*
X84087377Y45533255D01*
X84218152Y45848972D01*
X84284820Y46184135D01*
X84284820Y46525865D01*
X84218152Y46861028D01*
X84087377Y47176745D01*
X83897523Y47460883D01*
X83733406Y47625000D01*
X83897523Y47789117D01*
X84087377Y48073255D01*
X84218152Y48388972D01*
X84284820Y48724135D01*
X84284820Y49065865D01*
X84218152Y49401028D01*
X84087377Y49716745D01*
X83897523Y50000883D01*
X83733406Y50165000D01*
X83897523Y50329117D01*
X84087377Y50613255D01*
X84218152Y50928972D01*
X84284820Y51264135D01*
X84284820Y51605865D01*
X84218152Y51941028D01*
X84087377Y52256745D01*
X83897523Y52540883D01*
X83733406Y52705000D01*
X83897523Y52869117D01*
X84087377Y53153255D01*
X84218152Y53468972D01*
X84284820Y53804135D01*
X84284820Y54145865D01*
X84218152Y54481028D01*
X84087377Y54796745D01*
X83897523Y55080883D01*
X83733406Y55245000D01*
X83897523Y55409117D01*
X84087377Y55693255D01*
X84218152Y56008972D01*
X84284820Y56344135D01*
X84284820Y56685865D01*
X84218152Y57021028D01*
X84087377Y57336745D01*
X83897523Y57620883D01*
X83655883Y57862523D01*
X83371745Y58052377D01*
X83056028Y58183152D01*
X82720865Y58249820D01*
X82379135Y58249820D01*
X82043972Y58183152D01*
X81728255Y58052377D01*
X81444117Y57862523D01*
X81202477Y57620883D01*
X81012623Y57336745D01*
X80881848Y57021028D01*
X80815180Y56685865D01*
X80815180Y56344135D01*
X80881848Y56008972D01*
X81012623Y55693255D01*
X81202477Y55409117D01*
X81366594Y55245000D01*
X81264027Y55142433D01*
X80732332Y55674128D01*
X80700516Y55712896D01*
X80545810Y55839860D01*
X80369307Y55934202D01*
X80177791Y55992298D01*
X80028522Y56007000D01*
X79978620Y56011915D01*
X79928718Y56007000D01*
X71982836Y56007000D01*
X71932934Y56011915D01*
X71883032Y56007000D01*
X71733763Y55992298D01*
X71542247Y55934202D01*
X71365744Y55839860D01*
X71211038Y55712896D01*
X71179226Y55674133D01*
X69039872Y53534778D01*
X69001104Y53502962D01*
X68874140Y53348256D01*
X68779798Y53171752D01*
X68737344Y53031799D01*
X68721702Y52980236D01*
X68702085Y52781066D01*
X65024000Y52781066D01*
X65024000Y60084730D01*
X65089000Y60078328D01*
X67121000Y60078328D01*
X67245482Y60090588D01*
X67365180Y60126898D01*
X67475494Y60185863D01*
X67572185Y60265215D01*
X67651537Y60361906D01*
X67710502Y60472220D01*
X67746812Y60591918D01*
X67759072Y60716400D01*
X67759072Y62443600D01*
X67746812Y62568082D01*
X67710502Y62687780D01*
X67651537Y62798094D01*
X67572185Y62894785D01*
X67475494Y62974137D01*
X67365180Y63033102D01*
X67314135Y63048586D01*
X67322197Y63055203D01*
X67509469Y63283394D01*
X67648625Y63543736D01*
X67734316Y63826223D01*
X67763251Y64120000D01*
X67734316Y64413777D01*
X67648625Y64696264D01*
X67509469Y64956606D01*
X67322197Y65184797D01*
X67094006Y65372069D01*
X67060460Y65390000D01*
X67094006Y65407931D01*
X67322197Y65595203D01*
X67509469Y65823394D01*
X67648625Y66083736D01*
X67734316Y66366223D01*
X67763251Y66660000D01*
X67734316Y66953777D01*
X67648625Y67236264D01*
X67509469Y67496606D01*
X67322197Y67724797D01*
X67094006Y67912069D01*
X67060460Y67930000D01*
X67094006Y67947931D01*
X67322197Y68135203D01*
X67509469Y68363394D01*
X67648625Y68623736D01*
X67734316Y68906223D01*
X67763251Y69200000D01*
X67734316Y69493777D01*
X67648625Y69776264D01*
X67509469Y70036606D01*
X67322197Y70264797D01*
X67094006Y70452069D01*
X67054053Y70473424D01*
X67256729Y70621514D01*
X67455733Y70837965D01*
X67608686Y71089081D01*
X67709709Y71365211D01*
X67712358Y71380974D01*
X67591217Y71613000D01*
X66232000Y71613000D01*
X66232000Y71593000D01*
X65978000Y71593000D01*
X65978000Y71613000D01*
X64618783Y71613000D01*
X64497642Y71380974D01*
X64500291Y71365211D01*
X64601314Y71089081D01*
X64754267Y70837965D01*
X64953271Y70621514D01*
X65155947Y70473424D01*
X65115994Y70452069D01*
X64963555Y70326965D01*
X64951202Y70367687D01*
X64856860Y70544190D01*
X64729896Y70698896D01*
X64691133Y70730708D01*
X63491712Y71930128D01*
X63459896Y71968896D01*
X63305190Y72095860D01*
X63299267Y72099026D01*
X64497642Y72099026D01*
X64618783Y71867000D01*
X65978000Y71867000D01*
X65978000Y73080925D01*
X66232000Y73080925D01*
X66232000Y71867000D01*
X67591217Y71867000D01*
X67712358Y72099026D01*
X67709709Y72114789D01*
X67608686Y72390919D01*
X67455733Y72642035D01*
X67256729Y72858486D01*
X67019321Y73031954D01*
X66752633Y73155773D01*
X66466914Y73225185D01*
X66232000Y73080925D01*
X65978000Y73080925D01*
X65743086Y73225185D01*
X65457367Y73155773D01*
X65190679Y73031954D01*
X64953271Y72858486D01*
X64754267Y72642035D01*
X64601314Y72390919D01*
X64500291Y72114789D01*
X64497642Y72099026D01*
X63299267Y72099026D01*
X63128687Y72190202D01*
X62937171Y72248298D01*
X62787902Y72263000D01*
X62738000Y72267915D01*
X62688098Y72263000D01*
X42721902Y72263000D01*
X42672000Y72267915D01*
X42622098Y72263000D01*
X42472829Y72248298D01*
X42281313Y72190202D01*
X42104810Y72095860D01*
X41950104Y71968896D01*
X41918292Y71930133D01*
X40219160Y70231000D01*
X40126701Y70231000D01*
X40071844Y70297844D01*
X39839785Y70488290D01*
X39575031Y70629804D01*
X39287756Y70716948D01*
X39063859Y70739000D01*
X38406141Y70739000D01*
X38182244Y70716948D01*
X37894969Y70629804D01*
X37630215Y70488290D01*
X37398156Y70297844D01*
X37207710Y70065785D01*
X37066196Y69801031D01*
X36979052Y69513756D01*
X36949627Y69215000D01*
X36979052Y68916244D01*
X37066196Y68628969D01*
X37207710Y68364215D01*
X37398156Y68132156D01*
X37626206Y67945000D01*
X37398156Y67757844D01*
X37207710Y67525785D01*
X37066196Y67261031D01*
X36979052Y66973756D01*
X36949627Y66675000D01*
X36979052Y66376244D01*
X37066196Y66088969D01*
X37207710Y65824215D01*
X37398156Y65592156D01*
X37626206Y65405000D01*
X37398156Y65217844D01*
X37207710Y64985785D01*
X37066196Y64721031D01*
X36979052Y64433756D01*
X36949627Y64135000D01*
X36979052Y63836244D01*
X37066196Y63548969D01*
X37207710Y63284215D01*
X37398156Y63052156D01*
X37630215Y62861710D01*
X37634002Y62859686D01*
X37528715Y62791602D01*
X37313567Y62582828D01*
X37143283Y62336092D01*
X37024407Y62060876D01*
X37000866Y61958013D01*
X37121670Y61722000D01*
X38608000Y61722000D01*
X38608000Y61742000D01*
X38862000Y61742000D01*
X38862000Y61722000D01*
X40348330Y61722000D01*
X40469134Y61958013D01*
X40445593Y62060876D01*
X40326717Y62336092D01*
X40156433Y62582828D01*
X39941285Y62791602D01*
X39835998Y62859686D01*
X39839785Y62861710D01*
X40071844Y63052156D01*
X40262290Y63284215D01*
X40403804Y63548969D01*
X40490948Y63836244D01*
X40520373Y64135000D01*
X40490948Y64433756D01*
X40403804Y64721031D01*
X40262290Y64985785D01*
X40071844Y65217844D01*
X39843794Y65405000D01*
X40071844Y65592156D01*
X40262290Y65824215D01*
X40403804Y66088969D01*
X40490948Y66376244D01*
X40520373Y66675000D01*
X40490948Y66973756D01*
X40403804Y67261031D01*
X40262290Y67525785D01*
X40071844Y67757844D01*
X39843794Y67945000D01*
X40071844Y68132156D01*
X40126701Y68199000D01*
X40590098Y68199000D01*
X40640000Y68194085D01*
X40689902Y68199000D01*
X40839171Y68213702D01*
X41030687Y68271798D01*
X41207190Y68366140D01*
X41361896Y68493104D01*
X41393712Y68531872D01*
X43092841Y70231000D01*
X59826952Y70231000D01*
X59826188Y70228482D01*
X59813928Y70104000D01*
X59813928Y68326000D01*
X59826188Y68201518D01*
X59862498Y68081820D01*
X59921463Y67971506D01*
X60000815Y67874815D01*
X60097506Y67795463D01*
X60207820Y67736498D01*
X60239563Y67726869D01*
X60173567Y67662828D01*
X60003283Y67416092D01*
X59884407Y67140876D01*
X59860866Y67038013D01*
X59981670Y66802000D01*
X61468000Y66802000D01*
X61468000Y66822000D01*
X61722000Y66822000D01*
X61722000Y66802000D01*
X61742000Y66802000D01*
X61742000Y66548000D01*
X61722000Y66548000D01*
X61722000Y66528000D01*
X61468000Y66528000D01*
X61468000Y66548000D01*
X59981670Y66548000D01*
X59860866Y66311987D01*
X59884407Y66209124D01*
X60003283Y65933908D01*
X60173567Y65687172D01*
X60388715Y65478398D01*
X60494002Y65410314D01*
X60490215Y65408290D01*
X60258156Y65217844D01*
X60067710Y64985785D01*
X59926196Y64721031D01*
X59839052Y64433756D01*
X59809627Y64135000D01*
X59839052Y63836244D01*
X59926196Y63548969D01*
X60067710Y63284215D01*
X60258156Y63052156D01*
X60486206Y62865000D01*
X60258156Y62677844D01*
X60203299Y62611000D01*
X59612902Y62611000D01*
X59563000Y62615915D01*
X59513098Y62611000D01*
X59363829Y62596298D01*
X59172313Y62538202D01*
X58995810Y62443860D01*
X58841104Y62316896D01*
X58809292Y62278133D01*
X58117872Y61586712D01*
X58079104Y61554896D01*
X57952140Y61400190D01*
X57857798Y61223686D01*
X57829113Y61129124D01*
X57799702Y61032170D01*
X57780085Y60833000D01*
X57785000Y60783098D01*
X57785001Y45958091D01*
X57744860Y46033190D01*
X57658000Y46139029D01*
X57658000Y51484902D01*
X57643298Y51634171D01*
X57585202Y51825687D01*
X57490860Y52002190D01*
X57363896Y52156896D01*
X57209190Y52283860D01*
X57032686Y52378202D01*
X56841170Y52436298D01*
X56642000Y52455915D01*
X56442829Y52436298D01*
X56251313Y52378202D01*
X56074810Y52283860D01*
X55920104Y52156896D01*
X55793140Y52002190D01*
X55698798Y51825686D01*
X55640702Y51634170D01*
X55626000Y51484901D01*
X55626001Y48574318D01*
X55562500Y48580572D01*
X53657500Y48580572D01*
X53533018Y48568312D01*
X53413320Y48532002D01*
X53303006Y48473037D01*
X53206315Y48393685D01*
X53126963Y48296994D01*
X53085549Y48219515D01*
X53081972Y48223092D01*
X52821963Y48396824D01*
X52533057Y48516493D01*
X52226355Y48577500D01*
X51913645Y48577500D01*
X51606943Y48516493D01*
X51318037Y48396824D01*
X51058028Y48223092D01*
X50836908Y48001972D01*
X50663176Y47741963D01*
X50543507Y47453057D01*
X50482500Y47146355D01*
X50482500Y46833645D01*
X50543507Y46526943D01*
X50663176Y46238037D01*
X50836908Y45978028D01*
X51058028Y45756908D01*
X51188961Y45669422D01*
X51148070Y45551535D01*
X52070000Y44629605D01*
X52991930Y45551535D01*
X52951039Y45669422D01*
X53081972Y45756908D01*
X53085549Y45760485D01*
X53126963Y45683006D01*
X53206315Y45586315D01*
X53303006Y45506963D01*
X53413320Y45447998D01*
X53533018Y45411688D01*
X53594001Y45405682D01*
X53594000Y44900813D01*
X53517877Y45119516D01*
X53431081Y45281902D01*
X53171535Y45371930D01*
X52249605Y44450000D01*
X52263748Y44435857D01*
X52084143Y44256252D01*
X52070000Y44270395D01*
X51148070Y43348465D01*
X51162453Y43307000D01*
X49794062Y43307000D01*
X49744160Y43311915D01*
X49694258Y43307000D01*
X49544989Y43292298D01*
X49353473Y43234202D01*
X49176970Y43139860D01*
X49022264Y43012896D01*
X48990454Y42974135D01*
X48211868Y42195548D01*
X48173105Y42163736D01*
X48046141Y42009030D01*
X48029454Y41977810D01*
X47951799Y41832527D01*
X47893702Y41641010D01*
X47874085Y41441840D01*
X47879001Y41391929D01*
X47879001Y41311771D01*
X47842549Y41287415D01*
X47612585Y41057451D01*
X47431903Y40787042D01*
X47307500Y40486707D01*
X47183097Y40787042D01*
X47002415Y41057451D01*
X46772451Y41287415D01*
X46502042Y41468097D01*
X46201579Y41592553D01*
X45886138Y41655298D01*
X47038133Y42807292D01*
X47076896Y42839104D01*
X47203860Y42993810D01*
X47298202Y43170313D01*
X47356298Y43361829D01*
X47371000Y43511098D01*
X47371000Y43511105D01*
X47375914Y43560999D01*
X47371000Y43610893D01*
X47371000Y44385526D01*
X50476123Y44385526D01*
X50519328Y44075815D01*
X50622123Y43780484D01*
X50708919Y43618098D01*
X50968465Y43528070D01*
X51890395Y44450000D01*
X50968465Y45371930D01*
X50708919Y45281902D01*
X50572776Y45000384D01*
X50494171Y44697714D01*
X50476123Y44385526D01*
X47371000Y44385526D01*
X47371000Y45405682D01*
X47431982Y45411688D01*
X47551680Y45447998D01*
X47661994Y45506963D01*
X47758685Y45586315D01*
X47838037Y45683006D01*
X47897002Y45793320D01*
X47933312Y45913018D01*
X47945572Y46037500D01*
X47945572Y47942500D01*
X47933312Y48066982D01*
X47897002Y48186680D01*
X47838037Y48296994D01*
X47758685Y48393685D01*
X47661994Y48473037D01*
X47551680Y48532002D01*
X47431982Y48568312D01*
X47307500Y48580572D01*
X45402500Y48580572D01*
X45278018Y48568312D01*
X45158320Y48532002D01*
X45048006Y48473037D01*
X44951315Y48393685D01*
X44871963Y48296994D01*
X44830549Y48219515D01*
X44826972Y48223092D01*
X44566963Y48396824D01*
X44278057Y48516493D01*
X43971355Y48577500D01*
X43658645Y48577500D01*
X43351943Y48516493D01*
X43063037Y48396824D01*
X42803028Y48223092D01*
X42585936Y48006000D01*
X38276902Y48006000D01*
X38227000Y48010915D01*
X38177098Y48006000D01*
X38027829Y47991298D01*
X37836313Y47933202D01*
X37659810Y47838860D01*
X37505104Y47711896D01*
X37473292Y47673133D01*
X33860872Y44060712D01*
X33822104Y44028896D01*
X33695140Y43874190D01*
X33600798Y43697686D01*
X33575967Y43615829D01*
X33542702Y43506170D01*
X33523085Y43307000D01*
X33528000Y43257098D01*
X33528001Y32877089D01*
X33487859Y32952189D01*
X33360895Y33106895D01*
X33206189Y33233859D01*
X33029686Y33328201D01*
X32838170Y33386298D01*
X32638999Y33405914D01*
X32439828Y33386298D01*
X32248312Y33328201D01*
X32071810Y33233859D01*
X31955865Y33138706D01*
X30988000Y32170840D01*
X30988000Y51071987D01*
X37000866Y51071987D01*
X37024407Y50969124D01*
X37143283Y50693908D01*
X37313567Y50447172D01*
X37528715Y50238398D01*
X37780458Y50075609D01*
X38059123Y49965060D01*
X38354000Y49911000D01*
X38608000Y49911000D01*
X38608000Y51308000D01*
X38862000Y51308000D01*
X38862000Y49911000D01*
X39116000Y49911000D01*
X39410877Y49965060D01*
X39689542Y50075609D01*
X39941285Y50238398D01*
X40156433Y50447172D01*
X40326717Y50693908D01*
X40445593Y50969124D01*
X40469134Y51071987D01*
X40348330Y51308000D01*
X38862000Y51308000D01*
X38608000Y51308000D01*
X37121670Y51308000D01*
X37000866Y51071987D01*
X30988000Y51071987D01*
X30988000Y59055000D01*
X36949627Y59055000D01*
X36979052Y58756244D01*
X37066196Y58468969D01*
X37207710Y58204215D01*
X37398156Y57972156D01*
X37626206Y57785000D01*
X37398156Y57597844D01*
X37207710Y57365785D01*
X37066196Y57101031D01*
X36979052Y56813756D01*
X36949627Y56515000D01*
X36979052Y56216244D01*
X37066196Y55928969D01*
X37207710Y55664215D01*
X37398156Y55432156D01*
X37626206Y55245000D01*
X37398156Y55057844D01*
X37207710Y54825785D01*
X37066196Y54561031D01*
X36979052Y54273756D01*
X36949627Y53975000D01*
X36979052Y53676244D01*
X37066196Y53388969D01*
X37207710Y53124215D01*
X37398156Y52892156D01*
X37630215Y52701710D01*
X37634002Y52699686D01*
X37528715Y52631602D01*
X37313567Y52422828D01*
X37143283Y52176092D01*
X37024407Y51900876D01*
X37000866Y51798013D01*
X37121670Y51562000D01*
X38608000Y51562000D01*
X38608000Y51582000D01*
X38862000Y51582000D01*
X38862000Y51562000D01*
X40348330Y51562000D01*
X40469134Y51798013D01*
X40445593Y51900876D01*
X40326717Y52176092D01*
X40156433Y52422828D01*
X39941285Y52631602D01*
X39835998Y52699686D01*
X39839785Y52701710D01*
X40071844Y52892156D01*
X40262290Y53124215D01*
X40403804Y53388969D01*
X40490948Y53676244D01*
X40520373Y53975000D01*
X40490948Y54273756D01*
X40403804Y54561031D01*
X40262290Y54825785D01*
X40071844Y55057844D01*
X39843794Y55245000D01*
X40071844Y55432156D01*
X40262290Y55664215D01*
X40403804Y55928969D01*
X40490948Y56216244D01*
X40520373Y56515000D01*
X40490948Y56813756D01*
X40403804Y57101031D01*
X40262290Y57365785D01*
X40071844Y57597844D01*
X39843794Y57785000D01*
X40071844Y57972156D01*
X40262290Y58204215D01*
X40403804Y58468969D01*
X40490948Y58756244D01*
X40520373Y59055000D01*
X40490948Y59353756D01*
X40403804Y59641031D01*
X40262290Y59905785D01*
X40071844Y60137844D01*
X39839785Y60328290D01*
X39835998Y60330314D01*
X39941285Y60398398D01*
X40156433Y60607172D01*
X40326717Y60853908D01*
X40445593Y61129124D01*
X40469134Y61231987D01*
X40348330Y61468000D01*
X38862000Y61468000D01*
X38862000Y61448000D01*
X38608000Y61448000D01*
X38608000Y61468000D01*
X37121670Y61468000D01*
X37000866Y61231987D01*
X37024407Y61129124D01*
X37143283Y60853908D01*
X37313567Y60607172D01*
X37528715Y60398398D01*
X37634002Y60330314D01*
X37630215Y60328290D01*
X37398156Y60137844D01*
X37207710Y59905785D01*
X37066196Y59641031D01*
X36979052Y59353756D01*
X36949627Y59055000D01*
X30988000Y59055000D01*
X30988000Y68276107D01*
X30992914Y68326001D01*
X30988000Y68375895D01*
X30988000Y68375902D01*
X30973298Y68525171D01*
X30915202Y68716687D01*
X30820860Y68893190D01*
X30693896Y69047896D01*
X30655133Y69079708D01*
X28686634Y71048206D01*
X28391713Y71343127D01*
X28359896Y71381896D01*
X28205190Y71508860D01*
X28028687Y71603202D01*
X27837171Y71661298D01*
X27687902Y71676000D01*
X27638000Y71680915D01*
X27588098Y71676000D01*
X26471496Y71676000D01*
X26460812Y71784482D01*
X26424502Y71904180D01*
X26365537Y72014494D01*
X26286185Y72111185D01*
X26189494Y72190537D01*
X26079180Y72249502D01*
X25959482Y72285812D01*
X25835000Y72298072D01*
X22835000Y72298072D01*
X22710518Y72285812D01*
X22590820Y72249502D01*
X22480506Y72190537D01*
X22383815Y72111185D01*
X22304463Y72014494D01*
X22245498Y71904180D01*
X22209188Y71784482D01*
X22196928Y71660000D01*
X22196928Y69660000D01*
X22209188Y69535518D01*
X22245498Y69415820D01*
X22304463Y69305506D01*
X22383815Y69208815D01*
X22480506Y69129463D01*
X22590820Y69070498D01*
X22710518Y69034188D01*
X22835000Y69021928D01*
X25835000Y69021928D01*
X25959482Y69034188D01*
X26079180Y69070498D01*
X26189494Y69129463D01*
X26286185Y69208815D01*
X26365537Y69305506D01*
X26424502Y69415820D01*
X26460812Y69535518D01*
X26471496Y69644000D01*
X27217160Y69644000D01*
X27249794Y69611366D01*
X28956001Y67905158D01*
X28956000Y1446902D01*
X28951085Y1397000D01*
X28956000Y1347099D01*
X28970702Y1197830D01*
X29028798Y1006314D01*
X29123140Y829810D01*
X29250104Y675104D01*
X29288872Y643288D01*
X32336865Y-2404706D01*
X32336871Y-2404711D01*
X37727292Y-7795133D01*
X37759104Y-7833896D01*
X37913810Y-7960860D01*
X37982546Y-7997600D01*
X10010826Y-7997600D01*
X10273456Y-7822117D01*
X10566288Y-7529285D01*
X10796364Y-7184951D01*
X10954844Y-6802348D01*
X11035636Y-6396178D01*
X11035636Y-5982052D01*
X10954844Y-5575882D01*
X10796364Y-5193279D01*
X10566288Y-4848945D01*
X10273456Y-4556113D01*
X9929122Y-4326037D01*
X9546519Y-4167557D01*
X9140349Y-4086765D01*
X8726223Y-4086765D01*
X8320053Y-4167557D01*
X7937450Y-4326037D01*
X7593116Y-4556113D01*
X7300284Y-4848945D01*
X7124760Y-5111636D01*
X7124760Y14986000D01*
X7235928Y14986000D01*
X7235928Y12954000D01*
X7248188Y12829518D01*
X7284498Y12709820D01*
X7343463Y12599506D01*
X7422815Y12502815D01*
X7519506Y12423463D01*
X7629820Y12364498D01*
X7749518Y12328188D01*
X7874000Y12315928D01*
X9906000Y12315928D01*
X10030482Y12328188D01*
X10150180Y12364498D01*
X10260494Y12423463D01*
X10357185Y12502815D01*
X10436537Y12599506D01*
X10455704Y12635364D01*
X10647958Y12506903D01*
X10948421Y12382447D01*
X11267391Y12319000D01*
X11592609Y12319000D01*
X11911579Y12382447D01*
X12212042Y12506903D01*
X12482451Y12687585D01*
X12712415Y12917549D01*
X12893097Y13187958D01*
X13017553Y13488421D01*
X13081000Y13807391D01*
X13081000Y14132609D01*
X13017553Y14451579D01*
X12893097Y14752042D01*
X12712415Y15022451D01*
X12482451Y15252415D01*
X12212042Y15433097D01*
X11911579Y15557553D01*
X11592609Y15621000D01*
X11267391Y15621000D01*
X10948421Y15557553D01*
X10647958Y15433097D01*
X10455704Y15304636D01*
X10436537Y15340494D01*
X10357185Y15437185D01*
X10260494Y15516537D01*
X10150180Y15575502D01*
X10030482Y15611812D01*
X9906000Y15624072D01*
X7874000Y15624072D01*
X7749518Y15611812D01*
X7629820Y15575502D01*
X7519506Y15516537D01*
X7422815Y15437185D01*
X7343463Y15340494D01*
X7284498Y15230180D01*
X7248188Y15110482D01*
X7235928Y14986000D01*
X7124760Y14986000D01*
X7124760Y25146000D01*
X7235928Y25146000D01*
X7235928Y23114000D01*
X7248188Y22989518D01*
X7284498Y22869820D01*
X7343463Y22759506D01*
X7422815Y22662815D01*
X7519506Y22583463D01*
X7629820Y22524498D01*
X7749518Y22488188D01*
X7874000Y22475928D01*
X9906000Y22475928D01*
X10030482Y22488188D01*
X10150180Y22524498D01*
X10260494Y22583463D01*
X10357185Y22662815D01*
X10436537Y22759506D01*
X10455704Y22795364D01*
X10647958Y22666903D01*
X10948421Y22542447D01*
X11267391Y22479000D01*
X11592609Y22479000D01*
X11911579Y22542447D01*
X12212042Y22666903D01*
X12482451Y22847585D01*
X12524009Y22889143D01*
X13323000Y22889143D01*
X13323000Y-7395143D01*
X17143000Y-7395143D01*
X17143000Y-3974714D01*
X18149000Y-3974714D01*
X18149000Y-4339857D01*
X21969000Y-4339857D01*
X21969000Y-1720434D01*
X22244876Y-1720434D01*
X22275856Y-1848355D01*
X22404990Y-2142761D01*
X22589078Y-2406317D01*
X22821046Y-2628895D01*
X23091980Y-2801942D01*
X23391468Y-2918807D01*
X23708000Y-2975000D01*
X24208000Y-2975000D01*
X24208000Y-1467000D01*
X24462000Y-1467000D01*
X24462000Y-2975000D01*
X24962000Y-2975000D01*
X25278532Y-2918807D01*
X25578020Y-2801942D01*
X25848954Y-2628895D01*
X26080922Y-2406317D01*
X26265010Y-2142761D01*
X26394144Y-1848355D01*
X26425124Y-1720434D01*
X26305777Y-1467000D01*
X24462000Y-1467000D01*
X24208000Y-1467000D01*
X22364223Y-1467000D01*
X22244876Y-1720434D01*
X21969000Y-1720434D01*
X21969000Y-959566D01*
X22244876Y-959566D01*
X22364223Y-1213000D01*
X24208000Y-1213000D01*
X24208000Y-1193000D01*
X24462000Y-1193000D01*
X24462000Y-1213000D01*
X26305777Y-1213000D01*
X26425124Y-959566D01*
X26394144Y-831645D01*
X26265010Y-537239D01*
X26080922Y-273683D01*
X25848954Y-51105D01*
X25578020Y121942D01*
X25278532Y238807D01*
X24962000Y295000D01*
X23708000Y295000D01*
X23391468Y238807D01*
X23091980Y121942D01*
X22821046Y-51105D01*
X22589078Y-273683D01*
X22404990Y-537239D01*
X22275856Y-831645D01*
X22244876Y-959566D01*
X21969000Y-959566D01*
X21969000Y8264882D01*
X22200000Y8264882D01*
X22200000Y6055119D01*
X22230892Y5741468D01*
X22352974Y5339019D01*
X22551223Y4968119D01*
X22818023Y4643023D01*
X23143119Y4376223D01*
X23514018Y4177974D01*
X23916467Y4055892D01*
X24335000Y4014670D01*
X24753532Y4055892D01*
X25155981Y4177974D01*
X25526881Y4376223D01*
X25851977Y4643023D01*
X26118777Y4968119D01*
X26317026Y5339018D01*
X26439108Y5741467D01*
X26470000Y6055118D01*
X26470000Y8264882D01*
X26439108Y8578533D01*
X26317026Y8980982D01*
X26118777Y9351881D01*
X25851977Y9676977D01*
X25526881Y9943777D01*
X25155982Y10142026D01*
X24753533Y10264108D01*
X24335000Y10305330D01*
X23916468Y10264108D01*
X23514019Y10142026D01*
X23143120Y9943777D01*
X22818024Y9676977D01*
X22551224Y9351881D01*
X22352975Y8980982D01*
X22230892Y8578533D01*
X22200000Y8264882D01*
X21969000Y8264882D01*
X21969000Y15515857D01*
X19556000Y15515857D01*
X19556000Y16166715D01*
X17143000Y16166715D01*
X17143000Y22889143D01*
X13323000Y22889143D01*
X12524009Y22889143D01*
X12712415Y23077549D01*
X12893097Y23347958D01*
X13017553Y23648421D01*
X13081000Y23967391D01*
X13081000Y24292609D01*
X13017553Y24611579D01*
X12893097Y24912042D01*
X12712415Y25182451D01*
X12482451Y25412415D01*
X12212042Y25593097D01*
X11911579Y25717553D01*
X11592609Y25781000D01*
X11267391Y25781000D01*
X10948421Y25717553D01*
X10647958Y25593097D01*
X10455704Y25464636D01*
X10436537Y25500494D01*
X10357185Y25597185D01*
X10260494Y25676537D01*
X10150180Y25735502D01*
X10030482Y25771812D01*
X9906000Y25784072D01*
X7874000Y25784072D01*
X7749518Y25771812D01*
X7629820Y25735502D01*
X7519506Y25676537D01*
X7422815Y25597185D01*
X7343463Y25500494D01*
X7284498Y25390180D01*
X7248188Y25270482D01*
X7235928Y25146000D01*
X7124760Y25146000D01*
X7124760Y63264882D01*
X22200000Y63264882D01*
X22200000Y61055119D01*
X22230892Y60741468D01*
X22352974Y60339019D01*
X22551223Y59968119D01*
X22818023Y59643023D01*
X23143119Y59376223D01*
X23514018Y59177974D01*
X23916467Y59055892D01*
X24335000Y59014670D01*
X24753532Y59055892D01*
X25155981Y59177974D01*
X25526881Y59376223D01*
X25851977Y59643023D01*
X26118777Y59968119D01*
X26317026Y60339018D01*
X26439108Y60741467D01*
X26470000Y61055118D01*
X26470000Y63264882D01*
X26439108Y63578533D01*
X26317026Y63980982D01*
X26118777Y64351881D01*
X25851977Y64676977D01*
X25526881Y64943777D01*
X25155982Y65142026D01*
X24753533Y65264108D01*
X24335000Y65305330D01*
X23916468Y65264108D01*
X23514019Y65142026D01*
X23143120Y64943777D01*
X22818024Y64676977D01*
X22551224Y64351881D01*
X22352975Y63980982D01*
X22230892Y63578533D01*
X22200000Y63264882D01*
X7124760Y63264882D01*
X7124760Y72533049D01*
X7300284Y72270358D01*
X7593116Y71977526D01*
X7937450Y71747450D01*
X8320053Y71588970D01*
X8726223Y71508178D01*
X9140349Y71508178D01*
X9546519Y71588970D01*
X9929122Y71747450D01*
X10273456Y71977526D01*
X10566288Y72270358D01*
X10796364Y72614692D01*
X10954844Y72997295D01*
X11035636Y73403465D01*
X11035636Y73817591D01*
X10954844Y74223761D01*
X10796364Y74606364D01*
X10566288Y74950698D01*
X10273456Y75243530D01*
X10010756Y75419060D01*
X82655459Y75419060D01*
X82392759Y75243530D01*
G36*
X46548748Y11444142D02*
G01*
X46534605Y11430000D01*
X47501823Y10462782D01*
X47767860Y10560478D01*
X47910348Y10852821D01*
X47939451Y10963483D01*
X47942447Y10948421D01*
X48066903Y10647958D01*
X48247585Y10377549D01*
X48477549Y10147585D01*
X48747958Y9966903D01*
X49048421Y9842447D01*
X49367391Y9779000D01*
X49692609Y9779000D01*
X50011579Y9842447D01*
X50312042Y9966903D01*
X50582451Y10147585D01*
X50812415Y10377549D01*
X50993097Y10647958D01*
X51117500Y10948293D01*
X51241903Y10647958D01*
X51422585Y10377549D01*
X51652549Y10147585D01*
X51922958Y9966903D01*
X52223421Y9842447D01*
X52542391Y9779000D01*
X52867609Y9779000D01*
X53186579Y9842447D01*
X53487042Y9966903D01*
X53757451Y10147585D01*
X53987415Y10377549D01*
X54011771Y10414000D01*
X54573229Y10414000D01*
X54597585Y10377549D01*
X54827549Y10147585D01*
X55097958Y9966903D01*
X55398421Y9842447D01*
X55717391Y9779000D01*
X56042609Y9779000D01*
X56085607Y9787553D01*
X56134001Y9739158D01*
X56134001Y9011629D01*
X56027042Y9083097D01*
X55726579Y9207553D01*
X55407609Y9271000D01*
X55082391Y9271000D01*
X54763421Y9207553D01*
X54462958Y9083097D01*
X54192549Y8902415D01*
X53975000Y8684866D01*
X53757451Y8902415D01*
X53487042Y9083097D01*
X53186579Y9207553D01*
X52867609Y9271000D01*
X52542391Y9271000D01*
X52223421Y9207553D01*
X51922958Y9083097D01*
X51730704Y8954636D01*
X51711537Y8990494D01*
X51632185Y9087185D01*
X51535494Y9166537D01*
X51425180Y9225502D01*
X51305482Y9261812D01*
X51181000Y9274072D01*
X50450750Y9271000D01*
X50292000Y9112250D01*
X50292000Y7747000D01*
X50312000Y7747000D01*
X50312000Y7493000D01*
X50292000Y7493000D01*
X50292000Y6127750D01*
X50450750Y5969000D01*
X51181000Y5965928D01*
X51305482Y5978188D01*
X51425180Y6014498D01*
X51535494Y6073463D01*
X51632185Y6152815D01*
X51711537Y6249506D01*
X51730704Y6285364D01*
X51922958Y6156903D01*
X52223421Y6032447D01*
X52542391Y5969000D01*
X52867609Y5969000D01*
X53186579Y6032447D01*
X53487042Y6156903D01*
X53757451Y6337585D01*
X53975000Y6555134D01*
X54192549Y6337585D01*
X54462958Y6156903D01*
X54763421Y6032447D01*
X55082391Y5969000D01*
X55407609Y5969000D01*
X55726579Y6032447D01*
X56027042Y6156903D01*
X56134000Y6228371D01*
X56134000Y2833841D01*
X54561868Y1261708D01*
X54523105Y1229896D01*
X54396141Y1075190D01*
X54359326Y1006313D01*
X54301799Y898687D01*
X54243702Y707170D01*
X54224085Y508000D01*
X54229001Y458089D01*
X54229001Y384072D01*
X54229000Y384072D01*
X54104518Y371812D01*
X53984820Y335502D01*
X53874506Y276537D01*
X53777815Y197185D01*
X53698463Y100494D01*
X53639498Y-9820D01*
X53635468Y-23104D01*
X53574522Y142860D01*
X53282179Y285348D01*
X52967656Y368064D01*
X52643038Y387831D01*
X52320802Y343888D01*
X52013330Y237924D01*
X51835478Y142860D01*
X51737782Y-123177D01*
X52705000Y-1090395D01*
X52719143Y-1076253D01*
X52898748Y-1255858D01*
X52884605Y-1270000D01*
X52898748Y-1284143D01*
X52719143Y-1463748D01*
X52705000Y-1449605D01*
X51737782Y-2416823D01*
X51835478Y-2682860D01*
X52127821Y-2825348D01*
X52442344Y-2908064D01*
X52766962Y-2927831D01*
X53089198Y-2883888D01*
X53396670Y-2777924D01*
X53574522Y-2682860D01*
X53635468Y-2516896D01*
X53639498Y-2530180D01*
X53698463Y-2640494D01*
X53777815Y-2737185D01*
X53874506Y-2816537D01*
X53984820Y-2875502D01*
X54104518Y-2911812D01*
X54229000Y-2924072D01*
X54229001Y-4064000D01*
X51103902Y-4064000D01*
X51054000Y-4059085D01*
X51004098Y-4064000D01*
X50854829Y-4078702D01*
X50663313Y-4136798D01*
X50486810Y-4231140D01*
X50332104Y-4358104D01*
X50300292Y-4396867D01*
X48601160Y-6096000D01*
X46409681Y-6096000D01*
X46477475Y-5890080D01*
X45593000Y-5005605D01*
X45578858Y-5019748D01*
X45399253Y-4840143D01*
X45413395Y-4826000D01*
X45399253Y-4811858D01*
X45578858Y-4632253D01*
X45593000Y-4646395D01*
X45607143Y-4632253D01*
X45786748Y-4811858D01*
X45772605Y-4826000D01*
X46657080Y-5710475D01*
X46911261Y-5626792D01*
X47042158Y-5354225D01*
X47117365Y-5061358D01*
X47133991Y-4759447D01*
X47091397Y-4460093D01*
X47080238Y-4428312D01*
X47411025Y-4386405D01*
X47763151Y-4268789D01*
X47997896Y-4143315D01*
X48123771Y-3853377D01*
X46990000Y-2719605D01*
X46975858Y-2733748D01*
X46796253Y-2554143D01*
X46810395Y-2540000D01*
X47169605Y-2540000D01*
X48303377Y-3673771D01*
X48593315Y-3547896D01*
X48759139Y-3215738D01*
X48856975Y-2857613D01*
X48883065Y-2487281D01*
X48836405Y-2118975D01*
X48718789Y-1766849D01*
X48593315Y-1532104D01*
X48303377Y-1406229D01*
X47169605Y-2540000D01*
X46810395Y-2540000D01*
X45676623Y-1406229D01*
X45386685Y-1532104D01*
X45220861Y-1864262D01*
X45123025Y-2222387D01*
X45096935Y-2592719D01*
X45143595Y-2961025D01*
X45261211Y-3313151D01*
X45265978Y-3322070D01*
X45227093Y-3327603D01*
X44941801Y-3427778D01*
X44792208Y-3507739D01*
X44708526Y-3761918D01*
X44592578Y-3645970D01*
X44572183Y-3666366D01*
X44539505Y-3633688D01*
X44288095Y-3465701D01*
X44269226Y-3457885D01*
X44244133Y-3437292D01*
X43797752Y-2990911D01*
X43797752Y-1290320D01*
X43791479Y-1226623D01*
X45856229Y-1226623D01*
X46990000Y-2360395D01*
X48018432Y-1331962D01*
X51047169Y-1331962D01*
X51091112Y-1654198D01*
X51197076Y-1961670D01*
X51292140Y-2139522D01*
X51558177Y-2237218D01*
X52525395Y-1270000D01*
X51558177Y-302782D01*
X51292140Y-400478D01*
X51149652Y-692821D01*
X51066936Y-1007344D01*
X51047169Y-1331962D01*
X48018432Y-1331962D01*
X48123771Y-1226623D01*
X47997896Y-936685D01*
X47665738Y-770861D01*
X47307613Y-673025D01*
X46937281Y-646935D01*
X46568975Y-693595D01*
X46216849Y-811211D01*
X45982104Y-936685D01*
X45856229Y-1226623D01*
X43791479Y-1226623D01*
X43785492Y-1165838D01*
X43749182Y-1046140D01*
X43690217Y-935826D01*
X43610865Y-839135D01*
X43514174Y-759783D01*
X43403860Y-700818D01*
X43284162Y-664508D01*
X43159680Y-652248D01*
X42926000Y-652248D01*
X42926000Y691778D01*
X42930915Y741680D01*
X42911298Y940851D01*
X42853202Y1132367D01*
X42758860Y1308870D01*
X42631896Y1463576D01*
X42593133Y1495388D01*
X41021000Y3067520D01*
X41021000Y6600928D01*
X41145482Y6613188D01*
X41265180Y6649498D01*
X41375494Y6708463D01*
X41472185Y6787815D01*
X41551537Y6884506D01*
X41610502Y6994820D01*
X41614532Y7008104D01*
X41675478Y6842140D01*
X41967821Y6699652D01*
X42282344Y6616936D01*
X42606962Y6597169D01*
X42657054Y6604000D01*
X48510928Y6604000D01*
X48523188Y6479518D01*
X48559498Y6359820D01*
X48618463Y6249506D01*
X48697815Y6152815D01*
X48794506Y6073463D01*
X48904820Y6014498D01*
X49024518Y5978188D01*
X49149000Y5965928D01*
X49879250Y5969000D01*
X50038000Y6127750D01*
X50038000Y7493000D01*
X48672750Y7493000D01*
X48514000Y7334250D01*
X48510928Y6604000D01*
X42657054Y6604000D01*
X42929198Y6641112D01*
X43236670Y6747076D01*
X43414522Y6842140D01*
X43512218Y7108177D01*
X42545000Y8075395D01*
X42530858Y8061252D01*
X42351253Y8240857D01*
X42365395Y8255000D01*
X42724605Y8255000D01*
X43691823Y7287782D01*
X43957860Y7385478D01*
X44100348Y7677821D01*
X44183064Y7992344D01*
X44202831Y8316962D01*
X44159325Y8636000D01*
X48510928Y8636000D01*
X48514000Y7905750D01*
X48672750Y7747000D01*
X50038000Y7747000D01*
X50038000Y9112250D01*
X49879250Y9271000D01*
X49149000Y9274072D01*
X49024518Y9261812D01*
X48904820Y9225502D01*
X48794506Y9166537D01*
X48697815Y9087185D01*
X48618463Y8990494D01*
X48559498Y8880180D01*
X48523188Y8760482D01*
X48510928Y8636000D01*
X44159325Y8636000D01*
X44158888Y8639198D01*
X44052924Y8946670D01*
X43957860Y9124522D01*
X43691823Y9222218D01*
X42724605Y8255000D01*
X42365395Y8255000D01*
X42351253Y8269142D01*
X42530858Y8448747D01*
X42545000Y8434605D01*
X43512218Y9401823D01*
X43414522Y9667860D01*
X43241205Y9752335D01*
X43366190Y9819140D01*
X43520896Y9946104D01*
X43552712Y9984872D01*
X43851017Y10283177D01*
X45387782Y10283177D01*
X45485478Y10017140D01*
X45777821Y9874652D01*
X46092344Y9791936D01*
X46416962Y9772169D01*
X46739198Y9816112D01*
X47046670Y9922076D01*
X47224522Y10017140D01*
X47322218Y10283177D01*
X46355000Y11250395D01*
X45387782Y10283177D01*
X43851017Y10283177D01*
X44725815Y11157975D01*
X44741112Y11045802D01*
X44847076Y10738330D01*
X44942140Y10560478D01*
X45208177Y10462782D01*
X46175395Y11430000D01*
X46161253Y11444142D01*
X46340858Y11623747D01*
X46355000Y11609605D01*
X46369143Y11623747D01*
X46548748Y11444142D01*
X46548748Y11444142D01*
G37*
X46548748Y11444142D02*
X46534605Y11430000D01*
X47501823Y10462782D01*
X47767860Y10560478D01*
X47910348Y10852821D01*
X47939451Y10963483D01*
X47942447Y10948421D01*
X48066903Y10647958D01*
X48247585Y10377549D01*
X48477549Y10147585D01*
X48747958Y9966903D01*
X49048421Y9842447D01*
X49367391Y9779000D01*
X49692609Y9779000D01*
X50011579Y9842447D01*
X50312042Y9966903D01*
X50582451Y10147585D01*
X50812415Y10377549D01*
X50993097Y10647958D01*
X51117500Y10948293D01*
X51241903Y10647958D01*
X51422585Y10377549D01*
X51652549Y10147585D01*
X51922958Y9966903D01*
X52223421Y9842447D01*
X52542391Y9779000D01*
X52867609Y9779000D01*
X53186579Y9842447D01*
X53487042Y9966903D01*
X53757451Y10147585D01*
X53987415Y10377549D01*
X54011771Y10414000D01*
X54573229Y10414000D01*
X54597585Y10377549D01*
X54827549Y10147585D01*
X55097958Y9966903D01*
X55398421Y9842447D01*
X55717391Y9779000D01*
X56042609Y9779000D01*
X56085607Y9787553D01*
X56134001Y9739158D01*
X56134001Y9011629D01*
X56027042Y9083097D01*
X55726579Y9207553D01*
X55407609Y9271000D01*
X55082391Y9271000D01*
X54763421Y9207553D01*
X54462958Y9083097D01*
X54192549Y8902415D01*
X53975000Y8684866D01*
X53757451Y8902415D01*
X53487042Y9083097D01*
X53186579Y9207553D01*
X52867609Y9271000D01*
X52542391Y9271000D01*
X52223421Y9207553D01*
X51922958Y9083097D01*
X51730704Y8954636D01*
X51711537Y8990494D01*
X51632185Y9087185D01*
X51535494Y9166537D01*
X51425180Y9225502D01*
X51305482Y9261812D01*
X51181000Y9274072D01*
X50450750Y9271000D01*
X50292000Y9112250D01*
X50292000Y7747000D01*
X50312000Y7747000D01*
X50312000Y7493000D01*
X50292000Y7493000D01*
X50292000Y6127750D01*
X50450750Y5969000D01*
X51181000Y5965928D01*
X51305482Y5978188D01*
X51425180Y6014498D01*
X51535494Y6073463D01*
X51632185Y6152815D01*
X51711537Y6249506D01*
X51730704Y6285364D01*
X51922958Y6156903D01*
X52223421Y6032447D01*
X52542391Y5969000D01*
X52867609Y5969000D01*
X53186579Y6032447D01*
X53487042Y6156903D01*
X53757451Y6337585D01*
X53975000Y6555134D01*
X54192549Y6337585D01*
X54462958Y6156903D01*
X54763421Y6032447D01*
X55082391Y5969000D01*
X55407609Y5969000D01*
X55726579Y6032447D01*
X56027042Y6156903D01*
X56134000Y6228371D01*
X56134000Y2833841D01*
X54561868Y1261708D01*
X54523105Y1229896D01*
X54396141Y1075190D01*
X54359326Y1006313D01*
X54301799Y898687D01*
X54243702Y707170D01*
X54224085Y508000D01*
X54229001Y458089D01*
X54229001Y384072D01*
X54229000Y384072D01*
X54104518Y371812D01*
X53984820Y335502D01*
X53874506Y276537D01*
X53777815Y197185D01*
X53698463Y100494D01*
X53639498Y-9820D01*
X53635468Y-23104D01*
X53574522Y142860D01*
X53282179Y285348D01*
X52967656Y368064D01*
X52643038Y387831D01*
X52320802Y343888D01*
X52013330Y237924D01*
X51835478Y142860D01*
X51737782Y-123177D01*
X52705000Y-1090395D01*
X52719143Y-1076253D01*
X52898748Y-1255858D01*
X52884605Y-1270000D01*
X52898748Y-1284143D01*
X52719143Y-1463748D01*
X52705000Y-1449605D01*
X51737782Y-2416823D01*
X51835478Y-2682860D01*
X52127821Y-2825348D01*
X52442344Y-2908064D01*
X52766962Y-2927831D01*
X53089198Y-2883888D01*
X53396670Y-2777924D01*
X53574522Y-2682860D01*
X53635468Y-2516896D01*
X53639498Y-2530180D01*
X53698463Y-2640494D01*
X53777815Y-2737185D01*
X53874506Y-2816537D01*
X53984820Y-2875502D01*
X54104518Y-2911812D01*
X54229000Y-2924072D01*
X54229001Y-4064000D01*
X51103902Y-4064000D01*
X51054000Y-4059085D01*
X51004098Y-4064000D01*
X50854829Y-4078702D01*
X50663313Y-4136798D01*
X50486810Y-4231140D01*
X50332104Y-4358104D01*
X50300292Y-4396867D01*
X48601160Y-6096000D01*
X46409681Y-6096000D01*
X46477475Y-5890080D01*
X45593000Y-5005605D01*
X45578858Y-5019748D01*
X45399253Y-4840143D01*
X45413395Y-4826000D01*
X45399253Y-4811858D01*
X45578858Y-4632253D01*
X45593000Y-4646395D01*
X45607143Y-4632253D01*
X45786748Y-4811858D01*
X45772605Y-4826000D01*
X46657080Y-5710475D01*
X46911261Y-5626792D01*
X47042158Y-5354225D01*
X47117365Y-5061358D01*
X47133991Y-4759447D01*
X47091397Y-4460093D01*
X47080238Y-4428312D01*
X47411025Y-4386405D01*
X47763151Y-4268789D01*
X47997896Y-4143315D01*
X48123771Y-3853377D01*
X46990000Y-2719605D01*
X46975858Y-2733748D01*
X46796253Y-2554143D01*
X46810395Y-2540000D01*
X47169605Y-2540000D01*
X48303377Y-3673771D01*
X48593315Y-3547896D01*
X48759139Y-3215738D01*
X48856975Y-2857613D01*
X48883065Y-2487281D01*
X48836405Y-2118975D01*
X48718789Y-1766849D01*
X48593315Y-1532104D01*
X48303377Y-1406229D01*
X47169605Y-2540000D01*
X46810395Y-2540000D01*
X45676623Y-1406229D01*
X45386685Y-1532104D01*
X45220861Y-1864262D01*
X45123025Y-2222387D01*
X45096935Y-2592719D01*
X45143595Y-2961025D01*
X45261211Y-3313151D01*
X45265978Y-3322070D01*
X45227093Y-3327603D01*
X44941801Y-3427778D01*
X44792208Y-3507739D01*
X44708526Y-3761918D01*
X44592578Y-3645970D01*
X44572183Y-3666366D01*
X44539505Y-3633688D01*
X44288095Y-3465701D01*
X44269226Y-3457885D01*
X44244133Y-3437292D01*
X43797752Y-2990911D01*
X43797752Y-1290320D01*
X43791479Y-1226623D01*
X45856229Y-1226623D01*
X46990000Y-2360395D01*
X48018432Y-1331962D01*
X51047169Y-1331962D01*
X51091112Y-1654198D01*
X51197076Y-1961670D01*
X51292140Y-2139522D01*
X51558177Y-2237218D01*
X52525395Y-1270000D01*
X51558177Y-302782D01*
X51292140Y-400478D01*
X51149652Y-692821D01*
X51066936Y-1007344D01*
X51047169Y-1331962D01*
X48018432Y-1331962D01*
X48123771Y-1226623D01*
X47997896Y-936685D01*
X47665738Y-770861D01*
X47307613Y-673025D01*
X46937281Y-646935D01*
X46568975Y-693595D01*
X46216849Y-811211D01*
X45982104Y-936685D01*
X45856229Y-1226623D01*
X43791479Y-1226623D01*
X43785492Y-1165838D01*
X43749182Y-1046140D01*
X43690217Y-935826D01*
X43610865Y-839135D01*
X43514174Y-759783D01*
X43403860Y-700818D01*
X43284162Y-664508D01*
X43159680Y-652248D01*
X42926000Y-652248D01*
X42926000Y691778D01*
X42930915Y741680D01*
X42911298Y940851D01*
X42853202Y1132367D01*
X42758860Y1308870D01*
X42631896Y1463576D01*
X42593133Y1495388D01*
X41021000Y3067520D01*
X41021000Y6600928D01*
X41145482Y6613188D01*
X41265180Y6649498D01*
X41375494Y6708463D01*
X41472185Y6787815D01*
X41551537Y6884506D01*
X41610502Y6994820D01*
X41614532Y7008104D01*
X41675478Y6842140D01*
X41967821Y6699652D01*
X42282344Y6616936D01*
X42606962Y6597169D01*
X42657054Y6604000D01*
X48510928Y6604000D01*
X48523188Y6479518D01*
X48559498Y6359820D01*
X48618463Y6249506D01*
X48697815Y6152815D01*
X48794506Y6073463D01*
X48904820Y6014498D01*
X49024518Y5978188D01*
X49149000Y5965928D01*
X49879250Y5969000D01*
X50038000Y6127750D01*
X50038000Y7493000D01*
X48672750Y7493000D01*
X48514000Y7334250D01*
X48510928Y6604000D01*
X42657054Y6604000D01*
X42929198Y6641112D01*
X43236670Y6747076D01*
X43414522Y6842140D01*
X43512218Y7108177D01*
X42545000Y8075395D01*
X42530858Y8061252D01*
X42351253Y8240857D01*
X42365395Y8255000D01*
X42724605Y8255000D01*
X43691823Y7287782D01*
X43957860Y7385478D01*
X44100348Y7677821D01*
X44183064Y7992344D01*
X44202831Y8316962D01*
X44159325Y8636000D01*
X48510928Y8636000D01*
X48514000Y7905750D01*
X48672750Y7747000D01*
X50038000Y7747000D01*
X50038000Y9112250D01*
X49879250Y9271000D01*
X49149000Y9274072D01*
X49024518Y9261812D01*
X48904820Y9225502D01*
X48794506Y9166537D01*
X48697815Y9087185D01*
X48618463Y8990494D01*
X48559498Y8880180D01*
X48523188Y8760482D01*
X48510928Y8636000D01*
X44159325Y8636000D01*
X44158888Y8639198D01*
X44052924Y8946670D01*
X43957860Y9124522D01*
X43691823Y9222218D01*
X42724605Y8255000D01*
X42365395Y8255000D01*
X42351253Y8269142D01*
X42530858Y8448747D01*
X42545000Y8434605D01*
X43512218Y9401823D01*
X43414522Y9667860D01*
X43241205Y9752335D01*
X43366190Y9819140D01*
X43520896Y9946104D01*
X43552712Y9984872D01*
X43851017Y10283177D01*
X45387782Y10283177D01*
X45485478Y10017140D01*
X45777821Y9874652D01*
X46092344Y9791936D01*
X46416962Y9772169D01*
X46739198Y9816112D01*
X47046670Y9922076D01*
X47224522Y10017140D01*
X47322218Y10283177D01*
X46355000Y11250395D01*
X45387782Y10283177D01*
X43851017Y10283177D01*
X44725815Y11157975D01*
X44741112Y11045802D01*
X44847076Y10738330D01*
X44942140Y10560478D01*
X45208177Y10462782D01*
X46175395Y11430000D01*
X46161253Y11444142D01*
X46340858Y11623747D01*
X46355000Y11609605D01*
X46369143Y11623747D01*
X46548748Y11444142D01*
G36*
X61604820Y23159498D02*
G01*
X61724518Y23123188D01*
X61849000Y23110928D01*
X61849001Y23110928D01*
X61849001Y23036911D01*
X61844085Y22987000D01*
X61863702Y22787830D01*
X61901172Y22664310D01*
X61921799Y22596313D01*
X62016141Y22419810D01*
X62143105Y22265104D01*
X62181868Y22233292D01*
X65024000Y19391159D01*
X65024001Y18464911D01*
X65019085Y18415000D01*
X65038702Y18215830D01*
X65086479Y18058332D01*
X65096799Y18024313D01*
X65191141Y17847810D01*
X65318105Y17693104D01*
X65356868Y17661292D01*
X67191292Y15826867D01*
X67223104Y15788104D01*
X67377810Y15661140D01*
X67538029Y15575502D01*
X67554313Y15566798D01*
X67745829Y15508702D01*
X67945000Y15489085D01*
X67994902Y15494000D01*
X68161638Y15494000D01*
X68161638Y15459710D01*
X68173898Y15335228D01*
X68210208Y15215530D01*
X68269173Y15105216D01*
X68348525Y15008525D01*
X68445216Y14929173D01*
X68555530Y14870208D01*
X68675228Y14833898D01*
X68799710Y14821638D01*
X68834001Y14821638D01*
X68834000Y13120840D01*
X68531868Y12818708D01*
X68493105Y12786896D01*
X68366141Y12632190D01*
X68313769Y12534208D01*
X68271799Y12455687D01*
X68213702Y12264170D01*
X68194085Y12065000D01*
X68199001Y12015088D01*
X68199000Y9909072D01*
X68074518Y9896812D01*
X67954820Y9860502D01*
X67844506Y9801537D01*
X67747815Y9722185D01*
X67668463Y9625494D01*
X67609498Y9515180D01*
X67573188Y9395482D01*
X67560928Y9271000D01*
X67359902Y9271000D01*
X67310000Y9275915D01*
X67260098Y9271000D01*
X67110829Y9256298D01*
X66919313Y9198202D01*
X66742810Y9103860D01*
X66588104Y8976896D01*
X66556294Y8938135D01*
X64984160Y7366000D01*
X63249072Y7366000D01*
X63236812Y7490482D01*
X63200502Y7610180D01*
X63141537Y7720494D01*
X63113960Y7754097D01*
X63191171Y7761702D01*
X63382687Y7819798D01*
X63559190Y7914140D01*
X63713896Y8041104D01*
X63745712Y8079872D01*
X64691133Y9025292D01*
X64729896Y9057104D01*
X64856860Y9211810D01*
X64951202Y9388313D01*
X65009298Y9579829D01*
X65024000Y9729098D01*
X65024000Y9729099D01*
X65028915Y9779000D01*
X65024000Y9828902D01*
X65024000Y11848035D01*
X65169642Y11810635D01*
X65471553Y11794009D01*
X65770907Y11836603D01*
X66056199Y11936778D01*
X66205792Y12016739D01*
X66289475Y12270920D01*
X65405000Y13155395D01*
X65390858Y13141252D01*
X65211253Y13320857D01*
X65225395Y13335000D01*
X65584605Y13335000D01*
X66469080Y12450525D01*
X66723261Y12534208D01*
X66854158Y12806775D01*
X66929365Y13099642D01*
X66945991Y13401553D01*
X66903397Y13700907D01*
X66803222Y13986199D01*
X66723261Y14135792D01*
X66469080Y14219475D01*
X65584605Y13335000D01*
X65225395Y13335000D01*
X64340920Y14219475D01*
X64086739Y14135792D01*
X63955842Y13863225D01*
X63918608Y13718232D01*
X63237760Y14399080D01*
X64520525Y14399080D01*
X65405000Y13514605D01*
X66289475Y14399080D01*
X66205792Y14653261D01*
X65933225Y14784158D01*
X65640358Y14859365D01*
X65338447Y14875991D01*
X65039093Y14833397D01*
X64753801Y14733222D01*
X64604208Y14653261D01*
X64520525Y14399080D01*
X63237760Y14399080D01*
X60071000Y17565840D01*
X60071000Y17743229D01*
X60107451Y17767585D01*
X60337415Y17997549D01*
X60518097Y18267958D01*
X60642500Y18568293D01*
X60766903Y18267958D01*
X60947585Y17997549D01*
X61177549Y17767585D01*
X61447958Y17586903D01*
X61748421Y17462447D01*
X62067391Y17399000D01*
X62392609Y17399000D01*
X62711579Y17462447D01*
X63012042Y17586903D01*
X63282451Y17767585D01*
X63512415Y17997549D01*
X63693097Y18267958D01*
X63817553Y18568421D01*
X63881000Y18887391D01*
X63881000Y19212609D01*
X63817553Y19531579D01*
X63693097Y19832042D01*
X63512415Y20102451D01*
X63282451Y20332415D01*
X63012042Y20513097D01*
X62711579Y20637553D01*
X62392609Y20701000D01*
X62067391Y20701000D01*
X62024393Y20692447D01*
X61595000Y21121840D01*
X61595000Y23164747D01*
X61604820Y23159498D01*
X61604820Y23159498D01*
G37*
X61604820Y23159498D02*
X61724518Y23123188D01*
X61849000Y23110928D01*
X61849001Y23110928D01*
X61849001Y23036911D01*
X61844085Y22987000D01*
X61863702Y22787830D01*
X61901172Y22664310D01*
X61921799Y22596313D01*
X62016141Y22419810D01*
X62143105Y22265104D01*
X62181868Y22233292D01*
X65024000Y19391159D01*
X65024001Y18464911D01*
X65019085Y18415000D01*
X65038702Y18215830D01*
X65086479Y18058332D01*
X65096799Y18024313D01*
X65191141Y17847810D01*
X65318105Y17693104D01*
X65356868Y17661292D01*
X67191292Y15826867D01*
X67223104Y15788104D01*
X67377810Y15661140D01*
X67538029Y15575502D01*
X67554313Y15566798D01*
X67745829Y15508702D01*
X67945000Y15489085D01*
X67994902Y15494000D01*
X68161638Y15494000D01*
X68161638Y15459710D01*
X68173898Y15335228D01*
X68210208Y15215530D01*
X68269173Y15105216D01*
X68348525Y15008525D01*
X68445216Y14929173D01*
X68555530Y14870208D01*
X68675228Y14833898D01*
X68799710Y14821638D01*
X68834001Y14821638D01*
X68834000Y13120840D01*
X68531868Y12818708D01*
X68493105Y12786896D01*
X68366141Y12632190D01*
X68313769Y12534208D01*
X68271799Y12455687D01*
X68213702Y12264170D01*
X68194085Y12065000D01*
X68199001Y12015088D01*
X68199000Y9909072D01*
X68074518Y9896812D01*
X67954820Y9860502D01*
X67844506Y9801537D01*
X67747815Y9722185D01*
X67668463Y9625494D01*
X67609498Y9515180D01*
X67573188Y9395482D01*
X67560928Y9271000D01*
X67359902Y9271000D01*
X67310000Y9275915D01*
X67260098Y9271000D01*
X67110829Y9256298D01*
X66919313Y9198202D01*
X66742810Y9103860D01*
X66588104Y8976896D01*
X66556294Y8938135D01*
X64984160Y7366000D01*
X63249072Y7366000D01*
X63236812Y7490482D01*
X63200502Y7610180D01*
X63141537Y7720494D01*
X63113960Y7754097D01*
X63191171Y7761702D01*
X63382687Y7819798D01*
X63559190Y7914140D01*
X63713896Y8041104D01*
X63745712Y8079872D01*
X64691133Y9025292D01*
X64729896Y9057104D01*
X64856860Y9211810D01*
X64951202Y9388313D01*
X65009298Y9579829D01*
X65024000Y9729098D01*
X65024000Y9729099D01*
X65028915Y9779000D01*
X65024000Y9828902D01*
X65024000Y11848035D01*
X65169642Y11810635D01*
X65471553Y11794009D01*
X65770907Y11836603D01*
X66056199Y11936778D01*
X66205792Y12016739D01*
X66289475Y12270920D01*
X65405000Y13155395D01*
X65390858Y13141252D01*
X65211253Y13320857D01*
X65225395Y13335000D01*
X65584605Y13335000D01*
X66469080Y12450525D01*
X66723261Y12534208D01*
X66854158Y12806775D01*
X66929365Y13099642D01*
X66945991Y13401553D01*
X66903397Y13700907D01*
X66803222Y13986199D01*
X66723261Y14135792D01*
X66469080Y14219475D01*
X65584605Y13335000D01*
X65225395Y13335000D01*
X64340920Y14219475D01*
X64086739Y14135792D01*
X63955842Y13863225D01*
X63918608Y13718232D01*
X63237760Y14399080D01*
X64520525Y14399080D01*
X65405000Y13514605D01*
X66289475Y14399080D01*
X66205792Y14653261D01*
X65933225Y14784158D01*
X65640358Y14859365D01*
X65338447Y14875991D01*
X65039093Y14833397D01*
X64753801Y14733222D01*
X64604208Y14653261D01*
X64520525Y14399080D01*
X63237760Y14399080D01*
X60071000Y17565840D01*
X60071000Y17743229D01*
X60107451Y17767585D01*
X60337415Y17997549D01*
X60518097Y18267958D01*
X60642500Y18568293D01*
X60766903Y18267958D01*
X60947585Y17997549D01*
X61177549Y17767585D01*
X61447958Y17586903D01*
X61748421Y17462447D01*
X62067391Y17399000D01*
X62392609Y17399000D01*
X62711579Y17462447D01*
X63012042Y17586903D01*
X63282451Y17767585D01*
X63512415Y17997549D01*
X63693097Y18267958D01*
X63817553Y18568421D01*
X63881000Y18887391D01*
X63881000Y19212609D01*
X63817553Y19531579D01*
X63693097Y19832042D01*
X63512415Y20102451D01*
X63282451Y20332415D01*
X63012042Y20513097D01*
X62711579Y20637553D01*
X62392609Y20701000D01*
X62067391Y20701000D01*
X62024393Y20692447D01*
X61595000Y21121840D01*
X61595000Y23164747D01*
X61604820Y23159498D01*
G36*
X42803028Y45756908D02*
G01*
X42933961Y45669422D01*
X42893070Y45551535D01*
X43815000Y44629605D01*
X44736930Y45551535D01*
X44696039Y45669422D01*
X44826972Y45756908D01*
X44830549Y45760485D01*
X44871963Y45683006D01*
X44951315Y45586315D01*
X45048006Y45506963D01*
X45158320Y45447998D01*
X45278018Y45411688D01*
X45339001Y45405682D01*
X45339000Y44900813D01*
X45262877Y45119516D01*
X45176081Y45281902D01*
X44916535Y45371930D01*
X43994605Y44450000D01*
X44008748Y44435857D01*
X43829143Y44256252D01*
X43815000Y44270395D01*
X42893070Y43348465D01*
X42943773Y43202292D01*
X42826970Y43139860D01*
X42672264Y43012896D01*
X42640454Y42974135D01*
X41861868Y42195548D01*
X41823105Y42163736D01*
X41696141Y42009030D01*
X41679454Y41977810D01*
X41601799Y41832527D01*
X41543702Y41641010D01*
X41524085Y41441840D01*
X41529001Y41391929D01*
X41529001Y41311771D01*
X41492549Y41287415D01*
X41262585Y41057451D01*
X41081903Y40787042D01*
X40957500Y40486707D01*
X40833097Y40787042D01*
X40652415Y41057451D01*
X40422451Y41287415D01*
X40152042Y41468097D01*
X39851579Y41592553D01*
X39532609Y41656000D01*
X39207391Y41656000D01*
X38888421Y41592553D01*
X38587958Y41468097D01*
X38317549Y41287415D01*
X38087585Y41057451D01*
X37906903Y40787042D01*
X37782447Y40486579D01*
X37719000Y40167609D01*
X37719000Y39842391D01*
X37782447Y39523421D01*
X37906903Y39222958D01*
X38087585Y38952549D01*
X38317549Y38722585D01*
X38587958Y38541903D01*
X38888421Y38417447D01*
X39207391Y38354000D01*
X39532609Y38354000D01*
X39851579Y38417447D01*
X40152042Y38541903D01*
X40422451Y38722585D01*
X40652415Y38952549D01*
X40833097Y39222958D01*
X40957500Y39523293D01*
X41081903Y39222958D01*
X41262585Y38952549D01*
X41492549Y38722585D01*
X41762958Y38541903D01*
X42063421Y38417447D01*
X42382391Y38354000D01*
X42707609Y38354000D01*
X43026579Y38417447D01*
X43327042Y38541903D01*
X43597451Y38722585D01*
X43827415Y38952549D01*
X44008097Y39222958D01*
X44132500Y39523293D01*
X44256903Y39222958D01*
X44437585Y38952549D01*
X44667549Y38722585D01*
X44937958Y38541903D01*
X45238421Y38417447D01*
X45557391Y38354000D01*
X45882609Y38354000D01*
X46201579Y38417447D01*
X46502042Y38541903D01*
X46772451Y38722585D01*
X47002415Y38952549D01*
X47183097Y39222958D01*
X47307500Y39523293D01*
X47431903Y39222958D01*
X47612585Y38952549D01*
X47842549Y38722585D01*
X48112958Y38541903D01*
X48413421Y38417447D01*
X48732391Y38354000D01*
X49057609Y38354000D01*
X49376579Y38417447D01*
X49677042Y38541903D01*
X49947451Y38722585D01*
X50177415Y38952549D01*
X50358097Y39222958D01*
X50482500Y39523293D01*
X50606903Y39222958D01*
X50787585Y38952549D01*
X51017549Y38722585D01*
X51287958Y38541903D01*
X51588421Y38417447D01*
X51907391Y38354000D01*
X52232609Y38354000D01*
X52551579Y38417447D01*
X52852042Y38541903D01*
X53122451Y38722585D01*
X53352415Y38952549D01*
X53533097Y39222958D01*
X53657553Y39523421D01*
X53660158Y39536519D01*
X53737076Y39313330D01*
X53832140Y39135478D01*
X54098177Y39037782D01*
X55065395Y40005000D01*
X54098177Y40972218D01*
X53832140Y40874522D01*
X53689652Y40582179D01*
X53660549Y40471517D01*
X53657553Y40486579D01*
X53533097Y40787042D01*
X53352415Y41057451D01*
X53134959Y41274907D01*
X53135902Y41275000D01*
X53285171Y41289702D01*
X53476687Y41347798D01*
X53653190Y41442140D01*
X53807896Y41569104D01*
X53839712Y41607872D01*
X55293133Y43061292D01*
X55331896Y43093104D01*
X55458860Y43247810D01*
X55553202Y43424313D01*
X55611298Y43615829D01*
X55611522Y43618098D01*
X55619360Y43697687D01*
X55626000Y43765098D01*
X55626000Y43765105D01*
X55630914Y43814999D01*
X55626000Y43864893D01*
X55626000Y45405682D01*
X55674193Y45410428D01*
X55678622Y45395827D01*
X55698799Y45329313D01*
X55793141Y45152810D01*
X55880000Y45046972D01*
X55880000Y41532166D01*
X55822179Y41560348D01*
X55507656Y41643064D01*
X55183038Y41662831D01*
X54860802Y41618888D01*
X54553330Y41512924D01*
X54375478Y41417860D01*
X54277782Y41151823D01*
X55245000Y40184605D01*
X55259143Y40198747D01*
X55438748Y40019142D01*
X55424605Y40005000D01*
X55438748Y39990857D01*
X55259143Y39811252D01*
X55245000Y39825395D01*
X54277782Y38858177D01*
X54375478Y38592140D01*
X54667821Y38449652D01*
X54982344Y38366936D01*
X55306962Y38347169D01*
X55629198Y38391112D01*
X55880001Y38477546D01*
X55880001Y37758842D01*
X54570160Y36449000D01*
X52881902Y36449000D01*
X52832000Y36453915D01*
X52782098Y36449000D01*
X52632829Y36434298D01*
X52441313Y36376202D01*
X52264810Y36281860D01*
X52110104Y36154896D01*
X52078293Y36116134D01*
X51386872Y35424712D01*
X51348104Y35392896D01*
X51221140Y35238190D01*
X51126798Y35061686D01*
X51068702Y34870171D01*
X51068702Y34870170D01*
X51049085Y34671000D01*
X51054000Y34621098D01*
X51054000Y33691771D01*
X51017549Y33667415D01*
X50787585Y33437451D01*
X50606903Y33167042D01*
X50482447Y32866579D01*
X50479842Y32853481D01*
X50402924Y33076670D01*
X50307860Y33254522D01*
X50041823Y33352218D01*
X49074605Y32385000D01*
X50041823Y31417782D01*
X50307860Y31515478D01*
X50450348Y31807821D01*
X50479451Y31918483D01*
X50482447Y31903421D01*
X50606903Y31602958D01*
X50787585Y31332549D01*
X51017549Y31102585D01*
X51287958Y30921903D01*
X51588421Y30797447D01*
X51907391Y30734000D01*
X52232609Y30734000D01*
X52551579Y30797447D01*
X52852042Y30921903D01*
X53122451Y31102585D01*
X53352415Y31332549D01*
X53533097Y31602958D01*
X53657500Y31903293D01*
X53781903Y31602958D01*
X53962585Y31332549D01*
X54192549Y31102585D01*
X54462958Y30921903D01*
X54763421Y30797447D01*
X55082391Y30734000D01*
X55407609Y30734000D01*
X55726579Y30797447D01*
X56027042Y30921903D01*
X56297451Y31102585D01*
X56527415Y31332549D01*
X56708097Y31602958D01*
X56832553Y31903421D01*
X56896000Y32222391D01*
X56896000Y32547609D01*
X56832553Y32866579D01*
X56708097Y33167042D01*
X56527415Y33437451D01*
X56297451Y33667415D01*
X56027042Y33848097D01*
X55726579Y33972553D01*
X55407609Y34036000D01*
X55082391Y34036000D01*
X54763421Y33972553D01*
X54462958Y33848097D01*
X54192549Y33667415D01*
X53962585Y33437451D01*
X53781903Y33167042D01*
X53657500Y32866707D01*
X53533097Y33167042D01*
X53352415Y33437451D01*
X53122451Y33667415D01*
X53086000Y33691771D01*
X53086000Y34250160D01*
X53252841Y34417000D01*
X54941098Y34417000D01*
X54991000Y34412085D01*
X55040902Y34417000D01*
X55190171Y34431702D01*
X55381687Y34489798D01*
X55558190Y34584140D01*
X55712896Y34711104D01*
X55744712Y34749872D01*
X57366638Y36371797D01*
X57366638Y34509710D01*
X57378898Y34385228D01*
X57415208Y34265530D01*
X57474173Y34155216D01*
X57553525Y34058525D01*
X57650216Y33979173D01*
X57760530Y33920208D01*
X57880228Y33883898D01*
X58004710Y33871638D01*
X60105290Y33871638D01*
X60229772Y33883898D01*
X60349470Y33920208D01*
X60459784Y33979173D01*
X60556475Y34058525D01*
X60635827Y34155216D01*
X60694792Y34265530D01*
X60731102Y34385228D01*
X60743362Y34509710D01*
X60743362Y36610290D01*
X60731102Y36734772D01*
X60694792Y36854470D01*
X60635827Y36964784D01*
X60556475Y37061475D01*
X60459784Y37140827D01*
X60445930Y37148232D01*
X60548484Y37301716D01*
X60675525Y37608419D01*
X60740290Y37934013D01*
X60740290Y38265987D01*
X60675525Y38591581D01*
X60548484Y38898284D01*
X60364050Y39174310D01*
X60129310Y39409050D01*
X60045323Y39465168D01*
X60046668Y39468727D01*
X59055000Y40460395D01*
X59040858Y40446252D01*
X58861253Y40625857D01*
X58875395Y40640000D01*
X59234605Y40640000D01*
X60226273Y39648332D01*
X60495815Y39750167D01*
X60641728Y40048354D01*
X60726664Y40369277D01*
X60747359Y40700604D01*
X60703018Y41029602D01*
X60595344Y41343629D01*
X60495815Y41529833D01*
X60226273Y41631668D01*
X59234605Y40640000D01*
X58875395Y40640000D01*
X58861253Y40654142D01*
X59040858Y40833747D01*
X59055000Y40819605D01*
X60046668Y41811273D01*
X59944833Y42080815D01*
X59646646Y42226728D01*
X59325723Y42311664D01*
X58994396Y42332359D01*
X58665398Y42288018D01*
X58351371Y42180344D01*
X58165167Y42080815D01*
X58063333Y41811275D01*
X57947792Y41926816D01*
X57912000Y41891024D01*
X57912000Y45100909D01*
X57952141Y45025810D01*
X58079105Y44871104D01*
X58117868Y44839292D01*
X60986990Y41970169D01*
X60986991Y31689832D01*
X59895872Y30598712D01*
X59857104Y30566896D01*
X59730140Y30412190D01*
X59635798Y30235686D01*
X59596851Y30107294D01*
X59577702Y30044170D01*
X59558085Y29845000D01*
X59563000Y29795098D01*
X59563001Y20750912D01*
X59558085Y20701000D01*
X59565515Y20625567D01*
X59536579Y20637553D01*
X59217609Y20701000D01*
X58892391Y20701000D01*
X58573421Y20637553D01*
X58272958Y20513097D01*
X58002549Y20332415D01*
X57772585Y20102451D01*
X57591903Y19832042D01*
X57467500Y19531707D01*
X57343097Y19832042D01*
X57162415Y20102451D01*
X56932451Y20332415D01*
X56662042Y20513097D01*
X56361579Y20637553D01*
X56042609Y20701000D01*
X55717391Y20701000D01*
X55398421Y20637553D01*
X55097958Y20513097D01*
X54827549Y20332415D01*
X54597585Y20102451D01*
X54416903Y19832042D01*
X54292500Y19531707D01*
X54168097Y19832042D01*
X53987415Y20102451D01*
X53757451Y20332415D01*
X53487042Y20513097D01*
X53186579Y20637553D01*
X52867609Y20701000D01*
X52542391Y20701000D01*
X52223421Y20637553D01*
X51922958Y20513097D01*
X51652549Y20332415D01*
X51422585Y20102451D01*
X51241903Y19832042D01*
X51117500Y19531707D01*
X50993097Y19832042D01*
X50812415Y20102451D01*
X50582451Y20332415D01*
X50312042Y20513097D01*
X50011579Y20637553D01*
X49692609Y20701000D01*
X49367391Y20701000D01*
X49048421Y20637553D01*
X48747958Y20513097D01*
X48477549Y20332415D01*
X48247585Y20102451D01*
X48066903Y19832042D01*
X47942500Y19531707D01*
X47818097Y19832042D01*
X47637415Y20102451D01*
X47407451Y20332415D01*
X47137042Y20513097D01*
X46836579Y20637553D01*
X46517609Y20701000D01*
X46192391Y20701000D01*
X45873421Y20637553D01*
X45572958Y20513097D01*
X45302549Y20332415D01*
X45072585Y20102451D01*
X44891903Y19832042D01*
X44767447Y19531579D01*
X44704000Y19212609D01*
X44704000Y18887391D01*
X44767447Y18568421D01*
X44891903Y18267958D01*
X45072585Y17997549D01*
X45302549Y17767585D01*
X45572958Y17586903D01*
X45873421Y17462447D01*
X46192391Y17399000D01*
X46517609Y17399000D01*
X46836579Y17462447D01*
X47137042Y17586903D01*
X47407451Y17767585D01*
X47637415Y17997549D01*
X47818097Y18267958D01*
X47942500Y18568293D01*
X48066903Y18267958D01*
X48247585Y17997549D01*
X48477549Y17767585D01*
X48747958Y17586903D01*
X49048421Y17462447D01*
X49367391Y17399000D01*
X49692609Y17399000D01*
X50011579Y17462447D01*
X50312042Y17586903D01*
X50582451Y17767585D01*
X50812415Y17997549D01*
X50993097Y18267958D01*
X51117500Y18568293D01*
X51241903Y18267958D01*
X51422585Y17997549D01*
X51652549Y17767585D01*
X51922958Y17586903D01*
X52223421Y17462447D01*
X52542391Y17399000D01*
X52867609Y17399000D01*
X53186579Y17462447D01*
X53487042Y17586903D01*
X53757451Y17767585D01*
X53987415Y17997549D01*
X54168097Y18267958D01*
X54292500Y18568293D01*
X54416903Y18267958D01*
X54597585Y17997549D01*
X54827549Y17767585D01*
X55097958Y17586903D01*
X55398421Y17462447D01*
X55717391Y17399000D01*
X56042609Y17399000D01*
X56361579Y17462447D01*
X56662042Y17586903D01*
X56932451Y17767585D01*
X57162415Y17997549D01*
X57343097Y18267958D01*
X57467500Y18568293D01*
X57591903Y18267958D01*
X57772585Y17997549D01*
X58002549Y17767585D01*
X58039000Y17743229D01*
X58039000Y17194902D01*
X58034085Y17145000D01*
X58039000Y17095099D01*
X58053702Y16945830D01*
X58111798Y16754314D01*
X58206140Y16577810D01*
X58333104Y16423104D01*
X58371872Y16391288D01*
X61746431Y13016729D01*
X61447958Y12893097D01*
X61177549Y12712415D01*
X60947585Y12482451D01*
X60923229Y12446000D01*
X60361771Y12446000D01*
X60337415Y12482451D01*
X60107451Y12712415D01*
X60071000Y12736771D01*
X60071000Y13539098D01*
X60075915Y13589000D01*
X60056298Y13788171D01*
X60037150Y13851294D01*
X59998202Y13979687D01*
X59903860Y14156190D01*
X59776896Y14310896D01*
X59738133Y14342708D01*
X57776712Y16304128D01*
X57744896Y16342896D01*
X57590190Y16469860D01*
X57413687Y16564202D01*
X57222171Y16622298D01*
X57072902Y16637000D01*
X57023000Y16641915D01*
X56973098Y16637000D01*
X45269141Y16637000D01*
X45324298Y16818829D01*
X45343915Y17018000D01*
X45324298Y17217171D01*
X45266202Y17408687D01*
X45171860Y17585190D01*
X45044896Y17739896D01*
X44890190Y17866860D01*
X44713687Y17961202D01*
X44522171Y18019298D01*
X44372902Y18034000D01*
X43854841Y18034000D01*
X38777912Y23110928D01*
X39751000Y23110928D01*
X39875482Y23123188D01*
X39995180Y23159498D01*
X40105494Y23218463D01*
X40202185Y23297815D01*
X40281537Y23394506D01*
X40300704Y23430364D01*
X40492958Y23301903D01*
X40793421Y23177447D01*
X41112391Y23114000D01*
X41437609Y23114000D01*
X41756579Y23177447D01*
X42057042Y23301903D01*
X42327451Y23482585D01*
X42557415Y23712549D01*
X42738097Y23982958D01*
X42862553Y24283421D01*
X42926000Y24602391D01*
X42926000Y24927609D01*
X42862553Y25246579D01*
X42738097Y25547042D01*
X42557415Y25817451D01*
X42327451Y26047415D01*
X42057042Y26228097D01*
X41756579Y26352553D01*
X41437609Y26416000D01*
X41112391Y26416000D01*
X40793421Y26352553D01*
X40492958Y26228097D01*
X40300704Y26099636D01*
X40281537Y26135494D01*
X40202185Y26232185D01*
X40105494Y26311537D01*
X39997893Y26369052D01*
X40552841Y26924000D01*
X45339001Y26924000D01*
X45339001Y26419072D01*
X45339000Y26419072D01*
X45214518Y26406812D01*
X45094820Y26370502D01*
X44984506Y26311537D01*
X44887815Y26232185D01*
X44808463Y26135494D01*
X44749498Y26025180D01*
X44713188Y25905482D01*
X44700928Y25781000D01*
X44700928Y23749000D01*
X44713188Y23624518D01*
X44749498Y23504820D01*
X44808463Y23394506D01*
X44887815Y23297815D01*
X44984506Y23218463D01*
X45094820Y23159498D01*
X45214518Y23123188D01*
X45339000Y23110928D01*
X47371000Y23110928D01*
X47495482Y23123188D01*
X47615180Y23159498D01*
X47725494Y23218463D01*
X47822185Y23297815D01*
X47901537Y23394506D01*
X47920704Y23430364D01*
X48112958Y23301903D01*
X48413421Y23177447D01*
X48732391Y23114000D01*
X49057609Y23114000D01*
X49376579Y23177447D01*
X49677042Y23301903D01*
X49947451Y23482585D01*
X50177415Y23712549D01*
X50358097Y23982958D01*
X50482553Y24283421D01*
X50546000Y24602391D01*
X50546000Y24927609D01*
X50482553Y25246579D01*
X50358097Y25547042D01*
X50177415Y25817451D01*
X49947451Y26047415D01*
X49677042Y26228097D01*
X49376579Y26352553D01*
X49057609Y26416000D01*
X48732391Y26416000D01*
X48413421Y26352553D01*
X48112958Y26228097D01*
X47920704Y26099636D01*
X47901537Y26135494D01*
X47822185Y26232185D01*
X47725494Y26311537D01*
X47615180Y26370502D01*
X47495482Y26406812D01*
X47371000Y26419072D01*
X47371000Y26924000D01*
X53594001Y26924000D01*
X53594001Y26419072D01*
X53594000Y26419072D01*
X53469518Y26406812D01*
X53349820Y26370502D01*
X53239506Y26311537D01*
X53142815Y26232185D01*
X53063463Y26135494D01*
X53004498Y26025180D01*
X52968188Y25905482D01*
X52955928Y25781000D01*
X52955928Y23749000D01*
X52968188Y23624518D01*
X53004498Y23504820D01*
X53063463Y23394506D01*
X53142815Y23297815D01*
X53239506Y23218463D01*
X53349820Y23159498D01*
X53469518Y23123188D01*
X53594000Y23110928D01*
X55626000Y23110928D01*
X55750482Y23123188D01*
X55870180Y23159498D01*
X55980494Y23218463D01*
X56077185Y23297815D01*
X56156537Y23394506D01*
X56175704Y23430364D01*
X56367958Y23301903D01*
X56668421Y23177447D01*
X56987391Y23114000D01*
X57312609Y23114000D01*
X57631579Y23177447D01*
X57932042Y23301903D01*
X58202451Y23482585D01*
X58432415Y23712549D01*
X58613097Y23982958D01*
X58737553Y24283421D01*
X58801000Y24602391D01*
X58801000Y24927609D01*
X58737553Y25246579D01*
X58613097Y25547042D01*
X58432415Y25817451D01*
X58202451Y26047415D01*
X57932042Y26228097D01*
X57631579Y26352553D01*
X57312609Y26416000D01*
X56987391Y26416000D01*
X56668421Y26352553D01*
X56367958Y26228097D01*
X56175704Y26099636D01*
X56156537Y26135494D01*
X56077185Y26232185D01*
X55980494Y26311537D01*
X55870180Y26370502D01*
X55750482Y26406812D01*
X55626000Y26419072D01*
X55626000Y27890098D01*
X55630915Y27940000D01*
X55611298Y28139171D01*
X55553202Y28330687D01*
X55458860Y28507190D01*
X55331896Y28661896D01*
X55177190Y28788860D01*
X55000687Y28883202D01*
X54809171Y28941298D01*
X54659902Y28956000D01*
X54610000Y28960915D01*
X54560098Y28956000D01*
X46404902Y28956000D01*
X46355000Y28960915D01*
X46305098Y28956000D01*
X43727840Y28956000D01*
X45514393Y30742553D01*
X45557391Y30734000D01*
X45882609Y30734000D01*
X46201579Y30797447D01*
X46502042Y30921903D01*
X46772451Y31102585D01*
X46908043Y31238177D01*
X47927782Y31238177D01*
X48025478Y30972140D01*
X48317821Y30829652D01*
X48632344Y30746936D01*
X48956962Y30727169D01*
X49279198Y30771112D01*
X49586670Y30877076D01*
X49764522Y30972140D01*
X49862218Y31238177D01*
X48895000Y32205395D01*
X47927782Y31238177D01*
X46908043Y31238177D01*
X47002415Y31332549D01*
X47183097Y31602958D01*
X47307553Y31903421D01*
X47310158Y31916519D01*
X47387076Y31693330D01*
X47482140Y31515478D01*
X47748177Y31417782D01*
X48715395Y32385000D01*
X47748177Y33352218D01*
X47482140Y33254522D01*
X47339652Y32962179D01*
X47310549Y32851517D01*
X47307553Y32866579D01*
X47183097Y33167042D01*
X47002415Y33437451D01*
X46908043Y33531823D01*
X47927782Y33531823D01*
X48895000Y32564605D01*
X49862218Y33531823D01*
X49764522Y33797860D01*
X49472179Y33940348D01*
X49157656Y34023064D01*
X48833038Y34042831D01*
X48510802Y33998888D01*
X48203330Y33892924D01*
X48025478Y33797860D01*
X47927782Y33531823D01*
X46908043Y33531823D01*
X46772451Y33667415D01*
X46502042Y33848097D01*
X46201579Y33972553D01*
X45882609Y34036000D01*
X45557391Y34036000D01*
X45238421Y33972553D01*
X44937958Y33848097D01*
X44667549Y33667415D01*
X44437585Y33437451D01*
X44256903Y33167042D01*
X44132447Y32866579D01*
X44129842Y32853481D01*
X44052924Y33076670D01*
X43957860Y33254522D01*
X43691823Y33352218D01*
X42724605Y32385000D01*
X42738748Y32370857D01*
X42559143Y32191252D01*
X42545000Y32205395D01*
X41577782Y31238177D01*
X41675478Y30972140D01*
X41967821Y30829652D01*
X42282344Y30746936D01*
X42606962Y30727169D01*
X42628229Y30730069D01*
X42251160Y30353000D01*
X38911901Y30353000D01*
X38861999Y30357915D01*
X38662829Y30338298D01*
X38471313Y30280202D01*
X38294810Y30185860D01*
X38140104Y30058896D01*
X38108293Y30020134D01*
X36019872Y27931712D01*
X35981104Y27899896D01*
X35854140Y27745190D01*
X35759798Y27568686D01*
X35734777Y27486202D01*
X35701702Y27377170D01*
X35682085Y27178000D01*
X35687000Y27128098D01*
X35687001Y26406812D01*
X35687000Y24804840D01*
X35560000Y24931840D01*
X35560000Y32547609D01*
X37719000Y32547609D01*
X37719000Y32222391D01*
X37782447Y31903421D01*
X37906903Y31602958D01*
X38087585Y31332549D01*
X38317549Y31102585D01*
X38587958Y30921903D01*
X38888421Y30797447D01*
X39207391Y30734000D01*
X39532609Y30734000D01*
X39851579Y30797447D01*
X40152042Y30921903D01*
X40422451Y31102585D01*
X40652415Y31332549D01*
X40833097Y31602958D01*
X40957553Y31903421D01*
X40960158Y31916519D01*
X41037076Y31693330D01*
X41132140Y31515478D01*
X41398177Y31417782D01*
X42365395Y32385000D01*
X41398177Y33352218D01*
X41132140Y33254522D01*
X40989652Y32962179D01*
X40960549Y32851517D01*
X40957553Y32866579D01*
X40833097Y33167042D01*
X40652415Y33437451D01*
X40558043Y33531823D01*
X41577782Y33531823D01*
X42545000Y32564605D01*
X43512218Y33531823D01*
X43414522Y33797860D01*
X43122179Y33940348D01*
X42807656Y34023064D01*
X42483038Y34042831D01*
X42160802Y33998888D01*
X41853330Y33892924D01*
X41675478Y33797860D01*
X41577782Y33531823D01*
X40558043Y33531823D01*
X40422451Y33667415D01*
X40152042Y33848097D01*
X39851579Y33972553D01*
X39532609Y34036000D01*
X39207391Y34036000D01*
X38888421Y33972553D01*
X38587958Y33848097D01*
X38317549Y33667415D01*
X38087585Y33437451D01*
X37906903Y33167042D01*
X37782447Y32866579D01*
X37719000Y32547609D01*
X35560000Y32547609D01*
X35560000Y42886160D01*
X37059366Y44385526D01*
X42221123Y44385526D01*
X42264328Y44075815D01*
X42367123Y43780484D01*
X42453919Y43618098D01*
X42713465Y43528070D01*
X43635395Y44450000D01*
X42713465Y45371930D01*
X42453919Y45281902D01*
X42317776Y45000384D01*
X42239171Y44697714D01*
X42221123Y44385526D01*
X37059366Y44385526D01*
X38647841Y45974000D01*
X42585936Y45974000D01*
X42803028Y45756908D01*
X42803028Y45756908D01*
G37*
X42803028Y45756908D02*
X42933961Y45669422D01*
X42893070Y45551535D01*
X43815000Y44629605D01*
X44736930Y45551535D01*
X44696039Y45669422D01*
X44826972Y45756908D01*
X44830549Y45760485D01*
X44871963Y45683006D01*
X44951315Y45586315D01*
X45048006Y45506963D01*
X45158320Y45447998D01*
X45278018Y45411688D01*
X45339001Y45405682D01*
X45339000Y44900813D01*
X45262877Y45119516D01*
X45176081Y45281902D01*
X44916535Y45371930D01*
X43994605Y44450000D01*
X44008748Y44435857D01*
X43829143Y44256252D01*
X43815000Y44270395D01*
X42893070Y43348465D01*
X42943773Y43202292D01*
X42826970Y43139860D01*
X42672264Y43012896D01*
X42640454Y42974135D01*
X41861868Y42195548D01*
X41823105Y42163736D01*
X41696141Y42009030D01*
X41679454Y41977810D01*
X41601799Y41832527D01*
X41543702Y41641010D01*
X41524085Y41441840D01*
X41529001Y41391929D01*
X41529001Y41311771D01*
X41492549Y41287415D01*
X41262585Y41057451D01*
X41081903Y40787042D01*
X40957500Y40486707D01*
X40833097Y40787042D01*
X40652415Y41057451D01*
X40422451Y41287415D01*
X40152042Y41468097D01*
X39851579Y41592553D01*
X39532609Y41656000D01*
X39207391Y41656000D01*
X38888421Y41592553D01*
X38587958Y41468097D01*
X38317549Y41287415D01*
X38087585Y41057451D01*
X37906903Y40787042D01*
X37782447Y40486579D01*
X37719000Y40167609D01*
X37719000Y39842391D01*
X37782447Y39523421D01*
X37906903Y39222958D01*
X38087585Y38952549D01*
X38317549Y38722585D01*
X38587958Y38541903D01*
X38888421Y38417447D01*
X39207391Y38354000D01*
X39532609Y38354000D01*
X39851579Y38417447D01*
X40152042Y38541903D01*
X40422451Y38722585D01*
X40652415Y38952549D01*
X40833097Y39222958D01*
X40957500Y39523293D01*
X41081903Y39222958D01*
X41262585Y38952549D01*
X41492549Y38722585D01*
X41762958Y38541903D01*
X42063421Y38417447D01*
X42382391Y38354000D01*
X42707609Y38354000D01*
X43026579Y38417447D01*
X43327042Y38541903D01*
X43597451Y38722585D01*
X43827415Y38952549D01*
X44008097Y39222958D01*
X44132500Y39523293D01*
X44256903Y39222958D01*
X44437585Y38952549D01*
X44667549Y38722585D01*
X44937958Y38541903D01*
X45238421Y38417447D01*
X45557391Y38354000D01*
X45882609Y38354000D01*
X46201579Y38417447D01*
X46502042Y38541903D01*
X46772451Y38722585D01*
X47002415Y38952549D01*
X47183097Y39222958D01*
X47307500Y39523293D01*
X47431903Y39222958D01*
X47612585Y38952549D01*
X47842549Y38722585D01*
X48112958Y38541903D01*
X48413421Y38417447D01*
X48732391Y38354000D01*
X49057609Y38354000D01*
X49376579Y38417447D01*
X49677042Y38541903D01*
X49947451Y38722585D01*
X50177415Y38952549D01*
X50358097Y39222958D01*
X50482500Y39523293D01*
X50606903Y39222958D01*
X50787585Y38952549D01*
X51017549Y38722585D01*
X51287958Y38541903D01*
X51588421Y38417447D01*
X51907391Y38354000D01*
X52232609Y38354000D01*
X52551579Y38417447D01*
X52852042Y38541903D01*
X53122451Y38722585D01*
X53352415Y38952549D01*
X53533097Y39222958D01*
X53657553Y39523421D01*
X53660158Y39536519D01*
X53737076Y39313330D01*
X53832140Y39135478D01*
X54098177Y39037782D01*
X55065395Y40005000D01*
X54098177Y40972218D01*
X53832140Y40874522D01*
X53689652Y40582179D01*
X53660549Y40471517D01*
X53657553Y40486579D01*
X53533097Y40787042D01*
X53352415Y41057451D01*
X53134959Y41274907D01*
X53135902Y41275000D01*
X53285171Y41289702D01*
X53476687Y41347798D01*
X53653190Y41442140D01*
X53807896Y41569104D01*
X53839712Y41607872D01*
X55293133Y43061292D01*
X55331896Y43093104D01*
X55458860Y43247810D01*
X55553202Y43424313D01*
X55611298Y43615829D01*
X55611522Y43618098D01*
X55619360Y43697687D01*
X55626000Y43765098D01*
X55626000Y43765105D01*
X55630914Y43814999D01*
X55626000Y43864893D01*
X55626000Y45405682D01*
X55674193Y45410428D01*
X55678622Y45395827D01*
X55698799Y45329313D01*
X55793141Y45152810D01*
X55880000Y45046972D01*
X55880000Y41532166D01*
X55822179Y41560348D01*
X55507656Y41643064D01*
X55183038Y41662831D01*
X54860802Y41618888D01*
X54553330Y41512924D01*
X54375478Y41417860D01*
X54277782Y41151823D01*
X55245000Y40184605D01*
X55259143Y40198747D01*
X55438748Y40019142D01*
X55424605Y40005000D01*
X55438748Y39990857D01*
X55259143Y39811252D01*
X55245000Y39825395D01*
X54277782Y38858177D01*
X54375478Y38592140D01*
X54667821Y38449652D01*
X54982344Y38366936D01*
X55306962Y38347169D01*
X55629198Y38391112D01*
X55880001Y38477546D01*
X55880001Y37758842D01*
X54570160Y36449000D01*
X52881902Y36449000D01*
X52832000Y36453915D01*
X52782098Y36449000D01*
X52632829Y36434298D01*
X52441313Y36376202D01*
X52264810Y36281860D01*
X52110104Y36154896D01*
X52078293Y36116134D01*
X51386872Y35424712D01*
X51348104Y35392896D01*
X51221140Y35238190D01*
X51126798Y35061686D01*
X51068702Y34870171D01*
X51068702Y34870170D01*
X51049085Y34671000D01*
X51054000Y34621098D01*
X51054000Y33691771D01*
X51017549Y33667415D01*
X50787585Y33437451D01*
X50606903Y33167042D01*
X50482447Y32866579D01*
X50479842Y32853481D01*
X50402924Y33076670D01*
X50307860Y33254522D01*
X50041823Y33352218D01*
X49074605Y32385000D01*
X50041823Y31417782D01*
X50307860Y31515478D01*
X50450348Y31807821D01*
X50479451Y31918483D01*
X50482447Y31903421D01*
X50606903Y31602958D01*
X50787585Y31332549D01*
X51017549Y31102585D01*
X51287958Y30921903D01*
X51588421Y30797447D01*
X51907391Y30734000D01*
X52232609Y30734000D01*
X52551579Y30797447D01*
X52852042Y30921903D01*
X53122451Y31102585D01*
X53352415Y31332549D01*
X53533097Y31602958D01*
X53657500Y31903293D01*
X53781903Y31602958D01*
X53962585Y31332549D01*
X54192549Y31102585D01*
X54462958Y30921903D01*
X54763421Y30797447D01*
X55082391Y30734000D01*
X55407609Y30734000D01*
X55726579Y30797447D01*
X56027042Y30921903D01*
X56297451Y31102585D01*
X56527415Y31332549D01*
X56708097Y31602958D01*
X56832553Y31903421D01*
X56896000Y32222391D01*
X56896000Y32547609D01*
X56832553Y32866579D01*
X56708097Y33167042D01*
X56527415Y33437451D01*
X56297451Y33667415D01*
X56027042Y33848097D01*
X55726579Y33972553D01*
X55407609Y34036000D01*
X55082391Y34036000D01*
X54763421Y33972553D01*
X54462958Y33848097D01*
X54192549Y33667415D01*
X53962585Y33437451D01*
X53781903Y33167042D01*
X53657500Y32866707D01*
X53533097Y33167042D01*
X53352415Y33437451D01*
X53122451Y33667415D01*
X53086000Y33691771D01*
X53086000Y34250160D01*
X53252841Y34417000D01*
X54941098Y34417000D01*
X54991000Y34412085D01*
X55040902Y34417000D01*
X55190171Y34431702D01*
X55381687Y34489798D01*
X55558190Y34584140D01*
X55712896Y34711104D01*
X55744712Y34749872D01*
X57366638Y36371797D01*
X57366638Y34509710D01*
X57378898Y34385228D01*
X57415208Y34265530D01*
X57474173Y34155216D01*
X57553525Y34058525D01*
X57650216Y33979173D01*
X57760530Y33920208D01*
X57880228Y33883898D01*
X58004710Y33871638D01*
X60105290Y33871638D01*
X60229772Y33883898D01*
X60349470Y33920208D01*
X60459784Y33979173D01*
X60556475Y34058525D01*
X60635827Y34155216D01*
X60694792Y34265530D01*
X60731102Y34385228D01*
X60743362Y34509710D01*
X60743362Y36610290D01*
X60731102Y36734772D01*
X60694792Y36854470D01*
X60635827Y36964784D01*
X60556475Y37061475D01*
X60459784Y37140827D01*
X60445930Y37148232D01*
X60548484Y37301716D01*
X60675525Y37608419D01*
X60740290Y37934013D01*
X60740290Y38265987D01*
X60675525Y38591581D01*
X60548484Y38898284D01*
X60364050Y39174310D01*
X60129310Y39409050D01*
X60045323Y39465168D01*
X60046668Y39468727D01*
X59055000Y40460395D01*
X59040858Y40446252D01*
X58861253Y40625857D01*
X58875395Y40640000D01*
X59234605Y40640000D01*
X60226273Y39648332D01*
X60495815Y39750167D01*
X60641728Y40048354D01*
X60726664Y40369277D01*
X60747359Y40700604D01*
X60703018Y41029602D01*
X60595344Y41343629D01*
X60495815Y41529833D01*
X60226273Y41631668D01*
X59234605Y40640000D01*
X58875395Y40640000D01*
X58861253Y40654142D01*
X59040858Y40833747D01*
X59055000Y40819605D01*
X60046668Y41811273D01*
X59944833Y42080815D01*
X59646646Y42226728D01*
X59325723Y42311664D01*
X58994396Y42332359D01*
X58665398Y42288018D01*
X58351371Y42180344D01*
X58165167Y42080815D01*
X58063333Y41811275D01*
X57947792Y41926816D01*
X57912000Y41891024D01*
X57912000Y45100909D01*
X57952141Y45025810D01*
X58079105Y44871104D01*
X58117868Y44839292D01*
X60986990Y41970169D01*
X60986991Y31689832D01*
X59895872Y30598712D01*
X59857104Y30566896D01*
X59730140Y30412190D01*
X59635798Y30235686D01*
X59596851Y30107294D01*
X59577702Y30044170D01*
X59558085Y29845000D01*
X59563000Y29795098D01*
X59563001Y20750912D01*
X59558085Y20701000D01*
X59565515Y20625567D01*
X59536579Y20637553D01*
X59217609Y20701000D01*
X58892391Y20701000D01*
X58573421Y20637553D01*
X58272958Y20513097D01*
X58002549Y20332415D01*
X57772585Y20102451D01*
X57591903Y19832042D01*
X57467500Y19531707D01*
X57343097Y19832042D01*
X57162415Y20102451D01*
X56932451Y20332415D01*
X56662042Y20513097D01*
X56361579Y20637553D01*
X56042609Y20701000D01*
X55717391Y20701000D01*
X55398421Y20637553D01*
X55097958Y20513097D01*
X54827549Y20332415D01*
X54597585Y20102451D01*
X54416903Y19832042D01*
X54292500Y19531707D01*
X54168097Y19832042D01*
X53987415Y20102451D01*
X53757451Y20332415D01*
X53487042Y20513097D01*
X53186579Y20637553D01*
X52867609Y20701000D01*
X52542391Y20701000D01*
X52223421Y20637553D01*
X51922958Y20513097D01*
X51652549Y20332415D01*
X51422585Y20102451D01*
X51241903Y19832042D01*
X51117500Y19531707D01*
X50993097Y19832042D01*
X50812415Y20102451D01*
X50582451Y20332415D01*
X50312042Y20513097D01*
X50011579Y20637553D01*
X49692609Y20701000D01*
X49367391Y20701000D01*
X49048421Y20637553D01*
X48747958Y20513097D01*
X48477549Y20332415D01*
X48247585Y20102451D01*
X48066903Y19832042D01*
X47942500Y19531707D01*
X47818097Y19832042D01*
X47637415Y20102451D01*
X47407451Y20332415D01*
X47137042Y20513097D01*
X46836579Y20637553D01*
X46517609Y20701000D01*
X46192391Y20701000D01*
X45873421Y20637553D01*
X45572958Y20513097D01*
X45302549Y20332415D01*
X45072585Y20102451D01*
X44891903Y19832042D01*
X44767447Y19531579D01*
X44704000Y19212609D01*
X44704000Y18887391D01*
X44767447Y18568421D01*
X44891903Y18267958D01*
X45072585Y17997549D01*
X45302549Y17767585D01*
X45572958Y17586903D01*
X45873421Y17462447D01*
X46192391Y17399000D01*
X46517609Y17399000D01*
X46836579Y17462447D01*
X47137042Y17586903D01*
X47407451Y17767585D01*
X47637415Y17997549D01*
X47818097Y18267958D01*
X47942500Y18568293D01*
X48066903Y18267958D01*
X48247585Y17997549D01*
X48477549Y17767585D01*
X48747958Y17586903D01*
X49048421Y17462447D01*
X49367391Y17399000D01*
X49692609Y17399000D01*
X50011579Y17462447D01*
X50312042Y17586903D01*
X50582451Y17767585D01*
X50812415Y17997549D01*
X50993097Y18267958D01*
X51117500Y18568293D01*
X51241903Y18267958D01*
X51422585Y17997549D01*
X51652549Y17767585D01*
X51922958Y17586903D01*
X52223421Y17462447D01*
X52542391Y17399000D01*
X52867609Y17399000D01*
X53186579Y17462447D01*
X53487042Y17586903D01*
X53757451Y17767585D01*
X53987415Y17997549D01*
X54168097Y18267958D01*
X54292500Y18568293D01*
X54416903Y18267958D01*
X54597585Y17997549D01*
X54827549Y17767585D01*
X55097958Y17586903D01*
X55398421Y17462447D01*
X55717391Y17399000D01*
X56042609Y17399000D01*
X56361579Y17462447D01*
X56662042Y17586903D01*
X56932451Y17767585D01*
X57162415Y17997549D01*
X57343097Y18267958D01*
X57467500Y18568293D01*
X57591903Y18267958D01*
X57772585Y17997549D01*
X58002549Y17767585D01*
X58039000Y17743229D01*
X58039000Y17194902D01*
X58034085Y17145000D01*
X58039000Y17095099D01*
X58053702Y16945830D01*
X58111798Y16754314D01*
X58206140Y16577810D01*
X58333104Y16423104D01*
X58371872Y16391288D01*
X61746431Y13016729D01*
X61447958Y12893097D01*
X61177549Y12712415D01*
X60947585Y12482451D01*
X60923229Y12446000D01*
X60361771Y12446000D01*
X60337415Y12482451D01*
X60107451Y12712415D01*
X60071000Y12736771D01*
X60071000Y13539098D01*
X60075915Y13589000D01*
X60056298Y13788171D01*
X60037150Y13851294D01*
X59998202Y13979687D01*
X59903860Y14156190D01*
X59776896Y14310896D01*
X59738133Y14342708D01*
X57776712Y16304128D01*
X57744896Y16342896D01*
X57590190Y16469860D01*
X57413687Y16564202D01*
X57222171Y16622298D01*
X57072902Y16637000D01*
X57023000Y16641915D01*
X56973098Y16637000D01*
X45269141Y16637000D01*
X45324298Y16818829D01*
X45343915Y17018000D01*
X45324298Y17217171D01*
X45266202Y17408687D01*
X45171860Y17585190D01*
X45044896Y17739896D01*
X44890190Y17866860D01*
X44713687Y17961202D01*
X44522171Y18019298D01*
X44372902Y18034000D01*
X43854841Y18034000D01*
X38777912Y23110928D01*
X39751000Y23110928D01*
X39875482Y23123188D01*
X39995180Y23159498D01*
X40105494Y23218463D01*
X40202185Y23297815D01*
X40281537Y23394506D01*
X40300704Y23430364D01*
X40492958Y23301903D01*
X40793421Y23177447D01*
X41112391Y23114000D01*
X41437609Y23114000D01*
X41756579Y23177447D01*
X42057042Y23301903D01*
X42327451Y23482585D01*
X42557415Y23712549D01*
X42738097Y23982958D01*
X42862553Y24283421D01*
X42926000Y24602391D01*
X42926000Y24927609D01*
X42862553Y25246579D01*
X42738097Y25547042D01*
X42557415Y25817451D01*
X42327451Y26047415D01*
X42057042Y26228097D01*
X41756579Y26352553D01*
X41437609Y26416000D01*
X41112391Y26416000D01*
X40793421Y26352553D01*
X40492958Y26228097D01*
X40300704Y26099636D01*
X40281537Y26135494D01*
X40202185Y26232185D01*
X40105494Y26311537D01*
X39997893Y26369052D01*
X40552841Y26924000D01*
X45339001Y26924000D01*
X45339001Y26419072D01*
X45339000Y26419072D01*
X45214518Y26406812D01*
X45094820Y26370502D01*
X44984506Y26311537D01*
X44887815Y26232185D01*
X44808463Y26135494D01*
X44749498Y26025180D01*
X44713188Y25905482D01*
X44700928Y25781000D01*
X44700928Y23749000D01*
X44713188Y23624518D01*
X44749498Y23504820D01*
X44808463Y23394506D01*
X44887815Y23297815D01*
X44984506Y23218463D01*
X45094820Y23159498D01*
X45214518Y23123188D01*
X45339000Y23110928D01*
X47371000Y23110928D01*
X47495482Y23123188D01*
X47615180Y23159498D01*
X47725494Y23218463D01*
X47822185Y23297815D01*
X47901537Y23394506D01*
X47920704Y23430364D01*
X48112958Y23301903D01*
X48413421Y23177447D01*
X48732391Y23114000D01*
X49057609Y23114000D01*
X49376579Y23177447D01*
X49677042Y23301903D01*
X49947451Y23482585D01*
X50177415Y23712549D01*
X50358097Y23982958D01*
X50482553Y24283421D01*
X50546000Y24602391D01*
X50546000Y24927609D01*
X50482553Y25246579D01*
X50358097Y25547042D01*
X50177415Y25817451D01*
X49947451Y26047415D01*
X49677042Y26228097D01*
X49376579Y26352553D01*
X49057609Y26416000D01*
X48732391Y26416000D01*
X48413421Y26352553D01*
X48112958Y26228097D01*
X47920704Y26099636D01*
X47901537Y26135494D01*
X47822185Y26232185D01*
X47725494Y26311537D01*
X47615180Y26370502D01*
X47495482Y26406812D01*
X47371000Y26419072D01*
X47371000Y26924000D01*
X53594001Y26924000D01*
X53594001Y26419072D01*
X53594000Y26419072D01*
X53469518Y26406812D01*
X53349820Y26370502D01*
X53239506Y26311537D01*
X53142815Y26232185D01*
X53063463Y26135494D01*
X53004498Y26025180D01*
X52968188Y25905482D01*
X52955928Y25781000D01*
X52955928Y23749000D01*
X52968188Y23624518D01*
X53004498Y23504820D01*
X53063463Y23394506D01*
X53142815Y23297815D01*
X53239506Y23218463D01*
X53349820Y23159498D01*
X53469518Y23123188D01*
X53594000Y23110928D01*
X55626000Y23110928D01*
X55750482Y23123188D01*
X55870180Y23159498D01*
X55980494Y23218463D01*
X56077185Y23297815D01*
X56156537Y23394506D01*
X56175704Y23430364D01*
X56367958Y23301903D01*
X56668421Y23177447D01*
X56987391Y23114000D01*
X57312609Y23114000D01*
X57631579Y23177447D01*
X57932042Y23301903D01*
X58202451Y23482585D01*
X58432415Y23712549D01*
X58613097Y23982958D01*
X58737553Y24283421D01*
X58801000Y24602391D01*
X58801000Y24927609D01*
X58737553Y25246579D01*
X58613097Y25547042D01*
X58432415Y25817451D01*
X58202451Y26047415D01*
X57932042Y26228097D01*
X57631579Y26352553D01*
X57312609Y26416000D01*
X56987391Y26416000D01*
X56668421Y26352553D01*
X56367958Y26228097D01*
X56175704Y26099636D01*
X56156537Y26135494D01*
X56077185Y26232185D01*
X55980494Y26311537D01*
X55870180Y26370502D01*
X55750482Y26406812D01*
X55626000Y26419072D01*
X55626000Y27890098D01*
X55630915Y27940000D01*
X55611298Y28139171D01*
X55553202Y28330687D01*
X55458860Y28507190D01*
X55331896Y28661896D01*
X55177190Y28788860D01*
X55000687Y28883202D01*
X54809171Y28941298D01*
X54659902Y28956000D01*
X54610000Y28960915D01*
X54560098Y28956000D01*
X46404902Y28956000D01*
X46355000Y28960915D01*
X46305098Y28956000D01*
X43727840Y28956000D01*
X45514393Y30742553D01*
X45557391Y30734000D01*
X45882609Y30734000D01*
X46201579Y30797447D01*
X46502042Y30921903D01*
X46772451Y31102585D01*
X46908043Y31238177D01*
X47927782Y31238177D01*
X48025478Y30972140D01*
X48317821Y30829652D01*
X48632344Y30746936D01*
X48956962Y30727169D01*
X49279198Y30771112D01*
X49586670Y30877076D01*
X49764522Y30972140D01*
X49862218Y31238177D01*
X48895000Y32205395D01*
X47927782Y31238177D01*
X46908043Y31238177D01*
X47002415Y31332549D01*
X47183097Y31602958D01*
X47307553Y31903421D01*
X47310158Y31916519D01*
X47387076Y31693330D01*
X47482140Y31515478D01*
X47748177Y31417782D01*
X48715395Y32385000D01*
X47748177Y33352218D01*
X47482140Y33254522D01*
X47339652Y32962179D01*
X47310549Y32851517D01*
X47307553Y32866579D01*
X47183097Y33167042D01*
X47002415Y33437451D01*
X46908043Y33531823D01*
X47927782Y33531823D01*
X48895000Y32564605D01*
X49862218Y33531823D01*
X49764522Y33797860D01*
X49472179Y33940348D01*
X49157656Y34023064D01*
X48833038Y34042831D01*
X48510802Y33998888D01*
X48203330Y33892924D01*
X48025478Y33797860D01*
X47927782Y33531823D01*
X46908043Y33531823D01*
X46772451Y33667415D01*
X46502042Y33848097D01*
X46201579Y33972553D01*
X45882609Y34036000D01*
X45557391Y34036000D01*
X45238421Y33972553D01*
X44937958Y33848097D01*
X44667549Y33667415D01*
X44437585Y33437451D01*
X44256903Y33167042D01*
X44132447Y32866579D01*
X44129842Y32853481D01*
X44052924Y33076670D01*
X43957860Y33254522D01*
X43691823Y33352218D01*
X42724605Y32385000D01*
X42738748Y32370857D01*
X42559143Y32191252D01*
X42545000Y32205395D01*
X41577782Y31238177D01*
X41675478Y30972140D01*
X41967821Y30829652D01*
X42282344Y30746936D01*
X42606962Y30727169D01*
X42628229Y30730069D01*
X42251160Y30353000D01*
X38911901Y30353000D01*
X38861999Y30357915D01*
X38662829Y30338298D01*
X38471313Y30280202D01*
X38294810Y30185860D01*
X38140104Y30058896D01*
X38108293Y30020134D01*
X36019872Y27931712D01*
X35981104Y27899896D01*
X35854140Y27745190D01*
X35759798Y27568686D01*
X35734777Y27486202D01*
X35701702Y27377170D01*
X35682085Y27178000D01*
X35687000Y27128098D01*
X35687001Y26406812D01*
X35687000Y24804840D01*
X35560000Y24931840D01*
X35560000Y32547609D01*
X37719000Y32547609D01*
X37719000Y32222391D01*
X37782447Y31903421D01*
X37906903Y31602958D01*
X38087585Y31332549D01*
X38317549Y31102585D01*
X38587958Y30921903D01*
X38888421Y30797447D01*
X39207391Y30734000D01*
X39532609Y30734000D01*
X39851579Y30797447D01*
X40152042Y30921903D01*
X40422451Y31102585D01*
X40652415Y31332549D01*
X40833097Y31602958D01*
X40957553Y31903421D01*
X40960158Y31916519D01*
X41037076Y31693330D01*
X41132140Y31515478D01*
X41398177Y31417782D01*
X42365395Y32385000D01*
X41398177Y33352218D01*
X41132140Y33254522D01*
X40989652Y32962179D01*
X40960549Y32851517D01*
X40957553Y32866579D01*
X40833097Y33167042D01*
X40652415Y33437451D01*
X40558043Y33531823D01*
X41577782Y33531823D01*
X42545000Y32564605D01*
X43512218Y33531823D01*
X43414522Y33797860D01*
X43122179Y33940348D01*
X42807656Y34023064D01*
X42483038Y34042831D01*
X42160802Y33998888D01*
X41853330Y33892924D01*
X41675478Y33797860D01*
X41577782Y33531823D01*
X40558043Y33531823D01*
X40422451Y33667415D01*
X40152042Y33848097D01*
X39851579Y33972553D01*
X39532609Y34036000D01*
X39207391Y34036000D01*
X38888421Y33972553D01*
X38587958Y33848097D01*
X38317549Y33667415D01*
X38087585Y33437451D01*
X37906903Y33167042D01*
X37782447Y32866579D01*
X37719000Y32547609D01*
X35560000Y32547609D01*
X35560000Y42886160D01*
X37059366Y44385526D01*
X42221123Y44385526D01*
X42264328Y44075815D01*
X42367123Y43780484D01*
X42453919Y43618098D01*
X42713465Y43528070D01*
X43635395Y44450000D01*
X42713465Y45371930D01*
X42453919Y45281902D01*
X42317776Y45000384D01*
X42239171Y44697714D01*
X42221123Y44385526D01*
X37059366Y44385526D01*
X38647841Y45974000D01*
X42585936Y45974000D01*
X42803028Y45756908D01*
M02*
