G04 #@! TF.GenerationSoftware,KiCad,Pcbnew,(5.1.0)-1*
G04 #@! TF.CreationDate,2020-11-16T17:59:51+00:00*
G04 #@! TF.ProjectId,WildlifeCamera_PCB,57696c64-6c69-4666-9543-616d6572615f,rev?*
G04 #@! TF.SameCoordinates,PX5d42830PY7b89fa0*
G04 #@! TF.FileFunction,Soldermask,Top*
G04 #@! TF.FilePolarity,Negative*
%FSLAX46Y46*%
G04 Gerber Fmt 4.6, Leading zero omitted, Abs format (unit mm)*
G04 Created by KiCad (PCBNEW (5.1.0)-1) date 2020-11-16 17:59:51*
%MOMM*%
%LPD*%
G04 APERTURE LIST*
%ADD10C,0.010000*%
%ADD11O,3.400000X5.400000*%
%ADD12R,3.400000X2.400000*%
%ADD13O,3.400000X2.400000*%
%ADD14C,2.432000*%
%ADD15R,2.432000X2.432000*%
%ADD16O,2.686000X2.178000*%
%ADD17R,2.686000X2.178000*%
%ADD18R,2.500580X2.500580*%
%ADD19C,2.599640*%
%ADD20R,0.900000X0.650000*%
%ADD21R,1.240000X2.800000*%
%ADD22C,2.899360*%
%ADD23R,2.899360X2.899360*%
%ADD24C,2.400000*%
%ADD25O,1.600000X3.400000*%
%ADD26C,2.200000*%
%ADD27R,2.432000X2.127200*%
%ADD28O,2.432000X2.127200*%
%ADD29C,2.500580*%
%ADD30C,3.334700*%
%ADD31R,2.305000X2.305000*%
%ADD32C,2.305000*%
G04 APERTURE END LIST*
D10*
G36*
X49745315Y63510583D02*
G01*
X49727110Y63439392D01*
X49690549Y63294440D01*
X49637734Y63084123D01*
X49570766Y62816839D01*
X49491747Y62500983D01*
X49402779Y62144953D01*
X49305963Y61757145D01*
X49203401Y61345956D01*
X49170506Y61214000D01*
X49067332Y60800389D01*
X48969822Y60410103D01*
X48879987Y60051150D01*
X48799839Y59731539D01*
X48731390Y59459278D01*
X48676650Y59242376D01*
X48637632Y59088841D01*
X48616347Y59006681D01*
X48613473Y58996319D01*
X48606678Y58962133D01*
X48616455Y58942015D01*
X48651416Y58938600D01*
X48720170Y58954521D01*
X48831328Y58992413D01*
X48993499Y59054911D01*
X49215295Y59144650D01*
X49505325Y59264263D01*
X49550906Y59283145D01*
X49786077Y59379818D01*
X49992928Y59463366D01*
X50159390Y59529035D01*
X50273394Y59572074D01*
X50322872Y59587731D01*
X50323914Y59587531D01*
X50311929Y59546840D01*
X50272752Y59436426D01*
X50209823Y59265495D01*
X50126586Y59043252D01*
X50026481Y58778903D01*
X49912950Y58481655D01*
X49822623Y58246715D01*
X49647208Y57791316D01*
X49500271Y57408872D01*
X49379600Y57093430D01*
X49282986Y56839033D01*
X49208219Y56639727D01*
X49153089Y56489559D01*
X49115385Y56382572D01*
X49092897Y56312814D01*
X49083416Y56274329D01*
X49084731Y56261162D01*
X49085589Y56261000D01*
X49119912Y56292298D01*
X49166129Y56356250D01*
X49286985Y56546379D01*
X49433609Y56781462D01*
X49601502Y57053941D01*
X49786164Y57356254D01*
X49983096Y57680844D01*
X50187798Y58020152D01*
X50395770Y58366618D01*
X50602514Y58712683D01*
X50803529Y59050788D01*
X50994316Y59373374D01*
X51170375Y59672882D01*
X51327207Y59941752D01*
X51460313Y60172426D01*
X51565192Y60357345D01*
X51637346Y60488948D01*
X51672275Y60559679D01*
X51674280Y60569882D01*
X51620211Y60562240D01*
X51496596Y60534335D01*
X51315296Y60489181D01*
X51088170Y60429789D01*
X50827078Y60359173D01*
X50632678Y60305299D01*
X50357692Y60228488D01*
X50111148Y60159872D01*
X49904304Y60102563D01*
X49748417Y60059675D01*
X49654745Y60034319D01*
X49632162Y60028666D01*
X49653253Y60062340D01*
X49718241Y60159044D01*
X49822676Y60312306D01*
X49962105Y60515651D01*
X50132078Y60762606D01*
X50328144Y61046696D01*
X50545853Y61361449D01*
X50780752Y61700390D01*
X50866324Y61823707D01*
X51106744Y62170540D01*
X51331901Y62496274D01*
X51537280Y62794316D01*
X51718371Y63058073D01*
X51870659Y63280952D01*
X51989633Y63456362D01*
X52070779Y63577709D01*
X52109586Y63638400D01*
X52112333Y63644041D01*
X52071803Y63650651D01*
X51957422Y63656616D01*
X51780006Y63661702D01*
X51550369Y63665672D01*
X51279327Y63668292D01*
X50977696Y63669326D01*
X50949798Y63669333D01*
X49787263Y63669333D01*
X49745315Y63510583D01*
X49745315Y63510583D01*
G37*
X49745315Y63510583D02*
X49727110Y63439392D01*
X49690549Y63294440D01*
X49637734Y63084123D01*
X49570766Y62816839D01*
X49491747Y62500983D01*
X49402779Y62144953D01*
X49305963Y61757145D01*
X49203401Y61345956D01*
X49170506Y61214000D01*
X49067332Y60800389D01*
X48969822Y60410103D01*
X48879987Y60051150D01*
X48799839Y59731539D01*
X48731390Y59459278D01*
X48676650Y59242376D01*
X48637632Y59088841D01*
X48616347Y59006681D01*
X48613473Y58996319D01*
X48606678Y58962133D01*
X48616455Y58942015D01*
X48651416Y58938600D01*
X48720170Y58954521D01*
X48831328Y58992413D01*
X48993499Y59054911D01*
X49215295Y59144650D01*
X49505325Y59264263D01*
X49550906Y59283145D01*
X49786077Y59379818D01*
X49992928Y59463366D01*
X50159390Y59529035D01*
X50273394Y59572074D01*
X50322872Y59587731D01*
X50323914Y59587531D01*
X50311929Y59546840D01*
X50272752Y59436426D01*
X50209823Y59265495D01*
X50126586Y59043252D01*
X50026481Y58778903D01*
X49912950Y58481655D01*
X49822623Y58246715D01*
X49647208Y57791316D01*
X49500271Y57408872D01*
X49379600Y57093430D01*
X49282986Y56839033D01*
X49208219Y56639727D01*
X49153089Y56489559D01*
X49115385Y56382572D01*
X49092897Y56312814D01*
X49083416Y56274329D01*
X49084731Y56261162D01*
X49085589Y56261000D01*
X49119912Y56292298D01*
X49166129Y56356250D01*
X49286985Y56546379D01*
X49433609Y56781462D01*
X49601502Y57053941D01*
X49786164Y57356254D01*
X49983096Y57680844D01*
X50187798Y58020152D01*
X50395770Y58366618D01*
X50602514Y58712683D01*
X50803529Y59050788D01*
X50994316Y59373374D01*
X51170375Y59672882D01*
X51327207Y59941752D01*
X51460313Y60172426D01*
X51565192Y60357345D01*
X51637346Y60488948D01*
X51672275Y60559679D01*
X51674280Y60569882D01*
X51620211Y60562240D01*
X51496596Y60534335D01*
X51315296Y60489181D01*
X51088170Y60429789D01*
X50827078Y60359173D01*
X50632678Y60305299D01*
X50357692Y60228488D01*
X50111148Y60159872D01*
X49904304Y60102563D01*
X49748417Y60059675D01*
X49654745Y60034319D01*
X49632162Y60028666D01*
X49653253Y60062340D01*
X49718241Y60159044D01*
X49822676Y60312306D01*
X49962105Y60515651D01*
X50132078Y60762606D01*
X50328144Y61046696D01*
X50545853Y61361449D01*
X50780752Y61700390D01*
X50866324Y61823707D01*
X51106744Y62170540D01*
X51331901Y62496274D01*
X51537280Y62794316D01*
X51718371Y63058073D01*
X51870659Y63280952D01*
X51989633Y63456362D01*
X52070779Y63577709D01*
X52109586Y63638400D01*
X52112333Y63644041D01*
X52071803Y63650651D01*
X51957422Y63656616D01*
X51780006Y63661702D01*
X51550369Y63665672D01*
X51279327Y63668292D01*
X50977696Y63669326D01*
X50949798Y63669333D01*
X49787263Y63669333D01*
X49745315Y63510583D01*
D11*
X24335000Y7160000D03*
D12*
X24335000Y70660000D03*
D13*
X24335000Y-1340000D03*
D11*
X24335000Y62160000D03*
D14*
X11430000Y24130000D03*
D15*
X8890000Y24130000D03*
D16*
X38735000Y64135000D03*
X38735000Y61595000D03*
X38735000Y59055000D03*
X38735000Y56515000D03*
X38735000Y53975000D03*
X38735000Y51435000D03*
X61595000Y51435000D03*
X61595000Y53975000D03*
X61595000Y56515000D03*
X61595000Y59055000D03*
X61595000Y61595000D03*
X61595000Y64135000D03*
X61595000Y66675000D03*
D17*
X61595000Y69215000D03*
D16*
X38735000Y66675000D03*
X38735000Y69215000D03*
D18*
X82550000Y43815000D03*
D19*
X82550000Y46355000D03*
X82550000Y48895000D03*
X82550000Y51435000D03*
X82550000Y53975000D03*
X82550000Y56515000D03*
D14*
X11430000Y13970000D03*
D15*
X8890000Y13970000D03*
D14*
X46355000Y19050000D03*
X46355000Y11430000D03*
X49530000Y11430000D03*
X49530000Y19050000D03*
X55880000Y11430000D03*
X55880000Y19050000D03*
X52705000Y11430000D03*
X52705000Y19050000D03*
D20*
X42225000Y14970000D03*
X42225000Y14470000D03*
X42225000Y12970000D03*
X42225000Y13470000D03*
X42225000Y13970000D03*
X40325000Y12970000D03*
X40325000Y13470000D03*
X40325000Y14970000D03*
X40325000Y14470000D03*
D21*
X41275000Y13970000D03*
D20*
X40325000Y13970000D03*
D15*
X50165000Y7620000D03*
D14*
X52705000Y7620000D03*
X55245000Y7620000D03*
D22*
X80010000Y17780000D03*
D23*
X80010000Y27940000D03*
D22*
X80010000Y22860000D03*
D14*
X62230000Y11430000D03*
X62230000Y19050000D03*
D24*
X66032380Y-3835400D03*
X69040000Y-3810000D03*
X63040000Y-3810000D03*
D25*
X72340000Y-3810000D03*
X59740000Y-3810000D03*
D26*
X65405000Y3937000D03*
X65405000Y13335000D03*
D15*
X61595000Y6350000D03*
D14*
X59055000Y6350000D03*
D27*
X82550000Y35560000D03*
D28*
X82550000Y38100000D03*
D14*
X59055000Y19050000D03*
X59055000Y11430000D03*
X83820000Y5080000D03*
X78740000Y5080000D03*
X83820000Y12700000D03*
X78740000Y12700000D03*
X71120000Y31115000D03*
D15*
X68580000Y31115000D03*
D14*
X42545000Y8255000D03*
D15*
X40005000Y8255000D03*
X69215000Y8255000D03*
D14*
X71755000Y8255000D03*
D15*
X55245000Y-1270000D03*
D14*
X52705000Y-1270000D03*
D29*
X69850000Y19050000D03*
X69850000Y21590000D03*
D18*
X69850000Y16510000D03*
D14*
X41275000Y24765000D03*
D15*
X38735000Y24765000D03*
X46355000Y24765000D03*
D14*
X48895000Y24765000D03*
X57150000Y24765000D03*
D15*
X54610000Y24765000D03*
X62865000Y24765000D03*
D14*
X65405000Y24765000D03*
X69850000Y48895000D03*
X77470000Y48895000D03*
X77470000Y45720000D03*
X69850000Y45720000D03*
X69850000Y42545000D03*
X77470000Y42545000D03*
X77470000Y39370000D03*
X69850000Y39370000D03*
D27*
X66105000Y61580000D03*
D28*
X66105000Y64120000D03*
X66105000Y66660000D03*
X66105000Y69200000D03*
X66105000Y71740000D03*
D30*
X8933286Y73610528D03*
X83732929Y-6189115D03*
X83732929Y73610528D03*
X8933286Y-6189115D03*
D23*
X41910000Y-2540000D03*
D22*
X46990000Y-2540000D03*
D26*
X43561000Y-4826000D03*
X45593000Y-4826000D03*
D31*
X46355000Y46990000D03*
D32*
X43815000Y46990000D03*
X43815000Y44450000D03*
X52070000Y44450000D03*
X52070000Y46990000D03*
D31*
X54610000Y46990000D03*
D29*
X59055000Y40640000D03*
X59055000Y38100000D03*
D18*
X59055000Y35560000D03*
D14*
X39370000Y40005000D03*
X39370000Y32385000D03*
X42545000Y40005000D03*
X42545000Y32385000D03*
X45720000Y32385000D03*
X45720000Y40005000D03*
X48895000Y32385000D03*
X48895000Y40005000D03*
X52070000Y32385000D03*
X52070000Y40005000D03*
X55245000Y32385000D03*
X55245000Y40005000D03*
M02*
