M48
; DRILL file {KiCad (5.1.0)-1} date 16/11/2020 17:59:53
; FORMAT={-:-/ absolute / inch / decimal}
; #@! TF.CreationDate,2020-11-16T17:59:53+00:00
; #@! TF.GenerationSoftware,Kicad,Pcbnew,(5.1.0)-1
FMAT,2
INCH
T1C0.0157
T2C0.0197
T3C0.0200
T4C0.0315
T5C0.0315
T6C0.0320
T7C0.0394
T8C0.0394
T9C0.0400
T10C0.1155
T11C0.1181
%
G90
G05
T3
X1.285Y1.275
X1.315Y0.955
X1.345Y0.13
X1.52Y0.66
X1.525Y0.42
X1.74Y0.555
X1.745Y0.67
X2.23Y2.025
X2.745Y2.055
X2.8Y2.085
T4
X1.715Y-0.19
X1.795Y-0.19
X1.525Y2.725
X1.525Y2.625
X1.525Y2.525
X1.525Y2.425
X1.525Y2.325
X1.525Y2.225
X1.525Y2.125
X1.525Y2.025
X2.425Y2.725
X2.425Y2.625
X2.425Y2.525
X2.425Y2.425
X2.425Y2.325
X2.425Y2.225
X2.425Y2.125
X2.425Y2.025
X2.4819Y-0.15
X2.5997Y-0.151
X2.7181Y-0.15
T5
X2.45Y0.75
X2.45Y0.45
X1.8Y1.575
X1.8Y1.275
X2.725Y0.325
X2.825Y0.325
X2.75Y1.55
X3.05Y1.55
X1.95Y0.75
X1.95Y0.45
X2.075Y0.75
X2.075Y0.45
X2.05Y1.85
X2.05Y1.75
X2.15Y1.85
X2.325Y0.75
X2.325Y0.45
X1.55Y1.575
X1.55Y1.275
X2.175Y1.575
X2.175Y1.275
X2.075Y-0.05
X2.175Y-0.05
X1.675Y1.575
X1.675Y1.275
X2.75Y1.8
X3.05Y1.8
X2.2Y0.75
X2.2Y0.45
X1.925Y1.575
X1.925Y1.275
X2.7Y1.225
X2.8Y1.225
X1.575Y0.325
X1.675Y0.325
X1.725Y1.85
X1.725Y1.75
X1.825Y1.85
X1.825Y0.75
X1.825Y0.45
X2.75Y1.925
X3.05Y1.925
X2.05Y1.575
X2.05Y1.275
X2.75Y1.675
X3.05Y1.675
T6
X2.15Y0.975
X2.25Y0.975
X1.825Y0.975
X1.925Y0.975
X0.35Y0.95
X0.45Y0.95
X0.35Y0.55
X0.45Y0.55
X2.475Y0.975
X2.575Y0.975
X1.975Y0.3
X2.075Y0.3
X2.175Y0.3
X1.525Y0.975
X1.625Y0.975
X2.325Y0.25
X2.425Y0.25
T7
X3.25Y2.225
X3.25Y2.125
X3.25Y2.025
X3.25Y1.925
X3.25Y1.825
X3.25Y1.725
T8
X3.15Y1.1
X3.15Y0.9
X3.15Y0.7
X2.75Y0.85
X2.75Y0.75
X2.75Y0.65
X1.65Y-0.1
X1.85Y-0.1
X2.575Y0.525
X2.575Y0.155
X2.325Y1.6
X2.325Y1.5
X2.325Y1.4
X3.1Y0.5
X3.1Y0.2
X3.3Y0.5
X3.3Y0.2
T9
X2.6026Y2.8244
X2.6026Y2.7244
X2.6026Y2.6244
X2.6026Y2.5244
X2.6026Y2.4244
X3.25Y1.5
X3.25Y1.4
T10
X0.3517Y2.8981
X0.3517Y-0.2437
X3.2966Y2.8981
X3.2966Y-0.2437
T1
G00X2.352Y-0.1146
M15
G01X2.352Y-0.1854
M16
G05
G00X2.848Y-0.1146
M15
G01X2.848Y-0.1854
M16
G05
T2
G00X0.9797Y2.7819
M15
G01X0.9364Y2.7819
M16
G05
G00X0.9797Y-0.0528
M15
G01X0.9364Y-0.0528
M16
G05
T11
G00X0.9581Y2.4866
M15
G01X0.9581Y2.4079
M16
G05
G00X0.9581Y0.3213
M15
G01X0.9581Y0.2425
M16
G05
T0
M30
