M48
; DRILL file {KiCad (5.1.10)-1} date 08/05/21 15:33:18
; FORMAT={-:-/ absolute / inch / decimal}
; #@! TF.CreationDate,2021-08-05T15:33:18+01:00
; #@! TF.GenerationSoftware,Kicad,Pcbnew,(5.1.10)-1
FMAT,2
INCH
T1C0.0157
T2C0.0200
T3C0.0315
T4C0.0315
T5C0.0320
T6C0.0394
T7C0.0394
T8C0.0400
T9C0.1155
%
G90
G05
T2
X0.65Y0.95
X0.765Y1.57
X0.86Y1.57
X0.9Y1.04
X0.96Y0.91
T3
X0.425Y1.0
X0.425Y0.9
X0.425Y0.8
X0.425Y0.7
X0.425Y0.6
X0.425Y0.5
X0.425Y0.4
X0.425Y0.3
X1.0049Y3.125
X1.1233Y3.126
X1.2411Y3.125
X1.325Y1.0
X1.325Y0.9
X1.325Y0.8
X1.325Y0.7
X1.325Y0.6
X1.325Y0.5
X1.325Y0.4
X1.325Y0.3
T4
X0.425Y2.825
X0.425Y2.525
X0.425Y1.7
X0.425Y1.475
X0.425Y1.175
X0.525Y1.7
X0.525Y1.6
X0.55Y1.475
X0.55Y1.175
X0.575Y2.825
X0.575Y2.525
X0.725Y0.775
X0.725Y0.65
X0.725Y0.525
X0.725Y0.4
X0.8Y1.475
X0.8Y1.175
X0.925Y1.475
X0.925Y1.175
X0.95Y2.85
X0.95Y2.75
X0.95Y2.575
X0.95Y2.475
X1.025Y0.775
X1.025Y0.65
X1.025Y0.525
X1.025Y0.4
X1.1Y1.7
X1.125Y1.475
X1.125Y1.175
X1.2Y1.7
X1.2Y1.6
X1.25Y1.475
X1.25Y1.175
T5
X0.15Y1.075
X0.15Y0.55
X0.25Y1.075
X0.25Y0.55
X0.775Y2.125
X0.875Y2.125
X0.975Y2.125
X1.15Y1.975
X1.25Y1.975
X1.5Y1.075
X1.5Y0.55
X1.6Y1.905
X1.6Y1.805
X1.6Y1.705
X1.6Y1.075
X1.6Y0.55
T6
X0.175Y1.85
X0.175Y1.75
X0.175Y1.65
X0.175Y1.55
X0.175Y1.45
X0.175Y1.35
T7
X0.4Y2.3
X0.4Y2.2
X0.4Y2.1
X1.175Y2.8
X1.175Y2.7
X1.175Y2.6
X1.4Y2.325
X1.4Y2.025
X1.475Y1.92
X1.475Y1.55
X1.48Y2.74
X1.48Y2.54
X1.6Y2.325
X1.6Y2.025
T8
X0.175Y2.925
X0.175Y2.825
X0.175Y2.725
X0.175Y2.625
X0.175Y2.525
X0.175Y2.175
X0.175Y2.075
T9
X0.1912Y3.155
X0.1912Y0.2064
X1.565Y3.155
X1.565Y0.2064
T1
G00X0.875Y3.0896
M15
G01X0.875Y3.1604
M16
G05
G00X1.3711Y3.0896
M15
G01X1.3711Y3.1604
M16
G05
T0
M30
