G04 #@! TF.GenerationSoftware,KiCad,Pcbnew,(5.1.10)-1*
G04 #@! TF.CreationDate,2021-08-05T15:33:14+01:00*
G04 #@! TF.ProjectId,Lapse_O_Matic_PCB,4c617073-655f-44f5-9f4d-617469635f50,rev?*
G04 #@! TF.SameCoordinates,PX5d42830PY7b89fa0*
G04 #@! TF.FileFunction,Soldermask,Top*
G04 #@! TF.FilePolarity,Negative*
%FSLAX46Y46*%
G04 Gerber Fmt 4.6, Leading zero omitted, Abs format (unit mm)*
G04 Created by KiCad (PCBNEW (5.1.10)-1) date 2021-08-05 15:33:14*
%MOMM*%
%LPD*%
G01*
G04 APERTURE LIST*
%ADD10C,2.032000*%
%ADD11R,2.032000X2.032000*%
%ADD12C,2.934700*%
%ADD13O,2.286000X1.778000*%
%ADD14R,2.286000X1.778000*%
%ADD15R,2.100580X2.100580*%
%ADD16C,2.199640*%
%ADD17C,2.000000*%
%ADD18O,1.200000X3.000000*%
%ADD19C,1.800000*%
%ADD20R,2.032000X1.727200*%
%ADD21O,2.032000X1.727200*%
%ADD22C,2.100580*%
%ADD23C,1.905000*%
%ADD24R,1.905000X1.905000*%
%ADD25R,2.499360X2.499360*%
%ADD26C,2.499360*%
G04 APERTURE END LIST*
D10*
X40640000Y48387000D03*
X40640000Y45847000D03*
D11*
X40640000Y43307000D03*
D12*
X4857374Y80137000D03*
X39751000Y80137000D03*
X39751000Y5243375D03*
X4857374Y5243375D03*
D13*
X10795000Y12700000D03*
X10795000Y15240000D03*
X10795000Y17780000D03*
X10795000Y20320000D03*
X10795000Y22860000D03*
X10795000Y25400000D03*
X33655000Y25400000D03*
X33655000Y22860000D03*
X33655000Y20320000D03*
X33655000Y17780000D03*
X33655000Y15240000D03*
X33655000Y12700000D03*
X33655000Y10160000D03*
D14*
X33655000Y7620000D03*
D13*
X10795000Y10160000D03*
X10795000Y7620000D03*
D15*
X4445000Y34290000D03*
D16*
X4445000Y36830000D03*
X4445000Y39370000D03*
X4445000Y41910000D03*
X4445000Y44450000D03*
X4445000Y46990000D03*
D10*
X20320000Y37465000D03*
X20320000Y29845000D03*
D17*
X28532620Y79400400D03*
X25525000Y79375000D03*
X31525000Y79375000D03*
D18*
X22225000Y79375000D03*
X34825000Y79375000D03*
D19*
X37465000Y48768000D03*
X37465000Y39370000D03*
D11*
X31750000Y50165000D03*
D10*
X29210000Y50165000D03*
D20*
X4445000Y52705000D03*
D21*
X4445000Y55245000D03*
D10*
X23495000Y37465000D03*
X23495000Y29845000D03*
X40640000Y51435000D03*
X35560000Y51435000D03*
X40640000Y59055000D03*
X35560000Y59055000D03*
X24130000Y69850000D03*
D11*
X24130000Y72390000D03*
X24130000Y62865000D03*
D10*
X24130000Y65405000D03*
D22*
X29845000Y68580000D03*
X29845000Y71120000D03*
D15*
X29845000Y66040000D03*
D10*
X3810000Y27305000D03*
D11*
X6350000Y27305000D03*
X6350000Y13970000D03*
D10*
X3810000Y13970000D03*
X40640000Y27305000D03*
D11*
X38100000Y27305000D03*
X38100000Y13970000D03*
D10*
X40640000Y13970000D03*
X18415000Y19685000D03*
X26035000Y19685000D03*
X26035000Y16510000D03*
X18415000Y16510000D03*
X18415000Y13335000D03*
X26035000Y13335000D03*
X26035000Y10160000D03*
X18415000Y10160000D03*
D20*
X4445000Y64135000D03*
D21*
X4445000Y66675000D03*
X4445000Y69215000D03*
X4445000Y71755000D03*
X4445000Y74295000D03*
D22*
X10160000Y58420000D03*
X10160000Y55880000D03*
D15*
X10160000Y53340000D03*
D10*
X10795000Y37465000D03*
X10795000Y29845000D03*
X13970000Y37465000D03*
X13970000Y29845000D03*
X28575000Y29845000D03*
X28575000Y37465000D03*
X31750000Y29845000D03*
X31750000Y37465000D03*
X10795000Y71755000D03*
X10795000Y64135000D03*
X14605000Y64135000D03*
X14605000Y71755000D03*
D11*
X19685000Y53975000D03*
D10*
X22225000Y53975000D03*
X24765000Y53975000D03*
D23*
X13335000Y40640000D03*
X13335000Y43180000D03*
D24*
X10795000Y43180000D03*
X27940000Y43180000D03*
D23*
X30480000Y43180000D03*
X30480000Y40640000D03*
D25*
X37592000Y64516000D03*
D26*
X37592000Y69596000D03*
M02*
