G04 #@! TF.GenerationSoftware,KiCad,Pcbnew,(5.1.10)-1*
G04 #@! TF.CreationDate,2021-07-19T17:30:23+01:00*
G04 #@! TF.ProjectId,WildlifeCamera_PCB,57696c64-6c69-4666-9543-616d6572615f,rev?*
G04 #@! TF.SameCoordinates,PX5d42830PY7b89fa0*
G04 #@! TF.FileFunction,Copper,L2,Bot*
G04 #@! TF.FilePolarity,Positive*
%FSLAX46Y46*%
G04 Gerber Fmt 4.6, Leading zero omitted, Abs format (unit mm)*
G04 Created by KiCad (PCBNEW (5.1.10)-1) date 2021-07-19 17:30:23*
%MOMM*%
%LPD*%
G01*
G04 APERTURE LIST*
G04 #@! TA.AperFunction,NonConductor*
%ADD10C,0.300000*%
G04 #@! TD*
G04 #@! TA.AperFunction,EtchedComponent*
%ADD11C,0.010000*%
G04 #@! TD*
G04 #@! TA.AperFunction,ComponentPad*
%ADD12C,2.934700*%
G04 #@! TD*
G04 #@! TA.AperFunction,ComponentPad*
%ADD13O,2.286000X1.778000*%
G04 #@! TD*
G04 #@! TA.AperFunction,ComponentPad*
%ADD14R,2.286000X1.778000*%
G04 #@! TD*
G04 #@! TA.AperFunction,ComponentPad*
%ADD15R,2.100580X2.100580*%
G04 #@! TD*
G04 #@! TA.AperFunction,ComponentPad*
%ADD16C,2.199640*%
G04 #@! TD*
G04 #@! TA.AperFunction,ComponentPad*
%ADD17C,2.032000*%
G04 #@! TD*
G04 #@! TA.AperFunction,ComponentPad*
%ADD18C,2.000000*%
G04 #@! TD*
G04 #@! TA.AperFunction,ComponentPad*
%ADD19O,1.200000X3.000000*%
G04 #@! TD*
G04 #@! TA.AperFunction,ComponentPad*
%ADD20C,1.800000*%
G04 #@! TD*
G04 #@! TA.AperFunction,ComponentPad*
%ADD21R,2.032000X2.032000*%
G04 #@! TD*
G04 #@! TA.AperFunction,ComponentPad*
%ADD22R,2.032000X1.727200*%
G04 #@! TD*
G04 #@! TA.AperFunction,ComponentPad*
%ADD23O,2.032000X1.727200*%
G04 #@! TD*
G04 #@! TA.AperFunction,ComponentPad*
%ADD24C,2.100580*%
G04 #@! TD*
G04 #@! TA.AperFunction,ComponentPad*
%ADD25C,1.905000*%
G04 #@! TD*
G04 #@! TA.AperFunction,ComponentPad*
%ADD26R,1.905000X1.905000*%
G04 #@! TD*
G04 #@! TA.AperFunction,ComponentPad*
%ADD27R,2.499360X2.499360*%
G04 #@! TD*
G04 #@! TA.AperFunction,ComponentPad*
%ADD28C,2.499360*%
G04 #@! TD*
G04 #@! TA.AperFunction,ViaPad*
%ADD29C,0.635000*%
G04 #@! TD*
G04 #@! TA.AperFunction,Conductor*
%ADD30C,0.762000*%
G04 #@! TD*
G04 #@! TA.AperFunction,Conductor*
%ADD31C,0.400000*%
G04 #@! TD*
G04 #@! TA.AperFunction,Conductor*
%ADD32C,0.254000*%
G04 #@! TD*
G04 #@! TA.AperFunction,Conductor*
%ADD33C,0.100000*%
G04 #@! TD*
G04 APERTURE END LIST*
D10*
X20490571Y79898143D02*
X20490571Y80755286D01*
X20490571Y80326715D02*
X18990571Y80326715D01*
X19204857Y80469572D01*
X19347714Y80612429D01*
X19419142Y80755286D01*
X20490571Y79183858D02*
X20490571Y78898143D01*
X20419142Y78755286D01*
X20347714Y78683858D01*
X20133428Y78541000D01*
X19847714Y78469572D01*
X19276285Y78469572D01*
X19133428Y78541000D01*
X19062000Y78612429D01*
X18990571Y78755286D01*
X18990571Y79041000D01*
X19062000Y79183858D01*
X19133428Y79255286D01*
X19276285Y79326715D01*
X19633428Y79326715D01*
X19776285Y79255286D01*
X19847714Y79183858D01*
X19919142Y79041000D01*
X19919142Y78755286D01*
X19847714Y78612429D01*
X19776285Y78541000D01*
X19633428Y78469572D01*
X18919142Y76755286D02*
X20847714Y78041000D01*
X18990571Y76398143D02*
X18990571Y75398143D01*
X20490571Y76041000D01*
X18919142Y73755286D02*
X20847714Y75041000D01*
X19133428Y73326715D02*
X19062000Y73255286D01*
X18990571Y73112429D01*
X18990571Y72755286D01*
X19062000Y72612429D01*
X19133428Y72541000D01*
X19276285Y72469572D01*
X19419142Y72469572D01*
X19633428Y72541000D01*
X20490571Y73398143D01*
X20490571Y72469572D01*
X20490571Y71041000D02*
X20490571Y71898143D01*
X20490571Y71469572D02*
X18990571Y71469572D01*
X19204857Y71612429D01*
X19347714Y71755286D01*
X19419142Y71898143D01*
X19490571Y69398143D02*
X20490571Y69041000D01*
X19490571Y68683858D01*
X19133428Y68183858D02*
X19062000Y68112429D01*
X18990571Y67969572D01*
X18990571Y67612429D01*
X19062000Y67469572D01*
X19133428Y67398143D01*
X19276285Y67326715D01*
X19419142Y67326715D01*
X19633428Y67398143D01*
X20490571Y68255286D01*
X20490571Y67326715D01*
X17236285Y80390000D02*
X17164857Y80461429D01*
X17093428Y80604286D01*
X17093428Y80747143D01*
X17164857Y80890000D01*
X17236285Y80961429D01*
X17379142Y81032858D01*
X17522000Y81032858D01*
X17664857Y80961429D01*
X17736285Y80890000D01*
X17807714Y80747143D01*
X17807714Y80604286D01*
X17736285Y80461429D01*
X17664857Y80390000D01*
X17093428Y80390000D02*
X17664857Y80390000D01*
X17736285Y80318572D01*
X17736285Y80247143D01*
X17664857Y80104286D01*
X17522000Y80032858D01*
X17164857Y80032858D01*
X16950571Y80175715D01*
X16807714Y80390000D01*
X16736285Y80675715D01*
X16807714Y80961429D01*
X16950571Y81175715D01*
X17164857Y81318572D01*
X17450571Y81390000D01*
X17736285Y81318572D01*
X17950571Y81175715D01*
X18093428Y80961429D01*
X18164857Y80675715D01*
X18093428Y80390000D01*
X17950571Y80175715D01*
X17879142Y78747143D02*
X17950571Y78890000D01*
X17950571Y79175715D01*
X17879142Y79318572D01*
X17807714Y79390000D01*
X17664857Y79461429D01*
X17236285Y79461429D01*
X17093428Y79390000D01*
X17022000Y79318572D01*
X16950571Y79175715D01*
X16950571Y78890000D01*
X17022000Y78747143D01*
X16950571Y77461429D02*
X17950571Y77461429D01*
X16950571Y78104286D02*
X17736285Y78104286D01*
X17879142Y78032858D01*
X17950571Y77890000D01*
X17950571Y77675715D01*
X17879142Y77532858D01*
X17807714Y77461429D01*
X17950571Y76747143D02*
X16950571Y76747143D01*
X17236285Y76747143D02*
X17093428Y76675715D01*
X17022000Y76604286D01*
X16950571Y76461429D01*
X16950571Y76318572D01*
X17950571Y75818572D02*
X16950571Y75818572D01*
X16450571Y75818572D02*
X16522000Y75890000D01*
X16593428Y75818572D01*
X16522000Y75747143D01*
X16450571Y75818572D01*
X16593428Y75818572D01*
X17950571Y74890000D02*
X17879142Y75032858D01*
X17807714Y75104286D01*
X17664857Y75175715D01*
X17236285Y75175715D01*
X17093428Y75104286D01*
X17022000Y75032858D01*
X16950571Y74890000D01*
X16950571Y74675715D01*
X17022000Y74532858D01*
X17093428Y74461429D01*
X17236285Y74390000D01*
X17664857Y74390000D01*
X17807714Y74461429D01*
X17879142Y74532858D01*
X17950571Y74675715D01*
X17950571Y74890000D01*
X16950571Y73104286D02*
X17950571Y73104286D01*
X16950571Y73747143D02*
X17736285Y73747143D01*
X17879142Y73675715D01*
X17950571Y73532858D01*
X17950571Y73318572D01*
X17879142Y73175715D01*
X17807714Y73104286D01*
X17879142Y72461429D02*
X17950571Y72318572D01*
X17950571Y72032858D01*
X17879142Y71890000D01*
X17736285Y71818572D01*
X17664857Y71818572D01*
X17522000Y71890000D01*
X17450571Y72032858D01*
X17450571Y72247143D01*
X17379142Y72390000D01*
X17236285Y72461429D01*
X17164857Y72461429D01*
X17022000Y72390000D01*
X16950571Y72247143D01*
X16950571Y72032858D01*
X17022000Y71890000D01*
X17879142Y70604286D02*
X17950571Y70747143D01*
X17950571Y71032858D01*
X17879142Y71175715D01*
X17736285Y71247143D01*
X17164857Y71247143D01*
X17022000Y71175715D01*
X16950571Y71032858D01*
X16950571Y70747143D01*
X17022000Y70604286D01*
X17164857Y70532858D01*
X17307714Y70532858D01*
X17450571Y71247143D01*
X17950571Y69675715D02*
X17879142Y69818572D01*
X17736285Y69890000D01*
X16450571Y69890000D01*
X17879142Y68532858D02*
X17950571Y68675715D01*
X17950571Y68961429D01*
X17879142Y69104286D01*
X17736285Y69175715D01*
X17164857Y69175715D01*
X17022000Y69104286D01*
X16950571Y68961429D01*
X16950571Y68675715D01*
X17022000Y68532858D01*
X17164857Y68461429D01*
X17307714Y68461429D01*
X17450571Y69175715D01*
X17879142Y67175715D02*
X17950571Y67318572D01*
X17950571Y67604286D01*
X17879142Y67747143D01*
X17807714Y67818572D01*
X17664857Y67890000D01*
X17236285Y67890000D01*
X17093428Y67818572D01*
X17022000Y67747143D01*
X16950571Y67604286D01*
X16950571Y67318572D01*
X17022000Y67175715D01*
X16950571Y66747143D02*
X16950571Y66175715D01*
X16450571Y66532858D02*
X17736285Y66532858D01*
X17879142Y66461429D01*
X17950571Y66318572D01*
X17950571Y66175715D01*
X17950571Y65675715D02*
X16950571Y65675715D01*
X17236285Y65675715D02*
X17093428Y65604286D01*
X17022000Y65532858D01*
X16950571Y65390000D01*
X16950571Y65247143D01*
X17950571Y64747143D02*
X16950571Y64747143D01*
X16450571Y64747143D02*
X16522000Y64818572D01*
X16593428Y64747143D01*
X16522000Y64675715D01*
X16450571Y64747143D01*
X16593428Y64747143D01*
X17879142Y63390000D02*
X17950571Y63532858D01*
X17950571Y63818572D01*
X17879142Y63961429D01*
X17807714Y64032858D01*
X17664857Y64104286D01*
X17236285Y64104286D01*
X17093428Y64032858D01*
X17022000Y63961429D01*
X16950571Y63818572D01*
X16950571Y63532858D01*
X17022000Y63390000D01*
D11*
G36*
X13155158Y79205666D02*
G01*
X13262783Y78773042D01*
X13363020Y78365886D01*
X13454159Y77991429D01*
X13534492Y77656898D01*
X13602309Y77369525D01*
X13655903Y77136537D01*
X13693563Y76965164D01*
X13713581Y76862636D01*
X13715569Y76835000D01*
X13668409Y76850455D01*
X13555121Y76893634D01*
X13387759Y76959761D01*
X13178372Y77044057D01*
X12939015Y77141744D01*
X12865420Y77172018D01*
X12621121Y77271815D01*
X12404630Y77358579D01*
X12227636Y77427764D01*
X12101826Y77474825D01*
X12038885Y77495215D01*
X12033981Y77495425D01*
X12045865Y77453728D01*
X12086404Y77338319D01*
X12153627Y77154419D01*
X12245564Y76907251D01*
X12360244Y76602034D01*
X12495696Y76243991D01*
X12649950Y75838343D01*
X12821034Y75390312D01*
X13006979Y74905120D01*
X13205813Y74387987D01*
X13253865Y74263250D01*
X13275786Y74190957D01*
X13273638Y74168000D01*
X13247623Y74202461D01*
X13184213Y74298947D01*
X13089960Y74447116D01*
X12971414Y74636624D01*
X12835125Y74857128D01*
X12770951Y74961750D01*
X12396385Y75574222D01*
X12064452Y76117896D01*
X11773240Y76595974D01*
X11520835Y77011659D01*
X11305325Y77368153D01*
X11124797Y77668659D01*
X10977339Y77916379D01*
X10861037Y78114515D01*
X10773979Y78266271D01*
X10714251Y78374848D01*
X10679942Y78443449D01*
X10669139Y78475277D01*
X10670567Y78478326D01*
X10719735Y78471146D01*
X10838836Y78443815D01*
X11016350Y78399279D01*
X11240753Y78340484D01*
X11500525Y78270374D01*
X11709388Y78212763D01*
X11986212Y78136280D01*
X12234522Y78068732D01*
X12443181Y78013062D01*
X12601052Y77972214D01*
X12696998Y77949131D01*
X12721643Y77945271D01*
X12700056Y77981197D01*
X12634521Y78080041D01*
X12529518Y78235268D01*
X12389523Y78440344D01*
X12219014Y78688737D01*
X12022470Y78973912D01*
X11804368Y79289335D01*
X11569186Y79628473D01*
X11487899Y79745474D01*
X11247689Y80091462D01*
X11022758Y80416214D01*
X10817628Y80713148D01*
X10636819Y80975681D01*
X10484853Y81197233D01*
X10366253Y81371220D01*
X10285538Y81491062D01*
X10247231Y81550176D01*
X10244667Y81555224D01*
X10285194Y81560749D01*
X10399556Y81565734D01*
X10576919Y81569982D01*
X10806451Y81573295D01*
X11077320Y81575476D01*
X11378694Y81576328D01*
X11403547Y81576333D01*
X12562427Y81576333D01*
X13155158Y79205666D01*
G37*
X13155158Y79205666D02*
X13262783Y78773042D01*
X13363020Y78365886D01*
X13454159Y77991429D01*
X13534492Y77656898D01*
X13602309Y77369525D01*
X13655903Y77136537D01*
X13693563Y76965164D01*
X13713581Y76862636D01*
X13715569Y76835000D01*
X13668409Y76850455D01*
X13555121Y76893634D01*
X13387759Y76959761D01*
X13178372Y77044057D01*
X12939015Y77141744D01*
X12865420Y77172018D01*
X12621121Y77271815D01*
X12404630Y77358579D01*
X12227636Y77427764D01*
X12101826Y77474825D01*
X12038885Y77495215D01*
X12033981Y77495425D01*
X12045865Y77453728D01*
X12086404Y77338319D01*
X12153627Y77154419D01*
X12245564Y76907251D01*
X12360244Y76602034D01*
X12495696Y76243991D01*
X12649950Y75838343D01*
X12821034Y75390312D01*
X13006979Y74905120D01*
X13205813Y74387987D01*
X13253865Y74263250D01*
X13275786Y74190957D01*
X13273638Y74168000D01*
X13247623Y74202461D01*
X13184213Y74298947D01*
X13089960Y74447116D01*
X12971414Y74636624D01*
X12835125Y74857128D01*
X12770951Y74961750D01*
X12396385Y75574222D01*
X12064452Y76117896D01*
X11773240Y76595974D01*
X11520835Y77011659D01*
X11305325Y77368153D01*
X11124797Y77668659D01*
X10977339Y77916379D01*
X10861037Y78114515D01*
X10773979Y78266271D01*
X10714251Y78374848D01*
X10679942Y78443449D01*
X10669139Y78475277D01*
X10670567Y78478326D01*
X10719735Y78471146D01*
X10838836Y78443815D01*
X11016350Y78399279D01*
X11240753Y78340484D01*
X11500525Y78270374D01*
X11709388Y78212763D01*
X11986212Y78136280D01*
X12234522Y78068732D01*
X12443181Y78013062D01*
X12601052Y77972214D01*
X12696998Y77949131D01*
X12721643Y77945271D01*
X12700056Y77981197D01*
X12634521Y78080041D01*
X12529518Y78235268D01*
X12389523Y78440344D01*
X12219014Y78688737D01*
X12022470Y78973912D01*
X11804368Y79289335D01*
X11569186Y79628473D01*
X11487899Y79745474D01*
X11247689Y80091462D01*
X11022758Y80416214D01*
X10817628Y80713148D01*
X10636819Y80975681D01*
X10484853Y81197233D01*
X10366253Y81371220D01*
X10285538Y81491062D01*
X10247231Y81550176D01*
X10244667Y81555224D01*
X10285194Y81560749D01*
X10399556Y81565734D01*
X10576919Y81569982D01*
X10806451Y81573295D01*
X11077320Y81575476D01*
X11378694Y81576328D01*
X11403547Y81576333D01*
X12562427Y81576333D01*
X13155158Y79205666D01*
D12*
X4857374Y80137000D03*
X39751000Y80137000D03*
X39751000Y5243375D03*
X4857374Y5243375D03*
D13*
X10795000Y12700000D03*
X10795000Y15240000D03*
X10795000Y17780000D03*
X10795000Y20320000D03*
X10795000Y22860000D03*
X10795000Y25400000D03*
X33655000Y25400000D03*
X33655000Y22860000D03*
X33655000Y20320000D03*
X33655000Y17780000D03*
X33655000Y15240000D03*
X33655000Y12700000D03*
X33655000Y10160000D03*
D14*
X33655000Y7620000D03*
D13*
X10795000Y10160000D03*
X10795000Y7620000D03*
D15*
X4445000Y34290000D03*
D16*
X4445000Y36830000D03*
X4445000Y39370000D03*
X4445000Y41910000D03*
X4445000Y44450000D03*
X4445000Y46990000D03*
D17*
X20320000Y37465000D03*
X20320000Y29845000D03*
D18*
X28532620Y79400400D03*
X25525000Y79375000D03*
X31525000Y79375000D03*
D19*
X22225000Y79375000D03*
X34825000Y79375000D03*
D20*
X37465000Y48768000D03*
X37465000Y39370000D03*
D21*
X31750000Y50165000D03*
D17*
X29210000Y50165000D03*
D22*
X4445000Y52705000D03*
D23*
X4445000Y55245000D03*
D17*
X23495000Y37465000D03*
X23495000Y29845000D03*
X40640000Y51435000D03*
X35560000Y51435000D03*
X40640000Y59055000D03*
X35560000Y59055000D03*
X24130000Y69850000D03*
D21*
X24130000Y72390000D03*
X24130000Y62865000D03*
D17*
X24130000Y65405000D03*
D24*
X29845000Y68580000D03*
X29845000Y71120000D03*
D15*
X29845000Y66040000D03*
D17*
X3810000Y27305000D03*
D21*
X6350000Y27305000D03*
X6350000Y13970000D03*
D17*
X3810000Y13970000D03*
X40640000Y27305000D03*
D21*
X38100000Y27305000D03*
X38100000Y13970000D03*
D17*
X40640000Y13970000D03*
X18415000Y19685000D03*
X26035000Y19685000D03*
X26035000Y16510000D03*
X18415000Y16510000D03*
X18415000Y13335000D03*
X26035000Y13335000D03*
X26035000Y10160000D03*
X18415000Y10160000D03*
D22*
X4445000Y64135000D03*
D23*
X4445000Y66675000D03*
X4445000Y69215000D03*
X4445000Y71755000D03*
X4445000Y74295000D03*
D24*
X10160000Y58420000D03*
X10160000Y55880000D03*
D15*
X10160000Y53340000D03*
D17*
X10795000Y37465000D03*
X10795000Y29845000D03*
X13970000Y37465000D03*
X13970000Y29845000D03*
X28575000Y29845000D03*
X28575000Y37465000D03*
X31750000Y29845000D03*
X31750000Y37465000D03*
X10795000Y71755000D03*
X10795000Y64135000D03*
X14605000Y64135000D03*
X14605000Y71755000D03*
D21*
X19685000Y53975000D03*
D17*
X22225000Y53975000D03*
X24765000Y53975000D03*
D25*
X13335000Y40640000D03*
X13335000Y43180000D03*
D26*
X10795000Y43180000D03*
X27940000Y43180000D03*
D25*
X30480000Y43180000D03*
X30480000Y40640000D03*
D27*
X37592000Y64516000D03*
D28*
X37592000Y69596000D03*
D21*
X40640000Y43180000D03*
D17*
X40640000Y45720000D03*
X40640000Y48260000D03*
D29*
X24384000Y23114000D03*
X19431000Y39878000D03*
X21844000Y39878000D03*
X16510000Y24130000D03*
X22860000Y26416000D03*
D30*
X25525000Y79375000D02*
X25525000Y77726000D01*
X25525000Y77726000D02*
X27813000Y75438000D01*
X27813000Y75438000D02*
X34798000Y75438000D01*
X37592000Y72644000D02*
X37592000Y69596000D01*
X34798000Y75438000D02*
X37592000Y72644000D01*
D31*
X4445000Y55245000D02*
X5842000Y55245000D01*
X9017000Y58420000D02*
X10160000Y58420000D01*
X5842000Y55245000D02*
X9017000Y58420000D01*
D30*
X37465000Y39370000D02*
X34798000Y39370000D01*
X34798000Y39370000D02*
X33528000Y40640000D01*
X33528000Y40640000D02*
X30480000Y40640000D01*
X24130000Y65405000D02*
X22225000Y65405000D01*
X22225000Y65405000D02*
X19685000Y62865000D01*
X19685000Y62865000D02*
X19685000Y53975000D01*
X19685000Y53975000D02*
X19685000Y46101000D01*
X25781000Y27432000D02*
X25781000Y29591000D01*
X25781000Y40005000D02*
X25781000Y29591000D01*
X19685000Y46101000D02*
X25781000Y40005000D01*
X31750000Y28067000D02*
X31750000Y29845000D01*
X28194000Y27432000D02*
X31115000Y27432000D01*
X28194000Y27432000D02*
X25781000Y27432000D01*
X31115000Y27432000D02*
X31750000Y28067000D01*
D31*
X13335000Y40640000D02*
X14986000Y40640000D01*
X14986000Y40640000D02*
X15875000Y39751000D01*
X15875000Y31750000D02*
X13970000Y29845000D01*
X15875000Y39751000D02*
X15875000Y31750000D01*
D30*
X25781000Y24511000D02*
X25781000Y27432000D01*
X24384000Y23114000D02*
X25781000Y24511000D01*
X38100000Y27305000D02*
X38100000Y35941000D01*
X38227000Y42037000D02*
X38227000Y45847000D01*
X38227000Y45847000D02*
X40640000Y48260000D01*
X40132000Y40132000D02*
X38227000Y42037000D01*
X40132000Y37973000D02*
X40132000Y40132000D01*
X38100000Y35941000D02*
X40132000Y37973000D01*
D31*
X19431000Y39878000D02*
X21844000Y39878000D01*
X10795000Y29845000D02*
X16510000Y24130000D01*
X4445000Y69215000D02*
X5334000Y69215000D01*
X5334000Y69215000D02*
X9017000Y65532000D01*
X9017000Y65532000D02*
X9017000Y62484000D01*
X9017000Y62484000D02*
X10414000Y61087000D01*
X10414000Y61087000D02*
X12065000Y61087000D01*
X12065000Y61087000D02*
X16002000Y57150000D01*
X16002000Y57150000D02*
X16002000Y46863000D01*
X22860000Y26416000D02*
X19812000Y26416000D01*
X19812000Y26416000D02*
X18542000Y27686000D01*
X18542000Y44323000D02*
X18415000Y44450000D01*
X18542000Y27686000D02*
X18542000Y44323000D01*
X16002000Y46863000D02*
X18415000Y44450000D01*
X31623000Y20320000D02*
X33655000Y20320000D01*
X22479000Y21717000D02*
X30226000Y21717000D01*
X17780000Y26416000D02*
X22479000Y21717000D01*
X17780000Y43434000D02*
X17780000Y26416000D01*
X15113000Y46101000D02*
X17780000Y43434000D01*
X11684000Y60325000D02*
X15113000Y56896000D01*
X9525000Y60325000D02*
X11684000Y60325000D01*
X15113000Y56896000D02*
X15113000Y46101000D01*
X8001000Y61849000D02*
X9525000Y60325000D01*
X30226000Y21717000D02*
X31623000Y20320000D01*
X8001000Y64135000D02*
X8001000Y61849000D01*
X5461000Y66675000D02*
X8001000Y64135000D01*
X4445000Y66675000D02*
X5461000Y66675000D01*
X4445000Y41910000D02*
X6350000Y41910000D01*
X6350000Y41910000D02*
X8001000Y40259000D01*
X8001000Y40259000D02*
X8001000Y21209000D01*
X8890000Y20320000D02*
X10795000Y20320000D01*
X8001000Y21209000D02*
X8890000Y20320000D01*
X10795000Y22860000D02*
X9398000Y22860000D01*
X9398000Y22860000D02*
X8636000Y23622000D01*
X8636000Y23622000D02*
X8636000Y42291000D01*
X6477000Y44450000D02*
X4445000Y44450000D01*
X8636000Y42291000D02*
X6477000Y44450000D01*
X13081000Y13589000D02*
X12192000Y12700000D01*
X12192000Y12700000D02*
X10795000Y12700000D01*
X13081000Y26289000D02*
X13081000Y13589000D01*
X11811000Y27559000D02*
X13081000Y26289000D01*
X10160000Y27559000D02*
X11811000Y27559000D01*
X9271000Y28448000D02*
X10160000Y27559000D01*
X9271000Y46609000D02*
X9271000Y28448000D01*
X4445000Y51435000D02*
X9271000Y46609000D01*
X4445000Y52705000D02*
X4445000Y51435000D01*
X3810000Y27305000D02*
X3810000Y19685000D01*
X3810000Y19685000D02*
X8128000Y15367000D01*
X8128000Y15367000D02*
X8128000Y7493000D01*
X8128000Y7493000D02*
X9144000Y6477000D01*
X9144000Y6477000D02*
X9144000Y5080000D01*
X9144000Y5080000D02*
X9906000Y4318000D01*
X9906000Y4318000D02*
X13589000Y4318000D01*
X13589000Y4318000D02*
X15494000Y6223000D01*
X15494000Y16764000D02*
X18415000Y19685000D01*
X15494000Y6223000D02*
X15494000Y16764000D01*
X3810000Y13970000D02*
X3810000Y10668000D01*
X3810000Y10668000D02*
X8382000Y6096000D01*
X8382000Y6096000D02*
X8382000Y4445000D01*
X8382000Y4445000D02*
X9398000Y3429000D01*
X9398000Y3429000D02*
X14224000Y3429000D01*
X14224000Y3429000D02*
X16383000Y5588000D01*
X16383000Y14478000D02*
X18415000Y16510000D01*
X16383000Y5588000D02*
X16383000Y14478000D01*
X18415000Y13335000D02*
X20320000Y11430000D01*
X20320000Y11430000D02*
X20320000Y5588000D01*
X20320000Y5588000D02*
X21463000Y4445000D01*
X21463000Y4445000D02*
X33782000Y4445000D01*
X33782000Y5152120D02*
X36322000Y7692120D01*
X33782000Y4445000D02*
X33782000Y5152120D01*
X36322000Y7692120D02*
X36322000Y14986000D01*
X40640000Y19304000D02*
X40640000Y27305000D01*
X36322000Y14986000D02*
X40640000Y19304000D01*
X18415000Y10160000D02*
X18415000Y5334000D01*
X18415000Y5334000D02*
X20193000Y3556000D01*
X20193000Y3556000D02*
X34417000Y3556000D01*
X34417000Y3556000D02*
X36576000Y5715000D01*
X36576000Y5715000D02*
X36576000Y7239000D01*
X40640000Y11303000D02*
X40640000Y13970000D01*
X36576000Y7239000D02*
X40640000Y11303000D01*
X23495000Y19685000D02*
X26035000Y19685000D01*
X16764000Y26416000D02*
X23495000Y19685000D01*
X16764000Y42799000D02*
X16764000Y26416000D01*
X14097000Y45466000D02*
X16764000Y42799000D01*
X14097000Y53340000D02*
X14097000Y45466000D01*
X11557000Y55880000D02*
X14097000Y53340000D01*
X10160000Y55880000D02*
X11557000Y55880000D01*
D32*
X9714209Y81908385D02*
X9689703Y81873994D01*
X9681340Y81855449D01*
X9670603Y81838156D01*
X9655719Y81798634D01*
X9638355Y81760130D01*
X9633751Y81740304D01*
X9626581Y81721265D01*
X9619659Y81679617D01*
X9610102Y81638461D01*
X9609437Y81618113D01*
X9606102Y81598049D01*
X9607401Y81555852D01*
X9606020Y81513621D01*
X9609319Y81493536D01*
X9609945Y81473202D01*
X9616143Y81446277D01*
X9616463Y81441858D01*
X9619812Y81429654D01*
X9626265Y81390366D01*
X9633399Y81371313D01*
X9637964Y81351480D01*
X9646458Y81332547D01*
X9649516Y81321404D01*
X9659773Y81300870D01*
X9670062Y81273391D01*
X9674054Y81265396D01*
X9676618Y81260348D01*
X9684147Y81248542D01*
X9689093Y81237518D01*
X9696952Y81226444D01*
X9705334Y81209665D01*
X9710141Y81202132D01*
X9748449Y81143017D01*
X9749204Y81142069D01*
X9749768Y81140989D01*
X9754709Y81133542D01*
X9835424Y81013700D01*
X9835520Y81013584D01*
X9837429Y81010741D01*
X9956029Y80836754D01*
X9956094Y80836676D01*
X9957076Y80835223D01*
X10109042Y80613671D01*
X10109088Y80613617D01*
X10109730Y80612670D01*
X10290539Y80350137D01*
X10290572Y80350098D01*
X10291060Y80349381D01*
X10496190Y80052447D01*
X10496222Y80052409D01*
X10496633Y80051807D01*
X10721564Y79727055D01*
X10721594Y79727020D01*
X10721970Y79726470D01*
X10962180Y79380482D01*
X10962190Y79380470D01*
X10962299Y79380311D01*
X11043258Y79263783D01*
X11043269Y79263766D01*
X11221179Y79007215D01*
X11178559Y79018382D01*
X11178439Y79018401D01*
X11172092Y79020040D01*
X10994577Y79064576D01*
X10992584Y79064873D01*
X10990677Y79065542D01*
X10981981Y79067601D01*
X10862880Y79094932D01*
X10841706Y79097654D01*
X10821046Y79103077D01*
X10812213Y79104429D01*
X10763045Y79111609D01*
X10733942Y79112986D01*
X10705134Y79117392D01*
X10671701Y79115930D01*
X10638279Y79117511D01*
X10609460Y79113208D01*
X10580347Y79111935D01*
X10547832Y79104007D01*
X10514742Y79099066D01*
X10487315Y79089250D01*
X10458996Y79082345D01*
X10428638Y79068251D01*
X10397140Y79056978D01*
X10372141Y79042021D01*
X10345704Y79029747D01*
X10318657Y79010021D01*
X10289954Y78992848D01*
X10268343Y78973326D01*
X10244786Y78956146D01*
X10222086Y78931542D01*
X10197265Y78909121D01*
X10179849Y78885763D01*
X10160087Y78864343D01*
X10142603Y78835808D01*
X10122604Y78808985D01*
X10110820Y78784288D01*
X10098145Y78764356D01*
X10096966Y78761325D01*
X10094831Y78757840D01*
X10090984Y78749774D01*
X10089556Y78746725D01*
X10079951Y78719596D01*
X10068814Y78696255D01*
X10063392Y78674997D01*
X10052871Y78647944D01*
X10051153Y78638254D01*
X10047870Y78628980D01*
X10042817Y78594325D01*
X10037945Y78575223D01*
X10037046Y78558668D01*
X10031070Y78524955D01*
X10031267Y78515114D01*
X10029848Y78505381D01*
X10031927Y78464397D01*
X10031172Y78450501D01*
X10032790Y78439118D01*
X10033573Y78400073D01*
X10035676Y78390464D01*
X10036175Y78380635D01*
X10047532Y78335436D01*
X10048754Y78326839D01*
X10051026Y78320349D01*
X10060284Y78278057D01*
X10063097Y78269575D01*
X10073900Y78237748D01*
X10090066Y78202024D01*
X10103595Y78165195D01*
X10107537Y78157176D01*
X10141846Y78088575D01*
X10146154Y78081727D01*
X10149243Y78074237D01*
X10153496Y78066378D01*
X10213224Y77957801D01*
X10213942Y77956753D01*
X10214448Y77955586D01*
X10218840Y77947804D01*
X10305898Y77796048D01*
X10305980Y77795933D01*
X10309097Y77790537D01*
X10425399Y77592401D01*
X10425488Y77592279D01*
X10427397Y77589020D01*
X10574855Y77341300D01*
X10574930Y77341198D01*
X10576182Y77339081D01*
X10756710Y77038574D01*
X10756770Y77038493D01*
X10757626Y77037055D01*
X10973136Y76680561D01*
X10973178Y76680505D01*
X10973785Y76679489D01*
X11226190Y76263804D01*
X11226226Y76263756D01*
X11226659Y76263034D01*
X11517870Y75784957D01*
X11517894Y75784925D01*
X11518212Y75784396D01*
X11850145Y75240722D01*
X11850167Y75240693D01*
X11850395Y75240314D01*
X12224961Y74627842D01*
X12224990Y74627804D01*
X12225404Y74627118D01*
X12289578Y74522495D01*
X12289651Y74522399D01*
X12290720Y74520642D01*
X12427008Y74300138D01*
X12427101Y74300017D01*
X12428828Y74297212D01*
X12547374Y74107703D01*
X12547475Y74107571D01*
X12549957Y74103610D01*
X12644210Y73955441D01*
X12644386Y73955217D01*
X12644518Y73954956D01*
X12649374Y73947454D01*
X12712784Y73850968D01*
X12723112Y73838175D01*
X12731495Y73824027D01*
X12736830Y73816857D01*
X12762845Y73782396D01*
X12771971Y73772489D01*
X12779476Y73761301D01*
X12814213Y73726630D01*
X12847470Y73690527D01*
X12858350Y73682578D01*
X12867883Y73673064D01*
X12908698Y73645797D01*
X12948329Y73616844D01*
X12960539Y73611163D01*
X12971743Y73603678D01*
X13017071Y73584860D01*
X13061577Y73564153D01*
X13074666Y73560950D01*
X13087103Y73555787D01*
X13135228Y73546131D01*
X13182904Y73534465D01*
X13196358Y73533866D01*
X13209569Y73531215D01*
X13258667Y73531090D01*
X13307686Y73528907D01*
X13321000Y73530932D01*
X13334475Y73530898D01*
X13382656Y73540311D01*
X13431171Y73547691D01*
X13443841Y73552265D01*
X13457063Y73554848D01*
X13502489Y73573437D01*
X13548656Y73590103D01*
X13560198Y73597052D01*
X13572664Y73602153D01*
X13613616Y73629211D01*
X13655666Y73654527D01*
X13665635Y73663582D01*
X13676877Y73671010D01*
X13711795Y73705510D01*
X13748125Y73738509D01*
X13756149Y73749332D01*
X13765730Y73758799D01*
X13793277Y73799417D01*
X13822510Y73838850D01*
X13828278Y73851024D01*
X13835839Y73862173D01*
X13854974Y73907372D01*
X13875989Y73951729D01*
X13879283Y73964792D01*
X13884534Y73977197D01*
X13894526Y74025252D01*
X13906525Y74072845D01*
X13907218Y74086296D01*
X13909961Y74099487D01*
X13910855Y74108378D01*
X13913003Y74131335D01*
X13912749Y74188307D01*
X13912839Y74195362D01*
X13912954Y74197586D01*
X13912875Y74198133D01*
X13913476Y74245275D01*
X13912472Y74250711D01*
X13912447Y74256240D01*
X13901136Y74312060D01*
X13890782Y74368101D01*
X13888248Y74376671D01*
X13866328Y74448964D01*
X13859056Y74466548D01*
X13854238Y74484954D01*
X13851084Y74493315D01*
X13803032Y74618052D01*
X13604345Y75134803D01*
X13604344Y75134805D01*
X13418839Y75618849D01*
X13247991Y76066264D01*
X13131318Y76373083D01*
X13148746Y76366067D01*
X13148893Y76366024D01*
X13152578Y76364538D01*
X13319940Y76298411D01*
X13320011Y76298391D01*
X13327184Y76295600D01*
X13440472Y76252421D01*
X13450844Y76249590D01*
X13460629Y76245122D01*
X13469102Y76242280D01*
X13516262Y76226825D01*
X13574337Y76213903D01*
X13632193Y76200455D01*
X13635223Y76200355D01*
X13638186Y76199696D01*
X13697621Y76198301D01*
X13757031Y76196345D01*
X13760026Y76196836D01*
X13763058Y76196765D01*
X13821645Y76206943D01*
X13880290Y76216561D01*
X13883129Y76217623D01*
X13886121Y76218143D01*
X13941666Y76239526D01*
X13997275Y76260334D01*
X13999852Y76261927D01*
X14002687Y76263018D01*
X14053035Y76294792D01*
X14103530Y76325996D01*
X14105748Y76328058D01*
X14108318Y76329680D01*
X14151479Y76370575D01*
X14195008Y76411044D01*
X14196789Y76413505D01*
X14198988Y76415589D01*
X14233357Y76464049D01*
X14268224Y76512242D01*
X14269491Y76514998D01*
X14271246Y76517473D01*
X14295540Y76571670D01*
X14320390Y76625734D01*
X14321099Y76628690D01*
X14322337Y76631452D01*
X14335650Y76689369D01*
X14349517Y76747197D01*
X14349638Y76750224D01*
X14350318Y76753183D01*
X14352128Y76812616D01*
X14354499Y76872003D01*
X14354117Y76877884D01*
X14354121Y76878031D01*
X14354098Y76878170D01*
X14353919Y76880920D01*
X14351932Y76908556D01*
X14346148Y76942339D01*
X14343372Y76976494D01*
X14341721Y76985277D01*
X14321703Y77087805D01*
X14320825Y77090742D01*
X14320505Y77093788D01*
X14318648Y77102529D01*
X14280988Y77273902D01*
X14280944Y77274037D01*
X14279614Y77280008D01*
X14226020Y77512997D01*
X14225972Y77513141D01*
X14225199Y77516520D01*
X14157382Y77803894D01*
X14157344Y77804007D01*
X14156801Y77806337D01*
X14076468Y78140868D01*
X14076431Y78140974D01*
X14076005Y78142780D01*
X13984866Y78517237D01*
X13984838Y78517318D01*
X13984465Y78518878D01*
X13884228Y78926034D01*
X13884197Y78926121D01*
X13883853Y78927547D01*
X13776228Y79360171D01*
X13776213Y79360214D01*
X13776045Y79360905D01*
X13183314Y81731572D01*
X13168377Y81773434D01*
X13155825Y81816081D01*
X13147428Y81832143D01*
X13141337Y81849213D01*
X13118548Y81887385D01*
X13097956Y81926773D01*
X13091671Y81934590D01*
X15482000Y81934590D01*
X15482000Y73147497D01*
X15474522Y73167860D01*
X15182179Y73310348D01*
X14867656Y73393064D01*
X14543038Y73412831D01*
X14220802Y73368888D01*
X13913330Y73262924D01*
X13735478Y73167860D01*
X13637782Y72901823D01*
X14605000Y71934605D01*
X14619143Y71948747D01*
X14798748Y71769142D01*
X14784605Y71755000D01*
X14798748Y71740857D01*
X14619143Y71561252D01*
X14605000Y71575395D01*
X13637782Y70608177D01*
X13735478Y70342140D01*
X14027821Y70199652D01*
X14342344Y70116936D01*
X14666962Y70097169D01*
X14989198Y70141112D01*
X15296670Y70247076D01*
X15474522Y70342140D01*
X15482000Y70362503D01*
X15482000Y65534648D01*
X15387042Y65598097D01*
X15086579Y65722553D01*
X14767609Y65786000D01*
X14442391Y65786000D01*
X14123421Y65722553D01*
X13822958Y65598097D01*
X13552549Y65417415D01*
X13322585Y65187451D01*
X13141903Y64917042D01*
X13017447Y64616579D01*
X12954000Y64297609D01*
X12954000Y63972391D01*
X13017447Y63653421D01*
X13141903Y63352958D01*
X13322585Y63082549D01*
X13552549Y62852585D01*
X13822958Y62671903D01*
X14123421Y62547447D01*
X14442391Y62484000D01*
X14767609Y62484000D01*
X15086579Y62547447D01*
X15387042Y62671903D01*
X15482000Y62735352D01*
X15482000Y62319286D01*
X19302000Y62319286D01*
X19302000Y65343038D01*
X22472169Y65343038D01*
X22516112Y65020802D01*
X22622076Y64713330D01*
X22717140Y64535478D01*
X22883104Y64474532D01*
X22869820Y64470502D01*
X22759506Y64411537D01*
X22662815Y64332185D01*
X22583463Y64235494D01*
X22524498Y64125180D01*
X22488188Y64005482D01*
X22475928Y63881000D01*
X22475928Y61849000D01*
X22488188Y61724518D01*
X22524498Y61604820D01*
X22583463Y61494506D01*
X22662815Y61397815D01*
X22759506Y61318463D01*
X22869820Y61259498D01*
X22989518Y61223188D01*
X23114000Y61210928D01*
X25146000Y61210928D01*
X25270482Y61223188D01*
X25390180Y61259498D01*
X25500494Y61318463D01*
X25597185Y61397815D01*
X25676537Y61494506D01*
X25735502Y61604820D01*
X25771812Y61724518D01*
X25784072Y61849000D01*
X25784072Y63266320D01*
X35704248Y63266320D01*
X35716508Y63141838D01*
X35752818Y63022140D01*
X35811783Y62911826D01*
X35891135Y62815135D01*
X35987826Y62735783D01*
X36098140Y62676818D01*
X36217838Y62640508D01*
X36342320Y62628248D01*
X37306250Y62631320D01*
X37465000Y62790070D01*
X37465000Y64389000D01*
X37719000Y64389000D01*
X37719000Y62790070D01*
X37877750Y62631320D01*
X38841680Y62628248D01*
X38966162Y62640508D01*
X39085860Y62676818D01*
X39196174Y62735783D01*
X39292865Y62815135D01*
X39372217Y62911826D01*
X39431182Y63022140D01*
X39467492Y63141838D01*
X39479752Y63266320D01*
X39476680Y64230250D01*
X39317930Y64389000D01*
X37719000Y64389000D01*
X37465000Y64389000D01*
X35866070Y64389000D01*
X35707320Y64230250D01*
X35704248Y63266320D01*
X25784072Y63266320D01*
X25784072Y63881000D01*
X25771812Y64005482D01*
X25735502Y64125180D01*
X25676537Y64235494D01*
X25597185Y64332185D01*
X25500494Y64411537D01*
X25390180Y64470502D01*
X25376896Y64474532D01*
X25542860Y64535478D01*
X25685348Y64827821D01*
X25768064Y65142344D01*
X25787831Y65466962D01*
X25743888Y65789198D01*
X25637924Y66096670D01*
X25542860Y66274522D01*
X25276823Y66372218D01*
X24309605Y65405000D01*
X24323748Y65390857D01*
X24144143Y65211252D01*
X24130000Y65225395D01*
X24115858Y65211252D01*
X23936253Y65390857D01*
X23950395Y65405000D01*
X22983177Y66372218D01*
X22717140Y66274522D01*
X22574652Y65982179D01*
X22491936Y65667656D01*
X22472169Y65343038D01*
X19302000Y65343038D01*
X19302000Y66256000D01*
X21842000Y66256000D01*
X21842000Y66551823D01*
X23162782Y66551823D01*
X24130000Y65584605D01*
X25097218Y66551823D01*
X24999522Y66817860D01*
X24707179Y66960348D01*
X24392656Y67043064D01*
X24068038Y67062831D01*
X23745802Y67018888D01*
X23438330Y66912924D01*
X23260478Y66817860D01*
X23162782Y66551823D01*
X21842000Y66551823D01*
X21842000Y68703177D01*
X23162782Y68703177D01*
X23260478Y68437140D01*
X23552821Y68294652D01*
X23867344Y68211936D01*
X24191962Y68192169D01*
X24514198Y68236112D01*
X24821670Y68342076D01*
X24999522Y68437140D01*
X25029728Y68519396D01*
X28152641Y68519396D01*
X28196982Y68190398D01*
X28304656Y67876371D01*
X28404185Y67690167D01*
X28501298Y67653477D01*
X28440216Y67620827D01*
X28343525Y67541475D01*
X28264173Y67444784D01*
X28205208Y67334470D01*
X28168898Y67214772D01*
X28156638Y67090290D01*
X28156638Y64989710D01*
X28168898Y64865228D01*
X28205208Y64745530D01*
X28264173Y64635216D01*
X28343525Y64538525D01*
X28440216Y64459173D01*
X28550530Y64400208D01*
X28670228Y64363898D01*
X28794710Y64351638D01*
X30895290Y64351638D01*
X31019772Y64363898D01*
X31139470Y64400208D01*
X31249784Y64459173D01*
X31346475Y64538525D01*
X31425827Y64635216D01*
X31484792Y64745530D01*
X31521102Y64865228D01*
X31533362Y64989710D01*
X31533362Y65765680D01*
X35704248Y65765680D01*
X35707320Y64801750D01*
X35866070Y64643000D01*
X37465000Y64643000D01*
X37465000Y66241930D01*
X37719000Y66241930D01*
X37719000Y64643000D01*
X39317930Y64643000D01*
X39476680Y64801750D01*
X39479752Y65765680D01*
X39467492Y65890162D01*
X39431182Y66009860D01*
X39372217Y66120174D01*
X39292865Y66216865D01*
X39196174Y66296217D01*
X39085860Y66355182D01*
X38966162Y66391492D01*
X38841680Y66403752D01*
X37877750Y66400680D01*
X37719000Y66241930D01*
X37465000Y66241930D01*
X37306250Y66400680D01*
X36342320Y66403752D01*
X36217838Y66391492D01*
X36098140Y66355182D01*
X35987826Y66296217D01*
X35891135Y66216865D01*
X35811783Y66120174D01*
X35752818Y66009860D01*
X35716508Y65890162D01*
X35704248Y65765680D01*
X31533362Y65765680D01*
X31533362Y67090290D01*
X31521102Y67214772D01*
X31484792Y67334470D01*
X31425827Y67444784D01*
X31346475Y67541475D01*
X31249784Y67620827D01*
X31188702Y67653477D01*
X31285815Y67690167D01*
X31431728Y67988354D01*
X31516664Y68309277D01*
X31537359Y68640604D01*
X31493018Y68969602D01*
X31385344Y69283629D01*
X31285815Y69469833D01*
X31016273Y69571668D01*
X30024605Y68580000D01*
X30038748Y68565857D01*
X29859143Y68386252D01*
X29845000Y68400395D01*
X29830858Y68386252D01*
X29651253Y68565857D01*
X29665395Y68580000D01*
X28673727Y69571668D01*
X28404185Y69469833D01*
X28258272Y69171646D01*
X28173336Y68850723D01*
X28152641Y68519396D01*
X25029728Y68519396D01*
X25097218Y68703177D01*
X24130000Y69670395D01*
X23162782Y68703177D01*
X21842000Y68703177D01*
X21842000Y69788038D01*
X22472169Y69788038D01*
X22516112Y69465802D01*
X22622076Y69158330D01*
X22717140Y68980478D01*
X22983177Y68882782D01*
X23950395Y69850000D01*
X23936253Y69864142D01*
X24115858Y70043747D01*
X24130000Y70029605D01*
X24144143Y70043747D01*
X24323748Y69864142D01*
X24309605Y69850000D01*
X25276823Y68882782D01*
X25542860Y68980478D01*
X25685348Y69272821D01*
X25768064Y69587344D01*
X25787831Y69911962D01*
X25743888Y70234198D01*
X25637924Y70541670D01*
X25542860Y70719522D01*
X25376896Y70780468D01*
X25390180Y70784498D01*
X25500494Y70843463D01*
X25597185Y70922815D01*
X25676537Y71019506D01*
X25735502Y71129820D01*
X25771812Y71249518D01*
X25775403Y71285987D01*
X28159710Y71285987D01*
X28159710Y70954013D01*
X28224475Y70628419D01*
X28351516Y70321716D01*
X28535950Y70045690D01*
X28770690Y69810950D01*
X28854677Y69754832D01*
X28853332Y69751273D01*
X29845000Y68759605D01*
X30836668Y69751273D01*
X30835323Y69754832D01*
X30919310Y69810950D01*
X31154050Y70045690D01*
X31338484Y70321716D01*
X31465525Y70628419D01*
X31530290Y70954013D01*
X31530290Y71285987D01*
X31465525Y71611581D01*
X31338484Y71918284D01*
X31154050Y72194310D01*
X30919310Y72429050D01*
X30643284Y72613484D01*
X30336581Y72740525D01*
X30010987Y72805290D01*
X29679013Y72805290D01*
X29353419Y72740525D01*
X29046716Y72613484D01*
X28770690Y72429050D01*
X28535950Y72194310D01*
X28351516Y71918284D01*
X28224475Y71611581D01*
X28159710Y71285987D01*
X25775403Y71285987D01*
X25784072Y71374000D01*
X25784072Y73406000D01*
X25771812Y73530482D01*
X25735502Y73650180D01*
X25676537Y73760494D01*
X25597185Y73857185D01*
X25500494Y73936537D01*
X25390180Y73995502D01*
X25270482Y74031812D01*
X25146000Y74044072D01*
X23114000Y74044072D01*
X22989518Y74031812D01*
X22869820Y73995502D01*
X22759506Y73936537D01*
X22662815Y73857185D01*
X22583463Y73760494D01*
X22524498Y73650180D01*
X22488188Y73530482D01*
X22475928Y73406000D01*
X22475928Y71374000D01*
X22488188Y71249518D01*
X22524498Y71129820D01*
X22583463Y71019506D01*
X22662815Y70922815D01*
X22759506Y70843463D01*
X22869820Y70784498D01*
X22883104Y70780468D01*
X22717140Y70719522D01*
X22574652Y70427179D01*
X22491936Y70112656D01*
X22472169Y69788038D01*
X21842000Y69788038D01*
X21842000Y77300611D01*
X21982899Y77257870D01*
X22225000Y77234025D01*
X22467102Y77257870D01*
X22699901Y77328489D01*
X22914449Y77443167D01*
X23102502Y77597498D01*
X23256833Y77785551D01*
X23371511Y78000099D01*
X23442130Y78232898D01*
X23460000Y78414335D01*
X23460000Y79536033D01*
X23890000Y79536033D01*
X23890000Y79213967D01*
X23952832Y78898088D01*
X24076082Y78600537D01*
X24255013Y78332748D01*
X24482748Y78105013D01*
X24509001Y78087471D01*
X24509001Y77775911D01*
X24504085Y77726000D01*
X24523702Y77526830D01*
X24580656Y77339081D01*
X24581799Y77335313D01*
X24676141Y77158810D01*
X24803105Y77004104D01*
X24841868Y76972292D01*
X27059292Y74754867D01*
X27091104Y74716104D01*
X27224423Y74606692D01*
X27245810Y74589140D01*
X27422313Y74494798D01*
X27613829Y74436702D01*
X27813000Y74417085D01*
X27862902Y74422000D01*
X34377160Y74422000D01*
X36576000Y72223159D01*
X36576000Y71183816D01*
X36390587Y71059926D01*
X36128074Y70797413D01*
X35921818Y70488731D01*
X35779747Y70145741D01*
X35707320Y69781625D01*
X35707320Y69410375D01*
X35779747Y69046259D01*
X35921818Y68703269D01*
X36128074Y68394587D01*
X36390587Y68132074D01*
X36699269Y67925818D01*
X37042259Y67783747D01*
X37406375Y67711320D01*
X37777625Y67711320D01*
X38141741Y67783747D01*
X38484731Y67925818D01*
X38793413Y68132074D01*
X39055926Y68394587D01*
X39262182Y68703269D01*
X39404253Y69046259D01*
X39476680Y69410375D01*
X39476680Y69781625D01*
X39404253Y70145741D01*
X39262182Y70488731D01*
X39055926Y70797413D01*
X38793413Y71059926D01*
X38608000Y71183816D01*
X38608000Y72594098D01*
X38612915Y72644000D01*
X38593298Y72843171D01*
X38535202Y73034687D01*
X38475584Y73146225D01*
X38440860Y73211190D01*
X38313896Y73365896D01*
X38275133Y73397708D01*
X35551712Y76121128D01*
X35519896Y76159896D01*
X35365190Y76286860D01*
X35188687Y76381202D01*
X34997171Y76439298D01*
X34847902Y76454000D01*
X34798000Y76458915D01*
X34748098Y76454000D01*
X28233841Y76454000D01*
X26575040Y78112801D01*
X26794987Y78332748D01*
X26973918Y78600537D01*
X27034071Y78745758D01*
X27083702Y78625937D01*
X27262633Y78358148D01*
X27490368Y78130413D01*
X27758157Y77951482D01*
X28055708Y77828232D01*
X28371587Y77765400D01*
X28693653Y77765400D01*
X29009532Y77828232D01*
X29307083Y77951482D01*
X29574872Y78130413D01*
X29802607Y78358148D01*
X29981538Y78625937D01*
X30023549Y78727361D01*
X30076082Y78600537D01*
X30255013Y78332748D01*
X30482748Y78105013D01*
X30750537Y77926082D01*
X31048088Y77802832D01*
X31363967Y77740000D01*
X31686033Y77740000D01*
X32001912Y77802832D01*
X32299463Y77926082D01*
X32567252Y78105013D01*
X32794987Y78332748D01*
X32973918Y78600537D01*
X33097168Y78898088D01*
X33160000Y79213967D01*
X33160000Y79536033D01*
X33097168Y79851912D01*
X32973918Y80149463D01*
X32849503Y80335664D01*
X33590000Y80335664D01*
X33590000Y78414335D01*
X33607871Y78232898D01*
X33678490Y78000099D01*
X33793168Y77785551D01*
X33947499Y77597498D01*
X34135552Y77443167D01*
X34350100Y77328489D01*
X34582899Y77257870D01*
X34825000Y77234025D01*
X35067102Y77257870D01*
X35299901Y77328489D01*
X35514449Y77443167D01*
X35702502Y77597498D01*
X35856833Y77785551D01*
X35971511Y78000099D01*
X36042130Y78232898D01*
X36060000Y78414335D01*
X36060000Y80335665D01*
X36042130Y80517102D01*
X35971511Y80749901D01*
X35856833Y80964449D01*
X35702502Y81152502D01*
X35514448Y81306833D01*
X35299900Y81421511D01*
X35067101Y81492130D01*
X34825000Y81515975D01*
X34582898Y81492130D01*
X34350099Y81421511D01*
X34135551Y81306833D01*
X33947498Y81152502D01*
X33793167Y80964448D01*
X33678489Y80749900D01*
X33607870Y80517101D01*
X33590000Y80335664D01*
X32849503Y80335664D01*
X32794987Y80417252D01*
X32567252Y80644987D01*
X32299463Y80823918D01*
X32001912Y80947168D01*
X31686033Y81010000D01*
X31363967Y81010000D01*
X31048088Y80947168D01*
X30750537Y80823918D01*
X30482748Y80644987D01*
X30255013Y80417252D01*
X30076082Y80149463D01*
X30034071Y80048039D01*
X29981538Y80174863D01*
X29802607Y80442652D01*
X29574872Y80670387D01*
X29307083Y80849318D01*
X29009532Y80972568D01*
X28693653Y81035400D01*
X28371587Y81035400D01*
X28055708Y80972568D01*
X27758157Y80849318D01*
X27490368Y80670387D01*
X27262633Y80442652D01*
X27083702Y80174863D01*
X27023549Y80029642D01*
X26973918Y80149463D01*
X26794987Y80417252D01*
X26567252Y80644987D01*
X26299463Y80823918D01*
X26001912Y80947168D01*
X25686033Y81010000D01*
X25363967Y81010000D01*
X25048088Y80947168D01*
X24750537Y80823918D01*
X24482748Y80644987D01*
X24255013Y80417252D01*
X24076082Y80149463D01*
X23952832Y79851912D01*
X23890000Y79536033D01*
X23460000Y79536033D01*
X23460000Y80335665D01*
X23442130Y80517102D01*
X23371511Y80749901D01*
X23256833Y80964449D01*
X23102502Y81152502D01*
X22914448Y81306833D01*
X22699900Y81421511D01*
X22467101Y81492130D01*
X22225000Y81515975D01*
X21982898Y81492130D01*
X21842000Y81449389D01*
X21842000Y81826000D01*
X19302000Y81826000D01*
X19302000Y81934590D01*
X38657154Y81934590D01*
X38410830Y81770002D01*
X38117998Y81477170D01*
X37887922Y81132836D01*
X37729442Y80750233D01*
X37648650Y80344063D01*
X37648650Y79929937D01*
X37729442Y79523767D01*
X37887922Y79141164D01*
X38117998Y78796830D01*
X38410830Y78503998D01*
X38755164Y78273922D01*
X39137767Y78115442D01*
X39543937Y78034650D01*
X39958063Y78034650D01*
X40364233Y78115442D01*
X40746836Y78273922D01*
X41091170Y78503998D01*
X41384002Y78796830D01*
X41548581Y79043141D01*
X41548581Y60433546D01*
X41422042Y60518097D01*
X41121579Y60642553D01*
X40802609Y60706000D01*
X40477391Y60706000D01*
X40158421Y60642553D01*
X39857958Y60518097D01*
X39587549Y60337415D01*
X39357585Y60107451D01*
X39176903Y59837042D01*
X39052447Y59536579D01*
X38989000Y59217609D01*
X38989000Y58892391D01*
X39052447Y58573421D01*
X39176903Y58272958D01*
X39357585Y58002549D01*
X39587549Y57772585D01*
X39857958Y57591903D01*
X40158421Y57467447D01*
X40477391Y57404000D01*
X40802609Y57404000D01*
X41121579Y57467447D01*
X41422042Y57591903D01*
X41548581Y57676454D01*
X41548581Y52813546D01*
X41422042Y52898097D01*
X41121579Y53022553D01*
X40802609Y53086000D01*
X40477391Y53086000D01*
X40158421Y53022553D01*
X39857958Y52898097D01*
X39587549Y52717415D01*
X39357585Y52487451D01*
X39176903Y52217042D01*
X39052447Y51916579D01*
X38989000Y51597609D01*
X38989000Y51272391D01*
X39052447Y50953421D01*
X39176903Y50652958D01*
X39357585Y50382549D01*
X39587549Y50152585D01*
X39857958Y49971903D01*
X40158293Y49847500D01*
X39857958Y49723097D01*
X39587549Y49542415D01*
X39357585Y49312451D01*
X39176903Y49042042D01*
X39052447Y48741579D01*
X38989000Y48422609D01*
X38989000Y48097391D01*
X38997553Y48054393D01*
X37543868Y46600708D01*
X37505105Y46568896D01*
X37378141Y46414190D01*
X37311182Y46288918D01*
X37283799Y46237687D01*
X37225702Y46046170D01*
X37206085Y45847000D01*
X37211001Y45797088D01*
X37211000Y42086902D01*
X37206085Y42037000D01*
X37218594Y41910000D01*
X37225702Y41837830D01*
X37283798Y41646314D01*
X37378140Y41469810D01*
X37505104Y41315104D01*
X37543872Y41283288D01*
X38021655Y40805505D01*
X37993225Y40819158D01*
X37700358Y40894365D01*
X37398447Y40910991D01*
X37099093Y40868397D01*
X36813801Y40768222D01*
X36664208Y40688261D01*
X36580525Y40434080D01*
X37465000Y39549605D01*
X37479143Y39563747D01*
X37658748Y39384142D01*
X37644605Y39370000D01*
X38529080Y38485525D01*
X38783261Y38569208D01*
X38914158Y38841775D01*
X38989365Y39134642D01*
X39005991Y39436553D01*
X38963397Y39735907D01*
X38894209Y39932950D01*
X39116001Y39711158D01*
X39116000Y38393841D01*
X37416868Y36694708D01*
X37378105Y36662896D01*
X37251141Y36508190D01*
X37156799Y36331687D01*
X37098702Y36140170D01*
X37079085Y35941000D01*
X37084001Y35891088D01*
X37084000Y28959072D01*
X36959518Y28946812D01*
X36839820Y28910502D01*
X36729506Y28851537D01*
X36632815Y28772185D01*
X36553463Y28675494D01*
X36494498Y28565180D01*
X36458188Y28445482D01*
X36445928Y28321000D01*
X36445928Y26289000D01*
X36458188Y26164518D01*
X36494498Y26044820D01*
X36553463Y25934506D01*
X36632815Y25837815D01*
X36729506Y25758463D01*
X36839820Y25699498D01*
X36959518Y25663188D01*
X37084000Y25650928D01*
X39116000Y25650928D01*
X39240482Y25663188D01*
X39360180Y25699498D01*
X39470494Y25758463D01*
X39567185Y25837815D01*
X39646537Y25934506D01*
X39665704Y25970364D01*
X39805001Y25877288D01*
X39805000Y19649868D01*
X35760574Y15605441D01*
X35728710Y15579291D01*
X35688823Y15530688D01*
X35624364Y15452145D01*
X35546828Y15307086D01*
X35499082Y15149688D01*
X35482960Y14986000D01*
X35487001Y14944972D01*
X35487000Y8037988D01*
X35436072Y7987060D01*
X35436072Y8509000D01*
X35423812Y8633482D01*
X35387502Y8753180D01*
X35328537Y8863494D01*
X35249185Y8960185D01*
X35152494Y9039537D01*
X35042180Y9098502D01*
X35010437Y9108131D01*
X35076433Y9172172D01*
X35246717Y9418908D01*
X35365593Y9694124D01*
X35389134Y9796987D01*
X35268330Y10033000D01*
X33782000Y10033000D01*
X33782000Y10013000D01*
X33528000Y10013000D01*
X33528000Y10033000D01*
X32041670Y10033000D01*
X31920866Y9796987D01*
X31944407Y9694124D01*
X32063283Y9418908D01*
X32233567Y9172172D01*
X32299563Y9108131D01*
X32267820Y9098502D01*
X32157506Y9039537D01*
X32060815Y8960185D01*
X31981463Y8863494D01*
X31922498Y8753180D01*
X31886188Y8633482D01*
X31873928Y8509000D01*
X31873928Y6731000D01*
X31886188Y6606518D01*
X31922498Y6486820D01*
X31981463Y6376506D01*
X32060815Y6279815D01*
X32157506Y6200463D01*
X32267820Y6141498D01*
X32387518Y6105188D01*
X32512000Y6092928D01*
X33541941Y6092928D01*
X33220574Y5771561D01*
X33188710Y5745411D01*
X33150981Y5699438D01*
X33084364Y5618265D01*
X33006828Y5473206D01*
X32991996Y5424311D01*
X32959082Y5315809D01*
X32955555Y5280000D01*
X21808868Y5280000D01*
X21155000Y5933867D01*
X21155000Y11388982D01*
X21159040Y11430000D01*
X21142918Y11593689D01*
X21095172Y11751087D01*
X21017636Y11896146D01*
X20939439Y11991430D01*
X20939437Y11991432D01*
X20913291Y12023291D01*
X20881433Y12049436D01*
X20014979Y12915889D01*
X20066000Y13172391D01*
X20066000Y13497609D01*
X20002553Y13816579D01*
X19878097Y14117042D01*
X19697415Y14387451D01*
X19467451Y14617415D01*
X19197042Y14798097D01*
X18896707Y14922500D01*
X19197042Y15046903D01*
X19467451Y15227585D01*
X19697415Y15457549D01*
X19878097Y15727958D01*
X20002553Y16028421D01*
X20066000Y16347391D01*
X20066000Y16672609D01*
X20002553Y16991579D01*
X19878097Y17292042D01*
X19697415Y17562451D01*
X19467451Y17792415D01*
X19197042Y17973097D01*
X18896707Y18097500D01*
X19197042Y18221903D01*
X19467451Y18402585D01*
X19697415Y18632549D01*
X19878097Y18902958D01*
X20002553Y19203421D01*
X20066000Y19522391D01*
X20066000Y19847609D01*
X20002553Y20166579D01*
X19878097Y20467042D01*
X19697415Y20737451D01*
X19467451Y20967415D01*
X19197042Y21148097D01*
X18896579Y21272553D01*
X18577609Y21336000D01*
X18252391Y21336000D01*
X17933421Y21272553D01*
X17632958Y21148097D01*
X17362549Y20967415D01*
X17132585Y20737451D01*
X16951903Y20467042D01*
X16827447Y20166579D01*
X16764000Y19847609D01*
X16764000Y19522391D01*
X16815021Y19265890D01*
X14932574Y17383441D01*
X14900710Y17357291D01*
X14874562Y17325429D01*
X14796364Y17230145D01*
X14718828Y17085086D01*
X14671082Y16927688D01*
X14654960Y16764000D01*
X14659001Y16722971D01*
X14659000Y6568869D01*
X13243133Y5153000D01*
X10251868Y5153000D01*
X9979000Y5425868D01*
X9979000Y6197906D01*
X10242244Y6118052D01*
X10466141Y6096000D01*
X11123859Y6096000D01*
X11347756Y6118052D01*
X11635031Y6205196D01*
X11899785Y6346710D01*
X12131844Y6537156D01*
X12322290Y6769215D01*
X12463804Y7033969D01*
X12550948Y7321244D01*
X12580373Y7620000D01*
X12550948Y7918756D01*
X12463804Y8206031D01*
X12322290Y8470785D01*
X12131844Y8702844D01*
X11903794Y8890000D01*
X12131844Y9077156D01*
X12322290Y9309215D01*
X12463804Y9573969D01*
X12550948Y9861244D01*
X12580373Y10160000D01*
X12550948Y10458756D01*
X12463804Y10746031D01*
X12322290Y11010785D01*
X12131844Y11242844D01*
X11903794Y11430000D01*
X12131844Y11617156D01*
X12322290Y11849215D01*
X12336157Y11875158D01*
X12355689Y11877082D01*
X12513087Y11924828D01*
X12658146Y12002364D01*
X12785291Y12106709D01*
X12811445Y12138578D01*
X13642432Y12969563D01*
X13674291Y12995709D01*
X13778636Y13122854D01*
X13856172Y13267913D01*
X13903918Y13425311D01*
X13916000Y13547981D01*
X13920040Y13589000D01*
X13916000Y13630018D01*
X13916000Y25543132D01*
X15590911Y23868221D01*
X15594104Y23852166D01*
X15665905Y23678822D01*
X15770145Y23522816D01*
X15902816Y23390145D01*
X16058822Y23285905D01*
X16232166Y23214104D01*
X16416187Y23177500D01*
X16603813Y23177500D01*
X16787834Y23214104D01*
X16961178Y23285905D01*
X17117184Y23390145D01*
X17249855Y23522816D01*
X17354095Y23678822D01*
X17425896Y23852166D01*
X17462500Y24036187D01*
X17462500Y24223813D01*
X17425896Y24407834D01*
X17354095Y24581178D01*
X17249855Y24737184D01*
X17117184Y24869855D01*
X16961178Y24974095D01*
X16787834Y25045896D01*
X16771779Y25049089D01*
X13580599Y28240268D01*
X13707344Y28206936D01*
X14031962Y28187169D01*
X14354198Y28231112D01*
X14661670Y28337076D01*
X14839522Y28432140D01*
X14937218Y28698177D01*
X13970000Y29665395D01*
X13955858Y29651252D01*
X13776253Y29830857D01*
X13790395Y29845000D01*
X14149605Y29845000D01*
X15116823Y28877782D01*
X15382860Y28975478D01*
X15525348Y29267821D01*
X15608064Y29582344D01*
X15627831Y29906962D01*
X15583888Y30229198D01*
X15477924Y30536670D01*
X15382860Y30714522D01*
X15116823Y30812218D01*
X14149605Y29845000D01*
X13790395Y29845000D01*
X12823177Y30812218D01*
X12557140Y30714522D01*
X12414652Y30422179D01*
X12385549Y30311517D01*
X12382553Y30326579D01*
X12258097Y30627042D01*
X12077415Y30897451D01*
X11983043Y30991823D01*
X13002782Y30991823D01*
X13970000Y30024605D01*
X14937218Y30991823D01*
X14839522Y31257860D01*
X14547179Y31400348D01*
X14232656Y31483064D01*
X13908038Y31502831D01*
X13585802Y31458888D01*
X13278330Y31352924D01*
X13100478Y31257860D01*
X13002782Y30991823D01*
X11983043Y30991823D01*
X11847451Y31127415D01*
X11577042Y31308097D01*
X11276579Y31432553D01*
X10957609Y31496000D01*
X10632391Y31496000D01*
X10313421Y31432553D01*
X10106000Y31346636D01*
X10106000Y35963364D01*
X10313421Y35877447D01*
X10632391Y35814000D01*
X10957609Y35814000D01*
X11276579Y35877447D01*
X11577042Y36001903D01*
X11847451Y36182585D01*
X12077415Y36412549D01*
X12258097Y36682958D01*
X12382500Y36983293D01*
X12506903Y36682958D01*
X12687585Y36412549D01*
X12917549Y36182585D01*
X13187958Y36001903D01*
X13488421Y35877447D01*
X13807391Y35814000D01*
X14132609Y35814000D01*
X14451579Y35877447D01*
X14752042Y36001903D01*
X15022451Y36182585D01*
X15252415Y36412549D01*
X15433097Y36682958D01*
X15557553Y36983421D01*
X15621000Y37302391D01*
X15621000Y37627609D01*
X15557553Y37946579D01*
X15433097Y38247042D01*
X15252415Y38517451D01*
X15022451Y38747415D01*
X14752042Y38928097D01*
X14451579Y39052553D01*
X14132609Y39116000D01*
X13807391Y39116000D01*
X13757039Y39105984D01*
X14004516Y39192123D01*
X14166902Y39278919D01*
X14256930Y39538465D01*
X13335000Y40460395D01*
X12413070Y39538465D01*
X12503098Y39278919D01*
X12784616Y39142776D01*
X13087286Y39064171D01*
X13399474Y39046123D01*
X13589045Y39072568D01*
X13488421Y39052553D01*
X13187958Y38928097D01*
X12917549Y38747415D01*
X12687585Y38517451D01*
X12506903Y38247042D01*
X12382500Y37946707D01*
X12258097Y38247042D01*
X12077415Y38517451D01*
X11847451Y38747415D01*
X11577042Y38928097D01*
X11276579Y39052553D01*
X10957609Y39116000D01*
X10632391Y39116000D01*
X10313421Y39052553D01*
X10106000Y38966636D01*
X10106000Y40575526D01*
X11741123Y40575526D01*
X11784328Y40265815D01*
X11887123Y39970484D01*
X11973919Y39808098D01*
X12233465Y39718070D01*
X13155395Y40640000D01*
X13514605Y40640000D01*
X14436535Y39718070D01*
X14696081Y39808098D01*
X14832224Y40089616D01*
X14910829Y40392286D01*
X14928877Y40704474D01*
X14885672Y41014185D01*
X14782877Y41309516D01*
X14696081Y41471902D01*
X14436535Y41561930D01*
X13514605Y40640000D01*
X13155395Y40640000D01*
X12233465Y41561930D01*
X11973919Y41471902D01*
X11837776Y41190384D01*
X11759171Y40887714D01*
X11741123Y40575526D01*
X10106000Y40575526D01*
X10106000Y41589428D01*
X11747500Y41589428D01*
X11871982Y41601688D01*
X11991680Y41637998D01*
X12101994Y41696963D01*
X12198685Y41776315D01*
X12278037Y41873006D01*
X12319451Y41950485D01*
X12323028Y41946908D01*
X12453961Y41859422D01*
X12413070Y41741535D01*
X13335000Y40819605D01*
X14256930Y41741535D01*
X14216039Y41859422D01*
X14346972Y41946908D01*
X14568092Y42168028D01*
X14741824Y42428037D01*
X14861493Y42716943D01*
X14922500Y43023645D01*
X14922500Y43336355D01*
X14891890Y43490242D01*
X15929000Y42453131D01*
X15929001Y26457029D01*
X15924960Y26416000D01*
X15941082Y26252312D01*
X15988828Y26094914D01*
X16058364Y25964822D01*
X16066365Y25949854D01*
X16170710Y25822709D01*
X16202574Y25796559D01*
X22875559Y19123573D01*
X22901709Y19091709D01*
X23028854Y18987364D01*
X23173913Y18909828D01*
X23331311Y18862082D01*
X23453981Y18850000D01*
X23453991Y18850000D01*
X23494999Y18845961D01*
X23536007Y18850000D01*
X24607288Y18850000D01*
X24752585Y18632549D01*
X24982549Y18402585D01*
X25252958Y18221903D01*
X25553293Y18097500D01*
X25252958Y17973097D01*
X24982549Y17792415D01*
X24752585Y17562451D01*
X24571903Y17292042D01*
X24447447Y16991579D01*
X24384000Y16672609D01*
X24384000Y16347391D01*
X24447447Y16028421D01*
X24571903Y15727958D01*
X24752585Y15457549D01*
X24982549Y15227585D01*
X25252958Y15046903D01*
X25553293Y14922500D01*
X25252958Y14798097D01*
X24982549Y14617415D01*
X24752585Y14387451D01*
X24571903Y14117042D01*
X24447447Y13816579D01*
X24384000Y13497609D01*
X24384000Y13172391D01*
X24447447Y12853421D01*
X24571903Y12552958D01*
X24752585Y12282549D01*
X24982549Y12052585D01*
X25252958Y11871903D01*
X25553293Y11747500D01*
X25252958Y11623097D01*
X24982549Y11442415D01*
X24752585Y11212451D01*
X24571903Y10942042D01*
X24447447Y10641579D01*
X24384000Y10322609D01*
X24384000Y9997391D01*
X24447447Y9678421D01*
X24571903Y9377958D01*
X24752585Y9107549D01*
X24982549Y8877585D01*
X25252958Y8696903D01*
X25553421Y8572447D01*
X25872391Y8509000D01*
X26197609Y8509000D01*
X26516579Y8572447D01*
X26817042Y8696903D01*
X27087451Y8877585D01*
X27317415Y9107549D01*
X27498097Y9377958D01*
X27622553Y9678421D01*
X27686000Y9997391D01*
X27686000Y10322609D01*
X27622553Y10641579D01*
X27498097Y10942042D01*
X27317415Y11212451D01*
X27087451Y11442415D01*
X26817042Y11623097D01*
X26516707Y11747500D01*
X26817042Y11871903D01*
X27087451Y12052585D01*
X27317415Y12282549D01*
X27498097Y12552958D01*
X27622553Y12853421D01*
X27686000Y13172391D01*
X27686000Y13497609D01*
X27622553Y13816579D01*
X27498097Y14117042D01*
X27317415Y14387451D01*
X27087451Y14617415D01*
X26817042Y14798097D01*
X26516707Y14922500D01*
X26817042Y15046903D01*
X27087451Y15227585D01*
X27317415Y15457549D01*
X27498097Y15727958D01*
X27622553Y16028421D01*
X27686000Y16347391D01*
X27686000Y16672609D01*
X27622553Y16991579D01*
X27498097Y17292042D01*
X27317415Y17562451D01*
X27087451Y17792415D01*
X26817042Y17973097D01*
X26516707Y18097500D01*
X26817042Y18221903D01*
X27087451Y18402585D01*
X27317415Y18632549D01*
X27498097Y18902958D01*
X27622553Y19203421D01*
X27686000Y19522391D01*
X27686000Y19847609D01*
X27622553Y20166579D01*
X27498097Y20467042D01*
X27317415Y20737451D01*
X27172866Y20882000D01*
X29880133Y20882000D01*
X31003558Y19758574D01*
X31029709Y19726709D01*
X31156854Y19622364D01*
X31301913Y19544828D01*
X31459311Y19497082D01*
X31581981Y19485000D01*
X31581991Y19485000D01*
X31622999Y19480961D01*
X31664007Y19485000D01*
X32119273Y19485000D01*
X32127710Y19469215D01*
X32318156Y19237156D01*
X32546206Y19050000D01*
X32318156Y18862844D01*
X32127710Y18630785D01*
X31986196Y18366031D01*
X31899052Y18078756D01*
X31869627Y17780000D01*
X31899052Y17481244D01*
X31986196Y17193969D01*
X32127710Y16929215D01*
X32318156Y16697156D01*
X32546206Y16510000D01*
X32318156Y16322844D01*
X32127710Y16090785D01*
X31986196Y15826031D01*
X31899052Y15538756D01*
X31869627Y15240000D01*
X31899052Y14941244D01*
X31986196Y14653969D01*
X32127710Y14389215D01*
X32318156Y14157156D01*
X32546206Y13970000D01*
X32318156Y13782844D01*
X32127710Y13550785D01*
X31986196Y13286031D01*
X31899052Y12998756D01*
X31869627Y12700000D01*
X31899052Y12401244D01*
X31986196Y12113969D01*
X32127710Y11849215D01*
X32318156Y11617156D01*
X32550215Y11426710D01*
X32554002Y11424686D01*
X32448715Y11356602D01*
X32233567Y11147828D01*
X32063283Y10901092D01*
X31944407Y10625876D01*
X31920866Y10523013D01*
X32041670Y10287000D01*
X33528000Y10287000D01*
X33528000Y10307000D01*
X33782000Y10307000D01*
X33782000Y10287000D01*
X35268330Y10287000D01*
X35389134Y10523013D01*
X35365593Y10625876D01*
X35246717Y10901092D01*
X35076433Y11147828D01*
X34861285Y11356602D01*
X34755998Y11424686D01*
X34759785Y11426710D01*
X34991844Y11617156D01*
X35182290Y11849215D01*
X35323804Y12113969D01*
X35410948Y12401244D01*
X35440373Y12700000D01*
X35410948Y12998756D01*
X35323804Y13286031D01*
X35182290Y13550785D01*
X34991844Y13782844D01*
X34763794Y13970000D01*
X34991844Y14157156D01*
X35182290Y14389215D01*
X35323804Y14653969D01*
X35410948Y14941244D01*
X35440373Y15240000D01*
X35410948Y15538756D01*
X35323804Y15826031D01*
X35182290Y16090785D01*
X34991844Y16322844D01*
X34763794Y16510000D01*
X34991844Y16697156D01*
X35182290Y16929215D01*
X35323804Y17193969D01*
X35410948Y17481244D01*
X35440373Y17780000D01*
X35410948Y18078756D01*
X35323804Y18366031D01*
X35182290Y18630785D01*
X34991844Y18862844D01*
X34763794Y19050000D01*
X34991844Y19237156D01*
X35182290Y19469215D01*
X35323804Y19733969D01*
X35410948Y20021244D01*
X35440373Y20320000D01*
X35410948Y20618756D01*
X35323804Y20906031D01*
X35182290Y21170785D01*
X34991844Y21402844D01*
X34763794Y21590000D01*
X34991844Y21777156D01*
X35182290Y22009215D01*
X35323804Y22273969D01*
X35410948Y22561244D01*
X35440373Y22860000D01*
X35410948Y23158756D01*
X35323804Y23446031D01*
X35182290Y23710785D01*
X34991844Y23942844D01*
X34763794Y24130000D01*
X34991844Y24317156D01*
X35182290Y24549215D01*
X35323804Y24813969D01*
X35410948Y25101244D01*
X35440373Y25400000D01*
X35410948Y25698756D01*
X35323804Y25986031D01*
X35182290Y26250785D01*
X34991844Y26482844D01*
X34759785Y26673290D01*
X34495031Y26814804D01*
X34207756Y26901948D01*
X33983859Y26924000D01*
X33326141Y26924000D01*
X33102244Y26901948D01*
X32814969Y26814804D01*
X32550215Y26673290D01*
X32318156Y26482844D01*
X32127710Y26250785D01*
X31986196Y25986031D01*
X31899052Y25698756D01*
X31869627Y25400000D01*
X31899052Y25101244D01*
X31986196Y24813969D01*
X32127710Y24549215D01*
X32318156Y24317156D01*
X32546206Y24130000D01*
X32318156Y23942844D01*
X32127710Y23710785D01*
X31986196Y23446031D01*
X31899052Y23158756D01*
X31869627Y22860000D01*
X31899052Y22561244D01*
X31986196Y22273969D01*
X32127710Y22009215D01*
X32318156Y21777156D01*
X32546206Y21590000D01*
X32318156Y21402844D01*
X32127710Y21170785D01*
X32119273Y21155000D01*
X31968868Y21155000D01*
X30845446Y22278421D01*
X30819291Y22310291D01*
X30692146Y22414636D01*
X30547087Y22492172D01*
X30389689Y22539918D01*
X30267019Y22552000D01*
X30267018Y22552000D01*
X30226000Y22556040D01*
X30184982Y22552000D01*
X22824869Y22552000D01*
X19798587Y25578281D01*
X19811999Y25576960D01*
X19853015Y25581000D01*
X22395210Y25581000D01*
X22408822Y25571905D01*
X22582166Y25500104D01*
X22766187Y25463500D01*
X22953813Y25463500D01*
X23137834Y25500104D01*
X23311178Y25571905D01*
X23467184Y25676145D01*
X23599855Y25808816D01*
X23704095Y25964822D01*
X23775896Y26138166D01*
X23812500Y26322187D01*
X23812500Y26509813D01*
X23775896Y26693834D01*
X23704095Y26867178D01*
X23599855Y27023184D01*
X23467184Y27155855D01*
X23311178Y27260095D01*
X23137834Y27331896D01*
X22953813Y27368500D01*
X22766187Y27368500D01*
X22582166Y27331896D01*
X22408822Y27260095D01*
X22395210Y27251000D01*
X20157868Y27251000D01*
X19377000Y28031867D01*
X19377000Y28489452D01*
X19537958Y28381903D01*
X19838421Y28257447D01*
X20157391Y28194000D01*
X20482609Y28194000D01*
X20801579Y28257447D01*
X21102042Y28381903D01*
X21372451Y28562585D01*
X21602415Y28792549D01*
X21783097Y29062958D01*
X21907500Y29363293D01*
X22031903Y29062958D01*
X22212585Y28792549D01*
X22442549Y28562585D01*
X22712958Y28381903D01*
X23013421Y28257447D01*
X23332391Y28194000D01*
X23657609Y28194000D01*
X23976579Y28257447D01*
X24277042Y28381903D01*
X24547451Y28562585D01*
X24777415Y28792549D01*
X24958097Y29062958D01*
X25082553Y29363421D01*
X25146000Y29682391D01*
X25146000Y30007609D01*
X26924000Y30007609D01*
X26924000Y29682391D01*
X26987447Y29363421D01*
X27111903Y29062958D01*
X27292585Y28792549D01*
X27522549Y28562585D01*
X27792958Y28381903D01*
X28093421Y28257447D01*
X28412391Y28194000D01*
X28737609Y28194000D01*
X29056579Y28257447D01*
X29357042Y28381903D01*
X29627451Y28562585D01*
X29763043Y28698177D01*
X30782782Y28698177D01*
X30880478Y28432140D01*
X31172821Y28289652D01*
X31487344Y28206936D01*
X31811962Y28187169D01*
X32134198Y28231112D01*
X32441670Y28337076D01*
X32619522Y28432140D01*
X32717218Y28698177D01*
X31750000Y29665395D01*
X30782782Y28698177D01*
X29763043Y28698177D01*
X29857415Y28792549D01*
X30038097Y29062958D01*
X30162553Y29363421D01*
X30165158Y29376519D01*
X30242076Y29153330D01*
X30337140Y28975478D01*
X30603177Y28877782D01*
X31570395Y29845000D01*
X31929605Y29845000D01*
X32896823Y28877782D01*
X33162860Y28975478D01*
X33305348Y29267821D01*
X33388064Y29582344D01*
X33407831Y29906962D01*
X33363888Y30229198D01*
X33257924Y30536670D01*
X33162860Y30714522D01*
X32896823Y30812218D01*
X31929605Y29845000D01*
X31570395Y29845000D01*
X30603177Y30812218D01*
X30337140Y30714522D01*
X30194652Y30422179D01*
X30165549Y30311517D01*
X30162553Y30326579D01*
X30038097Y30627042D01*
X29857415Y30897451D01*
X29763043Y30991823D01*
X30782782Y30991823D01*
X31750000Y30024605D01*
X32717218Y30991823D01*
X32619522Y31257860D01*
X32327179Y31400348D01*
X32012656Y31483064D01*
X31688038Y31502831D01*
X31365802Y31458888D01*
X31058330Y31352924D01*
X30880478Y31257860D01*
X30782782Y30991823D01*
X29763043Y30991823D01*
X29627451Y31127415D01*
X29357042Y31308097D01*
X29056579Y31432553D01*
X28737609Y31496000D01*
X28412391Y31496000D01*
X28093421Y31432553D01*
X27792958Y31308097D01*
X27522549Y31127415D01*
X27292585Y30897451D01*
X27111903Y30627042D01*
X26987447Y30326579D01*
X26924000Y30007609D01*
X25146000Y30007609D01*
X25082553Y30326579D01*
X24958097Y30627042D01*
X24777415Y30897451D01*
X24547451Y31127415D01*
X24277042Y31308097D01*
X23976579Y31432553D01*
X23657609Y31496000D01*
X23332391Y31496000D01*
X23013421Y31432553D01*
X22712958Y31308097D01*
X22442549Y31127415D01*
X22212585Y30897451D01*
X22031903Y30627042D01*
X21907500Y30326707D01*
X21783097Y30627042D01*
X21602415Y30897451D01*
X21372451Y31127415D01*
X21102042Y31308097D01*
X20801579Y31432553D01*
X20482609Y31496000D01*
X20157391Y31496000D01*
X19838421Y31432553D01*
X19537958Y31308097D01*
X19377000Y31200548D01*
X19377000Y36109452D01*
X19537958Y36001903D01*
X19838421Y35877447D01*
X20157391Y35814000D01*
X20482609Y35814000D01*
X20801579Y35877447D01*
X21102042Y36001903D01*
X21372451Y36182585D01*
X21602415Y36412549D01*
X21783097Y36682958D01*
X21907500Y36983293D01*
X22031903Y36682958D01*
X22212585Y36412549D01*
X22442549Y36182585D01*
X22712958Y36001903D01*
X23013421Y35877447D01*
X23332391Y35814000D01*
X23657609Y35814000D01*
X23976579Y35877447D01*
X24277042Y36001903D01*
X24547451Y36182585D01*
X24777415Y36412549D01*
X24958097Y36682958D01*
X25082553Y36983421D01*
X25146000Y37302391D01*
X25146000Y37627609D01*
X26924000Y37627609D01*
X26924000Y37302391D01*
X26987447Y36983421D01*
X27111903Y36682958D01*
X27292585Y36412549D01*
X27522549Y36182585D01*
X27792958Y36001903D01*
X28093421Y35877447D01*
X28412391Y35814000D01*
X28737609Y35814000D01*
X29056579Y35877447D01*
X29357042Y36001903D01*
X29627451Y36182585D01*
X29857415Y36412549D01*
X30038097Y36682958D01*
X30162500Y36983293D01*
X30286903Y36682958D01*
X30467585Y36412549D01*
X30697549Y36182585D01*
X30967958Y36001903D01*
X31268421Y35877447D01*
X31587391Y35814000D01*
X31912609Y35814000D01*
X32231579Y35877447D01*
X32532042Y36001903D01*
X32802451Y36182585D01*
X33032415Y36412549D01*
X33213097Y36682958D01*
X33337553Y36983421D01*
X33401000Y37302391D01*
X33401000Y37627609D01*
X33337553Y37946579D01*
X33213097Y38247042D01*
X33173756Y38305920D01*
X36580525Y38305920D01*
X36664208Y38051739D01*
X36936775Y37920842D01*
X37229642Y37845635D01*
X37531553Y37829009D01*
X37830907Y37871603D01*
X38116199Y37971778D01*
X38265792Y38051739D01*
X38349475Y38305920D01*
X37465000Y39190395D01*
X36580525Y38305920D01*
X33173756Y38305920D01*
X33032415Y38517451D01*
X32802451Y38747415D01*
X32532042Y38928097D01*
X32231579Y39052553D01*
X31912609Y39116000D01*
X31587391Y39116000D01*
X31268421Y39052553D01*
X30967958Y38928097D01*
X30697549Y38747415D01*
X30467585Y38517451D01*
X30286903Y38247042D01*
X30162500Y37946707D01*
X30038097Y38247042D01*
X29857415Y38517451D01*
X29627451Y38747415D01*
X29357042Y38928097D01*
X29056579Y39052553D01*
X28737609Y39116000D01*
X28412391Y39116000D01*
X28093421Y39052553D01*
X27792958Y38928097D01*
X27522549Y38747415D01*
X27292585Y38517451D01*
X27111903Y38247042D01*
X26987447Y37946579D01*
X26924000Y37627609D01*
X25146000Y37627609D01*
X25082553Y37946579D01*
X24958097Y38247042D01*
X24777415Y38517451D01*
X24547451Y38747415D01*
X24277042Y38928097D01*
X23976579Y39052553D01*
X23657609Y39116000D01*
X23332391Y39116000D01*
X23013421Y39052553D01*
X22712958Y38928097D01*
X22442549Y38747415D01*
X22212585Y38517451D01*
X22031903Y38247042D01*
X21907500Y37946707D01*
X21783097Y38247042D01*
X21602415Y38517451D01*
X21372451Y38747415D01*
X21102042Y38928097D01*
X20824642Y39043000D01*
X21379210Y39043000D01*
X21392822Y39033905D01*
X21566166Y38962104D01*
X21750187Y38925500D01*
X21937813Y38925500D01*
X22121834Y38962104D01*
X22295178Y39033905D01*
X22451184Y39138145D01*
X22583855Y39270816D01*
X22688095Y39426822D01*
X22734338Y39538465D01*
X29558070Y39538465D01*
X29648098Y39278919D01*
X29929616Y39142776D01*
X30232286Y39064171D01*
X30544474Y39046123D01*
X30854185Y39089328D01*
X31149516Y39192123D01*
X31311902Y39278919D01*
X31320409Y39303447D01*
X35924009Y39303447D01*
X35966603Y39004093D01*
X36066778Y38718801D01*
X36146739Y38569208D01*
X36400920Y38485525D01*
X37285395Y39370000D01*
X36400920Y40254475D01*
X36146739Y40170792D01*
X36015842Y39898225D01*
X35940635Y39605358D01*
X35924009Y39303447D01*
X31320409Y39303447D01*
X31401930Y39538465D01*
X30480000Y40460395D01*
X29558070Y39538465D01*
X22734338Y39538465D01*
X22759896Y39600166D01*
X22796500Y39784187D01*
X22796500Y39971813D01*
X22759896Y40155834D01*
X22688095Y40329178D01*
X22583855Y40485184D01*
X22493513Y40575526D01*
X28886123Y40575526D01*
X28929328Y40265815D01*
X29032123Y39970484D01*
X29118919Y39808098D01*
X29378465Y39718070D01*
X30300395Y40640000D01*
X30659605Y40640000D01*
X31581535Y39718070D01*
X31841081Y39808098D01*
X31977224Y40089616D01*
X32055829Y40392286D01*
X32073877Y40704474D01*
X32030672Y41014185D01*
X31927877Y41309516D01*
X31841081Y41471902D01*
X31581535Y41561930D01*
X30659605Y40640000D01*
X30300395Y40640000D01*
X29378465Y41561930D01*
X29118919Y41471902D01*
X28982776Y41190384D01*
X28904171Y40887714D01*
X28886123Y40575526D01*
X22493513Y40575526D01*
X22451184Y40617855D01*
X22295178Y40722095D01*
X22121834Y40793896D01*
X21937813Y40830500D01*
X21750187Y40830500D01*
X21566166Y40793896D01*
X21392822Y40722095D01*
X21379210Y40713000D01*
X19895790Y40713000D01*
X19882178Y40722095D01*
X19708834Y40793896D01*
X19524813Y40830500D01*
X19377000Y40830500D01*
X19377000Y44132500D01*
X26349428Y44132500D01*
X26349428Y42227500D01*
X26361688Y42103018D01*
X26397998Y41983320D01*
X26456963Y41873006D01*
X26536315Y41776315D01*
X26633006Y41696963D01*
X26743320Y41637998D01*
X26863018Y41601688D01*
X26987500Y41589428D01*
X28892500Y41589428D01*
X29016982Y41601688D01*
X29136680Y41637998D01*
X29246994Y41696963D01*
X29343685Y41776315D01*
X29423037Y41873006D01*
X29464451Y41950485D01*
X29468028Y41946908D01*
X29598961Y41859422D01*
X29558070Y41741535D01*
X30480000Y40819605D01*
X31401930Y41741535D01*
X31361039Y41859422D01*
X31491972Y41946908D01*
X31713092Y42168028D01*
X31886824Y42428037D01*
X32006493Y42716943D01*
X32067500Y43023645D01*
X32067500Y43336355D01*
X32006493Y43643057D01*
X31886824Y43931963D01*
X31713092Y44191972D01*
X31491972Y44413092D01*
X31231963Y44586824D01*
X30943057Y44706493D01*
X30636355Y44767500D01*
X30323645Y44767500D01*
X30016943Y44706493D01*
X29728037Y44586824D01*
X29468028Y44413092D01*
X29464451Y44409515D01*
X29423037Y44486994D01*
X29343685Y44583685D01*
X29246994Y44663037D01*
X29136680Y44722002D01*
X29016982Y44758312D01*
X28892500Y44770572D01*
X26987500Y44770572D01*
X26863018Y44758312D01*
X26743320Y44722002D01*
X26633006Y44663037D01*
X26536315Y44583685D01*
X26456963Y44486994D01*
X26397998Y44376680D01*
X26361688Y44256982D01*
X26349428Y44132500D01*
X19377000Y44132500D01*
X19377000Y44281982D01*
X19381040Y44323001D01*
X19364918Y44486688D01*
X19345563Y44550494D01*
X19317172Y44644087D01*
X19239636Y44789146D01*
X19135291Y44916291D01*
X19103421Y44942446D01*
X19034443Y45011424D01*
X19034438Y45011430D01*
X16837000Y47208867D01*
X16837000Y50327609D01*
X27559000Y50327609D01*
X27559000Y50002391D01*
X27622447Y49683421D01*
X27746903Y49382958D01*
X27927585Y49112549D01*
X28157549Y48882585D01*
X28427958Y48701903D01*
X28728421Y48577447D01*
X29047391Y48514000D01*
X29372609Y48514000D01*
X29691579Y48577447D01*
X29992042Y48701903D01*
X30184296Y48830364D01*
X30203463Y48794506D01*
X30282815Y48697815D01*
X30379506Y48618463D01*
X30489820Y48559498D01*
X30609518Y48523188D01*
X30734000Y48510928D01*
X32766000Y48510928D01*
X32890482Y48523188D01*
X33010180Y48559498D01*
X33120494Y48618463D01*
X33217185Y48697815D01*
X33296537Y48794506D01*
X33355502Y48904820D01*
X33359859Y48919184D01*
X35930000Y48919184D01*
X35930000Y48616816D01*
X35988989Y48320257D01*
X36104701Y48040905D01*
X36272688Y47789495D01*
X36486495Y47575688D01*
X36737905Y47407701D01*
X37017257Y47291989D01*
X37313816Y47233000D01*
X37616184Y47233000D01*
X37912743Y47291989D01*
X38192095Y47407701D01*
X38443505Y47575688D01*
X38657312Y47789495D01*
X38825299Y48040905D01*
X38941011Y48320257D01*
X39000000Y48616816D01*
X39000000Y48919184D01*
X38941011Y49215743D01*
X38825299Y49495095D01*
X38657312Y49746505D01*
X38443505Y49960312D01*
X38192095Y50128299D01*
X37912743Y50244011D01*
X37616184Y50303000D01*
X37313816Y50303000D01*
X37017257Y50244011D01*
X36737905Y50128299D01*
X36486495Y49960312D01*
X36272688Y49746505D01*
X36104701Y49495095D01*
X35988989Y49215743D01*
X35930000Y48919184D01*
X33359859Y48919184D01*
X33391812Y49024518D01*
X33404072Y49149000D01*
X33404072Y51181000D01*
X33391812Y51305482D01*
X33355502Y51425180D01*
X33296537Y51535494D01*
X33245561Y51597609D01*
X33909000Y51597609D01*
X33909000Y51272391D01*
X33972447Y50953421D01*
X34096903Y50652958D01*
X34277585Y50382549D01*
X34507549Y50152585D01*
X34777958Y49971903D01*
X35078421Y49847447D01*
X35397391Y49784000D01*
X35722609Y49784000D01*
X36041579Y49847447D01*
X36342042Y49971903D01*
X36612451Y50152585D01*
X36842415Y50382549D01*
X37023097Y50652958D01*
X37147553Y50953421D01*
X37211000Y51272391D01*
X37211000Y51597609D01*
X37147553Y51916579D01*
X37023097Y52217042D01*
X36842415Y52487451D01*
X36612451Y52717415D01*
X36342042Y52898097D01*
X36041579Y53022553D01*
X35722609Y53086000D01*
X35397391Y53086000D01*
X35078421Y53022553D01*
X34777958Y52898097D01*
X34507549Y52717415D01*
X34277585Y52487451D01*
X34096903Y52217042D01*
X33972447Y51916579D01*
X33909000Y51597609D01*
X33245561Y51597609D01*
X33217185Y51632185D01*
X33120494Y51711537D01*
X33010180Y51770502D01*
X32890482Y51806812D01*
X32766000Y51819072D01*
X30734000Y51819072D01*
X30609518Y51806812D01*
X30489820Y51770502D01*
X30379506Y51711537D01*
X30282815Y51632185D01*
X30203463Y51535494D01*
X30184296Y51499636D01*
X29992042Y51628097D01*
X29691579Y51752553D01*
X29372609Y51816000D01*
X29047391Y51816000D01*
X28728421Y51752553D01*
X28427958Y51628097D01*
X28157549Y51447415D01*
X27927585Y51217451D01*
X27746903Y50947042D01*
X27622447Y50646579D01*
X27559000Y50327609D01*
X16837000Y50327609D01*
X16837000Y52959000D01*
X18030928Y52959000D01*
X18043188Y52834518D01*
X18079498Y52714820D01*
X18138463Y52604506D01*
X18217815Y52507815D01*
X18314506Y52428463D01*
X18424820Y52369498D01*
X18544518Y52333188D01*
X18669000Y52320928D01*
X19399250Y52324000D01*
X19558000Y52482750D01*
X19558000Y53848000D01*
X18192750Y53848000D01*
X18034000Y53689250D01*
X18030928Y52959000D01*
X16837000Y52959000D01*
X16837000Y54991000D01*
X18030928Y54991000D01*
X18034000Y54260750D01*
X18192750Y54102000D01*
X19558000Y54102000D01*
X19558000Y55467250D01*
X19812000Y55467250D01*
X19812000Y54102000D01*
X19832000Y54102000D01*
X19832000Y53848000D01*
X19812000Y53848000D01*
X19812000Y52482750D01*
X19970750Y52324000D01*
X20701000Y52320928D01*
X20825482Y52333188D01*
X20945180Y52369498D01*
X21055494Y52428463D01*
X21152185Y52507815D01*
X21231537Y52604506D01*
X21250704Y52640364D01*
X21442958Y52511903D01*
X21743421Y52387447D01*
X22062391Y52324000D01*
X22387609Y52324000D01*
X22706579Y52387447D01*
X23007042Y52511903D01*
X23277451Y52692585D01*
X23495000Y52910134D01*
X23712549Y52692585D01*
X23982958Y52511903D01*
X24283421Y52387447D01*
X24602391Y52324000D01*
X24927609Y52324000D01*
X25246579Y52387447D01*
X25547042Y52511903D01*
X25817451Y52692585D01*
X26047415Y52922549D01*
X26228097Y53192958D01*
X26352553Y53493421D01*
X26416000Y53812391D01*
X26416000Y54137609D01*
X26352553Y54456579D01*
X26228097Y54757042D01*
X26047415Y55027451D01*
X25817451Y55257415D01*
X25547042Y55438097D01*
X25246579Y55562553D01*
X24927609Y55626000D01*
X24602391Y55626000D01*
X24283421Y55562553D01*
X23982958Y55438097D01*
X23712549Y55257415D01*
X23495000Y55039866D01*
X23277451Y55257415D01*
X23007042Y55438097D01*
X22706579Y55562553D01*
X22387609Y55626000D01*
X22062391Y55626000D01*
X21743421Y55562553D01*
X21442958Y55438097D01*
X21250704Y55309636D01*
X21231537Y55345494D01*
X21152185Y55442185D01*
X21055494Y55521537D01*
X20945180Y55580502D01*
X20825482Y55616812D01*
X20701000Y55629072D01*
X19970750Y55626000D01*
X19812000Y55467250D01*
X19558000Y55467250D01*
X19399250Y55626000D01*
X18669000Y55629072D01*
X18544518Y55616812D01*
X18424820Y55580502D01*
X18314506Y55521537D01*
X18217815Y55442185D01*
X18138463Y55345494D01*
X18079498Y55235180D01*
X18043188Y55115482D01*
X18030928Y54991000D01*
X16837000Y54991000D01*
X16837000Y57108982D01*
X16841040Y57150000D01*
X16834433Y57217087D01*
X16824918Y57313689D01*
X16777172Y57471087D01*
X16699636Y57616146D01*
X16621439Y57711430D01*
X16621437Y57711432D01*
X16595291Y57743291D01*
X16563433Y57769436D01*
X15115260Y59217609D01*
X33909000Y59217609D01*
X33909000Y58892391D01*
X33972447Y58573421D01*
X34096903Y58272958D01*
X34277585Y58002549D01*
X34507549Y57772585D01*
X34777958Y57591903D01*
X35078421Y57467447D01*
X35397391Y57404000D01*
X35722609Y57404000D01*
X36041579Y57467447D01*
X36342042Y57591903D01*
X36612451Y57772585D01*
X36842415Y58002549D01*
X37023097Y58272958D01*
X37147553Y58573421D01*
X37211000Y58892391D01*
X37211000Y59217609D01*
X37147553Y59536579D01*
X37023097Y59837042D01*
X36842415Y60107451D01*
X36612451Y60337415D01*
X36342042Y60518097D01*
X36041579Y60642553D01*
X35722609Y60706000D01*
X35397391Y60706000D01*
X35078421Y60642553D01*
X34777958Y60518097D01*
X34507549Y60337415D01*
X34277585Y60107451D01*
X34096903Y59837042D01*
X33972447Y59536579D01*
X33909000Y59217609D01*
X15115260Y59217609D01*
X12684446Y61648421D01*
X12658291Y61680291D01*
X12531146Y61784636D01*
X12386087Y61862172D01*
X12228689Y61909918D01*
X12106019Y61922000D01*
X12106018Y61922000D01*
X12065000Y61926040D01*
X12023982Y61922000D01*
X10759868Y61922000D01*
X10003936Y62677931D01*
X10012958Y62671903D01*
X10313421Y62547447D01*
X10632391Y62484000D01*
X10957609Y62484000D01*
X11276579Y62547447D01*
X11577042Y62671903D01*
X11847451Y62852585D01*
X12077415Y63082549D01*
X12258097Y63352958D01*
X12382553Y63653421D01*
X12446000Y63972391D01*
X12446000Y64297609D01*
X12382553Y64616579D01*
X12258097Y64917042D01*
X12077415Y65187451D01*
X11847451Y65417415D01*
X11577042Y65598097D01*
X11276579Y65722553D01*
X10957609Y65786000D01*
X10632391Y65786000D01*
X10313421Y65722553D01*
X10012958Y65598097D01*
X9852000Y65490548D01*
X9852000Y65490982D01*
X9856040Y65532000D01*
X9839918Y65695688D01*
X9818687Y65765680D01*
X9792172Y65853087D01*
X9714636Y65998146D01*
X9610291Y66125291D01*
X9578433Y66151436D01*
X6010406Y69719461D01*
X5988625Y69791264D01*
X5849469Y70051606D01*
X5662197Y70279797D01*
X5434006Y70467069D01*
X5400460Y70485000D01*
X5434006Y70502931D01*
X5662197Y70690203D01*
X5849469Y70918394D01*
X5988625Y71178736D01*
X6074316Y71461223D01*
X6103251Y71755000D01*
X6087236Y71917609D01*
X9144000Y71917609D01*
X9144000Y71592391D01*
X9207447Y71273421D01*
X9331903Y70972958D01*
X9512585Y70702549D01*
X9742549Y70472585D01*
X10012958Y70291903D01*
X10313421Y70167447D01*
X10632391Y70104000D01*
X10957609Y70104000D01*
X11276579Y70167447D01*
X11577042Y70291903D01*
X11847451Y70472585D01*
X12077415Y70702549D01*
X12258097Y70972958D01*
X12382553Y71273421D01*
X12446000Y71592391D01*
X12446000Y71693038D01*
X12947169Y71693038D01*
X12991112Y71370802D01*
X13097076Y71063330D01*
X13192140Y70885478D01*
X13458177Y70787782D01*
X14425395Y71755000D01*
X13458177Y72722218D01*
X13192140Y72624522D01*
X13049652Y72332179D01*
X12966936Y72017656D01*
X12947169Y71693038D01*
X12446000Y71693038D01*
X12446000Y71917609D01*
X12382553Y72236579D01*
X12258097Y72537042D01*
X12077415Y72807451D01*
X11847451Y73037415D01*
X11577042Y73218097D01*
X11276579Y73342553D01*
X10957609Y73406000D01*
X10632391Y73406000D01*
X10313421Y73342553D01*
X10012958Y73218097D01*
X9742549Y73037415D01*
X9512585Y72807451D01*
X9331903Y72537042D01*
X9207447Y72236579D01*
X9144000Y71917609D01*
X6087236Y71917609D01*
X6074316Y72048777D01*
X5988625Y72331264D01*
X5849469Y72591606D01*
X5662197Y72819797D01*
X5434006Y73007069D01*
X5394053Y73028424D01*
X5596729Y73176514D01*
X5795733Y73392965D01*
X5948686Y73644081D01*
X6049709Y73920211D01*
X6052358Y73935974D01*
X5931217Y74168000D01*
X4572000Y74168000D01*
X4572000Y74148000D01*
X4318000Y74148000D01*
X4318000Y74168000D01*
X4298000Y74168000D01*
X4298000Y74422000D01*
X4318000Y74422000D01*
X4318000Y75635925D01*
X4572000Y75635925D01*
X4572000Y74422000D01*
X5931217Y74422000D01*
X6052358Y74654026D01*
X6049709Y74669789D01*
X5948686Y74945919D01*
X5795733Y75197035D01*
X5596729Y75413486D01*
X5359321Y75586954D01*
X5092633Y75710773D01*
X4806914Y75780185D01*
X4572000Y75635925D01*
X4318000Y75635925D01*
X4083086Y75780185D01*
X3797367Y75710773D01*
X3530679Y75586954D01*
X3293271Y75413486D01*
X3094267Y75197035D01*
X3059781Y75140416D01*
X3059781Y79043159D01*
X3224372Y78796830D01*
X3517204Y78503998D01*
X3861538Y78273922D01*
X4244141Y78115442D01*
X4650311Y78034650D01*
X5064437Y78034650D01*
X5470607Y78115442D01*
X5853210Y78273922D01*
X6197544Y78503998D01*
X6490376Y78796830D01*
X6720452Y79141164D01*
X6878932Y79523767D01*
X6959724Y79929937D01*
X6959724Y80344063D01*
X6878932Y80750233D01*
X6720452Y81132836D01*
X6490376Y81477170D01*
X6197544Y81770002D01*
X5951220Y81934590D01*
X9730480Y81934590D01*
X9714209Y81908385D01*
G04 #@! TA.AperFunction,Conductor*
D33*
G36*
X9714209Y81908385D02*
G01*
X9689703Y81873994D01*
X9681340Y81855449D01*
X9670603Y81838156D01*
X9655719Y81798634D01*
X9638355Y81760130D01*
X9633751Y81740304D01*
X9626581Y81721265D01*
X9619659Y81679617D01*
X9610102Y81638461D01*
X9609437Y81618113D01*
X9606102Y81598049D01*
X9607401Y81555852D01*
X9606020Y81513621D01*
X9609319Y81493536D01*
X9609945Y81473202D01*
X9616143Y81446277D01*
X9616463Y81441858D01*
X9619812Y81429654D01*
X9626265Y81390366D01*
X9633399Y81371313D01*
X9637964Y81351480D01*
X9646458Y81332547D01*
X9649516Y81321404D01*
X9659773Y81300870D01*
X9670062Y81273391D01*
X9674054Y81265396D01*
X9676618Y81260348D01*
X9684147Y81248542D01*
X9689093Y81237518D01*
X9696952Y81226444D01*
X9705334Y81209665D01*
X9710141Y81202132D01*
X9748449Y81143017D01*
X9749204Y81142069D01*
X9749768Y81140989D01*
X9754709Y81133542D01*
X9835424Y81013700D01*
X9835520Y81013584D01*
X9837429Y81010741D01*
X9956029Y80836754D01*
X9956094Y80836676D01*
X9957076Y80835223D01*
X10109042Y80613671D01*
X10109088Y80613617D01*
X10109730Y80612670D01*
X10290539Y80350137D01*
X10290572Y80350098D01*
X10291060Y80349381D01*
X10496190Y80052447D01*
X10496222Y80052409D01*
X10496633Y80051807D01*
X10721564Y79727055D01*
X10721594Y79727020D01*
X10721970Y79726470D01*
X10962180Y79380482D01*
X10962190Y79380470D01*
X10962299Y79380311D01*
X11043258Y79263783D01*
X11043269Y79263766D01*
X11221179Y79007215D01*
X11178559Y79018382D01*
X11178439Y79018401D01*
X11172092Y79020040D01*
X10994577Y79064576D01*
X10992584Y79064873D01*
X10990677Y79065542D01*
X10981981Y79067601D01*
X10862880Y79094932D01*
X10841706Y79097654D01*
X10821046Y79103077D01*
X10812213Y79104429D01*
X10763045Y79111609D01*
X10733942Y79112986D01*
X10705134Y79117392D01*
X10671701Y79115930D01*
X10638279Y79117511D01*
X10609460Y79113208D01*
X10580347Y79111935D01*
X10547832Y79104007D01*
X10514742Y79099066D01*
X10487315Y79089250D01*
X10458996Y79082345D01*
X10428638Y79068251D01*
X10397140Y79056978D01*
X10372141Y79042021D01*
X10345704Y79029747D01*
X10318657Y79010021D01*
X10289954Y78992848D01*
X10268343Y78973326D01*
X10244786Y78956146D01*
X10222086Y78931542D01*
X10197265Y78909121D01*
X10179849Y78885763D01*
X10160087Y78864343D01*
X10142603Y78835808D01*
X10122604Y78808985D01*
X10110820Y78784288D01*
X10098145Y78764356D01*
X10096966Y78761325D01*
X10094831Y78757840D01*
X10090984Y78749774D01*
X10089556Y78746725D01*
X10079951Y78719596D01*
X10068814Y78696255D01*
X10063392Y78674997D01*
X10052871Y78647944D01*
X10051153Y78638254D01*
X10047870Y78628980D01*
X10042817Y78594325D01*
X10037945Y78575223D01*
X10037046Y78558668D01*
X10031070Y78524955D01*
X10031267Y78515114D01*
X10029848Y78505381D01*
X10031927Y78464397D01*
X10031172Y78450501D01*
X10032790Y78439118D01*
X10033573Y78400073D01*
X10035676Y78390464D01*
X10036175Y78380635D01*
X10047532Y78335436D01*
X10048754Y78326839D01*
X10051026Y78320349D01*
X10060284Y78278057D01*
X10063097Y78269575D01*
X10073900Y78237748D01*
X10090066Y78202024D01*
X10103595Y78165195D01*
X10107537Y78157176D01*
X10141846Y78088575D01*
X10146154Y78081727D01*
X10149243Y78074237D01*
X10153496Y78066378D01*
X10213224Y77957801D01*
X10213942Y77956753D01*
X10214448Y77955586D01*
X10218840Y77947804D01*
X10305898Y77796048D01*
X10305980Y77795933D01*
X10309097Y77790537D01*
X10425399Y77592401D01*
X10425488Y77592279D01*
X10427397Y77589020D01*
X10574855Y77341300D01*
X10574930Y77341198D01*
X10576182Y77339081D01*
X10756710Y77038574D01*
X10756770Y77038493D01*
X10757626Y77037055D01*
X10973136Y76680561D01*
X10973178Y76680505D01*
X10973785Y76679489D01*
X11226190Y76263804D01*
X11226226Y76263756D01*
X11226659Y76263034D01*
X11517870Y75784957D01*
X11517894Y75784925D01*
X11518212Y75784396D01*
X11850145Y75240722D01*
X11850167Y75240693D01*
X11850395Y75240314D01*
X12224961Y74627842D01*
X12224990Y74627804D01*
X12225404Y74627118D01*
X12289578Y74522495D01*
X12289651Y74522399D01*
X12290720Y74520642D01*
X12427008Y74300138D01*
X12427101Y74300017D01*
X12428828Y74297212D01*
X12547374Y74107703D01*
X12547475Y74107571D01*
X12549957Y74103610D01*
X12644210Y73955441D01*
X12644386Y73955217D01*
X12644518Y73954956D01*
X12649374Y73947454D01*
X12712784Y73850968D01*
X12723112Y73838175D01*
X12731495Y73824027D01*
X12736830Y73816857D01*
X12762845Y73782396D01*
X12771971Y73772489D01*
X12779476Y73761301D01*
X12814213Y73726630D01*
X12847470Y73690527D01*
X12858350Y73682578D01*
X12867883Y73673064D01*
X12908698Y73645797D01*
X12948329Y73616844D01*
X12960539Y73611163D01*
X12971743Y73603678D01*
X13017071Y73584860D01*
X13061577Y73564153D01*
X13074666Y73560950D01*
X13087103Y73555787D01*
X13135228Y73546131D01*
X13182904Y73534465D01*
X13196358Y73533866D01*
X13209569Y73531215D01*
X13258667Y73531090D01*
X13307686Y73528907D01*
X13321000Y73530932D01*
X13334475Y73530898D01*
X13382656Y73540311D01*
X13431171Y73547691D01*
X13443841Y73552265D01*
X13457063Y73554848D01*
X13502489Y73573437D01*
X13548656Y73590103D01*
X13560198Y73597052D01*
X13572664Y73602153D01*
X13613616Y73629211D01*
X13655666Y73654527D01*
X13665635Y73663582D01*
X13676877Y73671010D01*
X13711795Y73705510D01*
X13748125Y73738509D01*
X13756149Y73749332D01*
X13765730Y73758799D01*
X13793277Y73799417D01*
X13822510Y73838850D01*
X13828278Y73851024D01*
X13835839Y73862173D01*
X13854974Y73907372D01*
X13875989Y73951729D01*
X13879283Y73964792D01*
X13884534Y73977197D01*
X13894526Y74025252D01*
X13906525Y74072845D01*
X13907218Y74086296D01*
X13909961Y74099487D01*
X13910855Y74108378D01*
X13913003Y74131335D01*
X13912749Y74188307D01*
X13912839Y74195362D01*
X13912954Y74197586D01*
X13912875Y74198133D01*
X13913476Y74245275D01*
X13912472Y74250711D01*
X13912447Y74256240D01*
X13901136Y74312060D01*
X13890782Y74368101D01*
X13888248Y74376671D01*
X13866328Y74448964D01*
X13859056Y74466548D01*
X13854238Y74484954D01*
X13851084Y74493315D01*
X13803032Y74618052D01*
X13604345Y75134803D01*
X13604344Y75134805D01*
X13418839Y75618849D01*
X13247991Y76066264D01*
X13131318Y76373083D01*
X13148746Y76366067D01*
X13148893Y76366024D01*
X13152578Y76364538D01*
X13319940Y76298411D01*
X13320011Y76298391D01*
X13327184Y76295600D01*
X13440472Y76252421D01*
X13450844Y76249590D01*
X13460629Y76245122D01*
X13469102Y76242280D01*
X13516262Y76226825D01*
X13574337Y76213903D01*
X13632193Y76200455D01*
X13635223Y76200355D01*
X13638186Y76199696D01*
X13697621Y76198301D01*
X13757031Y76196345D01*
X13760026Y76196836D01*
X13763058Y76196765D01*
X13821645Y76206943D01*
X13880290Y76216561D01*
X13883129Y76217623D01*
X13886121Y76218143D01*
X13941666Y76239526D01*
X13997275Y76260334D01*
X13999852Y76261927D01*
X14002687Y76263018D01*
X14053035Y76294792D01*
X14103530Y76325996D01*
X14105748Y76328058D01*
X14108318Y76329680D01*
X14151479Y76370575D01*
X14195008Y76411044D01*
X14196789Y76413505D01*
X14198988Y76415589D01*
X14233357Y76464049D01*
X14268224Y76512242D01*
X14269491Y76514998D01*
X14271246Y76517473D01*
X14295540Y76571670D01*
X14320390Y76625734D01*
X14321099Y76628690D01*
X14322337Y76631452D01*
X14335650Y76689369D01*
X14349517Y76747197D01*
X14349638Y76750224D01*
X14350318Y76753183D01*
X14352128Y76812616D01*
X14354499Y76872003D01*
X14354117Y76877884D01*
X14354121Y76878031D01*
X14354098Y76878170D01*
X14353919Y76880920D01*
X14351932Y76908556D01*
X14346148Y76942339D01*
X14343372Y76976494D01*
X14341721Y76985277D01*
X14321703Y77087805D01*
X14320825Y77090742D01*
X14320505Y77093788D01*
X14318648Y77102529D01*
X14280988Y77273902D01*
X14280944Y77274037D01*
X14279614Y77280008D01*
X14226020Y77512997D01*
X14225972Y77513141D01*
X14225199Y77516520D01*
X14157382Y77803894D01*
X14157344Y77804007D01*
X14156801Y77806337D01*
X14076468Y78140868D01*
X14076431Y78140974D01*
X14076005Y78142780D01*
X13984866Y78517237D01*
X13984838Y78517318D01*
X13984465Y78518878D01*
X13884228Y78926034D01*
X13884197Y78926121D01*
X13883853Y78927547D01*
X13776228Y79360171D01*
X13776213Y79360214D01*
X13776045Y79360905D01*
X13183314Y81731572D01*
X13168377Y81773434D01*
X13155825Y81816081D01*
X13147428Y81832143D01*
X13141337Y81849213D01*
X13118548Y81887385D01*
X13097956Y81926773D01*
X13091671Y81934590D01*
X15482000Y81934590D01*
X15482000Y73147497D01*
X15474522Y73167860D01*
X15182179Y73310348D01*
X14867656Y73393064D01*
X14543038Y73412831D01*
X14220802Y73368888D01*
X13913330Y73262924D01*
X13735478Y73167860D01*
X13637782Y72901823D01*
X14605000Y71934605D01*
X14619143Y71948747D01*
X14798748Y71769142D01*
X14784605Y71755000D01*
X14798748Y71740857D01*
X14619143Y71561252D01*
X14605000Y71575395D01*
X13637782Y70608177D01*
X13735478Y70342140D01*
X14027821Y70199652D01*
X14342344Y70116936D01*
X14666962Y70097169D01*
X14989198Y70141112D01*
X15296670Y70247076D01*
X15474522Y70342140D01*
X15482000Y70362503D01*
X15482000Y65534648D01*
X15387042Y65598097D01*
X15086579Y65722553D01*
X14767609Y65786000D01*
X14442391Y65786000D01*
X14123421Y65722553D01*
X13822958Y65598097D01*
X13552549Y65417415D01*
X13322585Y65187451D01*
X13141903Y64917042D01*
X13017447Y64616579D01*
X12954000Y64297609D01*
X12954000Y63972391D01*
X13017447Y63653421D01*
X13141903Y63352958D01*
X13322585Y63082549D01*
X13552549Y62852585D01*
X13822958Y62671903D01*
X14123421Y62547447D01*
X14442391Y62484000D01*
X14767609Y62484000D01*
X15086579Y62547447D01*
X15387042Y62671903D01*
X15482000Y62735352D01*
X15482000Y62319286D01*
X19302000Y62319286D01*
X19302000Y65343038D01*
X22472169Y65343038D01*
X22516112Y65020802D01*
X22622076Y64713330D01*
X22717140Y64535478D01*
X22883104Y64474532D01*
X22869820Y64470502D01*
X22759506Y64411537D01*
X22662815Y64332185D01*
X22583463Y64235494D01*
X22524498Y64125180D01*
X22488188Y64005482D01*
X22475928Y63881000D01*
X22475928Y61849000D01*
X22488188Y61724518D01*
X22524498Y61604820D01*
X22583463Y61494506D01*
X22662815Y61397815D01*
X22759506Y61318463D01*
X22869820Y61259498D01*
X22989518Y61223188D01*
X23114000Y61210928D01*
X25146000Y61210928D01*
X25270482Y61223188D01*
X25390180Y61259498D01*
X25500494Y61318463D01*
X25597185Y61397815D01*
X25676537Y61494506D01*
X25735502Y61604820D01*
X25771812Y61724518D01*
X25784072Y61849000D01*
X25784072Y63266320D01*
X35704248Y63266320D01*
X35716508Y63141838D01*
X35752818Y63022140D01*
X35811783Y62911826D01*
X35891135Y62815135D01*
X35987826Y62735783D01*
X36098140Y62676818D01*
X36217838Y62640508D01*
X36342320Y62628248D01*
X37306250Y62631320D01*
X37465000Y62790070D01*
X37465000Y64389000D01*
X37719000Y64389000D01*
X37719000Y62790070D01*
X37877750Y62631320D01*
X38841680Y62628248D01*
X38966162Y62640508D01*
X39085860Y62676818D01*
X39196174Y62735783D01*
X39292865Y62815135D01*
X39372217Y62911826D01*
X39431182Y63022140D01*
X39467492Y63141838D01*
X39479752Y63266320D01*
X39476680Y64230250D01*
X39317930Y64389000D01*
X37719000Y64389000D01*
X37465000Y64389000D01*
X35866070Y64389000D01*
X35707320Y64230250D01*
X35704248Y63266320D01*
X25784072Y63266320D01*
X25784072Y63881000D01*
X25771812Y64005482D01*
X25735502Y64125180D01*
X25676537Y64235494D01*
X25597185Y64332185D01*
X25500494Y64411537D01*
X25390180Y64470502D01*
X25376896Y64474532D01*
X25542860Y64535478D01*
X25685348Y64827821D01*
X25768064Y65142344D01*
X25787831Y65466962D01*
X25743888Y65789198D01*
X25637924Y66096670D01*
X25542860Y66274522D01*
X25276823Y66372218D01*
X24309605Y65405000D01*
X24323748Y65390857D01*
X24144143Y65211252D01*
X24130000Y65225395D01*
X24115858Y65211252D01*
X23936253Y65390857D01*
X23950395Y65405000D01*
X22983177Y66372218D01*
X22717140Y66274522D01*
X22574652Y65982179D01*
X22491936Y65667656D01*
X22472169Y65343038D01*
X19302000Y65343038D01*
X19302000Y66256000D01*
X21842000Y66256000D01*
X21842000Y66551823D01*
X23162782Y66551823D01*
X24130000Y65584605D01*
X25097218Y66551823D01*
X24999522Y66817860D01*
X24707179Y66960348D01*
X24392656Y67043064D01*
X24068038Y67062831D01*
X23745802Y67018888D01*
X23438330Y66912924D01*
X23260478Y66817860D01*
X23162782Y66551823D01*
X21842000Y66551823D01*
X21842000Y68703177D01*
X23162782Y68703177D01*
X23260478Y68437140D01*
X23552821Y68294652D01*
X23867344Y68211936D01*
X24191962Y68192169D01*
X24514198Y68236112D01*
X24821670Y68342076D01*
X24999522Y68437140D01*
X25029728Y68519396D01*
X28152641Y68519396D01*
X28196982Y68190398D01*
X28304656Y67876371D01*
X28404185Y67690167D01*
X28501298Y67653477D01*
X28440216Y67620827D01*
X28343525Y67541475D01*
X28264173Y67444784D01*
X28205208Y67334470D01*
X28168898Y67214772D01*
X28156638Y67090290D01*
X28156638Y64989710D01*
X28168898Y64865228D01*
X28205208Y64745530D01*
X28264173Y64635216D01*
X28343525Y64538525D01*
X28440216Y64459173D01*
X28550530Y64400208D01*
X28670228Y64363898D01*
X28794710Y64351638D01*
X30895290Y64351638D01*
X31019772Y64363898D01*
X31139470Y64400208D01*
X31249784Y64459173D01*
X31346475Y64538525D01*
X31425827Y64635216D01*
X31484792Y64745530D01*
X31521102Y64865228D01*
X31533362Y64989710D01*
X31533362Y65765680D01*
X35704248Y65765680D01*
X35707320Y64801750D01*
X35866070Y64643000D01*
X37465000Y64643000D01*
X37465000Y66241930D01*
X37719000Y66241930D01*
X37719000Y64643000D01*
X39317930Y64643000D01*
X39476680Y64801750D01*
X39479752Y65765680D01*
X39467492Y65890162D01*
X39431182Y66009860D01*
X39372217Y66120174D01*
X39292865Y66216865D01*
X39196174Y66296217D01*
X39085860Y66355182D01*
X38966162Y66391492D01*
X38841680Y66403752D01*
X37877750Y66400680D01*
X37719000Y66241930D01*
X37465000Y66241930D01*
X37306250Y66400680D01*
X36342320Y66403752D01*
X36217838Y66391492D01*
X36098140Y66355182D01*
X35987826Y66296217D01*
X35891135Y66216865D01*
X35811783Y66120174D01*
X35752818Y66009860D01*
X35716508Y65890162D01*
X35704248Y65765680D01*
X31533362Y65765680D01*
X31533362Y67090290D01*
X31521102Y67214772D01*
X31484792Y67334470D01*
X31425827Y67444784D01*
X31346475Y67541475D01*
X31249784Y67620827D01*
X31188702Y67653477D01*
X31285815Y67690167D01*
X31431728Y67988354D01*
X31516664Y68309277D01*
X31537359Y68640604D01*
X31493018Y68969602D01*
X31385344Y69283629D01*
X31285815Y69469833D01*
X31016273Y69571668D01*
X30024605Y68580000D01*
X30038748Y68565857D01*
X29859143Y68386252D01*
X29845000Y68400395D01*
X29830858Y68386252D01*
X29651253Y68565857D01*
X29665395Y68580000D01*
X28673727Y69571668D01*
X28404185Y69469833D01*
X28258272Y69171646D01*
X28173336Y68850723D01*
X28152641Y68519396D01*
X25029728Y68519396D01*
X25097218Y68703177D01*
X24130000Y69670395D01*
X23162782Y68703177D01*
X21842000Y68703177D01*
X21842000Y69788038D01*
X22472169Y69788038D01*
X22516112Y69465802D01*
X22622076Y69158330D01*
X22717140Y68980478D01*
X22983177Y68882782D01*
X23950395Y69850000D01*
X23936253Y69864142D01*
X24115858Y70043747D01*
X24130000Y70029605D01*
X24144143Y70043747D01*
X24323748Y69864142D01*
X24309605Y69850000D01*
X25276823Y68882782D01*
X25542860Y68980478D01*
X25685348Y69272821D01*
X25768064Y69587344D01*
X25787831Y69911962D01*
X25743888Y70234198D01*
X25637924Y70541670D01*
X25542860Y70719522D01*
X25376896Y70780468D01*
X25390180Y70784498D01*
X25500494Y70843463D01*
X25597185Y70922815D01*
X25676537Y71019506D01*
X25735502Y71129820D01*
X25771812Y71249518D01*
X25775403Y71285987D01*
X28159710Y71285987D01*
X28159710Y70954013D01*
X28224475Y70628419D01*
X28351516Y70321716D01*
X28535950Y70045690D01*
X28770690Y69810950D01*
X28854677Y69754832D01*
X28853332Y69751273D01*
X29845000Y68759605D01*
X30836668Y69751273D01*
X30835323Y69754832D01*
X30919310Y69810950D01*
X31154050Y70045690D01*
X31338484Y70321716D01*
X31465525Y70628419D01*
X31530290Y70954013D01*
X31530290Y71285987D01*
X31465525Y71611581D01*
X31338484Y71918284D01*
X31154050Y72194310D01*
X30919310Y72429050D01*
X30643284Y72613484D01*
X30336581Y72740525D01*
X30010987Y72805290D01*
X29679013Y72805290D01*
X29353419Y72740525D01*
X29046716Y72613484D01*
X28770690Y72429050D01*
X28535950Y72194310D01*
X28351516Y71918284D01*
X28224475Y71611581D01*
X28159710Y71285987D01*
X25775403Y71285987D01*
X25784072Y71374000D01*
X25784072Y73406000D01*
X25771812Y73530482D01*
X25735502Y73650180D01*
X25676537Y73760494D01*
X25597185Y73857185D01*
X25500494Y73936537D01*
X25390180Y73995502D01*
X25270482Y74031812D01*
X25146000Y74044072D01*
X23114000Y74044072D01*
X22989518Y74031812D01*
X22869820Y73995502D01*
X22759506Y73936537D01*
X22662815Y73857185D01*
X22583463Y73760494D01*
X22524498Y73650180D01*
X22488188Y73530482D01*
X22475928Y73406000D01*
X22475928Y71374000D01*
X22488188Y71249518D01*
X22524498Y71129820D01*
X22583463Y71019506D01*
X22662815Y70922815D01*
X22759506Y70843463D01*
X22869820Y70784498D01*
X22883104Y70780468D01*
X22717140Y70719522D01*
X22574652Y70427179D01*
X22491936Y70112656D01*
X22472169Y69788038D01*
X21842000Y69788038D01*
X21842000Y77300611D01*
X21982899Y77257870D01*
X22225000Y77234025D01*
X22467102Y77257870D01*
X22699901Y77328489D01*
X22914449Y77443167D01*
X23102502Y77597498D01*
X23256833Y77785551D01*
X23371511Y78000099D01*
X23442130Y78232898D01*
X23460000Y78414335D01*
X23460000Y79536033D01*
X23890000Y79536033D01*
X23890000Y79213967D01*
X23952832Y78898088D01*
X24076082Y78600537D01*
X24255013Y78332748D01*
X24482748Y78105013D01*
X24509001Y78087471D01*
X24509001Y77775911D01*
X24504085Y77726000D01*
X24523702Y77526830D01*
X24580656Y77339081D01*
X24581799Y77335313D01*
X24676141Y77158810D01*
X24803105Y77004104D01*
X24841868Y76972292D01*
X27059292Y74754867D01*
X27091104Y74716104D01*
X27224423Y74606692D01*
X27245810Y74589140D01*
X27422313Y74494798D01*
X27613829Y74436702D01*
X27813000Y74417085D01*
X27862902Y74422000D01*
X34377160Y74422000D01*
X36576000Y72223159D01*
X36576000Y71183816D01*
X36390587Y71059926D01*
X36128074Y70797413D01*
X35921818Y70488731D01*
X35779747Y70145741D01*
X35707320Y69781625D01*
X35707320Y69410375D01*
X35779747Y69046259D01*
X35921818Y68703269D01*
X36128074Y68394587D01*
X36390587Y68132074D01*
X36699269Y67925818D01*
X37042259Y67783747D01*
X37406375Y67711320D01*
X37777625Y67711320D01*
X38141741Y67783747D01*
X38484731Y67925818D01*
X38793413Y68132074D01*
X39055926Y68394587D01*
X39262182Y68703269D01*
X39404253Y69046259D01*
X39476680Y69410375D01*
X39476680Y69781625D01*
X39404253Y70145741D01*
X39262182Y70488731D01*
X39055926Y70797413D01*
X38793413Y71059926D01*
X38608000Y71183816D01*
X38608000Y72594098D01*
X38612915Y72644000D01*
X38593298Y72843171D01*
X38535202Y73034687D01*
X38475584Y73146225D01*
X38440860Y73211190D01*
X38313896Y73365896D01*
X38275133Y73397708D01*
X35551712Y76121128D01*
X35519896Y76159896D01*
X35365190Y76286860D01*
X35188687Y76381202D01*
X34997171Y76439298D01*
X34847902Y76454000D01*
X34798000Y76458915D01*
X34748098Y76454000D01*
X28233841Y76454000D01*
X26575040Y78112801D01*
X26794987Y78332748D01*
X26973918Y78600537D01*
X27034071Y78745758D01*
X27083702Y78625937D01*
X27262633Y78358148D01*
X27490368Y78130413D01*
X27758157Y77951482D01*
X28055708Y77828232D01*
X28371587Y77765400D01*
X28693653Y77765400D01*
X29009532Y77828232D01*
X29307083Y77951482D01*
X29574872Y78130413D01*
X29802607Y78358148D01*
X29981538Y78625937D01*
X30023549Y78727361D01*
X30076082Y78600537D01*
X30255013Y78332748D01*
X30482748Y78105013D01*
X30750537Y77926082D01*
X31048088Y77802832D01*
X31363967Y77740000D01*
X31686033Y77740000D01*
X32001912Y77802832D01*
X32299463Y77926082D01*
X32567252Y78105013D01*
X32794987Y78332748D01*
X32973918Y78600537D01*
X33097168Y78898088D01*
X33160000Y79213967D01*
X33160000Y79536033D01*
X33097168Y79851912D01*
X32973918Y80149463D01*
X32849503Y80335664D01*
X33590000Y80335664D01*
X33590000Y78414335D01*
X33607871Y78232898D01*
X33678490Y78000099D01*
X33793168Y77785551D01*
X33947499Y77597498D01*
X34135552Y77443167D01*
X34350100Y77328489D01*
X34582899Y77257870D01*
X34825000Y77234025D01*
X35067102Y77257870D01*
X35299901Y77328489D01*
X35514449Y77443167D01*
X35702502Y77597498D01*
X35856833Y77785551D01*
X35971511Y78000099D01*
X36042130Y78232898D01*
X36060000Y78414335D01*
X36060000Y80335665D01*
X36042130Y80517102D01*
X35971511Y80749901D01*
X35856833Y80964449D01*
X35702502Y81152502D01*
X35514448Y81306833D01*
X35299900Y81421511D01*
X35067101Y81492130D01*
X34825000Y81515975D01*
X34582898Y81492130D01*
X34350099Y81421511D01*
X34135551Y81306833D01*
X33947498Y81152502D01*
X33793167Y80964448D01*
X33678489Y80749900D01*
X33607870Y80517101D01*
X33590000Y80335664D01*
X32849503Y80335664D01*
X32794987Y80417252D01*
X32567252Y80644987D01*
X32299463Y80823918D01*
X32001912Y80947168D01*
X31686033Y81010000D01*
X31363967Y81010000D01*
X31048088Y80947168D01*
X30750537Y80823918D01*
X30482748Y80644987D01*
X30255013Y80417252D01*
X30076082Y80149463D01*
X30034071Y80048039D01*
X29981538Y80174863D01*
X29802607Y80442652D01*
X29574872Y80670387D01*
X29307083Y80849318D01*
X29009532Y80972568D01*
X28693653Y81035400D01*
X28371587Y81035400D01*
X28055708Y80972568D01*
X27758157Y80849318D01*
X27490368Y80670387D01*
X27262633Y80442652D01*
X27083702Y80174863D01*
X27023549Y80029642D01*
X26973918Y80149463D01*
X26794987Y80417252D01*
X26567252Y80644987D01*
X26299463Y80823918D01*
X26001912Y80947168D01*
X25686033Y81010000D01*
X25363967Y81010000D01*
X25048088Y80947168D01*
X24750537Y80823918D01*
X24482748Y80644987D01*
X24255013Y80417252D01*
X24076082Y80149463D01*
X23952832Y79851912D01*
X23890000Y79536033D01*
X23460000Y79536033D01*
X23460000Y80335665D01*
X23442130Y80517102D01*
X23371511Y80749901D01*
X23256833Y80964449D01*
X23102502Y81152502D01*
X22914448Y81306833D01*
X22699900Y81421511D01*
X22467101Y81492130D01*
X22225000Y81515975D01*
X21982898Y81492130D01*
X21842000Y81449389D01*
X21842000Y81826000D01*
X19302000Y81826000D01*
X19302000Y81934590D01*
X38657154Y81934590D01*
X38410830Y81770002D01*
X38117998Y81477170D01*
X37887922Y81132836D01*
X37729442Y80750233D01*
X37648650Y80344063D01*
X37648650Y79929937D01*
X37729442Y79523767D01*
X37887922Y79141164D01*
X38117998Y78796830D01*
X38410830Y78503998D01*
X38755164Y78273922D01*
X39137767Y78115442D01*
X39543937Y78034650D01*
X39958063Y78034650D01*
X40364233Y78115442D01*
X40746836Y78273922D01*
X41091170Y78503998D01*
X41384002Y78796830D01*
X41548581Y79043141D01*
X41548581Y60433546D01*
X41422042Y60518097D01*
X41121579Y60642553D01*
X40802609Y60706000D01*
X40477391Y60706000D01*
X40158421Y60642553D01*
X39857958Y60518097D01*
X39587549Y60337415D01*
X39357585Y60107451D01*
X39176903Y59837042D01*
X39052447Y59536579D01*
X38989000Y59217609D01*
X38989000Y58892391D01*
X39052447Y58573421D01*
X39176903Y58272958D01*
X39357585Y58002549D01*
X39587549Y57772585D01*
X39857958Y57591903D01*
X40158421Y57467447D01*
X40477391Y57404000D01*
X40802609Y57404000D01*
X41121579Y57467447D01*
X41422042Y57591903D01*
X41548581Y57676454D01*
X41548581Y52813546D01*
X41422042Y52898097D01*
X41121579Y53022553D01*
X40802609Y53086000D01*
X40477391Y53086000D01*
X40158421Y53022553D01*
X39857958Y52898097D01*
X39587549Y52717415D01*
X39357585Y52487451D01*
X39176903Y52217042D01*
X39052447Y51916579D01*
X38989000Y51597609D01*
X38989000Y51272391D01*
X39052447Y50953421D01*
X39176903Y50652958D01*
X39357585Y50382549D01*
X39587549Y50152585D01*
X39857958Y49971903D01*
X40158293Y49847500D01*
X39857958Y49723097D01*
X39587549Y49542415D01*
X39357585Y49312451D01*
X39176903Y49042042D01*
X39052447Y48741579D01*
X38989000Y48422609D01*
X38989000Y48097391D01*
X38997553Y48054393D01*
X37543868Y46600708D01*
X37505105Y46568896D01*
X37378141Y46414190D01*
X37311182Y46288918D01*
X37283799Y46237687D01*
X37225702Y46046170D01*
X37206085Y45847000D01*
X37211001Y45797088D01*
X37211000Y42086902D01*
X37206085Y42037000D01*
X37218594Y41910000D01*
X37225702Y41837830D01*
X37283798Y41646314D01*
X37378140Y41469810D01*
X37505104Y41315104D01*
X37543872Y41283288D01*
X38021655Y40805505D01*
X37993225Y40819158D01*
X37700358Y40894365D01*
X37398447Y40910991D01*
X37099093Y40868397D01*
X36813801Y40768222D01*
X36664208Y40688261D01*
X36580525Y40434080D01*
X37465000Y39549605D01*
X37479143Y39563747D01*
X37658748Y39384142D01*
X37644605Y39370000D01*
X38529080Y38485525D01*
X38783261Y38569208D01*
X38914158Y38841775D01*
X38989365Y39134642D01*
X39005991Y39436553D01*
X38963397Y39735907D01*
X38894209Y39932950D01*
X39116001Y39711158D01*
X39116000Y38393841D01*
X37416868Y36694708D01*
X37378105Y36662896D01*
X37251141Y36508190D01*
X37156799Y36331687D01*
X37098702Y36140170D01*
X37079085Y35941000D01*
X37084001Y35891088D01*
X37084000Y28959072D01*
X36959518Y28946812D01*
X36839820Y28910502D01*
X36729506Y28851537D01*
X36632815Y28772185D01*
X36553463Y28675494D01*
X36494498Y28565180D01*
X36458188Y28445482D01*
X36445928Y28321000D01*
X36445928Y26289000D01*
X36458188Y26164518D01*
X36494498Y26044820D01*
X36553463Y25934506D01*
X36632815Y25837815D01*
X36729506Y25758463D01*
X36839820Y25699498D01*
X36959518Y25663188D01*
X37084000Y25650928D01*
X39116000Y25650928D01*
X39240482Y25663188D01*
X39360180Y25699498D01*
X39470494Y25758463D01*
X39567185Y25837815D01*
X39646537Y25934506D01*
X39665704Y25970364D01*
X39805001Y25877288D01*
X39805000Y19649868D01*
X35760574Y15605441D01*
X35728710Y15579291D01*
X35688823Y15530688D01*
X35624364Y15452145D01*
X35546828Y15307086D01*
X35499082Y15149688D01*
X35482960Y14986000D01*
X35487001Y14944972D01*
X35487000Y8037988D01*
X35436072Y7987060D01*
X35436072Y8509000D01*
X35423812Y8633482D01*
X35387502Y8753180D01*
X35328537Y8863494D01*
X35249185Y8960185D01*
X35152494Y9039537D01*
X35042180Y9098502D01*
X35010437Y9108131D01*
X35076433Y9172172D01*
X35246717Y9418908D01*
X35365593Y9694124D01*
X35389134Y9796987D01*
X35268330Y10033000D01*
X33782000Y10033000D01*
X33782000Y10013000D01*
X33528000Y10013000D01*
X33528000Y10033000D01*
X32041670Y10033000D01*
X31920866Y9796987D01*
X31944407Y9694124D01*
X32063283Y9418908D01*
X32233567Y9172172D01*
X32299563Y9108131D01*
X32267820Y9098502D01*
X32157506Y9039537D01*
X32060815Y8960185D01*
X31981463Y8863494D01*
X31922498Y8753180D01*
X31886188Y8633482D01*
X31873928Y8509000D01*
X31873928Y6731000D01*
X31886188Y6606518D01*
X31922498Y6486820D01*
X31981463Y6376506D01*
X32060815Y6279815D01*
X32157506Y6200463D01*
X32267820Y6141498D01*
X32387518Y6105188D01*
X32512000Y6092928D01*
X33541941Y6092928D01*
X33220574Y5771561D01*
X33188710Y5745411D01*
X33150981Y5699438D01*
X33084364Y5618265D01*
X33006828Y5473206D01*
X32991996Y5424311D01*
X32959082Y5315809D01*
X32955555Y5280000D01*
X21808868Y5280000D01*
X21155000Y5933867D01*
X21155000Y11388982D01*
X21159040Y11430000D01*
X21142918Y11593689D01*
X21095172Y11751087D01*
X21017636Y11896146D01*
X20939439Y11991430D01*
X20939437Y11991432D01*
X20913291Y12023291D01*
X20881433Y12049436D01*
X20014979Y12915889D01*
X20066000Y13172391D01*
X20066000Y13497609D01*
X20002553Y13816579D01*
X19878097Y14117042D01*
X19697415Y14387451D01*
X19467451Y14617415D01*
X19197042Y14798097D01*
X18896707Y14922500D01*
X19197042Y15046903D01*
X19467451Y15227585D01*
X19697415Y15457549D01*
X19878097Y15727958D01*
X20002553Y16028421D01*
X20066000Y16347391D01*
X20066000Y16672609D01*
X20002553Y16991579D01*
X19878097Y17292042D01*
X19697415Y17562451D01*
X19467451Y17792415D01*
X19197042Y17973097D01*
X18896707Y18097500D01*
X19197042Y18221903D01*
X19467451Y18402585D01*
X19697415Y18632549D01*
X19878097Y18902958D01*
X20002553Y19203421D01*
X20066000Y19522391D01*
X20066000Y19847609D01*
X20002553Y20166579D01*
X19878097Y20467042D01*
X19697415Y20737451D01*
X19467451Y20967415D01*
X19197042Y21148097D01*
X18896579Y21272553D01*
X18577609Y21336000D01*
X18252391Y21336000D01*
X17933421Y21272553D01*
X17632958Y21148097D01*
X17362549Y20967415D01*
X17132585Y20737451D01*
X16951903Y20467042D01*
X16827447Y20166579D01*
X16764000Y19847609D01*
X16764000Y19522391D01*
X16815021Y19265890D01*
X14932574Y17383441D01*
X14900710Y17357291D01*
X14874562Y17325429D01*
X14796364Y17230145D01*
X14718828Y17085086D01*
X14671082Y16927688D01*
X14654960Y16764000D01*
X14659001Y16722971D01*
X14659000Y6568869D01*
X13243133Y5153000D01*
X10251868Y5153000D01*
X9979000Y5425868D01*
X9979000Y6197906D01*
X10242244Y6118052D01*
X10466141Y6096000D01*
X11123859Y6096000D01*
X11347756Y6118052D01*
X11635031Y6205196D01*
X11899785Y6346710D01*
X12131844Y6537156D01*
X12322290Y6769215D01*
X12463804Y7033969D01*
X12550948Y7321244D01*
X12580373Y7620000D01*
X12550948Y7918756D01*
X12463804Y8206031D01*
X12322290Y8470785D01*
X12131844Y8702844D01*
X11903794Y8890000D01*
X12131844Y9077156D01*
X12322290Y9309215D01*
X12463804Y9573969D01*
X12550948Y9861244D01*
X12580373Y10160000D01*
X12550948Y10458756D01*
X12463804Y10746031D01*
X12322290Y11010785D01*
X12131844Y11242844D01*
X11903794Y11430000D01*
X12131844Y11617156D01*
X12322290Y11849215D01*
X12336157Y11875158D01*
X12355689Y11877082D01*
X12513087Y11924828D01*
X12658146Y12002364D01*
X12785291Y12106709D01*
X12811445Y12138578D01*
X13642432Y12969563D01*
X13674291Y12995709D01*
X13778636Y13122854D01*
X13856172Y13267913D01*
X13903918Y13425311D01*
X13916000Y13547981D01*
X13920040Y13589000D01*
X13916000Y13630018D01*
X13916000Y25543132D01*
X15590911Y23868221D01*
X15594104Y23852166D01*
X15665905Y23678822D01*
X15770145Y23522816D01*
X15902816Y23390145D01*
X16058822Y23285905D01*
X16232166Y23214104D01*
X16416187Y23177500D01*
X16603813Y23177500D01*
X16787834Y23214104D01*
X16961178Y23285905D01*
X17117184Y23390145D01*
X17249855Y23522816D01*
X17354095Y23678822D01*
X17425896Y23852166D01*
X17462500Y24036187D01*
X17462500Y24223813D01*
X17425896Y24407834D01*
X17354095Y24581178D01*
X17249855Y24737184D01*
X17117184Y24869855D01*
X16961178Y24974095D01*
X16787834Y25045896D01*
X16771779Y25049089D01*
X13580599Y28240268D01*
X13707344Y28206936D01*
X14031962Y28187169D01*
X14354198Y28231112D01*
X14661670Y28337076D01*
X14839522Y28432140D01*
X14937218Y28698177D01*
X13970000Y29665395D01*
X13955858Y29651252D01*
X13776253Y29830857D01*
X13790395Y29845000D01*
X14149605Y29845000D01*
X15116823Y28877782D01*
X15382860Y28975478D01*
X15525348Y29267821D01*
X15608064Y29582344D01*
X15627831Y29906962D01*
X15583888Y30229198D01*
X15477924Y30536670D01*
X15382860Y30714522D01*
X15116823Y30812218D01*
X14149605Y29845000D01*
X13790395Y29845000D01*
X12823177Y30812218D01*
X12557140Y30714522D01*
X12414652Y30422179D01*
X12385549Y30311517D01*
X12382553Y30326579D01*
X12258097Y30627042D01*
X12077415Y30897451D01*
X11983043Y30991823D01*
X13002782Y30991823D01*
X13970000Y30024605D01*
X14937218Y30991823D01*
X14839522Y31257860D01*
X14547179Y31400348D01*
X14232656Y31483064D01*
X13908038Y31502831D01*
X13585802Y31458888D01*
X13278330Y31352924D01*
X13100478Y31257860D01*
X13002782Y30991823D01*
X11983043Y30991823D01*
X11847451Y31127415D01*
X11577042Y31308097D01*
X11276579Y31432553D01*
X10957609Y31496000D01*
X10632391Y31496000D01*
X10313421Y31432553D01*
X10106000Y31346636D01*
X10106000Y35963364D01*
X10313421Y35877447D01*
X10632391Y35814000D01*
X10957609Y35814000D01*
X11276579Y35877447D01*
X11577042Y36001903D01*
X11847451Y36182585D01*
X12077415Y36412549D01*
X12258097Y36682958D01*
X12382500Y36983293D01*
X12506903Y36682958D01*
X12687585Y36412549D01*
X12917549Y36182585D01*
X13187958Y36001903D01*
X13488421Y35877447D01*
X13807391Y35814000D01*
X14132609Y35814000D01*
X14451579Y35877447D01*
X14752042Y36001903D01*
X15022451Y36182585D01*
X15252415Y36412549D01*
X15433097Y36682958D01*
X15557553Y36983421D01*
X15621000Y37302391D01*
X15621000Y37627609D01*
X15557553Y37946579D01*
X15433097Y38247042D01*
X15252415Y38517451D01*
X15022451Y38747415D01*
X14752042Y38928097D01*
X14451579Y39052553D01*
X14132609Y39116000D01*
X13807391Y39116000D01*
X13757039Y39105984D01*
X14004516Y39192123D01*
X14166902Y39278919D01*
X14256930Y39538465D01*
X13335000Y40460395D01*
X12413070Y39538465D01*
X12503098Y39278919D01*
X12784616Y39142776D01*
X13087286Y39064171D01*
X13399474Y39046123D01*
X13589045Y39072568D01*
X13488421Y39052553D01*
X13187958Y38928097D01*
X12917549Y38747415D01*
X12687585Y38517451D01*
X12506903Y38247042D01*
X12382500Y37946707D01*
X12258097Y38247042D01*
X12077415Y38517451D01*
X11847451Y38747415D01*
X11577042Y38928097D01*
X11276579Y39052553D01*
X10957609Y39116000D01*
X10632391Y39116000D01*
X10313421Y39052553D01*
X10106000Y38966636D01*
X10106000Y40575526D01*
X11741123Y40575526D01*
X11784328Y40265815D01*
X11887123Y39970484D01*
X11973919Y39808098D01*
X12233465Y39718070D01*
X13155395Y40640000D01*
X13514605Y40640000D01*
X14436535Y39718070D01*
X14696081Y39808098D01*
X14832224Y40089616D01*
X14910829Y40392286D01*
X14928877Y40704474D01*
X14885672Y41014185D01*
X14782877Y41309516D01*
X14696081Y41471902D01*
X14436535Y41561930D01*
X13514605Y40640000D01*
X13155395Y40640000D01*
X12233465Y41561930D01*
X11973919Y41471902D01*
X11837776Y41190384D01*
X11759171Y40887714D01*
X11741123Y40575526D01*
X10106000Y40575526D01*
X10106000Y41589428D01*
X11747500Y41589428D01*
X11871982Y41601688D01*
X11991680Y41637998D01*
X12101994Y41696963D01*
X12198685Y41776315D01*
X12278037Y41873006D01*
X12319451Y41950485D01*
X12323028Y41946908D01*
X12453961Y41859422D01*
X12413070Y41741535D01*
X13335000Y40819605D01*
X14256930Y41741535D01*
X14216039Y41859422D01*
X14346972Y41946908D01*
X14568092Y42168028D01*
X14741824Y42428037D01*
X14861493Y42716943D01*
X14922500Y43023645D01*
X14922500Y43336355D01*
X14891890Y43490242D01*
X15929000Y42453131D01*
X15929001Y26457029D01*
X15924960Y26416000D01*
X15941082Y26252312D01*
X15988828Y26094914D01*
X16058364Y25964822D01*
X16066365Y25949854D01*
X16170710Y25822709D01*
X16202574Y25796559D01*
X22875559Y19123573D01*
X22901709Y19091709D01*
X23028854Y18987364D01*
X23173913Y18909828D01*
X23331311Y18862082D01*
X23453981Y18850000D01*
X23453991Y18850000D01*
X23494999Y18845961D01*
X23536007Y18850000D01*
X24607288Y18850000D01*
X24752585Y18632549D01*
X24982549Y18402585D01*
X25252958Y18221903D01*
X25553293Y18097500D01*
X25252958Y17973097D01*
X24982549Y17792415D01*
X24752585Y17562451D01*
X24571903Y17292042D01*
X24447447Y16991579D01*
X24384000Y16672609D01*
X24384000Y16347391D01*
X24447447Y16028421D01*
X24571903Y15727958D01*
X24752585Y15457549D01*
X24982549Y15227585D01*
X25252958Y15046903D01*
X25553293Y14922500D01*
X25252958Y14798097D01*
X24982549Y14617415D01*
X24752585Y14387451D01*
X24571903Y14117042D01*
X24447447Y13816579D01*
X24384000Y13497609D01*
X24384000Y13172391D01*
X24447447Y12853421D01*
X24571903Y12552958D01*
X24752585Y12282549D01*
X24982549Y12052585D01*
X25252958Y11871903D01*
X25553293Y11747500D01*
X25252958Y11623097D01*
X24982549Y11442415D01*
X24752585Y11212451D01*
X24571903Y10942042D01*
X24447447Y10641579D01*
X24384000Y10322609D01*
X24384000Y9997391D01*
X24447447Y9678421D01*
X24571903Y9377958D01*
X24752585Y9107549D01*
X24982549Y8877585D01*
X25252958Y8696903D01*
X25553421Y8572447D01*
X25872391Y8509000D01*
X26197609Y8509000D01*
X26516579Y8572447D01*
X26817042Y8696903D01*
X27087451Y8877585D01*
X27317415Y9107549D01*
X27498097Y9377958D01*
X27622553Y9678421D01*
X27686000Y9997391D01*
X27686000Y10322609D01*
X27622553Y10641579D01*
X27498097Y10942042D01*
X27317415Y11212451D01*
X27087451Y11442415D01*
X26817042Y11623097D01*
X26516707Y11747500D01*
X26817042Y11871903D01*
X27087451Y12052585D01*
X27317415Y12282549D01*
X27498097Y12552958D01*
X27622553Y12853421D01*
X27686000Y13172391D01*
X27686000Y13497609D01*
X27622553Y13816579D01*
X27498097Y14117042D01*
X27317415Y14387451D01*
X27087451Y14617415D01*
X26817042Y14798097D01*
X26516707Y14922500D01*
X26817042Y15046903D01*
X27087451Y15227585D01*
X27317415Y15457549D01*
X27498097Y15727958D01*
X27622553Y16028421D01*
X27686000Y16347391D01*
X27686000Y16672609D01*
X27622553Y16991579D01*
X27498097Y17292042D01*
X27317415Y17562451D01*
X27087451Y17792415D01*
X26817042Y17973097D01*
X26516707Y18097500D01*
X26817042Y18221903D01*
X27087451Y18402585D01*
X27317415Y18632549D01*
X27498097Y18902958D01*
X27622553Y19203421D01*
X27686000Y19522391D01*
X27686000Y19847609D01*
X27622553Y20166579D01*
X27498097Y20467042D01*
X27317415Y20737451D01*
X27172866Y20882000D01*
X29880133Y20882000D01*
X31003558Y19758574D01*
X31029709Y19726709D01*
X31156854Y19622364D01*
X31301913Y19544828D01*
X31459311Y19497082D01*
X31581981Y19485000D01*
X31581991Y19485000D01*
X31622999Y19480961D01*
X31664007Y19485000D01*
X32119273Y19485000D01*
X32127710Y19469215D01*
X32318156Y19237156D01*
X32546206Y19050000D01*
X32318156Y18862844D01*
X32127710Y18630785D01*
X31986196Y18366031D01*
X31899052Y18078756D01*
X31869627Y17780000D01*
X31899052Y17481244D01*
X31986196Y17193969D01*
X32127710Y16929215D01*
X32318156Y16697156D01*
X32546206Y16510000D01*
X32318156Y16322844D01*
X32127710Y16090785D01*
X31986196Y15826031D01*
X31899052Y15538756D01*
X31869627Y15240000D01*
X31899052Y14941244D01*
X31986196Y14653969D01*
X32127710Y14389215D01*
X32318156Y14157156D01*
X32546206Y13970000D01*
X32318156Y13782844D01*
X32127710Y13550785D01*
X31986196Y13286031D01*
X31899052Y12998756D01*
X31869627Y12700000D01*
X31899052Y12401244D01*
X31986196Y12113969D01*
X32127710Y11849215D01*
X32318156Y11617156D01*
X32550215Y11426710D01*
X32554002Y11424686D01*
X32448715Y11356602D01*
X32233567Y11147828D01*
X32063283Y10901092D01*
X31944407Y10625876D01*
X31920866Y10523013D01*
X32041670Y10287000D01*
X33528000Y10287000D01*
X33528000Y10307000D01*
X33782000Y10307000D01*
X33782000Y10287000D01*
X35268330Y10287000D01*
X35389134Y10523013D01*
X35365593Y10625876D01*
X35246717Y10901092D01*
X35076433Y11147828D01*
X34861285Y11356602D01*
X34755998Y11424686D01*
X34759785Y11426710D01*
X34991844Y11617156D01*
X35182290Y11849215D01*
X35323804Y12113969D01*
X35410948Y12401244D01*
X35440373Y12700000D01*
X35410948Y12998756D01*
X35323804Y13286031D01*
X35182290Y13550785D01*
X34991844Y13782844D01*
X34763794Y13970000D01*
X34991844Y14157156D01*
X35182290Y14389215D01*
X35323804Y14653969D01*
X35410948Y14941244D01*
X35440373Y15240000D01*
X35410948Y15538756D01*
X35323804Y15826031D01*
X35182290Y16090785D01*
X34991844Y16322844D01*
X34763794Y16510000D01*
X34991844Y16697156D01*
X35182290Y16929215D01*
X35323804Y17193969D01*
X35410948Y17481244D01*
X35440373Y17780000D01*
X35410948Y18078756D01*
X35323804Y18366031D01*
X35182290Y18630785D01*
X34991844Y18862844D01*
X34763794Y19050000D01*
X34991844Y19237156D01*
X35182290Y19469215D01*
X35323804Y19733969D01*
X35410948Y20021244D01*
X35440373Y20320000D01*
X35410948Y20618756D01*
X35323804Y20906031D01*
X35182290Y21170785D01*
X34991844Y21402844D01*
X34763794Y21590000D01*
X34991844Y21777156D01*
X35182290Y22009215D01*
X35323804Y22273969D01*
X35410948Y22561244D01*
X35440373Y22860000D01*
X35410948Y23158756D01*
X35323804Y23446031D01*
X35182290Y23710785D01*
X34991844Y23942844D01*
X34763794Y24130000D01*
X34991844Y24317156D01*
X35182290Y24549215D01*
X35323804Y24813969D01*
X35410948Y25101244D01*
X35440373Y25400000D01*
X35410948Y25698756D01*
X35323804Y25986031D01*
X35182290Y26250785D01*
X34991844Y26482844D01*
X34759785Y26673290D01*
X34495031Y26814804D01*
X34207756Y26901948D01*
X33983859Y26924000D01*
X33326141Y26924000D01*
X33102244Y26901948D01*
X32814969Y26814804D01*
X32550215Y26673290D01*
X32318156Y26482844D01*
X32127710Y26250785D01*
X31986196Y25986031D01*
X31899052Y25698756D01*
X31869627Y25400000D01*
X31899052Y25101244D01*
X31986196Y24813969D01*
X32127710Y24549215D01*
X32318156Y24317156D01*
X32546206Y24130000D01*
X32318156Y23942844D01*
X32127710Y23710785D01*
X31986196Y23446031D01*
X31899052Y23158756D01*
X31869627Y22860000D01*
X31899052Y22561244D01*
X31986196Y22273969D01*
X32127710Y22009215D01*
X32318156Y21777156D01*
X32546206Y21590000D01*
X32318156Y21402844D01*
X32127710Y21170785D01*
X32119273Y21155000D01*
X31968868Y21155000D01*
X30845446Y22278421D01*
X30819291Y22310291D01*
X30692146Y22414636D01*
X30547087Y22492172D01*
X30389689Y22539918D01*
X30267019Y22552000D01*
X30267018Y22552000D01*
X30226000Y22556040D01*
X30184982Y22552000D01*
X22824869Y22552000D01*
X19798587Y25578281D01*
X19811999Y25576960D01*
X19853015Y25581000D01*
X22395210Y25581000D01*
X22408822Y25571905D01*
X22582166Y25500104D01*
X22766187Y25463500D01*
X22953813Y25463500D01*
X23137834Y25500104D01*
X23311178Y25571905D01*
X23467184Y25676145D01*
X23599855Y25808816D01*
X23704095Y25964822D01*
X23775896Y26138166D01*
X23812500Y26322187D01*
X23812500Y26509813D01*
X23775896Y26693834D01*
X23704095Y26867178D01*
X23599855Y27023184D01*
X23467184Y27155855D01*
X23311178Y27260095D01*
X23137834Y27331896D01*
X22953813Y27368500D01*
X22766187Y27368500D01*
X22582166Y27331896D01*
X22408822Y27260095D01*
X22395210Y27251000D01*
X20157868Y27251000D01*
X19377000Y28031867D01*
X19377000Y28489452D01*
X19537958Y28381903D01*
X19838421Y28257447D01*
X20157391Y28194000D01*
X20482609Y28194000D01*
X20801579Y28257447D01*
X21102042Y28381903D01*
X21372451Y28562585D01*
X21602415Y28792549D01*
X21783097Y29062958D01*
X21907500Y29363293D01*
X22031903Y29062958D01*
X22212585Y28792549D01*
X22442549Y28562585D01*
X22712958Y28381903D01*
X23013421Y28257447D01*
X23332391Y28194000D01*
X23657609Y28194000D01*
X23976579Y28257447D01*
X24277042Y28381903D01*
X24547451Y28562585D01*
X24777415Y28792549D01*
X24958097Y29062958D01*
X25082553Y29363421D01*
X25146000Y29682391D01*
X25146000Y30007609D01*
X26924000Y30007609D01*
X26924000Y29682391D01*
X26987447Y29363421D01*
X27111903Y29062958D01*
X27292585Y28792549D01*
X27522549Y28562585D01*
X27792958Y28381903D01*
X28093421Y28257447D01*
X28412391Y28194000D01*
X28737609Y28194000D01*
X29056579Y28257447D01*
X29357042Y28381903D01*
X29627451Y28562585D01*
X29763043Y28698177D01*
X30782782Y28698177D01*
X30880478Y28432140D01*
X31172821Y28289652D01*
X31487344Y28206936D01*
X31811962Y28187169D01*
X32134198Y28231112D01*
X32441670Y28337076D01*
X32619522Y28432140D01*
X32717218Y28698177D01*
X31750000Y29665395D01*
X30782782Y28698177D01*
X29763043Y28698177D01*
X29857415Y28792549D01*
X30038097Y29062958D01*
X30162553Y29363421D01*
X30165158Y29376519D01*
X30242076Y29153330D01*
X30337140Y28975478D01*
X30603177Y28877782D01*
X31570395Y29845000D01*
X31929605Y29845000D01*
X32896823Y28877782D01*
X33162860Y28975478D01*
X33305348Y29267821D01*
X33388064Y29582344D01*
X33407831Y29906962D01*
X33363888Y30229198D01*
X33257924Y30536670D01*
X33162860Y30714522D01*
X32896823Y30812218D01*
X31929605Y29845000D01*
X31570395Y29845000D01*
X30603177Y30812218D01*
X30337140Y30714522D01*
X30194652Y30422179D01*
X30165549Y30311517D01*
X30162553Y30326579D01*
X30038097Y30627042D01*
X29857415Y30897451D01*
X29763043Y30991823D01*
X30782782Y30991823D01*
X31750000Y30024605D01*
X32717218Y30991823D01*
X32619522Y31257860D01*
X32327179Y31400348D01*
X32012656Y31483064D01*
X31688038Y31502831D01*
X31365802Y31458888D01*
X31058330Y31352924D01*
X30880478Y31257860D01*
X30782782Y30991823D01*
X29763043Y30991823D01*
X29627451Y31127415D01*
X29357042Y31308097D01*
X29056579Y31432553D01*
X28737609Y31496000D01*
X28412391Y31496000D01*
X28093421Y31432553D01*
X27792958Y31308097D01*
X27522549Y31127415D01*
X27292585Y30897451D01*
X27111903Y30627042D01*
X26987447Y30326579D01*
X26924000Y30007609D01*
X25146000Y30007609D01*
X25082553Y30326579D01*
X24958097Y30627042D01*
X24777415Y30897451D01*
X24547451Y31127415D01*
X24277042Y31308097D01*
X23976579Y31432553D01*
X23657609Y31496000D01*
X23332391Y31496000D01*
X23013421Y31432553D01*
X22712958Y31308097D01*
X22442549Y31127415D01*
X22212585Y30897451D01*
X22031903Y30627042D01*
X21907500Y30326707D01*
X21783097Y30627042D01*
X21602415Y30897451D01*
X21372451Y31127415D01*
X21102042Y31308097D01*
X20801579Y31432553D01*
X20482609Y31496000D01*
X20157391Y31496000D01*
X19838421Y31432553D01*
X19537958Y31308097D01*
X19377000Y31200548D01*
X19377000Y36109452D01*
X19537958Y36001903D01*
X19838421Y35877447D01*
X20157391Y35814000D01*
X20482609Y35814000D01*
X20801579Y35877447D01*
X21102042Y36001903D01*
X21372451Y36182585D01*
X21602415Y36412549D01*
X21783097Y36682958D01*
X21907500Y36983293D01*
X22031903Y36682958D01*
X22212585Y36412549D01*
X22442549Y36182585D01*
X22712958Y36001903D01*
X23013421Y35877447D01*
X23332391Y35814000D01*
X23657609Y35814000D01*
X23976579Y35877447D01*
X24277042Y36001903D01*
X24547451Y36182585D01*
X24777415Y36412549D01*
X24958097Y36682958D01*
X25082553Y36983421D01*
X25146000Y37302391D01*
X25146000Y37627609D01*
X26924000Y37627609D01*
X26924000Y37302391D01*
X26987447Y36983421D01*
X27111903Y36682958D01*
X27292585Y36412549D01*
X27522549Y36182585D01*
X27792958Y36001903D01*
X28093421Y35877447D01*
X28412391Y35814000D01*
X28737609Y35814000D01*
X29056579Y35877447D01*
X29357042Y36001903D01*
X29627451Y36182585D01*
X29857415Y36412549D01*
X30038097Y36682958D01*
X30162500Y36983293D01*
X30286903Y36682958D01*
X30467585Y36412549D01*
X30697549Y36182585D01*
X30967958Y36001903D01*
X31268421Y35877447D01*
X31587391Y35814000D01*
X31912609Y35814000D01*
X32231579Y35877447D01*
X32532042Y36001903D01*
X32802451Y36182585D01*
X33032415Y36412549D01*
X33213097Y36682958D01*
X33337553Y36983421D01*
X33401000Y37302391D01*
X33401000Y37627609D01*
X33337553Y37946579D01*
X33213097Y38247042D01*
X33173756Y38305920D01*
X36580525Y38305920D01*
X36664208Y38051739D01*
X36936775Y37920842D01*
X37229642Y37845635D01*
X37531553Y37829009D01*
X37830907Y37871603D01*
X38116199Y37971778D01*
X38265792Y38051739D01*
X38349475Y38305920D01*
X37465000Y39190395D01*
X36580525Y38305920D01*
X33173756Y38305920D01*
X33032415Y38517451D01*
X32802451Y38747415D01*
X32532042Y38928097D01*
X32231579Y39052553D01*
X31912609Y39116000D01*
X31587391Y39116000D01*
X31268421Y39052553D01*
X30967958Y38928097D01*
X30697549Y38747415D01*
X30467585Y38517451D01*
X30286903Y38247042D01*
X30162500Y37946707D01*
X30038097Y38247042D01*
X29857415Y38517451D01*
X29627451Y38747415D01*
X29357042Y38928097D01*
X29056579Y39052553D01*
X28737609Y39116000D01*
X28412391Y39116000D01*
X28093421Y39052553D01*
X27792958Y38928097D01*
X27522549Y38747415D01*
X27292585Y38517451D01*
X27111903Y38247042D01*
X26987447Y37946579D01*
X26924000Y37627609D01*
X25146000Y37627609D01*
X25082553Y37946579D01*
X24958097Y38247042D01*
X24777415Y38517451D01*
X24547451Y38747415D01*
X24277042Y38928097D01*
X23976579Y39052553D01*
X23657609Y39116000D01*
X23332391Y39116000D01*
X23013421Y39052553D01*
X22712958Y38928097D01*
X22442549Y38747415D01*
X22212585Y38517451D01*
X22031903Y38247042D01*
X21907500Y37946707D01*
X21783097Y38247042D01*
X21602415Y38517451D01*
X21372451Y38747415D01*
X21102042Y38928097D01*
X20824642Y39043000D01*
X21379210Y39043000D01*
X21392822Y39033905D01*
X21566166Y38962104D01*
X21750187Y38925500D01*
X21937813Y38925500D01*
X22121834Y38962104D01*
X22295178Y39033905D01*
X22451184Y39138145D01*
X22583855Y39270816D01*
X22688095Y39426822D01*
X22734338Y39538465D01*
X29558070Y39538465D01*
X29648098Y39278919D01*
X29929616Y39142776D01*
X30232286Y39064171D01*
X30544474Y39046123D01*
X30854185Y39089328D01*
X31149516Y39192123D01*
X31311902Y39278919D01*
X31320409Y39303447D01*
X35924009Y39303447D01*
X35966603Y39004093D01*
X36066778Y38718801D01*
X36146739Y38569208D01*
X36400920Y38485525D01*
X37285395Y39370000D01*
X36400920Y40254475D01*
X36146739Y40170792D01*
X36015842Y39898225D01*
X35940635Y39605358D01*
X35924009Y39303447D01*
X31320409Y39303447D01*
X31401930Y39538465D01*
X30480000Y40460395D01*
X29558070Y39538465D01*
X22734338Y39538465D01*
X22759896Y39600166D01*
X22796500Y39784187D01*
X22796500Y39971813D01*
X22759896Y40155834D01*
X22688095Y40329178D01*
X22583855Y40485184D01*
X22493513Y40575526D01*
X28886123Y40575526D01*
X28929328Y40265815D01*
X29032123Y39970484D01*
X29118919Y39808098D01*
X29378465Y39718070D01*
X30300395Y40640000D01*
X30659605Y40640000D01*
X31581535Y39718070D01*
X31841081Y39808098D01*
X31977224Y40089616D01*
X32055829Y40392286D01*
X32073877Y40704474D01*
X32030672Y41014185D01*
X31927877Y41309516D01*
X31841081Y41471902D01*
X31581535Y41561930D01*
X30659605Y40640000D01*
X30300395Y40640000D01*
X29378465Y41561930D01*
X29118919Y41471902D01*
X28982776Y41190384D01*
X28904171Y40887714D01*
X28886123Y40575526D01*
X22493513Y40575526D01*
X22451184Y40617855D01*
X22295178Y40722095D01*
X22121834Y40793896D01*
X21937813Y40830500D01*
X21750187Y40830500D01*
X21566166Y40793896D01*
X21392822Y40722095D01*
X21379210Y40713000D01*
X19895790Y40713000D01*
X19882178Y40722095D01*
X19708834Y40793896D01*
X19524813Y40830500D01*
X19377000Y40830500D01*
X19377000Y44132500D01*
X26349428Y44132500D01*
X26349428Y42227500D01*
X26361688Y42103018D01*
X26397998Y41983320D01*
X26456963Y41873006D01*
X26536315Y41776315D01*
X26633006Y41696963D01*
X26743320Y41637998D01*
X26863018Y41601688D01*
X26987500Y41589428D01*
X28892500Y41589428D01*
X29016982Y41601688D01*
X29136680Y41637998D01*
X29246994Y41696963D01*
X29343685Y41776315D01*
X29423037Y41873006D01*
X29464451Y41950485D01*
X29468028Y41946908D01*
X29598961Y41859422D01*
X29558070Y41741535D01*
X30480000Y40819605D01*
X31401930Y41741535D01*
X31361039Y41859422D01*
X31491972Y41946908D01*
X31713092Y42168028D01*
X31886824Y42428037D01*
X32006493Y42716943D01*
X32067500Y43023645D01*
X32067500Y43336355D01*
X32006493Y43643057D01*
X31886824Y43931963D01*
X31713092Y44191972D01*
X31491972Y44413092D01*
X31231963Y44586824D01*
X30943057Y44706493D01*
X30636355Y44767500D01*
X30323645Y44767500D01*
X30016943Y44706493D01*
X29728037Y44586824D01*
X29468028Y44413092D01*
X29464451Y44409515D01*
X29423037Y44486994D01*
X29343685Y44583685D01*
X29246994Y44663037D01*
X29136680Y44722002D01*
X29016982Y44758312D01*
X28892500Y44770572D01*
X26987500Y44770572D01*
X26863018Y44758312D01*
X26743320Y44722002D01*
X26633006Y44663037D01*
X26536315Y44583685D01*
X26456963Y44486994D01*
X26397998Y44376680D01*
X26361688Y44256982D01*
X26349428Y44132500D01*
X19377000Y44132500D01*
X19377000Y44281982D01*
X19381040Y44323001D01*
X19364918Y44486688D01*
X19345563Y44550494D01*
X19317172Y44644087D01*
X19239636Y44789146D01*
X19135291Y44916291D01*
X19103421Y44942446D01*
X19034443Y45011424D01*
X19034438Y45011430D01*
X16837000Y47208867D01*
X16837000Y50327609D01*
X27559000Y50327609D01*
X27559000Y50002391D01*
X27622447Y49683421D01*
X27746903Y49382958D01*
X27927585Y49112549D01*
X28157549Y48882585D01*
X28427958Y48701903D01*
X28728421Y48577447D01*
X29047391Y48514000D01*
X29372609Y48514000D01*
X29691579Y48577447D01*
X29992042Y48701903D01*
X30184296Y48830364D01*
X30203463Y48794506D01*
X30282815Y48697815D01*
X30379506Y48618463D01*
X30489820Y48559498D01*
X30609518Y48523188D01*
X30734000Y48510928D01*
X32766000Y48510928D01*
X32890482Y48523188D01*
X33010180Y48559498D01*
X33120494Y48618463D01*
X33217185Y48697815D01*
X33296537Y48794506D01*
X33355502Y48904820D01*
X33359859Y48919184D01*
X35930000Y48919184D01*
X35930000Y48616816D01*
X35988989Y48320257D01*
X36104701Y48040905D01*
X36272688Y47789495D01*
X36486495Y47575688D01*
X36737905Y47407701D01*
X37017257Y47291989D01*
X37313816Y47233000D01*
X37616184Y47233000D01*
X37912743Y47291989D01*
X38192095Y47407701D01*
X38443505Y47575688D01*
X38657312Y47789495D01*
X38825299Y48040905D01*
X38941011Y48320257D01*
X39000000Y48616816D01*
X39000000Y48919184D01*
X38941011Y49215743D01*
X38825299Y49495095D01*
X38657312Y49746505D01*
X38443505Y49960312D01*
X38192095Y50128299D01*
X37912743Y50244011D01*
X37616184Y50303000D01*
X37313816Y50303000D01*
X37017257Y50244011D01*
X36737905Y50128299D01*
X36486495Y49960312D01*
X36272688Y49746505D01*
X36104701Y49495095D01*
X35988989Y49215743D01*
X35930000Y48919184D01*
X33359859Y48919184D01*
X33391812Y49024518D01*
X33404072Y49149000D01*
X33404072Y51181000D01*
X33391812Y51305482D01*
X33355502Y51425180D01*
X33296537Y51535494D01*
X33245561Y51597609D01*
X33909000Y51597609D01*
X33909000Y51272391D01*
X33972447Y50953421D01*
X34096903Y50652958D01*
X34277585Y50382549D01*
X34507549Y50152585D01*
X34777958Y49971903D01*
X35078421Y49847447D01*
X35397391Y49784000D01*
X35722609Y49784000D01*
X36041579Y49847447D01*
X36342042Y49971903D01*
X36612451Y50152585D01*
X36842415Y50382549D01*
X37023097Y50652958D01*
X37147553Y50953421D01*
X37211000Y51272391D01*
X37211000Y51597609D01*
X37147553Y51916579D01*
X37023097Y52217042D01*
X36842415Y52487451D01*
X36612451Y52717415D01*
X36342042Y52898097D01*
X36041579Y53022553D01*
X35722609Y53086000D01*
X35397391Y53086000D01*
X35078421Y53022553D01*
X34777958Y52898097D01*
X34507549Y52717415D01*
X34277585Y52487451D01*
X34096903Y52217042D01*
X33972447Y51916579D01*
X33909000Y51597609D01*
X33245561Y51597609D01*
X33217185Y51632185D01*
X33120494Y51711537D01*
X33010180Y51770502D01*
X32890482Y51806812D01*
X32766000Y51819072D01*
X30734000Y51819072D01*
X30609518Y51806812D01*
X30489820Y51770502D01*
X30379506Y51711537D01*
X30282815Y51632185D01*
X30203463Y51535494D01*
X30184296Y51499636D01*
X29992042Y51628097D01*
X29691579Y51752553D01*
X29372609Y51816000D01*
X29047391Y51816000D01*
X28728421Y51752553D01*
X28427958Y51628097D01*
X28157549Y51447415D01*
X27927585Y51217451D01*
X27746903Y50947042D01*
X27622447Y50646579D01*
X27559000Y50327609D01*
X16837000Y50327609D01*
X16837000Y52959000D01*
X18030928Y52959000D01*
X18043188Y52834518D01*
X18079498Y52714820D01*
X18138463Y52604506D01*
X18217815Y52507815D01*
X18314506Y52428463D01*
X18424820Y52369498D01*
X18544518Y52333188D01*
X18669000Y52320928D01*
X19399250Y52324000D01*
X19558000Y52482750D01*
X19558000Y53848000D01*
X18192750Y53848000D01*
X18034000Y53689250D01*
X18030928Y52959000D01*
X16837000Y52959000D01*
X16837000Y54991000D01*
X18030928Y54991000D01*
X18034000Y54260750D01*
X18192750Y54102000D01*
X19558000Y54102000D01*
X19558000Y55467250D01*
X19812000Y55467250D01*
X19812000Y54102000D01*
X19832000Y54102000D01*
X19832000Y53848000D01*
X19812000Y53848000D01*
X19812000Y52482750D01*
X19970750Y52324000D01*
X20701000Y52320928D01*
X20825482Y52333188D01*
X20945180Y52369498D01*
X21055494Y52428463D01*
X21152185Y52507815D01*
X21231537Y52604506D01*
X21250704Y52640364D01*
X21442958Y52511903D01*
X21743421Y52387447D01*
X22062391Y52324000D01*
X22387609Y52324000D01*
X22706579Y52387447D01*
X23007042Y52511903D01*
X23277451Y52692585D01*
X23495000Y52910134D01*
X23712549Y52692585D01*
X23982958Y52511903D01*
X24283421Y52387447D01*
X24602391Y52324000D01*
X24927609Y52324000D01*
X25246579Y52387447D01*
X25547042Y52511903D01*
X25817451Y52692585D01*
X26047415Y52922549D01*
X26228097Y53192958D01*
X26352553Y53493421D01*
X26416000Y53812391D01*
X26416000Y54137609D01*
X26352553Y54456579D01*
X26228097Y54757042D01*
X26047415Y55027451D01*
X25817451Y55257415D01*
X25547042Y55438097D01*
X25246579Y55562553D01*
X24927609Y55626000D01*
X24602391Y55626000D01*
X24283421Y55562553D01*
X23982958Y55438097D01*
X23712549Y55257415D01*
X23495000Y55039866D01*
X23277451Y55257415D01*
X23007042Y55438097D01*
X22706579Y55562553D01*
X22387609Y55626000D01*
X22062391Y55626000D01*
X21743421Y55562553D01*
X21442958Y55438097D01*
X21250704Y55309636D01*
X21231537Y55345494D01*
X21152185Y55442185D01*
X21055494Y55521537D01*
X20945180Y55580502D01*
X20825482Y55616812D01*
X20701000Y55629072D01*
X19970750Y55626000D01*
X19812000Y55467250D01*
X19558000Y55467250D01*
X19399250Y55626000D01*
X18669000Y55629072D01*
X18544518Y55616812D01*
X18424820Y55580502D01*
X18314506Y55521537D01*
X18217815Y55442185D01*
X18138463Y55345494D01*
X18079498Y55235180D01*
X18043188Y55115482D01*
X18030928Y54991000D01*
X16837000Y54991000D01*
X16837000Y57108982D01*
X16841040Y57150000D01*
X16834433Y57217087D01*
X16824918Y57313689D01*
X16777172Y57471087D01*
X16699636Y57616146D01*
X16621439Y57711430D01*
X16621437Y57711432D01*
X16595291Y57743291D01*
X16563433Y57769436D01*
X15115260Y59217609D01*
X33909000Y59217609D01*
X33909000Y58892391D01*
X33972447Y58573421D01*
X34096903Y58272958D01*
X34277585Y58002549D01*
X34507549Y57772585D01*
X34777958Y57591903D01*
X35078421Y57467447D01*
X35397391Y57404000D01*
X35722609Y57404000D01*
X36041579Y57467447D01*
X36342042Y57591903D01*
X36612451Y57772585D01*
X36842415Y58002549D01*
X37023097Y58272958D01*
X37147553Y58573421D01*
X37211000Y58892391D01*
X37211000Y59217609D01*
X37147553Y59536579D01*
X37023097Y59837042D01*
X36842415Y60107451D01*
X36612451Y60337415D01*
X36342042Y60518097D01*
X36041579Y60642553D01*
X35722609Y60706000D01*
X35397391Y60706000D01*
X35078421Y60642553D01*
X34777958Y60518097D01*
X34507549Y60337415D01*
X34277585Y60107451D01*
X34096903Y59837042D01*
X33972447Y59536579D01*
X33909000Y59217609D01*
X15115260Y59217609D01*
X12684446Y61648421D01*
X12658291Y61680291D01*
X12531146Y61784636D01*
X12386087Y61862172D01*
X12228689Y61909918D01*
X12106019Y61922000D01*
X12106018Y61922000D01*
X12065000Y61926040D01*
X12023982Y61922000D01*
X10759868Y61922000D01*
X10003936Y62677931D01*
X10012958Y62671903D01*
X10313421Y62547447D01*
X10632391Y62484000D01*
X10957609Y62484000D01*
X11276579Y62547447D01*
X11577042Y62671903D01*
X11847451Y62852585D01*
X12077415Y63082549D01*
X12258097Y63352958D01*
X12382553Y63653421D01*
X12446000Y63972391D01*
X12446000Y64297609D01*
X12382553Y64616579D01*
X12258097Y64917042D01*
X12077415Y65187451D01*
X11847451Y65417415D01*
X11577042Y65598097D01*
X11276579Y65722553D01*
X10957609Y65786000D01*
X10632391Y65786000D01*
X10313421Y65722553D01*
X10012958Y65598097D01*
X9852000Y65490548D01*
X9852000Y65490982D01*
X9856040Y65532000D01*
X9839918Y65695688D01*
X9818687Y65765680D01*
X9792172Y65853087D01*
X9714636Y65998146D01*
X9610291Y66125291D01*
X9578433Y66151436D01*
X6010406Y69719461D01*
X5988625Y69791264D01*
X5849469Y70051606D01*
X5662197Y70279797D01*
X5434006Y70467069D01*
X5400460Y70485000D01*
X5434006Y70502931D01*
X5662197Y70690203D01*
X5849469Y70918394D01*
X5988625Y71178736D01*
X6074316Y71461223D01*
X6103251Y71755000D01*
X6087236Y71917609D01*
X9144000Y71917609D01*
X9144000Y71592391D01*
X9207447Y71273421D01*
X9331903Y70972958D01*
X9512585Y70702549D01*
X9742549Y70472585D01*
X10012958Y70291903D01*
X10313421Y70167447D01*
X10632391Y70104000D01*
X10957609Y70104000D01*
X11276579Y70167447D01*
X11577042Y70291903D01*
X11847451Y70472585D01*
X12077415Y70702549D01*
X12258097Y70972958D01*
X12382553Y71273421D01*
X12446000Y71592391D01*
X12446000Y71693038D01*
X12947169Y71693038D01*
X12991112Y71370802D01*
X13097076Y71063330D01*
X13192140Y70885478D01*
X13458177Y70787782D01*
X14425395Y71755000D01*
X13458177Y72722218D01*
X13192140Y72624522D01*
X13049652Y72332179D01*
X12966936Y72017656D01*
X12947169Y71693038D01*
X12446000Y71693038D01*
X12446000Y71917609D01*
X12382553Y72236579D01*
X12258097Y72537042D01*
X12077415Y72807451D01*
X11847451Y73037415D01*
X11577042Y73218097D01*
X11276579Y73342553D01*
X10957609Y73406000D01*
X10632391Y73406000D01*
X10313421Y73342553D01*
X10012958Y73218097D01*
X9742549Y73037415D01*
X9512585Y72807451D01*
X9331903Y72537042D01*
X9207447Y72236579D01*
X9144000Y71917609D01*
X6087236Y71917609D01*
X6074316Y72048777D01*
X5988625Y72331264D01*
X5849469Y72591606D01*
X5662197Y72819797D01*
X5434006Y73007069D01*
X5394053Y73028424D01*
X5596729Y73176514D01*
X5795733Y73392965D01*
X5948686Y73644081D01*
X6049709Y73920211D01*
X6052358Y73935974D01*
X5931217Y74168000D01*
X4572000Y74168000D01*
X4572000Y74148000D01*
X4318000Y74148000D01*
X4318000Y74168000D01*
X4298000Y74168000D01*
X4298000Y74422000D01*
X4318000Y74422000D01*
X4318000Y75635925D01*
X4572000Y75635925D01*
X4572000Y74422000D01*
X5931217Y74422000D01*
X6052358Y74654026D01*
X6049709Y74669789D01*
X5948686Y74945919D01*
X5795733Y75197035D01*
X5596729Y75413486D01*
X5359321Y75586954D01*
X5092633Y75710773D01*
X4806914Y75780185D01*
X4572000Y75635925D01*
X4318000Y75635925D01*
X4083086Y75780185D01*
X3797367Y75710773D01*
X3530679Y75586954D01*
X3293271Y75413486D01*
X3094267Y75197035D01*
X3059781Y75140416D01*
X3059781Y79043159D01*
X3224372Y78796830D01*
X3517204Y78503998D01*
X3861538Y78273922D01*
X4244141Y78115442D01*
X4650311Y78034650D01*
X5064437Y78034650D01*
X5470607Y78115442D01*
X5853210Y78273922D01*
X6197544Y78503998D01*
X6490376Y78796830D01*
X6720452Y79141164D01*
X6878932Y79523767D01*
X6959724Y79929937D01*
X6959724Y80344063D01*
X6878932Y80750233D01*
X6720452Y81132836D01*
X6490376Y81477170D01*
X6197544Y81770002D01*
X5951220Y81934590D01*
X9730480Y81934590D01*
X9714209Y81908385D01*
G37*
G04 #@! TD.AperFunction*
D32*
X4803463Y25934506D02*
X4882815Y25837815D01*
X4979506Y25758463D01*
X5089820Y25699498D01*
X5209518Y25663188D01*
X5334000Y25650928D01*
X7166001Y25650928D01*
X7166001Y21250029D01*
X7161960Y21209000D01*
X7178082Y21045312D01*
X7225828Y20887914D01*
X7303364Y20742855D01*
X7303365Y20742854D01*
X7407710Y20615709D01*
X7439574Y20589559D01*
X8270563Y19758568D01*
X8296709Y19726709D01*
X8328568Y19700563D01*
X8328570Y19700561D01*
X8423854Y19622364D01*
X8568913Y19544828D01*
X8726311Y19497082D01*
X8890000Y19480960D01*
X8931018Y19485000D01*
X9259273Y19485000D01*
X9267710Y19469215D01*
X9458156Y19237156D01*
X9686206Y19050000D01*
X9458156Y18862844D01*
X9267710Y18630785D01*
X9126196Y18366031D01*
X9039052Y18078756D01*
X9009627Y17780000D01*
X9039052Y17481244D01*
X9126196Y17193969D01*
X9267710Y16929215D01*
X9458156Y16697156D01*
X9690215Y16506710D01*
X9694002Y16504686D01*
X9588715Y16436602D01*
X9373567Y16227828D01*
X9203283Y15981092D01*
X9084407Y15705876D01*
X9060866Y15603013D01*
X9181670Y15367000D01*
X10668000Y15367000D01*
X10668000Y15387000D01*
X10922000Y15387000D01*
X10922000Y15367000D01*
X10942000Y15367000D01*
X10942000Y15113000D01*
X10922000Y15113000D01*
X10922000Y15093000D01*
X10668000Y15093000D01*
X10668000Y15113000D01*
X9181670Y15113000D01*
X9060866Y14876987D01*
X9084407Y14774124D01*
X9203283Y14498908D01*
X9373567Y14252172D01*
X9588715Y14043398D01*
X9694002Y13975314D01*
X9690215Y13973290D01*
X9458156Y13782844D01*
X9267710Y13550785D01*
X9126196Y13286031D01*
X9039052Y12998756D01*
X9009627Y12700000D01*
X9039052Y12401244D01*
X9126196Y12113969D01*
X9267710Y11849215D01*
X9458156Y11617156D01*
X9686206Y11430000D01*
X9458156Y11242844D01*
X9267710Y11010785D01*
X9126196Y10746031D01*
X9039052Y10458756D01*
X9009627Y10160000D01*
X9039052Y9861244D01*
X9126196Y9573969D01*
X9267710Y9309215D01*
X9458156Y9077156D01*
X9686206Y8890000D01*
X9458156Y8702844D01*
X9267710Y8470785D01*
X9126196Y8206031D01*
X9039052Y7918756D01*
X9025070Y7776797D01*
X8963000Y7838867D01*
X8963000Y15325982D01*
X8967040Y15367001D01*
X8950918Y15530689D01*
X8903172Y15688087D01*
X8825636Y15833146D01*
X8750286Y15924960D01*
X8721291Y15960291D01*
X8689428Y15986440D01*
X4645000Y20030867D01*
X4645000Y25877288D01*
X4784296Y25970364D01*
X4803463Y25934506D01*
G04 #@! TA.AperFunction,Conductor*
D33*
G36*
X4803463Y25934506D02*
G01*
X4882815Y25837815D01*
X4979506Y25758463D01*
X5089820Y25699498D01*
X5209518Y25663188D01*
X5334000Y25650928D01*
X7166001Y25650928D01*
X7166001Y21250029D01*
X7161960Y21209000D01*
X7178082Y21045312D01*
X7225828Y20887914D01*
X7303364Y20742855D01*
X7303365Y20742854D01*
X7407710Y20615709D01*
X7439574Y20589559D01*
X8270563Y19758568D01*
X8296709Y19726709D01*
X8328568Y19700563D01*
X8328570Y19700561D01*
X8423854Y19622364D01*
X8568913Y19544828D01*
X8726311Y19497082D01*
X8890000Y19480960D01*
X8931018Y19485000D01*
X9259273Y19485000D01*
X9267710Y19469215D01*
X9458156Y19237156D01*
X9686206Y19050000D01*
X9458156Y18862844D01*
X9267710Y18630785D01*
X9126196Y18366031D01*
X9039052Y18078756D01*
X9009627Y17780000D01*
X9039052Y17481244D01*
X9126196Y17193969D01*
X9267710Y16929215D01*
X9458156Y16697156D01*
X9690215Y16506710D01*
X9694002Y16504686D01*
X9588715Y16436602D01*
X9373567Y16227828D01*
X9203283Y15981092D01*
X9084407Y15705876D01*
X9060866Y15603013D01*
X9181670Y15367000D01*
X10668000Y15367000D01*
X10668000Y15387000D01*
X10922000Y15387000D01*
X10922000Y15367000D01*
X10942000Y15367000D01*
X10942000Y15113000D01*
X10922000Y15113000D01*
X10922000Y15093000D01*
X10668000Y15093000D01*
X10668000Y15113000D01*
X9181670Y15113000D01*
X9060866Y14876987D01*
X9084407Y14774124D01*
X9203283Y14498908D01*
X9373567Y14252172D01*
X9588715Y14043398D01*
X9694002Y13975314D01*
X9690215Y13973290D01*
X9458156Y13782844D01*
X9267710Y13550785D01*
X9126196Y13286031D01*
X9039052Y12998756D01*
X9009627Y12700000D01*
X9039052Y12401244D01*
X9126196Y12113969D01*
X9267710Y11849215D01*
X9458156Y11617156D01*
X9686206Y11430000D01*
X9458156Y11242844D01*
X9267710Y11010785D01*
X9126196Y10746031D01*
X9039052Y10458756D01*
X9009627Y10160000D01*
X9039052Y9861244D01*
X9126196Y9573969D01*
X9267710Y9309215D01*
X9458156Y9077156D01*
X9686206Y8890000D01*
X9458156Y8702844D01*
X9267710Y8470785D01*
X9126196Y8206031D01*
X9039052Y7918756D01*
X9025070Y7776797D01*
X8963000Y7838867D01*
X8963000Y15325982D01*
X8967040Y15367001D01*
X8950918Y15530689D01*
X8903172Y15688087D01*
X8825636Y15833146D01*
X8750286Y15924960D01*
X8721291Y15960291D01*
X8689428Y15986440D01*
X4645000Y20030867D01*
X4645000Y25877288D01*
X4784296Y25970364D01*
X4803463Y25934506D01*
G37*
G04 #@! TD.AperFunction*
D32*
X10922000Y25527000D02*
X10942000Y25527000D01*
X10942000Y25273000D01*
X10922000Y25273000D01*
X10922000Y25253000D01*
X10668000Y25253000D01*
X10668000Y25273000D01*
X10648000Y25273000D01*
X10648000Y25527000D01*
X10668000Y25527000D01*
X10668000Y25547000D01*
X10922000Y25547000D01*
X10922000Y25527000D01*
G04 #@! TA.AperFunction,Conductor*
D33*
G36*
X10922000Y25527000D02*
G01*
X10942000Y25527000D01*
X10942000Y25273000D01*
X10922000Y25273000D01*
X10922000Y25253000D01*
X10668000Y25253000D01*
X10668000Y25273000D01*
X10648000Y25273000D01*
X10648000Y25527000D01*
X10668000Y25527000D01*
X10668000Y25547000D01*
X10922000Y25547000D01*
X10922000Y25527000D01*
G37*
G04 #@! TD.AperFunction*
D32*
X40767000Y43307000D02*
X40787000Y43307000D01*
X40787000Y43053000D01*
X40767000Y43053000D01*
X40767000Y41687750D01*
X40925750Y41529000D01*
X41548582Y41526380D01*
X41548582Y28683546D01*
X41422042Y28768097D01*
X41121579Y28892553D01*
X40802609Y28956000D01*
X40477391Y28956000D01*
X40158421Y28892553D01*
X39857958Y28768097D01*
X39665704Y28639636D01*
X39646537Y28675494D01*
X39567185Y28772185D01*
X39470494Y28851537D01*
X39360180Y28910502D01*
X39240482Y28946812D01*
X39116000Y28959072D01*
X39116000Y35520160D01*
X40815133Y37219292D01*
X40853896Y37251104D01*
X40980860Y37405810D01*
X41075202Y37582313D01*
X41133298Y37773829D01*
X41148000Y37923098D01*
X41148000Y37923099D01*
X41152915Y37973000D01*
X41148000Y38022902D01*
X41148000Y40082098D01*
X41152915Y40132000D01*
X41133298Y40331171D01*
X41075202Y40522687D01*
X41012497Y40640000D01*
X40980860Y40699190D01*
X40853896Y40853896D01*
X40815133Y40885708D01*
X40172605Y41528236D01*
X40354250Y41529000D01*
X40513000Y41687750D01*
X40513000Y43053000D01*
X40493000Y43053000D01*
X40493000Y43307000D01*
X40513000Y43307000D01*
X40513000Y43327000D01*
X40767000Y43327000D01*
X40767000Y43307000D01*
G04 #@! TA.AperFunction,Conductor*
D33*
G36*
X40767000Y43307000D02*
G01*
X40787000Y43307000D01*
X40787000Y43053000D01*
X40767000Y43053000D01*
X40767000Y41687750D01*
X40925750Y41529000D01*
X41548582Y41526380D01*
X41548582Y28683546D01*
X41422042Y28768097D01*
X41121579Y28892553D01*
X40802609Y28956000D01*
X40477391Y28956000D01*
X40158421Y28892553D01*
X39857958Y28768097D01*
X39665704Y28639636D01*
X39646537Y28675494D01*
X39567185Y28772185D01*
X39470494Y28851537D01*
X39360180Y28910502D01*
X39240482Y28946812D01*
X39116000Y28959072D01*
X39116000Y35520160D01*
X40815133Y37219292D01*
X40853896Y37251104D01*
X40980860Y37405810D01*
X41075202Y37582313D01*
X41133298Y37773829D01*
X41148000Y37923098D01*
X41148000Y37923099D01*
X41152915Y37973000D01*
X41148000Y38022902D01*
X41148000Y40082098D01*
X41152915Y40132000D01*
X41133298Y40331171D01*
X41075202Y40522687D01*
X41012497Y40640000D01*
X40980860Y40699190D01*
X40853896Y40853896D01*
X40815133Y40885708D01*
X40172605Y41528236D01*
X40354250Y41529000D01*
X40513000Y41687750D01*
X40513000Y43053000D01*
X40493000Y43053000D01*
X40493000Y43307000D01*
X40513000Y43307000D01*
X40513000Y43327000D01*
X40767000Y43327000D01*
X40767000Y43307000D01*
G37*
G04 #@! TD.AperFunction*
D32*
X7166000Y39913131D02*
X7166001Y28959072D01*
X5334000Y28959072D01*
X5209518Y28946812D01*
X5089820Y28910502D01*
X4979506Y28851537D01*
X4882815Y28772185D01*
X4803463Y28675494D01*
X4784296Y28639636D01*
X4592042Y28768097D01*
X4291579Y28892553D01*
X3972609Y28956000D01*
X3647391Y28956000D01*
X3328421Y28892553D01*
X3059781Y28781279D01*
X3059781Y32698715D01*
X3150530Y32650208D01*
X3270228Y32613898D01*
X3394710Y32601638D01*
X4159250Y32604710D01*
X4318000Y32763460D01*
X4318000Y34163000D01*
X4572000Y34163000D01*
X4572000Y32763460D01*
X4730750Y32604710D01*
X5495290Y32601638D01*
X5619772Y32613898D01*
X5739470Y32650208D01*
X5849784Y32709173D01*
X5946475Y32788525D01*
X6025827Y32885216D01*
X6084792Y32995530D01*
X6121102Y33115228D01*
X6133362Y33239710D01*
X6130290Y34004250D01*
X5971540Y34163000D01*
X4572000Y34163000D01*
X4318000Y34163000D01*
X4298000Y34163000D01*
X4298000Y34417000D01*
X4318000Y34417000D01*
X4318000Y34437000D01*
X4572000Y34437000D01*
X4572000Y34417000D01*
X5971540Y34417000D01*
X6130290Y34575750D01*
X6133362Y35340290D01*
X6121102Y35464772D01*
X6084792Y35584470D01*
X6025827Y35694784D01*
X5946475Y35791475D01*
X5876113Y35849219D01*
X5982377Y36008255D01*
X6113152Y36323972D01*
X6179820Y36659135D01*
X6179820Y37000865D01*
X6113152Y37336028D01*
X5982377Y37651745D01*
X5792523Y37935883D01*
X5628406Y38100000D01*
X5792523Y38264117D01*
X5982377Y38548255D01*
X6113152Y38863972D01*
X6179820Y39199135D01*
X6179820Y39540865D01*
X6113152Y39876028D01*
X5982377Y40191745D01*
X5792523Y40475883D01*
X5628406Y40640000D01*
X5792523Y40804117D01*
X5973520Y41075000D01*
X6004133Y41075000D01*
X7166000Y39913131D01*
G04 #@! TA.AperFunction,Conductor*
D33*
G36*
X7166000Y39913131D02*
G01*
X7166001Y28959072D01*
X5334000Y28959072D01*
X5209518Y28946812D01*
X5089820Y28910502D01*
X4979506Y28851537D01*
X4882815Y28772185D01*
X4803463Y28675494D01*
X4784296Y28639636D01*
X4592042Y28768097D01*
X4291579Y28892553D01*
X3972609Y28956000D01*
X3647391Y28956000D01*
X3328421Y28892553D01*
X3059781Y28781279D01*
X3059781Y32698715D01*
X3150530Y32650208D01*
X3270228Y32613898D01*
X3394710Y32601638D01*
X4159250Y32604710D01*
X4318000Y32763460D01*
X4318000Y34163000D01*
X4572000Y34163000D01*
X4572000Y32763460D01*
X4730750Y32604710D01*
X5495290Y32601638D01*
X5619772Y32613898D01*
X5739470Y32650208D01*
X5849784Y32709173D01*
X5946475Y32788525D01*
X6025827Y32885216D01*
X6084792Y32995530D01*
X6121102Y33115228D01*
X6133362Y33239710D01*
X6130290Y34004250D01*
X5971540Y34163000D01*
X4572000Y34163000D01*
X4318000Y34163000D01*
X4298000Y34163000D01*
X4298000Y34417000D01*
X4318000Y34417000D01*
X4318000Y34437000D01*
X4572000Y34437000D01*
X4572000Y34417000D01*
X5971540Y34417000D01*
X6130290Y34575750D01*
X6133362Y35340290D01*
X6121102Y35464772D01*
X6084792Y35584470D01*
X6025827Y35694784D01*
X5946475Y35791475D01*
X5876113Y35849219D01*
X5982377Y36008255D01*
X6113152Y36323972D01*
X6179820Y36659135D01*
X6179820Y37000865D01*
X6113152Y37336028D01*
X5982377Y37651745D01*
X5792523Y37935883D01*
X5628406Y38100000D01*
X5792523Y38264117D01*
X5982377Y38548255D01*
X6113152Y38863972D01*
X6179820Y39199135D01*
X6179820Y39540865D01*
X6113152Y39876028D01*
X5982377Y40191745D01*
X5792523Y40475883D01*
X5628406Y40640000D01*
X5792523Y40804117D01*
X5973520Y41075000D01*
X6004133Y41075000D01*
X7166000Y39913131D01*
G37*
G04 #@! TD.AperFunction*
D32*
X7166000Y63789132D02*
X7166001Y61890028D01*
X7161960Y61849000D01*
X7178082Y61685312D01*
X7225828Y61527914D01*
X7289878Y61408086D01*
X7303365Y61382854D01*
X7407710Y61255709D01*
X7439574Y61229559D01*
X8905559Y59763574D01*
X8931709Y59731709D01*
X9058854Y59627364D01*
X9203913Y59549828D01*
X9212330Y59547275D01*
X10160000Y58599605D01*
X10174143Y58613747D01*
X10353748Y58434142D01*
X10339605Y58420000D01*
X11331273Y57428332D01*
X11600815Y57530167D01*
X11746728Y57828354D01*
X11831664Y58149277D01*
X11852359Y58480604D01*
X11808018Y58809602D01*
X11700344Y59123629D01*
X11695567Y59132566D01*
X14278000Y56550132D01*
X14278000Y54339868D01*
X12176446Y56441421D01*
X12150291Y56473291D01*
X12023146Y56577636D01*
X11878087Y56655172D01*
X11720689Y56702918D01*
X11631130Y56711739D01*
X11469050Y56954310D01*
X11234310Y57189050D01*
X11150323Y57245168D01*
X11151668Y57248727D01*
X10160000Y58240395D01*
X9168332Y57248727D01*
X9169677Y57245168D01*
X9085690Y57189050D01*
X8850950Y56954310D01*
X8666516Y56678284D01*
X8539475Y56371581D01*
X8474710Y56045987D01*
X8474710Y55714013D01*
X8539475Y55388419D01*
X8666516Y55081716D01*
X8769070Y54928232D01*
X8755216Y54920827D01*
X8658525Y54841475D01*
X8579173Y54744784D01*
X8520208Y54634470D01*
X8483898Y54514772D01*
X8471638Y54390290D01*
X8471638Y52289710D01*
X8483898Y52165228D01*
X8520208Y52045530D01*
X8579173Y51935216D01*
X8658525Y51838525D01*
X8755216Y51759173D01*
X8865530Y51700208D01*
X8985228Y51663898D01*
X9109710Y51651638D01*
X11210290Y51651638D01*
X11334772Y51663898D01*
X11454470Y51700208D01*
X11564784Y51759173D01*
X11661475Y51838525D01*
X11740827Y51935216D01*
X11799792Y52045530D01*
X11836102Y52165228D01*
X11848362Y52289710D01*
X11848362Y54390290D01*
X11846452Y54409680D01*
X13262000Y52994132D01*
X13262001Y45507029D01*
X13257960Y45466000D01*
X13274082Y45302312D01*
X13321828Y45144914D01*
X13393177Y45011430D01*
X13399365Y44999854D01*
X13503710Y44872709D01*
X13535574Y44846559D01*
X13645243Y44736890D01*
X13491355Y44767500D01*
X13178645Y44767500D01*
X12871943Y44706493D01*
X12583037Y44586824D01*
X12323028Y44413092D01*
X12319451Y44409515D01*
X12278037Y44486994D01*
X12198685Y44583685D01*
X12101994Y44663037D01*
X11991680Y44722002D01*
X11871982Y44758312D01*
X11747500Y44770572D01*
X10106000Y44770572D01*
X10106000Y46567982D01*
X10110040Y46609000D01*
X10093918Y46772688D01*
X10088606Y46790202D01*
X10046172Y46930087D01*
X9968636Y47075146D01*
X9890439Y47170430D01*
X9890437Y47170432D01*
X9864291Y47202291D01*
X9832433Y47228436D01*
X5772816Y51288051D01*
X5815494Y51310863D01*
X5912185Y51390215D01*
X5991537Y51486906D01*
X6050502Y51597220D01*
X6086812Y51716918D01*
X6099072Y51841400D01*
X6099072Y53568600D01*
X6086812Y53693082D01*
X6050502Y53812780D01*
X5991537Y53923094D01*
X5912185Y54019785D01*
X5815494Y54099137D01*
X5705180Y54158102D01*
X5643088Y54176937D01*
X5795733Y54342965D01*
X5948686Y54594081D01*
X6049709Y54870211D01*
X6052358Y54885974D01*
X5931217Y55118000D01*
X4572000Y55118000D01*
X4572000Y55098000D01*
X4318000Y55098000D01*
X4318000Y55118000D01*
X4298000Y55118000D01*
X4298000Y55372000D01*
X4318000Y55372000D01*
X4318000Y56585925D01*
X4572000Y56585925D01*
X4572000Y55372000D01*
X5931217Y55372000D01*
X6052358Y55604026D01*
X6049709Y55619789D01*
X5948686Y55895919D01*
X5795733Y56147035D01*
X5596729Y56363486D01*
X5359321Y56536954D01*
X5092633Y56660773D01*
X4806914Y56730185D01*
X4572000Y56585925D01*
X4318000Y56585925D01*
X4083086Y56730185D01*
X3797367Y56660773D01*
X3530679Y56536954D01*
X3293271Y56363486D01*
X3094267Y56147035D01*
X3059781Y56090416D01*
X3059781Y58359396D01*
X8467641Y58359396D01*
X8511982Y58030398D01*
X8619656Y57716371D01*
X8719185Y57530167D01*
X8988727Y57428332D01*
X9980395Y58420000D01*
X8988727Y59411668D01*
X8719185Y59309833D01*
X8573272Y59011646D01*
X8488336Y58690723D01*
X8467641Y58359396D01*
X3059781Y58359396D01*
X3059781Y62752947D01*
X3074506Y62740863D01*
X3184820Y62681898D01*
X3304518Y62645588D01*
X3429000Y62633328D01*
X5461000Y62633328D01*
X5585482Y62645588D01*
X5705180Y62681898D01*
X5815494Y62740863D01*
X5912185Y62820215D01*
X5991537Y62916906D01*
X6050502Y63027220D01*
X6086812Y63146918D01*
X6099072Y63271400D01*
X6099072Y64856061D01*
X7166000Y63789132D01*
G04 #@! TA.AperFunction,Conductor*
D33*
G36*
X7166000Y63789132D02*
G01*
X7166001Y61890028D01*
X7161960Y61849000D01*
X7178082Y61685312D01*
X7225828Y61527914D01*
X7289878Y61408086D01*
X7303365Y61382854D01*
X7407710Y61255709D01*
X7439574Y61229559D01*
X8905559Y59763574D01*
X8931709Y59731709D01*
X9058854Y59627364D01*
X9203913Y59549828D01*
X9212330Y59547275D01*
X10160000Y58599605D01*
X10174143Y58613747D01*
X10353748Y58434142D01*
X10339605Y58420000D01*
X11331273Y57428332D01*
X11600815Y57530167D01*
X11746728Y57828354D01*
X11831664Y58149277D01*
X11852359Y58480604D01*
X11808018Y58809602D01*
X11700344Y59123629D01*
X11695567Y59132566D01*
X14278000Y56550132D01*
X14278000Y54339868D01*
X12176446Y56441421D01*
X12150291Y56473291D01*
X12023146Y56577636D01*
X11878087Y56655172D01*
X11720689Y56702918D01*
X11631130Y56711739D01*
X11469050Y56954310D01*
X11234310Y57189050D01*
X11150323Y57245168D01*
X11151668Y57248727D01*
X10160000Y58240395D01*
X9168332Y57248727D01*
X9169677Y57245168D01*
X9085690Y57189050D01*
X8850950Y56954310D01*
X8666516Y56678284D01*
X8539475Y56371581D01*
X8474710Y56045987D01*
X8474710Y55714013D01*
X8539475Y55388419D01*
X8666516Y55081716D01*
X8769070Y54928232D01*
X8755216Y54920827D01*
X8658525Y54841475D01*
X8579173Y54744784D01*
X8520208Y54634470D01*
X8483898Y54514772D01*
X8471638Y54390290D01*
X8471638Y52289710D01*
X8483898Y52165228D01*
X8520208Y52045530D01*
X8579173Y51935216D01*
X8658525Y51838525D01*
X8755216Y51759173D01*
X8865530Y51700208D01*
X8985228Y51663898D01*
X9109710Y51651638D01*
X11210290Y51651638D01*
X11334772Y51663898D01*
X11454470Y51700208D01*
X11564784Y51759173D01*
X11661475Y51838525D01*
X11740827Y51935216D01*
X11799792Y52045530D01*
X11836102Y52165228D01*
X11848362Y52289710D01*
X11848362Y54390290D01*
X11846452Y54409680D01*
X13262000Y52994132D01*
X13262001Y45507029D01*
X13257960Y45466000D01*
X13274082Y45302312D01*
X13321828Y45144914D01*
X13393177Y45011430D01*
X13399365Y44999854D01*
X13503710Y44872709D01*
X13535574Y44846559D01*
X13645243Y44736890D01*
X13491355Y44767500D01*
X13178645Y44767500D01*
X12871943Y44706493D01*
X12583037Y44586824D01*
X12323028Y44413092D01*
X12319451Y44409515D01*
X12278037Y44486994D01*
X12198685Y44583685D01*
X12101994Y44663037D01*
X11991680Y44722002D01*
X11871982Y44758312D01*
X11747500Y44770572D01*
X10106000Y44770572D01*
X10106000Y46567982D01*
X10110040Y46609000D01*
X10093918Y46772688D01*
X10088606Y46790202D01*
X10046172Y46930087D01*
X9968636Y47075146D01*
X9890439Y47170430D01*
X9890437Y47170432D01*
X9864291Y47202291D01*
X9832433Y47228436D01*
X5772816Y51288051D01*
X5815494Y51310863D01*
X5912185Y51390215D01*
X5991537Y51486906D01*
X6050502Y51597220D01*
X6086812Y51716918D01*
X6099072Y51841400D01*
X6099072Y53568600D01*
X6086812Y53693082D01*
X6050502Y53812780D01*
X5991537Y53923094D01*
X5912185Y54019785D01*
X5815494Y54099137D01*
X5705180Y54158102D01*
X5643088Y54176937D01*
X5795733Y54342965D01*
X5948686Y54594081D01*
X6049709Y54870211D01*
X6052358Y54885974D01*
X5931217Y55118000D01*
X4572000Y55118000D01*
X4572000Y55098000D01*
X4318000Y55098000D01*
X4318000Y55118000D01*
X4298000Y55118000D01*
X4298000Y55372000D01*
X4318000Y55372000D01*
X4318000Y56585925D01*
X4572000Y56585925D01*
X4572000Y55372000D01*
X5931217Y55372000D01*
X6052358Y55604026D01*
X6049709Y55619789D01*
X5948686Y55895919D01*
X5795733Y56147035D01*
X5596729Y56363486D01*
X5359321Y56536954D01*
X5092633Y56660773D01*
X4806914Y56730185D01*
X4572000Y56585925D01*
X4318000Y56585925D01*
X4083086Y56730185D01*
X3797367Y56660773D01*
X3530679Y56536954D01*
X3293271Y56363486D01*
X3094267Y56147035D01*
X3059781Y56090416D01*
X3059781Y58359396D01*
X8467641Y58359396D01*
X8511982Y58030398D01*
X8619656Y57716371D01*
X8719185Y57530167D01*
X8988727Y57428332D01*
X9980395Y58420000D01*
X8988727Y59411668D01*
X8719185Y59309833D01*
X8573272Y59011646D01*
X8488336Y58690723D01*
X8467641Y58359396D01*
X3059781Y58359396D01*
X3059781Y62752947D01*
X3074506Y62740863D01*
X3184820Y62681898D01*
X3304518Y62645588D01*
X3429000Y62633328D01*
X5461000Y62633328D01*
X5585482Y62645588D01*
X5705180Y62681898D01*
X5815494Y62740863D01*
X5912185Y62820215D01*
X5991537Y62916906D01*
X6050502Y63027220D01*
X6086812Y63146918D01*
X6099072Y63271400D01*
X6099072Y64856061D01*
X7166000Y63789132D01*
G37*
G04 #@! TD.AperFunction*
M02*
