G04 #@! TF.GenerationSoftware,KiCad,Pcbnew,(5.1.10)-1*
G04 #@! TF.CreationDate,2021-07-19T17:30:23+01:00*
G04 #@! TF.ProjectId,WildlifeCamera_PCB,57696c64-6c69-4666-9543-616d6572615f,rev?*
G04 #@! TF.SameCoordinates,PX5d42830PY7b89fa0*
G04 #@! TF.FileFunction,Soldermask,Top*
G04 #@! TF.FilePolarity,Negative*
%FSLAX46Y46*%
G04 Gerber Fmt 4.6, Leading zero omitted, Abs format (unit mm)*
G04 Created by KiCad (PCBNEW (5.1.10)-1) date 2021-07-19 17:30:23*
%MOMM*%
%LPD*%
G01*
G04 APERTURE LIST*
%ADD10C,3.334700*%
%ADD11O,2.686000X2.178000*%
%ADD12C,2.599640*%
%ADD13C,2.432000*%
%ADD14C,2.400000*%
%ADD15O,1.600000X3.400000*%
%ADD16C,2.200000*%
%ADD17O,2.432000X2.127200*%
%ADD18C,2.500580*%
%ADD19C,2.305000*%
%ADD20C,2.899360*%
G04 APERTURE END LIST*
D10*
X4857374Y80137000D03*
X39751000Y80137000D03*
X39751000Y5243375D03*
X4857374Y5243375D03*
D11*
X10795000Y12700000D03*
X10795000Y15240000D03*
X10795000Y17780000D03*
X10795000Y20320000D03*
X10795000Y22860000D03*
X10795000Y25400000D03*
X33655000Y25400000D03*
X33655000Y22860000D03*
X33655000Y20320000D03*
X33655000Y17780000D03*
X33655000Y15240000D03*
X33655000Y12700000D03*
X33655000Y10160000D03*
G36*
G01*
X32511999Y8709000D02*
X34798001Y8709000D01*
G75*
G02*
X34998000Y8509001I0J-199999D01*
G01*
X34998000Y6730999D01*
G75*
G02*
X34798001Y6531000I-199999J0D01*
G01*
X32511999Y6531000D01*
G75*
G02*
X32312000Y6730999I0J199999D01*
G01*
X32312000Y8509001D01*
G75*
G02*
X32511999Y8709000I199999J0D01*
G01*
G37*
X10795000Y10160000D03*
X10795000Y7620000D03*
G36*
G01*
X5495290Y33039710D02*
X3394710Y33039710D01*
G75*
G02*
X3194710Y33239710I0J200000D01*
G01*
X3194710Y35340290D01*
G75*
G02*
X3394710Y35540290I200000J0D01*
G01*
X5495290Y35540290D01*
G75*
G02*
X5695290Y35340290I0J-200000D01*
G01*
X5695290Y33239710D01*
G75*
G02*
X5495290Y33039710I-200000J0D01*
G01*
G37*
D12*
X4445000Y36830000D03*
X4445000Y39370000D03*
X4445000Y41910000D03*
X4445000Y44450000D03*
X4445000Y46990000D03*
D13*
X20320000Y37465000D03*
X20320000Y29845000D03*
D14*
X28532620Y79400400D03*
X25525000Y79375000D03*
X31525000Y79375000D03*
D15*
X22225000Y79375000D03*
X34825000Y79375000D03*
D16*
X37465000Y48768000D03*
X37465000Y39370000D03*
G36*
G01*
X32966000Y51181000D02*
X32966000Y49149000D01*
G75*
G02*
X32766000Y48949000I-200000J0D01*
G01*
X30734000Y48949000D01*
G75*
G02*
X30534000Y49149000I0J200000D01*
G01*
X30534000Y51181000D01*
G75*
G02*
X30734000Y51381000I200000J0D01*
G01*
X32766000Y51381000D01*
G75*
G02*
X32966000Y51181000I0J-200000D01*
G01*
G37*
D13*
X29210000Y50165000D03*
G36*
G01*
X5661000Y53568600D02*
X5661000Y51841400D01*
G75*
G02*
X5461000Y51641400I-200000J0D01*
G01*
X3429000Y51641400D01*
G75*
G02*
X3229000Y51841400I0J200000D01*
G01*
X3229000Y53568600D01*
G75*
G02*
X3429000Y53768600I200000J0D01*
G01*
X5461000Y53768600D01*
G75*
G02*
X5661000Y53568600I0J-200000D01*
G01*
G37*
D17*
X4445000Y55245000D03*
D13*
X23495000Y37465000D03*
X23495000Y29845000D03*
X40640000Y51435000D03*
X35560000Y51435000D03*
X40640000Y59055000D03*
X35560000Y59055000D03*
X24130000Y69850000D03*
G36*
G01*
X23114000Y73606000D02*
X25146000Y73606000D01*
G75*
G02*
X25346000Y73406000I0J-200000D01*
G01*
X25346000Y71374000D01*
G75*
G02*
X25146000Y71174000I-200000J0D01*
G01*
X23114000Y71174000D01*
G75*
G02*
X22914000Y71374000I0J200000D01*
G01*
X22914000Y73406000D01*
G75*
G02*
X23114000Y73606000I200000J0D01*
G01*
G37*
G36*
G01*
X25146000Y61649000D02*
X23114000Y61649000D01*
G75*
G02*
X22914000Y61849000I0J200000D01*
G01*
X22914000Y63881000D01*
G75*
G02*
X23114000Y64081000I200000J0D01*
G01*
X25146000Y64081000D01*
G75*
G02*
X25346000Y63881000I0J-200000D01*
G01*
X25346000Y61849000D01*
G75*
G02*
X25146000Y61649000I-200000J0D01*
G01*
G37*
X24130000Y65405000D03*
D18*
X29845000Y68580000D03*
X29845000Y71120000D03*
G36*
G01*
X28594710Y64989710D02*
X28594710Y67090290D01*
G75*
G02*
X28794710Y67290290I200000J0D01*
G01*
X30895290Y67290290D01*
G75*
G02*
X31095290Y67090290I0J-200000D01*
G01*
X31095290Y64989710D01*
G75*
G02*
X30895290Y64789710I-200000J0D01*
G01*
X28794710Y64789710D01*
G75*
G02*
X28594710Y64989710I0J200000D01*
G01*
G37*
D13*
X3810000Y27305000D03*
G36*
G01*
X7566000Y28321000D02*
X7566000Y26289000D01*
G75*
G02*
X7366000Y26089000I-200000J0D01*
G01*
X5334000Y26089000D01*
G75*
G02*
X5134000Y26289000I0J200000D01*
G01*
X5134000Y28321000D01*
G75*
G02*
X5334000Y28521000I200000J0D01*
G01*
X7366000Y28521000D01*
G75*
G02*
X7566000Y28321000I0J-200000D01*
G01*
G37*
G36*
G01*
X7566000Y14986000D02*
X7566000Y12954000D01*
G75*
G02*
X7366000Y12754000I-200000J0D01*
G01*
X5334000Y12754000D01*
G75*
G02*
X5134000Y12954000I0J200000D01*
G01*
X5134000Y14986000D01*
G75*
G02*
X5334000Y15186000I200000J0D01*
G01*
X7366000Y15186000D01*
G75*
G02*
X7566000Y14986000I0J-200000D01*
G01*
G37*
X3810000Y13970000D03*
X40640000Y27305000D03*
G36*
G01*
X36884000Y26289000D02*
X36884000Y28321000D01*
G75*
G02*
X37084000Y28521000I200000J0D01*
G01*
X39116000Y28521000D01*
G75*
G02*
X39316000Y28321000I0J-200000D01*
G01*
X39316000Y26289000D01*
G75*
G02*
X39116000Y26089000I-200000J0D01*
G01*
X37084000Y26089000D01*
G75*
G02*
X36884000Y26289000I0J200000D01*
G01*
G37*
G36*
G01*
X36884000Y12954000D02*
X36884000Y14986000D01*
G75*
G02*
X37084000Y15186000I200000J0D01*
G01*
X39116000Y15186000D01*
G75*
G02*
X39316000Y14986000I0J-200000D01*
G01*
X39316000Y12954000D01*
G75*
G02*
X39116000Y12754000I-200000J0D01*
G01*
X37084000Y12754000D01*
G75*
G02*
X36884000Y12954000I0J200000D01*
G01*
G37*
X40640000Y13970000D03*
X18415000Y19685000D03*
X26035000Y19685000D03*
X26035000Y16510000D03*
X18415000Y16510000D03*
X18415000Y13335000D03*
X26035000Y13335000D03*
X26035000Y10160000D03*
X18415000Y10160000D03*
G36*
G01*
X5661000Y64998600D02*
X5661000Y63271400D01*
G75*
G02*
X5461000Y63071400I-200000J0D01*
G01*
X3429000Y63071400D01*
G75*
G02*
X3229000Y63271400I0J200000D01*
G01*
X3229000Y64998600D01*
G75*
G02*
X3429000Y65198600I200000J0D01*
G01*
X5461000Y65198600D01*
G75*
G02*
X5661000Y64998600I0J-200000D01*
G01*
G37*
D17*
X4445000Y66675000D03*
X4445000Y69215000D03*
X4445000Y71755000D03*
X4445000Y74295000D03*
D18*
X10160000Y58420000D03*
X10160000Y55880000D03*
G36*
G01*
X8909710Y52289710D02*
X8909710Y54390290D01*
G75*
G02*
X9109710Y54590290I200000J0D01*
G01*
X11210290Y54590290D01*
G75*
G02*
X11410290Y54390290I0J-200000D01*
G01*
X11410290Y52289710D01*
G75*
G02*
X11210290Y52089710I-200000J0D01*
G01*
X9109710Y52089710D01*
G75*
G02*
X8909710Y52289710I0J200000D01*
G01*
G37*
D13*
X10795000Y37465000D03*
X10795000Y29845000D03*
X13970000Y37465000D03*
X13970000Y29845000D03*
X28575000Y29845000D03*
X28575000Y37465000D03*
X31750000Y29845000D03*
X31750000Y37465000D03*
X10795000Y71755000D03*
X10795000Y64135000D03*
X14605000Y64135000D03*
X14605000Y71755000D03*
G36*
G01*
X18469000Y52959000D02*
X18469000Y54991000D01*
G75*
G02*
X18669000Y55191000I200000J0D01*
G01*
X20701000Y55191000D01*
G75*
G02*
X20901000Y54991000I0J-200000D01*
G01*
X20901000Y52959000D01*
G75*
G02*
X20701000Y52759000I-200000J0D01*
G01*
X18669000Y52759000D01*
G75*
G02*
X18469000Y52959000I0J200000D01*
G01*
G37*
X22225000Y53975000D03*
X24765000Y53975000D03*
D19*
X13335000Y40640000D03*
X13335000Y43180000D03*
G36*
G01*
X9842500Y44332500D02*
X11747500Y44332500D01*
G75*
G02*
X11947500Y44132500I0J-200000D01*
G01*
X11947500Y42227500D01*
G75*
G02*
X11747500Y42027500I-200000J0D01*
G01*
X9842500Y42027500D01*
G75*
G02*
X9642500Y42227500I0J200000D01*
G01*
X9642500Y44132500D01*
G75*
G02*
X9842500Y44332500I200000J0D01*
G01*
G37*
G36*
G01*
X26987500Y44332500D02*
X28892500Y44332500D01*
G75*
G02*
X29092500Y44132500I0J-200000D01*
G01*
X29092500Y42227500D01*
G75*
G02*
X28892500Y42027500I-200000J0D01*
G01*
X26987500Y42027500D01*
G75*
G02*
X26787500Y42227500I0J200000D01*
G01*
X26787500Y44132500D01*
G75*
G02*
X26987500Y44332500I200000J0D01*
G01*
G37*
X30480000Y43180000D03*
X30480000Y40640000D03*
G36*
G01*
X38841681Y63066320D02*
X36342319Y63066320D01*
G75*
G02*
X36142320Y63266319I0J199999D01*
G01*
X36142320Y65765681D01*
G75*
G02*
X36342319Y65965680I199999J0D01*
G01*
X38841681Y65965680D01*
G75*
G02*
X39041680Y65765681I0J-199999D01*
G01*
X39041680Y63266319D01*
G75*
G02*
X38841681Y63066320I-199999J0D01*
G01*
G37*
D20*
X37592000Y69596000D03*
G36*
G01*
X41656000Y41964000D02*
X39624000Y41964000D01*
G75*
G02*
X39424000Y42164000I0J200000D01*
G01*
X39424000Y44196000D01*
G75*
G02*
X39624000Y44396000I200000J0D01*
G01*
X41656000Y44396000D01*
G75*
G02*
X41856000Y44196000I0J-200000D01*
G01*
X41856000Y42164000D01*
G75*
G02*
X41656000Y41964000I-200000J0D01*
G01*
G37*
D13*
X40640000Y45720000D03*
X40640000Y48260000D03*
M02*
