G04 #@! TF.GenerationSoftware,KiCad,Pcbnew,(5.1.12)-1*
G04 #@! TF.CreationDate,2022-01-04T12:12:18+00:00*
G04 #@! TF.ProjectId,Lapse_O_Matic_PCB,4c617073-655f-44f5-9f4d-617469635f50,rev?*
G04 #@! TF.SameCoordinates,Original*
G04 #@! TF.FileFunction,Legend,Bot*
G04 #@! TF.FilePolarity,Positive*
%FSLAX46Y46*%
G04 Gerber Fmt 4.6, Leading zero omitted, Abs format (unit mm)*
G04 Created by KiCad (PCBNEW (5.1.12)-1) date 2022-01-04 12:12:18*
%MOMM*%
%LPD*%
G01*
G04 APERTURE LIST*
%ADD10C,0.300000*%
%ADD11C,0.010000*%
%ADD12C,0.150000*%
%ADD13C,0.200000*%
G04 APERTURE END LIST*
D10*
X142180428Y-106852857D02*
X141180428Y-106567142D01*
X141894714Y-106281428D01*
X141180428Y-105995714D01*
X142180428Y-105710000D01*
X142180428Y-105281428D02*
X141180428Y-104995714D01*
X141894714Y-104710000D01*
X141180428Y-104424285D01*
X142180428Y-104138571D01*
X142180428Y-103710000D02*
X141180428Y-103424285D01*
X141894714Y-103138571D01*
X141180428Y-102852857D01*
X142180428Y-102567142D01*
X141323285Y-101995714D02*
X141251857Y-101924285D01*
X141180428Y-101995714D01*
X141251857Y-102067142D01*
X141323285Y-101995714D01*
X141180428Y-101995714D01*
X141251857Y-100638571D02*
X141180428Y-100781428D01*
X141180428Y-101067142D01*
X141251857Y-101210000D01*
X141323285Y-101281428D01*
X141466142Y-101352857D01*
X141894714Y-101352857D01*
X142037571Y-101281428D01*
X142109000Y-101210000D01*
X142180428Y-101067142D01*
X142180428Y-100781428D01*
X142109000Y-100638571D01*
X142180428Y-99352857D02*
X141180428Y-99352857D01*
X142180428Y-99995714D02*
X141394714Y-99995714D01*
X141251857Y-99924285D01*
X141180428Y-99781428D01*
X141180428Y-99567142D01*
X141251857Y-99424285D01*
X141323285Y-99352857D01*
X141180428Y-98638571D02*
X142180428Y-98638571D01*
X141894714Y-98638571D02*
X142037571Y-98567142D01*
X142109000Y-98495714D01*
X142180428Y-98352857D01*
X142180428Y-98210000D01*
X141180428Y-97710000D02*
X142180428Y-97710000D01*
X142680428Y-97710000D02*
X142609000Y-97781428D01*
X142537571Y-97710000D01*
X142609000Y-97638571D01*
X142680428Y-97710000D01*
X142537571Y-97710000D01*
X141180428Y-96781428D02*
X141251857Y-96924285D01*
X141323285Y-96995714D01*
X141466142Y-97067142D01*
X141894714Y-97067142D01*
X142037571Y-96995714D01*
X142109000Y-96924285D01*
X142180428Y-96781428D01*
X142180428Y-96567142D01*
X142109000Y-96424285D01*
X142037571Y-96352857D01*
X141894714Y-96281428D01*
X141466142Y-96281428D01*
X141323285Y-96352857D01*
X141251857Y-96424285D01*
X141180428Y-96567142D01*
X141180428Y-96781428D01*
X142180428Y-94995714D02*
X141180428Y-94995714D01*
X142180428Y-95638571D02*
X141394714Y-95638571D01*
X141251857Y-95567142D01*
X141180428Y-95424285D01*
X141180428Y-95210000D01*
X141251857Y-95067142D01*
X141323285Y-94995714D01*
X141251857Y-94352857D02*
X141180428Y-94210000D01*
X141180428Y-93924285D01*
X141251857Y-93781428D01*
X141394714Y-93710000D01*
X141466142Y-93710000D01*
X141609000Y-93781428D01*
X141680428Y-93924285D01*
X141680428Y-94138571D01*
X141751857Y-94281428D01*
X141894714Y-94352857D01*
X141966142Y-94352857D01*
X142109000Y-94281428D01*
X142180428Y-94138571D01*
X142180428Y-93924285D01*
X142109000Y-93781428D01*
X141251857Y-92495714D02*
X141180428Y-92638571D01*
X141180428Y-92924285D01*
X141251857Y-93067142D01*
X141394714Y-93138571D01*
X141966142Y-93138571D01*
X142109000Y-93067142D01*
X142180428Y-92924285D01*
X142180428Y-92638571D01*
X142109000Y-92495714D01*
X141966142Y-92424285D01*
X141823285Y-92424285D01*
X141680428Y-93138571D01*
X141180428Y-91567142D02*
X141251857Y-91710000D01*
X141394714Y-91781428D01*
X142680428Y-91781428D01*
X141251857Y-90424285D02*
X141180428Y-90567142D01*
X141180428Y-90852857D01*
X141251857Y-90995714D01*
X141394714Y-91067142D01*
X141966142Y-91067142D01*
X142109000Y-90995714D01*
X142180428Y-90852857D01*
X142180428Y-90567142D01*
X142109000Y-90424285D01*
X141966142Y-90352857D01*
X141823285Y-90352857D01*
X141680428Y-91067142D01*
X141251857Y-89067142D02*
X141180428Y-89210000D01*
X141180428Y-89495714D01*
X141251857Y-89638571D01*
X141323285Y-89710000D01*
X141466142Y-89781428D01*
X141894714Y-89781428D01*
X142037571Y-89710000D01*
X142109000Y-89638571D01*
X142180428Y-89495714D01*
X142180428Y-89210000D01*
X142109000Y-89067142D01*
X142180428Y-88638571D02*
X142180428Y-88067142D01*
X142680428Y-88424285D02*
X141394714Y-88424285D01*
X141251857Y-88352857D01*
X141180428Y-88210000D01*
X141180428Y-88067142D01*
X141180428Y-87567142D02*
X142180428Y-87567142D01*
X141894714Y-87567142D02*
X142037571Y-87495714D01*
X142109000Y-87424285D01*
X142180428Y-87281428D01*
X142180428Y-87138571D01*
X141180428Y-86638571D02*
X142180428Y-86638571D01*
X142680428Y-86638571D02*
X142609000Y-86710000D01*
X142537571Y-86638571D01*
X142609000Y-86567142D01*
X142680428Y-86638571D01*
X142537571Y-86638571D01*
X141251857Y-85281428D02*
X141180428Y-85424285D01*
X141180428Y-85710000D01*
X141251857Y-85852857D01*
X141323285Y-85924285D01*
X141466142Y-85995714D01*
X141894714Y-85995714D01*
X142037571Y-85924285D01*
X142109000Y-85852857D01*
X142180428Y-85710000D01*
X142180428Y-85424285D01*
X142109000Y-85281428D01*
X141323285Y-84638571D02*
X141251857Y-84567142D01*
X141180428Y-84638571D01*
X141251857Y-84710000D01*
X141323285Y-84638571D01*
X141180428Y-84638571D01*
X141251857Y-83281428D02*
X141180428Y-83424285D01*
X141180428Y-83710000D01*
X141251857Y-83852857D01*
X141323285Y-83924285D01*
X141466142Y-83995714D01*
X141894714Y-83995714D01*
X142037571Y-83924285D01*
X142109000Y-83852857D01*
X142180428Y-83710000D01*
X142180428Y-83424285D01*
X142109000Y-83281428D01*
X141180428Y-82424285D02*
X141251857Y-82567142D01*
X141323285Y-82638571D01*
X141466142Y-82710000D01*
X141894714Y-82710000D01*
X142037571Y-82638571D01*
X142109000Y-82567142D01*
X142180428Y-82424285D01*
X142180428Y-82210000D01*
X142109000Y-82067142D01*
X142037571Y-81995714D01*
X141894714Y-81924285D01*
X141466142Y-81924285D01*
X141323285Y-81995714D01*
X141251857Y-82067142D01*
X141180428Y-82210000D01*
X141180428Y-82424285D01*
X141323285Y-81281428D02*
X141251857Y-81210000D01*
X141180428Y-81281428D01*
X141251857Y-81352857D01*
X141323285Y-81281428D01*
X141180428Y-81281428D01*
X142180428Y-79924285D02*
X141180428Y-79924285D01*
X142180428Y-80567142D02*
X141394714Y-80567142D01*
X141251857Y-80495714D01*
X141180428Y-80352857D01*
X141180428Y-80138571D01*
X141251857Y-79995714D01*
X141323285Y-79924285D01*
X141180428Y-79210000D02*
X142680428Y-79210000D01*
X141751857Y-79067142D02*
X141180428Y-78638571D01*
X142180428Y-78638571D02*
X141609000Y-79210000D01*
D11*
G36*
X157284209Y-69726836D02*
G01*
X157131043Y-69729172D01*
X157013828Y-69731681D01*
X156926189Y-69735063D01*
X156861746Y-69740014D01*
X156814121Y-69747235D01*
X156776938Y-69757423D01*
X156743817Y-69771277D01*
X156708381Y-69789495D01*
X156707417Y-69790009D01*
X156586008Y-69873224D01*
X156474154Y-69983637D01*
X156386504Y-70106419D01*
X156376256Y-70125166D01*
X156363038Y-70151229D01*
X156352392Y-70176738D01*
X156344039Y-70206359D01*
X156337701Y-70244760D01*
X156333101Y-70296607D01*
X156329959Y-70366568D01*
X156327999Y-70459310D01*
X156326940Y-70579499D01*
X156326506Y-70731804D01*
X156326418Y-70920890D01*
X156326417Y-70961250D01*
X156326486Y-71158011D01*
X156326869Y-71317081D01*
X156327833Y-71443102D01*
X156329647Y-71540717D01*
X156332576Y-71614567D01*
X156336889Y-71669295D01*
X156342851Y-71709543D01*
X156350730Y-71739954D01*
X156360793Y-71765169D01*
X156373307Y-71789831D01*
X156374172Y-71791453D01*
X156419962Y-71866017D01*
X156473987Y-71939504D01*
X156486915Y-71954839D01*
X156561003Y-72019475D01*
X156662849Y-72082360D01*
X156778207Y-72136465D01*
X156892831Y-72174761D01*
X156958710Y-72187662D01*
X157077834Y-72202546D01*
X157077834Y-72834500D01*
X157374837Y-72834500D01*
X157369210Y-72247125D01*
X157363584Y-71659750D01*
X157120167Y-71648857D01*
X157002690Y-71642340D01*
X156917774Y-71632910D01*
X156855647Y-71617349D01*
X156806538Y-71592444D01*
X156760677Y-71554979D01*
X156724365Y-71518612D01*
X156685233Y-71475672D01*
X156654591Y-71434098D01*
X156631410Y-71388160D01*
X156614666Y-71332131D01*
X156603331Y-71260281D01*
X156596380Y-71166883D01*
X156592787Y-71046206D01*
X156591526Y-70892524D01*
X156591465Y-70776721D01*
X156591908Y-70612785D01*
X156593169Y-70485310D01*
X156595643Y-70388424D01*
X156599727Y-70316256D01*
X156605817Y-70262937D01*
X156614310Y-70222594D01*
X156625601Y-70189357D01*
X156632137Y-70174191D01*
X156684488Y-70090352D01*
X156758685Y-70026310D01*
X156858840Y-69980480D01*
X156989063Y-69951279D01*
X157153465Y-69937122D01*
X157252459Y-69935184D01*
X157480000Y-69934666D01*
X157480000Y-72834500D01*
X157755167Y-72834500D01*
X157755167Y-69720090D01*
X157284209Y-69726836D01*
G37*
X157284209Y-69726836D02*
X157131043Y-69729172D01*
X157013828Y-69731681D01*
X156926189Y-69735063D01*
X156861746Y-69740014D01*
X156814121Y-69747235D01*
X156776938Y-69757423D01*
X156743817Y-69771277D01*
X156708381Y-69789495D01*
X156707417Y-69790009D01*
X156586008Y-69873224D01*
X156474154Y-69983637D01*
X156386504Y-70106419D01*
X156376256Y-70125166D01*
X156363038Y-70151229D01*
X156352392Y-70176738D01*
X156344039Y-70206359D01*
X156337701Y-70244760D01*
X156333101Y-70296607D01*
X156329959Y-70366568D01*
X156327999Y-70459310D01*
X156326940Y-70579499D01*
X156326506Y-70731804D01*
X156326418Y-70920890D01*
X156326417Y-70961250D01*
X156326486Y-71158011D01*
X156326869Y-71317081D01*
X156327833Y-71443102D01*
X156329647Y-71540717D01*
X156332576Y-71614567D01*
X156336889Y-71669295D01*
X156342851Y-71709543D01*
X156350730Y-71739954D01*
X156360793Y-71765169D01*
X156373307Y-71789831D01*
X156374172Y-71791453D01*
X156419962Y-71866017D01*
X156473987Y-71939504D01*
X156486915Y-71954839D01*
X156561003Y-72019475D01*
X156662849Y-72082360D01*
X156778207Y-72136465D01*
X156892831Y-72174761D01*
X156958710Y-72187662D01*
X157077834Y-72202546D01*
X157077834Y-72834500D01*
X157374837Y-72834500D01*
X157369210Y-72247125D01*
X157363584Y-71659750D01*
X157120167Y-71648857D01*
X157002690Y-71642340D01*
X156917774Y-71632910D01*
X156855647Y-71617349D01*
X156806538Y-71592444D01*
X156760677Y-71554979D01*
X156724365Y-71518612D01*
X156685233Y-71475672D01*
X156654591Y-71434098D01*
X156631410Y-71388160D01*
X156614666Y-71332131D01*
X156603331Y-71260281D01*
X156596380Y-71166883D01*
X156592787Y-71046206D01*
X156591526Y-70892524D01*
X156591465Y-70776721D01*
X156591908Y-70612785D01*
X156593169Y-70485310D01*
X156595643Y-70388424D01*
X156599727Y-70316256D01*
X156605817Y-70262937D01*
X156614310Y-70222594D01*
X156625601Y-70189357D01*
X156632137Y-70174191D01*
X156684488Y-70090352D01*
X156758685Y-70026310D01*
X156858840Y-69980480D01*
X156989063Y-69951279D01*
X157153465Y-69937122D01*
X157252459Y-69935184D01*
X157480000Y-69934666D01*
X157480000Y-72834500D01*
X157755167Y-72834500D01*
X157755167Y-69720090D01*
X157284209Y-69726836D01*
G36*
X160104667Y-72199500D02*
G01*
X160401000Y-72199500D01*
X160401000Y-69066833D01*
X160104667Y-69066833D01*
X160104667Y-72199500D01*
G37*
X160104667Y-72199500D02*
X160401000Y-72199500D01*
X160401000Y-69066833D01*
X160104667Y-69066833D01*
X160104667Y-72199500D01*
G36*
X159723667Y-72199500D02*
G01*
X159998834Y-72199500D01*
X159998834Y-69066833D01*
X159723667Y-69066833D01*
X159723667Y-72199500D01*
G37*
X159723667Y-72199500D02*
X159998834Y-72199500D01*
X159998834Y-69066833D01*
X159723667Y-69066833D01*
X159723667Y-72199500D01*
G36*
X158864893Y-69723409D02*
G01*
X158749680Y-69725011D01*
X158662683Y-69728361D01*
X158596845Y-69734018D01*
X158545111Y-69742538D01*
X158500423Y-69754479D01*
X158466351Y-69766365D01*
X158339213Y-69833845D01*
X158221600Y-69933460D01*
X158124184Y-70055026D01*
X158079173Y-70135750D01*
X158019750Y-70262750D01*
X158007180Y-72199500D01*
X158415632Y-72197373D01*
X158548660Y-72195738D01*
X158672250Y-72192472D01*
X158778162Y-72187928D01*
X158858157Y-72182460D01*
X158903788Y-72176469D01*
X159046630Y-72123466D01*
X159179637Y-72038011D01*
X159293431Y-71928204D01*
X159378632Y-71802150D01*
X159404555Y-71743866D01*
X159421597Y-71692921D01*
X159433654Y-71640250D01*
X159441540Y-71577281D01*
X159446071Y-71495443D01*
X159448063Y-71386165D01*
X159448382Y-71283247D01*
X159447018Y-71160505D01*
X159443330Y-71046887D01*
X159437800Y-70951723D01*
X159430911Y-70884343D01*
X159426646Y-70862246D01*
X159367713Y-70726359D01*
X159273622Y-70605363D01*
X159150262Y-70503795D01*
X159003522Y-70426195D01*
X158839291Y-70377100D01*
X158785765Y-70368381D01*
X158724531Y-70357961D01*
X158695696Y-70343775D01*
X158689392Y-70319659D01*
X158690515Y-70308886D01*
X158694292Y-70292371D01*
X158704154Y-70280240D01*
X158726002Y-70271692D01*
X158765737Y-70265926D01*
X158829261Y-70262140D01*
X158922474Y-70259532D01*
X159051279Y-70257302D01*
X159072792Y-70256969D01*
X159448500Y-70251189D01*
X159448500Y-70040500D01*
X159041042Y-70040579D01*
X158897541Y-70040976D01*
X158789813Y-70042486D01*
X158711302Y-70045677D01*
X158655453Y-70051121D01*
X158615709Y-70059388D01*
X158585514Y-70071047D01*
X158565942Y-70081901D01*
X158502157Y-70130364D01*
X158458960Y-70190059D01*
X158431603Y-70270849D01*
X158415338Y-70382598D01*
X158413992Y-70397561D01*
X158399576Y-70565305D01*
X158624436Y-70573002D01*
X158727975Y-70577485D01*
X158800757Y-70584216D01*
X158854359Y-70595721D01*
X158900357Y-70614528D01*
X158950326Y-70643163D01*
X158952782Y-70644679D01*
X159057734Y-70733533D01*
X159131733Y-70849900D01*
X159173395Y-70990996D01*
X159182589Y-71106266D01*
X159174102Y-71245473D01*
X159145279Y-71357422D01*
X159092199Y-71453876D01*
X159049071Y-71507002D01*
X158996386Y-71560388D01*
X158944186Y-71598647D01*
X158884071Y-71624217D01*
X158807637Y-71639534D01*
X158706484Y-71647035D01*
X158572208Y-71649156D01*
X158558869Y-71649166D01*
X158281711Y-71649166D01*
X158294917Y-70262750D01*
X158354296Y-70161734D01*
X158406545Y-70090574D01*
X158471082Y-70025707D01*
X158500838Y-70002984D01*
X158531238Y-69983500D01*
X158559787Y-69968888D01*
X158593014Y-69958338D01*
X158637445Y-69951040D01*
X158699609Y-69946182D01*
X158786033Y-69942954D01*
X158903245Y-69940547D01*
X159018251Y-69938747D01*
X159448500Y-69932245D01*
X159448500Y-69723000D01*
X159015378Y-69723000D01*
X158864893Y-69723409D01*
G37*
X158864893Y-69723409D02*
X158749680Y-69725011D01*
X158662683Y-69728361D01*
X158596845Y-69734018D01*
X158545111Y-69742538D01*
X158500423Y-69754479D01*
X158466351Y-69766365D01*
X158339213Y-69833845D01*
X158221600Y-69933460D01*
X158124184Y-70055026D01*
X158079173Y-70135750D01*
X158019750Y-70262750D01*
X158007180Y-72199500D01*
X158415632Y-72197373D01*
X158548660Y-72195738D01*
X158672250Y-72192472D01*
X158778162Y-72187928D01*
X158858157Y-72182460D01*
X158903788Y-72176469D01*
X159046630Y-72123466D01*
X159179637Y-72038011D01*
X159293431Y-71928204D01*
X159378632Y-71802150D01*
X159404555Y-71743866D01*
X159421597Y-71692921D01*
X159433654Y-71640250D01*
X159441540Y-71577281D01*
X159446071Y-71495443D01*
X159448063Y-71386165D01*
X159448382Y-71283247D01*
X159447018Y-71160505D01*
X159443330Y-71046887D01*
X159437800Y-70951723D01*
X159430911Y-70884343D01*
X159426646Y-70862246D01*
X159367713Y-70726359D01*
X159273622Y-70605363D01*
X159150262Y-70503795D01*
X159003522Y-70426195D01*
X158839291Y-70377100D01*
X158785765Y-70368381D01*
X158724531Y-70357961D01*
X158695696Y-70343775D01*
X158689392Y-70319659D01*
X158690515Y-70308886D01*
X158694292Y-70292371D01*
X158704154Y-70280240D01*
X158726002Y-70271692D01*
X158765737Y-70265926D01*
X158829261Y-70262140D01*
X158922474Y-70259532D01*
X159051279Y-70257302D01*
X159072792Y-70256969D01*
X159448500Y-70251189D01*
X159448500Y-70040500D01*
X159041042Y-70040579D01*
X158897541Y-70040976D01*
X158789813Y-70042486D01*
X158711302Y-70045677D01*
X158655453Y-70051121D01*
X158615709Y-70059388D01*
X158585514Y-70071047D01*
X158565942Y-70081901D01*
X158502157Y-70130364D01*
X158458960Y-70190059D01*
X158431603Y-70270849D01*
X158415338Y-70382598D01*
X158413992Y-70397561D01*
X158399576Y-70565305D01*
X158624436Y-70573002D01*
X158727975Y-70577485D01*
X158800757Y-70584216D01*
X158854359Y-70595721D01*
X158900357Y-70614528D01*
X158950326Y-70643163D01*
X158952782Y-70644679D01*
X159057734Y-70733533D01*
X159131733Y-70849900D01*
X159173395Y-70990996D01*
X159182589Y-71106266D01*
X159174102Y-71245473D01*
X159145279Y-71357422D01*
X159092199Y-71453876D01*
X159049071Y-71507002D01*
X158996386Y-71560388D01*
X158944186Y-71598647D01*
X158884071Y-71624217D01*
X158807637Y-71639534D01*
X158706484Y-71647035D01*
X158572208Y-71649156D01*
X158558869Y-71649166D01*
X158281711Y-71649166D01*
X158294917Y-70262750D01*
X158354296Y-70161734D01*
X158406545Y-70090574D01*
X158471082Y-70025707D01*
X158500838Y-70002984D01*
X158531238Y-69983500D01*
X158559787Y-69968888D01*
X158593014Y-69958338D01*
X158637445Y-69951040D01*
X158699609Y-69946182D01*
X158786033Y-69942954D01*
X158903245Y-69940547D01*
X159018251Y-69938747D01*
X159448500Y-69932245D01*
X159448500Y-69723000D01*
X159015378Y-69723000D01*
X158864893Y-69723409D01*
G36*
X154664834Y-70252166D02*
G01*
X155032659Y-70252166D01*
X155177669Y-70253066D01*
X155284815Y-70255972D01*
X155358530Y-70261192D01*
X155403250Y-70269036D01*
X155423031Y-70279334D01*
X155436391Y-70314147D01*
X155410823Y-70341050D01*
X155345106Y-70360923D01*
X155299834Y-70368108D01*
X155213145Y-70384803D01*
X155126698Y-70409676D01*
X155093443Y-70422403D01*
X154998368Y-70478487D01*
X154899592Y-70561092D01*
X154809750Y-70657684D01*
X154741478Y-70755731D01*
X154725210Y-70787645D01*
X154707289Y-70829991D01*
X154694260Y-70870903D01*
X154685348Y-70918001D01*
X154679782Y-70978905D01*
X154676788Y-71061235D01*
X154675595Y-71172610D01*
X154675417Y-71278750D01*
X154675773Y-71416657D01*
X154677354Y-71519854D01*
X154680934Y-71595959D01*
X154687285Y-71652594D01*
X154697179Y-71697378D01*
X154711390Y-71737932D01*
X154725210Y-71769854D01*
X154785659Y-71869213D01*
X154873507Y-71970712D01*
X154976327Y-72062134D01*
X155081695Y-72131264D01*
X155104026Y-72142287D01*
X155141157Y-72157891D01*
X155180047Y-72169753D01*
X155227318Y-72178517D01*
X155289589Y-72184828D01*
X155373481Y-72189330D01*
X155485614Y-72192666D01*
X155632609Y-72195482D01*
X155654375Y-72195839D01*
X156104167Y-72203137D01*
X156104167Y-71649166D01*
X155689324Y-71649166D01*
X155529835Y-71648471D01*
X155406123Y-71645356D01*
X155311638Y-71638276D01*
X155239834Y-71625687D01*
X155184162Y-71606044D01*
X155138074Y-71577803D01*
X155095023Y-71539419D01*
X155058323Y-71500322D01*
X154998058Y-71417462D01*
X154960714Y-71322923D01*
X154942925Y-71205861D01*
X154940237Y-71120000D01*
X154947636Y-70985746D01*
X154972290Y-70880024D01*
X155017883Y-70791265D01*
X155063117Y-70734266D01*
X155130704Y-70669519D01*
X155203512Y-70624577D01*
X155293783Y-70593796D01*
X155413758Y-70571532D01*
X155417165Y-70571047D01*
X155498489Y-70555454D01*
X155569804Y-70534750D01*
X155610150Y-70516468D01*
X155671587Y-70452973D01*
X155705766Y-70368858D01*
X155711122Y-70277146D01*
X155686092Y-70190860D01*
X155654657Y-70145832D01*
X155618054Y-70111365D01*
X155576787Y-70085219D01*
X155524678Y-70066286D01*
X155455550Y-70053457D01*
X155363224Y-70045623D01*
X155241522Y-70041676D01*
X155084266Y-70040506D01*
X155067680Y-70040500D01*
X154664834Y-70040500D01*
X154664834Y-70252166D01*
G37*
X154664834Y-70252166D02*
X155032659Y-70252166D01*
X155177669Y-70253066D01*
X155284815Y-70255972D01*
X155358530Y-70261192D01*
X155403250Y-70269036D01*
X155423031Y-70279334D01*
X155436391Y-70314147D01*
X155410823Y-70341050D01*
X155345106Y-70360923D01*
X155299834Y-70368108D01*
X155213145Y-70384803D01*
X155126698Y-70409676D01*
X155093443Y-70422403D01*
X154998368Y-70478487D01*
X154899592Y-70561092D01*
X154809750Y-70657684D01*
X154741478Y-70755731D01*
X154725210Y-70787645D01*
X154707289Y-70829991D01*
X154694260Y-70870903D01*
X154685348Y-70918001D01*
X154679782Y-70978905D01*
X154676788Y-71061235D01*
X154675595Y-71172610D01*
X154675417Y-71278750D01*
X154675773Y-71416657D01*
X154677354Y-71519854D01*
X154680934Y-71595959D01*
X154687285Y-71652594D01*
X154697179Y-71697378D01*
X154711390Y-71737932D01*
X154725210Y-71769854D01*
X154785659Y-71869213D01*
X154873507Y-71970712D01*
X154976327Y-72062134D01*
X155081695Y-72131264D01*
X155104026Y-72142287D01*
X155141157Y-72157891D01*
X155180047Y-72169753D01*
X155227318Y-72178517D01*
X155289589Y-72184828D01*
X155373481Y-72189330D01*
X155485614Y-72192666D01*
X155632609Y-72195482D01*
X155654375Y-72195839D01*
X156104167Y-72203137D01*
X156104167Y-71649166D01*
X155689324Y-71649166D01*
X155529835Y-71648471D01*
X155406123Y-71645356D01*
X155311638Y-71638276D01*
X155239834Y-71625687D01*
X155184162Y-71606044D01*
X155138074Y-71577803D01*
X155095023Y-71539419D01*
X155058323Y-71500322D01*
X154998058Y-71417462D01*
X154960714Y-71322923D01*
X154942925Y-71205861D01*
X154940237Y-71120000D01*
X154947636Y-70985746D01*
X154972290Y-70880024D01*
X155017883Y-70791265D01*
X155063117Y-70734266D01*
X155130704Y-70669519D01*
X155203512Y-70624577D01*
X155293783Y-70593796D01*
X155413758Y-70571532D01*
X155417165Y-70571047D01*
X155498489Y-70555454D01*
X155569804Y-70534750D01*
X155610150Y-70516468D01*
X155671587Y-70452973D01*
X155705766Y-70368858D01*
X155711122Y-70277146D01*
X155686092Y-70190860D01*
X155654657Y-70145832D01*
X155618054Y-70111365D01*
X155576787Y-70085219D01*
X155524678Y-70066286D01*
X155455550Y-70053457D01*
X155363224Y-70045623D01*
X155241522Y-70041676D01*
X155084266Y-70040506D01*
X155067680Y-70040500D01*
X154664834Y-70040500D01*
X154664834Y-70252166D01*
G36*
X153611659Y-69713785D02*
G01*
X153531126Y-69718975D01*
X153469765Y-69729614D01*
X153416025Y-69747327D01*
X153387859Y-69759595D01*
X153237457Y-69847432D01*
X153119278Y-69956055D01*
X153061179Y-70037208D01*
X153029629Y-70097672D01*
X153012058Y-70154842D01*
X153004744Y-70225391D01*
X153003741Y-70294500D01*
X153015706Y-70433978D01*
X153053287Y-70547204D01*
X153120461Y-70644308D01*
X153154770Y-70679273D01*
X153258968Y-70755765D01*
X153389785Y-70819563D01*
X153532070Y-70864865D01*
X153670673Y-70885874D01*
X153696459Y-70886649D01*
X153752474Y-70891547D01*
X153773495Y-70910267D01*
X153766387Y-70950331D01*
X153762986Y-70959518D01*
X153753276Y-70971655D01*
X153731023Y-70980516D01*
X153690500Y-70986589D01*
X153625979Y-70990365D01*
X153531729Y-70992333D01*
X153402025Y-70992984D01*
X153371403Y-70993000D01*
X152992667Y-70993000D01*
X152992667Y-71543333D01*
X153395677Y-71543333D01*
X153560450Y-71542088D01*
X153688872Y-71537347D01*
X153786876Y-71527602D01*
X153860398Y-71511344D01*
X153915373Y-71487064D01*
X153957735Y-71453253D01*
X153993419Y-71408402D01*
X154006534Y-71388034D01*
X154023945Y-71356047D01*
X154036150Y-71320553D01*
X154044053Y-71273640D01*
X154048559Y-71207395D01*
X154050572Y-71113908D01*
X154051000Y-70999009D01*
X154051000Y-70681933D01*
X153834042Y-70668286D01*
X153694164Y-70656999D01*
X153588084Y-70641685D01*
X153507304Y-70620050D01*
X153443324Y-70589798D01*
X153387645Y-70548636D01*
X153386189Y-70547362D01*
X153315759Y-70460435D01*
X153281143Y-70360505D01*
X153281142Y-70255118D01*
X153314557Y-70151816D01*
X153380189Y-70058143D01*
X153476051Y-69982104D01*
X153540150Y-69949093D01*
X153601295Y-69931493D01*
X153677798Y-69925040D01*
X153722917Y-69924641D01*
X153838103Y-69932202D01*
X153921213Y-69953148D01*
X153935024Y-69959718D01*
X154009790Y-70010779D01*
X154078384Y-70075755D01*
X154127374Y-70141162D01*
X154138155Y-70163586D01*
X154143188Y-70197429D01*
X154147708Y-70267408D01*
X154151522Y-70367328D01*
X154154441Y-70490992D01*
X154156273Y-70632204D01*
X154156834Y-70768798D01*
X154156710Y-70937014D01*
X154156056Y-71068497D01*
X154154446Y-71168849D01*
X154151457Y-71243669D01*
X154146663Y-71298559D01*
X154139640Y-71339118D01*
X154129962Y-71370948D01*
X154117207Y-71399650D01*
X154107584Y-71418295D01*
X154058585Y-71488626D01*
X153993635Y-71555126D01*
X153968247Y-71575083D01*
X153878161Y-71638583D01*
X153435414Y-71645063D01*
X152992667Y-71651542D01*
X152992667Y-72199500D01*
X153400125Y-72198106D01*
X153584808Y-72195796D01*
X153730035Y-72190157D01*
X153838566Y-72181024D01*
X153913159Y-72168230D01*
X153918260Y-72166905D01*
X154071624Y-72104520D01*
X154209516Y-72007206D01*
X154324077Y-71881681D01*
X154397344Y-71757590D01*
X154409697Y-71728947D01*
X154419646Y-71698860D01*
X154427506Y-71662467D01*
X154433590Y-71614910D01*
X154438213Y-71551328D01*
X154441689Y-71466860D01*
X154444331Y-71356647D01*
X154446453Y-71215829D01*
X154448370Y-71039545D01*
X154449175Y-70955261D01*
X154450864Y-70739944D01*
X154451060Y-70562361D01*
X154449070Y-70417919D01*
X154444201Y-70302028D01*
X154435759Y-70210096D01*
X154423052Y-70137529D01*
X154405387Y-70079737D01*
X154382071Y-70032128D01*
X154352411Y-69990109D01*
X154315715Y-69949090D01*
X154294014Y-69927022D01*
X154218363Y-69862351D01*
X154128586Y-69800686D01*
X154077205Y-69772041D01*
X154018970Y-69745263D01*
X153967346Y-69727933D01*
X153910320Y-69718030D01*
X153835881Y-69713532D01*
X153732018Y-69712420D01*
X153722917Y-69712416D01*
X153611659Y-69713785D01*
G37*
X153611659Y-69713785D02*
X153531126Y-69718975D01*
X153469765Y-69729614D01*
X153416025Y-69747327D01*
X153387859Y-69759595D01*
X153237457Y-69847432D01*
X153119278Y-69956055D01*
X153061179Y-70037208D01*
X153029629Y-70097672D01*
X153012058Y-70154842D01*
X153004744Y-70225391D01*
X153003741Y-70294500D01*
X153015706Y-70433978D01*
X153053287Y-70547204D01*
X153120461Y-70644308D01*
X153154770Y-70679273D01*
X153258968Y-70755765D01*
X153389785Y-70819563D01*
X153532070Y-70864865D01*
X153670673Y-70885874D01*
X153696459Y-70886649D01*
X153752474Y-70891547D01*
X153773495Y-70910267D01*
X153766387Y-70950331D01*
X153762986Y-70959518D01*
X153753276Y-70971655D01*
X153731023Y-70980516D01*
X153690500Y-70986589D01*
X153625979Y-70990365D01*
X153531729Y-70992333D01*
X153402025Y-70992984D01*
X153371403Y-70993000D01*
X152992667Y-70993000D01*
X152992667Y-71543333D01*
X153395677Y-71543333D01*
X153560450Y-71542088D01*
X153688872Y-71537347D01*
X153786876Y-71527602D01*
X153860398Y-71511344D01*
X153915373Y-71487064D01*
X153957735Y-71453253D01*
X153993419Y-71408402D01*
X154006534Y-71388034D01*
X154023945Y-71356047D01*
X154036150Y-71320553D01*
X154044053Y-71273640D01*
X154048559Y-71207395D01*
X154050572Y-71113908D01*
X154051000Y-70999009D01*
X154051000Y-70681933D01*
X153834042Y-70668286D01*
X153694164Y-70656999D01*
X153588084Y-70641685D01*
X153507304Y-70620050D01*
X153443324Y-70589798D01*
X153387645Y-70548636D01*
X153386189Y-70547362D01*
X153315759Y-70460435D01*
X153281143Y-70360505D01*
X153281142Y-70255118D01*
X153314557Y-70151816D01*
X153380189Y-70058143D01*
X153476051Y-69982104D01*
X153540150Y-69949093D01*
X153601295Y-69931493D01*
X153677798Y-69925040D01*
X153722917Y-69924641D01*
X153838103Y-69932202D01*
X153921213Y-69953148D01*
X153935024Y-69959718D01*
X154009790Y-70010779D01*
X154078384Y-70075755D01*
X154127374Y-70141162D01*
X154138155Y-70163586D01*
X154143188Y-70197429D01*
X154147708Y-70267408D01*
X154151522Y-70367328D01*
X154154441Y-70490992D01*
X154156273Y-70632204D01*
X154156834Y-70768798D01*
X154156710Y-70937014D01*
X154156056Y-71068497D01*
X154154446Y-71168849D01*
X154151457Y-71243669D01*
X154146663Y-71298559D01*
X154139640Y-71339118D01*
X154129962Y-71370948D01*
X154117207Y-71399650D01*
X154107584Y-71418295D01*
X154058585Y-71488626D01*
X153993635Y-71555126D01*
X153968247Y-71575083D01*
X153878161Y-71638583D01*
X153435414Y-71645063D01*
X152992667Y-71651542D01*
X152992667Y-72199500D01*
X153400125Y-72198106D01*
X153584808Y-72195796D01*
X153730035Y-72190157D01*
X153838566Y-72181024D01*
X153913159Y-72168230D01*
X153918260Y-72166905D01*
X154071624Y-72104520D01*
X154209516Y-72007206D01*
X154324077Y-71881681D01*
X154397344Y-71757590D01*
X154409697Y-71728947D01*
X154419646Y-71698860D01*
X154427506Y-71662467D01*
X154433590Y-71614910D01*
X154438213Y-71551328D01*
X154441689Y-71466860D01*
X154444331Y-71356647D01*
X154446453Y-71215829D01*
X154448370Y-71039545D01*
X154449175Y-70955261D01*
X154450864Y-70739944D01*
X154451060Y-70562361D01*
X154449070Y-70417919D01*
X154444201Y-70302028D01*
X154435759Y-70210096D01*
X154423052Y-70137529D01*
X154405387Y-70079737D01*
X154382071Y-70032128D01*
X154352411Y-69990109D01*
X154315715Y-69949090D01*
X154294014Y-69927022D01*
X154218363Y-69862351D01*
X154128586Y-69800686D01*
X154077205Y-69772041D01*
X154018970Y-69745263D01*
X153967346Y-69727933D01*
X153910320Y-69718030D01*
X153835881Y-69713532D01*
X153732018Y-69712420D01*
X153722917Y-69712416D01*
X153611659Y-69713785D01*
G36*
X151155705Y-69726415D02*
G01*
X150982602Y-69754343D01*
X150828617Y-69819444D01*
X150696532Y-69919836D01*
X150589129Y-70053639D01*
X150540936Y-70142174D01*
X150484417Y-70262750D01*
X150484417Y-71638583D01*
X150543771Y-71765583D01*
X150635878Y-71919413D01*
X150752790Y-72039065D01*
X150895384Y-72125284D01*
X151018040Y-72168021D01*
X151149024Y-72193257D01*
X151266121Y-72193680D01*
X151385496Y-72170557D01*
X151545966Y-72106305D01*
X151686183Y-72007849D01*
X151799694Y-71880382D01*
X151849998Y-71796684D01*
X151876849Y-71731168D01*
X151897954Y-71648798D01*
X151913655Y-71545381D01*
X151924295Y-71416727D01*
X151930215Y-71258642D01*
X151931757Y-71066936D01*
X151930266Y-70929592D01*
X151635877Y-70929592D01*
X151635599Y-71076238D01*
X151632584Y-71191420D01*
X151626143Y-71280561D01*
X151615586Y-71349084D01*
X151600221Y-71402414D01*
X151579360Y-71445974D01*
X151552311Y-71485187D01*
X151537771Y-71503058D01*
X151446889Y-71580053D01*
X151333554Y-71629032D01*
X151208904Y-71647743D01*
X151084076Y-71633935D01*
X151013584Y-71609037D01*
X150916056Y-71547533D01*
X150837019Y-71466377D01*
X150792680Y-71388497D01*
X150785424Y-71347317D01*
X150779399Y-71267891D01*
X150774757Y-71154293D01*
X150771653Y-71010597D01*
X150770239Y-70840876D01*
X150770167Y-70789695D01*
X150770399Y-70622636D01*
X150771343Y-70492292D01*
X150773375Y-70393042D01*
X150776869Y-70319270D01*
X150782202Y-70265357D01*
X150789747Y-70225685D01*
X150799879Y-70194635D01*
X150811572Y-70169319D01*
X150885812Y-70065858D01*
X150982711Y-69992417D01*
X151094617Y-69949459D01*
X151213879Y-69937451D01*
X151332846Y-69956860D01*
X151443865Y-70008149D01*
X151539285Y-70091786D01*
X151563917Y-70123526D01*
X151627417Y-70213365D01*
X151634110Y-70746057D01*
X151635877Y-70929592D01*
X151930266Y-70929592D01*
X151929264Y-70837416D01*
X151929085Y-70827394D01*
X151925227Y-70638423D01*
X151920246Y-70486051D01*
X151912693Y-70364543D01*
X151901120Y-70268165D01*
X151884079Y-70191184D01*
X151860120Y-70127865D01*
X151827796Y-70072476D01*
X151785658Y-70019281D01*
X151732258Y-69962548D01*
X151703247Y-69933419D01*
X151592464Y-69835744D01*
X151484673Y-69771405D01*
X151367905Y-69735878D01*
X151230193Y-69724637D01*
X151155705Y-69726415D01*
G37*
X151155705Y-69726415D02*
X150982602Y-69754343D01*
X150828617Y-69819444D01*
X150696532Y-69919836D01*
X150589129Y-70053639D01*
X150540936Y-70142174D01*
X150484417Y-70262750D01*
X150484417Y-71638583D01*
X150543771Y-71765583D01*
X150635878Y-71919413D01*
X150752790Y-72039065D01*
X150895384Y-72125284D01*
X151018040Y-72168021D01*
X151149024Y-72193257D01*
X151266121Y-72193680D01*
X151385496Y-72170557D01*
X151545966Y-72106305D01*
X151686183Y-72007849D01*
X151799694Y-71880382D01*
X151849998Y-71796684D01*
X151876849Y-71731168D01*
X151897954Y-71648798D01*
X151913655Y-71545381D01*
X151924295Y-71416727D01*
X151930215Y-71258642D01*
X151931757Y-71066936D01*
X151930266Y-70929592D01*
X151635877Y-70929592D01*
X151635599Y-71076238D01*
X151632584Y-71191420D01*
X151626143Y-71280561D01*
X151615586Y-71349084D01*
X151600221Y-71402414D01*
X151579360Y-71445974D01*
X151552311Y-71485187D01*
X151537771Y-71503058D01*
X151446889Y-71580053D01*
X151333554Y-71629032D01*
X151208904Y-71647743D01*
X151084076Y-71633935D01*
X151013584Y-71609037D01*
X150916056Y-71547533D01*
X150837019Y-71466377D01*
X150792680Y-71388497D01*
X150785424Y-71347317D01*
X150779399Y-71267891D01*
X150774757Y-71154293D01*
X150771653Y-71010597D01*
X150770239Y-70840876D01*
X150770167Y-70789695D01*
X150770399Y-70622636D01*
X150771343Y-70492292D01*
X150773375Y-70393042D01*
X150776869Y-70319270D01*
X150782202Y-70265357D01*
X150789747Y-70225685D01*
X150799879Y-70194635D01*
X150811572Y-70169319D01*
X150885812Y-70065858D01*
X150982711Y-69992417D01*
X151094617Y-69949459D01*
X151213879Y-69937451D01*
X151332846Y-69956860D01*
X151443865Y-70008149D01*
X151539285Y-70091786D01*
X151563917Y-70123526D01*
X151627417Y-70213365D01*
X151634110Y-70746057D01*
X151635877Y-70929592D01*
X151930266Y-70929592D01*
X151929264Y-70837416D01*
X151929085Y-70827394D01*
X151925227Y-70638423D01*
X151920246Y-70486051D01*
X151912693Y-70364543D01*
X151901120Y-70268165D01*
X151884079Y-70191184D01*
X151860120Y-70127865D01*
X151827796Y-70072476D01*
X151785658Y-70019281D01*
X151732258Y-69962548D01*
X151703247Y-69933419D01*
X151592464Y-69835744D01*
X151484673Y-69771405D01*
X151367905Y-69735878D01*
X151230193Y-69724637D01*
X151155705Y-69726415D01*
G36*
X148621750Y-69727918D02*
G01*
X148469249Y-69748273D01*
X148340183Y-69795033D01*
X148223366Y-69873580D01*
X148129465Y-69964831D01*
X148066833Y-70038958D01*
X148020049Y-70110672D01*
X147986883Y-70188022D01*
X147965102Y-70279052D01*
X147952475Y-70391809D01*
X147946770Y-70534340D01*
X147945780Y-70627096D01*
X147944618Y-70754010D01*
X147941903Y-70845396D01*
X147936921Y-70908054D01*
X147928961Y-70948782D01*
X147917310Y-70974377D01*
X147908245Y-70985304D01*
X147881441Y-71007469D01*
X147864959Y-70998185D01*
X147850037Y-70963537D01*
X147842061Y-70921790D01*
X147835372Y-70847196D01*
X147830545Y-70749239D01*
X147828156Y-70637400D01*
X147828000Y-70600832D01*
X147827047Y-70471786D01*
X147823532Y-70375553D01*
X147816475Y-70302645D01*
X147804898Y-70243570D01*
X147787819Y-70188839D01*
X147784529Y-70179901D01*
X147716601Y-70050503D01*
X147617633Y-69930648D01*
X147498834Y-69832577D01*
X147430122Y-69792857D01*
X147366350Y-69764029D01*
X147309189Y-69746323D01*
X147244464Y-69737129D01*
X147157999Y-69733836D01*
X147108334Y-69733583D01*
X147003497Y-69735480D01*
X146927817Y-69742567D01*
X146868232Y-69756937D01*
X146811676Y-69780682D01*
X146810401Y-69781309D01*
X146659897Y-69877220D01*
X146539056Y-70002839D01*
X146471849Y-70107682D01*
X146399250Y-70241583D01*
X146392974Y-71220541D01*
X146386698Y-72199500D01*
X146661865Y-72199500D01*
X146668141Y-71220541D01*
X146669637Y-70983547D01*
X146671157Y-70785016D01*
X146673204Y-70621082D01*
X146676281Y-70487879D01*
X146680890Y-70381539D01*
X146687534Y-70298197D01*
X146696714Y-70233984D01*
X146708934Y-70185036D01*
X146724695Y-70147483D01*
X146744501Y-70117461D01*
X146768854Y-70091102D01*
X146798256Y-70064539D01*
X146820924Y-70044796D01*
X146931339Y-69974890D01*
X147058419Y-69940186D01*
X147193151Y-69942229D01*
X147284360Y-69965333D01*
X147374899Y-70008901D01*
X147441323Y-70071246D01*
X147495855Y-70163962D01*
X147497512Y-70167500D01*
X147511454Y-70200617D01*
X147522392Y-70236809D01*
X147530843Y-70281919D01*
X147537325Y-70341786D01*
X147542355Y-70422252D01*
X147546450Y-70529158D01*
X147550128Y-70668346D01*
X147552809Y-70791916D01*
X147557006Y-70971696D01*
X147562083Y-71114336D01*
X147569167Y-71225029D01*
X147579387Y-71308969D01*
X147593871Y-71371348D01*
X147613748Y-71417360D01*
X147640146Y-71452197D01*
X147674193Y-71481053D01*
X147707320Y-71503085D01*
X147758204Y-71527986D01*
X147816990Y-71538896D01*
X147899677Y-71538571D01*
X147910079Y-71538015D01*
X147987088Y-71531526D01*
X148037425Y-71518586D01*
X148076749Y-71492811D01*
X148114430Y-71454718D01*
X148151007Y-71408309D01*
X148179246Y-71354873D01*
X148200025Y-71288760D01*
X148214220Y-71204318D01*
X148222711Y-71095896D01*
X148226373Y-70957842D01*
X148226084Y-70784505D01*
X148225551Y-70739000D01*
X148224429Y-70567604D01*
X148226870Y-70432304D01*
X148234043Y-70326929D01*
X148247118Y-70245308D01*
X148267264Y-70181271D01*
X148295652Y-70128646D01*
X148333452Y-70081265D01*
X148354387Y-70059466D01*
X148455961Y-69985381D01*
X148571958Y-69945406D01*
X148694000Y-69938248D01*
X148813711Y-69962610D01*
X148922717Y-70017200D01*
X149012641Y-70100722D01*
X149055863Y-70167882D01*
X149065760Y-70188921D01*
X149073975Y-70212346D01*
X149080665Y-70242076D01*
X149085985Y-70282030D01*
X149090092Y-70336125D01*
X149093142Y-70408280D01*
X149095290Y-70502412D01*
X149096694Y-70622441D01*
X149097509Y-70772283D01*
X149097892Y-70955858D01*
X149097999Y-71177082D01*
X149098000Y-71224990D01*
X149098000Y-72199500D01*
X149396702Y-72199500D01*
X149389446Y-71241708D01*
X149387608Y-70999832D01*
X149385624Y-70796256D01*
X149382824Y-70626948D01*
X149378538Y-70487876D01*
X149372097Y-70375011D01*
X149362832Y-70284321D01*
X149350072Y-70211775D01*
X149333149Y-70153342D01*
X149311394Y-70104991D01*
X149284135Y-70062691D01*
X149250705Y-70022411D01*
X149210433Y-69980120D01*
X149173760Y-69943062D01*
X149054719Y-69838440D01*
X148935921Y-69770341D01*
X148806360Y-69734476D01*
X148655031Y-69726556D01*
X148621750Y-69727918D01*
G37*
X148621750Y-69727918D02*
X148469249Y-69748273D01*
X148340183Y-69795033D01*
X148223366Y-69873580D01*
X148129465Y-69964831D01*
X148066833Y-70038958D01*
X148020049Y-70110672D01*
X147986883Y-70188022D01*
X147965102Y-70279052D01*
X147952475Y-70391809D01*
X147946770Y-70534340D01*
X147945780Y-70627096D01*
X147944618Y-70754010D01*
X147941903Y-70845396D01*
X147936921Y-70908054D01*
X147928961Y-70948782D01*
X147917310Y-70974377D01*
X147908245Y-70985304D01*
X147881441Y-71007469D01*
X147864959Y-70998185D01*
X147850037Y-70963537D01*
X147842061Y-70921790D01*
X147835372Y-70847196D01*
X147830545Y-70749239D01*
X147828156Y-70637400D01*
X147828000Y-70600832D01*
X147827047Y-70471786D01*
X147823532Y-70375553D01*
X147816475Y-70302645D01*
X147804898Y-70243570D01*
X147787819Y-70188839D01*
X147784529Y-70179901D01*
X147716601Y-70050503D01*
X147617633Y-69930648D01*
X147498834Y-69832577D01*
X147430122Y-69792857D01*
X147366350Y-69764029D01*
X147309189Y-69746323D01*
X147244464Y-69737129D01*
X147157999Y-69733836D01*
X147108334Y-69733583D01*
X147003497Y-69735480D01*
X146927817Y-69742567D01*
X146868232Y-69756937D01*
X146811676Y-69780682D01*
X146810401Y-69781309D01*
X146659897Y-69877220D01*
X146539056Y-70002839D01*
X146471849Y-70107682D01*
X146399250Y-70241583D01*
X146392974Y-71220541D01*
X146386698Y-72199500D01*
X146661865Y-72199500D01*
X146668141Y-71220541D01*
X146669637Y-70983547D01*
X146671157Y-70785016D01*
X146673204Y-70621082D01*
X146676281Y-70487879D01*
X146680890Y-70381539D01*
X146687534Y-70298197D01*
X146696714Y-70233984D01*
X146708934Y-70185036D01*
X146724695Y-70147483D01*
X146744501Y-70117461D01*
X146768854Y-70091102D01*
X146798256Y-70064539D01*
X146820924Y-70044796D01*
X146931339Y-69974890D01*
X147058419Y-69940186D01*
X147193151Y-69942229D01*
X147284360Y-69965333D01*
X147374899Y-70008901D01*
X147441323Y-70071246D01*
X147495855Y-70163962D01*
X147497512Y-70167500D01*
X147511454Y-70200617D01*
X147522392Y-70236809D01*
X147530843Y-70281919D01*
X147537325Y-70341786D01*
X147542355Y-70422252D01*
X147546450Y-70529158D01*
X147550128Y-70668346D01*
X147552809Y-70791916D01*
X147557006Y-70971696D01*
X147562083Y-71114336D01*
X147569167Y-71225029D01*
X147579387Y-71308969D01*
X147593871Y-71371348D01*
X147613748Y-71417360D01*
X147640146Y-71452197D01*
X147674193Y-71481053D01*
X147707320Y-71503085D01*
X147758204Y-71527986D01*
X147816990Y-71538896D01*
X147899677Y-71538571D01*
X147910079Y-71538015D01*
X147987088Y-71531526D01*
X148037425Y-71518586D01*
X148076749Y-71492811D01*
X148114430Y-71454718D01*
X148151007Y-71408309D01*
X148179246Y-71354873D01*
X148200025Y-71288760D01*
X148214220Y-71204318D01*
X148222711Y-71095896D01*
X148226373Y-70957842D01*
X148226084Y-70784505D01*
X148225551Y-70739000D01*
X148224429Y-70567604D01*
X148226870Y-70432304D01*
X148234043Y-70326929D01*
X148247118Y-70245308D01*
X148267264Y-70181271D01*
X148295652Y-70128646D01*
X148333452Y-70081265D01*
X148354387Y-70059466D01*
X148455961Y-69985381D01*
X148571958Y-69945406D01*
X148694000Y-69938248D01*
X148813711Y-69962610D01*
X148922717Y-70017200D01*
X149012641Y-70100722D01*
X149055863Y-70167882D01*
X149065760Y-70188921D01*
X149073975Y-70212346D01*
X149080665Y-70242076D01*
X149085985Y-70282030D01*
X149090092Y-70336125D01*
X149093142Y-70408280D01*
X149095290Y-70502412D01*
X149096694Y-70622441D01*
X149097509Y-70772283D01*
X149097892Y-70955858D01*
X149097999Y-71177082D01*
X149098000Y-71224990D01*
X149098000Y-72199500D01*
X149396702Y-72199500D01*
X149389446Y-71241708D01*
X149387608Y-70999832D01*
X149385624Y-70796256D01*
X149382824Y-70626948D01*
X149378538Y-70487876D01*
X149372097Y-70375011D01*
X149362832Y-70284321D01*
X149350072Y-70211775D01*
X149333149Y-70153342D01*
X149311394Y-70104991D01*
X149284135Y-70062691D01*
X149250705Y-70022411D01*
X149210433Y-69980120D01*
X149173760Y-69943062D01*
X149054719Y-69838440D01*
X148935921Y-69770341D01*
X148806360Y-69734476D01*
X148655031Y-69726556D01*
X148621750Y-69727918D01*
G36*
X148574818Y-70057014D02*
G01*
X148484224Y-70097818D01*
X148409130Y-70154915D01*
X148378850Y-70192727D01*
X148365036Y-70218122D01*
X148354556Y-70246962D01*
X148346953Y-70285155D01*
X148341770Y-70338610D01*
X148338549Y-70413235D01*
X148336834Y-70514939D01*
X148336166Y-70649629D01*
X148336080Y-70745501D01*
X148335233Y-70927996D01*
X148332204Y-71073814D01*
X148326160Y-71188591D01*
X148316268Y-71277963D01*
X148301694Y-71347566D01*
X148281606Y-71403035D01*
X148255171Y-71450006D01*
X148226250Y-71488476D01*
X148130368Y-71578920D01*
X148021093Y-71630774D01*
X147892549Y-71646543D01*
X147858671Y-71645268D01*
X147727039Y-71621648D01*
X147622678Y-71567348D01*
X147540635Y-71479150D01*
X147502519Y-71413598D01*
X147484955Y-71377367D01*
X147471546Y-71344143D01*
X147461725Y-71307749D01*
X147454925Y-71262012D01*
X147450578Y-71200755D01*
X147448119Y-71117803D01*
X147446981Y-71006982D01*
X147446596Y-70862114D01*
X147446536Y-70803635D01*
X147446090Y-70642654D01*
X147444806Y-70517975D01*
X147442257Y-70423569D01*
X147438018Y-70353409D01*
X147431660Y-70301466D01*
X147422757Y-70261710D01*
X147410884Y-70228113D01*
X147404828Y-70214211D01*
X147366808Y-70149091D01*
X147315099Y-70105142D01*
X147264535Y-70079525D01*
X147142472Y-70045406D01*
X147027379Y-70052595D01*
X146922489Y-70100232D01*
X146831033Y-70187456D01*
X146823892Y-70196789D01*
X146813639Y-70211763D01*
X146805097Y-70229330D01*
X146798079Y-70253321D01*
X146792401Y-70287562D01*
X146787875Y-70335883D01*
X146784318Y-70402111D01*
X146781544Y-70490076D01*
X146779366Y-70603606D01*
X146777601Y-70746529D01*
X146776061Y-70922674D01*
X146774562Y-71135868D01*
X146773965Y-71227357D01*
X146767680Y-72199500D01*
X147066000Y-72199500D01*
X147066000Y-71237665D01*
X147066476Y-70973265D01*
X147067906Y-70750949D01*
X147070295Y-70570478D01*
X147073650Y-70431613D01*
X147077975Y-70334116D01*
X147083277Y-70277747D01*
X147088094Y-70262176D01*
X147120875Y-70262303D01*
X147140196Y-70273426D01*
X147148734Y-70287240D01*
X147155726Y-70315802D01*
X147161375Y-70363137D01*
X147165886Y-70433273D01*
X147169459Y-70530237D01*
X147172300Y-70658054D01*
X147174611Y-70820753D01*
X147176311Y-70989623D01*
X147178051Y-71178958D01*
X147179806Y-71330898D01*
X147181936Y-71450383D01*
X147184799Y-71542349D01*
X147188754Y-71611737D01*
X147194161Y-71663483D01*
X147201378Y-71702526D01*
X147210765Y-71733803D01*
X147222680Y-71762254D01*
X147234225Y-71786197D01*
X147319005Y-71916205D01*
X147433862Y-72031384D01*
X147566651Y-72119965D01*
X147591008Y-72131939D01*
X147663442Y-72161840D01*
X147731640Y-72179105D01*
X147812472Y-72186908D01*
X147891500Y-72188458D01*
X147989331Y-72186582D01*
X148061202Y-72178261D01*
X148123358Y-72160343D01*
X148190470Y-72130450D01*
X148306042Y-72056517D01*
X148416392Y-71955483D01*
X148508198Y-71840921D01*
X148554456Y-71759597D01*
X148567114Y-71730260D01*
X148577340Y-71699550D01*
X148585481Y-71662567D01*
X148591886Y-71614411D01*
X148596902Y-71550181D01*
X148600878Y-71464978D01*
X148604161Y-71353902D01*
X148607101Y-71212052D01*
X148610044Y-71034529D01*
X148611167Y-70961250D01*
X148614126Y-70771039D01*
X148616834Y-70618909D01*
X148619613Y-70500608D01*
X148622784Y-70411889D01*
X148626670Y-70348500D01*
X148631592Y-70306192D01*
X148637873Y-70280716D01*
X148645835Y-70267822D01*
X148655799Y-70263261D01*
X148664084Y-70262750D01*
X148674032Y-70263712D01*
X148682313Y-70269007D01*
X148689103Y-70282247D01*
X148694583Y-70307043D01*
X148698929Y-70347007D01*
X148702321Y-70405752D01*
X148704938Y-70486888D01*
X148706957Y-70594029D01*
X148708556Y-70730785D01*
X148709915Y-70900769D01*
X148711212Y-71107592D01*
X148711922Y-71231125D01*
X148717428Y-72199500D01*
X148992167Y-72199500D01*
X148992088Y-71231125D01*
X148992007Y-71003152D01*
X148991697Y-70813630D01*
X148990999Y-70658676D01*
X148989752Y-70534408D01*
X148987797Y-70436943D01*
X148984974Y-70362399D01*
X148981123Y-70306892D01*
X148976084Y-70266541D01*
X148969697Y-70237462D01*
X148961802Y-70215774D01*
X148952239Y-70197593D01*
X148949317Y-70192727D01*
X148891313Y-70130195D01*
X148807854Y-70078675D01*
X148715770Y-70047095D01*
X148664084Y-70041429D01*
X148574818Y-70057014D01*
G37*
X148574818Y-70057014D02*
X148484224Y-70097818D01*
X148409130Y-70154915D01*
X148378850Y-70192727D01*
X148365036Y-70218122D01*
X148354556Y-70246962D01*
X148346953Y-70285155D01*
X148341770Y-70338610D01*
X148338549Y-70413235D01*
X148336834Y-70514939D01*
X148336166Y-70649629D01*
X148336080Y-70745501D01*
X148335233Y-70927996D01*
X148332204Y-71073814D01*
X148326160Y-71188591D01*
X148316268Y-71277963D01*
X148301694Y-71347566D01*
X148281606Y-71403035D01*
X148255171Y-71450006D01*
X148226250Y-71488476D01*
X148130368Y-71578920D01*
X148021093Y-71630774D01*
X147892549Y-71646543D01*
X147858671Y-71645268D01*
X147727039Y-71621648D01*
X147622678Y-71567348D01*
X147540635Y-71479150D01*
X147502519Y-71413598D01*
X147484955Y-71377367D01*
X147471546Y-71344143D01*
X147461725Y-71307749D01*
X147454925Y-71262012D01*
X147450578Y-71200755D01*
X147448119Y-71117803D01*
X147446981Y-71006982D01*
X147446596Y-70862114D01*
X147446536Y-70803635D01*
X147446090Y-70642654D01*
X147444806Y-70517975D01*
X147442257Y-70423569D01*
X147438018Y-70353409D01*
X147431660Y-70301466D01*
X147422757Y-70261710D01*
X147410884Y-70228113D01*
X147404828Y-70214211D01*
X147366808Y-70149091D01*
X147315099Y-70105142D01*
X147264535Y-70079525D01*
X147142472Y-70045406D01*
X147027379Y-70052595D01*
X146922489Y-70100232D01*
X146831033Y-70187456D01*
X146823892Y-70196789D01*
X146813639Y-70211763D01*
X146805097Y-70229330D01*
X146798079Y-70253321D01*
X146792401Y-70287562D01*
X146787875Y-70335883D01*
X146784318Y-70402111D01*
X146781544Y-70490076D01*
X146779366Y-70603606D01*
X146777601Y-70746529D01*
X146776061Y-70922674D01*
X146774562Y-71135868D01*
X146773965Y-71227357D01*
X146767680Y-72199500D01*
X147066000Y-72199500D01*
X147066000Y-71237665D01*
X147066476Y-70973265D01*
X147067906Y-70750949D01*
X147070295Y-70570478D01*
X147073650Y-70431613D01*
X147077975Y-70334116D01*
X147083277Y-70277747D01*
X147088094Y-70262176D01*
X147120875Y-70262303D01*
X147140196Y-70273426D01*
X147148734Y-70287240D01*
X147155726Y-70315802D01*
X147161375Y-70363137D01*
X147165886Y-70433273D01*
X147169459Y-70530237D01*
X147172300Y-70658054D01*
X147174611Y-70820753D01*
X147176311Y-70989623D01*
X147178051Y-71178958D01*
X147179806Y-71330898D01*
X147181936Y-71450383D01*
X147184799Y-71542349D01*
X147188754Y-71611737D01*
X147194161Y-71663483D01*
X147201378Y-71702526D01*
X147210765Y-71733803D01*
X147222680Y-71762254D01*
X147234225Y-71786197D01*
X147319005Y-71916205D01*
X147433862Y-72031384D01*
X147566651Y-72119965D01*
X147591008Y-72131939D01*
X147663442Y-72161840D01*
X147731640Y-72179105D01*
X147812472Y-72186908D01*
X147891500Y-72188458D01*
X147989331Y-72186582D01*
X148061202Y-72178261D01*
X148123358Y-72160343D01*
X148190470Y-72130450D01*
X148306042Y-72056517D01*
X148416392Y-71955483D01*
X148508198Y-71840921D01*
X148554456Y-71759597D01*
X148567114Y-71730260D01*
X148577340Y-71699550D01*
X148585481Y-71662567D01*
X148591886Y-71614411D01*
X148596902Y-71550181D01*
X148600878Y-71464978D01*
X148604161Y-71353902D01*
X148607101Y-71212052D01*
X148610044Y-71034529D01*
X148611167Y-70961250D01*
X148614126Y-70771039D01*
X148616834Y-70618909D01*
X148619613Y-70500608D01*
X148622784Y-70411889D01*
X148626670Y-70348500D01*
X148631592Y-70306192D01*
X148637873Y-70280716D01*
X148645835Y-70267822D01*
X148655799Y-70263261D01*
X148664084Y-70262750D01*
X148674032Y-70263712D01*
X148682313Y-70269007D01*
X148689103Y-70282247D01*
X148694583Y-70307043D01*
X148698929Y-70347007D01*
X148702321Y-70405752D01*
X148704938Y-70486888D01*
X148706957Y-70594029D01*
X148708556Y-70730785D01*
X148709915Y-70900769D01*
X148711212Y-71107592D01*
X148711922Y-71231125D01*
X148717428Y-72199500D01*
X148992167Y-72199500D01*
X148992088Y-71231125D01*
X148992007Y-71003152D01*
X148991697Y-70813630D01*
X148990999Y-70658676D01*
X148989752Y-70534408D01*
X148987797Y-70436943D01*
X148984974Y-70362399D01*
X148981123Y-70306892D01*
X148976084Y-70266541D01*
X148969697Y-70237462D01*
X148961802Y-70215774D01*
X148952239Y-70197593D01*
X148949317Y-70192727D01*
X148891313Y-70130195D01*
X148807854Y-70078675D01*
X148715770Y-70047095D01*
X148664084Y-70041429D01*
X148574818Y-70057014D01*
G36*
X145530725Y-69723371D02*
G01*
X145416261Y-69724875D01*
X145329845Y-69728099D01*
X145264337Y-69733629D01*
X145212596Y-69742053D01*
X145167480Y-69753956D01*
X145125409Y-69768588D01*
X145008598Y-69830518D01*
X144895534Y-69923085D01*
X144797826Y-70035328D01*
X144736620Y-70135750D01*
X144684750Y-70241583D01*
X144678659Y-71220541D01*
X144672567Y-72199500D01*
X145080825Y-72197373D01*
X145213825Y-72195737D01*
X145337387Y-72192470D01*
X145443270Y-72187925D01*
X145523230Y-72182455D01*
X145568788Y-72176469D01*
X145710790Y-72123045D01*
X145844740Y-72035411D01*
X145960710Y-71921649D01*
X146048775Y-71789839D01*
X146052376Y-71782703D01*
X146070057Y-71744908D01*
X146083056Y-71708364D01*
X146092090Y-71665925D01*
X146097876Y-71610441D01*
X146101131Y-71534765D01*
X146102572Y-71431748D01*
X146102916Y-71294243D01*
X146102917Y-71278750D01*
X146102547Y-71136043D01*
X146101003Y-71028522D01*
X146097637Y-70949042D01*
X146091799Y-70890458D01*
X146082840Y-70845624D01*
X146070111Y-70807397D01*
X146057426Y-70778175D01*
X145973257Y-70645132D01*
X145856065Y-70533139D01*
X145711635Y-70446328D01*
X145545750Y-70388832D01*
X145498632Y-70378978D01*
X145413889Y-70362766D01*
X145364097Y-70349358D01*
X145342425Y-70334754D01*
X145342042Y-70314953D01*
X145352188Y-70293215D01*
X145362810Y-70278368D01*
X145380493Y-70267596D01*
X145411422Y-70260251D01*
X145461778Y-70255685D01*
X145537746Y-70253250D01*
X145645507Y-70252298D01*
X145743829Y-70252166D01*
X146113500Y-70252166D01*
X146113500Y-70038079D01*
X145681238Y-70044581D01*
X145535579Y-70046909D01*
X145426111Y-70049403D01*
X145346699Y-70052806D01*
X145291205Y-70057865D01*
X145253492Y-70065324D01*
X145227423Y-70075927D01*
X145206861Y-70090420D01*
X145191677Y-70104000D01*
X145137105Y-70167770D01*
X145099602Y-70246921D01*
X145075086Y-70351822D01*
X145065687Y-70423983D01*
X145050837Y-70564050D01*
X145280544Y-70573800D01*
X145408894Y-70582038D01*
X145504859Y-70596683D01*
X145578303Y-70621459D01*
X145639089Y-70660086D01*
X145697080Y-70716288D01*
X145716394Y-70738284D01*
X145782010Y-70833741D01*
X145821098Y-70940638D01*
X145837352Y-71070535D01*
X145838334Y-71120000D01*
X145828894Y-71259136D01*
X145798003Y-71371733D01*
X145741801Y-71469754D01*
X145714512Y-71503914D01*
X145663245Y-71558325D01*
X145611627Y-71597387D01*
X145551399Y-71623550D01*
X145474306Y-71639266D01*
X145372090Y-71646985D01*
X145236495Y-71649158D01*
X145225180Y-71649166D01*
X144949334Y-71649166D01*
X144949334Y-70990164D01*
X144949656Y-70788745D01*
X144951030Y-70624796D01*
X144954064Y-70493453D01*
X144959368Y-70389854D01*
X144967553Y-70309137D01*
X144979227Y-70246439D01*
X144995000Y-70196899D01*
X145015482Y-70155653D01*
X145041282Y-70117840D01*
X145061955Y-70091873D01*
X145106598Y-70042167D01*
X145152323Y-70004156D01*
X145205477Y-69976294D01*
X145272402Y-69957039D01*
X145359445Y-69944847D01*
X145472949Y-69938172D01*
X145619259Y-69935472D01*
X145706042Y-69935131D01*
X146113500Y-69934666D01*
X146113500Y-69723000D01*
X145680378Y-69723000D01*
X145530725Y-69723371D01*
G37*
X145530725Y-69723371D02*
X145416261Y-69724875D01*
X145329845Y-69728099D01*
X145264337Y-69733629D01*
X145212596Y-69742053D01*
X145167480Y-69753956D01*
X145125409Y-69768588D01*
X145008598Y-69830518D01*
X144895534Y-69923085D01*
X144797826Y-70035328D01*
X144736620Y-70135750D01*
X144684750Y-70241583D01*
X144678659Y-71220541D01*
X144672567Y-72199500D01*
X145080825Y-72197373D01*
X145213825Y-72195737D01*
X145337387Y-72192470D01*
X145443270Y-72187925D01*
X145523230Y-72182455D01*
X145568788Y-72176469D01*
X145710790Y-72123045D01*
X145844740Y-72035411D01*
X145960710Y-71921649D01*
X146048775Y-71789839D01*
X146052376Y-71782703D01*
X146070057Y-71744908D01*
X146083056Y-71708364D01*
X146092090Y-71665925D01*
X146097876Y-71610441D01*
X146101131Y-71534765D01*
X146102572Y-71431748D01*
X146102916Y-71294243D01*
X146102917Y-71278750D01*
X146102547Y-71136043D01*
X146101003Y-71028522D01*
X146097637Y-70949042D01*
X146091799Y-70890458D01*
X146082840Y-70845624D01*
X146070111Y-70807397D01*
X146057426Y-70778175D01*
X145973257Y-70645132D01*
X145856065Y-70533139D01*
X145711635Y-70446328D01*
X145545750Y-70388832D01*
X145498632Y-70378978D01*
X145413889Y-70362766D01*
X145364097Y-70349358D01*
X145342425Y-70334754D01*
X145342042Y-70314953D01*
X145352188Y-70293215D01*
X145362810Y-70278368D01*
X145380493Y-70267596D01*
X145411422Y-70260251D01*
X145461778Y-70255685D01*
X145537746Y-70253250D01*
X145645507Y-70252298D01*
X145743829Y-70252166D01*
X146113500Y-70252166D01*
X146113500Y-70038079D01*
X145681238Y-70044581D01*
X145535579Y-70046909D01*
X145426111Y-70049403D01*
X145346699Y-70052806D01*
X145291205Y-70057865D01*
X145253492Y-70065324D01*
X145227423Y-70075927D01*
X145206861Y-70090420D01*
X145191677Y-70104000D01*
X145137105Y-70167770D01*
X145099602Y-70246921D01*
X145075086Y-70351822D01*
X145065687Y-70423983D01*
X145050837Y-70564050D01*
X145280544Y-70573800D01*
X145408894Y-70582038D01*
X145504859Y-70596683D01*
X145578303Y-70621459D01*
X145639089Y-70660086D01*
X145697080Y-70716288D01*
X145716394Y-70738284D01*
X145782010Y-70833741D01*
X145821098Y-70940638D01*
X145837352Y-71070535D01*
X145838334Y-71120000D01*
X145828894Y-71259136D01*
X145798003Y-71371733D01*
X145741801Y-71469754D01*
X145714512Y-71503914D01*
X145663245Y-71558325D01*
X145611627Y-71597387D01*
X145551399Y-71623550D01*
X145474306Y-71639266D01*
X145372090Y-71646985D01*
X145236495Y-71649158D01*
X145225180Y-71649166D01*
X144949334Y-71649166D01*
X144949334Y-70990164D01*
X144949656Y-70788745D01*
X144951030Y-70624796D01*
X144954064Y-70493453D01*
X144959368Y-70389854D01*
X144967553Y-70309137D01*
X144979227Y-70246439D01*
X144995000Y-70196899D01*
X145015482Y-70155653D01*
X145041282Y-70117840D01*
X145061955Y-70091873D01*
X145106598Y-70042167D01*
X145152323Y-70004156D01*
X145205477Y-69976294D01*
X145272402Y-69957039D01*
X145359445Y-69944847D01*
X145472949Y-69938172D01*
X145619259Y-69935472D01*
X145706042Y-69935131D01*
X146113500Y-69934666D01*
X146113500Y-69723000D01*
X145680378Y-69723000D01*
X145530725Y-69723371D01*
G36*
X144145000Y-70197872D02*
G01*
X144144556Y-70491506D01*
X144143226Y-70744170D01*
X144141014Y-70955646D01*
X144137924Y-71125712D01*
X144133960Y-71254148D01*
X144129128Y-71340736D01*
X144123430Y-71385254D01*
X144122424Y-71388497D01*
X144072075Y-71480688D01*
X143997244Y-71550505D01*
X143894006Y-71599915D01*
X143758434Y-71630881D01*
X143611264Y-71644342D01*
X143383000Y-71655161D01*
X143383000Y-72199500D01*
X143589375Y-72198071D01*
X143691732Y-72194673D01*
X143790022Y-72186803D01*
X143868531Y-72175886D01*
X143892496Y-72170557D01*
X144055520Y-72105655D01*
X144195125Y-72005941D01*
X144309360Y-71873091D01*
X144375694Y-71755965D01*
X144430750Y-71638583D01*
X144443174Y-69066833D01*
X144145000Y-69066833D01*
X144145000Y-70197872D01*
G37*
X144145000Y-70197872D02*
X144144556Y-70491506D01*
X144143226Y-70744170D01*
X144141014Y-70955646D01*
X144137924Y-71125712D01*
X144133960Y-71254148D01*
X144129128Y-71340736D01*
X144123430Y-71385254D01*
X144122424Y-71388497D01*
X144072075Y-71480688D01*
X143997244Y-71550505D01*
X143894006Y-71599915D01*
X143758434Y-71630881D01*
X143611264Y-71644342D01*
X143383000Y-71655161D01*
X143383000Y-72199500D01*
X143589375Y-72198071D01*
X143691732Y-72194673D01*
X143790022Y-72186803D01*
X143868531Y-72175886D01*
X143892496Y-72170557D01*
X144055520Y-72105655D01*
X144195125Y-72005941D01*
X144309360Y-71873091D01*
X144375694Y-71755965D01*
X144430750Y-71638583D01*
X144443174Y-69066833D01*
X144145000Y-69066833D01*
X144145000Y-70197872D01*
G36*
X142875000Y-72199500D02*
G01*
X143150167Y-72199500D01*
X143150167Y-69723000D01*
X142875000Y-69723000D01*
X142875000Y-72199500D01*
G37*
X142875000Y-72199500D02*
X143150167Y-72199500D01*
X143150167Y-69723000D01*
X142875000Y-69723000D01*
X142875000Y-72199500D01*
G36*
X142472834Y-72199500D02*
G01*
X142748000Y-72199500D01*
X142748000Y-69723000D01*
X142472834Y-69723000D01*
X142472834Y-72199500D01*
G37*
X142472834Y-72199500D02*
X142748000Y-72199500D01*
X142748000Y-69723000D01*
X142472834Y-69723000D01*
X142472834Y-72199500D01*
G36*
X141407632Y-69736327D02*
G01*
X141332383Y-69744379D01*
X141268667Y-69761131D01*
X141201868Y-69788973D01*
X141121520Y-69832124D01*
X141043580Y-69883037D01*
X141006511Y-69912159D01*
X140939090Y-69989723D01*
X140876595Y-70093732D01*
X140826817Y-70208392D01*
X140797545Y-70317912D01*
X140794394Y-70342125D01*
X140784701Y-70442666D01*
X141069937Y-70442666D01*
X141082337Y-70337971D01*
X141096347Y-70261873D01*
X141117076Y-70193140D01*
X141126091Y-70172642D01*
X141182476Y-70091623D01*
X141258734Y-70017944D01*
X141339888Y-69965173D01*
X141367583Y-69953853D01*
X141486296Y-69935626D01*
X141609374Y-69952605D01*
X141726080Y-70000448D01*
X141825681Y-70074813D01*
X141895343Y-70167323D01*
X141910373Y-70196802D01*
X141921995Y-70225103D01*
X141930580Y-70257769D01*
X141936497Y-70300343D01*
X141940116Y-70358366D01*
X141941806Y-70437382D01*
X141941937Y-70542933D01*
X141940879Y-70680562D01*
X141939320Y-70826861D01*
X141933084Y-71391324D01*
X141868357Y-71472620D01*
X141771060Y-71567705D01*
X141659189Y-71624300D01*
X141528079Y-71644424D01*
X141474721Y-71643094D01*
X141350623Y-71625441D01*
X141254058Y-71587861D01*
X141181976Y-71526351D01*
X141131325Y-71436905D01*
X141099055Y-71315517D01*
X141082114Y-71158184D01*
X141080447Y-71125511D01*
X141069929Y-70887166D01*
X140779500Y-70887166D01*
X140779660Y-71178208D01*
X140783546Y-71378218D01*
X140795384Y-71541247D01*
X140815810Y-71672010D01*
X140845462Y-71775221D01*
X140866693Y-71823451D01*
X140940979Y-71932284D01*
X141042767Y-72031686D01*
X141157672Y-72108799D01*
X141214825Y-72134709D01*
X141330824Y-72164298D01*
X141467058Y-72177874D01*
X141607193Y-72175383D01*
X141734897Y-72156771D01*
X141801938Y-72136620D01*
X141947936Y-72058080D01*
X142066974Y-71946977D01*
X142159356Y-71803027D01*
X142159572Y-71802589D01*
X142229417Y-71660785D01*
X142236359Y-71044266D01*
X142237670Y-70847688D01*
X142237018Y-70673592D01*
X142234498Y-70526398D01*
X142230201Y-70410526D01*
X142224222Y-70330399D01*
X142220752Y-70305770D01*
X142172294Y-70138994D01*
X142092714Y-70000143D01*
X141979985Y-69886615D01*
X141832079Y-69795803D01*
X141819207Y-69789693D01*
X141751304Y-69761329D01*
X141687674Y-69744475D01*
X141612899Y-69736369D01*
X141511560Y-69734249D01*
X141509750Y-69734249D01*
X141407632Y-69736327D01*
G37*
X141407632Y-69736327D02*
X141332383Y-69744379D01*
X141268667Y-69761131D01*
X141201868Y-69788973D01*
X141121520Y-69832124D01*
X141043580Y-69883037D01*
X141006511Y-69912159D01*
X140939090Y-69989723D01*
X140876595Y-70093732D01*
X140826817Y-70208392D01*
X140797545Y-70317912D01*
X140794394Y-70342125D01*
X140784701Y-70442666D01*
X141069937Y-70442666D01*
X141082337Y-70337971D01*
X141096347Y-70261873D01*
X141117076Y-70193140D01*
X141126091Y-70172642D01*
X141182476Y-70091623D01*
X141258734Y-70017944D01*
X141339888Y-69965173D01*
X141367583Y-69953853D01*
X141486296Y-69935626D01*
X141609374Y-69952605D01*
X141726080Y-70000448D01*
X141825681Y-70074813D01*
X141895343Y-70167323D01*
X141910373Y-70196802D01*
X141921995Y-70225103D01*
X141930580Y-70257769D01*
X141936497Y-70300343D01*
X141940116Y-70358366D01*
X141941806Y-70437382D01*
X141941937Y-70542933D01*
X141940879Y-70680562D01*
X141939320Y-70826861D01*
X141933084Y-71391324D01*
X141868357Y-71472620D01*
X141771060Y-71567705D01*
X141659189Y-71624300D01*
X141528079Y-71644424D01*
X141474721Y-71643094D01*
X141350623Y-71625441D01*
X141254058Y-71587861D01*
X141181976Y-71526351D01*
X141131325Y-71436905D01*
X141099055Y-71315517D01*
X141082114Y-71158184D01*
X141080447Y-71125511D01*
X141069929Y-70887166D01*
X140779500Y-70887166D01*
X140779660Y-71178208D01*
X140783546Y-71378218D01*
X140795384Y-71541247D01*
X140815810Y-71672010D01*
X140845462Y-71775221D01*
X140866693Y-71823451D01*
X140940979Y-71932284D01*
X141042767Y-72031686D01*
X141157672Y-72108799D01*
X141214825Y-72134709D01*
X141330824Y-72164298D01*
X141467058Y-72177874D01*
X141607193Y-72175383D01*
X141734897Y-72156771D01*
X141801938Y-72136620D01*
X141947936Y-72058080D01*
X142066974Y-71946977D01*
X142159356Y-71803027D01*
X142159572Y-71802589D01*
X142229417Y-71660785D01*
X142236359Y-71044266D01*
X142237670Y-70847688D01*
X142237018Y-70673592D01*
X142234498Y-70526398D01*
X142230201Y-70410526D01*
X142224222Y-70330399D01*
X142220752Y-70305770D01*
X142172294Y-70138994D01*
X142092714Y-70000143D01*
X141979985Y-69886615D01*
X141832079Y-69795803D01*
X141819207Y-69789693D01*
X141751304Y-69761329D01*
X141687674Y-69744475D01*
X141612899Y-69736369D01*
X141511560Y-69734249D01*
X141509750Y-69734249D01*
X141407632Y-69736327D01*
G36*
X158395021Y-71114708D02*
G01*
X158389291Y-71543333D01*
X158585521Y-71541514D01*
X158679018Y-71538955D01*
X158761883Y-71533664D01*
X158821056Y-71526594D01*
X158835903Y-71523262D01*
X158919211Y-71490456D01*
X158979309Y-71445822D01*
X159020057Y-71382464D01*
X159045318Y-71293488D01*
X159058952Y-71171998D01*
X159061714Y-71120000D01*
X159064733Y-71021960D01*
X159062775Y-70954908D01*
X159061929Y-70950151D01*
X158784929Y-70950151D01*
X158761055Y-70984673D01*
X158759772Y-70985627D01*
X158715136Y-71011074D01*
X158692467Y-71002350D01*
X158686500Y-70961250D01*
X158696655Y-70919509D01*
X158727585Y-70908333D01*
X158772130Y-70920759D01*
X158784929Y-70950151D01*
X159061929Y-70950151D01*
X159054365Y-70907645D01*
X159038030Y-70868968D01*
X159026010Y-70848685D01*
X158968210Y-70783501D01*
X158886300Y-70737131D01*
X158775166Y-70707692D01*
X158629693Y-70693302D01*
X158600649Y-70692200D01*
X158400750Y-70686083D01*
X158395021Y-71114708D01*
G37*
X158395021Y-71114708D02*
X158389291Y-71543333D01*
X158585521Y-71541514D01*
X158679018Y-71538955D01*
X158761883Y-71533664D01*
X158821056Y-71526594D01*
X158835903Y-71523262D01*
X158919211Y-71490456D01*
X158979309Y-71445822D01*
X159020057Y-71382464D01*
X159045318Y-71293488D01*
X159058952Y-71171998D01*
X159061714Y-71120000D01*
X159064733Y-71021960D01*
X159062775Y-70954908D01*
X159061929Y-70950151D01*
X158784929Y-70950151D01*
X158761055Y-70984673D01*
X158759772Y-70985627D01*
X158715136Y-71011074D01*
X158692467Y-71002350D01*
X158686500Y-70961250D01*
X158696655Y-70919509D01*
X158727585Y-70908333D01*
X158772130Y-70920759D01*
X158784929Y-70950151D01*
X159061929Y-70950151D01*
X159054365Y-70907645D01*
X159038030Y-70868968D01*
X159026010Y-70848685D01*
X158968210Y-70783501D01*
X158886300Y-70737131D01*
X158775166Y-70707692D01*
X158629693Y-70693302D01*
X158600649Y-70692200D01*
X158400750Y-70686083D01*
X158395021Y-71114708D01*
G36*
X157142810Y-70043918D02*
G01*
X157022579Y-70049986D01*
X156934895Y-70062065D01*
X156870030Y-70083949D01*
X156818257Y-70119435D01*
X156769848Y-70172319D01*
X156751058Y-70196764D01*
X156737365Y-70217452D01*
X156726757Y-70241999D01*
X156718752Y-70275936D01*
X156712872Y-70324793D01*
X156708634Y-70394100D01*
X156705560Y-70489387D01*
X156703168Y-70616185D01*
X156701075Y-70772126D01*
X156699400Y-70951685D01*
X156699967Y-71094152D01*
X156703810Y-71204751D01*
X156711961Y-71288706D01*
X156725453Y-71351240D01*
X156745320Y-71397578D01*
X156772595Y-71432942D01*
X156808310Y-71462558D01*
X156841962Y-71484577D01*
X156884755Y-71507074D01*
X156933472Y-71522195D01*
X156998592Y-71531854D01*
X157090591Y-71537963D01*
X157146625Y-71540169D01*
X157374167Y-71548016D01*
X157374167Y-70633166D01*
X157077834Y-70633166D01*
X157077158Y-70778207D01*
X157074509Y-70885047D01*
X157068956Y-70957806D01*
X157059566Y-71000603D01*
X157045408Y-71017557D01*
X157025550Y-71012789D01*
X156999061Y-70990418D01*
X156997400Y-70988766D01*
X156987129Y-70957642D01*
X156979343Y-70893381D01*
X156974043Y-70805106D01*
X156971229Y-70701940D01*
X156970900Y-70593006D01*
X156973057Y-70487428D01*
X156977700Y-70394329D01*
X156984829Y-70322832D01*
X156994443Y-70282059D01*
X156997400Y-70277566D01*
X157024280Y-70254350D01*
X157044477Y-70248511D01*
X157058923Y-70264170D01*
X157068550Y-70305446D01*
X157074289Y-70376457D01*
X157077073Y-70481325D01*
X157077832Y-70624168D01*
X157077834Y-70633166D01*
X157374167Y-70633166D01*
X157374167Y-70036754D01*
X157142810Y-70043918D01*
G37*
X157142810Y-70043918D02*
X157022579Y-70049986D01*
X156934895Y-70062065D01*
X156870030Y-70083949D01*
X156818257Y-70119435D01*
X156769848Y-70172319D01*
X156751058Y-70196764D01*
X156737365Y-70217452D01*
X156726757Y-70241999D01*
X156718752Y-70275936D01*
X156712872Y-70324793D01*
X156708634Y-70394100D01*
X156705560Y-70489387D01*
X156703168Y-70616185D01*
X156701075Y-70772126D01*
X156699400Y-70951685D01*
X156699967Y-71094152D01*
X156703810Y-71204751D01*
X156711961Y-71288706D01*
X156725453Y-71351240D01*
X156745320Y-71397578D01*
X156772595Y-71432942D01*
X156808310Y-71462558D01*
X156841962Y-71484577D01*
X156884755Y-71507074D01*
X156933472Y-71522195D01*
X156998592Y-71531854D01*
X157090591Y-71537963D01*
X157146625Y-71540169D01*
X157374167Y-71548016D01*
X157374167Y-70633166D01*
X157077834Y-70633166D01*
X157077158Y-70778207D01*
X157074509Y-70885047D01*
X157068956Y-70957806D01*
X157059566Y-71000603D01*
X157045408Y-71017557D01*
X157025550Y-71012789D01*
X156999061Y-70990418D01*
X156997400Y-70988766D01*
X156987129Y-70957642D01*
X156979343Y-70893381D01*
X156974043Y-70805106D01*
X156971229Y-70701940D01*
X156970900Y-70593006D01*
X156973057Y-70487428D01*
X156977700Y-70394329D01*
X156984829Y-70322832D01*
X156994443Y-70282059D01*
X156997400Y-70277566D01*
X157024280Y-70254350D01*
X157044477Y-70248511D01*
X157058923Y-70264170D01*
X157068550Y-70305446D01*
X157074289Y-70376457D01*
X157077073Y-70481325D01*
X157077832Y-70624168D01*
X157077834Y-70633166D01*
X157374167Y-70633166D01*
X157374167Y-70036754D01*
X157142810Y-70043918D01*
G36*
X154664834Y-69934666D02*
G01*
X155059253Y-69934666D01*
X155223268Y-69935707D01*
X155351624Y-69939660D01*
X155450961Y-69947768D01*
X155527921Y-69961276D01*
X155589143Y-69981428D01*
X155641270Y-70009467D01*
X155690941Y-70046639D01*
X155700632Y-70054822D01*
X155780356Y-70147624D01*
X155820860Y-70254710D01*
X155822779Y-70361274D01*
X155805460Y-70441664D01*
X155773819Y-70505319D01*
X155721989Y-70556945D01*
X155644100Y-70601250D01*
X155534283Y-70642940D01*
X155433263Y-70673662D01*
X155316981Y-70708303D01*
X155233970Y-70737917D01*
X155176314Y-70767273D01*
X155136098Y-70801142D01*
X155105410Y-70844293D01*
X155084828Y-70883669D01*
X155061729Y-70938283D01*
X155050409Y-70990321D01*
X155049076Y-71055047D01*
X155055017Y-71137669D01*
X155076276Y-71282649D01*
X155111350Y-71390825D01*
X155161918Y-71465952D01*
X155220801Y-71507815D01*
X155254713Y-71520696D01*
X155298598Y-71530149D01*
X155358956Y-71536658D01*
X155442288Y-71540703D01*
X155555093Y-71542768D01*
X155699908Y-71543333D01*
X156104167Y-71543333D01*
X156104167Y-71015143D01*
X155728459Y-71009363D01*
X155593947Y-71007063D01*
X155495886Y-71004424D01*
X155428395Y-71000701D01*
X155385592Y-70995145D01*
X155361598Y-70987010D01*
X155350531Y-70975548D01*
X155346629Y-70960862D01*
X155348021Y-70938446D01*
X155365301Y-70922546D01*
X155406575Y-70909589D01*
X155479951Y-70896001D01*
X155501751Y-70892486D01*
X155670937Y-70849822D01*
X155817764Y-70781241D01*
X155938341Y-70690389D01*
X156028779Y-70580908D01*
X156085185Y-70456443D01*
X156103702Y-70328705D01*
X156085915Y-70176908D01*
X156030819Y-70044302D01*
X155937989Y-69930260D01*
X155807002Y-69834152D01*
X155749064Y-69803152D01*
X155607856Y-69733583D01*
X155136345Y-69726836D01*
X154664834Y-69720090D01*
X154664834Y-69934666D01*
G37*
X154664834Y-69934666D02*
X155059253Y-69934666D01*
X155223268Y-69935707D01*
X155351624Y-69939660D01*
X155450961Y-69947768D01*
X155527921Y-69961276D01*
X155589143Y-69981428D01*
X155641270Y-70009467D01*
X155690941Y-70046639D01*
X155700632Y-70054822D01*
X155780356Y-70147624D01*
X155820860Y-70254710D01*
X155822779Y-70361274D01*
X155805460Y-70441664D01*
X155773819Y-70505319D01*
X155721989Y-70556945D01*
X155644100Y-70601250D01*
X155534283Y-70642940D01*
X155433263Y-70673662D01*
X155316981Y-70708303D01*
X155233970Y-70737917D01*
X155176314Y-70767273D01*
X155136098Y-70801142D01*
X155105410Y-70844293D01*
X155084828Y-70883669D01*
X155061729Y-70938283D01*
X155050409Y-70990321D01*
X155049076Y-71055047D01*
X155055017Y-71137669D01*
X155076276Y-71282649D01*
X155111350Y-71390825D01*
X155161918Y-71465952D01*
X155220801Y-71507815D01*
X155254713Y-71520696D01*
X155298598Y-71530149D01*
X155358956Y-71536658D01*
X155442288Y-71540703D01*
X155555093Y-71542768D01*
X155699908Y-71543333D01*
X156104167Y-71543333D01*
X156104167Y-71015143D01*
X155728459Y-71009363D01*
X155593947Y-71007063D01*
X155495886Y-71004424D01*
X155428395Y-71000701D01*
X155385592Y-70995145D01*
X155361598Y-70987010D01*
X155350531Y-70975548D01*
X155346629Y-70960862D01*
X155348021Y-70938446D01*
X155365301Y-70922546D01*
X155406575Y-70909589D01*
X155479951Y-70896001D01*
X155501751Y-70892486D01*
X155670937Y-70849822D01*
X155817764Y-70781241D01*
X155938341Y-70690389D01*
X156028779Y-70580908D01*
X156085185Y-70456443D01*
X156103702Y-70328705D01*
X156085915Y-70176908D01*
X156030819Y-70044302D01*
X155937989Y-69930260D01*
X155807002Y-69834152D01*
X155749064Y-69803152D01*
X155607856Y-69733583D01*
X155136345Y-69726836D01*
X154664834Y-69720090D01*
X154664834Y-69934666D01*
G36*
X145055167Y-71543333D02*
G01*
X145250959Y-71541514D01*
X145344368Y-71538950D01*
X145427148Y-71533649D01*
X145486218Y-71526566D01*
X145500903Y-71523262D01*
X145582002Y-71490804D01*
X145640872Y-71445628D01*
X145681313Y-71380930D01*
X145707127Y-71289908D01*
X145722115Y-71165761D01*
X145725002Y-71122202D01*
X145728723Y-71024396D01*
X145725495Y-70956083D01*
X145724161Y-70950151D01*
X145449929Y-70950151D01*
X145426055Y-70984673D01*
X145424772Y-70985627D01*
X145380136Y-71011074D01*
X145357467Y-71002350D01*
X145351500Y-70961250D01*
X145361655Y-70919509D01*
X145392585Y-70908333D01*
X145437130Y-70920759D01*
X145449929Y-70950151D01*
X145724161Y-70950151D01*
X145713954Y-70904794D01*
X145696969Y-70866000D01*
X145644699Y-70797718D01*
X145565681Y-70746646D01*
X145455647Y-70711011D01*
X145310329Y-70689039D01*
X145261542Y-70685009D01*
X145055167Y-70670465D01*
X145055167Y-71543333D01*
G37*
X145055167Y-71543333D02*
X145250959Y-71541514D01*
X145344368Y-71538950D01*
X145427148Y-71533649D01*
X145486218Y-71526566D01*
X145500903Y-71523262D01*
X145582002Y-71490804D01*
X145640872Y-71445628D01*
X145681313Y-71380930D01*
X145707127Y-71289908D01*
X145722115Y-71165761D01*
X145725002Y-71122202D01*
X145728723Y-71024396D01*
X145725495Y-70956083D01*
X145724161Y-70950151D01*
X145449929Y-70950151D01*
X145426055Y-70984673D01*
X145424772Y-70985627D01*
X145380136Y-71011074D01*
X145357467Y-71002350D01*
X145351500Y-70961250D01*
X145361655Y-70919509D01*
X145392585Y-70908333D01*
X145437130Y-70920759D01*
X145449929Y-70950151D01*
X145724161Y-70950151D01*
X145713954Y-70904794D01*
X145696969Y-70866000D01*
X145644699Y-70797718D01*
X145565681Y-70746646D01*
X145455647Y-70711011D01*
X145310329Y-70689039D01*
X145261542Y-70685009D01*
X145055167Y-70670465D01*
X145055167Y-71543333D01*
G36*
X143764000Y-69723000D02*
G01*
X143383000Y-69723000D01*
X143383000Y-70252166D01*
X143764000Y-70252166D01*
X143764000Y-70611255D01*
X143763917Y-70751078D01*
X143761527Y-70854166D01*
X143753620Y-70926106D01*
X143736986Y-70972487D01*
X143708415Y-70998898D01*
X143664697Y-71010925D01*
X143602623Y-71014159D01*
X143532559Y-71014166D01*
X143383000Y-71014166D01*
X143383000Y-71543333D01*
X143568209Y-71542404D01*
X143663875Y-71538669D01*
X143753335Y-71529576D01*
X143820681Y-71516887D01*
X143832993Y-71513079D01*
X143915579Y-71476338D01*
X143970575Y-71430508D01*
X144008813Y-71371301D01*
X144015668Y-71352075D01*
X144021447Y-71320896D01*
X144026237Y-71274465D01*
X144030121Y-71209480D01*
X144033185Y-71122642D01*
X144035512Y-71010649D01*
X144037189Y-70870203D01*
X144038300Y-70698002D01*
X144038929Y-70490746D01*
X144039161Y-70245136D01*
X144039167Y-70189717D01*
X144039167Y-69066833D01*
X143764000Y-69066833D01*
X143764000Y-69723000D01*
G37*
X143764000Y-69723000D02*
X143383000Y-69723000D01*
X143383000Y-70252166D01*
X143764000Y-70252166D01*
X143764000Y-70611255D01*
X143763917Y-70751078D01*
X143761527Y-70854166D01*
X143753620Y-70926106D01*
X143736986Y-70972487D01*
X143708415Y-70998898D01*
X143664697Y-71010925D01*
X143602623Y-71014159D01*
X143532559Y-71014166D01*
X143383000Y-71014166D01*
X143383000Y-71543333D01*
X143568209Y-71542404D01*
X143663875Y-71538669D01*
X143753335Y-71529576D01*
X143820681Y-71516887D01*
X143832993Y-71513079D01*
X143915579Y-71476338D01*
X143970575Y-71430508D01*
X144008813Y-71371301D01*
X144015668Y-71352075D01*
X144021447Y-71320896D01*
X144026237Y-71274465D01*
X144030121Y-71209480D01*
X144033185Y-71122642D01*
X144035512Y-71010649D01*
X144037189Y-70870203D01*
X144038300Y-70698002D01*
X144038929Y-70490746D01*
X144039161Y-70245136D01*
X144039167Y-70189717D01*
X144039167Y-69066833D01*
X143764000Y-69066833D01*
X143764000Y-69723000D01*
G36*
X141392159Y-70061421D02*
G01*
X141351198Y-70079771D01*
X141283679Y-70135635D01*
X141226903Y-70217600D01*
X141190279Y-70309455D01*
X141181667Y-70371912D01*
X141181667Y-70442666D01*
X141456834Y-70442666D01*
X141456834Y-70372816D01*
X141466972Y-70306677D01*
X141494249Y-70269181D01*
X141533496Y-70266668D01*
X141544629Y-70279242D01*
X141552681Y-70310664D01*
X141558071Y-70366232D01*
X141561220Y-70451249D01*
X141562550Y-70571013D01*
X141562667Y-70634182D01*
X141561350Y-70777264D01*
X141557524Y-70888183D01*
X141551373Y-70963835D01*
X141543082Y-71001115D01*
X141540573Y-71004156D01*
X141507198Y-71004207D01*
X141474795Y-70976837D01*
X141457318Y-70934917D01*
X141456834Y-70926908D01*
X141451801Y-70905312D01*
X141430558Y-70893268D01*
X141383892Y-70888116D01*
X141319250Y-70887166D01*
X141181667Y-70887166D01*
X141181667Y-71106286D01*
X141182740Y-71209199D01*
X141187120Y-71280355D01*
X141196547Y-71330302D01*
X141212764Y-71369586D01*
X141229714Y-71397328D01*
X141307147Y-71477045D01*
X141408395Y-71527656D01*
X141509750Y-71543267D01*
X141587291Y-71533289D01*
X141662405Y-71508993D01*
X141668079Y-71506258D01*
X141730156Y-71462583D01*
X141784638Y-71404672D01*
X141789787Y-71397328D01*
X141804561Y-71373806D01*
X141815948Y-71349278D01*
X141824389Y-71318195D01*
X141830324Y-71275007D01*
X141834194Y-71214165D01*
X141836439Y-71130119D01*
X141837500Y-71017319D01*
X141837817Y-70870215D01*
X141837834Y-70791916D01*
X141837704Y-70627668D01*
X141837025Y-70500222D01*
X141835360Y-70404050D01*
X141832271Y-70333619D01*
X141827323Y-70283402D01*
X141820079Y-70247866D01*
X141810102Y-70221483D01*
X141796955Y-70198722D01*
X141790209Y-70188655D01*
X141711224Y-70107740D01*
X141611648Y-70057849D01*
X141501841Y-70041553D01*
X141392159Y-70061421D01*
G37*
X141392159Y-70061421D02*
X141351198Y-70079771D01*
X141283679Y-70135635D01*
X141226903Y-70217600D01*
X141190279Y-70309455D01*
X141181667Y-70371912D01*
X141181667Y-70442666D01*
X141456834Y-70442666D01*
X141456834Y-70372816D01*
X141466972Y-70306677D01*
X141494249Y-70269181D01*
X141533496Y-70266668D01*
X141544629Y-70279242D01*
X141552681Y-70310664D01*
X141558071Y-70366232D01*
X141561220Y-70451249D01*
X141562550Y-70571013D01*
X141562667Y-70634182D01*
X141561350Y-70777264D01*
X141557524Y-70888183D01*
X141551373Y-70963835D01*
X141543082Y-71001115D01*
X141540573Y-71004156D01*
X141507198Y-71004207D01*
X141474795Y-70976837D01*
X141457318Y-70934917D01*
X141456834Y-70926908D01*
X141451801Y-70905312D01*
X141430558Y-70893268D01*
X141383892Y-70888116D01*
X141319250Y-70887166D01*
X141181667Y-70887166D01*
X141181667Y-71106286D01*
X141182740Y-71209199D01*
X141187120Y-71280355D01*
X141196547Y-71330302D01*
X141212764Y-71369586D01*
X141229714Y-71397328D01*
X141307147Y-71477045D01*
X141408395Y-71527656D01*
X141509750Y-71543267D01*
X141587291Y-71533289D01*
X141662405Y-71508993D01*
X141668079Y-71506258D01*
X141730156Y-71462583D01*
X141784638Y-71404672D01*
X141789787Y-71397328D01*
X141804561Y-71373806D01*
X141815948Y-71349278D01*
X141824389Y-71318195D01*
X141830324Y-71275007D01*
X141834194Y-71214165D01*
X141836439Y-71130119D01*
X141837500Y-71017319D01*
X141837817Y-70870215D01*
X141837834Y-70791916D01*
X141837704Y-70627668D01*
X141837025Y-70500222D01*
X141835360Y-70404050D01*
X141832271Y-70333619D01*
X141827323Y-70283402D01*
X141820079Y-70247866D01*
X141810102Y-70221483D01*
X141796955Y-70198722D01*
X141790209Y-70188655D01*
X141711224Y-70107740D01*
X141611648Y-70057849D01*
X141501841Y-70041553D01*
X141392159Y-70061421D01*
G36*
X149627167Y-71162333D02*
G01*
X150368000Y-71162333D01*
X150368000Y-70633166D01*
X149627167Y-70633166D01*
X149627167Y-71162333D01*
G37*
X149627167Y-71162333D02*
X150368000Y-71162333D01*
X150368000Y-70633166D01*
X149627167Y-70633166D01*
X149627167Y-71162333D01*
G36*
X152082500Y-71120000D02*
G01*
X152823334Y-71120000D01*
X152823334Y-70612000D01*
X152082500Y-70612000D01*
X152082500Y-71120000D01*
G37*
X152082500Y-71120000D02*
X152823334Y-71120000D01*
X152823334Y-70612000D01*
X152082500Y-70612000D01*
X152082500Y-71120000D01*
G36*
X153664083Y-70027105D02*
G01*
X153552006Y-70061076D01*
X153460000Y-70123610D01*
X153419981Y-70167181D01*
X153400663Y-70211727D01*
X153394963Y-70275771D01*
X153394834Y-70294037D01*
X153407814Y-70388861D01*
X153448496Y-70462016D01*
X153519488Y-70515029D01*
X153623401Y-70549425D01*
X153762844Y-70566731D01*
X153865792Y-70569548D01*
X154051000Y-70569666D01*
X154051000Y-70380794D01*
X154050517Y-70322164D01*
X153775834Y-70322164D01*
X153765616Y-70351305D01*
X153742353Y-70349681D01*
X153702027Y-70338259D01*
X153689436Y-70336833D01*
X153672291Y-70321179D01*
X153671917Y-70287387D01*
X153686208Y-70255210D01*
X153699171Y-70245501D01*
X153738673Y-70249058D01*
X153767822Y-70283192D01*
X153775834Y-70322164D01*
X154050517Y-70322164D01*
X154050250Y-70289800D01*
X154046107Y-70229973D01*
X154035734Y-70190151D01*
X154016294Y-70159171D01*
X153986626Y-70127548D01*
X153891479Y-70060416D01*
X153780603Y-70026910D01*
X153664083Y-70027105D01*
G37*
X153664083Y-70027105D02*
X153552006Y-70061076D01*
X153460000Y-70123610D01*
X153419981Y-70167181D01*
X153400663Y-70211727D01*
X153394963Y-70275771D01*
X153394834Y-70294037D01*
X153407814Y-70388861D01*
X153448496Y-70462016D01*
X153519488Y-70515029D01*
X153623401Y-70549425D01*
X153762844Y-70566731D01*
X153865792Y-70569548D01*
X154051000Y-70569666D01*
X154051000Y-70380794D01*
X154050517Y-70322164D01*
X153775834Y-70322164D01*
X153765616Y-70351305D01*
X153742353Y-70349681D01*
X153702027Y-70338259D01*
X153689436Y-70336833D01*
X153672291Y-70321179D01*
X153671917Y-70287387D01*
X153686208Y-70255210D01*
X153699171Y-70245501D01*
X153738673Y-70249058D01*
X153767822Y-70283192D01*
X153775834Y-70322164D01*
X154050517Y-70322164D01*
X154050250Y-70289800D01*
X154046107Y-70229973D01*
X154035734Y-70190151D01*
X154016294Y-70159171D01*
X153986626Y-70127548D01*
X153891479Y-70060416D01*
X153780603Y-70026910D01*
X153664083Y-70027105D01*
G36*
X142737997Y-69079051D02*
G01*
X142643188Y-69111281D01*
X142566935Y-69164859D01*
X142512744Y-69233649D01*
X142484119Y-69311513D01*
X142484565Y-69392316D01*
X142517586Y-69469920D01*
X142584016Y-69536308D01*
X142657721Y-69569693D01*
X142755162Y-69588845D01*
X142859805Y-69592586D01*
X142955114Y-69579733D01*
X142996292Y-69565745D01*
X143060920Y-69519459D01*
X143114592Y-69451201D01*
X143146110Y-69377026D01*
X143150088Y-69345198D01*
X143132320Y-69261220D01*
X143085997Y-69180661D01*
X143022143Y-69122511D01*
X142962482Y-69098045D01*
X142884550Y-69079303D01*
X142847860Y-69074306D01*
X142737997Y-69079051D01*
G37*
X142737997Y-69079051D02*
X142643188Y-69111281D01*
X142566935Y-69164859D01*
X142512744Y-69233649D01*
X142484119Y-69311513D01*
X142484565Y-69392316D01*
X142517586Y-69469920D01*
X142584016Y-69536308D01*
X142657721Y-69569693D01*
X142755162Y-69588845D01*
X142859805Y-69592586D01*
X142955114Y-69579733D01*
X142996292Y-69565745D01*
X143060920Y-69519459D01*
X143114592Y-69451201D01*
X143146110Y-69377026D01*
X143150088Y-69345198D01*
X143132320Y-69261220D01*
X143085997Y-69180661D01*
X143022143Y-69122511D01*
X142962482Y-69098045D01*
X142884550Y-69079303D01*
X142847860Y-69074306D01*
X142737997Y-69079051D01*
G36*
X154086527Y-67310182D02*
G01*
X153991920Y-67311258D01*
X153927147Y-67314019D01*
X153885959Y-67319257D01*
X153862108Y-67327764D01*
X153849344Y-67340334D01*
X153841467Y-67357625D01*
X153836486Y-67388947D01*
X153830319Y-67456085D01*
X153823265Y-67552865D01*
X153815623Y-67673113D01*
X153807692Y-67810657D01*
X153799771Y-67959323D01*
X153792158Y-68112937D01*
X153785153Y-68265327D01*
X153779054Y-68410318D01*
X153774159Y-68541737D01*
X153770769Y-68653412D01*
X153769181Y-68739167D01*
X153769695Y-68792831D01*
X153771284Y-68807541D01*
X153792368Y-68821429D01*
X153846680Y-68830002D01*
X153938011Y-68833743D01*
X153979182Y-68834000D01*
X154178000Y-68834000D01*
X154178000Y-68611750D01*
X154178951Y-68509359D01*
X154182768Y-68440223D01*
X154190901Y-68395284D01*
X154204798Y-68365486D01*
X154220334Y-68347166D01*
X154283741Y-68310234D01*
X154355548Y-68312653D01*
X154406124Y-68337783D01*
X154429060Y-68357877D01*
X154443102Y-68385382D01*
X154450406Y-68430187D01*
X154453131Y-68502178D01*
X154453456Y-68554741D01*
X154454563Y-68666733D01*
X154459454Y-68743428D01*
X154471111Y-68791859D01*
X154492514Y-68819054D01*
X154526642Y-68832043D01*
X154573372Y-68837614D01*
X154632309Y-68839247D01*
X154670788Y-68834594D01*
X154677423Y-68830754D01*
X154679923Y-68804377D01*
X154679876Y-68741784D01*
X154677603Y-68648942D01*
X154673425Y-68531819D01*
X154667664Y-68396382D01*
X154660641Y-68248597D01*
X154652679Y-68094431D01*
X154644791Y-67952323D01*
X154262906Y-67952323D01*
X154262009Y-68034443D01*
X154256130Y-68107664D01*
X154245232Y-68159247D01*
X154237267Y-68173600D01*
X154201074Y-68189779D01*
X154142589Y-68198506D01*
X154125084Y-68199000D01*
X154063946Y-68193142D01*
X154019565Y-68178578D01*
X154012900Y-68173600D01*
X153999173Y-68137785D01*
X153990413Y-68066844D01*
X153987500Y-67973004D01*
X153988437Y-67885886D01*
X153992978Y-67830773D01*
X154003718Y-67797349D01*
X154023251Y-67775296D01*
X154040263Y-67763237D01*
X154108693Y-67741311D01*
X154184308Y-67751236D01*
X154236090Y-67779960D01*
X154249909Y-67812342D01*
X154258860Y-67874043D01*
X154262906Y-67952323D01*
X154644791Y-67952323D01*
X154644098Y-67939852D01*
X154635220Y-67790827D01*
X154626367Y-67653322D01*
X154617860Y-67533304D01*
X154610021Y-67436741D01*
X154603171Y-67369599D01*
X154597632Y-67337846D01*
X154596897Y-67336458D01*
X154574340Y-67325797D01*
X154524291Y-67318105D01*
X154442772Y-67313106D01*
X154325808Y-67310521D01*
X154217218Y-67310000D01*
X154086527Y-67310182D01*
G37*
X154086527Y-67310182D02*
X153991920Y-67311258D01*
X153927147Y-67314019D01*
X153885959Y-67319257D01*
X153862108Y-67327764D01*
X153849344Y-67340334D01*
X153841467Y-67357625D01*
X153836486Y-67388947D01*
X153830319Y-67456085D01*
X153823265Y-67552865D01*
X153815623Y-67673113D01*
X153807692Y-67810657D01*
X153799771Y-67959323D01*
X153792158Y-68112937D01*
X153785153Y-68265327D01*
X153779054Y-68410318D01*
X153774159Y-68541737D01*
X153770769Y-68653412D01*
X153769181Y-68739167D01*
X153769695Y-68792831D01*
X153771284Y-68807541D01*
X153792368Y-68821429D01*
X153846680Y-68830002D01*
X153938011Y-68833743D01*
X153979182Y-68834000D01*
X154178000Y-68834000D01*
X154178000Y-68611750D01*
X154178951Y-68509359D01*
X154182768Y-68440223D01*
X154190901Y-68395284D01*
X154204798Y-68365486D01*
X154220334Y-68347166D01*
X154283741Y-68310234D01*
X154355548Y-68312653D01*
X154406124Y-68337783D01*
X154429060Y-68357877D01*
X154443102Y-68385382D01*
X154450406Y-68430187D01*
X154453131Y-68502178D01*
X154453456Y-68554741D01*
X154454563Y-68666733D01*
X154459454Y-68743428D01*
X154471111Y-68791859D01*
X154492514Y-68819054D01*
X154526642Y-68832043D01*
X154573372Y-68837614D01*
X154632309Y-68839247D01*
X154670788Y-68834594D01*
X154677423Y-68830754D01*
X154679923Y-68804377D01*
X154679876Y-68741784D01*
X154677603Y-68648942D01*
X154673425Y-68531819D01*
X154667664Y-68396382D01*
X154660641Y-68248597D01*
X154652679Y-68094431D01*
X154644791Y-67952323D01*
X154262906Y-67952323D01*
X154262009Y-68034443D01*
X154256130Y-68107664D01*
X154245232Y-68159247D01*
X154237267Y-68173600D01*
X154201074Y-68189779D01*
X154142589Y-68198506D01*
X154125084Y-68199000D01*
X154063946Y-68193142D01*
X154019565Y-68178578D01*
X154012900Y-68173600D01*
X153999173Y-68137785D01*
X153990413Y-68066844D01*
X153987500Y-67973004D01*
X153988437Y-67885886D01*
X153992978Y-67830773D01*
X154003718Y-67797349D01*
X154023251Y-67775296D01*
X154040263Y-67763237D01*
X154108693Y-67741311D01*
X154184308Y-67751236D01*
X154236090Y-67779960D01*
X154249909Y-67812342D01*
X154258860Y-67874043D01*
X154262906Y-67952323D01*
X154644791Y-67952323D01*
X154644098Y-67939852D01*
X154635220Y-67790827D01*
X154626367Y-67653322D01*
X154617860Y-67533304D01*
X154610021Y-67436741D01*
X154603171Y-67369599D01*
X154597632Y-67337846D01*
X154596897Y-67336458D01*
X154574340Y-67325797D01*
X154524291Y-67318105D01*
X154442772Y-67313106D01*
X154325808Y-67310521D01*
X154217218Y-67310000D01*
X154086527Y-67310182D01*
G36*
X156959105Y-67311624D02*
G01*
X156876304Y-67319718D01*
X156820259Y-67338053D01*
X156785792Y-67370672D01*
X156767723Y-67421616D01*
X156760876Y-67494926D01*
X156760070Y-67594643D01*
X156760334Y-67673165D01*
X156761949Y-67780754D01*
X156766353Y-67877303D01*
X156772882Y-67952546D01*
X156780874Y-67996217D01*
X156781280Y-67997335D01*
X156792644Y-68023078D01*
X156808817Y-68038911D01*
X156838694Y-68046845D01*
X156891171Y-68048888D01*
X156975143Y-68047049D01*
X156998238Y-68046338D01*
X157194250Y-68040250D01*
X157205151Y-67931996D01*
X157221158Y-67841866D01*
X157250726Y-67786705D01*
X157299340Y-67759925D01*
X157353000Y-67754500D01*
X157409045Y-67759073D01*
X157445987Y-67777347D01*
X157467219Y-67816146D01*
X157476135Y-67882299D01*
X157476127Y-67982632D01*
X157475563Y-68001115D01*
X157469417Y-68188416D01*
X157141334Y-68194037D01*
X157013370Y-68196842D01*
X156921287Y-68200679D01*
X156858636Y-68206296D01*
X156818964Y-68214442D01*
X156795823Y-68225864D01*
X156786792Y-68235125D01*
X156775204Y-68272039D01*
X156766823Y-68340225D01*
X156761763Y-68428732D01*
X156760143Y-68526613D01*
X156762080Y-68622917D01*
X156767690Y-68706696D01*
X156777090Y-68767000D01*
X156780977Y-68779705D01*
X156801619Y-68834000D01*
X157232532Y-68834000D01*
X157363518Y-68833336D01*
X157479867Y-68831484D01*
X157575021Y-68828651D01*
X157642423Y-68825046D01*
X157675516Y-68820876D01*
X157677556Y-68819888D01*
X157686553Y-68789680D01*
X157691343Y-68729685D01*
X157692268Y-68652206D01*
X157689672Y-68569545D01*
X157683898Y-68494003D01*
X157675288Y-68437883D01*
X157666267Y-68414900D01*
X157632921Y-68402325D01*
X157570639Y-68393833D01*
X157492661Y-68389880D01*
X157412228Y-68390922D01*
X157342582Y-68397413D01*
X157315959Y-68402841D01*
X157287894Y-68415584D01*
X157273616Y-68442064D01*
X157268686Y-68493948D01*
X157268334Y-68528015D01*
X157265180Y-68598373D01*
X157251889Y-68642417D01*
X157222716Y-68675939D01*
X157211042Y-68685493D01*
X157149414Y-68718058D01*
X157100035Y-68717078D01*
X157044758Y-68698057D01*
X157012521Y-68668812D01*
X156998218Y-68619491D01*
X156996745Y-68540244D01*
X156997568Y-68519341D01*
X157000944Y-68459239D01*
X157008874Y-68415562D01*
X157027313Y-68385629D01*
X157062219Y-68366756D01*
X157119550Y-68356261D01*
X157205262Y-68351462D01*
X157325312Y-68349675D01*
X157375225Y-68349276D01*
X157509872Y-68346015D01*
X157603917Y-68338731D01*
X157656715Y-68327485D01*
X157666267Y-68321766D01*
X157675547Y-68297624D01*
X157682563Y-68244088D01*
X157687475Y-68158095D01*
X157690444Y-68036584D01*
X157691630Y-67876494D01*
X157691667Y-67836445D01*
X157691266Y-67681609D01*
X157689820Y-67563709D01*
X157686966Y-67477351D01*
X157682340Y-67417144D01*
X157675577Y-67377696D01*
X157666316Y-67353612D01*
X157658405Y-67343261D01*
X157640431Y-67331335D01*
X157609935Y-67322558D01*
X157561108Y-67316483D01*
X157488137Y-67312664D01*
X157385214Y-67310654D01*
X157246528Y-67310007D01*
X157225689Y-67310000D01*
X157073840Y-67309732D01*
X156959105Y-67311624D01*
G37*
X156959105Y-67311624D02*
X156876304Y-67319718D01*
X156820259Y-67338053D01*
X156785792Y-67370672D01*
X156767723Y-67421616D01*
X156760876Y-67494926D01*
X156760070Y-67594643D01*
X156760334Y-67673165D01*
X156761949Y-67780754D01*
X156766353Y-67877303D01*
X156772882Y-67952546D01*
X156780874Y-67996217D01*
X156781280Y-67997335D01*
X156792644Y-68023078D01*
X156808817Y-68038911D01*
X156838694Y-68046845D01*
X156891171Y-68048888D01*
X156975143Y-68047049D01*
X156998238Y-68046338D01*
X157194250Y-68040250D01*
X157205151Y-67931996D01*
X157221158Y-67841866D01*
X157250726Y-67786705D01*
X157299340Y-67759925D01*
X157353000Y-67754500D01*
X157409045Y-67759073D01*
X157445987Y-67777347D01*
X157467219Y-67816146D01*
X157476135Y-67882299D01*
X157476127Y-67982632D01*
X157475563Y-68001115D01*
X157469417Y-68188416D01*
X157141334Y-68194037D01*
X157013370Y-68196842D01*
X156921287Y-68200679D01*
X156858636Y-68206296D01*
X156818964Y-68214442D01*
X156795823Y-68225864D01*
X156786792Y-68235125D01*
X156775204Y-68272039D01*
X156766823Y-68340225D01*
X156761763Y-68428732D01*
X156760143Y-68526613D01*
X156762080Y-68622917D01*
X156767690Y-68706696D01*
X156777090Y-68767000D01*
X156780977Y-68779705D01*
X156801619Y-68834000D01*
X157232532Y-68834000D01*
X157363518Y-68833336D01*
X157479867Y-68831484D01*
X157575021Y-68828651D01*
X157642423Y-68825046D01*
X157675516Y-68820876D01*
X157677556Y-68819888D01*
X157686553Y-68789680D01*
X157691343Y-68729685D01*
X157692268Y-68652206D01*
X157689672Y-68569545D01*
X157683898Y-68494003D01*
X157675288Y-68437883D01*
X157666267Y-68414900D01*
X157632921Y-68402325D01*
X157570639Y-68393833D01*
X157492661Y-68389880D01*
X157412228Y-68390922D01*
X157342582Y-68397413D01*
X157315959Y-68402841D01*
X157287894Y-68415584D01*
X157273616Y-68442064D01*
X157268686Y-68493948D01*
X157268334Y-68528015D01*
X157265180Y-68598373D01*
X157251889Y-68642417D01*
X157222716Y-68675939D01*
X157211042Y-68685493D01*
X157149414Y-68718058D01*
X157100035Y-68717078D01*
X157044758Y-68698057D01*
X157012521Y-68668812D01*
X156998218Y-68619491D01*
X156996745Y-68540244D01*
X156997568Y-68519341D01*
X157000944Y-68459239D01*
X157008874Y-68415562D01*
X157027313Y-68385629D01*
X157062219Y-68366756D01*
X157119550Y-68356261D01*
X157205262Y-68351462D01*
X157325312Y-68349675D01*
X157375225Y-68349276D01*
X157509872Y-68346015D01*
X157603917Y-68338731D01*
X157656715Y-68327485D01*
X157666267Y-68321766D01*
X157675547Y-68297624D01*
X157682563Y-68244088D01*
X157687475Y-68158095D01*
X157690444Y-68036584D01*
X157691630Y-67876494D01*
X157691667Y-67836445D01*
X157691266Y-67681609D01*
X157689820Y-67563709D01*
X157686966Y-67477351D01*
X157682340Y-67417144D01*
X157675577Y-67377696D01*
X157666316Y-67353612D01*
X157658405Y-67343261D01*
X157640431Y-67331335D01*
X157609935Y-67322558D01*
X157561108Y-67316483D01*
X157488137Y-67312664D01*
X157385214Y-67310654D01*
X157246528Y-67310007D01*
X157225689Y-67310000D01*
X157073840Y-67309732D01*
X156959105Y-67311624D01*
G36*
X156084811Y-67307282D02*
G01*
X155974195Y-67310434D01*
X155879492Y-67316310D01*
X155808939Y-67324952D01*
X155770777Y-67336402D01*
X155767811Y-67338965D01*
X155760776Y-67362494D01*
X155755345Y-67415670D01*
X155751460Y-67500775D01*
X155749068Y-67620089D01*
X155748112Y-67775893D01*
X155748536Y-67970467D01*
X155749344Y-68095674D01*
X155754917Y-68823416D01*
X156178885Y-68829131D01*
X156337177Y-68830470D01*
X156457086Y-68829550D01*
X156542512Y-68826196D01*
X156597356Y-68820235D01*
X156625518Y-68811492D01*
X156628677Y-68809023D01*
X156636230Y-68789899D01*
X156642309Y-68747090D01*
X156647027Y-68677462D01*
X156650494Y-68577881D01*
X156652821Y-68445214D01*
X156654119Y-68276327D01*
X156654207Y-68230725D01*
X156231167Y-68230725D01*
X156231167Y-68640427D01*
X156173875Y-68685493D01*
X156106330Y-68716862D01*
X156038759Y-68711764D01*
X155983337Y-68671182D01*
X155982459Y-68670045D01*
X155972220Y-68641859D01*
X155964671Y-68585420D01*
X155959596Y-68497131D01*
X155956781Y-68373394D01*
X155956000Y-68228216D01*
X155956533Y-68074922D01*
X155959129Y-67958809D01*
X155965283Y-67874726D01*
X155976492Y-67817523D01*
X155994250Y-67782050D01*
X156020054Y-67763159D01*
X156055398Y-67755699D01*
X156093584Y-67754500D01*
X156138001Y-67756313D01*
X156171673Y-67765179D01*
X156196084Y-67786234D01*
X156212718Y-67824615D01*
X156223059Y-67885459D01*
X156228591Y-67973901D01*
X156230797Y-68095079D01*
X156231167Y-68230725D01*
X156654207Y-68230725D01*
X156654500Y-68079861D01*
X156654289Y-67885632D01*
X156653524Y-67729429D01*
X156652012Y-67606948D01*
X156649559Y-67513883D01*
X156645969Y-67445928D01*
X156641049Y-67398780D01*
X156634604Y-67368132D01*
X156626439Y-67349679D01*
X156621239Y-67343261D01*
X156588182Y-67330938D01*
X156521600Y-67321090D01*
X156429733Y-67313759D01*
X156320819Y-67308986D01*
X156203099Y-67306813D01*
X156084811Y-67307282D01*
G37*
X156084811Y-67307282D02*
X155974195Y-67310434D01*
X155879492Y-67316310D01*
X155808939Y-67324952D01*
X155770777Y-67336402D01*
X155767811Y-67338965D01*
X155760776Y-67362494D01*
X155755345Y-67415670D01*
X155751460Y-67500775D01*
X155749068Y-67620089D01*
X155748112Y-67775893D01*
X155748536Y-67970467D01*
X155749344Y-68095674D01*
X155754917Y-68823416D01*
X156178885Y-68829131D01*
X156337177Y-68830470D01*
X156457086Y-68829550D01*
X156542512Y-68826196D01*
X156597356Y-68820235D01*
X156625518Y-68811492D01*
X156628677Y-68809023D01*
X156636230Y-68789899D01*
X156642309Y-68747090D01*
X156647027Y-68677462D01*
X156650494Y-68577881D01*
X156652821Y-68445214D01*
X156654119Y-68276327D01*
X156654207Y-68230725D01*
X156231167Y-68230725D01*
X156231167Y-68640427D01*
X156173875Y-68685493D01*
X156106330Y-68716862D01*
X156038759Y-68711764D01*
X155983337Y-68671182D01*
X155982459Y-68670045D01*
X155972220Y-68641859D01*
X155964671Y-68585420D01*
X155959596Y-68497131D01*
X155956781Y-68373394D01*
X155956000Y-68228216D01*
X155956533Y-68074922D01*
X155959129Y-67958809D01*
X155965283Y-67874726D01*
X155976492Y-67817523D01*
X155994250Y-67782050D01*
X156020054Y-67763159D01*
X156055398Y-67755699D01*
X156093584Y-67754500D01*
X156138001Y-67756313D01*
X156171673Y-67765179D01*
X156196084Y-67786234D01*
X156212718Y-67824615D01*
X156223059Y-67885459D01*
X156228591Y-67973901D01*
X156230797Y-68095079D01*
X156231167Y-68230725D01*
X156654207Y-68230725D01*
X156654500Y-68079861D01*
X156654289Y-67885632D01*
X156653524Y-67729429D01*
X156652012Y-67606948D01*
X156649559Y-67513883D01*
X156645969Y-67445928D01*
X156641049Y-67398780D01*
X156634604Y-67368132D01*
X156626439Y-67349679D01*
X156621239Y-67343261D01*
X156588182Y-67330938D01*
X156521600Y-67321090D01*
X156429733Y-67313759D01*
X156320819Y-67308986D01*
X156203099Y-67306813D01*
X156084811Y-67307282D01*
G36*
X155404007Y-67314379D02*
G01*
X155226055Y-67320583D01*
X155212532Y-67384083D01*
X155208948Y-67421268D01*
X155205544Y-67494736D01*
X155202465Y-67598437D01*
X155199854Y-67726321D01*
X155197858Y-67872337D01*
X155196619Y-68030434D01*
X155196505Y-68055380D01*
X155195649Y-68231914D01*
X155194485Y-68370834D01*
X155192690Y-68476858D01*
X155189936Y-68554707D01*
X155185899Y-68609098D01*
X155180253Y-68644751D01*
X155172672Y-68666384D01*
X155162830Y-68678718D01*
X155153059Y-68685088D01*
X155102482Y-68704560D01*
X155067759Y-68692507D01*
X155035639Y-68644250D01*
X155035250Y-68643500D01*
X155010662Y-68604762D01*
X154979666Y-68586049D01*
X154927128Y-68580275D01*
X154899592Y-68580000D01*
X154836445Y-68584243D01*
X154798100Y-68602465D01*
X154778490Y-68642897D01*
X154771551Y-68713773D01*
X154770956Y-68754625D01*
X154770667Y-68834000D01*
X155179889Y-68834000D01*
X155307435Y-68833301D01*
X155420228Y-68831357D01*
X155511524Y-68828392D01*
X155574578Y-68824629D01*
X155602646Y-68820296D01*
X155603223Y-68819888D01*
X155607207Y-68795373D01*
X155610480Y-68734490D01*
X155613057Y-68643202D01*
X155614953Y-68527468D01*
X155616184Y-68393250D01*
X155616767Y-68246506D01*
X155616715Y-68093199D01*
X155616047Y-67939289D01*
X155614776Y-67790735D01*
X155612918Y-67653500D01*
X155610490Y-67533542D01*
X155607507Y-67436824D01*
X155603984Y-67369304D01*
X155599938Y-67336944D01*
X155599322Y-67335546D01*
X155574763Y-67321141D01*
X155520573Y-67314010D01*
X155431269Y-67313559D01*
X155404007Y-67314379D01*
G37*
X155404007Y-67314379D02*
X155226055Y-67320583D01*
X155212532Y-67384083D01*
X155208948Y-67421268D01*
X155205544Y-67494736D01*
X155202465Y-67598437D01*
X155199854Y-67726321D01*
X155197858Y-67872337D01*
X155196619Y-68030434D01*
X155196505Y-68055380D01*
X155195649Y-68231914D01*
X155194485Y-68370834D01*
X155192690Y-68476858D01*
X155189936Y-68554707D01*
X155185899Y-68609098D01*
X155180253Y-68644751D01*
X155172672Y-68666384D01*
X155162830Y-68678718D01*
X155153059Y-68685088D01*
X155102482Y-68704560D01*
X155067759Y-68692507D01*
X155035639Y-68644250D01*
X155035250Y-68643500D01*
X155010662Y-68604762D01*
X154979666Y-68586049D01*
X154927128Y-68580275D01*
X154899592Y-68580000D01*
X154836445Y-68584243D01*
X154798100Y-68602465D01*
X154778490Y-68642897D01*
X154771551Y-68713773D01*
X154770956Y-68754625D01*
X154770667Y-68834000D01*
X155179889Y-68834000D01*
X155307435Y-68833301D01*
X155420228Y-68831357D01*
X155511524Y-68828392D01*
X155574578Y-68824629D01*
X155602646Y-68820296D01*
X155603223Y-68819888D01*
X155607207Y-68795373D01*
X155610480Y-68734490D01*
X155613057Y-68643202D01*
X155614953Y-68527468D01*
X155616184Y-68393250D01*
X155616767Y-68246506D01*
X155616715Y-68093199D01*
X155616047Y-67939289D01*
X155614776Y-67790735D01*
X155612918Y-67653500D01*
X155610490Y-67533542D01*
X155607507Y-67436824D01*
X155603984Y-67369304D01*
X155599938Y-67336944D01*
X155599322Y-67335546D01*
X155574763Y-67321141D01*
X155520573Y-67314010D01*
X155431269Y-67313559D01*
X155404007Y-67314379D01*
G36*
X152748355Y-67361312D02*
G01*
X152736007Y-67386441D01*
X152727362Y-67422353D01*
X152722014Y-67475474D01*
X152719557Y-67552226D01*
X152719583Y-67659037D01*
X152721409Y-67787011D01*
X152728084Y-68161397D01*
X152865920Y-68276377D01*
X152813890Y-68304223D01*
X152769175Y-68344389D01*
X152739680Y-68395693D01*
X152725734Y-68463337D01*
X152718722Y-68555759D01*
X152719046Y-68655914D01*
X152727103Y-68746754D01*
X152730938Y-68768897D01*
X152741741Y-68809682D01*
X152761083Y-68828319D01*
X152801901Y-68831891D01*
X152842063Y-68829751D01*
X152939750Y-68823416D01*
X152950334Y-68594097D01*
X152956099Y-68489983D01*
X152963091Y-68419852D01*
X152973003Y-68375357D01*
X152987531Y-68348149D01*
X153003250Y-68333491D01*
X153060250Y-68313903D01*
X153130039Y-68318648D01*
X153192055Y-68345985D01*
X153197025Y-68349884D01*
X153210995Y-68375950D01*
X153219986Y-68429988D01*
X153224582Y-68517225D01*
X153225500Y-68603758D01*
X153225500Y-68834000D01*
X153648834Y-68834000D01*
X153648545Y-68119625D01*
X153648121Y-67953206D01*
X153226149Y-67953206D01*
X153225855Y-68036217D01*
X153219797Y-68109765D01*
X153207788Y-68160975D01*
X153200100Y-68173600D01*
X153156270Y-68193293D01*
X153092562Y-68198030D01*
X153028428Y-68188517D01*
X152983596Y-68165738D01*
X152965085Y-68125216D01*
X152953595Y-68056849D01*
X152949333Y-67974574D01*
X152952502Y-67892327D01*
X152963306Y-67824044D01*
X152978056Y-67788178D01*
X153019595Y-67761662D01*
X153082302Y-67750427D01*
X153147478Y-67755515D01*
X153194323Y-67776141D01*
X153210196Y-67810294D01*
X153220868Y-67873607D01*
X153226149Y-67953206D01*
X153648121Y-67953206D01*
X153648107Y-67947921D01*
X153646996Y-67788222D01*
X153645304Y-67645850D01*
X153643122Y-67526124D01*
X153640540Y-67434365D01*
X153637650Y-67375896D01*
X153635493Y-67357625D01*
X153630114Y-67341408D01*
X153620133Y-67329366D01*
X153599896Y-67320878D01*
X153563751Y-67315323D01*
X153506047Y-67312079D01*
X153421132Y-67310524D01*
X153303353Y-67310038D01*
X153202353Y-67310000D01*
X152781976Y-67310000D01*
X152748355Y-67361312D01*
G37*
X152748355Y-67361312D02*
X152736007Y-67386441D01*
X152727362Y-67422353D01*
X152722014Y-67475474D01*
X152719557Y-67552226D01*
X152719583Y-67659037D01*
X152721409Y-67787011D01*
X152728084Y-68161397D01*
X152865920Y-68276377D01*
X152813890Y-68304223D01*
X152769175Y-68344389D01*
X152739680Y-68395693D01*
X152725734Y-68463337D01*
X152718722Y-68555759D01*
X152719046Y-68655914D01*
X152727103Y-68746754D01*
X152730938Y-68768897D01*
X152741741Y-68809682D01*
X152761083Y-68828319D01*
X152801901Y-68831891D01*
X152842063Y-68829751D01*
X152939750Y-68823416D01*
X152950334Y-68594097D01*
X152956099Y-68489983D01*
X152963091Y-68419852D01*
X152973003Y-68375357D01*
X152987531Y-68348149D01*
X153003250Y-68333491D01*
X153060250Y-68313903D01*
X153130039Y-68318648D01*
X153192055Y-68345985D01*
X153197025Y-68349884D01*
X153210995Y-68375950D01*
X153219986Y-68429988D01*
X153224582Y-68517225D01*
X153225500Y-68603758D01*
X153225500Y-68834000D01*
X153648834Y-68834000D01*
X153648545Y-68119625D01*
X153648121Y-67953206D01*
X153226149Y-67953206D01*
X153225855Y-68036217D01*
X153219797Y-68109765D01*
X153207788Y-68160975D01*
X153200100Y-68173600D01*
X153156270Y-68193293D01*
X153092562Y-68198030D01*
X153028428Y-68188517D01*
X152983596Y-68165738D01*
X152965085Y-68125216D01*
X152953595Y-68056849D01*
X152949333Y-67974574D01*
X152952502Y-67892327D01*
X152963306Y-67824044D01*
X152978056Y-67788178D01*
X153019595Y-67761662D01*
X153082302Y-67750427D01*
X153147478Y-67755515D01*
X153194323Y-67776141D01*
X153210196Y-67810294D01*
X153220868Y-67873607D01*
X153226149Y-67953206D01*
X153648121Y-67953206D01*
X153648107Y-67947921D01*
X153646996Y-67788222D01*
X153645304Y-67645850D01*
X153643122Y-67526124D01*
X153640540Y-67434365D01*
X153637650Y-67375896D01*
X153635493Y-67357625D01*
X153630114Y-67341408D01*
X153620133Y-67329366D01*
X153599896Y-67320878D01*
X153563751Y-67315323D01*
X153506047Y-67312079D01*
X153421132Y-67310524D01*
X153303353Y-67310038D01*
X153202353Y-67310000D01*
X152781976Y-67310000D01*
X152748355Y-67361312D01*
G36*
X151380859Y-67310115D02*
G01*
X151275473Y-67310917D01*
X151200458Y-67313087D01*
X151149830Y-67317306D01*
X151117609Y-67324256D01*
X151097812Y-67334618D01*
X151084459Y-67349074D01*
X151076507Y-67360826D01*
X151065966Y-67382218D01*
X151058056Y-67413468D01*
X151052525Y-67459851D01*
X151049126Y-67526638D01*
X151047608Y-67619104D01*
X151047722Y-67742522D01*
X151049219Y-67902165D01*
X151049561Y-67930601D01*
X151052009Y-68074986D01*
X151055516Y-68205354D01*
X151059816Y-68315720D01*
X151064642Y-68400101D01*
X151069727Y-68452510D01*
X151073457Y-68467149D01*
X151100706Y-68475317D01*
X151160680Y-68483645D01*
X151243789Y-68491025D01*
X151316874Y-68495333D01*
X151542750Y-68505916D01*
X151548238Y-68622333D01*
X151553202Y-68718343D01*
X151562363Y-68779840D01*
X151583500Y-68814495D01*
X151624392Y-68829976D01*
X151692818Y-68833954D01*
X151762935Y-68834000D01*
X151852835Y-68833296D01*
X151909177Y-68829795D01*
X151940731Y-68821414D01*
X151956267Y-68806067D01*
X151963326Y-68786375D01*
X151967751Y-68748342D01*
X151971237Y-68675103D01*
X151973815Y-68573027D01*
X151975519Y-68448482D01*
X151976381Y-68307836D01*
X151976435Y-68157458D01*
X151975949Y-68054113D01*
X151553334Y-68054113D01*
X151552448Y-68158217D01*
X151548871Y-68228871D01*
X151541222Y-68274938D01*
X151528121Y-68305280D01*
X151511000Y-68326000D01*
X151449398Y-68361332D01*
X151378939Y-68363921D01*
X151316876Y-68333302D01*
X151299968Y-68312614D01*
X151288746Y-68281586D01*
X151282106Y-68232158D01*
X151278947Y-68156272D01*
X151278167Y-68050144D01*
X151279465Y-67932420D01*
X151285178Y-67850467D01*
X151298038Y-67797759D01*
X151320775Y-67767767D01*
X151356119Y-67753964D01*
X151403764Y-67749903D01*
X151462902Y-67754229D01*
X151504544Y-67774956D01*
X151531518Y-67817833D01*
X151546651Y-67888610D01*
X151552768Y-67993036D01*
X151553334Y-68054113D01*
X151975949Y-68054113D01*
X151975712Y-68003717D01*
X151974245Y-67852980D01*
X151972068Y-67711617D01*
X151969212Y-67585996D01*
X151965711Y-67482485D01*
X151961597Y-67407453D01*
X151956903Y-67367268D01*
X151956024Y-67364294D01*
X151935382Y-67310000D01*
X151522596Y-67310000D01*
X151380859Y-67310115D01*
G37*
X151380859Y-67310115D02*
X151275473Y-67310917D01*
X151200458Y-67313087D01*
X151149830Y-67317306D01*
X151117609Y-67324256D01*
X151097812Y-67334618D01*
X151084459Y-67349074D01*
X151076507Y-67360826D01*
X151065966Y-67382218D01*
X151058056Y-67413468D01*
X151052525Y-67459851D01*
X151049126Y-67526638D01*
X151047608Y-67619104D01*
X151047722Y-67742522D01*
X151049219Y-67902165D01*
X151049561Y-67930601D01*
X151052009Y-68074986D01*
X151055516Y-68205354D01*
X151059816Y-68315720D01*
X151064642Y-68400101D01*
X151069727Y-68452510D01*
X151073457Y-68467149D01*
X151100706Y-68475317D01*
X151160680Y-68483645D01*
X151243789Y-68491025D01*
X151316874Y-68495333D01*
X151542750Y-68505916D01*
X151548238Y-68622333D01*
X151553202Y-68718343D01*
X151562363Y-68779840D01*
X151583500Y-68814495D01*
X151624392Y-68829976D01*
X151692818Y-68833954D01*
X151762935Y-68834000D01*
X151852835Y-68833296D01*
X151909177Y-68829795D01*
X151940731Y-68821414D01*
X151956267Y-68806067D01*
X151963326Y-68786375D01*
X151967751Y-68748342D01*
X151971237Y-68675103D01*
X151973815Y-68573027D01*
X151975519Y-68448482D01*
X151976381Y-68307836D01*
X151976435Y-68157458D01*
X151975949Y-68054113D01*
X151553334Y-68054113D01*
X151552448Y-68158217D01*
X151548871Y-68228871D01*
X151541222Y-68274938D01*
X151528121Y-68305280D01*
X151511000Y-68326000D01*
X151449398Y-68361332D01*
X151378939Y-68363921D01*
X151316876Y-68333302D01*
X151299968Y-68312614D01*
X151288746Y-68281586D01*
X151282106Y-68232158D01*
X151278947Y-68156272D01*
X151278167Y-68050144D01*
X151279465Y-67932420D01*
X151285178Y-67850467D01*
X151298038Y-67797759D01*
X151320775Y-67767767D01*
X151356119Y-67753964D01*
X151403764Y-67749903D01*
X151462902Y-67754229D01*
X151504544Y-67774956D01*
X151531518Y-67817833D01*
X151546651Y-67888610D01*
X151552768Y-67993036D01*
X151553334Y-68054113D01*
X151975949Y-68054113D01*
X151975712Y-68003717D01*
X151974245Y-67852980D01*
X151972068Y-67711617D01*
X151969212Y-67585996D01*
X151965711Y-67482485D01*
X151961597Y-67407453D01*
X151956903Y-67367268D01*
X151956024Y-67364294D01*
X151935382Y-67310000D01*
X151522596Y-67310000D01*
X151380859Y-67310115D01*
G36*
X150325270Y-67311004D02*
G01*
X150205479Y-67314134D01*
X150122110Y-67319561D01*
X150072229Y-67327461D01*
X150054734Y-67335400D01*
X150047248Y-67355278D01*
X150041219Y-67400378D01*
X150036545Y-67473641D01*
X150033124Y-67578009D01*
X150030853Y-67716423D01*
X150029628Y-67891825D01*
X150029334Y-68063918D01*
X150029710Y-68233478D01*
X150030776Y-68390333D01*
X150032441Y-68529250D01*
X150034615Y-68644995D01*
X150037205Y-68732335D01*
X150040120Y-68786036D01*
X150042182Y-68800518D01*
X150051336Y-68811993D01*
X150072358Y-68820557D01*
X150110630Y-68826617D01*
X150171534Y-68830580D01*
X150260450Y-68832855D01*
X150382761Y-68833848D01*
X150484417Y-68834000D01*
X150631722Y-68833629D01*
X150742080Y-68832246D01*
X150820872Y-68829443D01*
X150873480Y-68824813D01*
X150905286Y-68817948D01*
X150921671Y-68808440D01*
X150926653Y-68800518D01*
X150929733Y-68771931D01*
X150932548Y-68706244D01*
X150935008Y-68608691D01*
X150937019Y-68484507D01*
X150938492Y-68338925D01*
X150938634Y-68311465D01*
X150536043Y-68311465D01*
X150535301Y-68436398D01*
X150530651Y-68529780D01*
X150521335Y-68596966D01*
X150506600Y-68643314D01*
X150485689Y-68674180D01*
X150457849Y-68694922D01*
X150456661Y-68695573D01*
X150404945Y-68720604D01*
X150368844Y-68724514D01*
X150328014Y-68708522D01*
X150318984Y-68703831D01*
X150276664Y-68675757D01*
X150257200Y-68656206D01*
X150252301Y-68628558D01*
X150248002Y-68565608D01*
X150244564Y-68474384D01*
X150242251Y-68361915D01*
X150241327Y-68235230D01*
X150241325Y-68232416D01*
X150241901Y-68078113D01*
X150244882Y-67961033D01*
X150251726Y-67876075D01*
X150263889Y-67818141D01*
X150282827Y-67782131D01*
X150309996Y-67762944D01*
X150346854Y-67755480D01*
X150377819Y-67754500D01*
X150429624Y-67756805D01*
X150467879Y-67767471D01*
X150494800Y-67792120D01*
X150512605Y-67836374D01*
X150523510Y-67905857D01*
X150529734Y-68006191D01*
X150533493Y-68143000D01*
X150533630Y-68149624D01*
X150536043Y-68311465D01*
X150938634Y-68311465D01*
X150939334Y-68177178D01*
X150939500Y-68063918D01*
X150939053Y-67856241D01*
X150937641Y-67687946D01*
X150935164Y-67556092D01*
X150931517Y-67457737D01*
X150926599Y-67389939D01*
X150920307Y-67349756D01*
X150914100Y-67335400D01*
X150888175Y-67325464D01*
X150831034Y-67318134D01*
X150739747Y-67313237D01*
X150611379Y-67310600D01*
X150484417Y-67310000D01*
X150325270Y-67311004D01*
G37*
X150325270Y-67311004D02*
X150205479Y-67314134D01*
X150122110Y-67319561D01*
X150072229Y-67327461D01*
X150054734Y-67335400D01*
X150047248Y-67355278D01*
X150041219Y-67400378D01*
X150036545Y-67473641D01*
X150033124Y-67578009D01*
X150030853Y-67716423D01*
X150029628Y-67891825D01*
X150029334Y-68063918D01*
X150029710Y-68233478D01*
X150030776Y-68390333D01*
X150032441Y-68529250D01*
X150034615Y-68644995D01*
X150037205Y-68732335D01*
X150040120Y-68786036D01*
X150042182Y-68800518D01*
X150051336Y-68811993D01*
X150072358Y-68820557D01*
X150110630Y-68826617D01*
X150171534Y-68830580D01*
X150260450Y-68832855D01*
X150382761Y-68833848D01*
X150484417Y-68834000D01*
X150631722Y-68833629D01*
X150742080Y-68832246D01*
X150820872Y-68829443D01*
X150873480Y-68824813D01*
X150905286Y-68817948D01*
X150921671Y-68808440D01*
X150926653Y-68800518D01*
X150929733Y-68771931D01*
X150932548Y-68706244D01*
X150935008Y-68608691D01*
X150937019Y-68484507D01*
X150938492Y-68338925D01*
X150938634Y-68311465D01*
X150536043Y-68311465D01*
X150535301Y-68436398D01*
X150530651Y-68529780D01*
X150521335Y-68596966D01*
X150506600Y-68643314D01*
X150485689Y-68674180D01*
X150457849Y-68694922D01*
X150456661Y-68695573D01*
X150404945Y-68720604D01*
X150368844Y-68724514D01*
X150328014Y-68708522D01*
X150318984Y-68703831D01*
X150276664Y-68675757D01*
X150257200Y-68656206D01*
X150252301Y-68628558D01*
X150248002Y-68565608D01*
X150244564Y-68474384D01*
X150242251Y-68361915D01*
X150241327Y-68235230D01*
X150241325Y-68232416D01*
X150241901Y-68078113D01*
X150244882Y-67961033D01*
X150251726Y-67876075D01*
X150263889Y-67818141D01*
X150282827Y-67782131D01*
X150309996Y-67762944D01*
X150346854Y-67755480D01*
X150377819Y-67754500D01*
X150429624Y-67756805D01*
X150467879Y-67767471D01*
X150494800Y-67792120D01*
X150512605Y-67836374D01*
X150523510Y-67905857D01*
X150529734Y-68006191D01*
X150533493Y-68143000D01*
X150533630Y-68149624D01*
X150536043Y-68311465D01*
X150938634Y-68311465D01*
X150939334Y-68177178D01*
X150939500Y-68063918D01*
X150939053Y-67856241D01*
X150937641Y-67687946D01*
X150935164Y-67556092D01*
X150931517Y-67457737D01*
X150926599Y-67389939D01*
X150920307Y-67349756D01*
X150914100Y-67335400D01*
X150888175Y-67325464D01*
X150831034Y-67318134D01*
X150739747Y-67313237D01*
X150611379Y-67310600D01*
X150484417Y-67310000D01*
X150325270Y-67311004D01*
G36*
X149015025Y-67313916D02*
G01*
X148956875Y-67324242D01*
X148932900Y-67335400D01*
X148925113Y-67355937D01*
X148918906Y-67402319D01*
X148914166Y-67477544D01*
X148910780Y-67584611D01*
X148908636Y-67726519D01*
X148907620Y-67906266D01*
X148907500Y-68010141D01*
X148907206Y-68198355D01*
X148906197Y-68348475D01*
X148904283Y-68464738D01*
X148901273Y-68551381D01*
X148896977Y-68612640D01*
X148891206Y-68652753D01*
X148883768Y-68675955D01*
X148877218Y-68684615D01*
X148821194Y-68707721D01*
X148751341Y-68707816D01*
X148688731Y-68685852D01*
X148674901Y-68675461D01*
X148663119Y-68662916D01*
X148653708Y-68645852D01*
X148646350Y-68619633D01*
X148640731Y-68579620D01*
X148636531Y-68521179D01*
X148633436Y-68439672D01*
X148631128Y-68330462D01*
X148629291Y-68188914D01*
X148627608Y-68010390D01*
X148627340Y-67979030D01*
X148621750Y-67320583D01*
X148555614Y-67314148D01*
X148519020Y-67311475D01*
X148489723Y-67314109D01*
X148466910Y-67326208D01*
X148449772Y-67351925D01*
X148437497Y-67395419D01*
X148429272Y-67460845D01*
X148424289Y-67552358D01*
X148421734Y-67674116D01*
X148420797Y-67830273D01*
X148420667Y-68005526D01*
X148420775Y-68185652D01*
X148421327Y-68328630D01*
X148422664Y-68439648D01*
X148425128Y-68523890D01*
X148429059Y-68586544D01*
X148434800Y-68632796D01*
X148442692Y-68667831D01*
X148453076Y-68696836D01*
X148466294Y-68724997D01*
X148468292Y-68728973D01*
X148515917Y-68823416D01*
X149167690Y-68829015D01*
X149819462Y-68834614D01*
X149860433Y-68744348D01*
X149872072Y-68715880D01*
X149881294Y-68684133D01*
X149888379Y-68644051D01*
X149893613Y-68590577D01*
X149897277Y-68518652D01*
X149899655Y-68423221D01*
X149901030Y-68299225D01*
X149901684Y-68141608D01*
X149901869Y-68003953D01*
X149901889Y-67820793D01*
X149901474Y-67675412D01*
X149900351Y-67563256D01*
X149898245Y-67479770D01*
X149894882Y-67420401D01*
X149889988Y-67380593D01*
X149883287Y-67355793D01*
X149874507Y-67341446D01*
X149863372Y-67332999D01*
X149861392Y-67331911D01*
X149813705Y-67318301D01*
X149744310Y-67311509D01*
X149668001Y-67311371D01*
X149599572Y-67317724D01*
X149553813Y-67330402D01*
X149546734Y-67335400D01*
X149538818Y-67356224D01*
X149532536Y-67403167D01*
X149527771Y-67479248D01*
X149524405Y-67587486D01*
X149522321Y-67730900D01*
X149521402Y-67912510D01*
X149521334Y-67989221D01*
X149521164Y-68170063D01*
X149520471Y-68313394D01*
X149518975Y-68424036D01*
X149516398Y-68506812D01*
X149512462Y-68566543D01*
X149506890Y-68608052D01*
X149499402Y-68636161D01*
X149489721Y-68655690D01*
X149482299Y-68665849D01*
X149424693Y-68706397D01*
X149373167Y-68714055D01*
X149300411Y-68697019D01*
X149264035Y-68665849D01*
X149253016Y-68649588D01*
X149244280Y-68627911D01*
X149237563Y-68596105D01*
X149232604Y-68549454D01*
X149229141Y-68483246D01*
X149226911Y-68392765D01*
X149225653Y-68273298D01*
X149225105Y-68120129D01*
X149225000Y-67963821D01*
X149225000Y-67310000D01*
X149091650Y-67310000D01*
X149015025Y-67313916D01*
G37*
X149015025Y-67313916D02*
X148956875Y-67324242D01*
X148932900Y-67335400D01*
X148925113Y-67355937D01*
X148918906Y-67402319D01*
X148914166Y-67477544D01*
X148910780Y-67584611D01*
X148908636Y-67726519D01*
X148907620Y-67906266D01*
X148907500Y-68010141D01*
X148907206Y-68198355D01*
X148906197Y-68348475D01*
X148904283Y-68464738D01*
X148901273Y-68551381D01*
X148896977Y-68612640D01*
X148891206Y-68652753D01*
X148883768Y-68675955D01*
X148877218Y-68684615D01*
X148821194Y-68707721D01*
X148751341Y-68707816D01*
X148688731Y-68685852D01*
X148674901Y-68675461D01*
X148663119Y-68662916D01*
X148653708Y-68645852D01*
X148646350Y-68619633D01*
X148640731Y-68579620D01*
X148636531Y-68521179D01*
X148633436Y-68439672D01*
X148631128Y-68330462D01*
X148629291Y-68188914D01*
X148627608Y-68010390D01*
X148627340Y-67979030D01*
X148621750Y-67320583D01*
X148555614Y-67314148D01*
X148519020Y-67311475D01*
X148489723Y-67314109D01*
X148466910Y-67326208D01*
X148449772Y-67351925D01*
X148437497Y-67395419D01*
X148429272Y-67460845D01*
X148424289Y-67552358D01*
X148421734Y-67674116D01*
X148420797Y-67830273D01*
X148420667Y-68005526D01*
X148420775Y-68185652D01*
X148421327Y-68328630D01*
X148422664Y-68439648D01*
X148425128Y-68523890D01*
X148429059Y-68586544D01*
X148434800Y-68632796D01*
X148442692Y-68667831D01*
X148453076Y-68696836D01*
X148466294Y-68724997D01*
X148468292Y-68728973D01*
X148515917Y-68823416D01*
X149167690Y-68829015D01*
X149819462Y-68834614D01*
X149860433Y-68744348D01*
X149872072Y-68715880D01*
X149881294Y-68684133D01*
X149888379Y-68644051D01*
X149893613Y-68590577D01*
X149897277Y-68518652D01*
X149899655Y-68423221D01*
X149901030Y-68299225D01*
X149901684Y-68141608D01*
X149901869Y-68003953D01*
X149901889Y-67820793D01*
X149901474Y-67675412D01*
X149900351Y-67563256D01*
X149898245Y-67479770D01*
X149894882Y-67420401D01*
X149889988Y-67380593D01*
X149883287Y-67355793D01*
X149874507Y-67341446D01*
X149863372Y-67332999D01*
X149861392Y-67331911D01*
X149813705Y-67318301D01*
X149744310Y-67311509D01*
X149668001Y-67311371D01*
X149599572Y-67317724D01*
X149553813Y-67330402D01*
X149546734Y-67335400D01*
X149538818Y-67356224D01*
X149532536Y-67403167D01*
X149527771Y-67479248D01*
X149524405Y-67587486D01*
X149522321Y-67730900D01*
X149521402Y-67912510D01*
X149521334Y-67989221D01*
X149521164Y-68170063D01*
X149520471Y-68313394D01*
X149518975Y-68424036D01*
X149516398Y-68506812D01*
X149512462Y-68566543D01*
X149506890Y-68608052D01*
X149499402Y-68636161D01*
X149489721Y-68655690D01*
X149482299Y-68665849D01*
X149424693Y-68706397D01*
X149373167Y-68714055D01*
X149300411Y-68697019D01*
X149264035Y-68665849D01*
X149253016Y-68649588D01*
X149244280Y-68627911D01*
X149237563Y-68596105D01*
X149232604Y-68549454D01*
X149229141Y-68483246D01*
X149226911Y-68392765D01*
X149225653Y-68273298D01*
X149225105Y-68120129D01*
X149225000Y-67963821D01*
X149225000Y-67310000D01*
X149091650Y-67310000D01*
X149015025Y-67313916D01*
G36*
X147696892Y-67310085D02*
G01*
X147581546Y-67312110D01*
X147498352Y-67318724D01*
X147442222Y-67332578D01*
X147408069Y-67356324D01*
X147390806Y-67392611D01*
X147385345Y-67444090D01*
X147386599Y-67513413D01*
X147387974Y-67550455D01*
X147394084Y-67722750D01*
X147622568Y-67743916D01*
X147738051Y-67756717D01*
X147815511Y-67770545D01*
X147859257Y-67786319D01*
X147870952Y-67796833D01*
X147881269Y-67833514D01*
X147888578Y-67897954D01*
X147891176Y-67969113D01*
X147888166Y-68062143D01*
X147874195Y-68126107D01*
X147842612Y-68166689D01*
X147786767Y-68189574D01*
X147700008Y-68200443D01*
X147616334Y-68203975D01*
X147523185Y-68206982D01*
X147464431Y-68211241D01*
X147432149Y-68219057D01*
X147418413Y-68232736D01*
X147415298Y-68254586D01*
X147415250Y-68262500D01*
X147416978Y-68286626D01*
X147427290Y-68302771D01*
X147453882Y-68313440D01*
X147504449Y-68321140D01*
X147586687Y-68328380D01*
X147626917Y-68331461D01*
X147737959Y-68341831D01*
X147813175Y-68356487D01*
X147859064Y-68380565D01*
X147882125Y-68419203D01*
X147888856Y-68477538D01*
X147887108Y-68537126D01*
X147879009Y-68605425D01*
X147858870Y-68652691D01*
X147820097Y-68682677D01*
X147756099Y-68699134D01*
X147660282Y-68705815D01*
X147589211Y-68706687D01*
X147494898Y-68708438D01*
X147435288Y-68714127D01*
X147402841Y-68724985D01*
X147391051Y-68739019D01*
X147392866Y-68780770D01*
X147404891Y-68802519D01*
X147420808Y-68813607D01*
X147451187Y-68821849D01*
X147501433Y-68827627D01*
X147576951Y-68831322D01*
X147683147Y-68833315D01*
X147825424Y-68833989D01*
X147851014Y-68834000D01*
X147994793Y-68833761D01*
X148102001Y-68832691D01*
X148178403Y-68830256D01*
X148229759Y-68825920D01*
X148261834Y-68819151D01*
X148280388Y-68809414D01*
X148291185Y-68796176D01*
X148292922Y-68793058D01*
X148299511Y-68759033D01*
X148305023Y-68685122D01*
X148309383Y-68573762D01*
X148312518Y-68427386D01*
X148314352Y-68248431D01*
X148314834Y-68078101D01*
X148314584Y-67887043D01*
X148313698Y-67733849D01*
X148311971Y-67614051D01*
X148309201Y-67523179D01*
X148305181Y-67456767D01*
X148299709Y-67410346D01*
X148292580Y-67379449D01*
X148283590Y-67359607D01*
X148281884Y-67357043D01*
X148268860Y-67340645D01*
X148252036Y-67328581D01*
X148225306Y-67320185D01*
X148182567Y-67314795D01*
X148117713Y-67311745D01*
X148024641Y-67310371D01*
X147897245Y-67310010D01*
X147849479Y-67310000D01*
X147696892Y-67310085D01*
G37*
X147696892Y-67310085D02*
X147581546Y-67312110D01*
X147498352Y-67318724D01*
X147442222Y-67332578D01*
X147408069Y-67356324D01*
X147390806Y-67392611D01*
X147385345Y-67444090D01*
X147386599Y-67513413D01*
X147387974Y-67550455D01*
X147394084Y-67722750D01*
X147622568Y-67743916D01*
X147738051Y-67756717D01*
X147815511Y-67770545D01*
X147859257Y-67786319D01*
X147870952Y-67796833D01*
X147881269Y-67833514D01*
X147888578Y-67897954D01*
X147891176Y-67969113D01*
X147888166Y-68062143D01*
X147874195Y-68126107D01*
X147842612Y-68166689D01*
X147786767Y-68189574D01*
X147700008Y-68200443D01*
X147616334Y-68203975D01*
X147523185Y-68206982D01*
X147464431Y-68211241D01*
X147432149Y-68219057D01*
X147418413Y-68232736D01*
X147415298Y-68254586D01*
X147415250Y-68262500D01*
X147416978Y-68286626D01*
X147427290Y-68302771D01*
X147453882Y-68313440D01*
X147504449Y-68321140D01*
X147586687Y-68328380D01*
X147626917Y-68331461D01*
X147737959Y-68341831D01*
X147813175Y-68356487D01*
X147859064Y-68380565D01*
X147882125Y-68419203D01*
X147888856Y-68477538D01*
X147887108Y-68537126D01*
X147879009Y-68605425D01*
X147858870Y-68652691D01*
X147820097Y-68682677D01*
X147756099Y-68699134D01*
X147660282Y-68705815D01*
X147589211Y-68706687D01*
X147494898Y-68708438D01*
X147435288Y-68714127D01*
X147402841Y-68724985D01*
X147391051Y-68739019D01*
X147392866Y-68780770D01*
X147404891Y-68802519D01*
X147420808Y-68813607D01*
X147451187Y-68821849D01*
X147501433Y-68827627D01*
X147576951Y-68831322D01*
X147683147Y-68833315D01*
X147825424Y-68833989D01*
X147851014Y-68834000D01*
X147994793Y-68833761D01*
X148102001Y-68832691D01*
X148178403Y-68830256D01*
X148229759Y-68825920D01*
X148261834Y-68819151D01*
X148280388Y-68809414D01*
X148291185Y-68796176D01*
X148292922Y-68793058D01*
X148299511Y-68759033D01*
X148305023Y-68685122D01*
X148309383Y-68573762D01*
X148312518Y-68427386D01*
X148314352Y-68248431D01*
X148314834Y-68078101D01*
X148314584Y-67887043D01*
X148313698Y-67733849D01*
X148311971Y-67614051D01*
X148309201Y-67523179D01*
X148305181Y-67456767D01*
X148299709Y-67410346D01*
X148292580Y-67379449D01*
X148283590Y-67359607D01*
X148281884Y-67357043D01*
X148268860Y-67340645D01*
X148252036Y-67328581D01*
X148225306Y-67320185D01*
X148182567Y-67314795D01*
X148117713Y-67311745D01*
X148024641Y-67310371D01*
X147897245Y-67310010D01*
X147849479Y-67310000D01*
X147696892Y-67310085D01*
G36*
X146763242Y-67310479D02*
G01*
X146653804Y-67312201D01*
X146575257Y-67315594D01*
X146521880Y-67321085D01*
X146487958Y-67329101D01*
X146467771Y-67340070D01*
X146464262Y-67343261D01*
X146451861Y-67362055D01*
X146442875Y-67393928D01*
X146436802Y-67444951D01*
X146433137Y-67521194D01*
X146431376Y-67628729D01*
X146431000Y-67744050D01*
X146432136Y-67868297D01*
X146435283Y-67980972D01*
X146440047Y-68073902D01*
X146446037Y-68138914D01*
X146451192Y-68164685D01*
X146484438Y-68213319D01*
X146530567Y-68249882D01*
X146562997Y-68271492D01*
X146565099Y-68282507D01*
X146562330Y-68282819D01*
X146529750Y-68297333D01*
X146487092Y-68331565D01*
X146482955Y-68335621D01*
X146457905Y-68364364D01*
X146442489Y-68396457D01*
X146434408Y-68442586D01*
X146431365Y-68513443D01*
X146431000Y-68577306D01*
X146431941Y-68685078D01*
X146436880Y-68757521D01*
X146448989Y-68801635D01*
X146471444Y-68824416D01*
X146507416Y-68832861D01*
X146547417Y-68834000D01*
X146595584Y-68832049D01*
X146628227Y-68821610D01*
X146648360Y-68795801D01*
X146658996Y-68747743D01*
X146663149Y-68670553D01*
X146663834Y-68568173D01*
X146664516Y-68474661D01*
X146667988Y-68414022D01*
X146676386Y-68376802D01*
X146691847Y-68353544D01*
X146716509Y-68334794D01*
X146716596Y-68334737D01*
X146786936Y-68311696D01*
X146859577Y-68326458D01*
X146905770Y-68359293D01*
X146921682Y-68385083D01*
X146931848Y-68429368D01*
X146937281Y-68499883D01*
X146938994Y-68604366D01*
X146939000Y-68613261D01*
X146939000Y-68834000D01*
X147136556Y-68834000D01*
X147224179Y-68832576D01*
X147295139Y-68828760D01*
X147339257Y-68823228D01*
X147348223Y-68819888D01*
X147352692Y-68794816D01*
X147356284Y-68733453D01*
X147359026Y-68641834D01*
X147360945Y-68525991D01*
X147362069Y-68391959D01*
X147362424Y-68245771D01*
X147362038Y-68093460D01*
X147361288Y-67989590D01*
X146939781Y-67989590D01*
X146934220Y-68070412D01*
X146921468Y-68134849D01*
X146905739Y-68165738D01*
X146860360Y-68188671D01*
X146796140Y-68198053D01*
X146732528Y-68193179D01*
X146689234Y-68173600D01*
X146674386Y-68137208D01*
X146665576Y-68072475D01*
X146662617Y-67992275D01*
X146665322Y-67909483D01*
X146673503Y-67836973D01*
X146686974Y-67787620D01*
X146695011Y-67776141D01*
X146745433Y-67754743D01*
X146810982Y-67750647D01*
X146872959Y-67762812D01*
X146911278Y-67788178D01*
X146928515Y-67834537D01*
X146937948Y-67906320D01*
X146939781Y-67989590D01*
X147361288Y-67989590D01*
X147360937Y-67941061D01*
X147359149Y-67794606D01*
X147356701Y-67660129D01*
X147353619Y-67543664D01*
X147349931Y-67451244D01*
X147345665Y-67388902D01*
X147341691Y-67364294D01*
X147321048Y-67310000D01*
X146909286Y-67310000D01*
X146763242Y-67310479D01*
G37*
X146763242Y-67310479D02*
X146653804Y-67312201D01*
X146575257Y-67315594D01*
X146521880Y-67321085D01*
X146487958Y-67329101D01*
X146467771Y-67340070D01*
X146464262Y-67343261D01*
X146451861Y-67362055D01*
X146442875Y-67393928D01*
X146436802Y-67444951D01*
X146433137Y-67521194D01*
X146431376Y-67628729D01*
X146431000Y-67744050D01*
X146432136Y-67868297D01*
X146435283Y-67980972D01*
X146440047Y-68073902D01*
X146446037Y-68138914D01*
X146451192Y-68164685D01*
X146484438Y-68213319D01*
X146530567Y-68249882D01*
X146562997Y-68271492D01*
X146565099Y-68282507D01*
X146562330Y-68282819D01*
X146529750Y-68297333D01*
X146487092Y-68331565D01*
X146482955Y-68335621D01*
X146457905Y-68364364D01*
X146442489Y-68396457D01*
X146434408Y-68442586D01*
X146431365Y-68513443D01*
X146431000Y-68577306D01*
X146431941Y-68685078D01*
X146436880Y-68757521D01*
X146448989Y-68801635D01*
X146471444Y-68824416D01*
X146507416Y-68832861D01*
X146547417Y-68834000D01*
X146595584Y-68832049D01*
X146628227Y-68821610D01*
X146648360Y-68795801D01*
X146658996Y-68747743D01*
X146663149Y-68670553D01*
X146663834Y-68568173D01*
X146664516Y-68474661D01*
X146667988Y-68414022D01*
X146676386Y-68376802D01*
X146691847Y-68353544D01*
X146716509Y-68334794D01*
X146716596Y-68334737D01*
X146786936Y-68311696D01*
X146859577Y-68326458D01*
X146905770Y-68359293D01*
X146921682Y-68385083D01*
X146931848Y-68429368D01*
X146937281Y-68499883D01*
X146938994Y-68604366D01*
X146939000Y-68613261D01*
X146939000Y-68834000D01*
X147136556Y-68834000D01*
X147224179Y-68832576D01*
X147295139Y-68828760D01*
X147339257Y-68823228D01*
X147348223Y-68819888D01*
X147352692Y-68794816D01*
X147356284Y-68733453D01*
X147359026Y-68641834D01*
X147360945Y-68525991D01*
X147362069Y-68391959D01*
X147362424Y-68245771D01*
X147362038Y-68093460D01*
X147361288Y-67989590D01*
X146939781Y-67989590D01*
X146934220Y-68070412D01*
X146921468Y-68134849D01*
X146905739Y-68165738D01*
X146860360Y-68188671D01*
X146796140Y-68198053D01*
X146732528Y-68193179D01*
X146689234Y-68173600D01*
X146674386Y-68137208D01*
X146665576Y-68072475D01*
X146662617Y-67992275D01*
X146665322Y-67909483D01*
X146673503Y-67836973D01*
X146686974Y-67787620D01*
X146695011Y-67776141D01*
X146745433Y-67754743D01*
X146810982Y-67750647D01*
X146872959Y-67762812D01*
X146911278Y-67788178D01*
X146928515Y-67834537D01*
X146937948Y-67906320D01*
X146939781Y-67989590D01*
X147361288Y-67989590D01*
X147360937Y-67941061D01*
X147359149Y-67794606D01*
X147356701Y-67660129D01*
X147353619Y-67543664D01*
X147349931Y-67451244D01*
X147345665Y-67388902D01*
X147341691Y-67364294D01*
X147321048Y-67310000D01*
X146909286Y-67310000D01*
X146763242Y-67310479D01*
G36*
X145908713Y-67314095D02*
G01*
X145852513Y-67314841D01*
X145447284Y-67320583D01*
X145421435Y-67374553D01*
X145406159Y-67441445D01*
X145405827Y-67545951D01*
X145408152Y-67578404D01*
X145420717Y-67728285D01*
X145634817Y-67743362D01*
X145727817Y-67751791D01*
X145806108Y-67762367D01*
X145859272Y-67773493D01*
X145875375Y-67780228D01*
X145890894Y-67815924D01*
X145899802Y-67889854D01*
X145901834Y-67967246D01*
X145899763Y-68063305D01*
X145888962Y-68128352D01*
X145862544Y-68168414D01*
X145813626Y-68189522D01*
X145735320Y-68197704D01*
X145637165Y-68199000D01*
X145543684Y-68199815D01*
X145484063Y-68203384D01*
X145449844Y-68211392D01*
X145432567Y-68225526D01*
X145425644Y-68241143D01*
X145419485Y-68283545D01*
X145423463Y-68301401D01*
X145448121Y-68310470D01*
X145505287Y-68320078D01*
X145585183Y-68328794D01*
X145639145Y-68332948D01*
X145730483Y-68341150D01*
X145807414Y-68352116D01*
X145859024Y-68364092D01*
X145872733Y-68370532D01*
X145889054Y-68405086D01*
X145898828Y-68466339D01*
X145901621Y-68539099D01*
X145896999Y-68608176D01*
X145884526Y-68658379D01*
X145881147Y-68664666D01*
X145860395Y-68680221D01*
X145816744Y-68691226D01*
X145743688Y-68698718D01*
X145636838Y-68703670D01*
X145412567Y-68710923D01*
X145419076Y-68767170D01*
X145425584Y-68823416D01*
X145849552Y-68829131D01*
X146007843Y-68830470D01*
X146127752Y-68829550D01*
X146213179Y-68826196D01*
X146268023Y-68820235D01*
X146296184Y-68811492D01*
X146299344Y-68809023D01*
X146306896Y-68789899D01*
X146312976Y-68747090D01*
X146317694Y-68677462D01*
X146321161Y-68577881D01*
X146323488Y-68445214D01*
X146324786Y-68276327D01*
X146325167Y-68079861D01*
X146324963Y-67885909D01*
X146324219Y-67729964D01*
X146322737Y-67607698D01*
X146320319Y-67514786D01*
X146316767Y-67446902D01*
X146311883Y-67399720D01*
X146305471Y-67368915D01*
X146297330Y-67350160D01*
X146291455Y-67342811D01*
X146274348Y-67330957D01*
X146246397Y-67322429D01*
X146201730Y-67316852D01*
X146134475Y-67313854D01*
X146038760Y-67313060D01*
X145908713Y-67314095D01*
G37*
X145908713Y-67314095D02*
X145852513Y-67314841D01*
X145447284Y-67320583D01*
X145421435Y-67374553D01*
X145406159Y-67441445D01*
X145405827Y-67545951D01*
X145408152Y-67578404D01*
X145420717Y-67728285D01*
X145634817Y-67743362D01*
X145727817Y-67751791D01*
X145806108Y-67762367D01*
X145859272Y-67773493D01*
X145875375Y-67780228D01*
X145890894Y-67815924D01*
X145899802Y-67889854D01*
X145901834Y-67967246D01*
X145899763Y-68063305D01*
X145888962Y-68128352D01*
X145862544Y-68168414D01*
X145813626Y-68189522D01*
X145735320Y-68197704D01*
X145637165Y-68199000D01*
X145543684Y-68199815D01*
X145484063Y-68203384D01*
X145449844Y-68211392D01*
X145432567Y-68225526D01*
X145425644Y-68241143D01*
X145419485Y-68283545D01*
X145423463Y-68301401D01*
X145448121Y-68310470D01*
X145505287Y-68320078D01*
X145585183Y-68328794D01*
X145639145Y-68332948D01*
X145730483Y-68341150D01*
X145807414Y-68352116D01*
X145859024Y-68364092D01*
X145872733Y-68370532D01*
X145889054Y-68405086D01*
X145898828Y-68466339D01*
X145901621Y-68539099D01*
X145896999Y-68608176D01*
X145884526Y-68658379D01*
X145881147Y-68664666D01*
X145860395Y-68680221D01*
X145816744Y-68691226D01*
X145743688Y-68698718D01*
X145636838Y-68703670D01*
X145412567Y-68710923D01*
X145419076Y-68767170D01*
X145425584Y-68823416D01*
X145849552Y-68829131D01*
X146007843Y-68830470D01*
X146127752Y-68829550D01*
X146213179Y-68826196D01*
X146268023Y-68820235D01*
X146296184Y-68811492D01*
X146299344Y-68809023D01*
X146306896Y-68789899D01*
X146312976Y-68747090D01*
X146317694Y-68677462D01*
X146321161Y-68577881D01*
X146323488Y-68445214D01*
X146324786Y-68276327D01*
X146325167Y-68079861D01*
X146324963Y-67885909D01*
X146324219Y-67729964D01*
X146322737Y-67607698D01*
X146320319Y-67514786D01*
X146316767Y-67446902D01*
X146311883Y-67399720D01*
X146305471Y-67368915D01*
X146297330Y-67350160D01*
X146291455Y-67342811D01*
X146274348Y-67330957D01*
X146246397Y-67322429D01*
X146201730Y-67316852D01*
X146134475Y-67313854D01*
X146038760Y-67313060D01*
X145908713Y-67314095D01*
G36*
X144782580Y-67310395D02*
G01*
X144673469Y-67311882D01*
X144595225Y-67314907D01*
X144542118Y-67319919D01*
X144508418Y-67327365D01*
X144488394Y-67337693D01*
X144480967Y-67344964D01*
X144472307Y-67363828D01*
X144465211Y-67400181D01*
X144459474Y-67458015D01*
X144454890Y-67541320D01*
X144451251Y-67654087D01*
X144448352Y-67800306D01*
X144445987Y-67983968D01*
X144445507Y-68030900D01*
X144444487Y-68196194D01*
X144444686Y-68350689D01*
X144446008Y-68488508D01*
X144448354Y-68603777D01*
X144451628Y-68690618D01*
X144455732Y-68743155D01*
X144457422Y-68752644D01*
X144475746Y-68823416D01*
X144911197Y-68829130D01*
X145059160Y-68830740D01*
X145170200Y-68830931D01*
X145249713Y-68829363D01*
X145303095Y-68825697D01*
X145335743Y-68819593D01*
X145353053Y-68810713D01*
X145359657Y-68800940D01*
X145363101Y-68771106D01*
X145365987Y-68705149D01*
X145368314Y-68609279D01*
X145370086Y-68489701D01*
X145370515Y-68441379D01*
X145157722Y-68441379D01*
X145156591Y-68542415D01*
X145154391Y-68616729D01*
X145151208Y-68657001D01*
X145150722Y-68659375D01*
X145137977Y-68688286D01*
X145110352Y-68702467D01*
X145055826Y-68706853D01*
X145034797Y-68707000D01*
X144965269Y-68702760D01*
X144923019Y-68686725D01*
X144897617Y-68659956D01*
X144885390Y-68635176D01*
X144876481Y-68596881D01*
X144870425Y-68538995D01*
X144866754Y-68455440D01*
X144865002Y-68340142D01*
X144864667Y-68230750D01*
X144865307Y-68076035D01*
X144868470Y-67958658D01*
X144876024Y-67873627D01*
X144889835Y-67815950D01*
X144911771Y-67780638D01*
X144943698Y-67762699D01*
X144987484Y-67757141D01*
X145041220Y-67758752D01*
X145150417Y-67765083D01*
X145156417Y-68188416D01*
X145157693Y-68320939D01*
X145157722Y-68441379D01*
X145370515Y-68441379D01*
X145371304Y-68352625D01*
X145371968Y-68204257D01*
X145372081Y-68050806D01*
X145371644Y-67898479D01*
X145370657Y-67753484D01*
X145369124Y-67622028D01*
X145367044Y-67510319D01*
X145364420Y-67424564D01*
X145361253Y-67370973D01*
X145359326Y-67357625D01*
X145353931Y-67341372D01*
X145343915Y-67329315D01*
X145323611Y-67320826D01*
X145287351Y-67315280D01*
X145229469Y-67312050D01*
X145144297Y-67310510D01*
X145026169Y-67310035D01*
X144928290Y-67310000D01*
X144782580Y-67310395D01*
G37*
X144782580Y-67310395D02*
X144673469Y-67311882D01*
X144595225Y-67314907D01*
X144542118Y-67319919D01*
X144508418Y-67327365D01*
X144488394Y-67337693D01*
X144480967Y-67344964D01*
X144472307Y-67363828D01*
X144465211Y-67400181D01*
X144459474Y-67458015D01*
X144454890Y-67541320D01*
X144451251Y-67654087D01*
X144448352Y-67800306D01*
X144445987Y-67983968D01*
X144445507Y-68030900D01*
X144444487Y-68196194D01*
X144444686Y-68350689D01*
X144446008Y-68488508D01*
X144448354Y-68603777D01*
X144451628Y-68690618D01*
X144455732Y-68743155D01*
X144457422Y-68752644D01*
X144475746Y-68823416D01*
X144911197Y-68829130D01*
X145059160Y-68830740D01*
X145170200Y-68830931D01*
X145249713Y-68829363D01*
X145303095Y-68825697D01*
X145335743Y-68819593D01*
X145353053Y-68810713D01*
X145359657Y-68800940D01*
X145363101Y-68771106D01*
X145365987Y-68705149D01*
X145368314Y-68609279D01*
X145370086Y-68489701D01*
X145370515Y-68441379D01*
X145157722Y-68441379D01*
X145156591Y-68542415D01*
X145154391Y-68616729D01*
X145151208Y-68657001D01*
X145150722Y-68659375D01*
X145137977Y-68688286D01*
X145110352Y-68702467D01*
X145055826Y-68706853D01*
X145034797Y-68707000D01*
X144965269Y-68702760D01*
X144923019Y-68686725D01*
X144897617Y-68659956D01*
X144885390Y-68635176D01*
X144876481Y-68596881D01*
X144870425Y-68538995D01*
X144866754Y-68455440D01*
X144865002Y-68340142D01*
X144864667Y-68230750D01*
X144865307Y-68076035D01*
X144868470Y-67958658D01*
X144876024Y-67873627D01*
X144889835Y-67815950D01*
X144911771Y-67780638D01*
X144943698Y-67762699D01*
X144987484Y-67757141D01*
X145041220Y-67758752D01*
X145150417Y-67765083D01*
X145156417Y-68188416D01*
X145157693Y-68320939D01*
X145157722Y-68441379D01*
X145370515Y-68441379D01*
X145371304Y-68352625D01*
X145371968Y-68204257D01*
X145372081Y-68050806D01*
X145371644Y-67898479D01*
X145370657Y-67753484D01*
X145369124Y-67622028D01*
X145367044Y-67510319D01*
X145364420Y-67424564D01*
X145361253Y-67370973D01*
X145359326Y-67357625D01*
X145353931Y-67341372D01*
X145343915Y-67329315D01*
X145323611Y-67320826D01*
X145287351Y-67315280D01*
X145229469Y-67312050D01*
X145144297Y-67310510D01*
X145026169Y-67310035D01*
X144928290Y-67310000D01*
X144782580Y-67310395D01*
G36*
X151046235Y-70082661D02*
G01*
X150956614Y-70154064D01*
X150923262Y-70196396D01*
X150908683Y-70219186D01*
X150897457Y-70243383D01*
X150889146Y-70274532D01*
X150883314Y-70318179D01*
X150879522Y-70379872D01*
X150877333Y-70465157D01*
X150876310Y-70579581D01*
X150876013Y-70728689D01*
X150876000Y-70795387D01*
X150876129Y-70959029D01*
X150876812Y-71085911D01*
X150878494Y-71181604D01*
X150881619Y-71251683D01*
X150886633Y-71301718D01*
X150893980Y-71337284D01*
X150904105Y-71363952D01*
X150917454Y-71387295D01*
X150924047Y-71397328D01*
X151000688Y-71476352D01*
X151099280Y-71525627D01*
X151209200Y-71542443D01*
X151319823Y-71524088D01*
X151358216Y-71508131D01*
X151419378Y-71466060D01*
X151472512Y-71410983D01*
X151474632Y-71408071D01*
X151488828Y-71386732D01*
X151499831Y-71363795D01*
X151508048Y-71333896D01*
X151513884Y-71291669D01*
X151517746Y-71231749D01*
X151520040Y-71148771D01*
X151521173Y-71037369D01*
X151521551Y-70892179D01*
X151521584Y-70788014D01*
X151521584Y-70761251D01*
X151253702Y-70761251D01*
X151252695Y-70864027D01*
X151248948Y-70934140D01*
X151242188Y-70976399D01*
X151232144Y-70995609D01*
X151231071Y-70996371D01*
X151207131Y-71007636D01*
X151189360Y-71003652D01*
X151176867Y-70979714D01*
X151168755Y-70931116D01*
X151164133Y-70853152D01*
X151162106Y-70741118D01*
X151161750Y-70631402D01*
X151161963Y-70498473D01*
X151163048Y-70402035D01*
X151165676Y-70336247D01*
X151170518Y-70295266D01*
X151178245Y-70273251D01*
X151189527Y-70264360D01*
X151204084Y-70262750D01*
X151219574Y-70264778D01*
X151230892Y-70274809D01*
X151238833Y-70298762D01*
X151244192Y-70342557D01*
X151247766Y-70412113D01*
X151250350Y-70513349D01*
X151252237Y-70621007D01*
X151253702Y-70761251D01*
X151521584Y-70761251D01*
X151521584Y-70233779D01*
X151458084Y-70166282D01*
X151361074Y-70089206D01*
X151255443Y-70049839D01*
X151148171Y-70047789D01*
X151046235Y-70082661D01*
G37*
X151046235Y-70082661D02*
X150956614Y-70154064D01*
X150923262Y-70196396D01*
X150908683Y-70219186D01*
X150897457Y-70243383D01*
X150889146Y-70274532D01*
X150883314Y-70318179D01*
X150879522Y-70379872D01*
X150877333Y-70465157D01*
X150876310Y-70579581D01*
X150876013Y-70728689D01*
X150876000Y-70795387D01*
X150876129Y-70959029D01*
X150876812Y-71085911D01*
X150878494Y-71181604D01*
X150881619Y-71251683D01*
X150886633Y-71301718D01*
X150893980Y-71337284D01*
X150904105Y-71363952D01*
X150917454Y-71387295D01*
X150924047Y-71397328D01*
X151000688Y-71476352D01*
X151099280Y-71525627D01*
X151209200Y-71542443D01*
X151319823Y-71524088D01*
X151358216Y-71508131D01*
X151419378Y-71466060D01*
X151472512Y-71410983D01*
X151474632Y-71408071D01*
X151488828Y-71386732D01*
X151499831Y-71363795D01*
X151508048Y-71333896D01*
X151513884Y-71291669D01*
X151517746Y-71231749D01*
X151520040Y-71148771D01*
X151521173Y-71037369D01*
X151521551Y-70892179D01*
X151521584Y-70788014D01*
X151521584Y-70761251D01*
X151253702Y-70761251D01*
X151252695Y-70864027D01*
X151248948Y-70934140D01*
X151242188Y-70976399D01*
X151232144Y-70995609D01*
X151231071Y-70996371D01*
X151207131Y-71007636D01*
X151189360Y-71003652D01*
X151176867Y-70979714D01*
X151168755Y-70931116D01*
X151164133Y-70853152D01*
X151162106Y-70741118D01*
X151161750Y-70631402D01*
X151161963Y-70498473D01*
X151163048Y-70402035D01*
X151165676Y-70336247D01*
X151170518Y-70295266D01*
X151178245Y-70273251D01*
X151189527Y-70264360D01*
X151204084Y-70262750D01*
X151219574Y-70264778D01*
X151230892Y-70274809D01*
X151238833Y-70298762D01*
X151244192Y-70342557D01*
X151247766Y-70412113D01*
X151250350Y-70513349D01*
X151252237Y-70621007D01*
X151253702Y-70761251D01*
X151521584Y-70761251D01*
X151521584Y-70233779D01*
X151458084Y-70166282D01*
X151361074Y-70089206D01*
X151255443Y-70049839D01*
X151148171Y-70047789D01*
X151046235Y-70082661D01*
D12*
X126631666Y-122642380D02*
X126631666Y-123356666D01*
X126669761Y-123499523D01*
X126745952Y-123594761D01*
X126860238Y-123642380D01*
X126936428Y-123642380D01*
X125831666Y-123642380D02*
X126288809Y-123642380D01*
X126060238Y-123642380D02*
X126060238Y-122642380D01*
X126136428Y-122785238D01*
X126212619Y-122880476D01*
X126288809Y-122928095D01*
X146894476Y-79954380D02*
X146894476Y-78954380D01*
X146704000Y-78954380D01*
X146589714Y-79002000D01*
X146513523Y-79097238D01*
X146475428Y-79192476D01*
X146437333Y-79382952D01*
X146437333Y-79525809D01*
X146475428Y-79716285D01*
X146513523Y-79811523D01*
X146589714Y-79906761D01*
X146704000Y-79954380D01*
X146894476Y-79954380D01*
X145751619Y-78954380D02*
X145904000Y-78954380D01*
X145980190Y-79002000D01*
X146018285Y-79049619D01*
X146094476Y-79192476D01*
X146132571Y-79382952D01*
X146132571Y-79763904D01*
X146094476Y-79859142D01*
X146056380Y-79906761D01*
X145980190Y-79954380D01*
X145827809Y-79954380D01*
X145751619Y-79906761D01*
X145713523Y-79859142D01*
X145675428Y-79763904D01*
X145675428Y-79525809D01*
X145713523Y-79430571D01*
X145751619Y-79382952D01*
X145827809Y-79335333D01*
X145980190Y-79335333D01*
X146056380Y-79382952D01*
X146094476Y-79430571D01*
X146132571Y-79525809D01*
X146767476Y-93289380D02*
X146767476Y-92289380D01*
X146577000Y-92289380D01*
X146462714Y-92337000D01*
X146386523Y-92432238D01*
X146348428Y-92527476D01*
X146310333Y-92717952D01*
X146310333Y-92860809D01*
X146348428Y-93051285D01*
X146386523Y-93146523D01*
X146462714Y-93241761D01*
X146577000Y-93289380D01*
X146767476Y-93289380D01*
X145586523Y-92289380D02*
X145967476Y-92289380D01*
X146005571Y-92765571D01*
X145967476Y-92717952D01*
X145891285Y-92670333D01*
X145700809Y-92670333D01*
X145624619Y-92717952D01*
X145586523Y-92765571D01*
X145548428Y-92860809D01*
X145548428Y-93098904D01*
X145586523Y-93194142D01*
X145624619Y-93241761D01*
X145700809Y-93289380D01*
X145891285Y-93289380D01*
X145967476Y-93241761D01*
X146005571Y-93194142D01*
X164096666Y-97242380D02*
X164096666Y-97956666D01*
X164134761Y-98099523D01*
X164210952Y-98194761D01*
X164325238Y-98242380D01*
X164401428Y-98242380D01*
X163372857Y-97575714D02*
X163372857Y-98242380D01*
X163563333Y-97194761D02*
X163753809Y-97909047D01*
X163258571Y-97909047D01*
X104571666Y-68476761D02*
X104457380Y-68524380D01*
X104266904Y-68524380D01*
X104190714Y-68476761D01*
X104152619Y-68429142D01*
X104114523Y-68333904D01*
X104114523Y-68238666D01*
X104152619Y-68143428D01*
X104190714Y-68095809D01*
X104266904Y-68048190D01*
X104419285Y-68000571D01*
X104495476Y-67952952D01*
X104533571Y-67905333D01*
X104571666Y-67810095D01*
X104571666Y-67714857D01*
X104533571Y-67619619D01*
X104495476Y-67572000D01*
X104419285Y-67524380D01*
X104228809Y-67524380D01*
X104114523Y-67572000D01*
X103847857Y-67524380D02*
X103657380Y-68524380D01*
X103505000Y-67810095D01*
X103352619Y-68524380D01*
X103162142Y-67524380D01*
X102438333Y-68524380D02*
X102895476Y-68524380D01*
X102666904Y-68524380D02*
X102666904Y-67524380D01*
X102743095Y-67667238D01*
X102819285Y-67762476D01*
X102895476Y-67810095D01*
X107016476Y-105481380D02*
X107016476Y-104481380D01*
X106826000Y-104481380D01*
X106711714Y-104529000D01*
X106635523Y-104624238D01*
X106597428Y-104719476D01*
X106559333Y-104909952D01*
X106559333Y-105052809D01*
X106597428Y-105243285D01*
X106635523Y-105338523D01*
X106711714Y-105433761D01*
X106826000Y-105481380D01*
X107016476Y-105481380D01*
X105873619Y-104814714D02*
X105873619Y-105481380D01*
X106064095Y-104433761D02*
X106254571Y-105148047D01*
X105759333Y-105148047D01*
X164223666Y-104354380D02*
X164223666Y-105068666D01*
X164261761Y-105211523D01*
X164337952Y-105306761D01*
X164452238Y-105354380D01*
X164528428Y-105354380D01*
X163461761Y-104354380D02*
X163842714Y-104354380D01*
X163880809Y-104830571D01*
X163842714Y-104782952D01*
X163766523Y-104735333D01*
X163576047Y-104735333D01*
X163499857Y-104782952D01*
X163461761Y-104830571D01*
X163423666Y-104925809D01*
X163423666Y-105163904D01*
X163461761Y-105259142D01*
X163499857Y-105306761D01*
X163576047Y-105354380D01*
X163766523Y-105354380D01*
X163842714Y-105306761D01*
X163880809Y-105259142D01*
X97586666Y-113434761D02*
X97472380Y-113482380D01*
X97281904Y-113482380D01*
X97205714Y-113434761D01*
X97167619Y-113387142D01*
X97129523Y-113291904D01*
X97129523Y-113196666D01*
X97167619Y-113101428D01*
X97205714Y-113053809D01*
X97281904Y-113006190D01*
X97434285Y-112958571D01*
X97510476Y-112910952D01*
X97548571Y-112863333D01*
X97586666Y-112768095D01*
X97586666Y-112672857D01*
X97548571Y-112577619D01*
X97510476Y-112530000D01*
X97434285Y-112482380D01*
X97243809Y-112482380D01*
X97129523Y-112530000D01*
X96862857Y-112482380D02*
X96672380Y-113482380D01*
X96520000Y-112768095D01*
X96367619Y-113482380D01*
X96177142Y-112482380D01*
X95910476Y-112577619D02*
X95872380Y-112530000D01*
X95796190Y-112482380D01*
X95605714Y-112482380D01*
X95529523Y-112530000D01*
X95491428Y-112577619D01*
X95453333Y-112672857D01*
X95453333Y-112768095D01*
X95491428Y-112910952D01*
X95948571Y-113482380D01*
X95453333Y-113482380D01*
X107270476Y-93543380D02*
X107270476Y-92543380D01*
X107080000Y-92543380D01*
X106965714Y-92591000D01*
X106889523Y-92686238D01*
X106851428Y-92781476D01*
X106813333Y-92971952D01*
X106813333Y-93114809D01*
X106851428Y-93305285D01*
X106889523Y-93400523D01*
X106965714Y-93495761D01*
X107080000Y-93543380D01*
X107270476Y-93543380D01*
X106546666Y-92543380D02*
X106013333Y-92543380D01*
X106356190Y-93543380D01*
X107016476Y-80081380D02*
X107016476Y-79081380D01*
X106826000Y-79081380D01*
X106711714Y-79129000D01*
X106635523Y-79224238D01*
X106597428Y-79319476D01*
X106559333Y-79509952D01*
X106559333Y-79652809D01*
X106597428Y-79843285D01*
X106635523Y-79938523D01*
X106711714Y-80033761D01*
X106826000Y-80081380D01*
X107016476Y-80081380D01*
X106102190Y-79509952D02*
X106178380Y-79462333D01*
X106216476Y-79414714D01*
X106254571Y-79319476D01*
X106254571Y-79271857D01*
X106216476Y-79176619D01*
X106178380Y-79129000D01*
X106102190Y-79081380D01*
X105949809Y-79081380D01*
X105873619Y-79129000D01*
X105835523Y-79176619D01*
X105797428Y-79271857D01*
X105797428Y-79319476D01*
X105835523Y-79414714D01*
X105873619Y-79462333D01*
X105949809Y-79509952D01*
X106102190Y-79509952D01*
X106178380Y-79557571D01*
X106216476Y-79605190D01*
X106254571Y-79700428D01*
X106254571Y-79890904D01*
X106216476Y-79986142D01*
X106178380Y-80033761D01*
X106102190Y-80081380D01*
X105949809Y-80081380D01*
X105873619Y-80033761D01*
X105835523Y-79986142D01*
X105797428Y-79890904D01*
X105797428Y-79700428D01*
X105835523Y-79605190D01*
X105873619Y-79557571D01*
X105949809Y-79509952D01*
X88225380Y-84315380D02*
X88939666Y-84315380D01*
X89082523Y-84277285D01*
X89177761Y-84201095D01*
X89225380Y-84086809D01*
X89225380Y-84010619D01*
X89225380Y-85115380D02*
X89225380Y-84658238D01*
X89225380Y-84886809D02*
X88225380Y-84886809D01*
X88368238Y-84810619D01*
X88463476Y-84734428D01*
X88511095Y-84658238D01*
X88225380Y-85610619D02*
X88225380Y-85686809D01*
X88273000Y-85763000D01*
X88320619Y-85801095D01*
X88415857Y-85839190D01*
X88606333Y-85877285D01*
X88844428Y-85877285D01*
X89034904Y-85839190D01*
X89130142Y-85801095D01*
X89177761Y-85763000D01*
X89225380Y-85686809D01*
X89225380Y-85610619D01*
X89177761Y-85534428D01*
X89130142Y-85496333D01*
X89034904Y-85458238D01*
X88844428Y-85420142D01*
X88606333Y-85420142D01*
X88415857Y-85458238D01*
X88320619Y-85496333D01*
X88273000Y-85534428D01*
X88225380Y-85610619D01*
D13*
X88352380Y-100063333D02*
X89066666Y-100063333D01*
X89209523Y-100025238D01*
X89304761Y-99949047D01*
X89352380Y-99834761D01*
X89352380Y-99758571D01*
X88447619Y-100406190D02*
X88400000Y-100444285D01*
X88352380Y-100520476D01*
X88352380Y-100710952D01*
X88400000Y-100787142D01*
X88447619Y-100825238D01*
X88542857Y-100863333D01*
X88638095Y-100863333D01*
X88780952Y-100825238D01*
X89352380Y-100368095D01*
X89352380Y-100863333D01*
M02*
