G04 #@! TF.GenerationSoftware,KiCad,Pcbnew,(5.1.12)-1*
G04 #@! TF.CreationDate,2022-01-04T12:12:18+00:00*
G04 #@! TF.ProjectId,Lapse_O_Matic_PCB,4c617073-655f-44f5-9f4d-617469635f50,rev?*
G04 #@! TF.SameCoordinates,Original*
G04 #@! TF.FileFunction,Soldermask,Bot*
G04 #@! TF.FilePolarity,Negative*
%FSLAX46Y46*%
G04 Gerber Fmt 4.6, Leading zero omitted, Abs format (unit mm)*
G04 Created by KiCad (PCBNEW (5.1.12)-1) date 2022-01-04 12:12:18*
%MOMM*%
%LPD*%
G01*
G04 APERTURE LIST*
%ADD10C,2.934700*%
%ADD11R,2.032000X2.032000*%
%ADD12C,2.032000*%
%ADD13O,2.286000X1.778000*%
%ADD14R,2.286000X1.778000*%
%ADD15R,2.100580X2.100580*%
%ADD16C,2.199640*%
%ADD17C,2.000000*%
%ADD18O,1.200000X3.000000*%
%ADD19C,1.800000*%
%ADD20R,2.032000X1.727200*%
%ADD21O,2.032000X1.727200*%
%ADD22C,2.100580*%
%ADD23C,1.905000*%
%ADD24R,1.905000X1.905000*%
%ADD25R,2.499360X2.499360*%
%ADD26C,2.499360*%
G04 APERTURE END LIST*
D10*
X163281350Y-110294984D03*
X163281350Y-75401357D03*
X88387727Y-75401357D03*
X88387727Y-110294984D03*
D11*
X128905000Y-125095000D03*
D12*
X126365000Y-125095000D03*
X123825000Y-125095000D03*
D11*
X144780000Y-77470000D03*
D12*
X147320000Y-77470000D03*
X147320000Y-90805000D03*
D11*
X144780000Y-90805000D03*
D13*
X137795000Y-76200000D03*
X137795000Y-78740000D03*
X137795000Y-81280000D03*
X137795000Y-83820000D03*
X137795000Y-86360000D03*
X137795000Y-88900000D03*
X114935000Y-88900000D03*
X114935000Y-86360000D03*
X114935000Y-83820000D03*
X114935000Y-81280000D03*
X114935000Y-78740000D03*
X114935000Y-76200000D03*
X114935000Y-73660000D03*
D14*
X114935000Y-71120000D03*
D13*
X137795000Y-73660000D03*
X137795000Y-71120000D03*
D15*
X163830000Y-82550000D03*
D16*
X163830000Y-85090000D03*
X163830000Y-87630000D03*
X163830000Y-90170000D03*
X163830000Y-92710000D03*
X163830000Y-95250000D03*
D12*
X128270000Y-100965000D03*
X128270000Y-93345000D03*
D17*
X99060000Y-69850000D03*
X96052380Y-69875400D03*
X102052380Y-69875400D03*
D18*
X92752380Y-69875400D03*
X105352380Y-69875400D03*
D19*
X99060000Y-98552000D03*
X99060000Y-107950000D03*
D11*
X107950000Y-102870000D03*
D12*
X105410000Y-102870000D03*
D20*
X163830000Y-100330000D03*
D21*
X163830000Y-102870000D03*
D12*
X125095000Y-100965000D03*
X125095000Y-93345000D03*
X92710000Y-118110000D03*
X92710000Y-113030000D03*
X100330000Y-118110000D03*
X100330000Y-113030000D03*
X107950000Y-116840000D03*
D11*
X105410000Y-116840000D03*
X105410000Y-109855000D03*
D12*
X107950000Y-109855000D03*
D22*
X115570000Y-113030000D03*
X118110000Y-113030000D03*
D15*
X113030000Y-113030000D03*
D12*
X105410000Y-90805000D03*
D11*
X107950000Y-90805000D03*
X107950000Y-77470000D03*
D12*
X105410000Y-77470000D03*
X130175000Y-83185000D03*
X122555000Y-83185000D03*
X122555000Y-80010000D03*
X130175000Y-80010000D03*
X130175000Y-76835000D03*
X122555000Y-76835000D03*
X122555000Y-73660000D03*
X130175000Y-73660000D03*
D20*
X156210000Y-106680000D03*
D21*
X156210000Y-109220000D03*
X156210000Y-111760000D03*
X156210000Y-114300000D03*
X156210000Y-116840000D03*
D22*
X139700000Y-114300000D03*
X137160000Y-114300000D03*
D15*
X134620000Y-114300000D03*
D12*
X137795000Y-100965000D03*
X137795000Y-93345000D03*
X134620000Y-100965000D03*
X134620000Y-93345000D03*
X120015000Y-93345000D03*
X120015000Y-100965000D03*
X116840000Y-93345000D03*
X116840000Y-100965000D03*
X149860000Y-115570000D03*
X149860000Y-107950000D03*
X146050000Y-107950000D03*
X146050000Y-115570000D03*
D23*
X135255000Y-104140000D03*
X135255000Y-106680000D03*
D24*
X137795000Y-106680000D03*
X120650000Y-106680000D03*
D23*
X118110000Y-106680000D03*
X118110000Y-104140000D03*
D25*
X91440000Y-87630000D03*
D26*
X91440000Y-82550000D03*
D12*
X158750000Y-82550000D03*
X158750000Y-90170000D03*
X154940000Y-90170000D03*
X154940000Y-82550000D03*
D26*
X91440000Y-93980000D03*
D25*
X91440000Y-104140000D03*
D26*
X91440000Y-99060000D03*
M02*
