M48
; DRILL file {KiCad (5.1.12)-1} date 01/04/22 12:12:24
; FORMAT={-:-/ absolute / inch / decimal}
; #@! TF.CreationDate,2022-01-04T12:12:24+00:00
; #@! TF.GenerationSoftware,Kicad,Pcbnew,(5.1.12)-1
FMAT,2
INCH
T1C0.0157
T2C0.0200
T3C0.0315
T4C0.0315
T5C0.0320
T6C0.0394
T7C0.0394
T8C0.0400
T9C0.1155
%
G90
G05
T2
X4.225Y-2.95
X4.4Y-4.3
X4.485Y-3.735
X4.96Y-3.565
X5.6Y-3.465
X5.75Y-2.875
X5.875Y-3.25
T3
X3.7816Y-2.751
X3.9Y-2.75
X4.0178Y-2.751
X4.525Y-2.8
X4.525Y-2.9
X4.525Y-3.0
X4.525Y-3.1
X4.525Y-3.2
X4.525Y-3.3
X4.525Y-3.4
X4.525Y-3.5
X5.425Y-2.8
X5.425Y-2.9
X5.425Y-3.0
X5.425Y-3.1
X5.425Y-3.2
X5.425Y-3.3
X5.425Y-3.4
X5.425Y-3.5
T4
X4.15Y-4.325
X4.15Y-4.6
X4.25Y-4.325
X4.25Y-4.6
X4.6Y-3.675
X4.6Y-3.975
X4.65Y-4.1
X4.65Y-4.2
X4.725Y-3.675
X4.725Y-3.975
X4.75Y-4.2
X4.825Y-2.9
X4.825Y-3.025
X4.825Y-3.15
X4.825Y-3.275
X4.925Y-3.675
X4.925Y-3.975
X5.05Y-3.675
X5.05Y-3.975
X5.125Y-2.9
X5.125Y-3.025
X5.125Y-3.15
X5.125Y-3.275
X5.3Y-3.675
X5.3Y-3.975
X5.325Y-4.1
X5.325Y-4.2
X5.425Y-3.675
X5.425Y-3.975
X5.425Y-4.2
X5.75Y-4.25
X5.75Y-4.55
X5.9Y-4.25
X5.9Y-4.55
X6.1Y-3.25
X6.1Y-3.55
X6.25Y-3.25
X6.25Y-3.55
T5
X4.15Y-3.05
X4.15Y-3.575
X4.15Y-4.05
X4.25Y-3.05
X4.25Y-3.575
X4.25Y-4.05
X4.875Y-4.925
X4.975Y-4.925
X5.075Y-4.925
X5.7Y-3.05
X5.7Y-3.575
X5.8Y-3.05
X5.8Y-3.575
T6
X6.45Y-3.25
X6.45Y-3.35
X6.45Y-3.45
X6.45Y-3.55
X6.45Y-3.65
X6.45Y-3.75
T7
X3.6Y-3.25
X3.6Y-3.45
X3.6Y-3.7
X3.6Y-3.9
X3.6Y-4.1
X3.65Y-4.45
X3.65Y-4.65
X3.9Y-3.88
X3.9Y-4.25
X3.95Y-4.45
X3.95Y-4.65
X4.45Y-4.45
X4.55Y-4.45
X4.65Y-4.45
X5.3Y-4.5
X5.4Y-4.5
X5.5Y-4.5
T8
X6.15Y-4.2
X6.15Y-4.3
X6.15Y-4.4
X6.15Y-4.5
X6.15Y-4.6
X6.45Y-3.95
X6.45Y-4.05
T9
X3.4798Y-2.9686
X3.4798Y-4.3423
X6.4284Y-2.9686
X6.4284Y-4.3423
T1
G00X3.6517Y-2.7864
M15
G01X3.6517Y-2.7156
M16
G05
G00X4.1477Y-2.7864
M15
G01X4.1477Y-2.7156
M16
G05
T0
M30
