G04 #@! TF.GenerationSoftware,KiCad,Pcbnew,(5.1.10)-1*
G04 #@! TF.CreationDate,2021-08-05T15:33:14+01:00*
G04 #@! TF.ProjectId,Lapse_O_Matic_PCB,4c617073-655f-44f5-9f4d-617469635f50,rev?*
G04 #@! TF.SameCoordinates,PX5d42830PY7b89fa0*
G04 #@! TF.FileFunction,Copper,L1,Top*
G04 #@! TF.FilePolarity,Positive*
%FSLAX46Y46*%
G04 Gerber Fmt 4.6, Leading zero omitted, Abs format (unit mm)*
G04 Created by KiCad (PCBNEW (5.1.10)-1) date 2021-08-05 15:33:14*
%MOMM*%
%LPD*%
G01*
G04 APERTURE LIST*
G04 #@! TA.AperFunction,ComponentPad*
%ADD10C,2.032000*%
G04 #@! TD*
G04 #@! TA.AperFunction,ComponentPad*
%ADD11R,2.032000X2.032000*%
G04 #@! TD*
G04 #@! TA.AperFunction,ComponentPad*
%ADD12C,2.934700*%
G04 #@! TD*
G04 #@! TA.AperFunction,ComponentPad*
%ADD13O,2.286000X1.778000*%
G04 #@! TD*
G04 #@! TA.AperFunction,ComponentPad*
%ADD14R,2.286000X1.778000*%
G04 #@! TD*
G04 #@! TA.AperFunction,ComponentPad*
%ADD15R,2.100580X2.100580*%
G04 #@! TD*
G04 #@! TA.AperFunction,ComponentPad*
%ADD16C,2.199640*%
G04 #@! TD*
G04 #@! TA.AperFunction,ComponentPad*
%ADD17C,2.000000*%
G04 #@! TD*
G04 #@! TA.AperFunction,ComponentPad*
%ADD18O,1.200000X3.000000*%
G04 #@! TD*
G04 #@! TA.AperFunction,ComponentPad*
%ADD19C,1.800000*%
G04 #@! TD*
G04 #@! TA.AperFunction,ComponentPad*
%ADD20R,2.032000X1.727200*%
G04 #@! TD*
G04 #@! TA.AperFunction,ComponentPad*
%ADD21O,2.032000X1.727200*%
G04 #@! TD*
G04 #@! TA.AperFunction,ComponentPad*
%ADD22C,2.100580*%
G04 #@! TD*
G04 #@! TA.AperFunction,ComponentPad*
%ADD23C,1.905000*%
G04 #@! TD*
G04 #@! TA.AperFunction,ComponentPad*
%ADD24R,1.905000X1.905000*%
G04 #@! TD*
G04 #@! TA.AperFunction,ComponentPad*
%ADD25R,2.499360X2.499360*%
G04 #@! TD*
G04 #@! TA.AperFunction,ComponentPad*
%ADD26C,2.499360*%
G04 #@! TD*
G04 #@! TA.AperFunction,ViaPad*
%ADD27C,0.635000*%
G04 #@! TD*
G04 #@! TA.AperFunction,Conductor*
%ADD28C,0.762000*%
G04 #@! TD*
G04 #@! TA.AperFunction,Conductor*
%ADD29C,0.400000*%
G04 #@! TD*
G04 #@! TA.AperFunction,Conductor*
%ADD30C,0.254000*%
G04 #@! TD*
G04 #@! TA.AperFunction,Conductor*
%ADD31C,0.100000*%
G04 #@! TD*
G04 APERTURE END LIST*
D10*
X40640000Y48387000D03*
X40640000Y45847000D03*
D11*
X40640000Y43307000D03*
D12*
X4857374Y80137000D03*
X39751000Y80137000D03*
X39751000Y5243375D03*
X4857374Y5243375D03*
D13*
X10795000Y12700000D03*
X10795000Y15240000D03*
X10795000Y17780000D03*
X10795000Y20320000D03*
X10795000Y22860000D03*
X10795000Y25400000D03*
X33655000Y25400000D03*
X33655000Y22860000D03*
X33655000Y20320000D03*
X33655000Y17780000D03*
X33655000Y15240000D03*
X33655000Y12700000D03*
X33655000Y10160000D03*
D14*
X33655000Y7620000D03*
D13*
X10795000Y10160000D03*
X10795000Y7620000D03*
D15*
X4445000Y34290000D03*
D16*
X4445000Y36830000D03*
X4445000Y39370000D03*
X4445000Y41910000D03*
X4445000Y44450000D03*
X4445000Y46990000D03*
D10*
X20320000Y37465000D03*
X20320000Y29845000D03*
D17*
X28532620Y79400400D03*
X25525000Y79375000D03*
X31525000Y79375000D03*
D18*
X22225000Y79375000D03*
X34825000Y79375000D03*
D19*
X37465000Y48768000D03*
X37465000Y39370000D03*
D11*
X31750000Y50165000D03*
D10*
X29210000Y50165000D03*
D20*
X4445000Y52705000D03*
D21*
X4445000Y55245000D03*
D10*
X23495000Y37465000D03*
X23495000Y29845000D03*
X40640000Y51435000D03*
X35560000Y51435000D03*
X40640000Y59055000D03*
X35560000Y59055000D03*
X24130000Y69850000D03*
D11*
X24130000Y72390000D03*
X24130000Y62865000D03*
D10*
X24130000Y65405000D03*
D22*
X29845000Y68580000D03*
X29845000Y71120000D03*
D15*
X29845000Y66040000D03*
D10*
X3810000Y27305000D03*
D11*
X6350000Y27305000D03*
X6350000Y13970000D03*
D10*
X3810000Y13970000D03*
X40640000Y27305000D03*
D11*
X38100000Y27305000D03*
X38100000Y13970000D03*
D10*
X40640000Y13970000D03*
X18415000Y19685000D03*
X26035000Y19685000D03*
X26035000Y16510000D03*
X18415000Y16510000D03*
X18415000Y13335000D03*
X26035000Y13335000D03*
X26035000Y10160000D03*
X18415000Y10160000D03*
D20*
X4445000Y64135000D03*
D21*
X4445000Y66675000D03*
X4445000Y69215000D03*
X4445000Y71755000D03*
X4445000Y74295000D03*
D22*
X10160000Y58420000D03*
X10160000Y55880000D03*
D15*
X10160000Y53340000D03*
D10*
X10795000Y37465000D03*
X10795000Y29845000D03*
X13970000Y37465000D03*
X13970000Y29845000D03*
X28575000Y29845000D03*
X28575000Y37465000D03*
X31750000Y29845000D03*
X31750000Y37465000D03*
X10795000Y71755000D03*
X10795000Y64135000D03*
X14605000Y64135000D03*
X14605000Y71755000D03*
D11*
X19685000Y53975000D03*
D10*
X22225000Y53975000D03*
X24765000Y53975000D03*
D23*
X13335000Y40640000D03*
X13335000Y43180000D03*
D24*
X10795000Y43180000D03*
X27940000Y43180000D03*
D23*
X30480000Y43180000D03*
X30480000Y40640000D03*
D25*
X37592000Y64516000D03*
D26*
X37592000Y69596000D03*
D27*
X24384000Y23114000D03*
X19431000Y39878000D03*
X21844000Y39878000D03*
X16510000Y24130000D03*
X22860000Y26416000D03*
D28*
X37592000Y64516000D02*
X34798000Y64516000D01*
X34798000Y64516000D02*
X33528000Y65786000D01*
X33528000Y65786000D02*
X33528000Y67818000D01*
X32766000Y68580000D02*
X29845000Y68580000D01*
X33528000Y67818000D02*
X32766000Y68580000D01*
X27686000Y68580000D02*
X27051000Y67945000D01*
X22479000Y67945000D02*
X16129000Y74295000D01*
X29845000Y68580000D02*
X27686000Y68580000D01*
X14605000Y74041000D02*
X14351000Y74295000D01*
X14605000Y71755000D02*
X14605000Y74041000D01*
X14351000Y74295000D02*
X4445000Y74295000D01*
X16129000Y74295000D02*
X14351000Y74295000D01*
X24130000Y65405000D02*
X24130000Y67945000D01*
X24130000Y67945000D02*
X22479000Y67945000D01*
X27051000Y67945000D02*
X24130000Y67945000D01*
X24130000Y69850000D02*
X24130000Y67945000D01*
X10160000Y58420000D02*
X17526000Y58420000D01*
X17526000Y58420000D02*
X19685000Y56261000D01*
X19685000Y56261000D02*
X19685000Y53975000D01*
X10795000Y15240000D02*
X12065000Y15240000D01*
X12065000Y15240000D02*
X13970000Y17145000D01*
X13970000Y27305000D02*
X13970000Y29845000D01*
X13970000Y25273000D02*
X13970000Y27305000D01*
X13843000Y25400000D02*
X13970000Y25273000D01*
X10795000Y25400000D02*
X13843000Y25400000D01*
X4445000Y34290000D02*
X11430000Y34290000D01*
X11430000Y34290000D02*
X13970000Y31750000D01*
X13970000Y31750000D02*
X13970000Y29845000D01*
X33655000Y10160000D02*
X34671000Y10160000D01*
X35814000Y11303000D02*
X35814000Y29972000D01*
X34671000Y10160000D02*
X35814000Y11303000D01*
X35814000Y37719000D02*
X37465000Y39370000D01*
X35814000Y29972000D02*
X35814000Y37719000D01*
X35687000Y29845000D02*
X35814000Y29972000D01*
X31750000Y29845000D02*
X35687000Y29845000D01*
X37465000Y39370000D02*
X37465000Y42164000D01*
X37465000Y42164000D02*
X38481000Y43180000D01*
X38481000Y43180000D02*
X40640000Y43180000D01*
X13970000Y17145000D02*
X13970000Y21717000D01*
X13970000Y21717000D02*
X22987000Y21717000D01*
X22987000Y21717000D02*
X24384000Y23114000D01*
X13970000Y21717000D02*
X13970000Y25273000D01*
X24130000Y72390000D02*
X26670000Y72390000D01*
X27940000Y71120000D02*
X29845000Y71120000D01*
X26670000Y72390000D02*
X27940000Y71120000D01*
X26670000Y72390000D02*
X26670000Y74549000D01*
X28532620Y76411620D02*
X28532620Y79400400D01*
X26670000Y74549000D02*
X28532620Y76411620D01*
X29845000Y66040000D02*
X29845000Y64008000D01*
X24765000Y58928000D02*
X24765000Y53975000D01*
X29845000Y64008000D02*
X24765000Y58928000D01*
X24130000Y59563000D02*
X24765000Y58928000D01*
X24130000Y62865000D02*
X24130000Y59563000D01*
X4445000Y64135000D02*
X6985000Y64135000D01*
X6985000Y64135000D02*
X9398000Y66548000D01*
X9398000Y66548000D02*
X17018000Y66548000D01*
X20701000Y62865000D02*
X24130000Y62865000D01*
X17018000Y66548000D02*
X20701000Y62865000D01*
X40640000Y59055000D02*
X37465000Y62230000D01*
X31623000Y62230000D02*
X29845000Y64008000D01*
X37465000Y62230000D02*
X31623000Y62230000D01*
X40640000Y51435000D02*
X40640000Y59055000D01*
X40640000Y48260000D02*
X40640000Y51435000D01*
X31750000Y62103000D02*
X31623000Y62230000D01*
X31750000Y50165000D02*
X31750000Y62103000D01*
X6350000Y13970000D02*
X6350000Y10033000D01*
X8763000Y7620000D02*
X10795000Y7620000D01*
X6350000Y10033000D02*
X8763000Y7620000D01*
X10795000Y7620000D02*
X10795000Y5842000D01*
X34417000Y4318000D02*
X36068000Y5969000D01*
X36068000Y5969000D02*
X36068000Y7747000D01*
X38100000Y9779000D02*
X38100000Y13970000D01*
X36068000Y7747000D02*
X38100000Y9779000D01*
X38100000Y13970000D02*
X38100000Y27305000D01*
X6350000Y27305000D02*
X6350000Y13970000D01*
X9017000Y7620000D02*
X11303000Y5334000D01*
X8763000Y7620000D02*
X9017000Y7620000D01*
X11303000Y5334000D02*
X12319000Y4318000D01*
X10795000Y5842000D02*
X11303000Y5334000D01*
X6350000Y10033000D02*
X6350000Y9779000D01*
X11811000Y4318000D02*
X12700000Y4318000D01*
X6350000Y9779000D02*
X11811000Y4318000D01*
X12700000Y4318000D02*
X34417000Y4318000D01*
X12319000Y4318000D02*
X12700000Y4318000D01*
D29*
X19304000Y39878000D02*
X19431000Y39878000D01*
X18542000Y39116000D02*
X19304000Y39878000D01*
X21844000Y39878000D02*
X22225000Y40259000D01*
X22225000Y40259000D02*
X22225000Y53975000D01*
X16510000Y24130000D02*
X17018000Y24130000D01*
X18542000Y25654000D02*
X18542000Y36068000D01*
X17018000Y24130000D02*
X18542000Y25654000D01*
X18542000Y36068000D02*
X18542000Y39116000D01*
D28*
X35560000Y51435000D02*
X35560000Y59055000D01*
X35560000Y50673000D02*
X37465000Y48768000D01*
X35560000Y51435000D02*
X35560000Y50673000D01*
X37465000Y48768000D02*
X37465000Y46609000D01*
X38354000Y45720000D02*
X40640000Y45720000D01*
X37465000Y46609000D02*
X38354000Y45720000D01*
X28575000Y29845000D02*
X28575000Y32639000D01*
X28575000Y32639000D02*
X29464000Y33528000D01*
X29464000Y33528000D02*
X31877000Y33528000D01*
X31877000Y33528000D02*
X34671000Y36322000D01*
X34671000Y43815000D02*
X37465000Y46609000D01*
X34671000Y36322000D02*
X34671000Y43815000D01*
D29*
X23495000Y37465000D02*
X23495000Y46355000D01*
X27305000Y50165000D02*
X29210000Y50165000D01*
X23495000Y46355000D02*
X27305000Y50165000D01*
D28*
X4445000Y69215000D02*
X9525000Y69215000D01*
X10795000Y70485000D02*
X10795000Y71755000D01*
X9525000Y69215000D02*
X10795000Y70485000D01*
D29*
X33655000Y17780000D02*
X31369000Y17780000D01*
X31369000Y17780000D02*
X29972000Y19177000D01*
X33655000Y17780000D02*
X31242000Y17780000D01*
X31242000Y17780000D02*
X29591000Y19431000D01*
X29591000Y19431000D02*
X29591000Y23495000D01*
X29591000Y23495000D02*
X26670000Y26416000D01*
X26670000Y26416000D02*
X22860000Y26416000D01*
X28829000Y7620000D02*
X33655000Y7620000D01*
X27940000Y8509000D02*
X28829000Y7620000D01*
X4445000Y39370000D02*
X5715000Y39370000D01*
X15621000Y23622000D02*
X16256000Y22987000D01*
X5715000Y39370000D02*
X6731000Y38354000D01*
X6731000Y38354000D02*
X6731000Y36195000D01*
X6731000Y36195000D02*
X7620000Y35306000D01*
X7620000Y35306000D02*
X11811000Y35306000D01*
X11811000Y35306000D02*
X15621000Y31496000D01*
X16256000Y22987000D02*
X17399000Y22987000D01*
X15621000Y31496000D02*
X15621000Y23622000D01*
X17399000Y22987000D02*
X18669000Y24257000D01*
X18669000Y24257000D02*
X25908000Y24257000D01*
X25908000Y24257000D02*
X27940000Y22225000D01*
X27940000Y22225000D02*
X27940000Y8509000D01*
X23495000Y29845000D02*
X23495000Y31369000D01*
X20320000Y34544000D02*
X20320000Y37465000D01*
X23495000Y31369000D02*
X20320000Y34544000D01*
X10795000Y43180000D02*
X10795000Y44196000D01*
X20320000Y37465000D02*
X20320000Y43053000D01*
X20320000Y43053000D02*
X18161000Y45212000D01*
X18161000Y45212000D02*
X11303000Y45212000D01*
X10795000Y44704000D02*
X10795000Y43180000D01*
X11303000Y45212000D02*
X10795000Y44704000D01*
X23495000Y29845000D02*
X23495000Y31496000D01*
X23495000Y31496000D02*
X25527000Y33528000D01*
X25527000Y33528000D02*
X25527000Y42164000D01*
X26543000Y43180000D02*
X27940000Y43180000D01*
X25527000Y42164000D02*
X26543000Y43180000D01*
X26035000Y10160000D02*
X26035000Y13335000D01*
X26035000Y13335000D02*
X26035000Y16510000D01*
X26035000Y16510000D02*
X26035000Y19685000D01*
D28*
X26035000Y19685000D02*
X26035000Y10160000D01*
D29*
X10795000Y64135000D02*
X14605000Y64135000D01*
X10160000Y53340000D02*
X8890000Y53340000D01*
X8890000Y53340000D02*
X8128000Y54102000D01*
X8128000Y61468000D02*
X10795000Y64135000D01*
X8128000Y54102000D02*
X8128000Y61468000D01*
X33655000Y15240000D02*
X29591000Y15240000D01*
X29591000Y15240000D02*
X28702000Y16129000D01*
X28702000Y16129000D02*
X28702000Y22733000D01*
X28702000Y22733000D02*
X26416000Y25019000D01*
X26416000Y25019000D02*
X22098000Y25019000D01*
X20320000Y26797000D02*
X20320000Y29845000D01*
X22098000Y25019000D02*
X20320000Y26797000D01*
X10795000Y37465000D02*
X13970000Y37465000D01*
X13970000Y37465000D02*
X15875000Y39370000D01*
X15875000Y39370000D02*
X15875000Y41910000D01*
X14605000Y43180000D02*
X13335000Y43180000D01*
X15875000Y41910000D02*
X14605000Y43180000D01*
X28575000Y37465000D02*
X31750000Y37465000D01*
X31750000Y37465000D02*
X32893000Y38608000D01*
X32893000Y38608000D02*
X32893000Y42037000D01*
X31750000Y43180000D02*
X30480000Y43180000D01*
X32893000Y42037000D02*
X31750000Y43180000D01*
D30*
X5955828Y35873914D02*
X6033364Y35728855D01*
X6056907Y35700168D01*
X6137710Y35601709D01*
X6169574Y35575559D01*
X7000563Y34744568D01*
X7026709Y34712709D01*
X7058568Y34686563D01*
X7058570Y34686561D01*
X7153854Y34608364D01*
X7298913Y34530828D01*
X7456311Y34483082D01*
X7620000Y34466960D01*
X7661018Y34471000D01*
X11465133Y34471000D01*
X14531717Y31404414D01*
X14232656Y31483064D01*
X13908038Y31502831D01*
X13585802Y31458888D01*
X13278330Y31352924D01*
X13100478Y31257860D01*
X13002782Y30991823D01*
X13970000Y30024605D01*
X13984143Y30038747D01*
X14163748Y29859142D01*
X14149605Y29845000D01*
X14163748Y29830857D01*
X13984143Y29651252D01*
X13970000Y29665395D01*
X13002782Y28698177D01*
X13100478Y28432140D01*
X13392821Y28289652D01*
X13707344Y28206936D01*
X14031962Y28187169D01*
X14354198Y28231112D01*
X14661670Y28337076D01*
X14786000Y28403532D01*
X14786001Y23663029D01*
X14781960Y23622000D01*
X14798082Y23458312D01*
X14845828Y23300914D01*
X14923364Y23155855D01*
X14946907Y23127168D01*
X15027710Y23028709D01*
X15059573Y23002559D01*
X15636562Y22425569D01*
X15662709Y22393709D01*
X15789854Y22289364D01*
X15934913Y22211828D01*
X16092311Y22164082D01*
X16214981Y22152000D01*
X16214982Y22152000D01*
X16256000Y22147960D01*
X16297018Y22152000D01*
X17357982Y22152000D01*
X17399000Y22147960D01*
X17440018Y22152000D01*
X17440019Y22152000D01*
X17562689Y22164082D01*
X17720087Y22211828D01*
X17865146Y22289364D01*
X17992291Y22393709D01*
X18018446Y22425579D01*
X19014868Y23422000D01*
X25562133Y23422000D01*
X27105000Y21879131D01*
X27105000Y20949866D01*
X27087451Y20967415D01*
X26817042Y21148097D01*
X26516579Y21272553D01*
X26197609Y21336000D01*
X25872391Y21336000D01*
X25553421Y21272553D01*
X25252958Y21148097D01*
X24982549Y20967415D01*
X24752585Y20737451D01*
X24571903Y20467042D01*
X24447447Y20166579D01*
X24384000Y19847609D01*
X24384000Y19522391D01*
X24447447Y19203421D01*
X24571903Y18902958D01*
X24752585Y18632549D01*
X24982549Y18402585D01*
X25019000Y18378229D01*
X25019000Y17816771D01*
X24982549Y17792415D01*
X24752585Y17562451D01*
X24571903Y17292042D01*
X24447447Y16991579D01*
X24384000Y16672609D01*
X24384000Y16347391D01*
X24447447Y16028421D01*
X24571903Y15727958D01*
X24752585Y15457549D01*
X24982549Y15227585D01*
X25019000Y15203229D01*
X25019001Y14641771D01*
X24982549Y14617415D01*
X24752585Y14387451D01*
X24571903Y14117042D01*
X24447447Y13816579D01*
X24384000Y13497609D01*
X24384000Y13172391D01*
X24447447Y12853421D01*
X24571903Y12552958D01*
X24752585Y12282549D01*
X24982549Y12052585D01*
X25019001Y12028229D01*
X25019001Y11466771D01*
X24982549Y11442415D01*
X24752585Y11212451D01*
X24571903Y10942042D01*
X24447447Y10641579D01*
X24384000Y10322609D01*
X24384000Y9997391D01*
X24447447Y9678421D01*
X24571903Y9377958D01*
X24752585Y9107549D01*
X24982549Y8877585D01*
X25252958Y8696903D01*
X25553421Y8572447D01*
X25872391Y8509000D01*
X26197609Y8509000D01*
X26516579Y8572447D01*
X26817042Y8696903D01*
X27087451Y8877585D01*
X27105001Y8895135D01*
X27105001Y8550029D01*
X27100960Y8509000D01*
X27117082Y8345312D01*
X27164828Y8187914D01*
X27242364Y8042855D01*
X27242365Y8042854D01*
X27346710Y7915709D01*
X27378574Y7889559D01*
X28209563Y7058568D01*
X28235709Y7026709D01*
X28267568Y7000563D01*
X28267570Y7000561D01*
X28304446Y6970298D01*
X28362854Y6922364D01*
X28507913Y6844828D01*
X28665311Y6797082D01*
X28785941Y6785201D01*
X28829000Y6780960D01*
X28870018Y6785000D01*
X31873928Y6785000D01*
X31873928Y6731000D01*
X31886188Y6606518D01*
X31922498Y6486820D01*
X31981463Y6376506D01*
X32060815Y6279815D01*
X32157506Y6200463D01*
X32267820Y6141498D01*
X32387518Y6105188D01*
X32512000Y6092928D01*
X34755087Y6092928D01*
X33996160Y5334000D01*
X12739841Y5334000D01*
X12056710Y6017130D01*
X12056706Y6017135D01*
X11811000Y6262841D01*
X11811000Y6299253D01*
X11899785Y6346710D01*
X12131844Y6537156D01*
X12322290Y6769215D01*
X12463804Y7033969D01*
X12550948Y7321244D01*
X12580373Y7620000D01*
X12550948Y7918756D01*
X12463804Y8206031D01*
X12322290Y8470785D01*
X12131844Y8702844D01*
X11903794Y8890000D01*
X12131844Y9077156D01*
X12322290Y9309215D01*
X12463804Y9573969D01*
X12550948Y9861244D01*
X12580373Y10160000D01*
X12550948Y10458756D01*
X12463804Y10746031D01*
X12322290Y11010785D01*
X12131844Y11242844D01*
X11903794Y11430000D01*
X12131844Y11617156D01*
X12322290Y11849215D01*
X12463804Y12113969D01*
X12550948Y12401244D01*
X12580373Y12700000D01*
X12550948Y12998756D01*
X12463804Y13286031D01*
X12322290Y13550785D01*
X12131844Y13782844D01*
X11899785Y13973290D01*
X11895998Y13975314D01*
X12001285Y14043398D01*
X12216433Y14252172D01*
X12386717Y14498908D01*
X12505593Y14774124D01*
X12529134Y14876987D01*
X12408330Y15113000D01*
X10922000Y15113000D01*
X10922000Y15093000D01*
X10668000Y15093000D01*
X10668000Y15113000D01*
X9181670Y15113000D01*
X9060866Y14876987D01*
X9084407Y14774124D01*
X9203283Y14498908D01*
X9373567Y14252172D01*
X9588715Y14043398D01*
X9694002Y13975314D01*
X9690215Y13973290D01*
X9458156Y13782844D01*
X9267710Y13550785D01*
X9126196Y13286031D01*
X9039052Y12998756D01*
X9009627Y12700000D01*
X9039052Y12401244D01*
X9126196Y12113969D01*
X9267710Y11849215D01*
X9458156Y11617156D01*
X9686206Y11430000D01*
X9458156Y11242844D01*
X9267710Y11010785D01*
X9126196Y10746031D01*
X9039052Y10458756D01*
X9009627Y10160000D01*
X9039052Y9861244D01*
X9126196Y9573969D01*
X9267710Y9309215D01*
X9458156Y9077156D01*
X9686206Y8890000D01*
X9458156Y8702844D01*
X9403299Y8636000D01*
X9183841Y8636000D01*
X7366000Y10453840D01*
X7366000Y12315928D01*
X7490482Y12328188D01*
X7610180Y12364498D01*
X7720494Y12423463D01*
X7817185Y12502815D01*
X7896537Y12599506D01*
X7955502Y12709820D01*
X7991812Y12829518D01*
X8004072Y12954000D01*
X8004072Y14986000D01*
X7991812Y15110482D01*
X7955502Y15230180D01*
X7896537Y15340494D01*
X7817185Y15437185D01*
X7720494Y15516537D01*
X7610180Y15575502D01*
X7490482Y15611812D01*
X7366000Y15624072D01*
X7366000Y22860000D01*
X9009627Y22860000D01*
X9039052Y22561244D01*
X9126196Y22273969D01*
X9267710Y22009215D01*
X9458156Y21777156D01*
X9686206Y21590000D01*
X9458156Y21402844D01*
X9267710Y21170785D01*
X9126196Y20906031D01*
X9039052Y20618756D01*
X9009627Y20320000D01*
X9039052Y20021244D01*
X9126196Y19733969D01*
X9267710Y19469215D01*
X9458156Y19237156D01*
X9686206Y19050000D01*
X9458156Y18862844D01*
X9267710Y18630785D01*
X9126196Y18366031D01*
X9039052Y18078756D01*
X9009627Y17780000D01*
X9039052Y17481244D01*
X9126196Y17193969D01*
X9267710Y16929215D01*
X9458156Y16697156D01*
X9690215Y16506710D01*
X9694002Y16504686D01*
X9588715Y16436602D01*
X9373567Y16227828D01*
X9203283Y15981092D01*
X9084407Y15705876D01*
X9060866Y15603013D01*
X9181670Y15367000D01*
X10668000Y15367000D01*
X10668000Y15387000D01*
X10922000Y15387000D01*
X10922000Y15367000D01*
X12408330Y15367000D01*
X12529134Y15603013D01*
X12505593Y15705876D01*
X12386717Y15981092D01*
X12216433Y16227828D01*
X12001285Y16436602D01*
X11895998Y16504686D01*
X11899785Y16506710D01*
X12131844Y16697156D01*
X12322290Y16929215D01*
X12463804Y17193969D01*
X12550948Y17481244D01*
X12580373Y17780000D01*
X12550948Y18078756D01*
X12463804Y18366031D01*
X12322290Y18630785D01*
X12131844Y18862844D01*
X11903794Y19050000D01*
X12131844Y19237156D01*
X12322290Y19469215D01*
X12463804Y19733969D01*
X12498276Y19847609D01*
X16764000Y19847609D01*
X16764000Y19522391D01*
X16827447Y19203421D01*
X16951903Y18902958D01*
X17132585Y18632549D01*
X17362549Y18402585D01*
X17632958Y18221903D01*
X17933293Y18097500D01*
X17632958Y17973097D01*
X17362549Y17792415D01*
X17132585Y17562451D01*
X16951903Y17292042D01*
X16827447Y16991579D01*
X16764000Y16672609D01*
X16764000Y16347391D01*
X16827447Y16028421D01*
X16951903Y15727958D01*
X17132585Y15457549D01*
X17362549Y15227585D01*
X17632958Y15046903D01*
X17933293Y14922500D01*
X17632958Y14798097D01*
X17362549Y14617415D01*
X17132585Y14387451D01*
X16951903Y14117042D01*
X16827447Y13816579D01*
X16764000Y13497609D01*
X16764000Y13172391D01*
X16827447Y12853421D01*
X16951903Y12552958D01*
X17132585Y12282549D01*
X17362549Y12052585D01*
X17632958Y11871903D01*
X17933293Y11747500D01*
X17632958Y11623097D01*
X17362549Y11442415D01*
X17132585Y11212451D01*
X16951903Y10942042D01*
X16827447Y10641579D01*
X16764000Y10322609D01*
X16764000Y9997391D01*
X16827447Y9678421D01*
X16951903Y9377958D01*
X17132585Y9107549D01*
X17362549Y8877585D01*
X17632958Y8696903D01*
X17933421Y8572447D01*
X18252391Y8509000D01*
X18577609Y8509000D01*
X18896579Y8572447D01*
X19197042Y8696903D01*
X19467451Y8877585D01*
X19697415Y9107549D01*
X19878097Y9377958D01*
X20002553Y9678421D01*
X20066000Y9997391D01*
X20066000Y10322609D01*
X20002553Y10641579D01*
X19878097Y10942042D01*
X19697415Y11212451D01*
X19467451Y11442415D01*
X19197042Y11623097D01*
X18896707Y11747500D01*
X19197042Y11871903D01*
X19467451Y12052585D01*
X19697415Y12282549D01*
X19878097Y12552958D01*
X20002553Y12853421D01*
X20066000Y13172391D01*
X20066000Y13497609D01*
X20002553Y13816579D01*
X19878097Y14117042D01*
X19697415Y14387451D01*
X19467451Y14617415D01*
X19197042Y14798097D01*
X18896707Y14922500D01*
X19197042Y15046903D01*
X19467451Y15227585D01*
X19697415Y15457549D01*
X19878097Y15727958D01*
X20002553Y16028421D01*
X20066000Y16347391D01*
X20066000Y16672609D01*
X20002553Y16991579D01*
X19878097Y17292042D01*
X19697415Y17562451D01*
X19467451Y17792415D01*
X19197042Y17973097D01*
X18896707Y18097500D01*
X19197042Y18221903D01*
X19467451Y18402585D01*
X19697415Y18632549D01*
X19878097Y18902958D01*
X20002553Y19203421D01*
X20066000Y19522391D01*
X20066000Y19847609D01*
X20002553Y20166579D01*
X19878097Y20467042D01*
X19697415Y20737451D01*
X19467451Y20967415D01*
X19197042Y21148097D01*
X18896579Y21272553D01*
X18577609Y21336000D01*
X18252391Y21336000D01*
X17933421Y21272553D01*
X17632958Y21148097D01*
X17362549Y20967415D01*
X17132585Y20737451D01*
X16951903Y20467042D01*
X16827447Y20166579D01*
X16764000Y19847609D01*
X12498276Y19847609D01*
X12550948Y20021244D01*
X12580373Y20320000D01*
X12550948Y20618756D01*
X12463804Y20906031D01*
X12322290Y21170785D01*
X12131844Y21402844D01*
X11903794Y21590000D01*
X12131844Y21777156D01*
X12322290Y22009215D01*
X12463804Y22273969D01*
X12550948Y22561244D01*
X12580373Y22860000D01*
X12550948Y23158756D01*
X12463804Y23446031D01*
X12322290Y23710785D01*
X12131844Y23942844D01*
X11899785Y24133290D01*
X11895998Y24135314D01*
X12001285Y24203398D01*
X12216433Y24412172D01*
X12386717Y24658908D01*
X12505593Y24934124D01*
X12529134Y25036987D01*
X12408330Y25273000D01*
X10922000Y25273000D01*
X10922000Y25253000D01*
X10668000Y25253000D01*
X10668000Y25273000D01*
X9181670Y25273000D01*
X9060866Y25036987D01*
X9084407Y24934124D01*
X9203283Y24658908D01*
X9373567Y24412172D01*
X9588715Y24203398D01*
X9694002Y24135314D01*
X9690215Y24133290D01*
X9458156Y23942844D01*
X9267710Y23710785D01*
X9126196Y23446031D01*
X9039052Y23158756D01*
X9009627Y22860000D01*
X7366000Y22860000D01*
X7366000Y25650928D01*
X7490482Y25663188D01*
X7610180Y25699498D01*
X7720494Y25758463D01*
X7726038Y25763013D01*
X9060866Y25763013D01*
X9181670Y25527000D01*
X10668000Y25527000D01*
X10668000Y26924000D01*
X10922000Y26924000D01*
X10922000Y25527000D01*
X12408330Y25527000D01*
X12529134Y25763013D01*
X12505593Y25865876D01*
X12386717Y26141092D01*
X12216433Y26387828D01*
X12001285Y26596602D01*
X11749542Y26759391D01*
X11470877Y26869940D01*
X11176000Y26924000D01*
X10922000Y26924000D01*
X10668000Y26924000D01*
X10414000Y26924000D01*
X10119123Y26869940D01*
X9840458Y26759391D01*
X9588715Y26596602D01*
X9373567Y26387828D01*
X9203283Y26141092D01*
X9084407Y25865876D01*
X9060866Y25763013D01*
X7726038Y25763013D01*
X7817185Y25837815D01*
X7896537Y25934506D01*
X7955502Y26044820D01*
X7991812Y26164518D01*
X8004072Y26289000D01*
X8004072Y28321000D01*
X7991812Y28445482D01*
X7955502Y28565180D01*
X7896537Y28675494D01*
X7817185Y28772185D01*
X7720494Y28851537D01*
X7610180Y28910502D01*
X7490482Y28946812D01*
X7366000Y28959072D01*
X5334000Y28959072D01*
X5209518Y28946812D01*
X5089820Y28910502D01*
X4979506Y28851537D01*
X4882815Y28772185D01*
X4803463Y28675494D01*
X4784296Y28639636D01*
X4592042Y28768097D01*
X4291579Y28892553D01*
X3972609Y28956000D01*
X3647391Y28956000D01*
X3328421Y28892553D01*
X3059781Y28781279D01*
X3059781Y30007609D01*
X9144000Y30007609D01*
X9144000Y29682391D01*
X9207447Y29363421D01*
X9331903Y29062958D01*
X9512585Y28792549D01*
X9742549Y28562585D01*
X10012958Y28381903D01*
X10313421Y28257447D01*
X10632391Y28194000D01*
X10957609Y28194000D01*
X11276579Y28257447D01*
X11577042Y28381903D01*
X11847451Y28562585D01*
X12077415Y28792549D01*
X12258097Y29062958D01*
X12382553Y29363421D01*
X12385158Y29376519D01*
X12462076Y29153330D01*
X12557140Y28975478D01*
X12823177Y28877782D01*
X13790395Y29845000D01*
X12823177Y30812218D01*
X12557140Y30714522D01*
X12414652Y30422179D01*
X12385549Y30311517D01*
X12382553Y30326579D01*
X12258097Y30627042D01*
X12077415Y30897451D01*
X11847451Y31127415D01*
X11577042Y31308097D01*
X11276579Y31432553D01*
X10957609Y31496000D01*
X10632391Y31496000D01*
X10313421Y31432553D01*
X10012958Y31308097D01*
X9742549Y31127415D01*
X9512585Y30897451D01*
X9331903Y30627042D01*
X9207447Y30326579D01*
X9144000Y30007609D01*
X3059781Y30007609D01*
X3059781Y32698715D01*
X3150530Y32650208D01*
X3270228Y32613898D01*
X3394710Y32601638D01*
X4159250Y32604710D01*
X4318000Y32763460D01*
X4318000Y34163000D01*
X4572000Y34163000D01*
X4572000Y32763460D01*
X4730750Y32604710D01*
X5495290Y32601638D01*
X5619772Y32613898D01*
X5739470Y32650208D01*
X5849784Y32709173D01*
X5946475Y32788525D01*
X6025827Y32885216D01*
X6084792Y32995530D01*
X6121102Y33115228D01*
X6133362Y33239710D01*
X6130290Y34004250D01*
X5971540Y34163000D01*
X4572000Y34163000D01*
X4318000Y34163000D01*
X4298000Y34163000D01*
X4298000Y34417000D01*
X4318000Y34417000D01*
X4318000Y34437000D01*
X4572000Y34437000D01*
X4572000Y34417000D01*
X5971540Y34417000D01*
X6130290Y34575750D01*
X6133362Y35340290D01*
X6121102Y35464772D01*
X6084792Y35584470D01*
X6025827Y35694784D01*
X5946475Y35791475D01*
X5876113Y35849219D01*
X5936090Y35938981D01*
X5955828Y35873914D01*
G04 #@! TA.AperFunction,Conductor*
D31*
G36*
X5955828Y35873914D02*
G01*
X6033364Y35728855D01*
X6056907Y35700168D01*
X6137710Y35601709D01*
X6169574Y35575559D01*
X7000563Y34744568D01*
X7026709Y34712709D01*
X7058568Y34686563D01*
X7058570Y34686561D01*
X7153854Y34608364D01*
X7298913Y34530828D01*
X7456311Y34483082D01*
X7620000Y34466960D01*
X7661018Y34471000D01*
X11465133Y34471000D01*
X14531717Y31404414D01*
X14232656Y31483064D01*
X13908038Y31502831D01*
X13585802Y31458888D01*
X13278330Y31352924D01*
X13100478Y31257860D01*
X13002782Y30991823D01*
X13970000Y30024605D01*
X13984143Y30038747D01*
X14163748Y29859142D01*
X14149605Y29845000D01*
X14163748Y29830857D01*
X13984143Y29651252D01*
X13970000Y29665395D01*
X13002782Y28698177D01*
X13100478Y28432140D01*
X13392821Y28289652D01*
X13707344Y28206936D01*
X14031962Y28187169D01*
X14354198Y28231112D01*
X14661670Y28337076D01*
X14786000Y28403532D01*
X14786001Y23663029D01*
X14781960Y23622000D01*
X14798082Y23458312D01*
X14845828Y23300914D01*
X14923364Y23155855D01*
X14946907Y23127168D01*
X15027710Y23028709D01*
X15059573Y23002559D01*
X15636562Y22425569D01*
X15662709Y22393709D01*
X15789854Y22289364D01*
X15934913Y22211828D01*
X16092311Y22164082D01*
X16214981Y22152000D01*
X16214982Y22152000D01*
X16256000Y22147960D01*
X16297018Y22152000D01*
X17357982Y22152000D01*
X17399000Y22147960D01*
X17440018Y22152000D01*
X17440019Y22152000D01*
X17562689Y22164082D01*
X17720087Y22211828D01*
X17865146Y22289364D01*
X17992291Y22393709D01*
X18018446Y22425579D01*
X19014868Y23422000D01*
X25562133Y23422000D01*
X27105000Y21879131D01*
X27105000Y20949866D01*
X27087451Y20967415D01*
X26817042Y21148097D01*
X26516579Y21272553D01*
X26197609Y21336000D01*
X25872391Y21336000D01*
X25553421Y21272553D01*
X25252958Y21148097D01*
X24982549Y20967415D01*
X24752585Y20737451D01*
X24571903Y20467042D01*
X24447447Y20166579D01*
X24384000Y19847609D01*
X24384000Y19522391D01*
X24447447Y19203421D01*
X24571903Y18902958D01*
X24752585Y18632549D01*
X24982549Y18402585D01*
X25019000Y18378229D01*
X25019000Y17816771D01*
X24982549Y17792415D01*
X24752585Y17562451D01*
X24571903Y17292042D01*
X24447447Y16991579D01*
X24384000Y16672609D01*
X24384000Y16347391D01*
X24447447Y16028421D01*
X24571903Y15727958D01*
X24752585Y15457549D01*
X24982549Y15227585D01*
X25019000Y15203229D01*
X25019001Y14641771D01*
X24982549Y14617415D01*
X24752585Y14387451D01*
X24571903Y14117042D01*
X24447447Y13816579D01*
X24384000Y13497609D01*
X24384000Y13172391D01*
X24447447Y12853421D01*
X24571903Y12552958D01*
X24752585Y12282549D01*
X24982549Y12052585D01*
X25019001Y12028229D01*
X25019001Y11466771D01*
X24982549Y11442415D01*
X24752585Y11212451D01*
X24571903Y10942042D01*
X24447447Y10641579D01*
X24384000Y10322609D01*
X24384000Y9997391D01*
X24447447Y9678421D01*
X24571903Y9377958D01*
X24752585Y9107549D01*
X24982549Y8877585D01*
X25252958Y8696903D01*
X25553421Y8572447D01*
X25872391Y8509000D01*
X26197609Y8509000D01*
X26516579Y8572447D01*
X26817042Y8696903D01*
X27087451Y8877585D01*
X27105001Y8895135D01*
X27105001Y8550029D01*
X27100960Y8509000D01*
X27117082Y8345312D01*
X27164828Y8187914D01*
X27242364Y8042855D01*
X27242365Y8042854D01*
X27346710Y7915709D01*
X27378574Y7889559D01*
X28209563Y7058568D01*
X28235709Y7026709D01*
X28267568Y7000563D01*
X28267570Y7000561D01*
X28304446Y6970298D01*
X28362854Y6922364D01*
X28507913Y6844828D01*
X28665311Y6797082D01*
X28785941Y6785201D01*
X28829000Y6780960D01*
X28870018Y6785000D01*
X31873928Y6785000D01*
X31873928Y6731000D01*
X31886188Y6606518D01*
X31922498Y6486820D01*
X31981463Y6376506D01*
X32060815Y6279815D01*
X32157506Y6200463D01*
X32267820Y6141498D01*
X32387518Y6105188D01*
X32512000Y6092928D01*
X34755087Y6092928D01*
X33996160Y5334000D01*
X12739841Y5334000D01*
X12056710Y6017130D01*
X12056706Y6017135D01*
X11811000Y6262841D01*
X11811000Y6299253D01*
X11899785Y6346710D01*
X12131844Y6537156D01*
X12322290Y6769215D01*
X12463804Y7033969D01*
X12550948Y7321244D01*
X12580373Y7620000D01*
X12550948Y7918756D01*
X12463804Y8206031D01*
X12322290Y8470785D01*
X12131844Y8702844D01*
X11903794Y8890000D01*
X12131844Y9077156D01*
X12322290Y9309215D01*
X12463804Y9573969D01*
X12550948Y9861244D01*
X12580373Y10160000D01*
X12550948Y10458756D01*
X12463804Y10746031D01*
X12322290Y11010785D01*
X12131844Y11242844D01*
X11903794Y11430000D01*
X12131844Y11617156D01*
X12322290Y11849215D01*
X12463804Y12113969D01*
X12550948Y12401244D01*
X12580373Y12700000D01*
X12550948Y12998756D01*
X12463804Y13286031D01*
X12322290Y13550785D01*
X12131844Y13782844D01*
X11899785Y13973290D01*
X11895998Y13975314D01*
X12001285Y14043398D01*
X12216433Y14252172D01*
X12386717Y14498908D01*
X12505593Y14774124D01*
X12529134Y14876987D01*
X12408330Y15113000D01*
X10922000Y15113000D01*
X10922000Y15093000D01*
X10668000Y15093000D01*
X10668000Y15113000D01*
X9181670Y15113000D01*
X9060866Y14876987D01*
X9084407Y14774124D01*
X9203283Y14498908D01*
X9373567Y14252172D01*
X9588715Y14043398D01*
X9694002Y13975314D01*
X9690215Y13973290D01*
X9458156Y13782844D01*
X9267710Y13550785D01*
X9126196Y13286031D01*
X9039052Y12998756D01*
X9009627Y12700000D01*
X9039052Y12401244D01*
X9126196Y12113969D01*
X9267710Y11849215D01*
X9458156Y11617156D01*
X9686206Y11430000D01*
X9458156Y11242844D01*
X9267710Y11010785D01*
X9126196Y10746031D01*
X9039052Y10458756D01*
X9009627Y10160000D01*
X9039052Y9861244D01*
X9126196Y9573969D01*
X9267710Y9309215D01*
X9458156Y9077156D01*
X9686206Y8890000D01*
X9458156Y8702844D01*
X9403299Y8636000D01*
X9183841Y8636000D01*
X7366000Y10453840D01*
X7366000Y12315928D01*
X7490482Y12328188D01*
X7610180Y12364498D01*
X7720494Y12423463D01*
X7817185Y12502815D01*
X7896537Y12599506D01*
X7955502Y12709820D01*
X7991812Y12829518D01*
X8004072Y12954000D01*
X8004072Y14986000D01*
X7991812Y15110482D01*
X7955502Y15230180D01*
X7896537Y15340494D01*
X7817185Y15437185D01*
X7720494Y15516537D01*
X7610180Y15575502D01*
X7490482Y15611812D01*
X7366000Y15624072D01*
X7366000Y22860000D01*
X9009627Y22860000D01*
X9039052Y22561244D01*
X9126196Y22273969D01*
X9267710Y22009215D01*
X9458156Y21777156D01*
X9686206Y21590000D01*
X9458156Y21402844D01*
X9267710Y21170785D01*
X9126196Y20906031D01*
X9039052Y20618756D01*
X9009627Y20320000D01*
X9039052Y20021244D01*
X9126196Y19733969D01*
X9267710Y19469215D01*
X9458156Y19237156D01*
X9686206Y19050000D01*
X9458156Y18862844D01*
X9267710Y18630785D01*
X9126196Y18366031D01*
X9039052Y18078756D01*
X9009627Y17780000D01*
X9039052Y17481244D01*
X9126196Y17193969D01*
X9267710Y16929215D01*
X9458156Y16697156D01*
X9690215Y16506710D01*
X9694002Y16504686D01*
X9588715Y16436602D01*
X9373567Y16227828D01*
X9203283Y15981092D01*
X9084407Y15705876D01*
X9060866Y15603013D01*
X9181670Y15367000D01*
X10668000Y15367000D01*
X10668000Y15387000D01*
X10922000Y15387000D01*
X10922000Y15367000D01*
X12408330Y15367000D01*
X12529134Y15603013D01*
X12505593Y15705876D01*
X12386717Y15981092D01*
X12216433Y16227828D01*
X12001285Y16436602D01*
X11895998Y16504686D01*
X11899785Y16506710D01*
X12131844Y16697156D01*
X12322290Y16929215D01*
X12463804Y17193969D01*
X12550948Y17481244D01*
X12580373Y17780000D01*
X12550948Y18078756D01*
X12463804Y18366031D01*
X12322290Y18630785D01*
X12131844Y18862844D01*
X11903794Y19050000D01*
X12131844Y19237156D01*
X12322290Y19469215D01*
X12463804Y19733969D01*
X12498276Y19847609D01*
X16764000Y19847609D01*
X16764000Y19522391D01*
X16827447Y19203421D01*
X16951903Y18902958D01*
X17132585Y18632549D01*
X17362549Y18402585D01*
X17632958Y18221903D01*
X17933293Y18097500D01*
X17632958Y17973097D01*
X17362549Y17792415D01*
X17132585Y17562451D01*
X16951903Y17292042D01*
X16827447Y16991579D01*
X16764000Y16672609D01*
X16764000Y16347391D01*
X16827447Y16028421D01*
X16951903Y15727958D01*
X17132585Y15457549D01*
X17362549Y15227585D01*
X17632958Y15046903D01*
X17933293Y14922500D01*
X17632958Y14798097D01*
X17362549Y14617415D01*
X17132585Y14387451D01*
X16951903Y14117042D01*
X16827447Y13816579D01*
X16764000Y13497609D01*
X16764000Y13172391D01*
X16827447Y12853421D01*
X16951903Y12552958D01*
X17132585Y12282549D01*
X17362549Y12052585D01*
X17632958Y11871903D01*
X17933293Y11747500D01*
X17632958Y11623097D01*
X17362549Y11442415D01*
X17132585Y11212451D01*
X16951903Y10942042D01*
X16827447Y10641579D01*
X16764000Y10322609D01*
X16764000Y9997391D01*
X16827447Y9678421D01*
X16951903Y9377958D01*
X17132585Y9107549D01*
X17362549Y8877585D01*
X17632958Y8696903D01*
X17933421Y8572447D01*
X18252391Y8509000D01*
X18577609Y8509000D01*
X18896579Y8572447D01*
X19197042Y8696903D01*
X19467451Y8877585D01*
X19697415Y9107549D01*
X19878097Y9377958D01*
X20002553Y9678421D01*
X20066000Y9997391D01*
X20066000Y10322609D01*
X20002553Y10641579D01*
X19878097Y10942042D01*
X19697415Y11212451D01*
X19467451Y11442415D01*
X19197042Y11623097D01*
X18896707Y11747500D01*
X19197042Y11871903D01*
X19467451Y12052585D01*
X19697415Y12282549D01*
X19878097Y12552958D01*
X20002553Y12853421D01*
X20066000Y13172391D01*
X20066000Y13497609D01*
X20002553Y13816579D01*
X19878097Y14117042D01*
X19697415Y14387451D01*
X19467451Y14617415D01*
X19197042Y14798097D01*
X18896707Y14922500D01*
X19197042Y15046903D01*
X19467451Y15227585D01*
X19697415Y15457549D01*
X19878097Y15727958D01*
X20002553Y16028421D01*
X20066000Y16347391D01*
X20066000Y16672609D01*
X20002553Y16991579D01*
X19878097Y17292042D01*
X19697415Y17562451D01*
X19467451Y17792415D01*
X19197042Y17973097D01*
X18896707Y18097500D01*
X19197042Y18221903D01*
X19467451Y18402585D01*
X19697415Y18632549D01*
X19878097Y18902958D01*
X20002553Y19203421D01*
X20066000Y19522391D01*
X20066000Y19847609D01*
X20002553Y20166579D01*
X19878097Y20467042D01*
X19697415Y20737451D01*
X19467451Y20967415D01*
X19197042Y21148097D01*
X18896579Y21272553D01*
X18577609Y21336000D01*
X18252391Y21336000D01*
X17933421Y21272553D01*
X17632958Y21148097D01*
X17362549Y20967415D01*
X17132585Y20737451D01*
X16951903Y20467042D01*
X16827447Y20166579D01*
X16764000Y19847609D01*
X12498276Y19847609D01*
X12550948Y20021244D01*
X12580373Y20320000D01*
X12550948Y20618756D01*
X12463804Y20906031D01*
X12322290Y21170785D01*
X12131844Y21402844D01*
X11903794Y21590000D01*
X12131844Y21777156D01*
X12322290Y22009215D01*
X12463804Y22273969D01*
X12550948Y22561244D01*
X12580373Y22860000D01*
X12550948Y23158756D01*
X12463804Y23446031D01*
X12322290Y23710785D01*
X12131844Y23942844D01*
X11899785Y24133290D01*
X11895998Y24135314D01*
X12001285Y24203398D01*
X12216433Y24412172D01*
X12386717Y24658908D01*
X12505593Y24934124D01*
X12529134Y25036987D01*
X12408330Y25273000D01*
X10922000Y25273000D01*
X10922000Y25253000D01*
X10668000Y25253000D01*
X10668000Y25273000D01*
X9181670Y25273000D01*
X9060866Y25036987D01*
X9084407Y24934124D01*
X9203283Y24658908D01*
X9373567Y24412172D01*
X9588715Y24203398D01*
X9694002Y24135314D01*
X9690215Y24133290D01*
X9458156Y23942844D01*
X9267710Y23710785D01*
X9126196Y23446031D01*
X9039052Y23158756D01*
X9009627Y22860000D01*
X7366000Y22860000D01*
X7366000Y25650928D01*
X7490482Y25663188D01*
X7610180Y25699498D01*
X7720494Y25758463D01*
X7726038Y25763013D01*
X9060866Y25763013D01*
X9181670Y25527000D01*
X10668000Y25527000D01*
X10668000Y26924000D01*
X10922000Y26924000D01*
X10922000Y25527000D01*
X12408330Y25527000D01*
X12529134Y25763013D01*
X12505593Y25865876D01*
X12386717Y26141092D01*
X12216433Y26387828D01*
X12001285Y26596602D01*
X11749542Y26759391D01*
X11470877Y26869940D01*
X11176000Y26924000D01*
X10922000Y26924000D01*
X10668000Y26924000D01*
X10414000Y26924000D01*
X10119123Y26869940D01*
X9840458Y26759391D01*
X9588715Y26596602D01*
X9373567Y26387828D01*
X9203283Y26141092D01*
X9084407Y25865876D01*
X9060866Y25763013D01*
X7726038Y25763013D01*
X7817185Y25837815D01*
X7896537Y25934506D01*
X7955502Y26044820D01*
X7991812Y26164518D01*
X8004072Y26289000D01*
X8004072Y28321000D01*
X7991812Y28445482D01*
X7955502Y28565180D01*
X7896537Y28675494D01*
X7817185Y28772185D01*
X7720494Y28851537D01*
X7610180Y28910502D01*
X7490482Y28946812D01*
X7366000Y28959072D01*
X5334000Y28959072D01*
X5209518Y28946812D01*
X5089820Y28910502D01*
X4979506Y28851537D01*
X4882815Y28772185D01*
X4803463Y28675494D01*
X4784296Y28639636D01*
X4592042Y28768097D01*
X4291579Y28892553D01*
X3972609Y28956000D01*
X3647391Y28956000D01*
X3328421Y28892553D01*
X3059781Y28781279D01*
X3059781Y30007609D01*
X9144000Y30007609D01*
X9144000Y29682391D01*
X9207447Y29363421D01*
X9331903Y29062958D01*
X9512585Y28792549D01*
X9742549Y28562585D01*
X10012958Y28381903D01*
X10313421Y28257447D01*
X10632391Y28194000D01*
X10957609Y28194000D01*
X11276579Y28257447D01*
X11577042Y28381903D01*
X11847451Y28562585D01*
X12077415Y28792549D01*
X12258097Y29062958D01*
X12382553Y29363421D01*
X12385158Y29376519D01*
X12462076Y29153330D01*
X12557140Y28975478D01*
X12823177Y28877782D01*
X13790395Y29845000D01*
X12823177Y30812218D01*
X12557140Y30714522D01*
X12414652Y30422179D01*
X12385549Y30311517D01*
X12382553Y30326579D01*
X12258097Y30627042D01*
X12077415Y30897451D01*
X11847451Y31127415D01*
X11577042Y31308097D01*
X11276579Y31432553D01*
X10957609Y31496000D01*
X10632391Y31496000D01*
X10313421Y31432553D01*
X10012958Y31308097D01*
X9742549Y31127415D01*
X9512585Y30897451D01*
X9331903Y30627042D01*
X9207447Y30326579D01*
X9144000Y30007609D01*
X3059781Y30007609D01*
X3059781Y32698715D01*
X3150530Y32650208D01*
X3270228Y32613898D01*
X3394710Y32601638D01*
X4159250Y32604710D01*
X4318000Y32763460D01*
X4318000Y34163000D01*
X4572000Y34163000D01*
X4572000Y32763460D01*
X4730750Y32604710D01*
X5495290Y32601638D01*
X5619772Y32613898D01*
X5739470Y32650208D01*
X5849784Y32709173D01*
X5946475Y32788525D01*
X6025827Y32885216D01*
X6084792Y32995530D01*
X6121102Y33115228D01*
X6133362Y33239710D01*
X6130290Y34004250D01*
X5971540Y34163000D01*
X4572000Y34163000D01*
X4318000Y34163000D01*
X4298000Y34163000D01*
X4298000Y34417000D01*
X4318000Y34417000D01*
X4318000Y34437000D01*
X4572000Y34437000D01*
X4572000Y34417000D01*
X5971540Y34417000D01*
X6130290Y34575750D01*
X6133362Y35340290D01*
X6121102Y35464772D01*
X6084792Y35584470D01*
X6025827Y35694784D01*
X5946475Y35791475D01*
X5876113Y35849219D01*
X5936090Y35938981D01*
X5955828Y35873914D01*
G37*
G04 #@! TD.AperFunction*
D30*
X37600292Y45036867D02*
X37632104Y44998104D01*
X37786810Y44871140D01*
X37889413Y44816298D01*
X37963312Y44776798D01*
X38154829Y44718702D01*
X38354000Y44699085D01*
X38403902Y44704000D01*
X39115216Y44704000D01*
X39093463Y44677494D01*
X39034498Y44567180D01*
X38998188Y44447482D01*
X38985928Y44323000D01*
X38989000Y43592750D01*
X39147750Y43434000D01*
X40513000Y43434000D01*
X40513000Y43454000D01*
X40767000Y43454000D01*
X40767000Y43434000D01*
X40787000Y43434000D01*
X40787000Y43180000D01*
X40767000Y43180000D01*
X40767000Y41814750D01*
X40925750Y41656000D01*
X41548582Y41653380D01*
X41548582Y28683546D01*
X41422042Y28768097D01*
X41121579Y28892553D01*
X40802609Y28956000D01*
X40477391Y28956000D01*
X40158421Y28892553D01*
X39857958Y28768097D01*
X39665704Y28639636D01*
X39646537Y28675494D01*
X39567185Y28772185D01*
X39470494Y28851537D01*
X39360180Y28910502D01*
X39240482Y28946812D01*
X39116000Y28959072D01*
X37084000Y28959072D01*
X36959518Y28946812D01*
X36839820Y28910502D01*
X36729506Y28851537D01*
X36632815Y28772185D01*
X36553463Y28675494D01*
X36494498Y28565180D01*
X36458188Y28445482D01*
X36445928Y28321000D01*
X36445928Y26289000D01*
X36458188Y26164518D01*
X36494498Y26044820D01*
X36553463Y25934506D01*
X36632815Y25837815D01*
X36729506Y25758463D01*
X36839820Y25699498D01*
X36959518Y25663188D01*
X37084000Y25650928D01*
X37084001Y25650928D01*
X37084000Y15624072D01*
X36959518Y15611812D01*
X36839820Y15575502D01*
X36729506Y15516537D01*
X36632815Y15437185D01*
X36553463Y15340494D01*
X36494498Y15230180D01*
X36458188Y15110482D01*
X36445928Y14986000D01*
X36445928Y12954000D01*
X36458188Y12829518D01*
X36494498Y12709820D01*
X36553463Y12599506D01*
X36632815Y12502815D01*
X36729506Y12423463D01*
X36839820Y12364498D01*
X36959518Y12328188D01*
X37084000Y12315928D01*
X37084001Y12315928D01*
X37084000Y10199841D01*
X35432225Y8548065D01*
X35423812Y8633482D01*
X35387502Y8753180D01*
X35328537Y8863494D01*
X35249185Y8960185D01*
X35152494Y9039537D01*
X35042180Y9098502D01*
X35010437Y9108131D01*
X35076433Y9172172D01*
X35246717Y9418908D01*
X35365593Y9694124D01*
X35389134Y9796987D01*
X35268330Y10033000D01*
X33782000Y10033000D01*
X33782000Y10013000D01*
X33528000Y10013000D01*
X33528000Y10033000D01*
X32041670Y10033000D01*
X31920866Y9796987D01*
X31944407Y9694124D01*
X32063283Y9418908D01*
X32233567Y9172172D01*
X32299563Y9108131D01*
X32267820Y9098502D01*
X32157506Y9039537D01*
X32060815Y8960185D01*
X31981463Y8863494D01*
X31922498Y8753180D01*
X31886188Y8633482D01*
X31873928Y8509000D01*
X31873928Y8455000D01*
X29174868Y8455000D01*
X28775000Y8854868D01*
X28775000Y14875132D01*
X28971563Y14678568D01*
X28997709Y14646709D01*
X29029568Y14620563D01*
X29029570Y14620561D01*
X29124854Y14542364D01*
X29269913Y14464828D01*
X29427311Y14417082D01*
X29591000Y14400960D01*
X29632018Y14405000D01*
X32119273Y14405000D01*
X32127710Y14389215D01*
X32318156Y14157156D01*
X32546206Y13970000D01*
X32318156Y13782844D01*
X32127710Y13550785D01*
X31986196Y13286031D01*
X31899052Y12998756D01*
X31869627Y12700000D01*
X31899052Y12401244D01*
X31986196Y12113969D01*
X32127710Y11849215D01*
X32318156Y11617156D01*
X32550215Y11426710D01*
X32554002Y11424686D01*
X32448715Y11356602D01*
X32233567Y11147828D01*
X32063283Y10901092D01*
X31944407Y10625876D01*
X31920866Y10523013D01*
X32041670Y10287000D01*
X33528000Y10287000D01*
X33528000Y10307000D01*
X33782000Y10307000D01*
X33782000Y10287000D01*
X35268330Y10287000D01*
X35389134Y10523013D01*
X35365593Y10625876D01*
X35246717Y10901092D01*
X35076433Y11147828D01*
X34861285Y11356602D01*
X34755998Y11424686D01*
X34759785Y11426710D01*
X34991844Y11617156D01*
X35182290Y11849215D01*
X35323804Y12113969D01*
X35410948Y12401244D01*
X35440373Y12700000D01*
X35410948Y12998756D01*
X35323804Y13286031D01*
X35182290Y13550785D01*
X34991844Y13782844D01*
X34763794Y13970000D01*
X34991844Y14157156D01*
X35182290Y14389215D01*
X35323804Y14653969D01*
X35410948Y14941244D01*
X35440373Y15240000D01*
X35410948Y15538756D01*
X35323804Y15826031D01*
X35182290Y16090785D01*
X34991844Y16322844D01*
X34763794Y16510000D01*
X34991844Y16697156D01*
X35182290Y16929215D01*
X35323804Y17193969D01*
X35410948Y17481244D01*
X35440373Y17780000D01*
X35410948Y18078756D01*
X35323804Y18366031D01*
X35182290Y18630785D01*
X34991844Y18862844D01*
X34763794Y19050000D01*
X34991844Y19237156D01*
X35182290Y19469215D01*
X35323804Y19733969D01*
X35410948Y20021244D01*
X35440373Y20320000D01*
X35410948Y20618756D01*
X35323804Y20906031D01*
X35182290Y21170785D01*
X34991844Y21402844D01*
X34763794Y21590000D01*
X34991844Y21777156D01*
X35182290Y22009215D01*
X35323804Y22273969D01*
X35410948Y22561244D01*
X35440373Y22860000D01*
X35410948Y23158756D01*
X35323804Y23446031D01*
X35182290Y23710785D01*
X34991844Y23942844D01*
X34763794Y24130000D01*
X34991844Y24317156D01*
X35182290Y24549215D01*
X35323804Y24813969D01*
X35410948Y25101244D01*
X35440373Y25400000D01*
X35410948Y25698756D01*
X35323804Y25986031D01*
X35182290Y26250785D01*
X34991844Y26482844D01*
X34759785Y26673290D01*
X34495031Y26814804D01*
X34207756Y26901948D01*
X33983859Y26924000D01*
X33326141Y26924000D01*
X33102244Y26901948D01*
X32814969Y26814804D01*
X32550215Y26673290D01*
X32318156Y26482844D01*
X32127710Y26250785D01*
X31986196Y25986031D01*
X31899052Y25698756D01*
X31869627Y25400000D01*
X31899052Y25101244D01*
X31986196Y24813969D01*
X32127710Y24549215D01*
X32318156Y24317156D01*
X32546206Y24130000D01*
X32318156Y23942844D01*
X32127710Y23710785D01*
X31986196Y23446031D01*
X31899052Y23158756D01*
X31869627Y22860000D01*
X31899052Y22561244D01*
X31986196Y22273969D01*
X32127710Y22009215D01*
X32318156Y21777156D01*
X32546206Y21590000D01*
X32318156Y21402844D01*
X32127710Y21170785D01*
X31986196Y20906031D01*
X31899052Y20618756D01*
X31869627Y20320000D01*
X31899052Y20021244D01*
X31986196Y19733969D01*
X32127710Y19469215D01*
X32318156Y19237156D01*
X32546206Y19050000D01*
X32318156Y18862844D01*
X32127710Y18630785D01*
X32119273Y18615000D01*
X31714868Y18615000D01*
X30533429Y19796438D01*
X30438145Y19874636D01*
X30426000Y19881128D01*
X30426000Y23453982D01*
X30430040Y23495000D01*
X30413918Y23658689D01*
X30366172Y23816087D01*
X30288636Y23961146D01*
X30210439Y24056430D01*
X30210437Y24056432D01*
X30184291Y24088291D01*
X30152432Y24114437D01*
X27289446Y26977421D01*
X27263291Y27009291D01*
X27136146Y27113636D01*
X26991087Y27191172D01*
X26833689Y27238918D01*
X26711019Y27251000D01*
X26711018Y27251000D01*
X26670000Y27255040D01*
X26628982Y27251000D01*
X23324790Y27251000D01*
X23311178Y27260095D01*
X23137834Y27331896D01*
X22953813Y27368500D01*
X22766187Y27368500D01*
X22582166Y27331896D01*
X22408822Y27260095D01*
X22252816Y27155855D01*
X22120145Y27023184D01*
X22015905Y26867178D01*
X21944104Y26693834D01*
X21907500Y26509813D01*
X21907500Y26390368D01*
X21155000Y27142867D01*
X21155000Y28417288D01*
X21372451Y28562585D01*
X21602415Y28792549D01*
X21783097Y29062958D01*
X21907500Y29363293D01*
X22031903Y29062958D01*
X22212585Y28792549D01*
X22442549Y28562585D01*
X22712958Y28381903D01*
X23013421Y28257447D01*
X23332391Y28194000D01*
X23657609Y28194000D01*
X23976579Y28257447D01*
X24277042Y28381903D01*
X24547451Y28562585D01*
X24777415Y28792549D01*
X24958097Y29062958D01*
X25082553Y29363421D01*
X25146000Y29682391D01*
X25146000Y30007609D01*
X25082553Y30326579D01*
X24958097Y30627042D01*
X24777415Y30897451D01*
X24547451Y31127415D01*
X24403481Y31223613D01*
X26088433Y32908564D01*
X26120291Y32934709D01*
X26170206Y32995530D01*
X26224636Y33061854D01*
X26302172Y33206913D01*
X26349918Y33364311D01*
X26366040Y33528000D01*
X26362000Y33569018D01*
X26362000Y39538465D01*
X29558070Y39538465D01*
X29648098Y39278919D01*
X29929616Y39142776D01*
X30232286Y39064171D01*
X30544474Y39046123D01*
X30854185Y39089328D01*
X31149516Y39192123D01*
X31311902Y39278919D01*
X31401930Y39538465D01*
X30480000Y40460395D01*
X29558070Y39538465D01*
X26362000Y39538465D01*
X26362000Y40575526D01*
X28886123Y40575526D01*
X28929328Y40265815D01*
X29032123Y39970484D01*
X29118919Y39808098D01*
X29378465Y39718070D01*
X30300395Y40640000D01*
X29378465Y41561930D01*
X29118919Y41471902D01*
X28982776Y41190384D01*
X28904171Y40887714D01*
X28886123Y40575526D01*
X26362000Y40575526D01*
X26362000Y41818133D01*
X26442999Y41899131D01*
X26456963Y41873006D01*
X26536315Y41776315D01*
X26633006Y41696963D01*
X26743320Y41637998D01*
X26863018Y41601688D01*
X26987500Y41589428D01*
X28892500Y41589428D01*
X29016982Y41601688D01*
X29136680Y41637998D01*
X29246994Y41696963D01*
X29343685Y41776315D01*
X29423037Y41873006D01*
X29464451Y41950485D01*
X29468028Y41946908D01*
X29598961Y41859422D01*
X29558070Y41741535D01*
X30480000Y40819605D01*
X31401930Y41741535D01*
X31361039Y41859422D01*
X31491972Y41946908D01*
X31647098Y42102034D01*
X32058001Y41691131D01*
X32058001Y40818282D01*
X32030672Y41014185D01*
X31927877Y41309516D01*
X31841081Y41471902D01*
X31581535Y41561930D01*
X30659605Y40640000D01*
X31581535Y39718070D01*
X31841081Y39808098D01*
X31977224Y40089616D01*
X32055829Y40392286D01*
X32058001Y40429848D01*
X32058000Y39087080D01*
X31912609Y39116000D01*
X31587391Y39116000D01*
X31268421Y39052553D01*
X30967958Y38928097D01*
X30697549Y38747415D01*
X30467585Y38517451D01*
X30322288Y38300000D01*
X30002712Y38300000D01*
X29857415Y38517451D01*
X29627451Y38747415D01*
X29357042Y38928097D01*
X29056579Y39052553D01*
X28737609Y39116000D01*
X28412391Y39116000D01*
X28093421Y39052553D01*
X27792958Y38928097D01*
X27522549Y38747415D01*
X27292585Y38517451D01*
X27111903Y38247042D01*
X26987447Y37946579D01*
X26924000Y37627609D01*
X26924000Y37302391D01*
X26987447Y36983421D01*
X27111903Y36682958D01*
X27292585Y36412549D01*
X27522549Y36182585D01*
X27792958Y36001903D01*
X28093421Y35877447D01*
X28412391Y35814000D01*
X28737609Y35814000D01*
X29056579Y35877447D01*
X29357042Y36001903D01*
X29627451Y36182585D01*
X29857415Y36412549D01*
X30002712Y36630000D01*
X30322288Y36630000D01*
X30467585Y36412549D01*
X30697549Y36182585D01*
X30967958Y36001903D01*
X31268421Y35877447D01*
X31587391Y35814000D01*
X31912609Y35814000D01*
X32231579Y35877447D01*
X32532042Y36001903D01*
X32802451Y36182585D01*
X33032415Y36412549D01*
X33213097Y36682958D01*
X33337553Y36983421D01*
X33401000Y37302391D01*
X33401000Y37627609D01*
X33349979Y37884111D01*
X33454428Y37988560D01*
X33486291Y38014709D01*
X33590636Y38141854D01*
X33655000Y38262271D01*
X33655000Y36742841D01*
X31456160Y34544000D01*
X29513902Y34544000D01*
X29464000Y34548915D01*
X29264829Y34529298D01*
X29073312Y34471202D01*
X29011832Y34438340D01*
X28896810Y34376860D01*
X28742104Y34249896D01*
X28710293Y34211134D01*
X27891868Y33392708D01*
X27853105Y33360896D01*
X27726141Y33206190D01*
X27631799Y33029687D01*
X27573702Y32838170D01*
X27554085Y32639000D01*
X27559001Y32589089D01*
X27559000Y31151771D01*
X27522549Y31127415D01*
X27292585Y30897451D01*
X27111903Y30627042D01*
X26987447Y30326579D01*
X26924000Y30007609D01*
X26924000Y29682391D01*
X26987447Y29363421D01*
X27111903Y29062958D01*
X27292585Y28792549D01*
X27522549Y28562585D01*
X27792958Y28381903D01*
X28093421Y28257447D01*
X28412391Y28194000D01*
X28737609Y28194000D01*
X29056579Y28257447D01*
X29357042Y28381903D01*
X29627451Y28562585D01*
X29763043Y28698177D01*
X30782782Y28698177D01*
X30880478Y28432140D01*
X31172821Y28289652D01*
X31487344Y28206936D01*
X31811962Y28187169D01*
X32134198Y28231112D01*
X32441670Y28337076D01*
X32619522Y28432140D01*
X32717218Y28698177D01*
X31750000Y29665395D01*
X30782782Y28698177D01*
X29763043Y28698177D01*
X29857415Y28792549D01*
X30038097Y29062958D01*
X30162553Y29363421D01*
X30165158Y29376519D01*
X30242076Y29153330D01*
X30337140Y28975478D01*
X30603177Y28877782D01*
X31570395Y29845000D01*
X31929605Y29845000D01*
X32896823Y28877782D01*
X33162860Y28975478D01*
X33305348Y29267821D01*
X33388064Y29582344D01*
X33407831Y29906962D01*
X33363888Y30229198D01*
X33257924Y30536670D01*
X33162860Y30714522D01*
X32896823Y30812218D01*
X31929605Y29845000D01*
X31570395Y29845000D01*
X30603177Y30812218D01*
X30337140Y30714522D01*
X30194652Y30422179D01*
X30165549Y30311517D01*
X30162553Y30326579D01*
X30038097Y30627042D01*
X29857415Y30897451D01*
X29763043Y30991823D01*
X30782782Y30991823D01*
X31750000Y30024605D01*
X32717218Y30991823D01*
X32619522Y31257860D01*
X32327179Y31400348D01*
X32012656Y31483064D01*
X31688038Y31502831D01*
X31365802Y31458888D01*
X31058330Y31352924D01*
X30880478Y31257860D01*
X30782782Y30991823D01*
X29763043Y30991823D01*
X29627451Y31127415D01*
X29591000Y31151771D01*
X29591000Y32218160D01*
X29884841Y32512000D01*
X31827098Y32512000D01*
X31877000Y32507085D01*
X31926902Y32512000D01*
X32076171Y32526702D01*
X32267687Y32584798D01*
X32444190Y32679140D01*
X32598896Y32806104D01*
X32630712Y32844872D01*
X35354133Y35568292D01*
X35392896Y35600104D01*
X35519860Y35754810D01*
X35614202Y35931313D01*
X35672298Y36122829D01*
X35687000Y36272098D01*
X35687000Y36272099D01*
X35691915Y36322000D01*
X35687000Y36371902D01*
X35687000Y38305920D01*
X36580525Y38305920D01*
X36664208Y38051739D01*
X36936775Y37920842D01*
X37229642Y37845635D01*
X37531553Y37829009D01*
X37830907Y37871603D01*
X38116199Y37971778D01*
X38265792Y38051739D01*
X38349475Y38305920D01*
X37465000Y39190395D01*
X36580525Y38305920D01*
X35687000Y38305920D01*
X35687000Y39303447D01*
X35924009Y39303447D01*
X35966603Y39004093D01*
X36066778Y38718801D01*
X36146739Y38569208D01*
X36400920Y38485525D01*
X37285395Y39370000D01*
X37644605Y39370000D01*
X38529080Y38485525D01*
X38783261Y38569208D01*
X38914158Y38841775D01*
X38989365Y39134642D01*
X39005991Y39436553D01*
X38963397Y39735907D01*
X38863222Y40021199D01*
X38783261Y40170792D01*
X38529080Y40254475D01*
X37644605Y39370000D01*
X37285395Y39370000D01*
X36400920Y40254475D01*
X36146739Y40170792D01*
X36015842Y39898225D01*
X35940635Y39605358D01*
X35924009Y39303447D01*
X35687000Y39303447D01*
X35687000Y40434080D01*
X36580525Y40434080D01*
X37465000Y39549605D01*
X38349475Y40434080D01*
X38265792Y40688261D01*
X37993225Y40819158D01*
X37700358Y40894365D01*
X37398447Y40910991D01*
X37099093Y40868397D01*
X36813801Y40768222D01*
X36664208Y40688261D01*
X36580525Y40434080D01*
X35687000Y40434080D01*
X35687000Y42291000D01*
X38985928Y42291000D01*
X38998188Y42166518D01*
X39034498Y42046820D01*
X39093463Y41936506D01*
X39172815Y41839815D01*
X39269506Y41760463D01*
X39379820Y41701498D01*
X39499518Y41665188D01*
X39624000Y41652928D01*
X40354250Y41656000D01*
X40513000Y41814750D01*
X40513000Y43180000D01*
X39147750Y43180000D01*
X38989000Y43021250D01*
X38985928Y42291000D01*
X35687000Y42291000D01*
X35687000Y43394160D01*
X37465000Y45172159D01*
X37600292Y45036867D01*
G04 #@! TA.AperFunction,Conductor*
D31*
G36*
X37600292Y45036867D02*
G01*
X37632104Y44998104D01*
X37786810Y44871140D01*
X37889413Y44816298D01*
X37963312Y44776798D01*
X38154829Y44718702D01*
X38354000Y44699085D01*
X38403902Y44704000D01*
X39115216Y44704000D01*
X39093463Y44677494D01*
X39034498Y44567180D01*
X38998188Y44447482D01*
X38985928Y44323000D01*
X38989000Y43592750D01*
X39147750Y43434000D01*
X40513000Y43434000D01*
X40513000Y43454000D01*
X40767000Y43454000D01*
X40767000Y43434000D01*
X40787000Y43434000D01*
X40787000Y43180000D01*
X40767000Y43180000D01*
X40767000Y41814750D01*
X40925750Y41656000D01*
X41548582Y41653380D01*
X41548582Y28683546D01*
X41422042Y28768097D01*
X41121579Y28892553D01*
X40802609Y28956000D01*
X40477391Y28956000D01*
X40158421Y28892553D01*
X39857958Y28768097D01*
X39665704Y28639636D01*
X39646537Y28675494D01*
X39567185Y28772185D01*
X39470494Y28851537D01*
X39360180Y28910502D01*
X39240482Y28946812D01*
X39116000Y28959072D01*
X37084000Y28959072D01*
X36959518Y28946812D01*
X36839820Y28910502D01*
X36729506Y28851537D01*
X36632815Y28772185D01*
X36553463Y28675494D01*
X36494498Y28565180D01*
X36458188Y28445482D01*
X36445928Y28321000D01*
X36445928Y26289000D01*
X36458188Y26164518D01*
X36494498Y26044820D01*
X36553463Y25934506D01*
X36632815Y25837815D01*
X36729506Y25758463D01*
X36839820Y25699498D01*
X36959518Y25663188D01*
X37084000Y25650928D01*
X37084001Y25650928D01*
X37084000Y15624072D01*
X36959518Y15611812D01*
X36839820Y15575502D01*
X36729506Y15516537D01*
X36632815Y15437185D01*
X36553463Y15340494D01*
X36494498Y15230180D01*
X36458188Y15110482D01*
X36445928Y14986000D01*
X36445928Y12954000D01*
X36458188Y12829518D01*
X36494498Y12709820D01*
X36553463Y12599506D01*
X36632815Y12502815D01*
X36729506Y12423463D01*
X36839820Y12364498D01*
X36959518Y12328188D01*
X37084000Y12315928D01*
X37084001Y12315928D01*
X37084000Y10199841D01*
X35432225Y8548065D01*
X35423812Y8633482D01*
X35387502Y8753180D01*
X35328537Y8863494D01*
X35249185Y8960185D01*
X35152494Y9039537D01*
X35042180Y9098502D01*
X35010437Y9108131D01*
X35076433Y9172172D01*
X35246717Y9418908D01*
X35365593Y9694124D01*
X35389134Y9796987D01*
X35268330Y10033000D01*
X33782000Y10033000D01*
X33782000Y10013000D01*
X33528000Y10013000D01*
X33528000Y10033000D01*
X32041670Y10033000D01*
X31920866Y9796987D01*
X31944407Y9694124D01*
X32063283Y9418908D01*
X32233567Y9172172D01*
X32299563Y9108131D01*
X32267820Y9098502D01*
X32157506Y9039537D01*
X32060815Y8960185D01*
X31981463Y8863494D01*
X31922498Y8753180D01*
X31886188Y8633482D01*
X31873928Y8509000D01*
X31873928Y8455000D01*
X29174868Y8455000D01*
X28775000Y8854868D01*
X28775000Y14875132D01*
X28971563Y14678568D01*
X28997709Y14646709D01*
X29029568Y14620563D01*
X29029570Y14620561D01*
X29124854Y14542364D01*
X29269913Y14464828D01*
X29427311Y14417082D01*
X29591000Y14400960D01*
X29632018Y14405000D01*
X32119273Y14405000D01*
X32127710Y14389215D01*
X32318156Y14157156D01*
X32546206Y13970000D01*
X32318156Y13782844D01*
X32127710Y13550785D01*
X31986196Y13286031D01*
X31899052Y12998756D01*
X31869627Y12700000D01*
X31899052Y12401244D01*
X31986196Y12113969D01*
X32127710Y11849215D01*
X32318156Y11617156D01*
X32550215Y11426710D01*
X32554002Y11424686D01*
X32448715Y11356602D01*
X32233567Y11147828D01*
X32063283Y10901092D01*
X31944407Y10625876D01*
X31920866Y10523013D01*
X32041670Y10287000D01*
X33528000Y10287000D01*
X33528000Y10307000D01*
X33782000Y10307000D01*
X33782000Y10287000D01*
X35268330Y10287000D01*
X35389134Y10523013D01*
X35365593Y10625876D01*
X35246717Y10901092D01*
X35076433Y11147828D01*
X34861285Y11356602D01*
X34755998Y11424686D01*
X34759785Y11426710D01*
X34991844Y11617156D01*
X35182290Y11849215D01*
X35323804Y12113969D01*
X35410948Y12401244D01*
X35440373Y12700000D01*
X35410948Y12998756D01*
X35323804Y13286031D01*
X35182290Y13550785D01*
X34991844Y13782844D01*
X34763794Y13970000D01*
X34991844Y14157156D01*
X35182290Y14389215D01*
X35323804Y14653969D01*
X35410948Y14941244D01*
X35440373Y15240000D01*
X35410948Y15538756D01*
X35323804Y15826031D01*
X35182290Y16090785D01*
X34991844Y16322844D01*
X34763794Y16510000D01*
X34991844Y16697156D01*
X35182290Y16929215D01*
X35323804Y17193969D01*
X35410948Y17481244D01*
X35440373Y17780000D01*
X35410948Y18078756D01*
X35323804Y18366031D01*
X35182290Y18630785D01*
X34991844Y18862844D01*
X34763794Y19050000D01*
X34991844Y19237156D01*
X35182290Y19469215D01*
X35323804Y19733969D01*
X35410948Y20021244D01*
X35440373Y20320000D01*
X35410948Y20618756D01*
X35323804Y20906031D01*
X35182290Y21170785D01*
X34991844Y21402844D01*
X34763794Y21590000D01*
X34991844Y21777156D01*
X35182290Y22009215D01*
X35323804Y22273969D01*
X35410948Y22561244D01*
X35440373Y22860000D01*
X35410948Y23158756D01*
X35323804Y23446031D01*
X35182290Y23710785D01*
X34991844Y23942844D01*
X34763794Y24130000D01*
X34991844Y24317156D01*
X35182290Y24549215D01*
X35323804Y24813969D01*
X35410948Y25101244D01*
X35440373Y25400000D01*
X35410948Y25698756D01*
X35323804Y25986031D01*
X35182290Y26250785D01*
X34991844Y26482844D01*
X34759785Y26673290D01*
X34495031Y26814804D01*
X34207756Y26901948D01*
X33983859Y26924000D01*
X33326141Y26924000D01*
X33102244Y26901948D01*
X32814969Y26814804D01*
X32550215Y26673290D01*
X32318156Y26482844D01*
X32127710Y26250785D01*
X31986196Y25986031D01*
X31899052Y25698756D01*
X31869627Y25400000D01*
X31899052Y25101244D01*
X31986196Y24813969D01*
X32127710Y24549215D01*
X32318156Y24317156D01*
X32546206Y24130000D01*
X32318156Y23942844D01*
X32127710Y23710785D01*
X31986196Y23446031D01*
X31899052Y23158756D01*
X31869627Y22860000D01*
X31899052Y22561244D01*
X31986196Y22273969D01*
X32127710Y22009215D01*
X32318156Y21777156D01*
X32546206Y21590000D01*
X32318156Y21402844D01*
X32127710Y21170785D01*
X31986196Y20906031D01*
X31899052Y20618756D01*
X31869627Y20320000D01*
X31899052Y20021244D01*
X31986196Y19733969D01*
X32127710Y19469215D01*
X32318156Y19237156D01*
X32546206Y19050000D01*
X32318156Y18862844D01*
X32127710Y18630785D01*
X32119273Y18615000D01*
X31714868Y18615000D01*
X30533429Y19796438D01*
X30438145Y19874636D01*
X30426000Y19881128D01*
X30426000Y23453982D01*
X30430040Y23495000D01*
X30413918Y23658689D01*
X30366172Y23816087D01*
X30288636Y23961146D01*
X30210439Y24056430D01*
X30210437Y24056432D01*
X30184291Y24088291D01*
X30152432Y24114437D01*
X27289446Y26977421D01*
X27263291Y27009291D01*
X27136146Y27113636D01*
X26991087Y27191172D01*
X26833689Y27238918D01*
X26711019Y27251000D01*
X26711018Y27251000D01*
X26670000Y27255040D01*
X26628982Y27251000D01*
X23324790Y27251000D01*
X23311178Y27260095D01*
X23137834Y27331896D01*
X22953813Y27368500D01*
X22766187Y27368500D01*
X22582166Y27331896D01*
X22408822Y27260095D01*
X22252816Y27155855D01*
X22120145Y27023184D01*
X22015905Y26867178D01*
X21944104Y26693834D01*
X21907500Y26509813D01*
X21907500Y26390368D01*
X21155000Y27142867D01*
X21155000Y28417288D01*
X21372451Y28562585D01*
X21602415Y28792549D01*
X21783097Y29062958D01*
X21907500Y29363293D01*
X22031903Y29062958D01*
X22212585Y28792549D01*
X22442549Y28562585D01*
X22712958Y28381903D01*
X23013421Y28257447D01*
X23332391Y28194000D01*
X23657609Y28194000D01*
X23976579Y28257447D01*
X24277042Y28381903D01*
X24547451Y28562585D01*
X24777415Y28792549D01*
X24958097Y29062958D01*
X25082553Y29363421D01*
X25146000Y29682391D01*
X25146000Y30007609D01*
X25082553Y30326579D01*
X24958097Y30627042D01*
X24777415Y30897451D01*
X24547451Y31127415D01*
X24403481Y31223613D01*
X26088433Y32908564D01*
X26120291Y32934709D01*
X26170206Y32995530D01*
X26224636Y33061854D01*
X26302172Y33206913D01*
X26349918Y33364311D01*
X26366040Y33528000D01*
X26362000Y33569018D01*
X26362000Y39538465D01*
X29558070Y39538465D01*
X29648098Y39278919D01*
X29929616Y39142776D01*
X30232286Y39064171D01*
X30544474Y39046123D01*
X30854185Y39089328D01*
X31149516Y39192123D01*
X31311902Y39278919D01*
X31401930Y39538465D01*
X30480000Y40460395D01*
X29558070Y39538465D01*
X26362000Y39538465D01*
X26362000Y40575526D01*
X28886123Y40575526D01*
X28929328Y40265815D01*
X29032123Y39970484D01*
X29118919Y39808098D01*
X29378465Y39718070D01*
X30300395Y40640000D01*
X29378465Y41561930D01*
X29118919Y41471902D01*
X28982776Y41190384D01*
X28904171Y40887714D01*
X28886123Y40575526D01*
X26362000Y40575526D01*
X26362000Y41818133D01*
X26442999Y41899131D01*
X26456963Y41873006D01*
X26536315Y41776315D01*
X26633006Y41696963D01*
X26743320Y41637998D01*
X26863018Y41601688D01*
X26987500Y41589428D01*
X28892500Y41589428D01*
X29016982Y41601688D01*
X29136680Y41637998D01*
X29246994Y41696963D01*
X29343685Y41776315D01*
X29423037Y41873006D01*
X29464451Y41950485D01*
X29468028Y41946908D01*
X29598961Y41859422D01*
X29558070Y41741535D01*
X30480000Y40819605D01*
X31401930Y41741535D01*
X31361039Y41859422D01*
X31491972Y41946908D01*
X31647098Y42102034D01*
X32058001Y41691131D01*
X32058001Y40818282D01*
X32030672Y41014185D01*
X31927877Y41309516D01*
X31841081Y41471902D01*
X31581535Y41561930D01*
X30659605Y40640000D01*
X31581535Y39718070D01*
X31841081Y39808098D01*
X31977224Y40089616D01*
X32055829Y40392286D01*
X32058001Y40429848D01*
X32058000Y39087080D01*
X31912609Y39116000D01*
X31587391Y39116000D01*
X31268421Y39052553D01*
X30967958Y38928097D01*
X30697549Y38747415D01*
X30467585Y38517451D01*
X30322288Y38300000D01*
X30002712Y38300000D01*
X29857415Y38517451D01*
X29627451Y38747415D01*
X29357042Y38928097D01*
X29056579Y39052553D01*
X28737609Y39116000D01*
X28412391Y39116000D01*
X28093421Y39052553D01*
X27792958Y38928097D01*
X27522549Y38747415D01*
X27292585Y38517451D01*
X27111903Y38247042D01*
X26987447Y37946579D01*
X26924000Y37627609D01*
X26924000Y37302391D01*
X26987447Y36983421D01*
X27111903Y36682958D01*
X27292585Y36412549D01*
X27522549Y36182585D01*
X27792958Y36001903D01*
X28093421Y35877447D01*
X28412391Y35814000D01*
X28737609Y35814000D01*
X29056579Y35877447D01*
X29357042Y36001903D01*
X29627451Y36182585D01*
X29857415Y36412549D01*
X30002712Y36630000D01*
X30322288Y36630000D01*
X30467585Y36412549D01*
X30697549Y36182585D01*
X30967958Y36001903D01*
X31268421Y35877447D01*
X31587391Y35814000D01*
X31912609Y35814000D01*
X32231579Y35877447D01*
X32532042Y36001903D01*
X32802451Y36182585D01*
X33032415Y36412549D01*
X33213097Y36682958D01*
X33337553Y36983421D01*
X33401000Y37302391D01*
X33401000Y37627609D01*
X33349979Y37884111D01*
X33454428Y37988560D01*
X33486291Y38014709D01*
X33590636Y38141854D01*
X33655000Y38262271D01*
X33655000Y36742841D01*
X31456160Y34544000D01*
X29513902Y34544000D01*
X29464000Y34548915D01*
X29264829Y34529298D01*
X29073312Y34471202D01*
X29011832Y34438340D01*
X28896810Y34376860D01*
X28742104Y34249896D01*
X28710293Y34211134D01*
X27891868Y33392708D01*
X27853105Y33360896D01*
X27726141Y33206190D01*
X27631799Y33029687D01*
X27573702Y32838170D01*
X27554085Y32639000D01*
X27559001Y32589089D01*
X27559000Y31151771D01*
X27522549Y31127415D01*
X27292585Y30897451D01*
X27111903Y30627042D01*
X26987447Y30326579D01*
X26924000Y30007609D01*
X26924000Y29682391D01*
X26987447Y29363421D01*
X27111903Y29062958D01*
X27292585Y28792549D01*
X27522549Y28562585D01*
X27792958Y28381903D01*
X28093421Y28257447D01*
X28412391Y28194000D01*
X28737609Y28194000D01*
X29056579Y28257447D01*
X29357042Y28381903D01*
X29627451Y28562585D01*
X29763043Y28698177D01*
X30782782Y28698177D01*
X30880478Y28432140D01*
X31172821Y28289652D01*
X31487344Y28206936D01*
X31811962Y28187169D01*
X32134198Y28231112D01*
X32441670Y28337076D01*
X32619522Y28432140D01*
X32717218Y28698177D01*
X31750000Y29665395D01*
X30782782Y28698177D01*
X29763043Y28698177D01*
X29857415Y28792549D01*
X30038097Y29062958D01*
X30162553Y29363421D01*
X30165158Y29376519D01*
X30242076Y29153330D01*
X30337140Y28975478D01*
X30603177Y28877782D01*
X31570395Y29845000D01*
X31929605Y29845000D01*
X32896823Y28877782D01*
X33162860Y28975478D01*
X33305348Y29267821D01*
X33388064Y29582344D01*
X33407831Y29906962D01*
X33363888Y30229198D01*
X33257924Y30536670D01*
X33162860Y30714522D01*
X32896823Y30812218D01*
X31929605Y29845000D01*
X31570395Y29845000D01*
X30603177Y30812218D01*
X30337140Y30714522D01*
X30194652Y30422179D01*
X30165549Y30311517D01*
X30162553Y30326579D01*
X30038097Y30627042D01*
X29857415Y30897451D01*
X29763043Y30991823D01*
X30782782Y30991823D01*
X31750000Y30024605D01*
X32717218Y30991823D01*
X32619522Y31257860D01*
X32327179Y31400348D01*
X32012656Y31483064D01*
X31688038Y31502831D01*
X31365802Y31458888D01*
X31058330Y31352924D01*
X30880478Y31257860D01*
X30782782Y30991823D01*
X29763043Y30991823D01*
X29627451Y31127415D01*
X29591000Y31151771D01*
X29591000Y32218160D01*
X29884841Y32512000D01*
X31827098Y32512000D01*
X31877000Y32507085D01*
X31926902Y32512000D01*
X32076171Y32526702D01*
X32267687Y32584798D01*
X32444190Y32679140D01*
X32598896Y32806104D01*
X32630712Y32844872D01*
X35354133Y35568292D01*
X35392896Y35600104D01*
X35519860Y35754810D01*
X35614202Y35931313D01*
X35672298Y36122829D01*
X35687000Y36272098D01*
X35687000Y36272099D01*
X35691915Y36322000D01*
X35687000Y36371902D01*
X35687000Y38305920D01*
X36580525Y38305920D01*
X36664208Y38051739D01*
X36936775Y37920842D01*
X37229642Y37845635D01*
X37531553Y37829009D01*
X37830907Y37871603D01*
X38116199Y37971778D01*
X38265792Y38051739D01*
X38349475Y38305920D01*
X37465000Y39190395D01*
X36580525Y38305920D01*
X35687000Y38305920D01*
X35687000Y39303447D01*
X35924009Y39303447D01*
X35966603Y39004093D01*
X36066778Y38718801D01*
X36146739Y38569208D01*
X36400920Y38485525D01*
X37285395Y39370000D01*
X37644605Y39370000D01*
X38529080Y38485525D01*
X38783261Y38569208D01*
X38914158Y38841775D01*
X38989365Y39134642D01*
X39005991Y39436553D01*
X38963397Y39735907D01*
X38863222Y40021199D01*
X38783261Y40170792D01*
X38529080Y40254475D01*
X37644605Y39370000D01*
X37285395Y39370000D01*
X36400920Y40254475D01*
X36146739Y40170792D01*
X36015842Y39898225D01*
X35940635Y39605358D01*
X35924009Y39303447D01*
X35687000Y39303447D01*
X35687000Y40434080D01*
X36580525Y40434080D01*
X37465000Y39549605D01*
X38349475Y40434080D01*
X38265792Y40688261D01*
X37993225Y40819158D01*
X37700358Y40894365D01*
X37398447Y40910991D01*
X37099093Y40868397D01*
X36813801Y40768222D01*
X36664208Y40688261D01*
X36580525Y40434080D01*
X35687000Y40434080D01*
X35687000Y42291000D01*
X38985928Y42291000D01*
X38998188Y42166518D01*
X39034498Y42046820D01*
X39093463Y41936506D01*
X39172815Y41839815D01*
X39269506Y41760463D01*
X39379820Y41701498D01*
X39499518Y41665188D01*
X39624000Y41652928D01*
X40354250Y41656000D01*
X40513000Y41814750D01*
X40513000Y43180000D01*
X39147750Y43180000D01*
X38989000Y43021250D01*
X38985928Y42291000D01*
X35687000Y42291000D01*
X35687000Y43394160D01*
X37465000Y45172159D01*
X37600292Y45036867D01*
G37*
G04 #@! TD.AperFunction*
D30*
X9742549Y65417415D02*
X9512585Y65187451D01*
X9331903Y64917042D01*
X9207447Y64616579D01*
X9144000Y64297609D01*
X9144000Y63972391D01*
X9195021Y63715889D01*
X7566574Y62087441D01*
X7534710Y62061291D01*
X7508562Y62029429D01*
X7430364Y61934145D01*
X7352828Y61789086D01*
X7305082Y61631688D01*
X7288960Y61468000D01*
X7293001Y61426972D01*
X7293000Y54143019D01*
X7288960Y54102000D01*
X7293000Y54060982D01*
X7305082Y53938312D01*
X7352828Y53780914D01*
X7430364Y53635855D01*
X7534709Y53508709D01*
X7566578Y53482555D01*
X8270563Y52778569D01*
X8296709Y52746709D01*
X8328568Y52720563D01*
X8328570Y52720561D01*
X8362659Y52692585D01*
X8423854Y52642364D01*
X8471638Y52616823D01*
X8471638Y52289710D01*
X8483898Y52165228D01*
X8520208Y52045530D01*
X8579173Y51935216D01*
X8658525Y51838525D01*
X8755216Y51759173D01*
X8865530Y51700208D01*
X8985228Y51663898D01*
X9109710Y51651638D01*
X11210290Y51651638D01*
X11334772Y51663898D01*
X11454470Y51700208D01*
X11564784Y51759173D01*
X11661475Y51838525D01*
X11740827Y51935216D01*
X11799792Y52045530D01*
X11836102Y52165228D01*
X11848362Y52289710D01*
X11848362Y52959000D01*
X18030928Y52959000D01*
X18043188Y52834518D01*
X18079498Y52714820D01*
X18138463Y52604506D01*
X18217815Y52507815D01*
X18314506Y52428463D01*
X18424820Y52369498D01*
X18544518Y52333188D01*
X18669000Y52320928D01*
X19399250Y52324000D01*
X19558000Y52482750D01*
X19558000Y53848000D01*
X18192750Y53848000D01*
X18034000Y53689250D01*
X18030928Y52959000D01*
X11848362Y52959000D01*
X11848362Y54390290D01*
X11836102Y54514772D01*
X11799792Y54634470D01*
X11740827Y54744784D01*
X11661475Y54841475D01*
X11564784Y54920827D01*
X11550930Y54928232D01*
X11592869Y54991000D01*
X18030928Y54991000D01*
X18034000Y54260750D01*
X18192750Y54102000D01*
X19558000Y54102000D01*
X19558000Y55467250D01*
X19399250Y55626000D01*
X18669000Y55629072D01*
X18544518Y55616812D01*
X18424820Y55580502D01*
X18314506Y55521537D01*
X18217815Y55442185D01*
X18138463Y55345494D01*
X18079498Y55235180D01*
X18043188Y55115482D01*
X18030928Y54991000D01*
X11592869Y54991000D01*
X11653484Y55081716D01*
X11780525Y55388419D01*
X11845290Y55714013D01*
X11845290Y56045987D01*
X11780525Y56371581D01*
X11653484Y56678284D01*
X11469050Y56954310D01*
X11234310Y57189050D01*
X11150323Y57245168D01*
X11151668Y57248727D01*
X10160000Y58240395D01*
X10145858Y58226252D01*
X9966253Y58405857D01*
X9980395Y58420000D01*
X10339605Y58420000D01*
X11331273Y57428332D01*
X11600815Y57530167D01*
X11746728Y57828354D01*
X11831664Y58149277D01*
X11852359Y58480604D01*
X11808018Y58809602D01*
X11700344Y59123629D01*
X11600815Y59309833D01*
X11331273Y59411668D01*
X10339605Y58420000D01*
X9980395Y58420000D01*
X9966253Y58434142D01*
X10145858Y58613747D01*
X10160000Y58599605D01*
X11151668Y59591273D01*
X11049833Y59860815D01*
X10751646Y60006728D01*
X10430723Y60091664D01*
X10099396Y60112359D01*
X9770398Y60068018D01*
X9456371Y59960344D01*
X9270167Y59860815D01*
X9168333Y59591275D01*
X9052792Y59706816D01*
X8963000Y59617024D01*
X8963000Y61122133D01*
X10375889Y62535021D01*
X10632391Y62484000D01*
X10957609Y62484000D01*
X11276579Y62547447D01*
X11577042Y62671903D01*
X11847451Y62852585D01*
X12077415Y63082549D01*
X12222712Y63300000D01*
X13177288Y63300000D01*
X13322585Y63082549D01*
X13552549Y62852585D01*
X13822958Y62671903D01*
X14123421Y62547447D01*
X14442391Y62484000D01*
X14767609Y62484000D01*
X15086579Y62547447D01*
X15387042Y62671903D01*
X15657451Y62852585D01*
X15887415Y63082549D01*
X16068097Y63352958D01*
X16192553Y63653421D01*
X16256000Y63972391D01*
X16256000Y64297609D01*
X16192553Y64616579D01*
X16068097Y64917042D01*
X15887415Y65187451D01*
X15657451Y65417415D01*
X15485963Y65532000D01*
X16597160Y65532000D01*
X19947292Y62181867D01*
X19979104Y62143104D01*
X20115910Y62030830D01*
X20133810Y62016140D01*
X20310313Y61921798D01*
X20501829Y61863702D01*
X20701000Y61844085D01*
X20750902Y61849000D01*
X22475928Y61849000D01*
X22488188Y61724518D01*
X22524498Y61604820D01*
X22583463Y61494506D01*
X22662815Y61397815D01*
X22759506Y61318463D01*
X22869820Y61259498D01*
X22989518Y61223188D01*
X23114000Y61210928D01*
X23114001Y61210928D01*
X23114001Y59612911D01*
X23109085Y59563000D01*
X23128702Y59363830D01*
X23186799Y59172313D01*
X23281141Y58995810D01*
X23408105Y58841104D01*
X23446868Y58809292D01*
X23749000Y58507160D01*
X23749001Y55281771D01*
X23712549Y55257415D01*
X23495000Y55039866D01*
X23277451Y55257415D01*
X23007042Y55438097D01*
X22706579Y55562553D01*
X22387609Y55626000D01*
X22062391Y55626000D01*
X21743421Y55562553D01*
X21442958Y55438097D01*
X21250704Y55309636D01*
X21231537Y55345494D01*
X21152185Y55442185D01*
X21055494Y55521537D01*
X20945180Y55580502D01*
X20825482Y55616812D01*
X20701000Y55629072D01*
X19970750Y55626000D01*
X19812000Y55467250D01*
X19812000Y54102000D01*
X19832000Y54102000D01*
X19832000Y53848000D01*
X19812000Y53848000D01*
X19812000Y52482750D01*
X19970750Y52324000D01*
X20701000Y52320928D01*
X20825482Y52333188D01*
X20945180Y52369498D01*
X21055494Y52428463D01*
X21152185Y52507815D01*
X21231537Y52604506D01*
X21250704Y52640364D01*
X21390001Y52547288D01*
X21390000Y40720209D01*
X21236816Y40617855D01*
X21155000Y40536039D01*
X21155000Y43011982D01*
X21159040Y43053001D01*
X21142918Y43216689D01*
X21095172Y43374087D01*
X21017636Y43519146D01*
X20969211Y43578152D01*
X20913291Y43646291D01*
X20881427Y43672441D01*
X18780446Y45773421D01*
X18754291Y45805291D01*
X18627146Y45909636D01*
X18482087Y45987172D01*
X18324689Y46034918D01*
X18202019Y46047000D01*
X18202018Y46047000D01*
X18161000Y46051040D01*
X18119982Y46047000D01*
X11344007Y46047000D01*
X11302999Y46051039D01*
X11261991Y46047000D01*
X11261981Y46047000D01*
X11139311Y46034918D01*
X10981913Y45987172D01*
X10836854Y45909636D01*
X10709709Y45805291D01*
X10683554Y45773421D01*
X10233579Y45323446D01*
X10201709Y45297291D01*
X10097365Y45170146D01*
X10097364Y45170145D01*
X10019828Y45025086D01*
X9972082Y44867688D01*
X9962517Y44770572D01*
X9842500Y44770572D01*
X9718018Y44758312D01*
X9598320Y44722002D01*
X9488006Y44663037D01*
X9391315Y44583685D01*
X9311963Y44486994D01*
X9252998Y44376680D01*
X9216688Y44256982D01*
X9204428Y44132500D01*
X9204428Y42227500D01*
X9216688Y42103018D01*
X9252998Y41983320D01*
X9311963Y41873006D01*
X9391315Y41776315D01*
X9488006Y41696963D01*
X9598320Y41637998D01*
X9718018Y41601688D01*
X9842500Y41589428D01*
X11747500Y41589428D01*
X11871982Y41601688D01*
X11991680Y41637998D01*
X12101994Y41696963D01*
X12198685Y41776315D01*
X12278037Y41873006D01*
X12319451Y41950485D01*
X12323028Y41946908D01*
X12453961Y41859422D01*
X12413070Y41741535D01*
X13335000Y40819605D01*
X14256930Y41741535D01*
X14216039Y41859422D01*
X14346972Y41946908D01*
X14502098Y42102034D01*
X15040001Y41564131D01*
X15040000Y39715869D01*
X14389111Y39064979D01*
X14132609Y39116000D01*
X13807391Y39116000D01*
X13757039Y39105984D01*
X14004516Y39192123D01*
X14166902Y39278919D01*
X14256930Y39538465D01*
X13335000Y40460395D01*
X12413070Y39538465D01*
X12503098Y39278919D01*
X12784616Y39142776D01*
X13087286Y39064171D01*
X13399474Y39046123D01*
X13589045Y39072568D01*
X13488421Y39052553D01*
X13187958Y38928097D01*
X12917549Y38747415D01*
X12687585Y38517451D01*
X12542288Y38300000D01*
X12222712Y38300000D01*
X12077415Y38517451D01*
X11847451Y38747415D01*
X11577042Y38928097D01*
X11276579Y39052553D01*
X10957609Y39116000D01*
X10632391Y39116000D01*
X10313421Y39052553D01*
X10012958Y38928097D01*
X9742549Y38747415D01*
X9512585Y38517451D01*
X9331903Y38247042D01*
X9207447Y37946579D01*
X9144000Y37627609D01*
X9144000Y37302391D01*
X9207447Y36983421D01*
X9331903Y36682958D01*
X9512585Y36412549D01*
X9742549Y36182585D01*
X9804785Y36141000D01*
X7965868Y36141000D01*
X7566000Y36540868D01*
X7566000Y38312982D01*
X7570040Y38354000D01*
X7553918Y38517689D01*
X7506172Y38675087D01*
X7428636Y38820146D01*
X7324291Y38947291D01*
X7292428Y38973440D01*
X6334446Y39931421D01*
X6308291Y39963291D01*
X6181146Y40067636D01*
X6036087Y40145172D01*
X5996722Y40157113D01*
X5982377Y40191745D01*
X5792523Y40475883D01*
X5692880Y40575526D01*
X11741123Y40575526D01*
X11784328Y40265815D01*
X11887123Y39970484D01*
X11973919Y39808098D01*
X12233465Y39718070D01*
X13155395Y40640000D01*
X13514605Y40640000D01*
X14436535Y39718070D01*
X14696081Y39808098D01*
X14832224Y40089616D01*
X14910829Y40392286D01*
X14928877Y40704474D01*
X14885672Y41014185D01*
X14782877Y41309516D01*
X14696081Y41471902D01*
X14436535Y41561930D01*
X13514605Y40640000D01*
X13155395Y40640000D01*
X12233465Y41561930D01*
X11973919Y41471902D01*
X11837776Y41190384D01*
X11759171Y40887714D01*
X11741123Y40575526D01*
X5692880Y40575526D01*
X5628406Y40640000D01*
X5792523Y40804117D01*
X5982377Y41088255D01*
X6113152Y41403972D01*
X6179820Y41739135D01*
X6179820Y42080865D01*
X6113152Y42416028D01*
X5982377Y42731745D01*
X5792523Y43015883D01*
X5628406Y43180000D01*
X5792523Y43344117D01*
X5982377Y43628255D01*
X6113152Y43943972D01*
X6179820Y44279135D01*
X6179820Y44620865D01*
X6113152Y44956028D01*
X5982377Y45271745D01*
X5792523Y45555883D01*
X5628406Y45720000D01*
X5792523Y45884117D01*
X5982377Y46168255D01*
X6113152Y46483972D01*
X6179820Y46819135D01*
X6179820Y47160865D01*
X6113152Y47496028D01*
X5982377Y47811745D01*
X5792523Y48095883D01*
X5550883Y48337523D01*
X5266745Y48527377D01*
X4951028Y48658152D01*
X4615865Y48724820D01*
X4274135Y48724820D01*
X3938972Y48658152D01*
X3623255Y48527377D01*
X3339117Y48337523D01*
X3097477Y48095883D01*
X3059781Y48039467D01*
X3059781Y51322947D01*
X3074506Y51310863D01*
X3184820Y51251898D01*
X3304518Y51215588D01*
X3429000Y51203328D01*
X5461000Y51203328D01*
X5585482Y51215588D01*
X5705180Y51251898D01*
X5815494Y51310863D01*
X5912185Y51390215D01*
X5991537Y51486906D01*
X6050502Y51597220D01*
X6086812Y51716918D01*
X6099072Y51841400D01*
X6099072Y53568600D01*
X6086812Y53693082D01*
X6050502Y53812780D01*
X5991537Y53923094D01*
X5912185Y54019785D01*
X5815494Y54099137D01*
X5705180Y54158102D01*
X5643088Y54176937D01*
X5795733Y54342965D01*
X5948686Y54594081D01*
X6049709Y54870211D01*
X6052358Y54885974D01*
X5931217Y55118000D01*
X4572000Y55118000D01*
X4572000Y55098000D01*
X4318000Y55098000D01*
X4318000Y55118000D01*
X4298000Y55118000D01*
X4298000Y55372000D01*
X4318000Y55372000D01*
X4318000Y56585925D01*
X4572000Y56585925D01*
X4572000Y55372000D01*
X5931217Y55372000D01*
X6052358Y55604026D01*
X6049709Y55619789D01*
X5948686Y55895919D01*
X5795733Y56147035D01*
X5596729Y56363486D01*
X5359321Y56536954D01*
X5092633Y56660773D01*
X4806914Y56730185D01*
X4572000Y56585925D01*
X4318000Y56585925D01*
X4083086Y56730185D01*
X3797367Y56660773D01*
X3530679Y56536954D01*
X3293271Y56363486D01*
X3094267Y56147035D01*
X3059781Y56090416D01*
X3059781Y62752947D01*
X3074506Y62740863D01*
X3184820Y62681898D01*
X3304518Y62645588D01*
X3429000Y62633328D01*
X5461000Y62633328D01*
X5585482Y62645588D01*
X5705180Y62681898D01*
X5815494Y62740863D01*
X5912185Y62820215D01*
X5991537Y62916906D01*
X6050502Y63027220D01*
X6078343Y63119000D01*
X6935098Y63119000D01*
X6985000Y63114085D01*
X7034902Y63119000D01*
X7184171Y63133702D01*
X7375687Y63191798D01*
X7552190Y63286140D01*
X7706896Y63413104D01*
X7738712Y63451872D01*
X9818841Y65532000D01*
X9914037Y65532000D01*
X9742549Y65417415D01*
G04 #@! TA.AperFunction,Conductor*
D31*
G36*
X9742549Y65417415D02*
G01*
X9512585Y65187451D01*
X9331903Y64917042D01*
X9207447Y64616579D01*
X9144000Y64297609D01*
X9144000Y63972391D01*
X9195021Y63715889D01*
X7566574Y62087441D01*
X7534710Y62061291D01*
X7508562Y62029429D01*
X7430364Y61934145D01*
X7352828Y61789086D01*
X7305082Y61631688D01*
X7288960Y61468000D01*
X7293001Y61426972D01*
X7293000Y54143019D01*
X7288960Y54102000D01*
X7293000Y54060982D01*
X7305082Y53938312D01*
X7352828Y53780914D01*
X7430364Y53635855D01*
X7534709Y53508709D01*
X7566578Y53482555D01*
X8270563Y52778569D01*
X8296709Y52746709D01*
X8328568Y52720563D01*
X8328570Y52720561D01*
X8362659Y52692585D01*
X8423854Y52642364D01*
X8471638Y52616823D01*
X8471638Y52289710D01*
X8483898Y52165228D01*
X8520208Y52045530D01*
X8579173Y51935216D01*
X8658525Y51838525D01*
X8755216Y51759173D01*
X8865530Y51700208D01*
X8985228Y51663898D01*
X9109710Y51651638D01*
X11210290Y51651638D01*
X11334772Y51663898D01*
X11454470Y51700208D01*
X11564784Y51759173D01*
X11661475Y51838525D01*
X11740827Y51935216D01*
X11799792Y52045530D01*
X11836102Y52165228D01*
X11848362Y52289710D01*
X11848362Y52959000D01*
X18030928Y52959000D01*
X18043188Y52834518D01*
X18079498Y52714820D01*
X18138463Y52604506D01*
X18217815Y52507815D01*
X18314506Y52428463D01*
X18424820Y52369498D01*
X18544518Y52333188D01*
X18669000Y52320928D01*
X19399250Y52324000D01*
X19558000Y52482750D01*
X19558000Y53848000D01*
X18192750Y53848000D01*
X18034000Y53689250D01*
X18030928Y52959000D01*
X11848362Y52959000D01*
X11848362Y54390290D01*
X11836102Y54514772D01*
X11799792Y54634470D01*
X11740827Y54744784D01*
X11661475Y54841475D01*
X11564784Y54920827D01*
X11550930Y54928232D01*
X11592869Y54991000D01*
X18030928Y54991000D01*
X18034000Y54260750D01*
X18192750Y54102000D01*
X19558000Y54102000D01*
X19558000Y55467250D01*
X19399250Y55626000D01*
X18669000Y55629072D01*
X18544518Y55616812D01*
X18424820Y55580502D01*
X18314506Y55521537D01*
X18217815Y55442185D01*
X18138463Y55345494D01*
X18079498Y55235180D01*
X18043188Y55115482D01*
X18030928Y54991000D01*
X11592869Y54991000D01*
X11653484Y55081716D01*
X11780525Y55388419D01*
X11845290Y55714013D01*
X11845290Y56045987D01*
X11780525Y56371581D01*
X11653484Y56678284D01*
X11469050Y56954310D01*
X11234310Y57189050D01*
X11150323Y57245168D01*
X11151668Y57248727D01*
X10160000Y58240395D01*
X10145858Y58226252D01*
X9966253Y58405857D01*
X9980395Y58420000D01*
X10339605Y58420000D01*
X11331273Y57428332D01*
X11600815Y57530167D01*
X11746728Y57828354D01*
X11831664Y58149277D01*
X11852359Y58480604D01*
X11808018Y58809602D01*
X11700344Y59123629D01*
X11600815Y59309833D01*
X11331273Y59411668D01*
X10339605Y58420000D01*
X9980395Y58420000D01*
X9966253Y58434142D01*
X10145858Y58613747D01*
X10160000Y58599605D01*
X11151668Y59591273D01*
X11049833Y59860815D01*
X10751646Y60006728D01*
X10430723Y60091664D01*
X10099396Y60112359D01*
X9770398Y60068018D01*
X9456371Y59960344D01*
X9270167Y59860815D01*
X9168333Y59591275D01*
X9052792Y59706816D01*
X8963000Y59617024D01*
X8963000Y61122133D01*
X10375889Y62535021D01*
X10632391Y62484000D01*
X10957609Y62484000D01*
X11276579Y62547447D01*
X11577042Y62671903D01*
X11847451Y62852585D01*
X12077415Y63082549D01*
X12222712Y63300000D01*
X13177288Y63300000D01*
X13322585Y63082549D01*
X13552549Y62852585D01*
X13822958Y62671903D01*
X14123421Y62547447D01*
X14442391Y62484000D01*
X14767609Y62484000D01*
X15086579Y62547447D01*
X15387042Y62671903D01*
X15657451Y62852585D01*
X15887415Y63082549D01*
X16068097Y63352958D01*
X16192553Y63653421D01*
X16256000Y63972391D01*
X16256000Y64297609D01*
X16192553Y64616579D01*
X16068097Y64917042D01*
X15887415Y65187451D01*
X15657451Y65417415D01*
X15485963Y65532000D01*
X16597160Y65532000D01*
X19947292Y62181867D01*
X19979104Y62143104D01*
X20115910Y62030830D01*
X20133810Y62016140D01*
X20310313Y61921798D01*
X20501829Y61863702D01*
X20701000Y61844085D01*
X20750902Y61849000D01*
X22475928Y61849000D01*
X22488188Y61724518D01*
X22524498Y61604820D01*
X22583463Y61494506D01*
X22662815Y61397815D01*
X22759506Y61318463D01*
X22869820Y61259498D01*
X22989518Y61223188D01*
X23114000Y61210928D01*
X23114001Y61210928D01*
X23114001Y59612911D01*
X23109085Y59563000D01*
X23128702Y59363830D01*
X23186799Y59172313D01*
X23281141Y58995810D01*
X23408105Y58841104D01*
X23446868Y58809292D01*
X23749000Y58507160D01*
X23749001Y55281771D01*
X23712549Y55257415D01*
X23495000Y55039866D01*
X23277451Y55257415D01*
X23007042Y55438097D01*
X22706579Y55562553D01*
X22387609Y55626000D01*
X22062391Y55626000D01*
X21743421Y55562553D01*
X21442958Y55438097D01*
X21250704Y55309636D01*
X21231537Y55345494D01*
X21152185Y55442185D01*
X21055494Y55521537D01*
X20945180Y55580502D01*
X20825482Y55616812D01*
X20701000Y55629072D01*
X19970750Y55626000D01*
X19812000Y55467250D01*
X19812000Y54102000D01*
X19832000Y54102000D01*
X19832000Y53848000D01*
X19812000Y53848000D01*
X19812000Y52482750D01*
X19970750Y52324000D01*
X20701000Y52320928D01*
X20825482Y52333188D01*
X20945180Y52369498D01*
X21055494Y52428463D01*
X21152185Y52507815D01*
X21231537Y52604506D01*
X21250704Y52640364D01*
X21390001Y52547288D01*
X21390000Y40720209D01*
X21236816Y40617855D01*
X21155000Y40536039D01*
X21155000Y43011982D01*
X21159040Y43053001D01*
X21142918Y43216689D01*
X21095172Y43374087D01*
X21017636Y43519146D01*
X20969211Y43578152D01*
X20913291Y43646291D01*
X20881427Y43672441D01*
X18780446Y45773421D01*
X18754291Y45805291D01*
X18627146Y45909636D01*
X18482087Y45987172D01*
X18324689Y46034918D01*
X18202019Y46047000D01*
X18202018Y46047000D01*
X18161000Y46051040D01*
X18119982Y46047000D01*
X11344007Y46047000D01*
X11302999Y46051039D01*
X11261991Y46047000D01*
X11261981Y46047000D01*
X11139311Y46034918D01*
X10981913Y45987172D01*
X10836854Y45909636D01*
X10709709Y45805291D01*
X10683554Y45773421D01*
X10233579Y45323446D01*
X10201709Y45297291D01*
X10097365Y45170146D01*
X10097364Y45170145D01*
X10019828Y45025086D01*
X9972082Y44867688D01*
X9962517Y44770572D01*
X9842500Y44770572D01*
X9718018Y44758312D01*
X9598320Y44722002D01*
X9488006Y44663037D01*
X9391315Y44583685D01*
X9311963Y44486994D01*
X9252998Y44376680D01*
X9216688Y44256982D01*
X9204428Y44132500D01*
X9204428Y42227500D01*
X9216688Y42103018D01*
X9252998Y41983320D01*
X9311963Y41873006D01*
X9391315Y41776315D01*
X9488006Y41696963D01*
X9598320Y41637998D01*
X9718018Y41601688D01*
X9842500Y41589428D01*
X11747500Y41589428D01*
X11871982Y41601688D01*
X11991680Y41637998D01*
X12101994Y41696963D01*
X12198685Y41776315D01*
X12278037Y41873006D01*
X12319451Y41950485D01*
X12323028Y41946908D01*
X12453961Y41859422D01*
X12413070Y41741535D01*
X13335000Y40819605D01*
X14256930Y41741535D01*
X14216039Y41859422D01*
X14346972Y41946908D01*
X14502098Y42102034D01*
X15040001Y41564131D01*
X15040000Y39715869D01*
X14389111Y39064979D01*
X14132609Y39116000D01*
X13807391Y39116000D01*
X13757039Y39105984D01*
X14004516Y39192123D01*
X14166902Y39278919D01*
X14256930Y39538465D01*
X13335000Y40460395D01*
X12413070Y39538465D01*
X12503098Y39278919D01*
X12784616Y39142776D01*
X13087286Y39064171D01*
X13399474Y39046123D01*
X13589045Y39072568D01*
X13488421Y39052553D01*
X13187958Y38928097D01*
X12917549Y38747415D01*
X12687585Y38517451D01*
X12542288Y38300000D01*
X12222712Y38300000D01*
X12077415Y38517451D01*
X11847451Y38747415D01*
X11577042Y38928097D01*
X11276579Y39052553D01*
X10957609Y39116000D01*
X10632391Y39116000D01*
X10313421Y39052553D01*
X10012958Y38928097D01*
X9742549Y38747415D01*
X9512585Y38517451D01*
X9331903Y38247042D01*
X9207447Y37946579D01*
X9144000Y37627609D01*
X9144000Y37302391D01*
X9207447Y36983421D01*
X9331903Y36682958D01*
X9512585Y36412549D01*
X9742549Y36182585D01*
X9804785Y36141000D01*
X7965868Y36141000D01*
X7566000Y36540868D01*
X7566000Y38312982D01*
X7570040Y38354000D01*
X7553918Y38517689D01*
X7506172Y38675087D01*
X7428636Y38820146D01*
X7324291Y38947291D01*
X7292428Y38973440D01*
X6334446Y39931421D01*
X6308291Y39963291D01*
X6181146Y40067636D01*
X6036087Y40145172D01*
X5996722Y40157113D01*
X5982377Y40191745D01*
X5792523Y40475883D01*
X5692880Y40575526D01*
X11741123Y40575526D01*
X11784328Y40265815D01*
X11887123Y39970484D01*
X11973919Y39808098D01*
X12233465Y39718070D01*
X13155395Y40640000D01*
X13514605Y40640000D01*
X14436535Y39718070D01*
X14696081Y39808098D01*
X14832224Y40089616D01*
X14910829Y40392286D01*
X14928877Y40704474D01*
X14885672Y41014185D01*
X14782877Y41309516D01*
X14696081Y41471902D01*
X14436535Y41561930D01*
X13514605Y40640000D01*
X13155395Y40640000D01*
X12233465Y41561930D01*
X11973919Y41471902D01*
X11837776Y41190384D01*
X11759171Y40887714D01*
X11741123Y40575526D01*
X5692880Y40575526D01*
X5628406Y40640000D01*
X5792523Y40804117D01*
X5982377Y41088255D01*
X6113152Y41403972D01*
X6179820Y41739135D01*
X6179820Y42080865D01*
X6113152Y42416028D01*
X5982377Y42731745D01*
X5792523Y43015883D01*
X5628406Y43180000D01*
X5792523Y43344117D01*
X5982377Y43628255D01*
X6113152Y43943972D01*
X6179820Y44279135D01*
X6179820Y44620865D01*
X6113152Y44956028D01*
X5982377Y45271745D01*
X5792523Y45555883D01*
X5628406Y45720000D01*
X5792523Y45884117D01*
X5982377Y46168255D01*
X6113152Y46483972D01*
X6179820Y46819135D01*
X6179820Y47160865D01*
X6113152Y47496028D01*
X5982377Y47811745D01*
X5792523Y48095883D01*
X5550883Y48337523D01*
X5266745Y48527377D01*
X4951028Y48658152D01*
X4615865Y48724820D01*
X4274135Y48724820D01*
X3938972Y48658152D01*
X3623255Y48527377D01*
X3339117Y48337523D01*
X3097477Y48095883D01*
X3059781Y48039467D01*
X3059781Y51322947D01*
X3074506Y51310863D01*
X3184820Y51251898D01*
X3304518Y51215588D01*
X3429000Y51203328D01*
X5461000Y51203328D01*
X5585482Y51215588D01*
X5705180Y51251898D01*
X5815494Y51310863D01*
X5912185Y51390215D01*
X5991537Y51486906D01*
X6050502Y51597220D01*
X6086812Y51716918D01*
X6099072Y51841400D01*
X6099072Y53568600D01*
X6086812Y53693082D01*
X6050502Y53812780D01*
X5991537Y53923094D01*
X5912185Y54019785D01*
X5815494Y54099137D01*
X5705180Y54158102D01*
X5643088Y54176937D01*
X5795733Y54342965D01*
X5948686Y54594081D01*
X6049709Y54870211D01*
X6052358Y54885974D01*
X5931217Y55118000D01*
X4572000Y55118000D01*
X4572000Y55098000D01*
X4318000Y55098000D01*
X4318000Y55118000D01*
X4298000Y55118000D01*
X4298000Y55372000D01*
X4318000Y55372000D01*
X4318000Y56585925D01*
X4572000Y56585925D01*
X4572000Y55372000D01*
X5931217Y55372000D01*
X6052358Y55604026D01*
X6049709Y55619789D01*
X5948686Y55895919D01*
X5795733Y56147035D01*
X5596729Y56363486D01*
X5359321Y56536954D01*
X5092633Y56660773D01*
X4806914Y56730185D01*
X4572000Y56585925D01*
X4318000Y56585925D01*
X4083086Y56730185D01*
X3797367Y56660773D01*
X3530679Y56536954D01*
X3293271Y56363486D01*
X3094267Y56147035D01*
X3059781Y56090416D01*
X3059781Y62752947D01*
X3074506Y62740863D01*
X3184820Y62681898D01*
X3304518Y62645588D01*
X3429000Y62633328D01*
X5461000Y62633328D01*
X5585482Y62645588D01*
X5705180Y62681898D01*
X5815494Y62740863D01*
X5912185Y62820215D01*
X5991537Y62916906D01*
X6050502Y63027220D01*
X6078343Y63119000D01*
X6935098Y63119000D01*
X6985000Y63114085D01*
X7034902Y63119000D01*
X7184171Y63133702D01*
X7375687Y63191798D01*
X7552190Y63286140D01*
X7706896Y63413104D01*
X7738712Y63451872D01*
X9818841Y65532000D01*
X9914037Y65532000D01*
X9742549Y65417415D01*
G37*
G04 #@! TD.AperFunction*
D30*
X38410830Y81770002D02*
X38117998Y81477170D01*
X37887922Y81132836D01*
X37729442Y80750233D01*
X37648650Y80344063D01*
X37648650Y79929937D01*
X37729442Y79523767D01*
X37887922Y79141164D01*
X38117998Y78796830D01*
X38410830Y78503998D01*
X38755164Y78273922D01*
X39137767Y78115442D01*
X39543937Y78034650D01*
X39958063Y78034650D01*
X40364233Y78115442D01*
X40746836Y78273922D01*
X41091170Y78503998D01*
X41384002Y78796830D01*
X41548581Y79043141D01*
X41548581Y60433546D01*
X41422042Y60518097D01*
X41121579Y60642553D01*
X40802609Y60706000D01*
X40477391Y60706000D01*
X40434393Y60697447D01*
X38502511Y62629329D01*
X38841680Y62628248D01*
X38966162Y62640508D01*
X39085860Y62676818D01*
X39196174Y62735783D01*
X39292865Y62815135D01*
X39372217Y62911826D01*
X39431182Y63022140D01*
X39467492Y63141838D01*
X39479752Y63266320D01*
X39476680Y64230250D01*
X39317930Y64389000D01*
X37719000Y64389000D01*
X37719000Y64369000D01*
X37465000Y64369000D01*
X37465000Y64389000D01*
X35866070Y64389000D01*
X35707320Y64230250D01*
X35704248Y63266320D01*
X35706249Y63246000D01*
X32043841Y63246000D01*
X30934355Y64355485D01*
X31019772Y64363898D01*
X31139470Y64400208D01*
X31249784Y64459173D01*
X31346475Y64538525D01*
X31425827Y64635216D01*
X31484792Y64745530D01*
X31521102Y64865228D01*
X31533362Y64989710D01*
X31533362Y65765680D01*
X35704248Y65765680D01*
X35707320Y64801750D01*
X35866070Y64643000D01*
X37465000Y64643000D01*
X37465000Y66241930D01*
X37719000Y66241930D01*
X37719000Y64643000D01*
X39317930Y64643000D01*
X39476680Y64801750D01*
X39479752Y65765680D01*
X39467492Y65890162D01*
X39431182Y66009860D01*
X39372217Y66120174D01*
X39292865Y66216865D01*
X39196174Y66296217D01*
X39085860Y66355182D01*
X38966162Y66391492D01*
X38841680Y66403752D01*
X37877750Y66400680D01*
X37719000Y66241930D01*
X37465000Y66241930D01*
X37306250Y66400680D01*
X36342320Y66403752D01*
X36217838Y66391492D01*
X36098140Y66355182D01*
X35987826Y66296217D01*
X35891135Y66216865D01*
X35811783Y66120174D01*
X35752818Y66009860D01*
X35716508Y65890162D01*
X35704248Y65765680D01*
X31533362Y65765680D01*
X31533362Y67090290D01*
X31521102Y67214772D01*
X31484792Y67334470D01*
X31425827Y67444784D01*
X31346475Y67541475D01*
X31249784Y67620827D01*
X31188702Y67653477D01*
X31285815Y67690167D01*
X31431728Y67988354D01*
X31516664Y68309277D01*
X31537359Y68640604D01*
X31493018Y68969602D01*
X31385344Y69283629D01*
X31285815Y69469833D01*
X31016273Y69571668D01*
X30024605Y68580000D01*
X30038748Y68565857D01*
X29859143Y68386252D01*
X29845000Y68400395D01*
X29830858Y68386252D01*
X29651253Y68565857D01*
X29665395Y68580000D01*
X28673727Y69571668D01*
X28404185Y69469833D01*
X28258272Y69171646D01*
X28173336Y68850723D01*
X28152641Y68519396D01*
X28196982Y68190398D01*
X28304656Y67876371D01*
X28404185Y67690167D01*
X28501298Y67653477D01*
X28440216Y67620827D01*
X28343525Y67541475D01*
X28264173Y67444784D01*
X28205208Y67334470D01*
X28168898Y67214772D01*
X28156638Y67090290D01*
X28156638Y64989710D01*
X28168898Y64865228D01*
X28205208Y64745530D01*
X28264173Y64635216D01*
X28343525Y64538525D01*
X28440216Y64459173D01*
X28550530Y64400208D01*
X28670228Y64363898D01*
X28755645Y64355485D01*
X25146000Y60745840D01*
X25146000Y61210928D01*
X25270482Y61223188D01*
X25390180Y61259498D01*
X25500494Y61318463D01*
X25597185Y61397815D01*
X25676537Y61494506D01*
X25735502Y61604820D01*
X25771812Y61724518D01*
X25784072Y61849000D01*
X25784072Y63881000D01*
X25771812Y64005482D01*
X25735502Y64125180D01*
X25676537Y64235494D01*
X25597185Y64332185D01*
X25500494Y64411537D01*
X25390180Y64470502D01*
X25376896Y64474532D01*
X25542860Y64535478D01*
X25685348Y64827821D01*
X25768064Y65142344D01*
X25787831Y65466962D01*
X25743888Y65789198D01*
X25637924Y66096670D01*
X25542860Y66274522D01*
X25276823Y66372218D01*
X24309605Y65405000D01*
X24323748Y65390857D01*
X24144143Y65211252D01*
X24130000Y65225395D01*
X24115858Y65211252D01*
X23936253Y65390857D01*
X23950395Y65405000D01*
X22983177Y66372218D01*
X22717140Y66274522D01*
X22574652Y65982179D01*
X22491936Y65667656D01*
X22472169Y65343038D01*
X22516112Y65020802D01*
X22622076Y64713330D01*
X22717140Y64535478D01*
X22883104Y64474532D01*
X22869820Y64470502D01*
X22759506Y64411537D01*
X22662815Y64332185D01*
X22583463Y64235494D01*
X22524498Y64125180D01*
X22488188Y64005482D01*
X22475928Y63881000D01*
X21121841Y63881000D01*
X18451018Y66551823D01*
X23162782Y66551823D01*
X24130000Y65584605D01*
X25097218Y66551823D01*
X24999522Y66817860D01*
X24707179Y66960348D01*
X24392656Y67043064D01*
X24068038Y67062831D01*
X23745802Y67018888D01*
X23438330Y66912924D01*
X23260478Y66817860D01*
X23162782Y66551823D01*
X18451018Y66551823D01*
X17771712Y67231128D01*
X17739896Y67269896D01*
X17585190Y67396860D01*
X17408687Y67491202D01*
X17217171Y67549298D01*
X17067902Y67564000D01*
X17018000Y67568915D01*
X16968098Y67564000D01*
X9447893Y67564000D01*
X9397999Y67568914D01*
X9348105Y67564000D01*
X9348098Y67564000D01*
X9198829Y67549298D01*
X9007313Y67491202D01*
X8830810Y67396860D01*
X8676104Y67269896D01*
X8644292Y67231133D01*
X6564160Y65151000D01*
X6078343Y65151000D01*
X6050502Y65242780D01*
X5991537Y65353094D01*
X5912185Y65449785D01*
X5815494Y65529137D01*
X5705180Y65588102D01*
X5654135Y65603586D01*
X5662197Y65610203D01*
X5849469Y65838394D01*
X5988625Y66098736D01*
X6074316Y66381223D01*
X6103251Y66675000D01*
X6074316Y66968777D01*
X5988625Y67251264D01*
X5849469Y67511606D01*
X5662197Y67739797D01*
X5434006Y67927069D01*
X5400460Y67945000D01*
X5434006Y67962931D01*
X5662197Y68150203D01*
X5702244Y68199000D01*
X9475098Y68199000D01*
X9525000Y68194085D01*
X9574902Y68199000D01*
X9724171Y68213702D01*
X9915687Y68271798D01*
X10092190Y68366140D01*
X10246896Y68493104D01*
X10278712Y68531872D01*
X10450017Y68703177D01*
X23162782Y68703177D01*
X23260478Y68437140D01*
X23552821Y68294652D01*
X23867344Y68211936D01*
X24191962Y68192169D01*
X24514198Y68236112D01*
X24821670Y68342076D01*
X24999522Y68437140D01*
X25097218Y68703177D01*
X24130000Y69670395D01*
X23162782Y68703177D01*
X10450017Y68703177D01*
X11478133Y69731292D01*
X11516896Y69763104D01*
X11537358Y69788038D01*
X22472169Y69788038D01*
X22516112Y69465802D01*
X22622076Y69158330D01*
X22717140Y68980478D01*
X22983177Y68882782D01*
X23950395Y69850000D01*
X23936253Y69864142D01*
X24115858Y70043747D01*
X24130000Y70029605D01*
X24144143Y70043747D01*
X24323748Y69864142D01*
X24309605Y69850000D01*
X25276823Y68882782D01*
X25542860Y68980478D01*
X25685348Y69272821D01*
X25768064Y69587344D01*
X25787831Y69911962D01*
X25743888Y70234198D01*
X25637924Y70541670D01*
X25542860Y70719522D01*
X25376896Y70780468D01*
X25390180Y70784498D01*
X25500494Y70843463D01*
X25597185Y70922815D01*
X25676537Y71019506D01*
X25735502Y71129820D01*
X25771812Y71249518D01*
X25784072Y71374000D01*
X26249160Y71374000D01*
X27186292Y70436867D01*
X27218104Y70398104D01*
X27372810Y70271140D01*
X27549313Y70176798D01*
X27740829Y70118702D01*
X27890098Y70104000D01*
X27890105Y70104000D01*
X27939999Y70099086D01*
X27989893Y70104000D01*
X28496989Y70104000D01*
X28535950Y70045690D01*
X28770690Y69810950D01*
X28854677Y69754832D01*
X28853332Y69751273D01*
X29845000Y68759605D01*
X30836668Y69751273D01*
X30835323Y69754832D01*
X30875421Y69781625D01*
X35707320Y69781625D01*
X35707320Y69410375D01*
X35779747Y69046259D01*
X35921818Y68703269D01*
X36128074Y68394587D01*
X36390587Y68132074D01*
X36699269Y67925818D01*
X37042259Y67783747D01*
X37406375Y67711320D01*
X37777625Y67711320D01*
X38141741Y67783747D01*
X38484731Y67925818D01*
X38793413Y68132074D01*
X39055926Y68394587D01*
X39262182Y68703269D01*
X39404253Y69046259D01*
X39476680Y69410375D01*
X39476680Y69781625D01*
X39404253Y70145741D01*
X39262182Y70488731D01*
X39055926Y70797413D01*
X38793413Y71059926D01*
X38484731Y71266182D01*
X38141741Y71408253D01*
X37777625Y71480680D01*
X37406375Y71480680D01*
X37042259Y71408253D01*
X36699269Y71266182D01*
X36390587Y71059926D01*
X36128074Y70797413D01*
X35921818Y70488731D01*
X35779747Y70145741D01*
X35707320Y69781625D01*
X30875421Y69781625D01*
X30919310Y69810950D01*
X31154050Y70045690D01*
X31338484Y70321716D01*
X31465525Y70628419D01*
X31530290Y70954013D01*
X31530290Y71285987D01*
X31465525Y71611581D01*
X31338484Y71918284D01*
X31154050Y72194310D01*
X30919310Y72429050D01*
X30643284Y72613484D01*
X30336581Y72740525D01*
X30010987Y72805290D01*
X29679013Y72805290D01*
X29353419Y72740525D01*
X29046716Y72613484D01*
X28770690Y72429050D01*
X28535950Y72194310D01*
X28496989Y72136000D01*
X28360841Y72136000D01*
X27686000Y72810840D01*
X27686000Y74128160D01*
X29215753Y75657912D01*
X29254516Y75689724D01*
X29381480Y75844430D01*
X29475822Y76020933D01*
X29533918Y76212449D01*
X29548620Y76361718D01*
X29548620Y76361725D01*
X29553534Y76411619D01*
X29548620Y76461513D01*
X29548620Y78112872D01*
X29574872Y78130413D01*
X29802607Y78358148D01*
X29981538Y78625937D01*
X30023549Y78727361D01*
X30076082Y78600537D01*
X30255013Y78332748D01*
X30482748Y78105013D01*
X30750537Y77926082D01*
X31048088Y77802832D01*
X31363967Y77740000D01*
X31686033Y77740000D01*
X32001912Y77802832D01*
X32299463Y77926082D01*
X32567252Y78105013D01*
X32794987Y78332748D01*
X32973918Y78600537D01*
X33097168Y78898088D01*
X33160000Y79213967D01*
X33160000Y79536033D01*
X33097168Y79851912D01*
X32973918Y80149463D01*
X32849503Y80335664D01*
X33590000Y80335664D01*
X33590000Y78414335D01*
X33607871Y78232898D01*
X33678490Y78000099D01*
X33793168Y77785551D01*
X33947499Y77597498D01*
X34135552Y77443167D01*
X34350100Y77328489D01*
X34582899Y77257870D01*
X34825000Y77234025D01*
X35067102Y77257870D01*
X35299901Y77328489D01*
X35514449Y77443167D01*
X35702502Y77597498D01*
X35856833Y77785551D01*
X35971511Y78000099D01*
X36042130Y78232898D01*
X36060000Y78414335D01*
X36060000Y80335665D01*
X36042130Y80517102D01*
X35971511Y80749901D01*
X35856833Y80964449D01*
X35702502Y81152502D01*
X35514448Y81306833D01*
X35299900Y81421511D01*
X35067101Y81492130D01*
X34825000Y81515975D01*
X34582898Y81492130D01*
X34350099Y81421511D01*
X34135551Y81306833D01*
X33947498Y81152502D01*
X33793167Y80964448D01*
X33678489Y80749900D01*
X33607870Y80517101D01*
X33590000Y80335664D01*
X32849503Y80335664D01*
X32794987Y80417252D01*
X32567252Y80644987D01*
X32299463Y80823918D01*
X32001912Y80947168D01*
X31686033Y81010000D01*
X31363967Y81010000D01*
X31048088Y80947168D01*
X30750537Y80823918D01*
X30482748Y80644987D01*
X30255013Y80417252D01*
X30076082Y80149463D01*
X30034071Y80048039D01*
X29981538Y80174863D01*
X29802607Y80442652D01*
X29574872Y80670387D01*
X29307083Y80849318D01*
X29009532Y80972568D01*
X28693653Y81035400D01*
X28371587Y81035400D01*
X28055708Y80972568D01*
X27758157Y80849318D01*
X27490368Y80670387D01*
X27262633Y80442652D01*
X27083702Y80174863D01*
X27023549Y80029642D01*
X26973918Y80149463D01*
X26794987Y80417252D01*
X26567252Y80644987D01*
X26299463Y80823918D01*
X26001912Y80947168D01*
X25686033Y81010000D01*
X25363967Y81010000D01*
X25048088Y80947168D01*
X24750537Y80823918D01*
X24482748Y80644987D01*
X24255013Y80417252D01*
X24076082Y80149463D01*
X23952832Y79851912D01*
X23890000Y79536033D01*
X23890000Y79213967D01*
X23952832Y78898088D01*
X24076082Y78600537D01*
X24255013Y78332748D01*
X24482748Y78105013D01*
X24750537Y77926082D01*
X25048088Y77802832D01*
X25363967Y77740000D01*
X25686033Y77740000D01*
X26001912Y77802832D01*
X26299463Y77926082D01*
X26567252Y78105013D01*
X26794987Y78332748D01*
X26973918Y78600537D01*
X27034071Y78745758D01*
X27083702Y78625937D01*
X27262633Y78358148D01*
X27490368Y78130413D01*
X27516621Y78112872D01*
X27516620Y76832461D01*
X25986868Y75302708D01*
X25948105Y75270896D01*
X25821141Y75116190D01*
X25730130Y74945919D01*
X25726799Y74939687D01*
X25668702Y74748170D01*
X25649085Y74549000D01*
X25654001Y74499089D01*
X25654001Y73787955D01*
X25597185Y73857185D01*
X25500494Y73936537D01*
X25390180Y73995502D01*
X25270482Y74031812D01*
X25146000Y74044072D01*
X23114000Y74044072D01*
X22989518Y74031812D01*
X22869820Y73995502D01*
X22759506Y73936537D01*
X22662815Y73857185D01*
X22583463Y73760494D01*
X22524498Y73650180D01*
X22488188Y73530482D01*
X22475928Y73406000D01*
X22475928Y71374000D01*
X22488188Y71249518D01*
X22524498Y71129820D01*
X22583463Y71019506D01*
X22662815Y70922815D01*
X22759506Y70843463D01*
X22869820Y70784498D01*
X22883104Y70780468D01*
X22717140Y70719522D01*
X22574652Y70427179D01*
X22491936Y70112656D01*
X22472169Y69788038D01*
X11537358Y69788038D01*
X11643860Y69917810D01*
X11738202Y70094313D01*
X11796298Y70285829D01*
X11811000Y70435098D01*
X11811000Y70435105D01*
X11812384Y70449154D01*
X11847451Y70472585D01*
X11983043Y70608177D01*
X13637782Y70608177D01*
X13735478Y70342140D01*
X14027821Y70199652D01*
X14342344Y70116936D01*
X14666962Y70097169D01*
X14989198Y70141112D01*
X15296670Y70247076D01*
X15474522Y70342140D01*
X15572218Y70608177D01*
X14605000Y71575395D01*
X13637782Y70608177D01*
X11983043Y70608177D01*
X12077415Y70702549D01*
X12258097Y70972958D01*
X12382553Y71273421D01*
X12446000Y71592391D01*
X12446000Y71693038D01*
X12947169Y71693038D01*
X12991112Y71370802D01*
X13097076Y71063330D01*
X13192140Y70885478D01*
X13458177Y70787782D01*
X14425395Y71755000D01*
X14784605Y71755000D01*
X15751823Y70787782D01*
X16017860Y70885478D01*
X16160348Y71177821D01*
X16243064Y71492344D01*
X16262831Y71816962D01*
X16218888Y72139198D01*
X16112924Y72446670D01*
X16017860Y72624522D01*
X15751823Y72722218D01*
X14784605Y71755000D01*
X14425395Y71755000D01*
X13458177Y72722218D01*
X13192140Y72624522D01*
X13049652Y72332179D01*
X12966936Y72017656D01*
X12947169Y71693038D01*
X12446000Y71693038D01*
X12446000Y71917609D01*
X12382553Y72236579D01*
X12258097Y72537042D01*
X12077415Y72807451D01*
X11983043Y72901823D01*
X13637782Y72901823D01*
X14605000Y71934605D01*
X15572218Y72901823D01*
X15474522Y73167860D01*
X15182179Y73310348D01*
X14867656Y73393064D01*
X14543038Y73412831D01*
X14220802Y73368888D01*
X13913330Y73262924D01*
X13735478Y73167860D01*
X13637782Y72901823D01*
X11983043Y72901823D01*
X11847451Y73037415D01*
X11577042Y73218097D01*
X11276579Y73342553D01*
X10957609Y73406000D01*
X10632391Y73406000D01*
X10313421Y73342553D01*
X10012958Y73218097D01*
X9742549Y73037415D01*
X9512585Y72807451D01*
X9331903Y72537042D01*
X9207447Y72236579D01*
X9144000Y71917609D01*
X9144000Y71592391D01*
X9207447Y71273421D01*
X9331903Y70972958D01*
X9512585Y70702549D01*
X9544147Y70670987D01*
X9104160Y70231000D01*
X5702244Y70231000D01*
X5662197Y70279797D01*
X5434006Y70467069D01*
X5400460Y70485000D01*
X5434006Y70502931D01*
X5662197Y70690203D01*
X5849469Y70918394D01*
X5988625Y71178736D01*
X6074316Y71461223D01*
X6103251Y71755000D01*
X6074316Y72048777D01*
X5988625Y72331264D01*
X5849469Y72591606D01*
X5662197Y72819797D01*
X5434006Y73007069D01*
X5394053Y73028424D01*
X5596729Y73176514D01*
X5795733Y73392965D01*
X5948686Y73644081D01*
X6049709Y73920211D01*
X6052358Y73935974D01*
X5931217Y74168000D01*
X4572000Y74168000D01*
X4572000Y74148000D01*
X4318000Y74148000D01*
X4318000Y74168000D01*
X4298000Y74168000D01*
X4298000Y74422000D01*
X4318000Y74422000D01*
X4318000Y75635925D01*
X4572000Y75635925D01*
X4572000Y74422000D01*
X5931217Y74422000D01*
X6052358Y74654026D01*
X6049709Y74669789D01*
X5948686Y74945919D01*
X5795733Y75197035D01*
X5596729Y75413486D01*
X5359321Y75586954D01*
X5092633Y75710773D01*
X4806914Y75780185D01*
X4572000Y75635925D01*
X4318000Y75635925D01*
X4083086Y75780185D01*
X3797367Y75710773D01*
X3530679Y75586954D01*
X3293271Y75413486D01*
X3094267Y75197035D01*
X3059781Y75140416D01*
X3059781Y79043159D01*
X3224372Y78796830D01*
X3517204Y78503998D01*
X3861538Y78273922D01*
X4244141Y78115442D01*
X4650311Y78034650D01*
X5064437Y78034650D01*
X5470607Y78115442D01*
X5853210Y78273922D01*
X6197544Y78503998D01*
X6490376Y78796830D01*
X6720452Y79141164D01*
X6878932Y79523767D01*
X6959724Y79929937D01*
X6959724Y80335664D01*
X20990000Y80335664D01*
X20990000Y78414335D01*
X21007871Y78232898D01*
X21078490Y78000099D01*
X21193168Y77785551D01*
X21347499Y77597498D01*
X21535552Y77443167D01*
X21750100Y77328489D01*
X21982899Y77257870D01*
X22225000Y77234025D01*
X22467102Y77257870D01*
X22699901Y77328489D01*
X22914449Y77443167D01*
X23102502Y77597498D01*
X23256833Y77785551D01*
X23371511Y78000099D01*
X23442130Y78232898D01*
X23460000Y78414335D01*
X23460000Y80335665D01*
X23442130Y80517102D01*
X23371511Y80749901D01*
X23256833Y80964449D01*
X23102502Y81152502D01*
X22914448Y81306833D01*
X22699900Y81421511D01*
X22467101Y81492130D01*
X22225000Y81515975D01*
X21982898Y81492130D01*
X21750099Y81421511D01*
X21535551Y81306833D01*
X21347498Y81152502D01*
X21193167Y80964448D01*
X21078489Y80749900D01*
X21007870Y80517101D01*
X20990000Y80335664D01*
X6959724Y80335664D01*
X6959724Y80344063D01*
X6878932Y80750233D01*
X6720452Y81132836D01*
X6490376Y81477170D01*
X6197544Y81770002D01*
X5951220Y81934590D01*
X38657154Y81934590D01*
X38410830Y81770002D01*
G04 #@! TA.AperFunction,Conductor*
D31*
G36*
X38410830Y81770002D02*
G01*
X38117998Y81477170D01*
X37887922Y81132836D01*
X37729442Y80750233D01*
X37648650Y80344063D01*
X37648650Y79929937D01*
X37729442Y79523767D01*
X37887922Y79141164D01*
X38117998Y78796830D01*
X38410830Y78503998D01*
X38755164Y78273922D01*
X39137767Y78115442D01*
X39543937Y78034650D01*
X39958063Y78034650D01*
X40364233Y78115442D01*
X40746836Y78273922D01*
X41091170Y78503998D01*
X41384002Y78796830D01*
X41548581Y79043141D01*
X41548581Y60433546D01*
X41422042Y60518097D01*
X41121579Y60642553D01*
X40802609Y60706000D01*
X40477391Y60706000D01*
X40434393Y60697447D01*
X38502511Y62629329D01*
X38841680Y62628248D01*
X38966162Y62640508D01*
X39085860Y62676818D01*
X39196174Y62735783D01*
X39292865Y62815135D01*
X39372217Y62911826D01*
X39431182Y63022140D01*
X39467492Y63141838D01*
X39479752Y63266320D01*
X39476680Y64230250D01*
X39317930Y64389000D01*
X37719000Y64389000D01*
X37719000Y64369000D01*
X37465000Y64369000D01*
X37465000Y64389000D01*
X35866070Y64389000D01*
X35707320Y64230250D01*
X35704248Y63266320D01*
X35706249Y63246000D01*
X32043841Y63246000D01*
X30934355Y64355485D01*
X31019772Y64363898D01*
X31139470Y64400208D01*
X31249784Y64459173D01*
X31346475Y64538525D01*
X31425827Y64635216D01*
X31484792Y64745530D01*
X31521102Y64865228D01*
X31533362Y64989710D01*
X31533362Y65765680D01*
X35704248Y65765680D01*
X35707320Y64801750D01*
X35866070Y64643000D01*
X37465000Y64643000D01*
X37465000Y66241930D01*
X37719000Y66241930D01*
X37719000Y64643000D01*
X39317930Y64643000D01*
X39476680Y64801750D01*
X39479752Y65765680D01*
X39467492Y65890162D01*
X39431182Y66009860D01*
X39372217Y66120174D01*
X39292865Y66216865D01*
X39196174Y66296217D01*
X39085860Y66355182D01*
X38966162Y66391492D01*
X38841680Y66403752D01*
X37877750Y66400680D01*
X37719000Y66241930D01*
X37465000Y66241930D01*
X37306250Y66400680D01*
X36342320Y66403752D01*
X36217838Y66391492D01*
X36098140Y66355182D01*
X35987826Y66296217D01*
X35891135Y66216865D01*
X35811783Y66120174D01*
X35752818Y66009860D01*
X35716508Y65890162D01*
X35704248Y65765680D01*
X31533362Y65765680D01*
X31533362Y67090290D01*
X31521102Y67214772D01*
X31484792Y67334470D01*
X31425827Y67444784D01*
X31346475Y67541475D01*
X31249784Y67620827D01*
X31188702Y67653477D01*
X31285815Y67690167D01*
X31431728Y67988354D01*
X31516664Y68309277D01*
X31537359Y68640604D01*
X31493018Y68969602D01*
X31385344Y69283629D01*
X31285815Y69469833D01*
X31016273Y69571668D01*
X30024605Y68580000D01*
X30038748Y68565857D01*
X29859143Y68386252D01*
X29845000Y68400395D01*
X29830858Y68386252D01*
X29651253Y68565857D01*
X29665395Y68580000D01*
X28673727Y69571668D01*
X28404185Y69469833D01*
X28258272Y69171646D01*
X28173336Y68850723D01*
X28152641Y68519396D01*
X28196982Y68190398D01*
X28304656Y67876371D01*
X28404185Y67690167D01*
X28501298Y67653477D01*
X28440216Y67620827D01*
X28343525Y67541475D01*
X28264173Y67444784D01*
X28205208Y67334470D01*
X28168898Y67214772D01*
X28156638Y67090290D01*
X28156638Y64989710D01*
X28168898Y64865228D01*
X28205208Y64745530D01*
X28264173Y64635216D01*
X28343525Y64538525D01*
X28440216Y64459173D01*
X28550530Y64400208D01*
X28670228Y64363898D01*
X28755645Y64355485D01*
X25146000Y60745840D01*
X25146000Y61210928D01*
X25270482Y61223188D01*
X25390180Y61259498D01*
X25500494Y61318463D01*
X25597185Y61397815D01*
X25676537Y61494506D01*
X25735502Y61604820D01*
X25771812Y61724518D01*
X25784072Y61849000D01*
X25784072Y63881000D01*
X25771812Y64005482D01*
X25735502Y64125180D01*
X25676537Y64235494D01*
X25597185Y64332185D01*
X25500494Y64411537D01*
X25390180Y64470502D01*
X25376896Y64474532D01*
X25542860Y64535478D01*
X25685348Y64827821D01*
X25768064Y65142344D01*
X25787831Y65466962D01*
X25743888Y65789198D01*
X25637924Y66096670D01*
X25542860Y66274522D01*
X25276823Y66372218D01*
X24309605Y65405000D01*
X24323748Y65390857D01*
X24144143Y65211252D01*
X24130000Y65225395D01*
X24115858Y65211252D01*
X23936253Y65390857D01*
X23950395Y65405000D01*
X22983177Y66372218D01*
X22717140Y66274522D01*
X22574652Y65982179D01*
X22491936Y65667656D01*
X22472169Y65343038D01*
X22516112Y65020802D01*
X22622076Y64713330D01*
X22717140Y64535478D01*
X22883104Y64474532D01*
X22869820Y64470502D01*
X22759506Y64411537D01*
X22662815Y64332185D01*
X22583463Y64235494D01*
X22524498Y64125180D01*
X22488188Y64005482D01*
X22475928Y63881000D01*
X21121841Y63881000D01*
X18451018Y66551823D01*
X23162782Y66551823D01*
X24130000Y65584605D01*
X25097218Y66551823D01*
X24999522Y66817860D01*
X24707179Y66960348D01*
X24392656Y67043064D01*
X24068038Y67062831D01*
X23745802Y67018888D01*
X23438330Y66912924D01*
X23260478Y66817860D01*
X23162782Y66551823D01*
X18451018Y66551823D01*
X17771712Y67231128D01*
X17739896Y67269896D01*
X17585190Y67396860D01*
X17408687Y67491202D01*
X17217171Y67549298D01*
X17067902Y67564000D01*
X17018000Y67568915D01*
X16968098Y67564000D01*
X9447893Y67564000D01*
X9397999Y67568914D01*
X9348105Y67564000D01*
X9348098Y67564000D01*
X9198829Y67549298D01*
X9007313Y67491202D01*
X8830810Y67396860D01*
X8676104Y67269896D01*
X8644292Y67231133D01*
X6564160Y65151000D01*
X6078343Y65151000D01*
X6050502Y65242780D01*
X5991537Y65353094D01*
X5912185Y65449785D01*
X5815494Y65529137D01*
X5705180Y65588102D01*
X5654135Y65603586D01*
X5662197Y65610203D01*
X5849469Y65838394D01*
X5988625Y66098736D01*
X6074316Y66381223D01*
X6103251Y66675000D01*
X6074316Y66968777D01*
X5988625Y67251264D01*
X5849469Y67511606D01*
X5662197Y67739797D01*
X5434006Y67927069D01*
X5400460Y67945000D01*
X5434006Y67962931D01*
X5662197Y68150203D01*
X5702244Y68199000D01*
X9475098Y68199000D01*
X9525000Y68194085D01*
X9574902Y68199000D01*
X9724171Y68213702D01*
X9915687Y68271798D01*
X10092190Y68366140D01*
X10246896Y68493104D01*
X10278712Y68531872D01*
X10450017Y68703177D01*
X23162782Y68703177D01*
X23260478Y68437140D01*
X23552821Y68294652D01*
X23867344Y68211936D01*
X24191962Y68192169D01*
X24514198Y68236112D01*
X24821670Y68342076D01*
X24999522Y68437140D01*
X25097218Y68703177D01*
X24130000Y69670395D01*
X23162782Y68703177D01*
X10450017Y68703177D01*
X11478133Y69731292D01*
X11516896Y69763104D01*
X11537358Y69788038D01*
X22472169Y69788038D01*
X22516112Y69465802D01*
X22622076Y69158330D01*
X22717140Y68980478D01*
X22983177Y68882782D01*
X23950395Y69850000D01*
X23936253Y69864142D01*
X24115858Y70043747D01*
X24130000Y70029605D01*
X24144143Y70043747D01*
X24323748Y69864142D01*
X24309605Y69850000D01*
X25276823Y68882782D01*
X25542860Y68980478D01*
X25685348Y69272821D01*
X25768064Y69587344D01*
X25787831Y69911962D01*
X25743888Y70234198D01*
X25637924Y70541670D01*
X25542860Y70719522D01*
X25376896Y70780468D01*
X25390180Y70784498D01*
X25500494Y70843463D01*
X25597185Y70922815D01*
X25676537Y71019506D01*
X25735502Y71129820D01*
X25771812Y71249518D01*
X25784072Y71374000D01*
X26249160Y71374000D01*
X27186292Y70436867D01*
X27218104Y70398104D01*
X27372810Y70271140D01*
X27549313Y70176798D01*
X27740829Y70118702D01*
X27890098Y70104000D01*
X27890105Y70104000D01*
X27939999Y70099086D01*
X27989893Y70104000D01*
X28496989Y70104000D01*
X28535950Y70045690D01*
X28770690Y69810950D01*
X28854677Y69754832D01*
X28853332Y69751273D01*
X29845000Y68759605D01*
X30836668Y69751273D01*
X30835323Y69754832D01*
X30875421Y69781625D01*
X35707320Y69781625D01*
X35707320Y69410375D01*
X35779747Y69046259D01*
X35921818Y68703269D01*
X36128074Y68394587D01*
X36390587Y68132074D01*
X36699269Y67925818D01*
X37042259Y67783747D01*
X37406375Y67711320D01*
X37777625Y67711320D01*
X38141741Y67783747D01*
X38484731Y67925818D01*
X38793413Y68132074D01*
X39055926Y68394587D01*
X39262182Y68703269D01*
X39404253Y69046259D01*
X39476680Y69410375D01*
X39476680Y69781625D01*
X39404253Y70145741D01*
X39262182Y70488731D01*
X39055926Y70797413D01*
X38793413Y71059926D01*
X38484731Y71266182D01*
X38141741Y71408253D01*
X37777625Y71480680D01*
X37406375Y71480680D01*
X37042259Y71408253D01*
X36699269Y71266182D01*
X36390587Y71059926D01*
X36128074Y70797413D01*
X35921818Y70488731D01*
X35779747Y70145741D01*
X35707320Y69781625D01*
X30875421Y69781625D01*
X30919310Y69810950D01*
X31154050Y70045690D01*
X31338484Y70321716D01*
X31465525Y70628419D01*
X31530290Y70954013D01*
X31530290Y71285987D01*
X31465525Y71611581D01*
X31338484Y71918284D01*
X31154050Y72194310D01*
X30919310Y72429050D01*
X30643284Y72613484D01*
X30336581Y72740525D01*
X30010987Y72805290D01*
X29679013Y72805290D01*
X29353419Y72740525D01*
X29046716Y72613484D01*
X28770690Y72429050D01*
X28535950Y72194310D01*
X28496989Y72136000D01*
X28360841Y72136000D01*
X27686000Y72810840D01*
X27686000Y74128160D01*
X29215753Y75657912D01*
X29254516Y75689724D01*
X29381480Y75844430D01*
X29475822Y76020933D01*
X29533918Y76212449D01*
X29548620Y76361718D01*
X29548620Y76361725D01*
X29553534Y76411619D01*
X29548620Y76461513D01*
X29548620Y78112872D01*
X29574872Y78130413D01*
X29802607Y78358148D01*
X29981538Y78625937D01*
X30023549Y78727361D01*
X30076082Y78600537D01*
X30255013Y78332748D01*
X30482748Y78105013D01*
X30750537Y77926082D01*
X31048088Y77802832D01*
X31363967Y77740000D01*
X31686033Y77740000D01*
X32001912Y77802832D01*
X32299463Y77926082D01*
X32567252Y78105013D01*
X32794987Y78332748D01*
X32973918Y78600537D01*
X33097168Y78898088D01*
X33160000Y79213967D01*
X33160000Y79536033D01*
X33097168Y79851912D01*
X32973918Y80149463D01*
X32849503Y80335664D01*
X33590000Y80335664D01*
X33590000Y78414335D01*
X33607871Y78232898D01*
X33678490Y78000099D01*
X33793168Y77785551D01*
X33947499Y77597498D01*
X34135552Y77443167D01*
X34350100Y77328489D01*
X34582899Y77257870D01*
X34825000Y77234025D01*
X35067102Y77257870D01*
X35299901Y77328489D01*
X35514449Y77443167D01*
X35702502Y77597498D01*
X35856833Y77785551D01*
X35971511Y78000099D01*
X36042130Y78232898D01*
X36060000Y78414335D01*
X36060000Y80335665D01*
X36042130Y80517102D01*
X35971511Y80749901D01*
X35856833Y80964449D01*
X35702502Y81152502D01*
X35514448Y81306833D01*
X35299900Y81421511D01*
X35067101Y81492130D01*
X34825000Y81515975D01*
X34582898Y81492130D01*
X34350099Y81421511D01*
X34135551Y81306833D01*
X33947498Y81152502D01*
X33793167Y80964448D01*
X33678489Y80749900D01*
X33607870Y80517101D01*
X33590000Y80335664D01*
X32849503Y80335664D01*
X32794987Y80417252D01*
X32567252Y80644987D01*
X32299463Y80823918D01*
X32001912Y80947168D01*
X31686033Y81010000D01*
X31363967Y81010000D01*
X31048088Y80947168D01*
X30750537Y80823918D01*
X30482748Y80644987D01*
X30255013Y80417252D01*
X30076082Y80149463D01*
X30034071Y80048039D01*
X29981538Y80174863D01*
X29802607Y80442652D01*
X29574872Y80670387D01*
X29307083Y80849318D01*
X29009532Y80972568D01*
X28693653Y81035400D01*
X28371587Y81035400D01*
X28055708Y80972568D01*
X27758157Y80849318D01*
X27490368Y80670387D01*
X27262633Y80442652D01*
X27083702Y80174863D01*
X27023549Y80029642D01*
X26973918Y80149463D01*
X26794987Y80417252D01*
X26567252Y80644987D01*
X26299463Y80823918D01*
X26001912Y80947168D01*
X25686033Y81010000D01*
X25363967Y81010000D01*
X25048088Y80947168D01*
X24750537Y80823918D01*
X24482748Y80644987D01*
X24255013Y80417252D01*
X24076082Y80149463D01*
X23952832Y79851912D01*
X23890000Y79536033D01*
X23890000Y79213967D01*
X23952832Y78898088D01*
X24076082Y78600537D01*
X24255013Y78332748D01*
X24482748Y78105013D01*
X24750537Y77926082D01*
X25048088Y77802832D01*
X25363967Y77740000D01*
X25686033Y77740000D01*
X26001912Y77802832D01*
X26299463Y77926082D01*
X26567252Y78105013D01*
X26794987Y78332748D01*
X26973918Y78600537D01*
X27034071Y78745758D01*
X27083702Y78625937D01*
X27262633Y78358148D01*
X27490368Y78130413D01*
X27516621Y78112872D01*
X27516620Y76832461D01*
X25986868Y75302708D01*
X25948105Y75270896D01*
X25821141Y75116190D01*
X25730130Y74945919D01*
X25726799Y74939687D01*
X25668702Y74748170D01*
X25649085Y74549000D01*
X25654001Y74499089D01*
X25654001Y73787955D01*
X25597185Y73857185D01*
X25500494Y73936537D01*
X25390180Y73995502D01*
X25270482Y74031812D01*
X25146000Y74044072D01*
X23114000Y74044072D01*
X22989518Y74031812D01*
X22869820Y73995502D01*
X22759506Y73936537D01*
X22662815Y73857185D01*
X22583463Y73760494D01*
X22524498Y73650180D01*
X22488188Y73530482D01*
X22475928Y73406000D01*
X22475928Y71374000D01*
X22488188Y71249518D01*
X22524498Y71129820D01*
X22583463Y71019506D01*
X22662815Y70922815D01*
X22759506Y70843463D01*
X22869820Y70784498D01*
X22883104Y70780468D01*
X22717140Y70719522D01*
X22574652Y70427179D01*
X22491936Y70112656D01*
X22472169Y69788038D01*
X11537358Y69788038D01*
X11643860Y69917810D01*
X11738202Y70094313D01*
X11796298Y70285829D01*
X11811000Y70435098D01*
X11811000Y70435105D01*
X11812384Y70449154D01*
X11847451Y70472585D01*
X11983043Y70608177D01*
X13637782Y70608177D01*
X13735478Y70342140D01*
X14027821Y70199652D01*
X14342344Y70116936D01*
X14666962Y70097169D01*
X14989198Y70141112D01*
X15296670Y70247076D01*
X15474522Y70342140D01*
X15572218Y70608177D01*
X14605000Y71575395D01*
X13637782Y70608177D01*
X11983043Y70608177D01*
X12077415Y70702549D01*
X12258097Y70972958D01*
X12382553Y71273421D01*
X12446000Y71592391D01*
X12446000Y71693038D01*
X12947169Y71693038D01*
X12991112Y71370802D01*
X13097076Y71063330D01*
X13192140Y70885478D01*
X13458177Y70787782D01*
X14425395Y71755000D01*
X14784605Y71755000D01*
X15751823Y70787782D01*
X16017860Y70885478D01*
X16160348Y71177821D01*
X16243064Y71492344D01*
X16262831Y71816962D01*
X16218888Y72139198D01*
X16112924Y72446670D01*
X16017860Y72624522D01*
X15751823Y72722218D01*
X14784605Y71755000D01*
X14425395Y71755000D01*
X13458177Y72722218D01*
X13192140Y72624522D01*
X13049652Y72332179D01*
X12966936Y72017656D01*
X12947169Y71693038D01*
X12446000Y71693038D01*
X12446000Y71917609D01*
X12382553Y72236579D01*
X12258097Y72537042D01*
X12077415Y72807451D01*
X11983043Y72901823D01*
X13637782Y72901823D01*
X14605000Y71934605D01*
X15572218Y72901823D01*
X15474522Y73167860D01*
X15182179Y73310348D01*
X14867656Y73393064D01*
X14543038Y73412831D01*
X14220802Y73368888D01*
X13913330Y73262924D01*
X13735478Y73167860D01*
X13637782Y72901823D01*
X11983043Y72901823D01*
X11847451Y73037415D01*
X11577042Y73218097D01*
X11276579Y73342553D01*
X10957609Y73406000D01*
X10632391Y73406000D01*
X10313421Y73342553D01*
X10012958Y73218097D01*
X9742549Y73037415D01*
X9512585Y72807451D01*
X9331903Y72537042D01*
X9207447Y72236579D01*
X9144000Y71917609D01*
X9144000Y71592391D01*
X9207447Y71273421D01*
X9331903Y70972958D01*
X9512585Y70702549D01*
X9544147Y70670987D01*
X9104160Y70231000D01*
X5702244Y70231000D01*
X5662197Y70279797D01*
X5434006Y70467069D01*
X5400460Y70485000D01*
X5434006Y70502931D01*
X5662197Y70690203D01*
X5849469Y70918394D01*
X5988625Y71178736D01*
X6074316Y71461223D01*
X6103251Y71755000D01*
X6074316Y72048777D01*
X5988625Y72331264D01*
X5849469Y72591606D01*
X5662197Y72819797D01*
X5434006Y73007069D01*
X5394053Y73028424D01*
X5596729Y73176514D01*
X5795733Y73392965D01*
X5948686Y73644081D01*
X6049709Y73920211D01*
X6052358Y73935974D01*
X5931217Y74168000D01*
X4572000Y74168000D01*
X4572000Y74148000D01*
X4318000Y74148000D01*
X4318000Y74168000D01*
X4298000Y74168000D01*
X4298000Y74422000D01*
X4318000Y74422000D01*
X4318000Y75635925D01*
X4572000Y75635925D01*
X4572000Y74422000D01*
X5931217Y74422000D01*
X6052358Y74654026D01*
X6049709Y74669789D01*
X5948686Y74945919D01*
X5795733Y75197035D01*
X5596729Y75413486D01*
X5359321Y75586954D01*
X5092633Y75710773D01*
X4806914Y75780185D01*
X4572000Y75635925D01*
X4318000Y75635925D01*
X4083086Y75780185D01*
X3797367Y75710773D01*
X3530679Y75586954D01*
X3293271Y75413486D01*
X3094267Y75197035D01*
X3059781Y75140416D01*
X3059781Y79043159D01*
X3224372Y78796830D01*
X3517204Y78503998D01*
X3861538Y78273922D01*
X4244141Y78115442D01*
X4650311Y78034650D01*
X5064437Y78034650D01*
X5470607Y78115442D01*
X5853210Y78273922D01*
X6197544Y78503998D01*
X6490376Y78796830D01*
X6720452Y79141164D01*
X6878932Y79523767D01*
X6959724Y79929937D01*
X6959724Y80335664D01*
X20990000Y80335664D01*
X20990000Y78414335D01*
X21007871Y78232898D01*
X21078490Y78000099D01*
X21193168Y77785551D01*
X21347499Y77597498D01*
X21535552Y77443167D01*
X21750100Y77328489D01*
X21982899Y77257870D01*
X22225000Y77234025D01*
X22467102Y77257870D01*
X22699901Y77328489D01*
X22914449Y77443167D01*
X23102502Y77597498D01*
X23256833Y77785551D01*
X23371511Y78000099D01*
X23442130Y78232898D01*
X23460000Y78414335D01*
X23460000Y80335665D01*
X23442130Y80517102D01*
X23371511Y80749901D01*
X23256833Y80964449D01*
X23102502Y81152502D01*
X22914448Y81306833D01*
X22699900Y81421511D01*
X22467101Y81492130D01*
X22225000Y81515975D01*
X21982898Y81492130D01*
X21750099Y81421511D01*
X21535551Y81306833D01*
X21347498Y81152502D01*
X21193167Y80964448D01*
X21078489Y80749900D01*
X21007870Y80517101D01*
X20990000Y80335664D01*
X6959724Y80335664D01*
X6959724Y80344063D01*
X6878932Y80750233D01*
X6720452Y81132836D01*
X6490376Y81477170D01*
X6197544Y81770002D01*
X5951220Y81934590D01*
X38657154Y81934590D01*
X38410830Y81770002D01*
G37*
G04 #@! TD.AperFunction*
M02*
