G04 #@! TF.GenerationSoftware,KiCad,Pcbnew,(5.1.12)-1*
G04 #@! TF.CreationDate,2022-01-04T12:12:18+00:00*
G04 #@! TF.ProjectId,Lapse_O_Matic_PCB,4c617073-655f-44f5-9f4d-617469635f50,rev?*
G04 #@! TF.SameCoordinates,Original*
G04 #@! TF.FileFunction,Profile,NP*
%FSLAX46Y46*%
G04 Gerber Fmt 4.6, Leading zero omitted, Abs format (unit mm)*
G04 Created by KiCad (PCBNEW (5.1.12)-1) date 2022-01-04 12:12:18*
%MOMM*%
%LPD*%
G01*
G04 APERTURE LIST*
G04 #@! TA.AperFunction,Profile*
%ADD10C,0.100000*%
G04 #@! TD*
G04 APERTURE END LIST*
D10*
X93473484Y-65388893D02*
X93288726Y-65393550D01*
X93288726Y-65393550D02*
X93106455Y-65407308D01*
X93106455Y-65407308D02*
X92926909Y-65429983D01*
X92926909Y-65429983D02*
X92750273Y-65461362D01*
X92750273Y-65461362D02*
X92576786Y-65501208D01*
X92576786Y-65501208D02*
X92406686Y-65549310D01*
X92406686Y-65549310D02*
X92240184Y-65605401D01*
X92240184Y-65605401D02*
X92077492Y-65669325D01*
X92077492Y-65669325D02*
X91918848Y-65740815D01*
X91918848Y-65740815D02*
X91764463Y-65819687D01*
X91764463Y-65819687D02*
X91614551Y-65905677D01*
X91614551Y-65905677D02*
X91469348Y-65998598D01*
X91469348Y-65998598D02*
X91329066Y-66098214D01*
X91329066Y-66098214D02*
X91193917Y-66204285D01*
X91193917Y-66204285D02*
X91064139Y-66316627D01*
X91064139Y-66316627D02*
X90939970Y-66435001D01*
X90939970Y-66435001D02*
X90821595Y-66559197D01*
X90821595Y-66559197D02*
X90709254Y-66688948D01*
X90709254Y-66688948D02*
X90603182Y-66824097D01*
X90603182Y-66824097D02*
X90503567Y-66964379D01*
X90503567Y-66964379D02*
X90410645Y-67109582D01*
X90410645Y-67109582D02*
X90324656Y-67259495D01*
X90324656Y-67259495D02*
X90245783Y-67413879D01*
X90245783Y-67413879D02*
X90174293Y-67572523D01*
X90174293Y-67572523D02*
X90110370Y-67735215D01*
X90110370Y-67735215D02*
X90054252Y-67901744D01*
X90054252Y-67901744D02*
X90006177Y-68071844D01*
X90006177Y-68071844D02*
X89966331Y-68245305D01*
X89966331Y-68245305D02*
X89934951Y-68421940D01*
X89934951Y-68421940D02*
X89912277Y-68601486D01*
X89912277Y-68601486D02*
X89898492Y-68783757D01*
X89898492Y-68783757D02*
X89893862Y-68968516D01*
X89893862Y-68968516D02*
X89893862Y-70290928D01*
X89893862Y-70290928D02*
X87812863Y-70290928D01*
X87812863Y-70290928D02*
X87661125Y-70294738D01*
X87661125Y-70294738D02*
X87511424Y-70306036D01*
X87511424Y-70306036D02*
X87363972Y-70324662D01*
X87363972Y-70324662D02*
X87218901Y-70350433D01*
X87218901Y-70350433D02*
X87076450Y-70383162D01*
X87076450Y-70383162D02*
X86936750Y-70422664D01*
X86936750Y-70422664D02*
X86799987Y-70468728D01*
X86799987Y-70468728D02*
X86666372Y-70521221D01*
X86666372Y-70521221D02*
X86536092Y-70579959D01*
X86536092Y-70579959D02*
X86409277Y-70644728D01*
X86409277Y-70644728D02*
X86286167Y-70715346D01*
X86286167Y-70715346D02*
X86166919Y-70791651D01*
X86166919Y-70791651D02*
X86051693Y-70873460D01*
X86051693Y-70873460D02*
X85940701Y-70960588D01*
X85940701Y-70960588D02*
X85834127Y-71052848D01*
X85834127Y-71052848D02*
X85732156Y-71150029D01*
X85732156Y-71150029D02*
X85634922Y-71252158D01*
X85634922Y-71252158D02*
X85542662Y-71358520D01*
X85542662Y-71358520D02*
X85455535Y-71469645D01*
X85455535Y-71469645D02*
X85373726Y-71584739D01*
X85373726Y-71584739D02*
X85297420Y-71704066D01*
X85297420Y-71704066D02*
X85226776Y-71827097D01*
X85226776Y-71827097D02*
X85162033Y-71954097D01*
X85162033Y-71954097D02*
X85103295Y-72084272D01*
X85103295Y-72084272D02*
X85050802Y-72217886D01*
X85050802Y-72217886D02*
X85004712Y-72354675D01*
X85004712Y-72354675D02*
X84965236Y-72494375D01*
X84965236Y-72494375D02*
X84932507Y-72636721D01*
X84932507Y-72636721D02*
X84906737Y-72781977D01*
X84906737Y-72781977D02*
X84888110Y-72929350D01*
X84888110Y-72929350D02*
X84876812Y-73079104D01*
X84876812Y-73079104D02*
X84872976Y-73230710D01*
X84872976Y-73230710D02*
X84872976Y-112398254D01*
X84872976Y-112398254D02*
X84876812Y-112550125D01*
X84876812Y-112550125D02*
X84888110Y-112699879D01*
X84888110Y-112699879D02*
X84906737Y-112847252D01*
X84906737Y-112847252D02*
X84932507Y-112992243D01*
X84932507Y-112992243D02*
X84965236Y-113134853D01*
X84965236Y-113134853D02*
X85004712Y-113274553D01*
X85004712Y-113274553D02*
X85050802Y-113411342D01*
X85050802Y-113411342D02*
X85103295Y-113544957D01*
X85103295Y-113544957D02*
X85162033Y-113675132D01*
X85162033Y-113675132D02*
X85226776Y-113801867D01*
X85226776Y-113801867D02*
X85297420Y-113925163D01*
X85297420Y-113925163D02*
X85373726Y-114044225D01*
X85373726Y-114044225D02*
X85455535Y-114159583D01*
X85455535Y-114159583D02*
X85542662Y-114270443D01*
X85542662Y-114270443D02*
X85634922Y-114377070D01*
X85634922Y-114377070D02*
X85732156Y-114479199D01*
X85732156Y-114479199D02*
X85834127Y-114576301D01*
X85834127Y-114576301D02*
X85940701Y-114668641D01*
X85940701Y-114668641D02*
X86051693Y-114755689D01*
X86051693Y-114755689D02*
X86166919Y-114837445D01*
X86166919Y-114837445D02*
X86286167Y-114913909D01*
X86286167Y-114913909D02*
X86409277Y-114984553D01*
X86409277Y-114984553D02*
X86536092Y-115049111D01*
X86536092Y-115049111D02*
X86666372Y-115107849D01*
X86666372Y-115107849D02*
X86799987Y-115160501D01*
X86799987Y-115160501D02*
X86936750Y-115206538D01*
X86936750Y-115206538D02*
X87076450Y-115245961D01*
X87076450Y-115245961D02*
X87218901Y-115278769D01*
X87218901Y-115278769D02*
X87363972Y-115304434D01*
X87363972Y-115304434D02*
X87511424Y-115323219D01*
X87511424Y-115323219D02*
X87661125Y-115334332D01*
X87661125Y-115334332D02*
X87812863Y-115338300D01*
X87812863Y-115338300D02*
X89893862Y-115338300D01*
X89893862Y-115338300D02*
X89893862Y-116660686D01*
X89893862Y-116660686D02*
X89898492Y-116845365D01*
X89898492Y-116845365D02*
X89912277Y-117027663D01*
X89912277Y-117027663D02*
X89934951Y-117207315D01*
X89934951Y-117207315D02*
X89966331Y-117383792D01*
X89966331Y-117383792D02*
X90006177Y-117557358D01*
X90006177Y-117557358D02*
X90054252Y-117727485D01*
X90054252Y-117727485D02*
X90110370Y-117893908D01*
X90110370Y-117893908D02*
X90174293Y-118056626D01*
X90174293Y-118056626D02*
X90245783Y-118215376D01*
X90245783Y-118215376D02*
X90324656Y-118369628D01*
X90324656Y-118369628D02*
X90410645Y-118519646D01*
X90410645Y-118519646D02*
X90503567Y-118664903D01*
X90503567Y-118664903D02*
X90603182Y-118805132D01*
X90603182Y-118805132D02*
X90709254Y-118940333D01*
X90709254Y-118940333D02*
X90821595Y-119069979D01*
X90821595Y-119069979D02*
X90939970Y-119194069D01*
X90939970Y-119194069D02*
X91064139Y-119312602D01*
X91064139Y-119312602D02*
X91193917Y-119424785D01*
X91193917Y-119424785D02*
X91329066Y-119530883D01*
X91329066Y-119530883D02*
X91469348Y-119630630D01*
X91469348Y-119630630D02*
X91614551Y-119723499D01*
X91614551Y-119723499D02*
X91764463Y-119809489D01*
X91764463Y-119809489D02*
X91918848Y-119888334D01*
X91918848Y-119888334D02*
X92077492Y-119959772D01*
X92077492Y-119959772D02*
X92240184Y-120023801D01*
X92240184Y-120023801D02*
X92406686Y-120079892D01*
X92406686Y-120079892D02*
X92576786Y-120128047D01*
X92576786Y-120128047D02*
X92750273Y-120167734D01*
X92750273Y-120167734D02*
X92926909Y-120199219D01*
X92926909Y-120199219D02*
X93106455Y-120221973D01*
X93106455Y-120221973D02*
X93288726Y-120235732D01*
X93288726Y-120235732D02*
X93473484Y-120240230D01*
X93473484Y-120240230D02*
X105902774Y-120240230D01*
X105902774Y-120240230D02*
X105902774Y-124397093D01*
X105902774Y-124397093D02*
X105907271Y-124576481D01*
X105907271Y-124576481D02*
X105920236Y-124753222D01*
X105920236Y-124753222D02*
X105942461Y-124927318D01*
X105942461Y-124927318D02*
X105972888Y-125098767D01*
X105972888Y-125098767D02*
X106011782Y-125267307D01*
X106011782Y-125267307D02*
X106058348Y-125432142D01*
X106058348Y-125432142D02*
X106113117Y-125593802D01*
X106113117Y-125593802D02*
X106175029Y-125752023D01*
X106175029Y-125752023D02*
X106244350Y-125906010D01*
X106244350Y-125906010D02*
X106320815Y-126056029D01*
X106320815Y-126056029D02*
X106404423Y-126201020D01*
X106404423Y-126201020D02*
X106494381Y-126342307D01*
X106494381Y-126342307D02*
X106590954Y-126478039D01*
X106590954Y-126478039D02*
X106693877Y-126609272D01*
X106693877Y-126609272D02*
X106803414Y-126735478D01*
X106803414Y-126735478D02*
X106918243Y-126855863D01*
X106918243Y-126855863D02*
X107039158Y-126971221D01*
X107039158Y-126971221D02*
X107164570Y-127079700D01*
X107164570Y-127079700D02*
X107295803Y-127182888D01*
X107295803Y-127182888D02*
X107431799Y-127279725D01*
X107431799Y-127279725D02*
X107572821Y-127369419D01*
X107572821Y-127369419D02*
X107718607Y-127453291D01*
X107718607Y-127453291D02*
X107868361Y-127529756D01*
X107868361Y-127529756D02*
X108022348Y-127599077D01*
X108022348Y-127599077D02*
X108180039Y-127660989D01*
X108180039Y-127660989D02*
X108341700Y-127715758D01*
X108341700Y-127715758D02*
X108507064Y-127762324D01*
X108507064Y-127762324D02*
X108675074Y-127800954D01*
X108675074Y-127800954D02*
X108846789Y-127831645D01*
X108846789Y-127831645D02*
X109021413Y-127853341D01*
X109021413Y-127853341D02*
X109198155Y-127866570D01*
X109198155Y-127866570D02*
X109377277Y-127871333D01*
X109377277Y-127871333D02*
X142291667Y-127871333D01*
X142291667Y-127871333D02*
X142471055Y-127866570D01*
X142471055Y-127866570D02*
X142647796Y-127853341D01*
X142647796Y-127853341D02*
X142821892Y-127831645D01*
X142821892Y-127831645D02*
X142993341Y-127800954D01*
X142993341Y-127800954D02*
X143161881Y-127762324D01*
X143161881Y-127762324D02*
X143326716Y-127715758D01*
X143326716Y-127715758D02*
X143488376Y-127660989D01*
X143488376Y-127660989D02*
X143646597Y-127599077D01*
X143646597Y-127599077D02*
X143800584Y-127529756D01*
X143800584Y-127529756D02*
X143950338Y-127453291D01*
X143950338Y-127453291D02*
X144095594Y-127369419D01*
X144095594Y-127369419D02*
X144236617Y-127279725D01*
X144236617Y-127279725D02*
X144372613Y-127182888D01*
X144372613Y-127182888D02*
X144503846Y-127079700D01*
X144503846Y-127079700D02*
X144630052Y-126971221D01*
X144630052Y-126971221D02*
X144750437Y-126855863D01*
X144750437Y-126855863D02*
X144865531Y-126735478D01*
X144865531Y-126735478D02*
X144974539Y-126609272D01*
X144974539Y-126609272D02*
X145077462Y-126478039D01*
X145077462Y-126478039D02*
X145174034Y-126342307D01*
X145174034Y-126342307D02*
X145263993Y-126201020D01*
X145263993Y-126201020D02*
X145347866Y-126056029D01*
X145347866Y-126056029D02*
X145424330Y-125906010D01*
X145424330Y-125906010D02*
X145493386Y-125752023D01*
X145493386Y-125752023D02*
X145555563Y-125593802D01*
X145555563Y-125593802D02*
X145609803Y-125432142D01*
X145609803Y-125432142D02*
X145656898Y-125267307D01*
X145656898Y-125267307D02*
X145695528Y-125098767D01*
X145695528Y-125098767D02*
X145725955Y-124927318D01*
X145725955Y-124927318D02*
X145747650Y-124753222D01*
X145747650Y-124753222D02*
X145761144Y-124576481D01*
X145761144Y-124576481D02*
X145765907Y-124397093D01*
X145765907Y-124397093D02*
X145765907Y-120240230D01*
X145765907Y-120240230D02*
X158141776Y-120240230D01*
X158141776Y-120240230D02*
X158326455Y-120235732D01*
X158326455Y-120235732D02*
X158508753Y-120221973D01*
X158508753Y-120221973D02*
X158688405Y-120199219D01*
X158688405Y-120199219D02*
X158865146Y-120167734D01*
X158865146Y-120167734D02*
X159038448Y-120128047D01*
X159038448Y-120128047D02*
X159208575Y-120079892D01*
X159208575Y-120079892D02*
X159374998Y-120023801D01*
X159374998Y-120023801D02*
X159537716Y-119959772D01*
X159537716Y-119959772D02*
X159696466Y-119888334D01*
X159696466Y-119888334D02*
X159850718Y-119809489D01*
X159850718Y-119809489D02*
X160000737Y-119723499D01*
X160000737Y-119723499D02*
X160145993Y-119630630D01*
X160145993Y-119630630D02*
X160286222Y-119530883D01*
X160286222Y-119530883D02*
X160421424Y-119424785D01*
X160421424Y-119424785D02*
X160551069Y-119312602D01*
X160551069Y-119312602D02*
X160675423Y-119194069D01*
X160675423Y-119194069D02*
X160793692Y-119069979D01*
X160793692Y-119069979D02*
X160906140Y-118940333D01*
X160906140Y-118940333D02*
X161012237Y-118805132D01*
X161012237Y-118805132D02*
X161111721Y-118664903D01*
X161111721Y-118664903D02*
X161204589Y-118519646D01*
X161204589Y-118519646D02*
X161290579Y-118369628D01*
X161290579Y-118369628D02*
X161369424Y-118215376D01*
X161369424Y-118215376D02*
X161441126Y-118056626D01*
X161441126Y-118056626D02*
X161504891Y-117893908D01*
X161504891Y-117893908D02*
X161560983Y-117727485D01*
X161560983Y-117727485D02*
X161609137Y-117557358D01*
X161609137Y-117557358D02*
X161649089Y-117383792D01*
X161649089Y-117383792D02*
X161680310Y-117207315D01*
X161680310Y-117207315D02*
X161703064Y-117027663D01*
X161703064Y-117027663D02*
X161716822Y-116845365D01*
X161716822Y-116845365D02*
X161721320Y-116660686D01*
X161721320Y-116660686D02*
X161721320Y-115338300D01*
X161721320Y-115338300D02*
X163855711Y-115338300D01*
X163855711Y-115338300D02*
X164007317Y-115334332D01*
X164007317Y-115334332D02*
X164157071Y-115323219D01*
X164157071Y-115323219D02*
X164304444Y-115304434D01*
X164304444Y-115304434D02*
X164449700Y-115278769D01*
X164449700Y-115278769D02*
X164592045Y-115245961D01*
X164592045Y-115245961D02*
X164731745Y-115206538D01*
X164731745Y-115206538D02*
X164868535Y-115160501D01*
X164868535Y-115160501D02*
X165002149Y-115107849D01*
X165002149Y-115107849D02*
X165132324Y-115049111D01*
X165132324Y-115049111D02*
X165259324Y-114984553D01*
X165259324Y-114984553D02*
X165382355Y-114913909D01*
X165382355Y-114913909D02*
X165501682Y-114837445D01*
X165501682Y-114837445D02*
X165616775Y-114755689D01*
X165616775Y-114755689D02*
X165727900Y-114668641D01*
X165727900Y-114668641D02*
X165834263Y-114576301D01*
X165834263Y-114576301D02*
X165936392Y-114479199D01*
X165936392Y-114479199D02*
X166033494Y-114377070D01*
X166033494Y-114377070D02*
X166125833Y-114270443D01*
X166125833Y-114270443D02*
X166212881Y-114159583D01*
X166212881Y-114159583D02*
X166294902Y-114044225D01*
X166294902Y-114044225D02*
X166371102Y-113925163D01*
X166371102Y-113925163D02*
X166441745Y-113801867D01*
X166441745Y-113801867D02*
X166506568Y-113675132D01*
X166506568Y-113675132D02*
X166565305Y-113544957D01*
X166565305Y-113544957D02*
X166617693Y-113411342D01*
X166617693Y-113411342D02*
X166663730Y-113274553D01*
X166663730Y-113274553D02*
X166703418Y-113134853D01*
X166703418Y-113134853D02*
X166735961Y-112992243D01*
X166735961Y-112992243D02*
X166761891Y-112847252D01*
X166761891Y-112847252D02*
X166780411Y-112699879D01*
X166780411Y-112699879D02*
X166791788Y-112550125D01*
X166791788Y-112550125D02*
X166795493Y-112398254D01*
X166795493Y-112398254D02*
X166795493Y-73230710D01*
X166795493Y-73230710D02*
X166791788Y-73079104D01*
X166791788Y-73079104D02*
X166780411Y-72929350D01*
X166780411Y-72929350D02*
X166761891Y-72781977D01*
X166761891Y-72781977D02*
X166735961Y-72636721D01*
X166735961Y-72636721D02*
X166703418Y-72494375D01*
X166703418Y-72494375D02*
X166663730Y-72354675D01*
X166663730Y-72354675D02*
X166617693Y-72217886D01*
X166617693Y-72217886D02*
X166565305Y-72084272D01*
X166565305Y-72084272D02*
X166506568Y-71954097D01*
X166506568Y-71954097D02*
X166441745Y-71827097D01*
X166441745Y-71827097D02*
X166371102Y-71704066D01*
X166371102Y-71704066D02*
X166294902Y-71584739D01*
X166294902Y-71584739D02*
X166212881Y-71469645D01*
X166212881Y-71469645D02*
X166125833Y-71358520D01*
X166125833Y-71358520D02*
X166033494Y-71252158D01*
X166033494Y-71252158D02*
X165936392Y-71150029D01*
X165936392Y-71150029D02*
X165834263Y-71052848D01*
X165834263Y-71052848D02*
X165727900Y-70960588D01*
X165727900Y-70960588D02*
X165616775Y-70873460D01*
X165616775Y-70873460D02*
X165501682Y-70791651D01*
X165501682Y-70791651D02*
X165382355Y-70715346D01*
X165382355Y-70715346D02*
X165259324Y-70644728D01*
X165259324Y-70644728D02*
X165132324Y-70579959D01*
X165132324Y-70579959D02*
X165002149Y-70521221D01*
X165002149Y-70521221D02*
X164868535Y-70468728D01*
X164868535Y-70468728D02*
X164731745Y-70422664D01*
X164731745Y-70422664D02*
X164592045Y-70383162D01*
X164592045Y-70383162D02*
X164449700Y-70350433D01*
X164449700Y-70350433D02*
X164304444Y-70324662D01*
X164304444Y-70324662D02*
X164157071Y-70306036D01*
X164157071Y-70306036D02*
X164007317Y-70294738D01*
X164007317Y-70294738D02*
X163855711Y-70290928D01*
X163855711Y-70290928D02*
X161721320Y-70290928D01*
X161721320Y-70290928D02*
X161721320Y-68968516D01*
X161721320Y-68968516D02*
X161716822Y-68783757D01*
X161716822Y-68783757D02*
X161703064Y-68601486D01*
X161703064Y-68601486D02*
X161680310Y-68421940D01*
X161680310Y-68421940D02*
X161649089Y-68245305D01*
X161649089Y-68245305D02*
X161609137Y-68071844D01*
X161609137Y-68071844D02*
X161560983Y-67901744D01*
X161560983Y-67901744D02*
X161504891Y-67735215D01*
X161504891Y-67735215D02*
X161441126Y-67572523D01*
X161441126Y-67572523D02*
X161369424Y-67413879D01*
X161369424Y-67413879D02*
X161290579Y-67259495D01*
X161290579Y-67259495D02*
X161204589Y-67109582D01*
X161204589Y-67109582D02*
X161111721Y-66964379D01*
X161111721Y-66964379D02*
X161012237Y-66824097D01*
X161012237Y-66824097D02*
X160906140Y-66688948D01*
X160906140Y-66688948D02*
X160793692Y-66559197D01*
X160793692Y-66559197D02*
X160675423Y-66435001D01*
X160675423Y-66435001D02*
X160551069Y-66316627D01*
X160551069Y-66316627D02*
X160421424Y-66204285D01*
X160421424Y-66204285D02*
X160286222Y-66098214D01*
X160286222Y-66098214D02*
X160145993Y-65998598D01*
X160145993Y-65998598D02*
X160000737Y-65905677D01*
X160000737Y-65905677D02*
X159850718Y-65819687D01*
X159850718Y-65819687D02*
X159696466Y-65740815D01*
X159696466Y-65740815D02*
X159537716Y-65669325D01*
X159537716Y-65669325D02*
X159374998Y-65605401D01*
X159374998Y-65605401D02*
X159208575Y-65549310D01*
X159208575Y-65549310D02*
X159038448Y-65501208D01*
X159038448Y-65501208D02*
X158865146Y-65461362D01*
X158865146Y-65461362D02*
X158688405Y-65429983D01*
X158688405Y-65429983D02*
X158508753Y-65407308D01*
X158508753Y-65407308D02*
X158326455Y-65393550D01*
X158326455Y-65393550D02*
X158141776Y-65388893D01*
X158141776Y-65388893D02*
X93473484Y-65388893D01*
X93473484Y-65388893D02*
X93473484Y-65388893D01*
X93473484Y-65388893D02*
X93473484Y-65388893D01*
M02*
