G04 #@! TF.GenerationSoftware,KiCad,Pcbnew,(5.1.10)-1*
G04 #@! TF.CreationDate,2021-08-05T15:33:14+01:00*
G04 #@! TF.ProjectId,Lapse_O_Matic_PCB,4c617073-655f-44f5-9f4d-617469635f50,rev?*
G04 #@! TF.SameCoordinates,PX5d42830PY7b89fa0*
G04 #@! TF.FileFunction,Soldermask,Bot*
G04 #@! TF.FilePolarity,Negative*
%FSLAX46Y46*%
G04 Gerber Fmt 4.6, Leading zero omitted, Abs format (unit mm)*
G04 Created by KiCad (PCBNEW (5.1.10)-1) date 2021-08-05 15:33:14*
%MOMM*%
%LPD*%
G01*
G04 APERTURE LIST*
%ADD10C,0.010000*%
%ADD11C,2.032000*%
%ADD12R,2.032000X2.032000*%
%ADD13C,2.934700*%
%ADD14O,2.286000X1.778000*%
%ADD15R,2.286000X1.778000*%
%ADD16R,2.100580X2.100580*%
%ADD17C,2.199640*%
%ADD18C,2.000000*%
%ADD19O,1.200000X3.000000*%
%ADD20C,1.800000*%
%ADD21R,2.032000X1.727200*%
%ADD22O,2.032000X1.727200*%
%ADD23C,2.100580*%
%ADD24C,1.905000*%
%ADD25R,1.905000X1.905000*%
%ADD26R,2.499360X2.499360*%
%ADD27C,2.499360*%
G04 APERTURE END LIST*
D10*
G36*
X12611685Y81417583D02*
G01*
X12629890Y81346392D01*
X12666451Y81201440D01*
X12719266Y80991123D01*
X12786234Y80723839D01*
X12865253Y80407983D01*
X12954221Y80051953D01*
X13051037Y79664145D01*
X13153599Y79252956D01*
X13186494Y79121000D01*
X13289668Y78707389D01*
X13387178Y78317103D01*
X13477013Y77958150D01*
X13557161Y77638539D01*
X13625610Y77366278D01*
X13680350Y77149376D01*
X13719368Y76995841D01*
X13740653Y76913681D01*
X13743527Y76903319D01*
X13750322Y76869133D01*
X13740545Y76849015D01*
X13705584Y76845600D01*
X13636830Y76861521D01*
X13525672Y76899413D01*
X13363501Y76961911D01*
X13141705Y77051650D01*
X12851675Y77171263D01*
X12806094Y77190145D01*
X12570923Y77286818D01*
X12364072Y77370366D01*
X12197610Y77436035D01*
X12083606Y77479074D01*
X12034128Y77494731D01*
X12033086Y77494531D01*
X12045071Y77453840D01*
X12084248Y77343426D01*
X12147177Y77172495D01*
X12230414Y76950252D01*
X12330519Y76685903D01*
X12444050Y76388655D01*
X12534377Y76153715D01*
X12709792Y75698316D01*
X12856729Y75315872D01*
X12977400Y75000430D01*
X13074014Y74746033D01*
X13148781Y74546727D01*
X13203911Y74396559D01*
X13241615Y74289572D01*
X13264103Y74219814D01*
X13273584Y74181329D01*
X13272269Y74168162D01*
X13271411Y74168000D01*
X13237088Y74199298D01*
X13190871Y74263250D01*
X13070015Y74453379D01*
X12923391Y74688462D01*
X12755498Y74960941D01*
X12570836Y75263254D01*
X12373904Y75587844D01*
X12169202Y75927152D01*
X11961230Y76273618D01*
X11754486Y76619683D01*
X11553471Y76957788D01*
X11362684Y77280374D01*
X11186625Y77579882D01*
X11029793Y77848752D01*
X10896687Y78079426D01*
X10791808Y78264345D01*
X10719654Y78395948D01*
X10684725Y78466679D01*
X10682720Y78476882D01*
X10736789Y78469240D01*
X10860404Y78441335D01*
X11041704Y78396181D01*
X11268830Y78336789D01*
X11529922Y78266173D01*
X11724322Y78212299D01*
X11999308Y78135488D01*
X12245852Y78066872D01*
X12452696Y78009563D01*
X12608583Y77966675D01*
X12702255Y77941319D01*
X12724838Y77935666D01*
X12703747Y77969340D01*
X12638759Y78066044D01*
X12534324Y78219306D01*
X12394895Y78422651D01*
X12224922Y78669606D01*
X12028856Y78953696D01*
X11811147Y79268449D01*
X11576248Y79607390D01*
X11490676Y79730707D01*
X11250256Y80077540D01*
X11025099Y80403274D01*
X10819720Y80701316D01*
X10638629Y80965073D01*
X10486341Y81187952D01*
X10367367Y81363362D01*
X10286221Y81484709D01*
X10247414Y81545400D01*
X10244667Y81551041D01*
X10285197Y81557651D01*
X10399578Y81563616D01*
X10576994Y81568702D01*
X10806631Y81572672D01*
X11077673Y81575292D01*
X11379304Y81576326D01*
X11407202Y81576333D01*
X12569737Y81576333D01*
X12611685Y81417583D01*
G37*
X12611685Y81417583D02*
X12629890Y81346392D01*
X12666451Y81201440D01*
X12719266Y80991123D01*
X12786234Y80723839D01*
X12865253Y80407983D01*
X12954221Y80051953D01*
X13051037Y79664145D01*
X13153599Y79252956D01*
X13186494Y79121000D01*
X13289668Y78707389D01*
X13387178Y78317103D01*
X13477013Y77958150D01*
X13557161Y77638539D01*
X13625610Y77366278D01*
X13680350Y77149376D01*
X13719368Y76995841D01*
X13740653Y76913681D01*
X13743527Y76903319D01*
X13750322Y76869133D01*
X13740545Y76849015D01*
X13705584Y76845600D01*
X13636830Y76861521D01*
X13525672Y76899413D01*
X13363501Y76961911D01*
X13141705Y77051650D01*
X12851675Y77171263D01*
X12806094Y77190145D01*
X12570923Y77286818D01*
X12364072Y77370366D01*
X12197610Y77436035D01*
X12083606Y77479074D01*
X12034128Y77494731D01*
X12033086Y77494531D01*
X12045071Y77453840D01*
X12084248Y77343426D01*
X12147177Y77172495D01*
X12230414Y76950252D01*
X12330519Y76685903D01*
X12444050Y76388655D01*
X12534377Y76153715D01*
X12709792Y75698316D01*
X12856729Y75315872D01*
X12977400Y75000430D01*
X13074014Y74746033D01*
X13148781Y74546727D01*
X13203911Y74396559D01*
X13241615Y74289572D01*
X13264103Y74219814D01*
X13273584Y74181329D01*
X13272269Y74168162D01*
X13271411Y74168000D01*
X13237088Y74199298D01*
X13190871Y74263250D01*
X13070015Y74453379D01*
X12923391Y74688462D01*
X12755498Y74960941D01*
X12570836Y75263254D01*
X12373904Y75587844D01*
X12169202Y75927152D01*
X11961230Y76273618D01*
X11754486Y76619683D01*
X11553471Y76957788D01*
X11362684Y77280374D01*
X11186625Y77579882D01*
X11029793Y77848752D01*
X10896687Y78079426D01*
X10791808Y78264345D01*
X10719654Y78395948D01*
X10684725Y78466679D01*
X10682720Y78476882D01*
X10736789Y78469240D01*
X10860404Y78441335D01*
X11041704Y78396181D01*
X11268830Y78336789D01*
X11529922Y78266173D01*
X11724322Y78212299D01*
X11999308Y78135488D01*
X12245852Y78066872D01*
X12452696Y78009563D01*
X12608583Y77966675D01*
X12702255Y77941319D01*
X12724838Y77935666D01*
X12703747Y77969340D01*
X12638759Y78066044D01*
X12534324Y78219306D01*
X12394895Y78422651D01*
X12224922Y78669606D01*
X12028856Y78953696D01*
X11811147Y79268449D01*
X11576248Y79607390D01*
X11490676Y79730707D01*
X11250256Y80077540D01*
X11025099Y80403274D01*
X10819720Y80701316D01*
X10638629Y80965073D01*
X10486341Y81187952D01*
X10367367Y81363362D01*
X10286221Y81484709D01*
X10247414Y81545400D01*
X10244667Y81551041D01*
X10285197Y81557651D01*
X10399578Y81563616D01*
X10576994Y81568702D01*
X10806631Y81572672D01*
X11077673Y81575292D01*
X11379304Y81576326D01*
X11407202Y81576333D01*
X12569737Y81576333D01*
X12611685Y81417583D01*
D11*
X40640000Y48387000D03*
X40640000Y45847000D03*
D12*
X40640000Y43307000D03*
D13*
X4857374Y80137000D03*
X39751000Y80137000D03*
X39751000Y5243375D03*
X4857374Y5243375D03*
D14*
X10795000Y12700000D03*
X10795000Y15240000D03*
X10795000Y17780000D03*
X10795000Y20320000D03*
X10795000Y22860000D03*
X10795000Y25400000D03*
X33655000Y25400000D03*
X33655000Y22860000D03*
X33655000Y20320000D03*
X33655000Y17780000D03*
X33655000Y15240000D03*
X33655000Y12700000D03*
X33655000Y10160000D03*
D15*
X33655000Y7620000D03*
D14*
X10795000Y10160000D03*
X10795000Y7620000D03*
D16*
X4445000Y34290000D03*
D17*
X4445000Y36830000D03*
X4445000Y39370000D03*
X4445000Y41910000D03*
X4445000Y44450000D03*
X4445000Y46990000D03*
D11*
X20320000Y37465000D03*
X20320000Y29845000D03*
D18*
X28532620Y79400400D03*
X25525000Y79375000D03*
X31525000Y79375000D03*
D19*
X22225000Y79375000D03*
X34825000Y79375000D03*
D20*
X37465000Y48768000D03*
X37465000Y39370000D03*
D12*
X31750000Y50165000D03*
D11*
X29210000Y50165000D03*
D21*
X4445000Y52705000D03*
D22*
X4445000Y55245000D03*
D11*
X23495000Y37465000D03*
X23495000Y29845000D03*
X40640000Y51435000D03*
X35560000Y51435000D03*
X40640000Y59055000D03*
X35560000Y59055000D03*
X24130000Y69850000D03*
D12*
X24130000Y72390000D03*
X24130000Y62865000D03*
D11*
X24130000Y65405000D03*
D23*
X29845000Y68580000D03*
X29845000Y71120000D03*
D16*
X29845000Y66040000D03*
D11*
X3810000Y27305000D03*
D12*
X6350000Y27305000D03*
X6350000Y13970000D03*
D11*
X3810000Y13970000D03*
X40640000Y27305000D03*
D12*
X38100000Y27305000D03*
X38100000Y13970000D03*
D11*
X40640000Y13970000D03*
X18415000Y19685000D03*
X26035000Y19685000D03*
X26035000Y16510000D03*
X18415000Y16510000D03*
X18415000Y13335000D03*
X26035000Y13335000D03*
X26035000Y10160000D03*
X18415000Y10160000D03*
D21*
X4445000Y64135000D03*
D22*
X4445000Y66675000D03*
X4445000Y69215000D03*
X4445000Y71755000D03*
X4445000Y74295000D03*
D23*
X10160000Y58420000D03*
X10160000Y55880000D03*
D16*
X10160000Y53340000D03*
D11*
X10795000Y37465000D03*
X10795000Y29845000D03*
X13970000Y37465000D03*
X13970000Y29845000D03*
X28575000Y29845000D03*
X28575000Y37465000D03*
X31750000Y29845000D03*
X31750000Y37465000D03*
X10795000Y71755000D03*
X10795000Y64135000D03*
X14605000Y64135000D03*
X14605000Y71755000D03*
D12*
X19685000Y53975000D03*
D11*
X22225000Y53975000D03*
X24765000Y53975000D03*
D24*
X13335000Y40640000D03*
X13335000Y43180000D03*
D25*
X10795000Y43180000D03*
X27940000Y43180000D03*
D24*
X30480000Y43180000D03*
X30480000Y40640000D03*
D26*
X37592000Y64516000D03*
D27*
X37592000Y69596000D03*
M02*
